<?xml version="1.0" standalone="no"?>
<!DOCTYPE svg PUBLIC "-//W3C//DTD SVG 20010904//EN"
 "http://www.w3.org/TR/2001/REC-SVG-20010904/DTD/svg10.dtd">
<svg version="1.0" xmlns="http://www.w3.org/2000/svg"
 width="225.000000pt" height="225.000000pt" viewBox="0 0 225.000000 225.000000"
 preserveAspectRatio="xMidYMid meet">
<metadata>
Created by potrace 1.16, written by Peter Selinger 2001-2019
</metadata>
<g transform="translate(0.000000,225.000000) scale(0.100000,-0.100000)"
fill="#000000" stroke="none">
<path d="M1486 1763 c-3 -3 -6 -15 -6 -25 0 -10 -7 -18 -15 -18 -9 0 -18 -7
-22 -15 -5 -14 -8 -14 -22 -2 -9 8 -35 18 -59 22 -34 5 -47 3 -63 -11 -22 -20
-68 -26 -86 -11 -13 10 -70 0 -59 -10 3 -3 1 -12 -5 -20 -9 -10 -8 -13 0 -13
7 0 20 -8 29 -17 16 -16 16 -16 -3 -8 -33 14 -68 8 -87 -15 -16 -20 -16 -23
-2 -46 12 -17 26 -24 48 -24 27 -1 28 -2 13 -11 -10 -6 -27 -9 -37 -6 -16 4
-17 2 -7 -13 6 -10 14 -17 18 -14 10 6 21 -45 13 -59 -5 -9 -4 -9 5 -1 7 6 19
37 27 70 14 51 43 94 64 94 17 0 18 -15 3 -33 -17 -20 -17 -20 2 -12 11 4 35
13 53 20 18 6 38 17 44 23 15 15 38 16 38 2 0 -5 15 -10 33 -10 18 0 42 -7 53
-15 12 -8 24 -11 28 -8 3 3 6 1 6 -6 0 -7 4 -10 8 -7 4 2 14 -4 21 -16 7 -11
8 -17 2 -14 -5 4 -14 -1 -19 -9 -7 -13 -11 -14 -19 -3 -6 7 -13 18 -14 23 -2
6 -9 9 -16 7 -7 -1 -24 5 -38 14 -14 9 -32 14 -40 10 -8 -3 -15 0 -15 7 0 7
-3 8 -8 2 -4 -5 -14 -11 -22 -13 -8 -2 -25 -12 -36 -23 -17 -16 -23 -17 -27
-7 -3 10 -9 8 -23 -6 -17 -17 -17 -18 -1 -13 21 8 22 -6 2 -23 -13 -11 -13
-14 2 -26 11 -8 13 -13 6 -14 -7 0 -13 -6 -13 -14 0 -8 -12 -25 -27 -37 -20
-16 -22 -20 -8 -14 41 15 55 17 55 7 0 -6 -9 -14 -20 -17 -11 -3 -20 -11 -20
-16 0 -6 8 -6 20 1 11 6 20 8 20 5 0 -9 -33 -41 -55 -53 -19 -11 -19 -11 3
-12 20 0 21 -2 10 -20 -7 -11 -19 -18 -25 -15 -7 2 -18 -5 -24 -16 -9 -18 -4
-27 43 -72 52 -51 53 -53 52 -109 -1 -32 -7 -64 -13 -72 -7 -8 -8 -17 -3 -20
6 -3 15 0 21 8 6 7 30 13 52 13 32 0 42 -4 49 -21 8 -20 8 -20 14 4 4 14 2 38
-4 54 -5 15 -7 32 -4 38 4 6 13 -9 21 -33 22 -65 31 -72 76 -65 43 7 72 34 85
81 5 17 15 29 22 27 9 -2 11 7 6 32 -6 29 -3 39 14 53 11 10 20 22 20 27 0 5
7 14 15 20 8 6 15 30 17 53 2 41 -4 57 -23 59 -5 1 -13 2 -18 3 -5 0 -11 7
-14 15 -6 14 9 16 29 3 6 -3 14 -4 18 0 12 13 6 23 -15 23 -15 0 -19 5 -15 15
3 8 1 26 -4 40 -6 16 -6 25 0 25 6 0 10 9 10 21 0 15 -5 19 -16 15 -8 -3 -12
-2 -9 4 3 6 13 10 22 10 10 0 13 6 9 16 -3 9 3 28 14 44 21 30 26 60 10 60 -5
0 -10 8 -10 18 -1 21 -49 59 -59 45 -9 -15 -51 -35 -51 -24 0 5 7 12 16 15 12
5 13 10 5 19 -8 10 -7 17 1 25 16 16 34 15 52 -4 12 -11 16 -12 16 -2 0 14
-44 38 -68 38 -8 0 -21 -8 -28 -17 -12 -17 -13 -17 -14 -1 0 19 -14 31 -24 21z"/>
<path d="M2116 645 c4 -8 1 -15 -5 -15 -6 0 -11 5 -11 10 0 6 -4 10 -10 10 -5
0 -10 -9 -10 -20 0 -11 5 -20 10 -20 14 0 12 -27 -2 -33 -8 -3 -7 -6 4 -6 10
-1 18 8 21 22 3 18 5 19 11 6 5 -11 -1 -25 -16 -41 -26 -27 -43 -51 -61 -87
-16 -32 -77 -41 -77 -12 0 19 -17 38 -25 29 -2 -2 -6 -23 -7 -46 -2 -23 -5
-42 -8 -42 -3 0 -5 -46 -5 -103 0 -88 3 -107 23 -140 27 -47 28 -55 3 -33 -21
19 -34 8 -25 -21 5 -15 4 -16 -6 -3 -9 11 -13 12 -17 3 -7 -18 -33 -16 -33 1
0 27 -20 28 -30 2 -11 -29 -13 -30 -57 -17 -21 6 -35 5 -43 -2 -8 -9 -10 -8
-7 3 2 8 2 12 0 8 -3 -5 -11 -8 -19 -8 -9 0 -12 -4 -9 -10 7 -11 315 -9 315 3
0 4 11 7 25 7 14 0 25 -6 25 -12 0 -9 3 -9 9 1 8 12 14 13 36 3 34 -16 40 -15
25 3 -11 13 -5 15 49 15 l61 0 0 40 0 40 -72 1 c-72 0 -73 0 -48 17 35 23 95
85 109 110 6 11 11 36 11 54 l0 33 -20 -30 c-10 -16 -33 -39 -50 -50 -16 -11
-30 -25 -30 -31 0 -6 -18 -16 -41 -22 -32 -8 -41 -7 -45 3 -6 16 12 55 26 55
11 0 25 39 22 61 -2 9 3 29 9 45 28 68 27 234 -2 234 -5 0 -6 -7 -3 -15z"/>
<path d="M1589 620 c-11 -7 -9 -14 11 -34 13 -15 29 -26 36 -26 22 0 35 -37
26 -72 -7 -28 -13 -33 -40 -34 -18 0 -37 -5 -44 -12 -7 -7 -17 -8 -27 -2 -9 4
-36 5 -61 0 -37 -7 -49 -5 -71 11 -15 10 -35 19 -44 19 -14 0 -16 -6 -11 -32
4 -21 3 -28 -3 -19 -5 8 -16 11 -27 7 -16 -6 -16 -7 2 -20 10 -7 32 -16 48
-20 29 -7 29 -7 7 -22 -26 -19 -27 -38 -1 -31 17 4 18 2 9 -14 -7 -13 -6 -26
2 -41 16 -29 20 -66 9 -73 -4 -3 -27 2 -49 10 -37 13 -43 13 -47 0 -11 -27
-26 -16 -19 12 6 27 6 27 -14 9 -26 -23 -26 -34 -2 -63 16 -19 35 -25 113 -33
123 -13 202 -28 206 -40 2 -6 10 -10 18 -10 9 0 12 5 9 10 -3 6 9 38 27 73 29
55 33 75 41 177 16 221 15 312 -4 264 -7 -17 -8 -17 -8 -1 -1 20 -12 22 -29 5
-10 -10 -17 -10 -31 -1 -10 7 -23 8 -32 3z"/>
</g>
</svg>
