<?xml version="1.0" standalone="no"?>
<!DOCTYPE svg PUBLIC "-//W3C//DTD SVG 20010904//EN"
 "http://www.w3.org/TR/2001/REC-SVG-20010904/DTD/svg10.dtd">
<svg version="1.0" xmlns="http://www.w3.org/2000/svg"
 width="500.000000pt" height="473.000000pt" viewBox="0 0 500.000000 473.000000"
 preserveAspectRatio="xMidYMid meet">
<metadata>
Created by potrace 1.16, written by Peter Selinger 2001-2019
</metadata>
<g transform="translate(0.000000,473.000000) scale(0.100000,-0.100000)"
fill="#000000" stroke="none">
<path d="M1404 4326 c-61 -27 -126 -141 -146 -255 -10 -56 -10 -76 0 -91 18
-29 16 -168 -3 -186 -8 -8 -12 -21 -9 -28 3 -8 -3 -16 -14 -18 -14 -4 -23 -20
-31 -57 -12 -59 -14 -112 -3 -95 4 6 16 14 28 18 28 9 49 53 33 72 -14 17 -1
60 14 45 12 -12 16 -135 5 -147 -4 -4 -14 -1 -22 5 -21 18 -41 4 -24 -17 11
-14 10 -15 -7 -8 -34 13 -39 12 -43 -8 -6 -26 17 -101 37 -123 9 -10 21 -27
25 -38 7 -19 8 -19 24 5 30 43 118 124 158 145 22 10 59 32 83 47 24 16 46 27
48 24 3 -2 19 9 35 25 30 28 38 31 86 32 12 1 22 4 22 8 0 3 11 4 25 1 18 -3
25 0 25 11 0 9 -5 19 -10 22 -7 4 -6 13 1 27 11 20 4 94 -22 230 -13 70 -81
219 -125 276 -69 88 -119 109 -190 78z m148 -199 c-2 -14 3 -17 33 -13 31 4
35 2 30 -14 -3 -10 -1 -21 5 -25 19 -12 38 -72 45 -139 l6 -66 -37 0 c-36 0
-36 0 -21 -23 15 -23 14 -23 -17 -19 -30 5 -31 4 -13 -15 20 -23 23 -47 5 -40
-7 2 -21 0 -32 -5 -13 -7 -16 -7 -11 2 7 11 -38 60 -56 60 -13 0 -11 64 3 78
9 9 9 15 0 24 -7 7 -12 20 -12 29 0 10 -4 19 -10 21 -14 5 0 48 16 48 8 0 14
5 14 10 0 6 -7 10 -16 10 -11 0 -14 5 -9 18 4 9 10 26 13 37 9 30 25 45 47 42
13 -1 19 -8 17 -20z"/>
<path d="M2767 3750 c-48 -16 -106 -40 -130 -51 -47 -24 -142 -95 -200 -149
-21 -19 -52 -40 -70 -46 -21 -8 -32 -18 -32 -30 0 -14 -9 -20 -32 -22 -27 -3
-31 0 -26 16 3 13 -4 24 -22 36 -15 10 -26 14 -24 9 28 -66 64 -123 78 -123
14 0 14 -2 1 -10 -13 -9 -13 -10 0 -10 8 0 23 -12 33 -25 32 -45 6 -26 -65 45
-39 38 -78 72 -88 75 -11 3 -20 13 -22 22 -2 10 -15 17 -36 18 -18 2 -32 -1
-30 -5 2 -4 33 -35 71 -69 49 -44 62 -61 48 -61 -11 0 -24 6 -28 13 -4 7 -21
21 -38 31 -16 11 -52 41 -78 66 l-48 48 30 4 c17 2 36 1 43 -4 7 -4 33 -8 58
-8 69 0 29 17 -58 26 -64 6 -76 4 -84 -10 -6 -11 -16 -15 -28 -11 -12 4 -36
-10 -76 -45 -32 -28 -60 -46 -62 -40 -2 6 -16 -2 -30 -17 -14 -15 -30 -27 -35
-25 -5 2 -7 -4 -4 -11 3 -8 0 -20 -6 -26 -6 -6 -10 -38 -9 -71 1 -36 -2 -60
-9 -60 -6 0 -8 -9 -4 -19 4 -14 0 -21 -15 -26 -23 -7 -44 5 -22 12 22 8 12 25
-12 21 -16 -3 -27 0 -31 9 -7 20 2 32 33 44 24 9 24 11 9 26 -11 12 -36 17
-78 19 -40 1 -64 6 -70 15 -8 11 -14 9 -33 -13 -13 -15 -26 -25 -28 -23 -5 6
-92 -15 -98 -23 -9 -12 -69 -52 -77 -52 -5 0 -17 -9 -27 -21 -21 -25 -25 -113
-6 -149 9 -18 10 -25 1 -28 -15 -5 -14 -29 2 -35 7 -2 18 -25 25 -51 8 -31 17
-46 28 -46 14 0 14 -3 4 -15 -7 -8 -9 -15 -4 -16 5 0 0 -4 -11 -9 -17 -7 -17
-9 -2 -9 23 -1 22 -4 -13 -41 -16 -18 -30 -38 -30 -45 0 -7 -7 -15 -15 -19 -8
-3 -15 -12 -15 -21 0 -8 -4 -15 -10 -15 -15 0 -12 28 6 55 9 13 12 30 8 36 -4
7 -6 30 -6 51 1 24 -2 37 -8 33 -6 -3 -10 -12 -10 -20 0 -7 -4 -15 -9 -17 -5
-1 -11 -34 -14 -73 -5 -70 -21 -163 -38 -221 -5 -17 -9 -61 -9 -97 l0 -67 47
-31 c42 -26 56 -30 108 -28 33 2 70 -2 82 -9 12 -7 30 -12 41 -12 31 0 112
-40 112 -55 0 -25 50 -55 92 -55 34 0 39 -3 33 -19 -8 -26 3 -48 26 -54 17 -4
18 -3 8 9 -9 11 -8 14 9 14 15 0 20 6 19 20 -1 12 -8 20 -20 20 -30 0 -14 25
18 28 35 4 100 -15 138 -41 36 -24 119 -31 182 -15 43 11 50 17 53 39 2 15 12
35 23 45 10 9 19 25 19 34 0 10 7 23 15 30 9 7 13 21 9 35 -3 13 1 37 10 53 9
17 16 39 16 50 0 10 7 19 15 19 11 0 12 -4 3 -14 -8 -10 -8 -12 3 -8 8 3 19
17 26 30 10 22 9 25 -8 25 -10 0 -19 -5 -19 -12 0 -6 -3 -9 -6 -6 -5 5 20 53
36 68 15 15 50 99 50 121 0 27 42 123 59 133 5 3 12 24 16 46 4 22 12 40 18
40 9 0 9 2 0 8 -8 5 -9 13 -3 22 17 26 12 92 -7 106 -16 12 -16 12 5 7 22 -5
22 -5 17 72 -2 43 -9 83 -14 89 -5 6 -8 24 -7 39 2 19 -1 27 -13 27 -13 1 -13
3 3 15 13 10 15 15 6 15 -7 0 -11 2 -8 5 10 11 37 -7 31 -21 -3 -8 0 -14 6
-14 6 0 11 -7 11 -15 0 -9 7 -18 15 -21 8 -4 15 -12 15 -20 0 -8 4 -14 9 -14
15 0 43 -108 44 -173 l2 -64 35 10 c19 5 52 11 73 14 20 3 40 9 43 14 3 5 13
9 24 9 11 0 22 11 29 30 5 17 14 30 19 30 15 0 82 140 82 171 0 21 6 32 20 37
36 13 134 137 178 224 56 109 65 186 30 238 -13 19 -35 40 -48 47 -45 23 -147
15 -243 -17z m-712 -286 c39 -39 73 -144 46 -144 -5 0 -11 -14 -13 -30 -4 -23
2 -37 20 -55 14 -14 21 -25 16 -25 -5 -1 3 -8 19 -16 38 -20 34 -33 -7 -24
-45 10 -58 -3 -39 -41 18 -36 13 -42 -27 -41 -16 0 -30 -4 -30 -9 0 -11 -27
-12 -34 -1 -9 15 13 78 37 104 26 28 28 53 7 88 -18 32 -23 60 -10 60 11 0 3
47 -10 65 -5 6 -11 27 -15 48 -6 30 -4 37 8 37 9 0 23 -7 32 -16z"/>
<path d="M1735 3599 c-22 -5 -46 -17 -52 -26 -7 -9 -13 -12 -13 -5 0 7 -5 12
-11 12 -6 0 -9 -6 -6 -12 2 -7 13 -12 23 -10 34 5 146 3 165 -3 39 -13 9 -20
-56 -15 -47 4 -69 2 -73 -7 -7 -12 -10 -13 -43 -13 -12 0 -17 -4 -14 -11 4 -6
13 -8 21 -5 8 3 14 -1 14 -9 0 -10 -10 -15 -30 -15 -16 0 -30 -4 -30 -9 0 -5
-13 -11 -30 -14 -31 -7 -42 -27 -15 -27 8 0 15 -4 15 -10 0 -15 19 -12 48 9
17 12 34 16 46 11 22 -7 22 -7 -54 -69 -14 -11 -20 -20 -13 -21 6 0 15 5 18
10 4 7 13 6 27 -1 18 -10 28 -4 77 43 31 30 74 67 96 84 22 16 57 45 79 65
l38 36 -26 5 c-17 4 -26 1 -26 -8 0 -20 -15 -25 -49 -13 -39 14 -40 27 -2 21
16 -2 31 1 35 6 8 13 -103 13 -159 1z"/>
<path d="M2486 2741 c-9 -9 -16 -32 -16 -49 0 -42 -41 -158 -74 -210 -14 -23
-52 -69 -84 -101 -66 -69 -92 -99 -92 -107 0 -3 4 -3 9 0 5 3 11 -3 14 -14 3
-11 1 -18 -4 -14 -5 3 -9 0 -9 -5 0 -6 -7 -11 -16 -11 -13 0 -14 -3 -4 -15 6
-8 9 -19 5 -26 -6 -8 -10 -8 -15 2 -6 9 -12 9 -25 -4 -9 -10 -12 -17 -7 -17 6
0 8 -9 5 -20 -3 -11 -9 -20 -14 -20 -5 0 -9 -6 -9 -14 0 -8 -10 -16 -22 -18
-13 -2 -23 -9 -23 -17 0 -8 -9 -17 -20 -22 -19 -7 -19 -8 -1 -8 15 -1 16 -4 6
-16 -7 -8 -19 -15 -27 -15 -8 0 -11 -5 -8 -10 4 -6 12 -7 18 -3 16 10 69 4 85
-9 7 -6 16 -8 19 -4 4 4 1 11 -7 16 -13 8 -12 10 3 10 10 0 17 -8 17 -19 0
-19 23 -45 32 -35 3 3 8 -7 12 -21 7 -28 36 -34 56 -10 7 8 16 12 21 9 5 -3 9
-1 9 5 0 15 61 25 70 11 5 -8 12 -7 24 6 18 17 68 23 100 11 9 -4 20 -17 25
-30 8 -20 15 -23 36 -20 24 5 25 7 10 29 -23 36 -1 37 30 1 24 -28 26 -29 20
-8 -5 16 -4 21 4 17 7 -4 9 -1 5 8 -3 9 -13 12 -22 9 -15 -5 -15 -4 0 13 17
18 18 18 31 0 20 -28 40 -11 33 27 -6 30 -6 30 14 12 25 -23 28 -1 4 33 -8 12
-11 22 -6 22 16 0 22 28 12 54 -6 17 -4 30 7 45 8 12 12 29 9 38 -4 8 -1 22 5
29 9 11 8 18 0 28 -7 8 -11 23 -9 32 2 12 -4 19 -17 21 -11 1 -14 0 -7 -3 14
-6 16 -24 3 -24 -14 0 -22 32 -11 45 8 9 5 14 -10 18 -11 3 -20 12 -20 21 0 9
6 13 14 10 8 -3 17 -1 20 5 3 5 -7 12 -24 16 -31 7 -52 25 -28 25 7 0 30 -5
52 -9 51 -12 34 2 -31 24 -42 15 -49 21 -37 30 17 12 9 45 -11 45 -7 0 -15 7
-19 15 -3 8 0 15 6 15 6 0 9 2 7 5 -3 2 -15 2 -27 -2 -21 -5 -22 -6 -4 -22 23
-20 37 -54 20 -48 -17 5 -37 -22 -38 -50 0 -38 -10 -54 -29 -44 -13 8 -17 5
-19 -16 -3 -37 -14 -50 -23 -27 -12 29 -10 46 3 38 7 -4 8 -3 4 5 -4 6 -12 9
-17 6 -5 -4 -9 1 -9 10 0 9 -7 27 -16 40 -11 16 -12 25 -5 25 8 0 10 12 5 37
-5 28 -3 39 10 48 9 7 16 17 15 21 -4 25 3 54 16 68 12 12 13 20 5 35 -13 26
-13 31 5 31 16 0 20 16 6 24 -4 3 -16 -3 -25 -13z"/>
<path d="M2828 2488 c-34 -12 -55 -69 -29 -79 13 -5 12 -7 -4 -17 -11 -6 -17
-14 -13 -18 5 -4 3 -13 -3 -21 -8 -8 -8 -13 -1 -13 6 0 14 -14 17 -32 4 -17
14 -38 21 -46 8 -7 14 -22 14 -32 0 -10 5 -22 11 -25 6 -4 8 -13 5 -21 -3 -8
-1 -14 4 -14 5 0 7 -7 3 -15 -5 -13 -2 -14 21 -4 21 10 26 19 27 53 3 83 -3
161 -12 164 -13 5 -11 30 4 35 6 3 -1 6 -18 7 -17 1 -24 4 -15 7 10 4 2 12
-25 25 l-40 18 35 -4 c19 -3 29 -2 23 1 -20 8 -15 21 10 25 16 2 18 5 7 9 -8
3 -27 2 -42 -3z"/>
<path d="M3473 2293 c-9 -21 -15 -55 -14 -77 2 -21 -2 -42 -9 -46 -8 -5 -7
-19 3 -51 8 -24 17 -65 21 -91 6 -51 20 -83 49 -109 9 -9 17 -22 17 -28 0 -20
-33 -8 -45 16 -41 82 -149 109 -192 47 -10 -13 -26 -34 -35 -46 -27 -32 -22
-38 26 -38 25 0 48 -5 51 -10 4 -6 12 -7 18 -4 7 4 9 4 5 -1 -7 -7 50 -51 62
-48 3 1 17 -7 30 -18 20 -15 22 -21 11 -28 -11 -7 -11 -10 0 -17 7 -4 14 -3
17 4 6 18 20 14 26 -6 4 -10 14 -18 24 -18 20 1 68 -32 122 -84 42 -41 76
-111 66 -137 -7 -17 -9 -16 -26 5 -10 12 -23 22 -29 22 -6 0 -11 4 -11 10 0 5
-7 7 -15 4 -14 -6 -20 10 -16 43 1 6 -3 14 -9 18 -17 11 -3 -58 15 -71 9 -7
14 -17 11 -22 -3 -5 1 -15 9 -22 8 -7 15 -19 15 -27 0 -8 5 -11 10 -8 6 3 13
-1 16 -9 3 -9 10 -14 14 -11 16 10 53 -57 55 -99 1 -22 6 -50 12 -61 12 -22 6
-75 -8 -75 -5 0 -9 10 -10 23 0 21 -1 21 -8 2 -8 -21 4 -81 20 -101 24 -30 49
-382 30 -434 -13 -40 5 -77 43 -84 16 -3 75 -6 132 -6 97 0 103 1 110 22 5 17
0 27 -22 45 -17 14 -21 21 -10 17 17 -7 17 -6 1 25 -10 20 -22 31 -30 27 -18
-6 -24 13 -14 40 9 24 1 64 -12 64 -5 0 -16 26 -24 58 -9 31 -23 74 -32 94 -9
21 -17 55 -18 75 -3 54 -4 55 -17 46 -35 -21 -53 -12 -49 25 1 6 -2 12 -7 12
-6 0 -12 13 -14 30 -3 22 -1 30 11 30 12 0 12 3 3 12 -18 18 -14 46 8 53 21 7
27 34 11 50 -13 15 -22 75 -11 75 6 0 10 -5 10 -11 0 -5 5 -7 11 -3 8 4 8 9 0
17 -6 6 -11 21 -11 33 0 13 -5 26 -10 29 -8 5 -7 11 1 21 9 11 15 11 25 3 10
-8 14 -8 14 -1 0 6 -5 14 -11 17 -6 4 -8 13 -5 20 2 7 2 16 -2 19 -14 15 -7
45 12 51 19 6 18 8 -9 15 -67 17 -85 29 -85 55 0 14 -5 25 -12 25 -7 0 -5 5 4
13 15 11 14 16 -8 61 -13 27 -26 71 -29 99 -2 27 -11 63 -20 79 -8 17 -15 37
-15 45 0 7 -3 12 -7 11 -24 -4 -43 15 -37 39 5 18 1 28 -15 39 -12 9 -21 26
-21 40 0 13 -8 32 -17 42 -10 9 -17 28 -15 42 1 14 -2 32 -8 40 -9 13 -12 13
-24 -3 -12 -15 -14 -16 -20 -2 -3 8 -12 15 -21 15 -8 0 -15 5 -15 10 0 6 11
10 25 10 31 0 33 18 3 29 -16 7 -26 5 -34 -5 -15 -18 -24 -18 -24 1 0 8 5 15
10 15 6 0 10 5 10 10 0 24 -22 7 -37 -27z"/>
<path d="M2875 1990 c-3 -6 1 -7 9 -4 9 3 16 2 16 -4 0 -6 -13 -13 -30 -17
-17 -4 -30 -13 -30 -22 0 -10 -6 -13 -16 -9 -8 3 -13 2 -11 -2 3 -4 -2 -14
-11 -22 -14 -13 -15 -12 -10 2 4 10 1 19 -8 22 -9 3 -14 -1 -14 -12 0 -10 -6
-24 -12 -31 -11 -10 -9 -15 6 -27 18 -13 18 -14 2 -14 -11 0 -15 -4 -9 -12 4
-7 8 -31 8 -54 1 -37 -1 -41 -19 -37 -21 4 -21 4 -2 -11 19 -16 19 -16 -5 -17
-13 -1 -30 -1 -36 0 -7 1 -13 -3 -13 -9 0 -5 10 -10 23 -11 21 0 21 -1 2 -9
-17 -7 -17 -9 -2 -9 11 -1 17 -9 17 -23 0 -15 9 -27 25 -35 26 -12 65 -7 65 8
0 16 51 -3 75 -27 14 -14 22 -31 19 -39 -4 -9 0 -15 9 -15 9 0 22 -3 31 -6 10
-4 16 -1 16 7 1 8 14 25 30 39 36 29 37 36 9 43 -13 4 -18 10 -14 17 4 7 1 17
-6 22 -10 7 -11 11 -2 14 9 4 9 13 1 36 -9 26 -8 33 7 45 27 19 6 39 -24 24
-17 -10 -21 -9 -21 3 0 10 6 13 16 9 10 -4 17 1 21 15 3 13 15 22 32 25 l26 4
-28 2 c-24 1 -27 4 -21 27 5 19 4 25 -5 20 -6 -4 -11 -16 -11 -27 0 -12 -4
-17 -11 -13 -6 4 -8 20 -5 39 4 21 2 36 -5 41 -8 4 -9 3 -5 -4 9 -14 -4 -15
-24 -2 -10 6 -11 10 -3 10 7 0 11 9 10 21 -5 32 -48 52 -62 29z"/>
<path d="M1765 1699 c-4 -6 -1 -15 6 -20 10 -6 6 -9 -14 -9 -15 0 -39 7 -53
16 -13 9 -27 14 -31 10 -3 -3 -1 -6 5 -6 7 0 12 -7 12 -15 0 -8 5 -15 11 -15
6 0 9 -6 6 -12 -2 -7 -12 -12 -22 -10 -21 4 -35 -14 -35 -45 0 -16 -4 -21 -15
-17 -9 4 -18 -2 -24 -17 -5 -13 -10 -20 -10 -15 -1 5 -11 1 -23 -10 -12 -10
-18 -13 -14 -6 4 6 2 12 -3 12 -6 0 -11 -4 -11 -10 0 -5 -4 -10 -9 -10 -5 0
-8 8 -7 18 0 9 -4 16 -10 15 -7 -1 -10 6 -7 17 3 11 0 20 -6 20 -6 0 -11 -7
-11 -15 0 -8 -4 -15 -9 -15 -11 0 -2 -71 10 -84 5 -6 -2 -15 -19 -23 -24 -12
-24 -13 -4 -9 20 4 23 1 19 -15 -3 -10 0 -19 6 -19 6 0 0 -11 -13 -25 l-23
-25 21 0 c12 0 22 -4 22 -10 0 -5 -7 -10 -15 -10 -18 0 -18 -9 0 -85 17 -73
18 -78 5 -70 -5 3 -10 1 -10 -4 0 -6 7 -11 16 -11 10 0 15 -8 14 -22 -3 -38
-1 -50 10 -43 6 3 10 1 10 -6 0 -7 -10 -9 -24 -7 -22 5 -23 3 -14 -29 7 -25 6
-39 -4 -51 -11 -13 -11 -15 5 -9 12 5 17 1 17 -12 0 -11 -6 -21 -12 -23 -9 -3
-8 -9 5 -22 18 -19 20 -29 11 -64 -5 -17 -12 -21 -28 -17 -11 2 -15 2 -8 -1
14 -6 17 -44 3 -44 -5 0 -7 -9 -4 -20 3 -11 0 -20 -6 -20 -6 0 -11 7 -11 15 0
8 -10 20 -22 26 -19 10 -20 13 -7 18 12 4 14 12 8 26 -5 12 -8 14 -8 5 -1 -8
-12 -23 -25 -35 -24 -20 -44 -75 -27 -75 5 0 11 -9 14 -20 6 -22 -8 -28 -16
-7 -2 6 -7 9 -11 6 -4 -4 -1 -18 5 -32 16 -35 -4 -61 -39 -52 -29 7 -62 -2
-62 -18 0 -7 -16 -22 -36 -35 -19 -12 -32 -27 -29 -32 3 -6 1 -10 -4 -10 -6 0
-11 -7 -11 -16 0 -8 5 -12 10 -9 6 3 10 1 10 -4 0 -6 -4 -11 -10 -11 -5 0 -10
-6 -10 -14 0 -21 -29 -28 -46 -11 -20 20 -10 54 25 82 14 11 23 24 20 27 -3 3
-19 -7 -36 -23 -17 -15 -38 -31 -46 -34 -21 -8 -45 -46 -53 -83 -5 -26 -3 -29
19 -30 19 -1 27 4 31 22 7 28 28 33 25 6 -5 -52 -5 -52 91 -52 85 0 91 1 100
23 l9 22 0 -24 c1 -23 3 -24 64 -17 69 7 83 18 93 75 6 38 40 121 49 121 3 0
9 -10 14 -22 11 -30 25 104 17 159 -6 39 17 148 26 123 3 -9 8 -2 12 17 4 18
3 40 -3 52 -8 15 -7 35 4 77 8 32 15 65 15 73 0 8 6 22 13 30 18 22 77 304 77
369 0 36 -4 54 -14 58 -11 4 -12 13 -5 37 13 48 52 77 102 77 30 0 38 3 27 10
-8 5 -15 15 -15 22 0 17 -41 23 -50 7z"/>
<path d="M2446 1626 c3 -8 15 -17 27 -19 20 -4 18 -6 -10 -18 -66 -27 -22
-117 53 -111 17 1 28 -5 36 -23 8 -18 17 -23 37 -21 14 2 20 1 14 -1 -17 -6
-16 -23 1 -23 7 0 25 -9 38 -20 29 -22 38 -18 38 21 0 31 -18 48 -30 29 -11
-18 -19 10 -9 35 4 11 8 14 8 8 2 -30 21 -10 21 21 0 28 -7 40 -37 64 -54 42
-77 52 -117 52 -19 0 -38 5 -41 10 -10 16 -35 12 -29 -4z"/>
<path d="M2946 1096 c-10 -14 -31 -29 -46 -35 -24 -8 -30 -7 -33 7 -4 15 -5
15 -6 -1 0 -10 -5 -15 -11 -12 -5 3 -10 1 -10 -5 0 -7 7 -9 16 -6 12 4 14 1 9
-14 -5 -15 -3 -18 9 -14 11 4 16 0 16 -15 0 -12 5 -21 10 -21 6 0 10 -11 10
-25 0 -14 8 -38 17 -53 9 -15 13 -24 8 -20 -4 4 -14 3 -21 -3 -18 -15 -44 -4
-43 18 0 17 1 17 7 1 5 -13 11 -15 22 -7 13 8 13 11 -1 22 -9 7 -19 22 -23 35
-13 39 -29 12 -23 -39 7 -59 25 -89 54 -89 16 0 21 -4 17 -15 -5 -12 -10 -13
-20 -4 -11 9 -14 7 -14 -10 0 -11 -5 -21 -11 -21 -6 0 -8 9 -4 23 6 21 5 21
-9 3 -10 -12 -23 -17 -36 -13 -19 5 -24 -3 -23 -40 0 -6 -7 -10 -17 -8 -15 3
-16 -2 -8 -43 5 -26 6 -64 3 -85 -4 -28 -2 -37 6 -31 23 14 -2 -16 -55 -66
-58 -55 -85 -101 -100 -172 -7 -32 8 -46 23 -21 9 16 10 16 11 2 0 -10 12 -19
31 -23 44 -8 91 -8 85 2 -8 13 11 35 23 28 6 -4 11 -16 11 -27 0 -14 7 -19 25
-19 18 0 25 5 25 20 0 11 5 20 10 20 6 0 10 7 10 16 0 8 5 12 10 9 6 -3 10
-20 10 -37 0 -25 3 -29 18 -22 9 4 46 9 82 10 74 3 132 20 111 33 -9 6 -7 10
8 14 27 7 27 33 1 49 -11 7 -20 21 -20 30 0 10 -4 18 -10 18 -13 0 -13 -6 1
-31 5 -11 9 -28 7 -37 -5 -22 -38 37 -38 68 0 11 -4 20 -10 20 -5 0 -10 5 -10
10 0 6 7 10 15 10 8 0 15 8 15 18 0 14 -2 15 -10 2 -8 -12 -10 -9 -10 13 0 17
5 27 15 27 8 0 15 5 15 10 0 6 -6 10 -14 10 -8 0 -15 16 -19 41 -3 22 -12 46
-21 52 -12 9 -17 32 -18 85 -1 39 -6 72 -10 72 -5 0 -5 19 -2 42 5 31 4 39 -5
34 -7 -5 -18 0 -26 10 -20 26 -18 34 5 34 10 0 24 9 29 19 8 15 7 20 -8 24
-14 3 -17 0 -14 -14 4 -13 0 -19 -12 -19 -11 0 -15 5 -12 14 3 8 -1 17 -9 20
-8 3 -14 16 -14 29 0 13 -4 27 -10 33 -6 6 -3 14 10 22 12 7 20 8 20 2 0 -5 5
-10 11 -10 8 0 8 4 -1 15 -6 8 -9 23 -5 35 8 26 4 25 -19 -4z"/>
</g>
</svg>
