<?xml version="1.0" standalone="no"?>
<!DOCTYPE svg PUBLIC "-//W3C//DTD SVG 20010904//EN"
 "http://www.w3.org/TR/2001/REC-SVG-20010904/DTD/svg10.dtd">
<svg version="1.0" xmlns="http://www.w3.org/2000/svg"
 width="1688.000000pt" height="1125.000000pt" viewBox="0 0 1688.000000 1125.000000"
 preserveAspectRatio="xMidYMid meet">
<metadata>
Created by potrace 1.16, written by Peter Selinger 2001-2019
</metadata>
<g transform="translate(0.000000,1125.000000) scale(0.100000,-0.100000)"
fill="#000000" stroke="none">
<path d="M11522 11238 c3 -7 20 -14 39 -16 18 -2 36 -8 40 -13 3 -5 40 -10 82
-11 61 -2 77 -6 77 -18 1 -12 4 -11 15 4 15 19 15 19 28 1 9 -12 16 -14 21 -7
5 8 15 8 32 2 14 -6 38 -10 53 -10 15 0 33 -6 40 -12 11 -10 14 -10 18 0 7 18
23 15 24 -5 0 -10 3 -13 5 -6 4 9 14 8 39 -3 19 -7 41 -11 50 -8 8 4 22 0 31
-7 9 -7 26 -18 38 -24 11 -7 20 -16 19 -22 -2 -12 159 -33 258 -33 53 0 77 -4
91 -17 17 -15 18 -15 18 1 0 12 6 15 23 11 13 -4 123 -7 245 -8 174 -2 225 -5
231 -16 6 -10 10 -10 16 -2 5 9 28 10 76 5 55 -5 69 -4 69 7 1 10 5 8 15 -5
11 -15 18 -16 28 -8 10 9 16 9 25 0 9 -9 12 -9 12 2 0 11 3 11 12 2 15 -15 70
-16 86 0 8 8 15 8 27 -2 11 -10 18 -10 29 -1 12 10 14 8 10 -11 -2 -13 -2 -17
2 -10 7 15 64 16 64 1 0 -6 5 -7 13 -2 6 4 72 9 146 10 110 1 139 -2 160 -15
24 -16 25 -16 18 1 -5 13 -1 17 13 17 11 0 20 -5 20 -10 0 -7 16 -8 43 -5 152
22 164 22 159 1 -4 -16 -2 -18 14 -11 20 9 34 9 131 2 45 -3 66 -1 74 9 9 11
14 11 27 -2 11 -12 27 -15 55 -11 22 3 48 0 58 -6 13 -8 24 -8 42 0 16 8 38 8
63 3 40 -9 58 -5 35 9 -8 6 -9 11 -3 15 6 3 17 -2 24 -12 14 -21 46 -25 66 -9
9 7 16 7 24 -1 17 -17 28 -15 28 4 0 14 3 14 16 3 10 -8 40 -12 84 -11 38 1
91 -3 117 -9 27 -6 100 -11 163 -11 63 0 119 -3 125 -7 5 -5 22 -10 37 -13 18
-3 25 -1 21 8 -2 7 -12 15 -21 17 -12 3 -11 5 5 6 12 0 29 -9 37 -21 9 -13 16
-17 16 -9 0 11 3 11 15 1 8 -7 15 -8 15 -3 0 13 131 9 157 -5 12 -7 30 -12 40
-11 13 1 11 3 -7 9 -21 7 -19 8 17 9 24 1 44 -4 47 -11 3 -7 3 -2 0 10 -5 22
-4 23 15 12 12 -6 19 -15 16 -21 -4 -5 -1 -9 4 -9 6 0 11 7 11 15 0 21 20 19
21 -2 1 -12 4 -10 9 7 5 17 8 19 9 8 1 -20 21 -25 21 -5 0 8 4 7 11 -3 6 -8
12 -11 15 -5 2 6 21 9 41 8 100 -6 133 -10 139 -16 13 -13 33 -7 54 15 14 15
20 17 20 7 0 -11 16 -14 74 -14 41 0 77 2 80 6 3 3 40 2 83 -3 43 -4 120 -5
171 -3 66 4 91 2 86 -6 -6 -10 96 -7 183 7 19 3 36 -1 46 -10 13 -13 17 -13
37 1 17 12 24 13 30 3 6 -9 21 -11 54 -6 l46 7 0 160 0 159 -2681 0 c-2140 0
-2680 -3 -2677 -12z"/>
<path d="M7760 10390 c-1 -8 -2 -22 -1 -30 0 -10 -1 -11 -5 -2 -10 21 -24 13
-24 -13 0 -14 -2 -25 -5 -25 -10 0 -45 40 -45 51 0 7 -11 4 -26 -6 -22 -14
-28 -15 -36 -4 -8 12 -10 12 -15 0 -3 -7 -8 -9 -12 -4 -3 6 -18 13 -33 17 -25
6 -28 4 -28 -19 0 -27 -9 -32 -28 -13 -8 8 -14 5 -23 -15 -16 -35 -26 -34 -79
5 -38 28 -43 30 -38 12 4 -17 1 -20 -19 -16 -19 3 -26 -1 -30 -18 -4 -15 -11
-20 -24 -17 -13 4 -19 -2 -24 -24 -4 -15 -15 -39 -26 -53 -22 -27 -51 -121
-54 -173 -1 -18 -5 -36 -8 -40 -4 -3 -2 -12 4 -20 9 -9 8 -13 0 -13 -6 0 -11
-5 -11 -11 0 -6 9 -8 20 -4 17 6 20 2 20 -28 0 -20 6 -38 13 -41 6 -3 1 -3
-12 0 -20 5 -23 3 -18 -11 4 -9 7 -23 7 -31 0 -8 9 -14 21 -14 11 0 17 -4 14
-10 -3 -5 -1 -10 4 -10 6 0 11 -7 11 -16 0 -11 -6 -14 -22 -8 -13 3 -24 11
-26 15 -2 5 -8 9 -13 9 -5 0 -2 -11 7 -25 13 -21 21 -76 14 -110 -3 -18 2
-100 7 -105 2 -3 11 3 18 14 13 17 13 35 3 110 -2 11 5 21 20 27 17 6 22 5 22
-6 0 -8 9 -15 19 -15 11 0 32 -11 47 -25 15 -14 34 -23 42 -20 7 3 27 5 43 5
17 0 28 4 24 10 -10 17 6 62 21 56 8 -3 14 1 14 11 0 12 3 13 15 3 16 -13 18
-11 30 44 5 26 7 27 19 11 12 -16 13 -16 19 -1 4 9 2 16 -3 16 -5 0 -7 30 -5
71 5 76 13 99 25 79 6 -9 12 -10 26 -1 11 6 14 11 8 11 -7 0 -15 7 -18 16 -5
13 -1 15 20 10 24 -6 26 -5 20 17 -3 13 -2 27 1 31 4 4 6 23 4 42 -2 26 2 36
16 41 10 4 21 11 25 17 5 7 8 5 8 -5 0 -10 13 -20 33 -25 22 -6 37 -20 47 -41
14 -30 35 -40 35 -17 0 5 6 18 13 29 12 18 13 16 7 -15 -7 -46 -16 -53 -50
-40 -24 9 -26 8 -20 -7 4 -10 10 -27 13 -38 3 -11 21 -37 40 -59 21 -24 30
-41 23 -45 -7 -5 -6 -16 4 -35 15 -29 11 -51 -7 -40 -5 4 -2 -5 7 -19 16 -25
13 -53 -5 -42 -5 3 -11 1 -14 -4 -3 -5 1 -11 9 -15 8 -3 12 -12 9 -21 -3 -8
-2 -15 3 -15 20 0 33 -48 22 -80 -6 -16 -15 -30 -20 -30 -5 0 0 -16 12 -36 24
-43 20 -52 -15 -29 -26 17 -28 16 -30 -20 -1 -21 -6 -22 -44 -10 -21 6 -23 4
-20 -21 2 -22 -1 -28 -22 -31 -14 -2 -32 -6 -40 -9 -13 -4 -13 -6 0 -14 12 -8
11 -10 -5 -10 -22 0 -75 -60 -75 -85 0 -9 -4 -14 -9 -11 -5 3 -12 -2 -17 -12
-10 -24 -11 -28 -13 -62 -1 -23 -6 -30 -22 -30 -13 0 -20 -6 -18 -17 1 -10 1
-27 0 -38 -1 -16 -3 -17 -11 -5 -7 11 -11 9 -19 -13 -6 -16 -11 -35 -11 -43 0
-8 -4 -14 -10 -14 -5 0 -10 5 -10 11 0 5 -4 7 -10 4 -5 -3 -10 -15 -10 -26 0
-24 -5 -24 -41 2 -16 11 -29 16 -29 10 0 -6 4 -11 10 -11 5 0 9 -11 8 -25 -3
-33 -9 -31 -31 7 -12 21 -15 34 -8 36 14 5 4 22 -13 22 -7 0 -12 -10 -12 -22
1 -32 -28 -30 -33 2 -3 23 -4 24 -12 5 -7 -18 -8 -18 -8 -1 -1 11 -6 16 -15
13 -7 -3 -19 0 -25 6 -6 6 -11 8 -11 5 0 -4 -28 4 -62 18 -48 18 -64 21 -70
12 -10 -16 -28 -78 -28 -97 0 -24 53 -135 83 -172 18 -23 31 -54 35 -85 6 -44
10 -49 35 -52 15 -2 27 -9 27 -15 0 -7 7 -20 14 -30 13 -17 15 -17 42 8 33 31
26 43 -12 18 -27 -17 -28 -17 -21 0 4 10 7 21 7 23 0 2 5 4 11 4 6 0 17 7 25
15 9 9 11 15 4 15 -6 0 -8 5 -5 10 3 6 17 7 31 4 14 -4 24 -2 24 4 0 16 49 66
56 59 4 -4 14 8 23 26 9 17 37 46 63 62 25 17 48 39 50 50 2 12 10 19 21 19 9
-1 17 2 17 6 0 5 9 6 20 3 15 -4 19 -2 14 10 -3 9 -12 13 -21 10 -11 -4 -14
-2 -11 8 2 8 15 15 27 17 12 2 20 9 18 15 -2 6 12 25 30 41 18 17 33 35 33 39
0 19 28 35 54 30 25 -5 27 -3 22 15 -6 17 -1 21 35 27 30 5 38 10 28 16 -12 8
-12 11 1 19 8 5 21 10 28 10 6 0 12 7 12 15 0 8 7 15 15 15 9 0 15 6 13 13 -4
17 32 67 48 67 8 0 14 9 14 20 0 10 16 35 35 54 19 20 35 40 35 46 0 6 11 16
25 22 27 12 33 44 15 79 -9 16 -7 21 12 29 22 8 21 9 -7 10 -20 0 -26 3 -17 8
9 7 10 15 3 35 -11 29 -4 87 10 87 5 0 9 9 9 20 0 11 -6 20 -14 20 -10 0 -12
9 -6 39 4 21 4 45 0 52 -4 8 -10 41 -13 73 -3 33 -11 62 -18 67 -7 4 -9 14 -6
22 5 15 0 39 -27 112 -6 17 -9 36 -8 43 2 6 -2 12 -8 12 -5 0 -10 10 -10 23 0
60 -54 81 -80 31 l-13 -24 -29 32 c-29 33 -39 59 -13 38 18 -15 35 -5 35 22 0
13 -5 18 -13 15 -8 -3 -20 -1 -27 3 -14 8 -80 -50 -80 -70 0 -6 -4 -10 -9 -10
-5 0 -5 17 0 42 6 23 8 48 6 57 -4 13 -5 14 -7 1z"/>
<path d="M9579 10102 c-10 -2 -19 -12 -22 -22 -6 -22 -47 -17 -47 6 0 22 -24
17 -54 -11 -38 -36 -90 -45 -108 -21 -12 17 -117 14 -132 -4 -16 -18 -76 -200
-78 -238 -1 -15 -6 -33 -11 -39 -5 -7 -7 -19 -4 -27 3 -7 1 -18 -3 -22 -5 -5
-11 -26 -14 -46 -2 -21 -7 -42 -11 -47 -3 -6 -1 -20 5 -32 9 -16 8 -24 -4 -38
-17 -19 -21 -57 -7 -65 5 -3 7 -14 5 -24 -3 -12 10 -24 48 -42 39 -18 54 -31
56 -48 3 -20 8 -23 30 -17 l27 7 -21 -24 c-37 -41 -42 -55 -10 -35 34 23 39
19 21 -16 -14 -26 -13 -27 16 -27 23 0 29 -4 29 -21 0 -12 8 -23 20 -26 11 -3
17 -9 15 -14 -3 -4 -12 -6 -20 -2 -8 3 -15 1 -15 -3 1 -17 25 -41 48 -48 12
-4 22 -13 22 -21 0 -7 12 -21 28 -31 15 -9 34 -26 43 -36 9 -10 21 -18 28 -18
6 0 11 -9 11 -20 0 -12 10 -25 25 -32 14 -6 25 -19 25 -30 0 -10 5 -18 10 -18
6 0 10 -7 10 -15 0 -9 11 -21 25 -27 16 -7 24 -17 20 -26 -5 -14 17 -42 34
-42 6 0 11 -6 11 -13 0 -7 8 -22 19 -33 10 -11 22 -30 25 -41 4 -12 20 -26 36
-33 31 -13 38 -26 18 -32 -19 -7 3 -30 23 -25 11 3 17 1 13 -4 -6 -10 29 -13
39 -3 13 14 -6 34 -27 29 -15 -5 -17 -4 -7 3 10 8 9 12 -8 24 -18 13 -19 16
-6 21 25 10 63 -14 75 -46 11 -31 2 -46 -27 -47 -14 0 -18 -46 -5 -54 5 -3 21
4 38 15 l29 19 -30 1 -30 1 33 10 c19 7 32 18 32 27 0 10 18 34 39 55 22 21
42 50 46 64 3 14 16 39 27 55 14 20 23 49 25 87 l3 57 -43 6 c-39 6 -93 -6
-124 -26 -6 -4 -18 -5 -25 -2 -19 7 -62 -16 -87 -46 -12 -14 -20 -19 -21 -10
0 8 -7 11 -20 8 -11 -3 -20 -2 -20 2 0 4 -18 27 -40 51 -22 25 -40 53 -40 62
0 9 -4 19 -9 22 -5 3 -7 16 -4 27 5 19 3 21 -25 17 -38 -5 -40 7 -13 67 24 53
12 98 -25 89 -19 -5 -24 -1 -31 23 -4 15 -6 34 -5 41 2 6 -2 12 -8 12 -5 0
-10 6 -10 14 0 8 -16 20 -34 27 -19 7 -32 17 -29 22 3 5 -1 14 -8 19 -11 7
-11 11 -1 15 26 11 10 22 -28 19 -47 -4 -49 2 -14 33 20 17 23 25 14 31 -7 4
-9 13 -5 20 6 10 -2 12 -36 6 l-44 -6 33 27 c18 16 32 33 32 39 0 6 8 19 19
28 18 17 23 60 8 83 -4 6 -2 15 4 18 5 4 8 13 5 20 -2 7 2 16 10 19 20 8 18
26 -3 27 -11 0 -5 6 15 15 34 15 43 34 15 34 -15 0 -14 2 3 15 27 21 36 18 29
-7 -3 -13 -3 -18 2 -12 4 6 25 22 45 36 21 13 35 28 31 31 -3 4 4 7 16 7 20 0
22 -4 17 -25 -5 -19 -3 -23 9 -19 9 4 31 -4 49 -17 30 -20 33 -25 23 -47 -8
-18 -8 -25 2 -31 10 -6 10 -17 2 -47 -15 -54 -14 -95 2 -89 19 7 40 -11 42
-37 1 -15 9 -24 23 -26 22 -3 33 -42 12 -42 -5 0 -10 -4 -10 -10 0 -5 6 -10
14 -10 16 0 29 -27 20 -41 -3 -5 2 -9 10 -9 8 0 18 5 21 10 3 6 10 10 16 10
18 0 9 -15 -20 -35 -22 -14 -27 -23 -19 -32 7 -9 6 -15 -7 -19 -17 -7 -17 -8
1 -21 17 -12 17 -13 -2 -13 -15 0 -16 -2 -5 -9 12 -8 12 -12 2 -25 -11 -13
-11 -16 2 -16 24 0 36 23 33 61 -3 29 2 43 25 66 15 17 26 33 23 35 -5 6 103
88 116 88 6 0 10 10 10 23 0 12 7 35 15 51 19 35 19 40 0 32 -8 -3 -15 -1 -15
3 0 5 7 11 15 15 8 3 15 14 15 24 0 10 5 23 12 30 9 9 8 12 -5 12 -10 0 -17 8
-17 18 0 23 26 59 36 50 4 -4 1 -15 -6 -23 -11 -13 -11 -16 1 -13 19 4 29 31
15 40 -8 5 -8 13 2 28 16 27 15 60 -5 136 -17 65 -26 76 -37 49 -8 -22 -36
-18 -36 4 0 11 5 23 10 26 6 3 10 12 10 18 0 7 -7 4 -15 -7 -9 -12 -21 -17
-35 -13 -11 3 -35 1 -53 -3 l-32 -9 29 23 28 23 -30 5 c-22 3 -36 -1 -49 -16
-16 -19 -18 -19 -21 -3 -4 19 -22 23 -22 5 0 -9 -3 -9 -9 1 -5 8 -20 16 -33
18 -43 6 -123 9 -139 5z"/>
<path d="M9890 9500 c0 -5 9 -10 20 -10 21 0 29 -35 9 -42 -8 -3 -8 -19 -1
-58 13 -67 7 -100 -29 -165 -18 -34 -26 -59 -22 -77 5 -29 23 -39 23 -14 0 21
25 26 49 10 13 -10 21 -26 21 -44 0 -33 39 -69 51 -47 6 11 -14 190 -27 229
-3 10 -10 17 -16 15 -8 -1 -12 21 -12 65 -1 38 2 68 7 68 16 0 6 30 -10 30
-17 1 -17 1 -1 14 15 11 14 14 -16 24 -40 15 -46 15 -46 2z"/>
<path d="M9002 9311 c-8 -4 -12 -19 -10 -32 2 -18 10 -24 32 -26 25 -2 55 -26
56 -44 0 -11 -31 -20 -43 -12 -7 4 -20 6 -31 4 -10 -1 -27 7 -38 19 -27 29
-43 20 -42 -24 1 -24 -3 -36 -12 -36 -8 0 -14 5 -14 11 0 6 -10 9 -22 7 -17
-2 -24 -11 -26 -30 -2 -16 -8 -28 -13 -28 -15 0 -10 46 6 60 24 20 18 31 -10
18 -14 -6 -25 -18 -25 -25 0 -8 -5 -11 -11 -8 -6 4 -17 -2 -25 -14 -19 -26
-34 -27 -34 -1 0 11 -6 20 -13 20 -8 0 -22 -9 -32 -20 -28 -31 -55 -26 -55 10
0 23 -6 33 -25 40 -14 5 -25 14 -25 19 0 13 -41 10 -59 -3 -11 -9 -9 -12 9
-16 30 -7 36 -26 11 -33 -30 -7 -71 4 -71 20 0 10 -9 14 -32 11 -25 -2 -34 1
-36 15 -2 9 1 17 7 17 20 0 11 27 -13 40 -28 14 -56 8 -56 -14 0 -7 -10 -16
-21 -19 -14 -4 -20 -11 -16 -21 3 -8 -1 -20 -9 -26 -8 -7 -14 -19 -14 -26 0
-18 -14 -18 -30 1 -16 19 -49 19 -56 1 -3 -8 -21 -17 -39 -20 -23 -5 -32 -11
-29 -20 10 -26 -141 -40 -170 -17 -18 15 -19 14 -14 -12 4 -20 0 -31 -15 -42
-12 -8 -17 -20 -14 -29 4 -10 1 -16 -8 -16 -8 0 -21 -10 -29 -22 -14 -20 -13
-23 9 -46 25 -25 33 -52 15 -52 -5 0 -10 7 -10 15 0 20 -40 28 -73 16 -45 -17
-33 -33 21 -27 26 3 41 3 35 0 -7 -3 -13 -15 -13 -26 0 -11 -8 -22 -20 -25
-11 -3 -20 -12 -20 -19 0 -8 -5 -14 -11 -14 -6 0 -9 -7 -5 -15 3 -10 -1 -15
-13 -15 -10 0 -24 -7 -31 -15 -7 -8 -23 -15 -37 -15 -20 0 -73 -39 -73 -53 0
-12 31 -14 73 -6 41 7 53 5 94 -16 25 -14 52 -25 60 -25 24 0 73 -62 73 -92 0
-27 -20 -41 -20 -15 -1 23 -45 66 -84 82 -36 15 -43 15 -103 -1 -55 -15 -71
-24 -109 -68 -24 -28 -44 -58 -44 -67 0 -9 -7 -22 -15 -29 -9 -8 -13 -20 -10
-29 8 -20 17 -70 17 -94 -1 -9 3 -15 9 -12 5 4 9 -3 9 -14 0 -12 16 -30 44
-48 25 -15 47 -36 49 -45 3 -10 10 -18 17 -18 6 0 9 4 6 9 -3 4 19 11 49 14
57 6 164 52 172 75 3 6 14 12 24 12 10 0 19 6 19 14 0 21 27 38 50 31 23 -7
26 -37 5 -55 -8 -7 -12 -16 -9 -21 9 -15 -36 -98 -57 -104 -11 -4 -17 -11 -13
-16 3 -6 -1 -18 -9 -27 -9 -9 -18 -29 -22 -44 -10 -37 -29 -52 -62 -43 -23 5
-25 4 -14 -9 10 -12 10 -21 -3 -47 -9 -18 -16 -39 -16 -47 0 -33 -35 -109 -54
-118 -12 -5 -26 -24 -32 -43 -6 -19 -18 -39 -27 -46 -9 -7 -14 -14 -11 -18 7
-7 -16 -47 -44 -74 -25 -25 -45 -70 -37 -83 3 -5 -3 -18 -15 -30 -18 -18 -25
-40 -21 -64 1 -5 -4 -13 -11 -17 -10 -7 -9 -9 4 -9 21 0 88 31 88 41 0 3 14
12 30 19 17 7 30 17 30 22 0 6 7 7 16 4 8 -3 12 -2 9 4 -4 6 1 17 9 26 9 8 16
26 16 39 0 23 9 50 44 125 19 43 60 115 74 132 5 7 10 25 10 40 -1 33 29 86
60 106 24 15 24 15 17 -21 -9 -45 -1 -46 75 -11 121 57 165 65 175 34 7 -22
-14 -50 -38 -50 -8 0 -20 -7 -27 -15 -7 -8 -16 -13 -20 -10 -4 3 -10 -1 -13
-9 -3 -7 -19 -16 -36 -19 -22 -5 -31 -12 -31 -27 0 -11 -4 -20 -10 -20 -5 0
-10 -7 -10 -16 0 -9 -13 -21 -30 -27 -16 -6 -30 -17 -30 -24 0 -7 -8 -13 -17
-13 -12 0 -14 -3 -7 -10 10 -10 59 6 95 32 20 14 49 4 49 -16 0 -8 -14 -23
-30 -33 -17 -10 -28 -23 -26 -29 6 -16 -70 -86 -106 -99 -44 -16 -28 -30 31
-27 42 2 56 -1 67 -15 11 -16 10 -19 -9 -23 -13 -4 -23 -15 -25 -28 -6 -37
-119 -77 -164 -58 -9 4 -22 5 -28 1 -14 -8 -13 -35 1 -35 7 0 17 -7 24 -16 11
-15 14 -15 43 0 28 15 32 15 32 1 0 -8 3 -15 8 -15 10 0 71 24 105 40 21 10
30 11 36 2 4 -6 25 -16 46 -21 22 -5 32 -9 22 -10 -15 -1 -17 -6 -12 -29 7
-32 -10 -52 -44 -55 -11 0 -18 -4 -16 -7 6 -9 -64 -42 -74 -35 -11 6 -43 -30
-34 -38 3 -4 -1 -7 -10 -7 -8 0 -23 7 -32 17 -13 12 -19 13 -25 4 -12 -20
-114 4 -142 34 -19 20 -33 25 -77 25 -47 0 -52 -2 -41 -15 7 -9 19 -14 26 -11
11 4 11 1 3 -13 -9 -14 -6 -26 15 -60 15 -23 33 -44 41 -48 8 -3 15 -14 15
-25 0 -17 5 -20 37 -16 42 5 61 -9 82 -60 7 -18 18 -32 23 -32 5 0 24 -11 42
-25 18 -14 44 -24 57 -23 13 0 41 -4 62 -10 29 -8 37 -8 34 1 -2 6 -18 16 -35
21 -29 8 -53 36 -31 36 6 0 7 5 4 10 -5 8 -11 8 -20 0 -10 -8 -15 -4 -24 20
-9 26 -8 32 6 37 9 4 19 1 21 -5 6 -18 18 -15 47 12 26 25 46 25 78 1 17 -12
17 -14 -7 -38 -23 -23 -24 -29 -15 -56 6 -17 14 -31 17 -31 13 1 42 27 42 39
0 14 49 34 67 27 7 -3 13 -12 13 -21 0 -8 8 -24 17 -35 16 -18 19 -19 41 -4
24 16 25 16 20 -9 -4 -22 -1 -27 23 -32 16 -4 31 -11 34 -16 10 -15 23 -10 50
18 24 26 24 28 6 35 -14 5 -18 13 -14 27 7 29 -5 73 -18 65 -8 -4 -8 0 0 14
14 26 14 35 1 27 -5 -3 -10 3 -10 14 0 12 4 21 9 21 15 0 22 32 10 47 -15 18
4 63 26 63 9 0 13 5 10 10 -3 6 -17 10 -31 10 -18 0 -24 5 -23 23 0 12 3 16 6
10 2 -7 9 -13 14 -13 6 0 5 8 -1 20 -8 15 -17 19 -35 14 -19 -5 -25 -2 -25 10
0 9 8 16 20 16 14 0 20 7 20 23 0 35 11 44 80 61 73 19 117 13 227 -31 74 -30
87 -56 45 -90 -15 -12 -32 -22 -39 -23 -6 0 -24 -5 -40 -11 l-28 -11 34 -15
c30 -13 32 -15 18 -31 -14 -15 -14 -19 4 -41 19 -23 19 -23 -1 -48 -11 -14
-20 -36 -20 -49 0 -12 -4 -25 -9 -28 -5 -3 -7 -15 -4 -26 3 -11 1 -20 -5 -20
-5 0 -15 -14 -22 -31 -14 -32 -4 -48 28 -49 24 0 27 -2 44 -17 13 -12 27 -14
55 -8 98 19 93 19 93 -5 0 -17 5 -21 28 -18 16 2 31 12 37 26 5 12 13 22 17
22 5 0 8 9 8 20 0 22 64 60 103 60 14 0 30 7 37 15 14 17 60 20 60 4 0 -6 -7
-17 -15 -25 -8 -9 -15 -24 -15 -34 0 -10 -4 -22 -10 -25 -15 -9 -12 -35 4 -35
8 0 22 10 31 23 11 14 19 18 22 10 7 -18 32 -4 49 29 8 16 30 36 47 43 37 15
77 51 77 67 0 6 11 26 25 44 14 18 25 35 25 38 0 3 9 15 20 26 11 11 20 27 20
36 0 13 -5 12 -26 -5 -15 -12 -34 -21 -43 -21 -9 0 -33 -11 -54 -25 -49 -34
-106 -33 -99 1 3 20 -2 24 -39 33 -64 16 -115 46 -111 66 2 9 -1 14 -7 11 -5
-4 -13 -1 -17 5 -9 15 14 29 49 29 16 0 26 4 22 9 -9 16 33 23 57 10 13 -7 45
-13 71 -14 45 -1 48 1 45 24 -3 22 -8 25 -52 27 -62 4 -96 33 -96 82 0 31 2
34 25 28 14 -4 36 -4 49 0 l24 6 -34 34 c-33 32 -44 38 -71 35 -6 -1 -14 8
-18 19 -3 11 -11 20 -17 20 -6 0 -8 3 -5 7 4 3 2 12 -4 20 -6 7 -9 22 -6 33 3
13 -1 24 -14 30 -10 6 -19 17 -19 24 0 7 -20 21 -45 32 -25 10 -45 21 -45 25
0 12 29 19 35 9 4 -6 22 -10 41 -10 27 0 44 -9 74 -39 22 -22 40 -44 40 -50 0
-6 11 -13 25 -17 14 -3 25 -12 25 -20 0 -8 7 -14 15 -14 20 0 19 12 -6 44 -11
14 -18 30 -15 35 3 5 -2 19 -12 32 -10 13 -23 36 -30 52 -7 16 -19 27 -31 27
-11 0 -25 9 -31 21 -7 11 -17 18 -25 16 -7 -3 -17 5 -23 19 -7 13 -17 21 -25
18 -7 -2 -25 6 -40 19 -24 20 -26 25 -14 41 12 17 18 17 53 6 21 -7 41 -16 44
-20 3 -3 31 -17 62 -29 32 -13 62 -29 69 -37 15 -18 29 -18 29 1 0 8 -5 15
-11 15 -9 0 -11 53 -2 72 6 12 53 -14 53 -29 0 -7 4 -13 8 -13 12 0 30 -88 32
-154 0 -32 5 -66 10 -76 5 -10 15 -62 21 -116 l11 -98 64 -64 c65 -64 94 -74
94 -32 0 26 -26 77 -42 83 -9 4 -9 6 2 6 11 1 9 6 -8 19 -19 15 -21 22 -13 49
7 24 6 35 -3 40 -7 5 -15 18 -18 31 -9 34 22 28 63 -14 21 -22 34 -45 34 -61
0 -14 6 -28 14 -31 8 -3 11 0 7 7 -4 6 -2 11 4 11 6 0 10 8 8 18 -2 12 3 16
18 14 16 -2 20 3 20 20 -1 14 4 22 13 20 40 -8 81 38 81 93 0 14 4 25 9 25 6
0 3 12 -5 28 -12 24 -12 28 1 38 13 10 13 12 -5 17 -25 6 -27 27 -2 27 23 0
48 17 39 27 -5 4 -13 1 -18 -7 -8 -12 -9 -11 -7 5 2 15 -2 19 -17 17 -11 -2
-17 -1 -13 4 4 4 3 13 -3 21 -9 10 -8 13 4 13 8 0 22 -10 30 -22 14 -20 16
-21 16 -5 1 11 -5 33 -13 50 -8 18 -16 41 -18 52 -3 14 -11 20 -28 19 -14 -1
-29 4 -33 10 -5 6 -6 2 -2 -11 4 -14 0 -26 -12 -35 -22 -16 -59 -93 -68 -142
-7 -33 -15 -43 -27 -31 -6 6 9 132 18 146 4 8 9 7 15 -2 6 -9 7 4 3 33 -5 39
-3 49 11 54 13 5 14 9 4 15 -10 6 -10 13 1 36 8 15 16 31 18 36 2 4 -5 7 -16
7 -11 0 -22 -5 -24 -12 -5 -13 -38 -4 -38 11 0 5 21 25 46 43 47 33 72 74 56
90 -5 5 -6 25 -3 46 9 51 -7 141 -31 175 -11 15 -38 37 -61 48 -34 18 -53 21
-111 16 -39 -2 -72 -10 -74 -16 -2 -6 -11 -11 -19 -11 -9 0 2 16 28 40 31 27
53 39 75 40 17 0 33 3 37 6 10 10 -4 34 -20 34 -12 0 -13 3 -4 14 10 12 7 18
-18 30 -16 9 -37 16 -46 16 -22 0 -18 27 7 44 l22 16 -21 0 c-32 0 -53 10 -53
26 0 8 -5 14 -11 14 -8 0 -8 4 0 14 9 11 8 15 -6 21 -17 6 -17 7 0 17 10 5 30
7 45 3 26 -6 26 -6 8 14 -12 13 -16 28 -12 44 5 21 3 24 -17 20 -14 -3 -29 2
-36 11 -8 9 -20 16 -27 16 -8 0 -14 5 -14 10 0 6 9 10 20 10 12 0 20 7 20 17
0 13 -3 14 -11 6 -22 -22 -39 -2 -39 45 0 44 -1 45 -19 28 -19 -18 -69 -19
-63 -2 2 5 -2 13 -10 17 -17 11 -31 11 -24 0 4 -5 -3 -7 -14 -4 -11 3 -20 9
-20 14 0 5 -7 9 -15 9 -8 0 -12 6 -9 14 7 19 -14 30 -31 16 -10 -8 -19 -9 -32
-1 -16 9 -13 12 20 26 36 15 40 15 52 -1 7 -10 19 -15 28 -11 8 3 21 -1 27 -9
24 -28 40 -16 40 29 0 30 3 38 10 27 8 -12 10 -12 16 3 7 20 -12 47 -33 47 -8
0 -12 4 -9 8 2 4 -4 8 -15 9 -10 1 -34 13 -52 27 -38 29 -37 29 -55 17z
m-1115 -800 c19 -2 44 -45 48 -83 3 -27 -3 -41 -39 -81 -39 -45 -45 -49 -89
-49 -54 0 -67 6 -67 33 0 23 15 25 24 4 6 -16 71 -21 94 -7 7 5 21 25 32 45
17 32 18 38 5 51 -27 27 -97 30 -143 7 -36 -18 -41 -19 -53 -5 -14 17 -13 18
57 73 19 15 58 19 131 12z m862 -167 c40 -7 92 -25 115 -38 56 -35 126 -101
126 -121 0 -12 -3 -13 -12 -5 -69 58 -72 60 -109 54 -31 -5 -39 -3 -48 15 -7
11 -16 21 -21 21 -5 0 -25 11 -45 24 -27 19 -44 23 -70 19 -28 -4 -35 -2 -35
11 0 13 -13 16 -79 16 -83 0 -131 -11 -131 -31 0 -6 -10 -20 -22 -31 -13 -11
-35 -30 -50 -44 l-28 -24 0 24 c0 14 5 28 10 31 6 3 10 15 10 27 0 16 -5 19
-25 16 -41 -8 -30 20 13 31 118 33 246 34 401 5z m486 -66 c0 -41 5 -62 19
-77 10 -11 22 -18 27 -16 4 3 31 -4 60 -15 29 -12 62 -20 73 -19 34 2 46 0 46
-10 0 -19 -30 -19 -90 -1 -34 10 -68 24 -76 30 -19 17 -18 7 7 -34 16 -28 18
-39 9 -55 -8 -16 -7 -29 5 -57 8 -20 18 -62 21 -93 6 -54 6 -55 -11 -33 -9 12
-13 27 -10 32 4 6 1 17 -5 25 -6 8 -19 29 -29 47 -74 141 -134 229 -173 257
-13 9 -16 17 -10 23 6 6 8 17 5 24 -7 19 1 18 47 -6 49 -25 50 -25 50 3 0 27
9 39 24 34 6 -2 11 -29 11 -59z"/>
<path d="M7829 8094 c-7 -9 -18 -26 -24 -38 -8 -16 -24 -23 -68 -30 -48 -7
-58 -12 -63 -32 -3 -13 -12 -24 -19 -24 -22 0 -27 -18 -15 -55 15 -46 4 -94
-23 -105 -19 -7 -19 -9 -4 -9 13 -1 17 -7 15 -21 -2 -12 -7 -21 -13 -21 -13 0
-35 -41 -28 -52 2 -4 9 -5 14 -2 5 4 6 -2 2 -12 -6 -16 -5 -17 13 -4 34 26
114 105 114 114 0 4 11 20 25 35 14 15 25 34 25 42 0 9 4 20 8 26 5 5 14 29
21 54 7 25 18 56 23 70 11 26 20 80 14 80 -2 0 -10 -7 -17 -16z"/>
<path d="M7480 8090 c0 -5 7 -10 15 -10 24 0 17 -19 -10 -26 -23 -6 -29 -13
-22 -31 1 -4 7 -8 12 -8 6 0 12 -4 13 -10 2 -5 8 -18 13 -27 13 -24 3 -23 -29
2 -19 16 -27 18 -33 8 -4 -7 -6 -15 -3 -20 2 -4 -5 -12 -18 -19 -21 -11 -21
-12 -3 -25 18 -13 18 -14 -3 -14 -12 0 -22 -4 -22 -10 0 -11 16 -13 68 -10 19
1 32 -3 32 -10 0 -7 -7 -10 -15 -6 -17 6 -85 -49 -85 -70 0 -8 8 -14 18 -15
10 0 12 -3 5 -6 -18 -7 -16 -28 3 -48 13 -12 14 -19 4 -30 -10 -12 -9 -15 3
-15 10 0 13 -6 10 -19 -4 -15 0 -18 21 -14 28 6 36 23 11 23 -10 0 -15 10 -15
30 0 17 5 30 10 30 6 0 10 -7 10 -15 0 -20 6 -19 30 5 12 12 15 22 9 26 -6 4
-2 15 12 30 12 13 19 24 14 24 -5 0 3 13 18 28 19 20 24 31 16 39 -8 8 -8 13
0 17 19 12 12 34 -11 39 l-23 4 23 2 c34 2 26 21 -10 21 -29 0 -30 1 -14 13
14 10 16 19 10 38 -4 13 -8 27 -9 31 0 3 -3 10 -7 14 -5 4 -8 16 -8 26 0 11
-7 18 -20 18 -11 0 -20 -4 -20 -10z"/>
<path d="M9621 7356 c-12 -18 -21 -38 -21 -44 0 -5 -7 -12 -15 -16 -8 -3 -15
-12 -15 -21 0 -8 -4 -15 -9 -15 -4 0 -28 -26 -52 -57 -70 -91 -157 -172 -214
-199 -54 -25 -62 -37 -71 -104 -3 -19 -9 -39 -14 -45 -6 -7 -6 -16 -2 -20 4
-5 1 -5 -7 0 -8 4 -17 2 -21 -5 -10 -16 -1 -42 11 -34 5 3 9 0 9 -5 0 -6 -4
-11 -9 -11 -5 0 -11 -9 -14 -20 -3 -11 -13 -20 -22 -20 -14 0 -15 -3 -5 -15
11 -13 8 -15 -15 -15 -22 0 -25 -3 -16 -14 14 -17 -5 -26 -57 -26 -27 0 -33
-3 -22 -10 18 -11 6 -25 -15 -16 -13 4 -14 10 -5 26 8 15 8 20 -2 20 -10 0 -9
3 1 9 12 8 12 12 3 24 -10 11 -10 21 -1 41 7 14 16 23 20 20 5 -3 9 2 9 11 0
11 5 15 16 11 9 -3 12 -2 9 5 -4 5 3 18 14 28 24 21 14 37 -29 43 -21 2 -25 8
-25 35 0 17 -3 35 -8 39 -4 4 0 15 8 24 14 16 14 17 -10 13 -14 -3 -25 -9 -25
-14 0 -5 -17 -16 -37 -25 -21 -9 -32 -18 -25 -21 20 -7 14 -29 -12 -47 -14 -8
-27 -25 -31 -36 -6 -19 -13 -21 -58 -17 -29 3 -52 6 -52 7 0 1 -17 4 -75 14
-14 2 -38 9 -53 15 -16 6 -67 13 -115 16 -48 3 -94 6 -102 7 -8 0 -39 0 -67 0
-52 -2 -52 -2 -43 -27 8 -21 7 -25 -9 -25 -14 0 -18 5 -14 20 4 17 0 20 -23
20 -16 0 -54 9 -84 20 -30 11 -86 25 -124 30 -58 9 -73 8 -94 -6 -18 -12 -21
-18 -12 -24 11 -7 10 -12 -3 -25 -22 -22 -21 -28 3 -20 14 5 20 2 20 -9 0 -9
7 -16 16 -16 11 0 13 -6 9 -19 -6 -20 22 -44 48 -40 26 3 37 -2 37 -17 0 -11
-5 -14 -16 -10 -11 4 -15 2 -11 -8 4 -10 -4 -16 -26 -19 -59 -9 -115 -8 -122
3 -3 5 -14 10 -24 10 -19 0 -46 25 -67 63 -22 39 -47 92 -49 107 -2 8 -7 29
-13 46 -5 17 -8 43 -7 58 6 47 -3 56 -46 51 -29 -4 -47 1 -71 18 -19 12 -34
26 -35 31 -1 5 -7 12 -14 16 -6 5 -14 22 -15 39 -2 18 -8 37 -14 44 -6 7 -20
24 -31 40 -14 18 -25 25 -35 19 -20 -11 -74 -121 -62 -128 5 -3 2 -14 -8 -25
-9 -10 -14 -25 -11 -33 4 -9 1 -18 -5 -22 -7 -4 -6 -9 3 -14 10 -7 10 -11 -1
-24 -11 -14 -10 -16 6 -10 18 7 18 7 1 -13 -10 -12 -19 -27 -21 -35 -1 -7 -6
-19 -10 -27 -7 -11 -5 -13 7 -8 23 9 21 -2 -5 -31 l-23 -25 30 7 30 7 -30 -25
c-16 -14 -24 -25 -16 -26 7 0 11 -6 8 -15 -5 -11 -1 -12 19 -5 40 15 42 11 7
-11 -18 -12 -30 -25 -27 -30 3 -5 2 -9 -3 -8 -20 3 -25 -2 -13 -16 7 -8 10
-24 7 -35 -7 -26 5 -26 28 0 10 11 21 20 25 20 15 0 1 -49 -20 -70 -16 -16
-19 -25 -11 -34 8 -10 7 -23 -4 -50 -17 -39 -26 -48 -18 -16 4 16 1 20 -20 18
-22 -2 -26 -7 -24 -30 1 -15 5 -28 9 -28 3 0 -2 -22 -12 -49 -12 -29 -15 -52
-10 -57 9 -9 -5 -84 -16 -84 -3 0 -2 10 2 23 3 12 3 18 -2 14 -5 -5 -9 -31
-10 -58 -1 -45 0 -48 16 -34 15 14 17 12 15 -20 0 -19 3 -35 8 -35 5 0 3 -7
-4 -16 -12 -15 -11 -16 9 -10 18 6 22 4 22 -14 0 -12 -9 -33 -20 -47 -11 -14
-20 -33 -19 -42 0 -12 3 -10 11 6 12 25 44 42 35 18 -4 -8 -2 -17 3 -20 6 -4
10 0 10 8 0 8 7 20 15 27 25 21 18 -6 -20 -76 -19 -35 -35 -69 -35 -76 1 -7 9
2 18 20 10 18 21 30 25 26 4 -4 7 -3 8 2 2 29 9 49 23 63 15 14 16 13 16 -7 0
-12 -6 -22 -12 -22 -9 0 -10 -2 -2 -8 7 -4 14 -16 17 -27 4 -18 5 -18 6 3 1
20 21 33 21 13 0 -19 -44 -91 -56 -91 -15 0 -46 -41 -38 -49 3 -3 11 2 19 12
10 14 14 15 18 4 7 -19 -7 -39 -24 -35 -8 2 -13 -4 -11 -14 1 -10 -9 -21 -27
-29 -29 -13 -34 -33 -6 -22 8 3 15 0 15 -5 0 -6 -10 -14 -22 -18 -22 -7 -22
-7 -3 -15 18 -8 17 -8 -5 -6 -18 1 -24 7 -22 20 3 19 -6 21 -28 7 -13 -9 -13
-10 0 -11 10 0 8 -3 -5 -9 -18 -8 -18 -9 5 -10 23 -1 23 -2 5 -10 -18 -8 -18
-9 5 -10 14 -2 0 -7 -30 -13 l-55 -10 40 -13 c22 -8 28 -11 14 -9 -18 3 -29 0
-33 -10 -3 -8 0 -15 7 -15 7 0 3 -6 -8 -12 -28 -16 -48 -50 -27 -47 4 1 14 1
22 0 13 -1 13 -3 1 -10 -9 -6 -21 -5 -32 2 -14 9 -21 9 -31 -1 -9 -9 -5 -13
20 -18 17 -4 29 -10 26 -15 -3 -5 7 -4 21 1 38 14 41 13 42 -17 1 -52 2 -53
31 -47 16 3 35 -1 47 -9 19 -15 18 -16 -23 -32 -38 -16 -56 -35 -32 -35 6 0
10 -7 10 -15 0 -8 8 -15 18 -15 14 0 15 2 2 10 -11 7 -11 10 -2 10 7 0 10 5 6
11 -6 10 11 28 27 29 12 0 -4 -55 -20 -69 -10 -9 -12 -15 -5 -18 7 -2 10 -13
7 -23 -6 -23 15 -27 23 -5 4 8 10 15 16 15 5 0 6 -5 2 -12 -5 -8 2 -9 25 -5
20 4 30 3 26 -3 -3 -6 -12 -10 -20 -10 -8 0 -17 -5 -20 -10 -5 -8 10 -9 44 -4
28 4 51 3 51 -2 0 -14 -20 -41 -20 -28 0 6 -10 10 -22 9 -13 -1 -29 -3 -37 -4
-16 -1 -6 -51 12 -63 7 -5 1 -8 -15 -8 -32 0 -45 -15 -15 -17 12 -1 29 5 39
13 9 9 22 13 27 9 7 -3 11 2 11 14 0 12 5 21 10 21 6 0 10 -5 10 -11 0 -5 4
-8 8 -5 4 2 9 -7 10 -21 3 -34 12 -43 12 -12 0 17 3 20 9 11 6 -10 11 -6 19
15 9 27 14 29 43 25 27 -4 31 -2 26 12 -7 18 17 23 28 6 17 -28 75 4 90 49 3
12 10 21 14 21 14 0 21 -13 12 -24 -5 -6 -10 -30 -13 -53 -3 -32 1 -44 16 -53
17 -11 18 -9 13 9 -3 15 0 21 10 21 11 0 14 -7 10 -23 -4 -12 -2 -29 3 -37 7
-12 12 -10 29 9 12 13 21 19 21 12 0 -7 4 -9 10 -6 6 4 6 -4 0 -21 -8 -20 -8
-29 1 -34 8 -6 7 -9 -2 -12 -11 -4 -10 -8 3 -21 18 -18 33 -23 23 -8 -3 6 0
13 7 18 7 4 13 14 14 21 1 6 2 21 3 33 0 12 10 23 22 26 14 4 18 11 14 22 -5
13 -4 13 6 4 10 -10 10 -18 1 -35 -6 -13 -13 -32 -15 -43 -3 -14 -5 -11 -7 10
-1 26 -3 27 -9 10 -5 -11 -5 -27 0 -36 5 -10 3 -21 -3 -27 -7 -7 -8 -12 -4
-12 5 0 2 -8 -5 -17 -10 -11 -10 -14 -1 -9 13 8 15 0 13 -57 -1 -24 3 -36 9
-32 5 3 10 -3 10 -15 0 -11 6 -23 14 -26 21 -8 76 -89 82 -123 4 -18 11 -34
15 -37 5 -3 9 -15 9 -27 0 -82 56 -157 116 -157 26 0 45 -10 78 -40 23 -22 46
-37 49 -33 4 3 10 -3 14 -13 4 -10 17 -34 29 -52 19 -28 22 -44 20 -100 -2
-37 -4 -71 -6 -77 -2 -5 2 -23 8 -38 16 -39 15 -43 -6 -17 l-17 21 -24 -25
c-14 -14 -21 -26 -17 -26 4 0 2 -9 -4 -20 -16 -30 -4 -57 33 -71 29 -11 30
-13 9 -16 -12 -3 -36 3 -54 11 -17 9 -38 16 -48 16 -28 0 -70 -24 -70 -41 0
-17 -60 -79 -76 -79 -6 0 -28 -13 -50 -29 -41 -30 -96 -41 -229 -48 -38 -2
-98 -5 -133 -8 -50 -4 -73 -1 -109 15 -40 18 -47 18 -71 5 -47 -25 -52 -31
-62 -64 -8 -29 -7 -31 7 -20 13 12 15 11 11 -6 -3 -14 -11 -19 -26 -18 -17 2
-22 -2 -22 -22 0 -13 -5 -27 -12 -31 -8 -5 -9 -2 -5 9 3 10 2 17 -3 17 -6 0
-10 8 -10 18 -1 13 -4 11 -15 -8 -20 -34 -18 -50 4 -50 20 0 34 -14 44 -43 4
-11 3 -16 -4 -12 -5 4 -16 2 -24 -5 -17 -14 -15 -132 3 -138 14 -4 15 -51 2
-108 -12 -50 10 -104 41 -104 16 0 19 -7 19 -46 0 -27 4 -43 10 -39 6 3 10 -3
10 -15 0 -11 6 -20 13 -18 6 1 22 -4 35 -10 13 -7 40 -15 60 -17 20 -1 41 -3
45 -4 4 -1 12 -11 17 -23 15 -40 11 36 -9 137 -15 79 -19 90 -36 87 -20 -3
-20 -3 0 13 11 9 15 14 8 11 -7 -4 -12 1 -12 11 1 10 -2 29 -6 43 l-7 25 18
-25 c9 -14 19 -27 20 -29 2 -2 10 2 19 9 8 7 22 10 30 6 19 -7 10 -56 -12 -70
-11 -6 -13 -19 -8 -55 10 -74 25 -122 36 -116 15 10 47 79 42 93 -3 6 2 12 9
12 9 0 14 -12 14 -37 1 -76 28 -129 39 -77 4 16 15 47 25 69 9 22 20 53 24 69
11 43 15 27 7 -26 -4 -26 -4 -53 0 -60 7 -11 9 -11 9 0 0 7 5 10 10 7 6 -3 10
3 10 14 0 12 5 21 10 21 6 0 10 7 10 16 0 10 6 14 14 11 9 -4 16 3 20 19 7 25
26 34 26 12 0 -7 3 -23 6 -35 5 -17 2 -23 -10 -23 -10 0 -13 -5 -9 -16 5 -13
8 -13 15 -2 7 9 8 7 3 -7 -18 -55 -34 -129 -29 -136 3 -5 26 -9 51 -9 41 0 44
1 32 17 -12 14 -12 16 0 8 12 -7 13 1 7 46 -4 38 -3 49 4 39 5 -8 10 -31 11
-50 1 -34 1 -34 17 15 8 28 17 44 19 38 3 -7 -1 -29 -7 -49 -10 -30 -10 -38 1
-45 9 -5 17 -2 23 8 5 10 4 18 -4 23 -9 5 -9 9 -1 14 6 4 11 1 12 -6 1 -15 12
23 33 113 15 65 24 89 73 195 12 28 23 69 23 90 1 21 7 57 15 79 8 22 15 49
15 61 0 27 66 216 96 276 13 26 24 56 24 68 0 24 14 25 71 4 24 -8 83 -17 131
-18 49 -2 94 -8 100 -14 7 -6 33 -13 58 -16 25 -3 56 -8 70 -11 46 -10 134 -8
138 3 2 6 10 8 18 5 8 -3 14 0 14 7 0 6 8 10 18 8 9 -2 25 7 35 19 10 13 22
21 26 18 5 -2 8 9 9 25 0 17 -3 30 -7 30 -4 0 -8 14 -9 30 0 17 4 30 9 30 6 0
4 7 -5 15 -8 9 -12 23 -9 32 5 12 2 15 -10 10 -9 -4 -24 -10 -32 -13 -20 -8
-19 10 0 26 9 7 13 20 10 29 -3 10 2 26 10 37 12 15 16 16 24 5 5 -7 7 -23 5
-35 -2 -11 -2 -15 2 -8 3 6 10 12 16 12 5 0 16 7 24 15 14 13 14 16 0 21 -14
5 -14 9 3 33 10 14 20 35 22 45 2 11 12 20 22 22 14 2 16 -2 11 -18 -5 -17 -3
-20 10 -15 9 4 16 2 16 -2 0 -14 -30 -22 -30 -8 -1 17 -30 -23 -30 -41 0 -8 6
-12 15 -9 22 9 28 -10 11 -35 -9 -12 -16 -18 -16 -12 0 5 5 15 12 22 9 9 8 12
-4 12 -16 0 -48 -35 -48 -53 0 -13 49 -2 71 17 15 13 24 15 32 7 8 -8 6 -11
-6 -11 -9 0 -17 -5 -17 -11 0 -5 -4 -8 -9 -5 -5 3 -12 -1 -15 -10 -5 -12 -2
-15 12 -12 10 3 23 -1 30 -9 16 -16 42 -17 42 -1 0 6 -3 9 -6 5 -6 -6 -34 16
-34 26 0 3 7 7 14 10 11 4 13 1 9 -11 -6 -14 -4 -15 8 -5 26 21 17 -32 -8 -55
-13 -11 -23 -25 -23 -33 0 -8 7 -4 16 9 8 12 20 20 25 17 5 -4 9 0 9 7 0 7 7
2 16 -10 8 -12 12 -28 9 -35 -4 -6 1 -3 9 8 9 11 14 25 12 32 -6 15 3 16 24 3
13 -9 12 -13 -5 -26 -14 -11 -16 -18 -7 -21 21 -8 13 -25 -8 -18 -12 4 -28 1
-36 -6 -13 -10 -17 -10 -25 2 -7 11 -9 9 -9 -8 0 -13 -3 -23 -7 -23 -5 0 -17
-13 -28 -29 -13 -20 -23 -27 -31 -20 -6 5 -14 5 -19 1 -4 -4 -6 0 -3 8 3 8 12
14 21 14 9 -1 13 4 10 12 -3 8 -9 14 -13 14 -5 0 -15 3 -23 6 -12 4 -14 0 -11
-18 l5 -23 -10 22 c-12 28 -31 31 -24 5 3 -13 -6 -28 -26 -45 -35 -29 -36 -34
-15 -62 13 -17 16 -18 25 -5 8 11 9 9 4 -9 -6 -21 -5 -23 15 -18 22 6 22 5 7
-11 -13 -13 -20 -14 -29 -4 -35 35 -25 -13 16 -73 12 -16 20 -32 18 -35 -2 -3
7 -8 20 -11 17 -4 23 -12 23 -32 -1 -15 3 -27 8 -27 4 0 5 -5 1 -11 -3 -6 -2
-14 4 -18 6 -3 13 -19 16 -34 6 -37 29 -87 38 -87 5 0 8 -10 8 -23 0 -13 5
-28 11 -34 14 -14 39 -6 39 13 0 8 8 18 18 21 9 4 24 15 33 25 9 10 19 15 23
11 3 -3 6 -1 6 5 0 7 6 11 13 9 8 -1 11 7 9 23 -5 32 2 24 16 -18 11 -31 10
-33 -8 -27 -18 6 -20 2 -20 -44 0 -28 3 -51 8 -51 4 0 19 11 33 24 20 18 30
21 43 14 16 -9 32 -8 91 5 13 3 19 11 18 26 -3 23 21 30 31 9 4 -7 4 -3 2 9
-4 20 -2 21 16 12 11 -6 18 -7 14 -1 -3 5 3 27 13 48 18 36 18 40 3 47 -13 6
-12 7 4 4 12 -3 29 0 38 5 20 11 21 1 1 -18 -20 -21 -19 -46 2 -42 10 2 18 -4
19 -12 2 -32 5 -37 18 -37 11 0 12 5 6 17 -7 13 -1 20 26 35 19 10 34 24 34
31 0 7 6 11 14 8 15 -6 32 13 21 24 -3 3 -10 1 -14 -7 -7 -10 -10 -9 -14 3 -9
23 3 48 19 42 20 -8 45 4 37 18 -12 18 -13 40 -2 47 6 3 2 15 -9 29 -14 17
-24 21 -38 16 -18 -8 -18 -8 1 -16 18 -8 18 -9 2 -9 -10 -1 -16 -5 -12 -10 3
-5 0 -13 -6 -16 -6 -4 -13 2 -16 14 -3 12 -12 20 -21 19 -8 -2 -17 3 -20 11
-3 10 2 13 20 9 13 -2 29 1 36 8 7 8 19 11 27 8 11 -5 14 -1 9 12 -3 11 7 0
21 -23 26 -41 45 -55 45 -32 0 5 -4 7 -10 4 -6 -4 -10 5 -10 20 0 14 -6 28
-14 31 -8 3 -18 19 -21 35 -4 16 -11 29 -16 29 -5 0 -9 10 -8 23 l0 22 11 -23
c6 -13 17 -21 23 -18 7 2 18 0 26 -5 11 -7 9 -10 -8 -15 -19 -5 -20 -8 -9 -20
8 -7 16 -19 18 -26 3 -7 11 -9 24 -3 17 7 17 8 2 12 -23 6 -23 36 -2 58 16 15
16 16 -1 13 -10 -2 -20 3 -22 10 -3 7 3 12 14 12 15 0 14 3 -7 20 l-25 19 24
9 c16 6 20 11 13 16 -7 4 -12 16 -12 27 0 10 -9 24 -20 31 -28 18 -25 30 5 16
14 -6 25 -15 25 -20 0 -4 8 -8 18 -8 14 0 15 2 2 10 -11 7 -11 10 -2 10 8 0
11 9 8 28 -2 15 -5 30 -5 34 -1 4 -11 9 -23 11 -14 3 -9 5 15 6 22 0 37 6 37
14 0 7 7 4 15 -7 15 -19 15 -19 15 2 0 17 -7 24 -28 28 -16 3 -29 12 -29 20 0
10 6 12 16 8 9 -4 32 -8 51 -10 31 -3 32 -2 10 5 -14 5 -19 9 -12 10 7 1 10 5
7 11 -3 5 6 12 20 16 29 7 33 20 8 27 -15 4 -14 5 2 6 28 1 45 20 45 47 0 17
-6 22 -20 21 -11 -1 -20 -7 -20 -14 0 -7 -11 -13 -25 -13 -14 0 -25 5 -25 10
0 6 6 10 14 10 7 0 19 6 25 14 13 15 51 18 51 4 0 -4 5 -8 10 -8 17 0 11 25
-11 43 -11 10 -18 21 -14 25 4 4 10 1 12 -5 7 -18 23 -16 23 2 0 17 29 17 43
0 5 -6 7 -4 4 5 -2 8 -16 16 -30 18 -15 2 -27 8 -27 13 0 5 -7 9 -16 9 -10 0
-14 -6 -11 -15 4 -8 2 -17 -2 -20 -5 -2 -12 5 -15 18 -7 21 -8 21 -15 3 -6
-16 -9 -17 -13 -4 -9 23 7 41 31 33 12 -3 21 -2 21 4 0 5 -9 13 -21 16 -15 5
-18 10 -9 20 9 11 6 16 -10 25 -13 7 -19 18 -16 26 4 9 -1 14 -15 14 -11 0
-22 7 -26 16 -3 8 -12 13 -19 10 -9 -3 -11 0 -7 11 5 12 2 15 -10 10 -12 -5
-17 -1 -17 13 0 24 -20 37 -31 19 -6 -9 -12 -10 -16 -4 -12 17 -53 16 -47 0 3
-7 12 -16 20 -19 13 -5 21 -36 9 -36 -11 0 -45 41 -45 54 0 8 -5 18 -11 22 -9
5 -10 -1 -4 -22 9 -32 16 -114 10 -114 -9 0 -28 46 -32 79 -6 45 -8 47 -28 28
-16 -17 -21 -32 -6 -23 5 3 9 -9 9 -27 0 -17 4 -43 8 -56 5 -16 4 -22 -3 -18
-14 9 -24 -17 -17 -40 5 -15 4 -16 -5 -3 -6 8 -11 43 -11 76 0 46 -4 63 -15
68 -10 4 -15 -1 -15 -14 0 -11 5 -20 10 -20 13 0 13 -47 0 -55 -6 -4 -8 -11
-5 -16 4 -5 1 -9 -5 -9 -7 0 -9 -13 -5 -37 l6 -38 -16 28 c-9 15 -23 27 -31
27 -11 0 -14 5 -10 17 4 9 10 37 13 61 3 24 9 38 13 32 10 -16 19 35 12 63 -5
20 -7 20 -18 -8 -7 -17 -13 -23 -14 -13 0 9 -3 24 -6 33 -4 9 -3 15 2 14 5 -1
24 4 42 12 32 13 41 32 22 44 -5 3 -10 12 -10 18 0 7 9 1 20 -13 l20 -25 0 32
c0 17 5 35 10 38 6 3 10 16 11 28 0 21 1 21 9 2 11 -27 12 -37 1 -31 -4 3 -6
-7 -2 -22 5 -24 6 -25 9 -5 2 14 8 20 18 16 9 -3 14 1 14 12 0 9 7 23 15 31
11 11 12 21 5 40 -6 14 -7 30 -4 36 4 7 2 8 -4 4 -7 -4 -12 0 -12 10 0 16 2
16 20 -1 12 -10 18 -26 15 -34 -4 -13 -2 -12 8 1 11 13 16 15 25 6 9 -9 12 -9
12 3 0 12 2 12 10 -1 14 -21 12 -33 -2 -24 -7 4 -9 3 -5 -1 14 -16 33 -13 34
6 1 11 -2 19 -7 19 -12 0 -1 53 13 62 9 6 9 8 0 8 -7 0 -13 6 -13 14 0 8 -6
17 -12 19 -10 4 -10 8 1 15 11 8 9 16 -12 44 -31 40 -25 102 7 71 4 -5 11 -8
15 -8 12 0 40 -32 34 -39 -4 -3 -2 -6 4 -6 6 0 10 11 9 25 -1 17 -6 23 -14 20
-8 -3 -16 3 -19 14 -3 13 -11 18 -21 14 -14 -4 -15 -3 -2 5 8 6 18 8 23 5 6
-3 19 -6 31 -7 17 -1 21 -7 20 -36 -1 -19 0 -29 3 -22 4 10 8 10 19 1 19 -16
18 0 -3 23 -9 10 -11 18 -5 18 6 0 14 -4 17 -10 3 -5 11 -10 17 -10 6 0 4 8
-5 18 -10 10 -14 22 -10 26 4 4 0 4 -9 1 -11 -4 -18 0 -23 14 -3 12 -13 28
-21 36 -9 8 -11 15 -5 15 5 0 14 -8 20 -17 9 -17 10 -17 16 0 4 9 17 17 29 18
16 0 13 4 -14 16 -21 9 -29 18 -22 20 8 3 19 0 25 -6 6 -6 16 -11 22 -11 5 0
3 6 -6 13 -9 7 -16 20 -16 30 0 22 3 21 27 -3 12 -12 25 -18 31 -14 6 3 -1 16
-16 28 -27 23 -27 23 -5 29 18 5 20 9 10 26 -13 25 -5 42 15 34 9 -3 15 1 15
11 0 16 29 22 45 9 6 -5 7 -4 3 1 -11 14 -10 28 2 21 6 -3 10 3 10 14 0 11 -5
23 -12 27 -7 4 -8 3 -4 -4 4 -7 2 -12 -3 -12 -18 0 -12 17 11 32 20 13 21 17
9 32 -12 14 -12 16 4 10 13 -6 16 -4 10 5 -6 10 -2 11 15 6 20 -6 21 -5 10 16
-12 21 -11 22 31 15 27 -4 39 -3 30 3 -11 7 -11 9 0 13 10 3 6 9 -10 17 -21
12 -23 11 -18 -3 5 -13 3 -14 -13 -3 -24 14 -20 33 5 29 10 -2 14 1 10 7 -3 6
-14 11 -23 12 -14 0 -13 2 3 8 18 7 18 9 -8 25 -15 10 -24 22 -21 27 3 5 -2 9
-11 9 -10 0 -14 5 -9 13 6 10 4 10 -7 0 -7 -7 -20 -13 -28 -12 -11 0 -10 3 4
9 11 5 14 9 8 9 -7 1 -13 8 -13 17 0 11 6 14 23 9 18 -6 20 -5 10 6 -19 20
-16 28 11 25 18 -2 23 1 18 12 -4 12 0 14 16 10 15 -4 22 -2 22 9 0 8 5 11 10
8 6 -3 10 -1 10 4 0 6 -12 12 -27 12 -24 2 -25 2 -5 6 26 5 28 16 7 33 -16 13
-10 34 7 24 6 -4 6 2 -1 15 -7 12 -8 21 -2 21 5 0 13 9 16 20 3 11 14 20 23
21 9 0 2 7 -17 16 -25 10 -31 17 -22 23 8 4 10 13 7 19 -4 6 -1 11 7 11 8 0
17 6 20 14 4 10 0 12 -15 8 -17 -4 -19 -1 -13 17 3 11 2 21 -3 21 -5 0 -9 7
-9 15 0 11 4 12 11 5 18 -18 34 -11 32 14 -1 18 -8 26 -29 30 -16 3 -26 10
-22 15 3 6 -3 15 -14 20 -18 10 -19 9 -11 -19 8 -29 8 -29 -23 -23 -18 3 -34
10 -36 15 -1 5 -15 20 -29 34 l-27 24 25 0 c24 1 24 1 6 15 -11 8 -29 13 -40
9 -17 -4 -18 -3 -6 5 19 13 60 14 60 1 0 -5 7 -7 15 -4 21 9 19 24 -4 24 -11
0 -23 5 -27 11 -4 7 -24 9 -50 6 -44 -5 -61 6 -24 16 26 7 25 26 -2 36 -15 5
-18 10 -9 15 9 6 8 11 -6 22 -17 13 -17 13 2 14 17 0 17 2 5 10 -18 12 -2 12
25 0 17 -7 17 -9 3 -9 -10 -1 -18 -5 -18 -10 0 -17 25 -28 50 -20 24 7 24 7
-5 8 -29 2 -29 2 -10 17 19 14 19 15 -3 20 -12 4 -22 10 -22 14 0 4 -11 12
-25 18 -15 7 -25 8 -25 2 0 -6 5 -10 11 -10 5 0 8 -4 5 -9 -7 -10 -46 -3 -46
8 0 4 5 12 11 18 7 7 0 15 -23 26 -18 9 -27 17 -20 17 17 0 15 20 -2 20 -9 0
-12 8 -8 26 3 18 1 25 -6 20 -6 -3 -20 6 -31 20 -12 15 -27 24 -35 21 -8 -3
-17 1 -20 9 -9 23 -7 36 4 29 6 -3 10 -1 10 4 0 6 11 11 24 11 42 0 41 20 -1
22 l-38 1 34 4 34 4 -28 15 c-32 17 -38 17 -30 4 3 -5 1 -10 -5 -10 -7 0 -9 7
-6 16 4 11 -1 18 -14 21 -11 3 -20 11 -20 19 0 8 6 11 15 8 9 -4 15 0 15 10 0
9 5 16 10 16 6 0 10 5 10 11 0 7 -10 5 -26 -6 -32 -21 -43 -12 -19 15 18 20
18 21 -1 15 -17 -6 -17 -6 -1 5 25 16 21 26 -15 41 -17 7 -26 15 -20 17 7 2 8
12 0 34 -8 24 -8 32 3 39 11 7 10 10 -6 15 -23 6 -27 46 -7 66 8 8 8 17 0 32
-10 19 -10 20 6 7 9 -8 20 -11 24 -7 4 4 -3 16 -15 26 -22 18 -33 47 -13 35
12 -7 12 8 1 58 -5 22 -5 37 0 37 14 0 -8 37 -25 43 -10 4 -22 -6 -35 -27z
m-1335 -526 c6 -6 28 -12 50 -14 21 -2 56 -7 77 -11 25 -5 37 -4 37 4 0 6 5
11 10 11 6 0 9 -5 8 -12 -2 -8 23 -11 88 -9 79 2 92 0 108 -18 12 -14 26 -19
40 -15 34 8 110 -36 114 -66 4 -27 80 -112 93 -104 5 3 16 -5 26 -17 10 -12
24 -27 31 -34 6 -8 12 -18 12 -24 0 -6 4 -11 8 -11 5 0 19 -14 31 -31 13 -18
17 -28 10 -24 -12 8 -12 6 -1 -8 8 -9 11 -21 7 -27 -4 -6 8 -24 25 -40 25 -23
41 -30 74 -30 22 0 57 -4 76 -10 22 -6 45 -7 65 0 18 5 52 6 85 1 30 -5 47 -9
38 -10 -29 -2 -21 -16 17 -31 24 -9 31 -16 23 -22 -8 -5 -2 -8 17 -8 23 0 26
-3 15 -10 -8 -5 -23 -7 -32 -4 -9 3 -26 7 -38 9 -12 2 -31 7 -43 11 -22 6 -22
6 -2 -10 11 -8 27 -16 35 -16 16 -1 101 -50 86 -50 -5 0 -24 9 -42 21 -19 11
-40 19 -47 16 -6 -2 3 -11 21 -21 37 -19 42 -30 10 -21 -23 7 -23 7 -3 -9 11
-8 16 -15 10 -15 -16 0 -45 25 -38 32 3 4 1 7 -5 7 -5 0 -19 3 -29 7 -11 4 -6
-7 17 -32 26 -28 29 -35 13 -26 -13 6 -23 9 -23 6 0 -8 44 -69 53 -73 4 -2 7
-9 7 -15 0 -6 -11 0 -26 13 -20 20 -27 22 -34 10 -5 -8 -4 -22 2 -34 9 -17 8
-19 -3 -8 -16 14 -33 16 -24 2 3 -5 -1 -10 -9 -10 -12 0 -16 -10 -16 -36 0
-20 -4 -33 -10 -29 -5 3 -7 18 -4 33 3 18 -2 35 -16 52 l-21 25 16 -39 c19
-47 19 -50 0 -42 -20 7 -19 -3 5 -42 11 -18 20 -39 20 -47 0 -8 9 -29 20 -47
26 -43 26 -72 0 -33 -21 32 -28 18 -8 -18 10 -20 10 -21 -5 -9 -9 7 -19 26
-22 42 -7 30 -52 86 -62 76 -3 -3 4 -14 16 -25 16 -14 20 -26 16 -48 -4 -23
-4 -25 5 -8 7 14 8 2 4 -44 -5 -55 -4 -63 9 -58 9 3 21 -1 27 -9 7 -8 22 -14
33 -14 11 0 29 -8 39 -17 15 -14 21 -14 27 -4 15 24 79 -48 87 -96 4 -28 3
-43 -4 -43 -6 0 -13 6 -15 13 -3 6 -6 2 -6 -10 -1 -24 -21 -43 -21 -19 0 23
-22 31 -36 12 -11 -16 -13 -16 -19 3 -3 12 -4 24 -2 28 3 5 -6 9 -20 10 -14 0
-29 7 -33 13 -10 17 -40 5 -40 -15 0 -11 -7 -8 -25 12 -13 15 -25 22 -25 16 0
-16 -36 -53 -44 -46 -9 10 -7 -10 3 -26 8 -13 12 -13 28 0 16 13 17 12 5 -3
-8 -9 -11 -21 -8 -26 7 -12 -69 -82 -89 -82 -14 0 -65 -48 -65 -62 0 -4 9 -9
19 -13 25 -8 31 -36 11 -53 -13 -10 -13 -11 4 -6 16 6 17 4 11 -17 -16 -52
-46 -109 -55 -104 -5 3 -14 -5 -21 -17 -12 -22 -11 -22 7 -8 14 12 14 9 -4
-14 -12 -16 -22 -36 -22 -45 0 -14 -2 -14 -10 -1 -8 12 -10 12 -10 -5 0 -16
-2 -17 -9 -6 -12 19 10 64 52 108 17 18 28 35 26 38 -14 13 -82 -85 -140 -204
-16 -33 -23 -40 -30 -30 -7 12 -9 12 -9 0 0 -7 -11 -26 -25 -43 -18 -21 -25
-25 -25 -13 0 9 5 25 10 36 8 15 7 19 -3 19 -8 0 -18 -10 -21 -22 l-7 -23 -10
25 c-8 20 -12 22 -19 10 -5 -8 -10 -10 -10 -5 0 6 -9 -8 -20 -30 -13 -26 -19
-32 -15 -15 2 13 2 35 -1 47 l-6 23 -19 -23 c-16 -19 -18 -20 -19 -4 0 9 5 17
10 17 6 0 10 7 10 16 0 10 -6 14 -15 10 -8 -3 -15 0 -16 7 0 9 -2 9 -6 0 -10
-27 -25 -13 -19 18 5 27 4 28 -9 15 -8 -8 -20 -27 -25 -42 -17 -43 -22 -21 -5
25 13 37 13 43 0 47 -8 4 -12 10 -9 15 3 5 10 7 15 4 5 -4 9 -1 9 4 0 6 -5 11
-11 11 -8 0 -7 5 1 16 19 22 22 64 4 57 -8 -3 -14 -1 -14 3 0 5 -3 19 -6 31
-5 18 -1 25 22 34 29 10 29 11 8 22 -20 11 -20 14 -7 26 14 13 14 16 -1 26 -9
7 -16 24 -16 37 0 21 -6 27 -30 30 -34 5 -37 1 -13 -18 10 -7 15 -16 11 -20
-4 -4 -14 -1 -23 6 -9 7 -18 10 -22 6 -3 -3 -1 -6 5 -6 7 0 12 -6 12 -14 0 -8
8 -17 18 -19 16 -4 16 -5 -1 -6 -10 0 -20 6 -23 14 -4 8 -14 15 -23 14 -10 0
-11 -2 -3 -6 24 -9 12 -23 -15 -16 l-28 6 29 -38 29 -38 -48 29 c-49 28 -51
22 -11 -26 19 -22 19 -23 1 -10 -26 20 -77 79 -90 103 -5 11 -17 23 -25 25
-11 4 -9 -2 5 -18 22 -26 8 -20 -43 18 -26 20 -31 21 -26 7 6 -14 4 -16 -6
-10 -9 5 -11 4 -6 -4 4 -6 11 -9 16 -6 9 6 44 -44 36 -52 -8 -9 -37 18 -30 28
3 5 -1 6 -8 4 -8 -3 -25 7 -38 21 -22 24 -23 26 -5 21 17 -6 18 -5 5 6 -23 19
-42 57 -29 57 5 0 7 5 3 12 -11 17 -13 58 -4 58 5 0 8 12 6 28 -1 15 1 37 6
50 5 15 4 22 -5 23 -6 0 -2 4 11 9 23 10 29 25 13 34 -5 3 -7 15 -4 26 3 11 0
27 -7 35 -10 12 -10 15 1 15 21 1 -21 30 -43 30 -17 0 -23 11 -19 34 1 5 -4
13 -11 18 -8 6 -1 8 21 4 18 -3 41 -6 50 -7 9 -1 5 -4 -9 -9 l-25 -8 27 -1
c15 -1 30 -6 33 -11 4 -6 10 -8 14 -6 4 3 25 -1 47 -9 57 -20 67 -19 54 5 -15
27 -4 43 20 30 30 -16 33 -12 10 20 -19 27 -20 30 -4 30 15 0 14 4 -6 25 -17
18 -19 25 -9 25 8 0 21 -6 29 -12 7 -7 5 0 -5 17 l-18 30 27 -19 c34 -21 44
-16 16 9 -31 28 -26 52 10 50 19 -1 34 4 39 13 8 14 12 14 35 -1 14 -9 28 -17
31 -17 10 0 5 49 -9 92 -7 24 -24 77 -37 118 -12 41 -25 77 -29 80 -8 7 -40
76 -40 87 0 4 5 1 11 -7 9 -12 10 -12 5 3 -3 10 -6 26 -7 35 0 14 -2 13 -10
-3 -8 -17 -9 -15 -6 10 2 20 -4 38 -16 50 -19 20 -20 20 -14 -10 4 -26 4 -28
-8 -12 -10 14 -14 15 -18 5 -4 -8 -6 -7 -6 5 -1 10 -13 30 -29 45 -25 25 -42
65 -57 136 -3 15 -14 30 -23 33 -9 2 -25 21 -36 42 -32 68 -2 153 40 111z
m-544 -1154 c-2 -5 2 -13 10 -17 10 -7 10 -9 0 -9 -8 0 -10 -5 -6 -12 4 -7 9
-24 10 -37 2 -18 0 -21 -5 -12 -5 7 -14 10 -20 7 -6 -4 -9 -12 -6 -17 4 -5 -1
-9 -9 -9 -10 0 -13 -6 -10 -15 5 -11 -1 -15 -19 -15 -14 0 -28 6 -30 13 -3 6
-6 2 -6 -10 -1 -13 3 -23 9 -23 5 0 7 -7 3 -16 -4 -11 -8 -12 -13 -4 -4 7 -13
9 -19 6 -6 -4 -9 -11 -6 -16 3 -5 1 -11 -5 -15 -5 -3 -11 3 -11 14 -1 12 -3
26 -4 31 -1 6 -3 16 -4 23 -1 8 -6 6 -15 -5 -11 -15 -14 -13 -25 18 -14 38 -3
64 26 64 8 0 32 13 52 29 20 15 43 31 51 34 21 8 56 4 52 -7z m1681 -766 c3 8
8 22 11 30 3 8 5 -7 3 -34 -1 -35 2 -51 12 -54 8 -2 11 0 8 5 -3 5 -3 22 1 37
7 24 9 25 27 12 18 -13 19 -18 8 -58 -11 -40 -4 -122 12 -148 10 -17 -13 -20
-29 -4 -18 18 -21 41 -5 46 5 2 7 11 3 21 -3 10 -12 16 -20 13 -7 -3 -15 0
-18 7 -2 7 -5 -1 -5 -18 -1 -23 2 -26 9 -15 8 12 10 10 10 -8 0 -13 -4 -20
-10 -17 -6 4 -10 -6 -9 -22 0 -15 3 -22 6 -15 16 40 29 -20 13 -62 -6 -18 -15
-24 -29 -21 -14 3 -28 -6 -43 -28 -13 -18 -23 -36 -23 -42 -1 -5 -6 -9 -13 -7
-7 1 -12 -4 -12 -12 0 -7 -7 -19 -15 -26 -12 -10 -15 -10 -15 4 0 9 5 16 10
16 6 0 10 5 10 11 0 8 -5 7 -16 -2 -10 -8 -14 -23 -12 -40 3 -16 1 -26 -4 -23
-4 3 -8 12 -8 20 0 8 -4 12 -10 9 -5 -3 -10 -21 -9 -38 0 -27 2 -29 9 -12 6
16 8 12 11 -19 5 -46 25 -58 39 -24 8 19 9 14 7 -24 -2 -47 -10 -61 -20 -35
-3 6 -6 0 -6 -14 -1 -27 21 -45 40 -33 5 3 9 -7 9 -21 0 -15 5 -35 11 -47 6
-11 8 -23 4 -26 -9 -9 -25 19 -25 46 0 12 -5 22 -11 22 -20 0 -38 34 -39 73 0
26 -4 37 -15 37 -9 0 -12 -6 -8 -17 4 -11 2 -15 -3 -10 -5 5 -9 18 -9 29 0 13
-7 22 -18 24 -15 2 -18 -2 -12 -23 4 -16 2 -22 -5 -18 -5 3 -10 15 -10 25 0
10 -4 22 -10 25 -16 10 -12 28 5 21 8 -3 15 0 15 7 -1 14 -24 47 -34 47 -11 0
-6 -28 7 -33 9 -4 9 -6 -1 -6 -8 -1 -16 8 -19 19 -3 11 -10 17 -15 14 -6 -4
-14 -1 -18 7 -7 10 -11 10 -24 -1 -9 -7 -19 -10 -23 -6 -4 3 8 12 25 18 18 7
32 18 32 26 0 10 5 10 21 2 25 -14 53 5 46 32 -3 10 -1 18 5 18 6 0 8 11 4 28
-4 15 -3 22 1 16 4 -6 16 -10 25 -8 10 1 22 -5 28 -14 9 -16 9 -16 10 1 0 9
-6 17 -12 17 -9 0 -10 3 -2 8 17 11 25 70 11 76 -9 3 -9 7 1 14 8 5 13 11 11
13 -1 2 1 15 4 29 7 22 8 23 18 8 14 -25 42 -24 34 1 -3 10 0 31 7 46 11 24
13 25 19 8 7 -17 6 -31 -7 -90 -4 -22 -3 -25 9 -14 8 6 13 20 10 29 -2 10 5
40 15 68 20 49 20 50 1 74 -17 23 -19 24 -20 5 0 -11 -3 -14 -6 -7 -2 6 1 26
9 42 l13 31 6 -28 c4 -19 8 -23 12 -13z"/>
<path d="M10278 6023 c-22 -6 -24 -23 -3 -23 18 0 20 -20 3 -21 -7 -1 -17 -2
-23 -4 -5 -1 -13 -3 -17 -3 -9 -2 28 -42 38 -42 3 0 4 7 0 15 -3 9 0 15 9 15
9 0 12 -6 9 -15 -7 -17 11 -21 21 -5 4 6 11 7 17 4 7 -5 7 -8 0 -13 -6 -4 2
-13 17 -23 28 -15 28 -15 24 6 -4 18 -3 19 9 6 19 -21 58 -42 58 -31 0 6 -4
12 -9 15 -15 10 -20 45 -6 40 7 -3 16 -16 19 -29 3 -12 13 -25 21 -29 14 -5
14 -4 0 16 -8 13 -15 29 -14 38 0 10 2 11 6 3 2 -7 9 -13 14 -13 5 0 4 8 -2
18 -14 22 -56 23 -69 2 -8 -13 -13 -12 -32 8 l-23 23 27 -10 c34 -13 50 5 16
18 -15 7 -17 10 -7 10 9 1 21 7 27 14 8 10 5 13 -14 15 -17 1 -23 -2 -18 -10
5 -8 1 -9 -12 -4 -28 11 -67 15 -86 9z"/>
<path d="M7588 5046 c-11 -8 -15 -20 -11 -34 4 -16 1 -22 -10 -22 -9 0 -19 5
-22 10 -3 6 -1 10 4 10 6 0 11 5 11 11 0 8 -5 7 -16 -2 -10 -8 -14 -22 -10
-40 3 -16 1 -29 -6 -31 -7 -3 -9 -12 -4 -24 7 -18 8 -18 27 5 16 19 20 21 25
7 7 -19 35 -21 52 -4 10 10 15 10 21 -1 11 -18 45 -6 35 11 -4 7 4 3 17 -9 23
-21 25 -21 45 -4 15 12 21 26 18 46 -1 16 2 33 8 37 9 5 8 11 -1 22 -18 22
-38 20 -51 -4 -11 -21 -40 -28 -40 -10 0 6 -9 10 -20 10 -11 0 -20 6 -20 13 0
9 -3 8 -9 -2 -7 -11 -10 -11 -17 2 -7 13 -12 13 -26 3z"/>
<path d="M7790 4699 c-14 -18 -18 -19 -67 -6 -42 11 -53 12 -53 1 0 -7 -3 -19
-6 -28 -3 -9 5 -26 21 -42 19 -19 22 -25 8 -20 -31 12 -38 12 -38 -4 0 -8 -11
-20 -25 -27 -24 -11 -24 -12 -5 -19 26 -10 44 -35 38 -51 -6 -15 -43 -18 -43
-3 0 6 0 13 -1 18 0 4 -11 13 -25 20 -21 11 -27 11 -40 -3 -8 -8 -17 -15 -20
-15 -10 0 -3 20 13 35 16 16 16 18 0 27 -10 5 -15 13 -12 19 4 5 0 9 -8 9 -16
0 -27 -21 -27 -51 0 -11 -10 -24 -22 -29 -14 -5 -17 -9 -8 -10 12 0 11 -3 -3
-11 -9 -6 -27 -7 -38 -4 -14 5 -26 0 -41 -17 -20 -23 -20 -23 0 -26 14 -2 21
-14 25 -40 4 -20 2 -39 -3 -42 -5 -3 -3 -18 6 -34 8 -16 13 -30 12 -32 -2 -1
-27 2 -57 8 -60 10 -74 5 -45 -18 18 -15 18 -15 -3 -9 -18 5 -23 2 -23 -14 0
-44 48 -119 69 -107 11 7 66 -9 67 -20 0 -5 6 -21 14 -37 12 -24 11 -29 -6
-42 -18 -13 -17 -14 13 -21 18 -3 40 -15 49 -25 9 -11 27 -19 40 -19 13 0 26
-5 29 -10 4 -6 16 -8 28 -5 16 5 18 4 8 -3 -25 -17 55 -33 106 -21 25 5 48 7
53 4 4 -2 10 4 13 16 4 16 11 18 31 13 19 -4 26 -2 26 9 0 24 31 30 37 7 6
-23 31 -27 39 -5 7 16 73 20 108 6 12 -5 25 -2 35 6 9 8 32 24 51 36 26 17 39
35 49 70 8 26 20 47 28 47 7 0 13 5 13 10 0 6 -4 10 -10 10 -24 0 -6 17 45 44
50 26 55 32 55 61 0 55 -8 65 -53 65 -39 0 -40 0 -22 20 11 13 15 25 10 37 -8
17 -7 64 1 72 2 2 10 -2 19 -9 13 -10 15 -9 15 9 0 11 -4 21 -9 21 -5 0 -13 9
-16 20 -5 16 -15 20 -46 20 -21 0 -39 5 -39 10 0 6 -7 10 -15 10 -8 0 -42 25
-76 55 -57 51 -109 72 -109 45 0 -5 7 -10 16 -10 8 0 20 -13 25 -28 5 -16 23
-39 39 -51 17 -12 30 -26 30 -31 0 -18 -35 -14 -57 7 -28 29 -46 29 -58 1 -15
-34 -49 -30 -53 5 -2 16 1 34 7 41 14 17 -33 86 -59 86 -11 0 -20 5 -20 10 0
16 -14 11 -30 -11z"/>
<path d="M10215 4600 c5 -9 1 -10 -14 -5 -16 5 -20 3 -15 -9 3 -9 10 -14 14
-11 18 11 22 -19 5 -32 -17 -12 -17 -13 11 -14 l29 -1 -35 -11 c-46 -14 -47
-15 -25 -31 18 -13 18 -14 1 -31 -17 -18 -17 -19 6 -37 l23 -19 -27 7 c-21 5
-28 2 -28 -9 0 -10 -8 -13 -25 -9 -49 9 -110 -81 -113 -168 -2 -56 -15 -129
-28 -154 -8 -16 -12 -38 -8 -48 3 -10 0 -18 -6 -18 -8 0 -10 -9 -6 -25 4 -14
2 -25 -4 -25 -5 0 -10 -9 -10 -19 0 -11 -7 -26 -15 -35 -8 -8 -18 -30 -22 -48
-3 -18 -10 -42 -16 -53 -14 -30 -70 -80 -105 -96 -18 -8 -32 -21 -32 -31 0 -9
-12 -26 -26 -37 -19 -15 -26 -30 -27 -58 0 -23 -8 -47 -19 -60 -22 -24 -32
-119 -15 -140 9 -12 -7 -18 -35 -14 -4 0 -10 -8 -13 -19 -4 -11 -13 -20 -21
-20 -8 0 -14 -4 -14 -10 0 -5 11 -10 24 -10 29 0 41 -26 22 -45 -7 -8 -16 -12
-19 -9 -2 3 -7 -2 -11 -11 -3 -9 -2 -13 4 -10 22 14 31 -8 11 -26 -12 -11 -21
-25 -21 -32 1 -18 25 -47 40 -47 10 0 10 -3 0 -15 -10 -12 -10 -25 0 -63 7
-26 16 -51 20 -57 4 -5 11 -25 15 -42 4 -19 13 -33 21 -33 9 0 14 12 15 33 1
29 2 30 8 7 l7 -24 16 23 c16 22 17 22 42 6 19 -12 26 -26 26 -49 l1 -31 15
29 c13 23 14 30 3 37 -11 6 -9 13 9 32 19 20 21 28 12 51 -14 38 -13 66 3 60
16 -6 15 42 -1 58 -18 18 -15 42 8 68 17 20 20 21 20 5 0 -14 3 -15 15 -5 22
18 -1 43 -32 35 -20 -5 -23 -2 -25 27 0 18 -2 40 -3 48 -1 8 2 20 7 26 4 5 6
23 5 39 -1 17 4 30 13 33 12 4 13 2 3 -9 -18 -18 -16 -26 7 -32 11 -3 21 -5
23 -4 1 0 12 -5 25 -12 19 -10 26 -10 38 0 13 10 17 10 25 -2 14 -22 11 -47
-8 -57 -12 -7 -15 -18 -10 -48 4 -22 3 -33 -2 -26 -7 11 -10 10 -15 -3 -8 -22
-8 -27 3 -21 5 3 14 -1 21 -9 10 -13 8 -19 -14 -36 -14 -11 -26 -28 -26 -38 0
-9 -6 -23 -12 -30 -11 -10 -9 -11 6 -5 16 6 17 4 10 -17 -11 -36 -8 -87 7
-105 8 -9 14 -22 15 -28 0 -6 2 -18 2 -27 1 -9 10 -19 20 -22 9 -4 27 -14 40
-23 21 -16 22 -15 22 4 0 12 5 24 10 27 6 3 10 -2 10 -13 0 -10 7 -19 15 -19
9 0 14 3 12 6 -35 66 -33 106 6 120 27 11 50 88 34 116 -5 9 -7 29 -5 45 3 19
0 26 -8 23 -13 -5 -29 57 -17 66 5 3 9 17 11 30 3 33 20 51 46 51 23 0 68 49
76 84 3 12 16 26 29 31 25 10 66 90 55 106 -3 6 0 17 7 25 17 21 3 30 -18 12
-12 -9 -27 -13 -43 -8 l-25 6 26 26 c15 15 25 29 22 32 -3 2 5 9 16 16 16 8
21 20 21 55 0 24 -5 47 -12 51 -8 5 -6 11 6 20 12 8 16 19 11 33 -5 16 -3 20
9 15 9 -3 16 -1 16 4 0 6 -9 14 -20 17 -12 4 -17 11 -13 18 4 7 8 17 10 22 1
6 5 20 9 33 6 21 -10 33 -18 12 -2 -6 -9 -6 -18 0 -12 7 -12 12 4 29 16 17 16
21 4 21 -18 0 -18 26 -1 56 14 25 9 137 -6 142 -6 2 -11 8 -11 13 0 6 4 8 8 5
5 -3 8 13 8 34 0 22 -3 35 -7 29 -4 -7 -8 -5 -12 4 -3 8 -2 18 3 23 5 5 12 26
15 47 6 31 4 37 -10 37 -14 0 -15 3 -6 14 9 10 9 16 1 21 -8 5 -8 10 0 20 8
10 8 15 0 20 -7 4 -9 16 -6 28 3 12 -3 32 -15 49 -11 15 -17 28 -12 28 4 0 1
6 -7 13 -8 7 -15 19 -15 27 0 8 -8 16 -19 18 -12 3 -16 0 -11 -8z"/>
</g>
</svg>
