<?xml version="1.0" standalone="no"?>
<!DOCTYPE svg PUBLIC "-//W3C//DTD SVG 20010904//EN"
 "http://www.w3.org/TR/2001/REC-SVG-20010904/DTD/svg10.dtd">
<svg version="1.0" xmlns="http://www.w3.org/2000/svg"
 width="800.000000pt" height="752.000000pt" viewBox="0 0 800.000000 752.000000"
 preserveAspectRatio="xMidYMid meet">
<metadata>
Created by potrace 1.16, written by Peter Selinger 2001-2019
</metadata>
<g transform="translate(0.000000,752.000000) scale(0.100000,-0.100000)"
fill="#000000" stroke="none">
<path d="M5277 7408 c-17 -13 -17 -14 3 -36 11 -12 17 -22 13 -22 -14 0 -29
14 -36 33 -3 9 -11 17 -17 17 -5 0 -18 -8 -27 -17 -10 -10 -25 -18 -33 -18 -8
0 -14 -5 -13 -12 2 -7 -3 -10 -10 -7 -16 6 -97 -55 -97 -73 0 -7 -5 -13 -10
-13 -6 0 -15 -11 -20 -25 -5 -14 -14 -25 -20 -25 -6 0 -9 -4 -6 -8 3 -5 -9
-16 -25 -26 -19 -11 -28 -23 -25 -32 3 -8 -1 -14 -9 -14 -7 0 -23 -12 -34 -27
-12 -16 -24 -33 -29 -38 -4 -6 -8 -24 -8 -40 1 -25 -3 -30 -20 -27 -16 2 -25
-5 -34 -27 -7 -17 -17 -28 -22 -25 -6 4 -5 -3 1 -14 6 -11 11 -29 10 -39 0
-10 -3 -13 -6 -5 -14 34 -53 -7 -78 -83 -9 -25 -13 -56 -10 -68 4 -15 3 -18
-3 -9 -7 10 -12 8 -24 -10 -29 -44 -39 -93 -28 -124 6 -16 11 -30 11 -32 -1
-1 5 -15 14 -32 8 -16 15 -43 15 -60 0 -17 7 -38 15 -46 11 -12 12 -20 5 -35
-12 -21 -12 -21 52 -88 20 -21 39 -48 42 -59 4 -12 20 -27 36 -34 17 -7 30
-19 30 -26 0 -7 13 -21 30 -30 16 -9 30 -22 30 -28 0 -7 7 -15 16 -18 9 -3 14
-12 11 -19 -5 -16 39 -57 61 -56 14 0 14 2 2 7 -8 4 -16 22 -18 40 -3 28 0 33
15 30 18 -3 23 -21 24 -86 l1 -33 16 33 c13 26 25 34 52 38 45 7 81 1 79 -14
-5 -40 27 -58 41 -23 7 17 9 18 9 5 1 -10 5 -18 10 -18 13 0 23 34 15 53 -5
13 0 16 23 15 15 -1 35 2 44 6 10 4 22 2 28 -6 6 -7 23 -26 36 -41 14 -16 23
-32 20 -37 -3 -5 3 -15 15 -22 11 -7 20 -19 20 -27 0 -11 3 -12 11 -4 6 6 12
48 14 94 1 46 7 98 13 115 13 41 15 181 2 189 -5 3 -10 0 -10 -8 0 -8 -7 -17
-15 -21 -17 -6 -18 0 -6 40 5 16 15 49 22 74 7 25 17 48 22 51 5 4 9 22 10 42
0 20 5 33 9 31 5 -3 11 9 15 26 3 18 12 34 19 37 8 3 14 17 14 32 0 15 10 57
21 92 19 55 21 78 15 169 -8 138 -15 203 -24 210 -14 11 -34 58 -28 68 3 6 -5
19 -19 30 -14 11 -25 25 -25 32 0 8 -9 11 -26 7 -19 -3 -30 2 -47 24 -11 16
-22 35 -24 42 -1 6 -4 19 -5 27 -10 49 -103 87 -141 58z"/>
<path d="M2615 7343 c-16 -9 -41 -28 -55 -43 -76 -82 -94 -105 -95 -119 -1 -9
-9 -28 -19 -43 -28 -43 -55 -123 -49 -147 3 -11 0 -27 -5 -34 -31 -37 22 -377
73 -478 8 -15 15 -36 15 -46 0 -9 6 -35 14 -58 8 -22 19 -80 26 -130 11 -89
31 -184 53 -259 l11 -39 17 38 c28 63 113 81 159 35 11 -11 29 -22 40 -23 32
-5 44 -22 31 -44 -6 -10 -11 -13 -11 -7 0 28 -86 -1 -127 -42 -15 -15 -17 -44
-3 -44 18 0 10 -18 -10 -23 -48 -13 0 -52 56 -45 19 2 34 0 34 -6 0 -5 7 -18
16 -28 14 -14 14 -20 4 -33 -20 -24 -2 -31 31 -11 20 12 34 14 42 8 7 -5 20
-6 31 -3 17 7 17 8 2 24 -20 20 -14 22 16 6 20 -11 21 -9 15 19 -7 33 7 52 25
34 14 -14 60 7 54 25 -3 7 1 13 9 13 8 0 18 6 22 14 5 9 15 11 28 5 18 -7 18
-8 2 -8 -14 -1 -17 -6 -12 -23 5 -19 4 -20 -5 -8 -8 12 -9 8 -4 -14 4 -16 3
-27 -2 -24 -5 3 -15 0 -22 -8 -11 -12 -9 -14 8 -14 11 0 25 9 32 20 8 12 23
20 38 19 17 0 20 -3 10 -7 -34 -16 -69 -45 -64 -53 3 -5 -2 -6 -10 -3 -11 4
-16 0 -16 -12 0 -11 -3 -30 -6 -44 -6 -22 -5 -23 7 -9 8 9 23 22 34 28 19 12
19 12 -2 8 -21 -5 -22 -4 -6 17 9 11 25 21 37 22 12 0 35 4 51 8 l30 7 -32
-15 c-18 -8 -33 -19 -33 -25 0 -11 38 -3 46 10 3 5 10 9 15 9 6 0 7 -4 4 -10
-3 -5 1 -10 10 -10 12 0 15 7 11 30 -3 21 0 30 10 30 23 0 16 27 -8 36 -19 6
-16 8 20 11 23 2 42 8 42 13 0 5 -6 7 -14 4 -8 -3 -17 0 -21 5 -3 6 -10 9 -15
6 -4 -3 -7 3 -6 12 0 9 -5 18 -11 20 -7 3 -13 -3 -13 -12 0 -20 -24 -14 -28 7
-2 11 7 17 28 20 25 4 31 1 36 -19 7 -25 34 -32 34 -9 0 8 10 18 22 22 21 6
21 7 2 21 -19 14 -19 15 1 11 11 -2 24 -7 28 -13 6 -7 10 -6 13 2 3 7 12 9 20
6 8 -3 14 0 14 6 0 6 -6 11 -14 11 -7 0 -19 7 -26 15 -10 12 -9 16 4 21 9 3
16 10 16 14 0 9 -53 0 -60 -11 -11 -16 -86 -27 -103 -14 -14 10 -12 15 15 40
l30 29 -21 17 c-28 23 -26 29 7 20 39 -11 54 -4 42 20 -12 21 -35 26 -27 6 4
-10 -6 -12 -44 -7 -59 8 -70 16 -37 29 14 5 28 17 31 25 4 9 12 16 19 16 7 0
24 16 37 35 13 19 27 33 31 30 4 -3 11 2 14 11 5 13 14 15 44 10 l37 -7 -24
19 c-22 18 -22 19 -5 26 13 5 15 9 7 14 -7 5 -10 18 -6 31 5 19 11 22 35 19
16 -3 31 -1 34 4 3 4 0 8 -7 8 -8 0 -6 8 4 24 9 12 19 40 22 60 4 20 12 39 17
42 5 3 0 12 -11 20 -15 11 -19 22 -14 48 4 25 -1 42 -18 67 -13 19 -29 37 -36
41 -6 5 -9 17 -6 27 3 13 -4 29 -20 45 -13 13 -27 36 -31 51 -4 15 -22 49 -41
77 -19 28 -35 54 -35 58 0 4 -18 19 -41 34 -22 15 -38 33 -36 40 3 7 -10 21
-29 31 -24 13 -34 25 -33 39 3 39 -1 47 -28 59 -51 22 -114 68 -108 77 3 6 -3
10 -14 10 -12 0 -29 8 -39 18 -19 19 -86 42 -123 42 -18 0 -24 6 -25 24 -1 14
4 27 12 30 30 12 13 26 -26 21 -23 -3 -40 -1 -40 5 0 14 -20 12 -55 -7z"/>
<path d="M4180 6215 c-6 -22 -6 -63 1 -59 4 2 12 -2 18 -10 9 -11 5 -15 -24
-20 -25 -5 -35 -12 -35 -26 0 -10 -4 -21 -9 -24 -5 -4 -7 2 -4 13 3 10 0 22
-6 25 -6 4 -9 1 -5 -7 3 -8 -2 -20 -11 -27 -11 -10 -15 -10 -15 0 0 7 -7 10
-15 6 -8 -3 -15 -1 -15 5 0 6 -4 7 -10 4 -12 -8 -12 -8 -1 33 6 20 6 30 0 27
-5 -4 -9 -15 -9 -27 0 -14 -5 -18 -15 -14 -9 3 -15 0 -15 -9 0 -8 5 -15 11
-15 5 0 7 -5 4 -10 -5 -8 -11 -8 -20 0 -10 8 -15 7 -19 -2 -5 -10 -7 -10 -12
0 -8 17 -27 15 -20 -3 3 -8 1 -15 -4 -15 -6 0 -10 5 -10 11 0 5 -5 7 -12 3 -6
-4 -18 2 -26 12 -14 19 -14 19 -9 -1 3 -11 8 -33 12 -50 l7 -30 -20 22 c-10
13 -22 20 -25 16 -4 -3 -18 2 -32 11 -20 13 -30 14 -46 6 -11 -7 -18 -17 -16
-24 3 -9 -4 -11 -25 -8 -24 4 -29 1 -26 -14 2 -14 -4 -20 -26 -22 -18 -2 -26
0 -21 7 4 7 -5 11 -23 11 -25 0 -29 -3 -25 -20 3 -11 10 -20 15 -20 6 0 8 7 5
14 -4 10 -1 13 9 9 17 -6 18 -17 2 -43 -16 -26 -2 -39 17 -14 8 10 15 14 15 7
0 -6 -5 -15 -11 -18 -5 -4 -14 -18 -19 -31 -7 -17 -17 -24 -35 -24 -14 0 -25
5 -25 10 0 6 -4 10 -10 10 -5 0 -10 -11 -10 -25 0 -19 -7 -26 -32 -33 -18 -4
-33 -15 -33 -23 0 -13 -32 -34 -47 -31 -13 3 -9 -26 5 -31 7 -4 6 -6 -4 -6 -9
-1 -20 -9 -23 -18 -6 -14 -9 -15 -15 -4 -11 18 -52 5 -44 -14 3 -9 -4 -18 -18
-24 l-24 -10 25 -1 c25 -1 24 -1 -5 -14 -23 -10 -26 -14 -13 -19 9 -3 18 -1
20 5 3 7 13 8 28 3 25 -8 24 -8 -10 -21 -44 -16 -60 -17 -40 -3 11 8 5 9 -23
4 -27 -4 -37 -3 -32 4 8 14 -5 14 -25 1 -13 -9 -13 -10 0 -10 8 -1 2 -8 -13
-16 -25 -14 -30 -13 -54 6 -14 11 -22 20 -18 20 5 0 16 -7 26 -16 16 -14 18
-14 29 6 11 20 10 21 -9 15 -12 -3 -21 -2 -21 3 0 5 21 16 46 23 40 12 43 15
22 20 -17 5 -18 7 -5 8 10 1 15 6 12 11 -3 6 -1 10 6 10 7 0 10 2 7 5 -2 3
-22 -4 -44 -15 -21 -10 -32 -20 -24 -20 12 0 11 -3 -3 -11 -10 -6 -25 -8 -33
-5 -8 3 -13 2 -10 -2 2 -4 -2 -16 -10 -27 -12 -16 -16 -17 -23 -6 -13 21 -30
4 -25 -24 5 -28 -11 -65 -28 -65 -7 0 -9 13 -5 34 4 27 2 36 -11 39 -12 3 -10
5 6 6 12 0 22 5 22 11 0 5 15 14 33 19 20 6 25 10 12 10 -11 1 -16 5 -10 9 6
4 16 15 24 25 12 15 11 17 -3 17 -10 0 -14 -4 -11 -10 3 -5 2 -10 -4 -10 -5 0
-13 5 -16 10 -10 17 -25 11 -25 -10 0 -11 6 -20 13 -20 8 0 7 -4 -3 -10 -20
-13 -33 -13 -24 1 3 6 0 15 -7 20 -22 14 -33 10 -19 -6 10 -13 9 -15 -9 -15
-14 0 -20 4 -15 12 4 7 3 8 -5 4 -9 -6 -9 -11 -1 -21 8 -10 7 -14 -2 -18 -11
-4 -10 -6 0 -6 7 -1 10 -5 7 -11 -3 -5 -1 -10 5 -10 6 0 2 -9 -8 -21 -24 -25
-28 -95 -6 -103 9 -3 12 -11 9 -17 -6 -9 4 -15 40 -22 5 -1 20 -12 33 -24 17
-15 22 -28 17 -42 -4 -14 -1 -23 9 -27 9 -3 16 -12 16 -20 0 -7 -6 -11 -14 -8
-11 4 -14 -7 -15 -57 0 -35 5 -70 11 -79 9 -12 8 -12 -6 1 -14 13 -19 35 -21
102 -3 91 -16 130 -40 121 -10 -4 -14 -19 -13 -45 1 -24 -5 -46 -15 -57 -13
-15 -14 -21 -4 -32 7 -8 8 -10 1 -7 -7 4 -14 -3 -18 -16 -9 -33 -8 -37 12 -37
15 0 14 -3 -5 -18 -16 -13 -22 -29 -24 -67 -2 -34 1 -49 9 -47 15 3 16 -15 1
-24 -6 -3 -15 0 -20 7 -7 11 -9 12 -9 1 0 -8 9 -16 20 -19 11 -3 17 -9 14 -14
-3 -5 1 -9 8 -10 7 0 -3 -6 -22 -13 -21 -7 -40 -9 -47 -3 -7 5 -17 6 -24 2 -8
-6 -8 -10 2 -15 10 -7 10 -11 0 -24 -12 -14 -11 -16 7 -16 11 0 22 8 24 18 3
10 12 19 21 19 12 0 14 -5 6 -18 -6 -12 -5 -20 3 -25 7 -4 8 -3 4 4 -4 7 -3
12 3 12 5 0 13 -5 16 -10 4 -6 9 -8 13 -6 4 2 8 -9 9 -24 2 -22 -2 -28 -12
-23 -8 3 -15 0 -15 -6 0 -6 -10 -10 -22 -10 -17 1 -19 2 -5 6 32 8 18 30 -20
31 -23 0 -31 -2 -21 -6 12 -5 14 -11 9 -21 -11 -18 9 -40 29 -33 13 5 13 3 1
-11 -7 -9 -16 -15 -20 -13 -4 3 -8 -9 -9 -25 -2 -27 0 -30 19 -24 19 6 20 4
14 -39 -6 -37 -4 -47 9 -52 11 -4 16 -18 16 -45 0 -29 4 -39 16 -39 11 0 14
-5 10 -16 -4 -9 1 -28 9 -41 13 -20 19 -22 31 -12 11 9 14 8 14 -10 0 -11 -5
-21 -10 -21 -7 0 -7 -6 0 -20 8 -14 8 -20 0 -20 -6 0 -8 -4 -5 -10 12 -20 25
-10 25 19 0 17 4 33 10 36 6 3 7 -1 4 -9 -3 -9 -1 -16 5 -16 6 0 20 -9 31 -20
20 -20 56 -29 46 -11 -3 5 2 12 11 15 14 6 15 9 4 15 -7 5 -12 10 -11 12 1 2
-2 12 -6 22 -3 10 -3 21 1 25 4 4 10 1 12 -6 4 -10 8 -10 19 -1 17 14 16 15
19 -43 1 -33 -3 -48 -11 -48 -15 0 -10 -35 7 -56 9 -12 15 -12 27 -2 13 11 15
10 9 -5 -6 -15 -3 -17 14 -12 18 6 20 4 14 -14 -8 -26 3 -27 21 -3 11 14 9 19
-9 29 -19 11 -20 12 -4 13 14 0 17 5 12 21 -4 12 -1 27 8 37 13 15 15 54 6
127 -2 11 1 33 5 48 12 40 1 44 -30 11 -24 -26 -25 -27 -12 -4 8 14 18 39 21
55 4 26 12 57 21 90 2 6 6 24 10 40 80 321 98 359 252 510 46 45 201 141 212
131 2 -2 -6 -9 -17 -16 -12 -6 -21 -21 -21 -34 0 -17 -5 -23 -17 -22 -12 1
-17 -5 -16 -19 1 -11 -5 -24 -13 -28 -8 -4 -14 -17 -14 -27 0 -11 -4 -20 -10
-20 -5 0 -16 -13 -25 -30 -8 -16 -19 -29 -23 -27 -4 1 -29 -19 -56 -45 -27
-27 -55 -48 -62 -48 -22 0 -72 -53 -80 -85 -4 -16 -15 -43 -24 -60 -9 -16 -15
-35 -13 -42 2 -6 -1 -14 -6 -18 -6 -3 -11 -17 -11 -30 0 -13 -9 -45 -20 -71
-11 -26 -19 -51 -18 -56 4 -11 80 117 76 128 -6 20 39 117 68 149 31 34 54 45
54 25 0 -19 21 -10 32 15 6 14 22 28 35 31 13 4 28 14 33 23 8 13 9 11 10 -12
0 -16 -4 -26 -9 -23 -5 3 -8 -2 -7 -12 0 -9 -3 -16 -9 -16 -5 1 -23 -12 -40
-28 -22 -22 -24 -27 -9 -19 12 6 40 14 62 19 35 8 41 7 45 -8 2 -10 -1 -17 -7
-17 -32 1 -47 -4 -41 -14 4 -6 -1 -16 -10 -23 -11 -8 -19 -29 -21 -52 -1 -21
-3 -42 -3 -46 -1 -5 -8 -8 -16 -8 -8 0 -15 -7 -15 -15 0 -8 -6 -15 -14 -15 -8
0 -18 -9 -21 -20 -3 -11 -12 -20 -20 -20 -7 0 -19 -13 -27 -30 -7 -16 -16 -30
-20 -30 -5 0 -8 -7 -8 -15 0 -8 -4 -15 -9 -15 -5 0 -11 -7 -14 -14 -4 -11 -1
-13 11 -10 9 3 6 -1 -7 -9 -19 -11 -20 -15 -8 -20 19 -7 59 29 78 71 7 18 19
32 26 32 7 0 17 9 23 20 6 11 16 20 22 20 9 0 9 -3 0 -12 -7 -7 -12 -20 -12
-30 0 -10 -4 -18 -8 -18 -9 0 -35 -47 -36 -65 -1 -5 8 -13 19 -17 15 -4 11 -6
-15 -7 -26 -1 -31 -4 -20 -11 12 -8 12 -10 -5 -11 l-20 0 20 -9 c11 -5 14 -9
7 -9 -7 -1 -10 -5 -7 -11 3 -5 -1 -10 -9 -10 -8 0 -21 -9 -29 -20 -8 -11 -29
-23 -47 -27 -60 -11 -97 -63 -46 -63 13 0 27 -6 29 -12 4 -10 6 -10 6 -1 1 7
8 10 16 6 10 -3 15 0 13 8 -3 13 2 14 50 17 13 1 22 9 22 18 0 8 5 12 10 9 14
-8 13 -35 -1 -35 -7 0 -20 -10 -30 -22 -11 -11 -19 -17 -19 -12 0 6 6 16 13
23 10 10 9 11 -5 6 -10 -4 -18 -15 -18 -25 0 -21 -34 -32 -49 -17 -19 19 -23
0 -7 -30 23 -46 6 -59 -39 -29 -40 28 -55 32 -55 16 0 -5 5 -10 11 -10 6 0 8
-7 5 -16 -4 -10 2 -24 15 -35 15 -13 19 -24 14 -41 -6 -19 -5 -21 6 -10 19 18
53 16 45 -4 -3 -8 -2 -13 3 -10 4 3 22 -11 39 -30 24 -27 37 -34 52 -29 11 4
20 2 20 -4 0 -23 2 -26 22 -34 50 -18 -56 -48 -116 -33 -25 6 -38 36 -16 36
18 0 10 18 -21 47 -61 55 -69 67 -63 86 4 12 2 17 -4 14 -5 -4 -9 -25 -9 -47
0 -37 3 -43 38 -63 27 -15 39 -29 39 -44 0 -28 -2 -28 -62 -1 -40 18 -48 26
-44 42 3 11 0 26 -6 34 -9 10 -9 15 1 21 9 6 6 12 -11 23 -46 30 -110 33 -80
4 7 -8 8 -13 11 -43 1 -13 4 -15 9 -5 6 9 16 4 36 -17 l27 -28 -25 4 c-40 8
-37 -4 27 -121 l16 -29 7 29 8 29 7 -25 c7 -25 7 -25 8 -2 1 29 21 19 21 -11
0 -12 4 -28 8 -34 10 -16 95 -23 131 -12 120 39 164 50 176 46 7 -3 32 3 56
14 30 15 44 18 52 10 16 -16 30 -13 23 5 -5 13 1 15 28 13 34 -3 70 16 60 32
-3 5 0 9 5 9 6 0 12 -10 12 -22 1 -20 2 -20 6 -4 3 11 11 26 19 34 8 7 14 19
14 27 0 16 46 25 59 12 8 -8 11 -7 11 4 0 9 12 15 31 16 38 3 46 10 31 25 -15
15 -16 38 -2 38 6 0 10 -7 10 -15 0 -8 6 -12 13 -9 16 6 42 -22 42 -45 0 -10
7 -15 18 -13 9 2 17 -1 17 -6 0 -14 48 -21 54 -8 3 6 5 2 5 -9 -1 -11 0 -31 1
-45 l2 -25 8 25 c7 22 8 23 9 4 1 -32 26 -47 65 -41 22 3 41 0 53 -8 10 -8 33
-15 51 -15 17 0 32 -4 32 -10 0 -5 10 -10 23 -10 12 0 42 -10 67 -21 25 -11
59 -21 75 -22 37 -1 125 24 125 36 0 5 -7 6 -15 3 -9 -3 -18 1 -21 9 -4 8 -10
12 -16 9 -15 -10 -74 5 -96 24 -20 18 -20 18 9 37 37 25 36 31 -3 39 -17 3
-28 9 -25 12 3 4 -1 20 -9 35 -14 29 -14 29 16 35 16 4 30 9 30 13 0 3 -16 17
-34 31 -25 18 -35 35 -38 59 -4 29 -3 31 9 15 7 -10 13 -22 13 -27 0 -4 4 -6
9 -2 5 3 12 1 15 -4 3 -5 15 -7 26 -4 23 6 23 4 11 37 -7 17 -7 26 2 30 7 2 2
5 -10 5 -12 1 -23 -5 -26 -11 -2 -7 -8 -9 -13 -5 -5 4 -2 12 5 17 12 7 11 11
-2 25 -10 9 -17 27 -17 39 0 13 -7 29 -15 36 -8 7 -15 21 -15 31 0 13 -5 17
-17 12 -11 -4 -14 -3 -9 5 4 7 16 12 27 12 11 0 18 -4 15 -8 -3 -5 8 -20 23
-35 28 -26 29 -26 34 -5 3 11 -1 27 -9 35 -8 8 -14 21 -14 29 0 8 -5 14 -11
14 -5 0 -7 4 -4 10 7 12 -34 110 -47 110 -5 0 -7 4 -4 9 3 5 -1 14 -9 21 -22
18 -18 30 10 30 15 0 24 -5 22 -12 -1 -7 6 -12 15 -12 9 1 14 -4 12 -11 -6
-15 58 -85 77 -85 12 0 -35 60 -53 68 -5 2 -8 12 -8 23 0 10 -7 19 -15 19 -9
0 -12 6 -8 17 5 12 2 15 -10 10 -9 -3 -17 -3 -17 1 -2 54 -16 118 -29 131 -9
10 -28 31 -43 47 -15 16 -36 38 -47 48 -21 19 -19 42 2 29 7 -4 19 -6 29 -5 9
2 19 -2 23 -8 9 -15 25 -12 25 5 0 8 -4 15 -8 15 -10 0 -51 37 -71 63 -12 15
-11 17 7 17 11 0 28 -7 37 -16 9 -9 18 -14 22 -11 3 3 -7 17 -21 30 -14 13
-26 27 -26 31 0 11 21 6 37 -10 12 -11 18 -12 23 -4 5 8 16 9 30 5 15 -5 20
-4 16 4 -4 6 -14 11 -22 11 -8 0 -12 5 -9 10 3 6 -1 13 -9 16 -9 3 -16 10 -16
15 0 6 -18 27 -40 48 -22 21 -40 43 -40 50 0 6 -6 14 -14 17 -8 3 -11 15 -8
30 4 24 13 30 25 17 4 -3 29 -14 57 -24 36 -13 65 -34 105 -78 31 -33 64 -63
74 -66 9 -3 17 -15 18 -27 1 -11 7 -24 14 -28 7 -5 8 -14 4 -21 -5 -8 -5 -11
-1 -7 5 4 26 -6 48 -22 52 -38 67 -32 58 26 -6 41 -5 45 11 41 24 -6 24 2 2
19 -17 13 -17 15 2 26 11 7 25 13 30 13 6 0 9 14 8 30 -2 29 -1 29 10 8 9 -16
16 -20 27 -13 10 7 11 10 3 10 -16 0 -17 46 -2 56 9 5 10 -1 5 -20 -5 -20 -4
-26 5 -20 8 5 10 28 5 75 -4 41 -2 70 4 74 18 11 11 21 -44 65 -30 24 -52 48
-49 53 4 6 -5 7 -21 3 -17 -4 -25 -3 -22 3 4 5 -6 11 -21 13 -31 3 -44 35 -21
49 10 8 9 12 -5 23 -10 8 -20 21 -21 29 -4 27 -65 75 -116 92 -28 9 -48 20
-45 25 3 4 -2 11 -11 14 -9 4 -14 9 -11 12 3 3 -3 14 -14 25 -23 23 -25 45 -4
53 18 7 20 26 2 26 -7 0 -23 9 -34 19 -15 14 -23 17 -32 8 -8 -8 -11 -7 -11 5
0 8 -6 21 -14 28 -8 6 -12 18 -10 25 3 7 -6 21 -20 30 -14 10 -26 24 -26 31 0
8 -7 14 -15 14 -8 0 -15 7 -15 15 0 9 -6 12 -16 8 -10 -4 -12 -8 -5 -12 7 -4
3 -14 -11 -25 -19 -17 -20 -17 -15 -1 4 9 0 26 -8 38 -8 12 -15 17 -15 11 0
-5 -9 -10 -20 -11 -11 -1 -20 2 -20 8 0 5 -3 8 -7 8 -24 -4 -32 4 -36 34 -2
17 -5 28 -7 22z m37 -846 c96 -31 175 -100 187 -162 4 -21 1 -24 -17 -19 -20
5 -20 6 -1 13 16 7 17 8 1 8 -9 1 -33 19 -53 40 -41 46 -123 89 -184 97 -13 1
-26 7 -28 12 -2 6 -19 6 -45 0 -23 -5 -59 -8 -79 -6 -26 2 -38 -1 -38 -9 0 -7
-5 -13 -11 -13 -5 0 -7 5 -3 11 5 9 -1 10 -22 5 -16 -4 -31 -11 -34 -14 -3 -4
-18 -15 -35 -24 -16 -10 -29 -22 -27 -28 1 -7 -2 -9 -7 -6 -5 4 -13 1 -18 -6
-9 -15 -69 -58 -80 -58 -4 0 15 23 42 50 56 57 120 98 174 112 20 5 50 13 66
17 43 12 140 2 212 -20z m7 -99 c23 -11 55 -33 72 -49 17 -16 39 -31 50 -33
16 -3 19 -11 17 -52 -1 -27 -8 -55 -14 -62 -15 -18 -38 -18 -45 1 -4 8 -12 15
-20 15 -8 0 -14 5 -14 11 0 6 -7 17 -15 25 -8 9 -15 24 -15 34 0 28 -39 50
-88 50 -35 0 -45 4 -49 20 -3 11 -9 20 -14 20 -20 0 -8 29 14 33 49 10 83 6
121 -13z m-160 -1 c-2 -4 1 -17 7 -27 17 -28 5 -54 -23 -47 -71 16 -107 13
-131 -9 -14 -13 -32 -26 -41 -29 -9 -4 -16 -18 -16 -32 0 -14 -5 -25 -11 -25
-5 0 -8 4 -4 9 3 6 -3 14 -12 20 -17 9 -16 11 5 27 15 10 22 23 19 35 -3 10 2
24 11 31 12 10 14 10 8 1 -4 -8 -1 -13 9 -13 9 0 15 7 13 15 -5 24 61 54 119
53 29 0 50 -4 47 -9z"/>
<path d="M5225 5963 c-29 -7 -34 -14 -37 -51 -3 -37 -4 -38 -24 -17 -12 12
-12 15 -2 15 7 0 2 6 -12 13 -17 9 -27 10 -32 3 -4 -6 -10 -4 -14 7 -9 24 -23
21 -21 -5 1 -25 19 -48 36 -48 10 0 15 -14 12 -32 0 -5 3 -8 7 -8 5 0 14 -11
20 -25 8 -17 20 -25 37 -25 26 0 34 -15 13 -23 -7 -2 -1 -8 15 -12 34 -9 69
13 43 27 -9 5 -16 15 -16 22 0 15 -21 26 -51 26 -11 0 -18 4 -14 9 3 5 -5 12
-17 14 -18 3 -16 5 8 6 16 0 34 -3 40 -8 5 -4 33 -17 62 -27 41 -14 57 -16 70
-7 9 6 16 17 14 23 -1 7 2 18 8 25 11 13 0 27 -32 38 -10 4 -18 13 -18 21 0
18 -38 46 -60 45 -8 -1 -24 -3 -35 -6z"/>
<path d="M4948 5088 c-16 -11 -28 -26 -28 -34 0 -8 -7 -14 -15 -14 -8 0 -15
-7 -15 -15 0 -9 -11 -28 -25 -43 -30 -32 -31 -42 -6 -73 10 -13 16 -30 14 -36
-3 -7 0 -13 5 -13 6 0 8 -10 5 -22 -3 -17 -2 -19 5 -10 7 11 10 11 15 -2 3 -8
1 -16 -5 -18 -17 -6 0 -28 22 -28 10 0 22 5 25 10 4 6 11 8 16 5 5 -4 9 1 9
10 0 12 -6 15 -22 10 -18 -6 -13 2 17 29 22 20 44 36 48 36 5 0 1 7 -7 16 -9
8 -13 21 -9 27 5 8 8 8 11 -1 3 -9 7 -9 16 1 19 19 14 131 -5 135 -8 1 -21 13
-29 27 l-15 24 -27 -21z"/>
<path d="M5065 4390 c-4 -19 -7 -57 -5 -85 7 -112 4 -172 -13 -214 -14 -33
-15 -46 -6 -51 6 -4 8 -13 4 -19 -3 -7 -9 -37 -12 -69 -3 -35 -10 -60 -19 -65
-11 -6 -12 -13 -4 -28 8 -13 8 -19 0 -19 -6 0 -8 -5 -3 -12 4 -7 6 -23 5 -35
-4 -25 23 -37 64 -27 19 5 25 4 20 -5 -4 -6 -18 -11 -32 -11 -13 0 -23 -4 -22
-9 2 -5 -10 -20 -25 -35 -15 -14 -23 -26 -17 -26 7 0 10 -6 7 -12 -2 -7 3 -21
11 -31 15 -16 14 -18 -6 -24 -34 -9 -26 -23 14 -23 20 0 33 -4 29 -10 -3 -5
-19 -7 -35 -3 -25 4 -30 2 -30 -14 0 -21 -27 -48 -60 -58 -17 -5 -20 -12 -16
-30 3 -12 1 -45 -4 -71 -6 -27 -13 -65 -15 -84 -3 -19 -8 -43 -11 -52 -3 -11
0 -18 8 -18 9 0 9 -3 2 -8 -9 -6 -15 -57 -15 -139 0 -16 3 -48 7 -72 6 -43 6
-44 -20 -37 -31 8 -32 3 -5 -35 16 -23 28 -29 59 -29 28 0 47 -7 66 -25 24
-22 25 -25 7 -25 -10 0 -23 -4 -29 -9 -17 -16 -136 -33 -263 -37 -141 -5 -194
-16 -213 -43 -7 -9 -25 -26 -40 -35 -16 -10 -28 -22 -28 -26 0 -8 51 -31 165
-74 50 -18 78 -36 98 -61 15 -19 47 -45 69 -56 23 -12 59 -39 80 -61 49 -51
41 -74 -27 -76 -28 0 -54 -7 -65 -17 -12 -11 -20 -13 -25 -6 -3 6 -1 11 6 11
7 0 10 2 8 5 -7 6 -70 -17 -102 -38 -14 -9 -34 -17 -44 -17 -10 0 -29 -17 -43
-38 -14 -20 -30 -41 -37 -45 -7 -4 -13 -14 -13 -22 0 -8 -6 -12 -14 -9 -19 7
-76 -45 -119 -108 -35 -52 -36 -55 -39 -165 -2 -88 0 -109 10 -101 14 12 14
11 12 -60 -1 -49 0 -52 22 -50 15 2 26 -4 33 -19 5 -13 15 -23 21 -23 18 0 24
-52 8 -67 -8 -8 -14 -24 -15 -36 0 -12 -3 -16 -6 -9 -6 16 -23 16 -23 -1 0 -7
9 -30 20 -52 11 -22 20 -56 20 -77 0 -20 4 -40 10 -43 6 -4 4 -15 -5 -29 -15
-22 -14 -26 20 -66 19 -23 35 -46 35 -51 0 -14 -52 16 -82 48 -30 32 -88 148
-88 177 0 11 -7 27 -16 37 -21 24 -13 43 25 60 26 12 30 18 28 51 -1 38 -11
49 -20 26 -3 -7 -6 7 -6 31 -1 34 -4 42 -16 37 -15 -5 -19 4 -15 37 2 26 -50
93 -60 77 -5 -8 -13 11 -20 46 -7 32 -14 64 -15 70 -2 7 -17 10 -34 8 -23 -3
-29 0 -25 11 4 9 -1 18 -12 22 -11 4 -27 16 -36 28 -15 18 -17 18 -18 3 0 -22
-13 -23 -30 -3 -7 8 -23 15 -35 15 -16 0 -30 11 -44 34 -20 33 -73 66 -104 66
-8 0 -24 21 -36 48 -11 26 -46 74 -76 107 -30 33 -57 67 -60 75 -3 8 -40 32
-83 53 -67 32 -85 37 -121 31 -23 -4 -44 -11 -47 -15 -7 -13 -44 -11 -44 1 0
15 50 60 78 71 30 11 29 39 -2 39 -13 0 -35 9 -49 20 -14 11 -33 20 -43 20
-16 0 -16 1 1 20 10 11 26 20 36 20 30 0 33 36 5 73 -30 39 -32 47 -11 47 9 0
19 8 22 18 4 9 13 22 21 28 26 19 -11 37 -65 30 -27 -3 -59 -7 -73 -9 -14 -1
-24 -8 -22 -15 8 -42 -78 26 -88 70 -9 37 -30 33 -30 -6 0 -38 17 -57 31 -35
7 12 9 11 9 -1 0 -8 7 -28 15 -44 9 -16 12 -32 7 -35 -5 -3 -12 -16 -16 -28
-9 -27 19 -60 67 -83 34 -16 45 -47 15 -42 -25 4 -23 -24 4 -42 18 -13 19 -18
8 -31 -11 -14 -8 -21 19 -49 17 -18 29 -34 27 -37 -2 -2 -6 -20 -9 -40 -9 -71
-27 -76 -79 -21 -24 25 -35 44 -32 59 2 12 4 26 5 30 5 28 -24 66 -66 89 -11
6 -29 25 -40 42 -11 17 -26 31 -32 32 -7 0 -13 6 -13 13 -1 7 -7 4 -15 -7 -13
-18 -14 -17 -21 8 -7 29 -26 36 -23 9 4 -45 -14 -62 -24 -22 -4 15 -12 20 -29
17 -23 -3 -23 -4 -23 -150 0 -92 4 -146 10 -145 6 1 10 -16 10 -38 0 -23 8
-53 18 -69 14 -20 17 -38 13 -61 -6 -31 5 -103 23 -150 33 -85 43 -130 46
-200 1 -51 -2 -83 -9 -88 -8 -5 -8 -9 -1 -15 14 -9 17 -50 4 -57 -12 -8 -12
-45 1 -45 13 0 13 -36 -1 -62 -15 -27 -13 -106 2 -124 6 -8 8 -14 5 -14 -4 0
-2 -9 4 -21 8 -13 8 -24 1 -32 -5 -7 -13 -41 -17 -77 -7 -62 -14 -81 -62 -160
-24 -38 -28 -55 -12 -45 6 4 10 -12 8 -42 -1 -35 -7 -52 -21 -62 -15 -11 -17
-20 -12 -48 4 -21 3 -33 -3 -29 -6 3 -12 -1 -16 -9 -3 -8 -16 -15 -30 -15 -13
0 -26 -6 -29 -12 -3 -9 -8 -10 -18 -3 -35 26 -114 11 -103 -20 4 -10 0 -15
-12 -16 -21 -1 -58 -6 -89 -14 -33 -7 -236 -176 -235 -195 0 -3 7 -14 15 -24
11 -15 17 -16 29 -7 10 9 20 9 40 0 28 -13 28 -31 0 -76 -8 -12 -14 -29 -14
-37 0 -21 83 -29 220 -21 l118 7 6 37 c7 46 32 81 57 81 24 0 31 -17 33 -78
l1 -47 76 1 c41 1 85 6 97 13 22 12 72 105 72 135 0 9 15 38 33 65 18 26 39
62 46 79 8 20 21 32 32 32 13 0 19 7 19 23 0 14 9 26 23 32 18 8 22 19 25 60
8 176 27 272 72 370 19 42 23 73 21 172 -2 104 18 227 46 293 8 19 23 83 33
141 18 105 15 159 -11 211 -12 23 -12 105 0 112 5 4 12 -8 16 -24 5 -23 10
-28 19 -21 13 11 26 5 26 -11 0 -5 -4 -6 -10 -3 -16 10 -12 -16 11 -75 13 -32
24 -86 26 -129 3 -55 8 -78 21 -87 23 -18 42 -17 42 1 0 12 7 14 28 9 35 -9
42 -20 42 -72 0 -36 5 -48 30 -69 30 -25 40 -53 19 -53 -7 0 -8 -19 -3 -57 7
-60 23 -82 59 -83 11 0 47 -25 80 -56 33 -31 70 -64 82 -74 34 -27 34 -61 0
-71 -27 -7 -116 -83 -161 -136 -14 -17 -26 -48 -30 -81 -6 -50 -5 -55 21 -77
15 -13 49 -41 74 -63 69 -58 130 -66 549 -67 190 0 351 -4 358 -8 6 -5 17 -5
23 -2 6 4 26 4 44 1 24 -5 32 -11 29 -21 -4 -9 5 -17 28 -23 44 -11 48 -36 9
-53 -17 -8 -31 -17 -31 -21 0 -5 -27 -8 -59 -8 -56 0 -84 -11 -62 -25 6 -3 38
-10 73 -15 80 -11 192 -35 205 -43 6 -4 148 -7 316 -8 317 -2 335 0 346 41 18
72 27 128 29 192 1 20 9 43 17 52 8 8 15 24 15 36 0 12 4 19 8 16 5 -3 22 -1
38 4 17 5 21 9 11 9 -17 1 -17 3 3 31 13 19 19 37 15 50 -4 11 -2 20 4 20 6 0
11 -4 11 -10 0 -5 5 -10 10 -10 6 0 10 8 10 17 0 9 7 24 16 34 11 12 13 25 8
41 -4 13 -7 33 -5 45 1 13 -2 23 -8 23 -6 0 -11 -4 -11 -10 0 -5 -4 -10 -9
-10 -5 0 -9 32 -8 71 1 54 -3 73 -14 80 -10 5 -15 21 -14 44 0 19 -3 35 -7 35
-4 0 -8 12 -8 26 0 23 2 25 16 13 15 -12 16 -10 9 20 -5 24 -3 36 6 42 9 6 10
9 2 9 -8 0 -10 12 -6 35 5 30 3 35 -13 35 -11 0 -26 5 -34 11 -12 8 -10 9 8 4
22 -6 31 8 12 20 -7 4 -7 12 0 25 5 10 8 25 7 32 -2 7 -2 10 0 6 9 -15 23 -8
23 11 0 25 -27 35 -38 14 -5 -9 -15 -13 -21 -9 -6 4 -9 11 -6 16 3 4 -1 10 -9
13 -7 3 -16 17 -18 32 -5 24 -4 25 13 9 20 -18 59 -11 59 12 0 8 -4 14 -9 14
-5 0 -11 9 -14 20 -3 11 0 20 6 20 7 0 5 5 -3 10 -13 9 -13 12 3 24 15 12 16
14 2 20 -8 3 -15 1 -15 -4 0 -6 -5 -10 -11 -10 -6 0 -9 8 -7 18 2 9 11 16 21
16 9 -1 17 2 17 7 0 5 -6 9 -13 9 -14 0 -40 28 -46 51 -9 33 -9 99 0 94 5 -4
9 -15 9 -26 0 -11 4 -18 9 -15 17 11 19 60 3 93 -14 29 -14 35 -2 43 11 7 12
14 2 35 -14 31 -16 75 -3 75 5 0 12 -11 15 -25 4 -14 10 -25 15 -25 16 0 0 37
-25 61 -13 12 -24 33 -24 46 0 14 -6 23 -15 23 -18 0 -20 37 -2 43 9 3 7 9 -5
24 -10 11 -18 23 -18 27 0 4 -9 16 -20 28 -11 12 -20 30 -20 40 0 11 -5 15
-15 12 -8 -4 -15 -2 -15 4 0 6 6 12 13 15 8 3 5 11 -10 26 -13 12 -23 28 -23
35 0 18 -16 23 -67 21 -50 -1 -53 2 -16 16 20 7 23 13 15 21 -16 16 -15 28 3
28 9 0 15 9 15 25 0 14 7 28 16 32 13 5 13 8 2 15 -10 7 -10 11 -1 14 9 4 9
11 3 25 -6 10 -14 27 -19 37 -12 24 -2 72 15 72 7 0 16 5 20 12 4 6 3 8 -4 4
-6 -3 -29 -3 -52 0 -31 5 -38 10 -30 19 8 9 6 14 -6 19 -23 9 -24 8 -24 -19 0
-29 -25 -34 -56 -10 -10 8 -26 14 -34 15 -13 0 -13 -1 0 -11 11 -8 2 -9 -35
-5 -37 4 -45 3 -30 -4 17 -9 16 -10 -7 -5 -16 3 -28 1 -28 -4 0 -5 12 -14 28
-19 24 -9 24 -11 5 -11 -12 -1 -25 4 -28 9 -6 10 -53 3 -68 -10 -12 -11 5 -19
44 -21 19 -2 42 -6 52 -11 24 -12 22 -31 -3 -23 -11 4 -20 2 -20 -4 0 -6 4
-11 9 -11 5 0 12 -9 16 -19 3 -10 18 -22 33 -26 15 -4 22 -9 15 -12 -7 -2 -9
-11 -6 -19 4 -10 -3 -14 -26 -14 -17 0 -31 3 -32 8 0 4 -2 17 -3 30 -2 12 2
22 8 22 6 0 3 5 -7 11 -19 11 -41 3 -32 -12 4 -5 -5 -9 -19 -9 -14 0 -26 -4
-26 -10 0 -5 -9 -10 -19 -10 -22 0 -39 19 -19 22 7 0 18 2 23 2 6 1 16 5 23
10 11 6 10 10 -3 19 -8 7 -19 26 -23 42 -7 22 -15 30 -33 31 -85 3 -94 4 -76
15 9 6 15 14 12 20 -4 5 0 9 8 9 8 0 17 -7 21 -15 7 -18 46 -20 46 -2 0 7 -5
18 -12 25 -9 9 -6 12 15 12 15 0 27 -6 27 -12 0 -9 3 -9 9 1 5 8 7 21 3 29 -5
13 -2 13 18 -1 30 -21 80 -23 80 -3 0 8 -7 16 -15 20 -8 3 -15 1 -15 -5 0 -5
-13 -3 -29 6 -17 8 -36 12 -45 9 -16 -6 -62 33 -51 44 3 4 9 1 13 -5 4 -7 18
-11 30 -10 16 1 22 8 22 24 0 13 -4 23 -9 23 -6 0 -9 9 -8 19 1 12 6 17 16 13
9 -3 12 -1 7 6 -4 7 -13 12 -20 12 -19 0 -64 52 -48 57 17 6 15 30 -3 37 -8 3
-14 9 -14 13 4 16 -14 43 -28 43 -8 0 -11 4 -8 10 3 5 -1 21 -10 34 -26 39 -8
49 26 15 33 -34 48 -34 28 0 -7 11 -10 24 -6 28 5 4 12 1 17 -7 13 -21 19 -9
9 18 -5 12 -16 22 -24 22 -15 0 -15 2 -1 15 13 14 12 18 -10 40 -26 26 -25 49
1 39 20 -8 38 5 27 19 -5 7 -12 30 -15 51 -4 22 -12 43 -19 48 -9 5 -6 8 10 8
15 0 21 -4 16 -12 -5 -8 -2 -9 10 -5 10 4 21 7 25 7 4 0 8 7 8 16 0 9 -12 18
-28 21 l-29 5 27 21 c24 19 25 21 7 28 -15 6 -14 8 9 8 25 1 27 3 13 16 -8 8
-20 15 -26 15 -15 0 -8 32 10 48 13 10 12 15 -10 34 -16 14 -19 19 -7 15 11
-4 17 -1 17 8 0 7 8 15 17 17 13 2 9 8 -15 19 l-34 16 27 21 c24 19 25 23 15
61 -6 22 -15 43 -20 46 -6 3 -10 17 -10 30 0 13 -4 27 -10 30 -5 3 -17 21 -26
40 -9 19 -20 32 -25 29 -5 -3 -9 8 -9 24 0 27 -24 61 -39 55 -3 -2 -6 11 -6
27 0 17 -5 30 -10 30 -6 0 -16 12 -21 28 l-10 27 -9 -35z"/>
<path d="M3118 4273 c-8 -10 -20 -32 -27 -48 -6 -17 -25 -46 -41 -65 -33 -38
-36 -46 -19 -52 8 -3 7 -8 -2 -19 -19 -20 -37 -49 -50 -79 -5 -14 -17 -38 -25
-54 -8 -16 -14 -39 -14 -51 0 -11 -7 -30 -15 -41 -8 -10 -15 -28 -15 -38 0
-11 -7 -27 -15 -36 -8 -9 -17 -40 -20 -69 -3 -28 -12 -65 -20 -81 -10 -19 -11
-31 -5 -35 6 -4 8 -15 5 -25 -3 -11 0 -20 11 -24 11 -4 14 -13 10 -30 -3 -14
-1 -26 5 -28 7 -2 7 -12 0 -31 -9 -22 -7 -28 9 -37 16 -9 20 -21 20 -65 0 -70
7 -85 38 -85 20 0 23 -3 14 -12 -15 -15 -16 -82 -2 -73 13 8 13 -1 -1 -28 -9
-18 -9 -20 2 -9 20 18 29 15 29 -13 0 -16 -6 -25 -15 -25 -8 0 -15 -4 -15 -9
0 -20 39 2 44 25 8 29 26 32 26 4 0 -11 5 -20 11 -20 7 0 9 -10 5 -25 -8 -30
19 -49 47 -33 16 9 17 8 5 -11 -10 -17 -10 -25 0 -41 6 -11 12 -27 12 -35 0
-33 20 -12 27 27 3 24 8 37 11 30 2 -6 8 -9 13 -6 6 3 5 11 -2 20 -6 8 -9 17
-6 20 3 3 10 -3 16 -14 9 -16 19 -19 52 -16 22 2 45 6 50 9 5 4 9 0 9 -8 0 -8
9 -22 20 -32 19 -17 21 -17 40 0 22 20 28 91 9 97 -13 4 16 68 31 68 5 0 29
27 54 59 35 45 50 58 65 54 16 -4 22 3 31 36 6 23 8 46 5 51 -10 15 25 110 39
110 15 0 29 80 20 105 -4 8 -1 36 5 61 9 34 9 49 0 60 -6 7 -13 50 -16 95 l-6
81 -26 -6 c-14 -3 -36 -8 -48 -12 -17 -5 -23 -2 -23 10 0 12 -10 16 -40 16
-33 0 -40 3 -40 20 0 22 -35 28 -44 8 -3 -7 -5 -4 -3 7 1 13 11 21 26 23 18 3
21 6 11 12 -11 7 -11 11 0 25 12 15 12 19 -3 30 -9 6 -14 14 -12 17 3 3 -1 11
-10 18 -8 7 -15 19 -15 26 0 8 -6 14 -14 14 -8 0 -21 7 -30 15 -9 9 -17 11
-21 5 -7 -11 -48 -14 -42 -2 2 4 -4 21 -14 37 -11 17 -28 48 -39 71 -10 22
-28 48 -38 57 -18 16 -20 16 -34 0z"/>
<path d="M6451 2091 c-11 -7 -11 -9 0 -13 11 -4 12 -8 2 -20 -12 -14 -63 -17
-93 -4 -18 7 -66 -49 -51 -58 5 -4 7 -34 4 -68 -5 -45 -3 -59 6 -54 8 6 8 1 0
-18 -13 -27 -5 -61 11 -51 6 3 7 -1 4 -9 -7 -19 7 -21 24 -4 17 17 15 -4 -3
-28 -9 -12 -14 -43 -15 -89 0 -43 -6 -81 -16 -100 -18 -35 -20 -115 -11 -405
6 -172 16 -287 32 -346 6 -21 52 -22 66 -2 7 10 24 18 36 18 26 0 31 15 8 24
-21 8 -19 69 3 88 11 10 28 14 50 11 27 -5 32 -9 32 -33 0 -15 -9 -39 -20 -53
-25 -32 -25 -43 0 -90 l20 -37 -26 -10 c-14 -6 -50 -7 -79 -4 -50 6 -55 5 -65
-17 -8 -18 -8 -34 2 -64 12 -35 17 -40 43 -38 196 11 246 17 258 31 8 11 9 16
1 19 -37 12 -48 32 -49 84 0 49 2 55 28 67 15 7 27 21 27 30 0 20 31 86 43 90
4 1 11 2 17 2 5 0 13 12 16 26 6 25 10 26 50 20 31 -4 46 -2 51 8 4 7 41 30
81 50 39 20 72 41 72 46 0 12 -8 12 -85 1 -59 -8 -91 -5 -227 19 -62 12 -66
14 -57 32 13 24 14 22 -41 41 -25 9 -38 16 -30 17 12 0 15 9 12 39 -3 26 2 48
12 63 21 30 21 74 -1 82 -12 5 -14 9 -5 18 7 7 12 20 12 30 0 11 7 18 20 18
11 0 20 5 20 12 0 6 -3 8 -6 5 -11 -10 -44 12 -44 29 0 12 6 15 24 10 18 -4
24 -2 22 9 -1 8 -5 18 -9 21 -11 11 -8 74 3 74 18 0 11 30 -7 30 -30 1 -50 23
-47 53 1 15 -2 25 -7 22 -5 -4 -9 -1 -9 5 0 7 8 9 20 5 27 -8 36 17 20 54 -16
40 -46 46 -65 13 -8 -15 -17 -35 -21 -44 -8 -23 -24 -23 -24 -1 0 13 -3 14
-11 6 -15 -15 -59 35 -59 66 0 25 -17 28 -23 4 -3 -10 -5 -1 -6 20 0 20 4 37
9 37 6 0 10 -7 10 -16 0 -13 3 -14 15 -4 8 6 18 9 23 6 6 -3 15 9 22 27 17 47
27 62 38 60 7 -2 7 8 2 27 -7 23 -5 30 5 30 22 0 27 18 11 42 -8 13 -15 28
-15 33 0 13 -42 18 -60 6z"/>
<path d="M5931 1032 c-6 -12 -9 -27 -6 -32 3 -5 1 -11 -5 -15 -5 -3 -10 3 -10
14 0 29 -28 26 -40 -4 -5 -14 -12 -25 -15 -25 -4 0 -3 5 0 10 3 6 3 16 -2 23
-11 18 -21 -44 -10 -67 6 -12 5 -22 -2 -29 -15 -15 -14 -47 1 -47 6 0 2 -10
-9 -22 -11 -13 -31 -42 -43 -65 -13 -24 -27 -43 -32 -43 -4 0 -5 -6 -2 -13 3
-9 -10 -20 -36 -32 -49 -22 -60 -40 -60 -97 0 -34 -6 -50 -31 -76 -28 -30 -30
-36 -20 -59 6 -14 21 -27 32 -30 17 -5 19 -11 15 -42 -4 -20 -2 -43 4 -51 7
-12 11 -9 20 17 10 29 15 31 50 30 28 -1 40 -6 43 -19 3 -10 1 -21 -4 -24 -5
-3 -9 -26 -9 -50 0 -45 0 -46 33 -43 17 1 40 -2 50 -6 28 -12 44 1 51 42 8 43
31 83 48 83 16 0 48 40 48 61 0 20 20 37 20 17 1 -9 4 -7 10 3 6 11 6 28 -1
48 -8 23 -8 35 0 45 15 18 49 9 56 -15 4 -10 10 -19 16 -19 5 0 15 -16 24 -36
8 -19 24 -48 36 -65 18 -26 19 -35 11 -76 -6 -26 -8 -51 -6 -55 6 -10 84 -11
84 -1 0 3 -7 30 -17 59 l-16 53 36 40 c21 23 37 43 37 44 0 16 -42 120 -52
130 -14 14 -49 31 -60 29 -4 -1 -10 7 -13 18 -4 11 -11 20 -16 20 -6 0 -7 9
-4 20 4 12 1 28 -6 37 -7 8 -12 30 -10 49 1 19 -2 34 -8 34 -6 0 -11 -17 -11
-37 0 -43 -14 -35 -25 13 -5 27 -3 32 12 30 15 -1 18 7 19 52 1 41 -2 52 -12
48 -7 -3 -20 1 -28 9 -19 20 -27 19 -19 -2 5 -15 2 -15 -18 3 -13 12 -31 24
-39 27 -10 4 -7 6 8 6 12 1 22 4 22 7 0 7 -28 35 -35 34 -21 -1 -25 4 -33 33
-8 32 -9 32 -21 9z"/>
</g>
</svg>
