<?xml version="1.0" standalone="no"?>
<!DOCTYPE svg PUBLIC "-//W3C//DTD SVG 20010904//EN"
 "http://www.w3.org/TR/2001/REC-SVG-20010904/DTD/svg10.dtd">
<svg version="1.0" xmlns="http://www.w3.org/2000/svg"
 width="300.000000pt" height="169.000000pt" viewBox="0 0 300.000000 169.000000"
 preserveAspectRatio="xMidYMid meet">
<metadata>
Created by potrace 1.10, written by Peter Selinger 2001-2011
</metadata>
<g transform="translate(0.000000,169.000000) scale(0.100000,-0.100000)"
fill="#000000" stroke="none">
<path d="M2425 1683 c6 -4 10 -20 10 -35 -1 -20 2 -25 11 -17 15 13 4 51 -17
57 -9 2 -10 0 -4 -5z"/>
<path d="M2840 1680 c0 -5 7 -10 16 -10 8 0 12 5 9 10 -3 6 -10 10 -16 10 -5
0 -9 -4 -9 -10z"/>
<path d="M345 1631 c-3 -5 -1 -12 5 -16 5 -3 10 1 10 9 0 18 -6 21 -15 7z"/>
<path d="M2840 1511 c0 -25 6 -27 13 -6 4 8 2 17 -3 20 -6 4 -10 -3 -10 -14z"/>
<path d="M1919 1513 c-1 -4 -1 -12 0 -16 1 -5 -3 -6 -8 -2 -14 8 -66 -66 -87
-125 -13 -37 -23 -50 -38 -51 -21 0 -21 -1 -1 -8 11 -5 22 -5 25 -1 9 13 50 4
64 -15 20 -28 30 0 10 30 -11 16 -12 25 -5 25 7 0 10 4 6 9 -3 5 -1 12 5 16 5
3 7 17 4 31 -4 16 -2 24 7 24 7 0 9 3 6 6 -4 4 -13 1 -22 -6 -10 -8 -15 -9
-15 -2 0 15 41 37 63 33 9 -1 17 2 17 7 0 6 8 13 18 17 14 5 15 4 5 -6 -14
-14 -18 -33 -5 -25 5 3 9 -1 9 -8 0 -8 -9 -12 -21 -10 -12 3 -16 2 -9 -2 8 -3
10 -17 7 -37 -4 -25 -3 -28 5 -17 7 9 11 10 11 3 0 -6 -4 -15 -10 -18 -5 -3
-10 -11 -10 -16 0 -6 5 -7 10 -4 6 3 10 2 10 -4 0 -5 -4 -13 -10 -16 -14 -9
-12 -27 3 -22 6 2 12 10 12 17 0 7 6 15 13 18 10 3 10 -4 -2 -32 -14 -33 -13
-40 5 -38 3 1 6 -6 6 -14 0 -10 -9 -14 -26 -12 -26 3 -41 15 -41 33 0 6 5 3
10 -5 5 -8 10 -10 10 -5 0 6 -4 16 -9 24 -8 12 -12 11 -28 -4 -13 -13 -14 -20
-5 -23 16 -5 15 -17 -2 -35 -9 -9 -11 -19 -5 -28 7 -11 9 -10 9 4 0 10 4 15
10 12 6 -4 7 1 3 12 -5 14 -3 16 7 6 10 -9 10 -15 2 -26 -7 -8 -9 -17 -5 -21
13 -13 11 -36 -4 -36 -10 0 -13 6 -9 16 5 14 4 15 -9 4 -13 -10 -15 -9 -15 8
0 11 -7 28 -16 36 -8 9 -12 16 -8 16 4 0 -10 16 -30 35 -21 19 -45 35 -54 35
-9 0 -27 3 -39 6 -19 5 -23 2 -22 -17 0 -22 1 -23 9 -4 5 11 9 14 9 8 1 -7 6
-13 12 -13 6 0 17 -7 25 -15 21 -20 35 -19 27 3 -6 16 -5 15 15 -1 11 -11 19
-24 16 -31 -2 -6 6 -16 18 -21 12 -6 22 -20 23 -32 1 -19 -1 -20 -19 -11 -16
9 -23 7 -35 -9 -18 -22 -64 -24 -83 -4 -11 11 -9 12 10 2 16 -9 22 -9 22 0 0
6 6 9 14 6 8 -3 21 2 30 12 15 16 15 20 1 31 -15 13 -50 6 -41 -8 6 -10 -11
-39 -18 -31 -3 3 0 19 6 36 10 26 9 34 -5 48 -13 12 -21 14 -34 6 -17 -10 -17
-10 2 -11 17 0 17 -2 -5 -17 -14 -9 -26 -17 -27 -18 -1 -1 2 -18 8 -38 5 -21
14 -35 19 -32 5 3 11 1 15 -5 4 -6 -9 -11 -32 -11 l-38 -2 39 -6 c22 -3 41
-12 44 -18 4 -15 -14 -17 -23 -3 -9 14 -28 1 -22 -14 3 -7 -1 -13 -8 -13 -7 0
-11 6 -8 13 2 6 -1 15 -8 20 -9 5 -10 2 -6 -9 4 -12 1 -17 -9 -17 -11 0 -15 6
-11 19 3 15 1 18 -11 14 -10 -4 -13 -2 -8 5 4 7 2 12 -5 12 -6 0 -1 9 12 19
13 11 26 17 28 15 3 -2 -4 -11 -15 -19 -23 -17 -14 -19 20 -4 25 12 25 12 8
41 -15 25 -15 30 -2 38 8 5 15 20 15 32 1 13 4 29 9 36 7 11 4 12 -12 3 -28
-15 -37 -31 -18 -31 9 0 13 -6 10 -14 -3 -8 -13 -12 -24 -9 -25 7 -35 -15 -17
-35 13 -15 13 -19 -2 -32 -9 -8 -15 -13 -14 -11 1 2 -2 12 -8 22 -8 15 -6 17
7 12 12 -4 15 -3 10 5 -4 7 -16 12 -26 12 -14 0 -18 -5 -13 -17 5 -12 3 -14
-7 -8 -8 5 -11 4 -7 -2 6 -10 -10 -18 -50 -28 -16 -4 -16 41 0 76 7 15 24 41
40 59 23 26 32 31 55 26 15 -4 22 -3 16 1 -6 4 -17 19 -24 33 -68 133 -138
183 -176 124 -17 -25 -22 -122 -6 -134 4 -3 8 -21 10 -40 5 -74 12 -89 31 -67
8 11 8 21 -3 42 -14 27 -13 50 3 41 4 -3 12 8 18 25 7 17 7 31 2 35 -5 3 -9
13 -9 24 0 10 -7 20 -15 24 -8 3 -15 1 -15 -5 0 -6 -5 -7 -10 -4 -6 4 -4 12 5
22 17 16 65 11 65 -8 0 -6 4 -7 10 -4 6 4 7 -1 3 -11 -5 -13 -2 -15 15 -9 14
4 22 2 22 -5 0 -6 -4 -8 -10 -5 -15 9 -12 -18 4 -41 10 -13 11 -25 5 -35 -7
-11 -11 -12 -18 -1 -6 11 -10 10 -15 -3 -3 -9 -6 -26 -6 -36 0 -11 -5 -17 -10
-14 -6 4 -8 11 -5 16 7 11 -23 25 -32 15 -4 -3 4 -17 16 -30 25 -27 21 -46 -9
-46 -31 0 -31 -15 2 -45 27 -26 30 -33 24 -74 -3 -25 -2 -60 3 -78 7 -24 4
-47 -11 -95 -27 -83 -26 -163 1 -216 12 -23 21 -59 21 -80 0 -25 10 -54 30
-85 58 -91 68 -152 45 -264 -6 -27 -10 -31 -29 -24 -47 18 -214 -8 -200 -30 3
-5 15 -2 27 6 15 9 49 14 107 13 126 -1 287 4 270 8 -8 3 -23 23 -32 46 -10
23 -15 38 -12 35 4 -4 15 9 25 27 16 30 16 38 4 79 -8 25 -18 54 -23 64 -5 10
-12 30 -15 44 l-7 26 75 -5 c48 -3 80 -1 88 7 19 16 26 4 16 -27 -4 -15 -12
-52 -18 -82 -16 -91 -29 -132 -51 -162 -11 -16 -18 -32 -15 -37 3 -5 -1 -12
-7 -14 -8 -3 -6 -6 5 -6 10 -1 17 6 17 17 0 13 2 14 9 4 7 -11 9 -10 14 3 4 9
3 13 -2 10 -5 -3 -12 -1 -15 4 -3 5 1 12 10 15 8 3 13 10 10 15 -3 5 2 15 11
22 14 12 15 11 9 -9 -4 -12 -4 -22 1 -22 5 0 10 11 11 25 1 14 -3 25 -8 25 -7
0 -7 6 -1 18 5 10 19 43 30 72 16 43 17 51 4 35 -16 -20 -16 -20 -8 0 4 11 9
29 10 40 2 26 26 75 36 75 11 0 0 -30 -18 -52 -11 -12 -12 -18 -2 -24 8 -4 10
-3 5 4 -4 7 -3 12 1 12 5 0 17 19 28 42 10 24 22 46 27 49 10 7 0 39 -13 39
-5 0 -8 -3 -8 -7 4 -23 -2 -43 -10 -38 -6 3 -8 14 -6 24 3 15 -1 19 -16 16
-23 -5 -54 -33 -45 -42 3 -4 6 -3 6 2 0 4 7 2 15 -5 13 -11 14 -10 9 4 -7 17
11 23 21 6 10 -16 -17 -49 -34 -40 -55 27 -94 39 -104 33 -7 -4 -3 -9 12 -13
40 -9 39 -32 0 -26 -19 4 -56 8 -83 11 -48 4 -48 4 -43 -23 3 -15 11 -40 17
-57 6 -16 11 -32 12 -35 0 -3 4 -11 10 -17 6 -7 8 -19 5 -28 -4 -8 -2 -17 2
-19 11 -7 2 -56 -10 -56 -12 0 -11 -67 1 -75 6 -4 7 -11 4 -17 -4 -6 -13 4
-20 21 -7 17 -19 31 -26 31 -9 0 -9 -3 2 -10 11 -7 12 -14 4 -27 -19 -30 -34
-27 -35 9 l-1 33 -13 -35 c-7 -19 -14 -29 -14 -22 -1 7 -6 10 -13 6 -6 -4 -4
3 5 15 8 13 13 29 10 37 -3 8 1 16 9 19 16 6 13 75 -3 75 -6 0 -8 12 -6 27 2
15 -2 38 -9 52 -7 13 -10 29 -7 34 3 6 2 7 -3 4 -5 -3 -23 19 -39 48 l-29 54
25 19 c26 21 39 20 39 -4 0 -8 13 -17 30 -21 17 -3 33 -10 36 -14 8 -14 31
-10 37 5 4 10 1 13 -8 10 -8 -3 -35 8 -60 25 -51 34 -61 37 -68 19 -3 -9 -11
-6 -25 8 -20 21 -20 23 -3 38 10 9 21 13 24 10 4 -4 -2 12 -13 34 -11 23 -20
47 -20 54 0 10 -2 11 -8 0 -6 -9 -12 -5 -20 13 -16 34 -15 40 2 26 11 -9 15
-7 20 11 4 13 10 18 12 12 3 -7 15 -10 27 -7 16 3 18 2 8 -5 -7 -5 -10 -15 -6
-21 4 -7 1 -19 -7 -28 -11 -15 -11 -16 5 -10 10 4 21 7 23 7 2 0 4 11 4 24 0
32 22 48 62 44 18 -2 33 2 33 7 0 6 -8 9 -17 8 -24 -4 -35 37 -14 52 9 7 16
17 16 24 0 6 4 11 9 11 5 0 9 10 9 23 l0 24 -24 -24 c-37 -37 -55 -69 -49 -85
8 -20 -19 -40 -47 -36 -17 2 -24 11 -26 31 -2 15 -8 25 -13 22 -5 -4 -9 3 -9
15 0 12 4 19 9 16 5 -4 12 0 15 6 2 7 4 4 4 -7 -2 -41 2 -55 19 -55 15 0 15 1
-1 19 -16 17 -16 20 -1 35 9 9 12 16 5 16 -6 0 -8 5 -4 12 5 8 2 9 -11 4 -15
-5 -16 -4 -5 8 6 9 10 21 7 28 -4 8 -6 7 -6 -4 -1 -25 -18 -22 -25 5 -7 26 -7
77 1 60 2 -7 4 -15 4 -18 0 -2 9 -15 22 -27 l22 -23 17 38 c11 23 22 36 29 31
8 -4 7 -9 -2 -15 -11 -7 -9 -9 6 -10 18 0 18 -1 2 -7 -10 -4 -24 -20 -32 -35
-8 -15 -10 -25 -5 -22 18 11 16 -21 -3 -42 -11 -13 -15 -23 -9 -23 6 0 17 9
25 20 8 11 16 17 20 14 3 -3 4 2 3 13 -2 10 7 25 21 34 15 10 21 19 15 23 -6
4 -15 -1 -20 -10 -7 -12 -11 -13 -17 -4 -10 17 15 31 42 25 12 -3 38 2 57 12
34 16 35 18 19 35 -9 10 -11 18 -5 18 6 0 18 -10 27 -22 8 -13 21 -23 28 -23
6 0 12 -10 12 -22 0 -13 6 -28 13 -35 9 -9 12 -7 13 13 0 22 1 22 9 4 5 -12 9
-14 9 -6 1 8 9 23 18 33 9 10 17 28 18 41 1 16 9 23 28 25 15 2 27 7 27 11 0
3 15 31 34 60 34 53 35 54 32 153 -3 81 -7 105 -23 126 -19 25 -72 43 -74 25z
m71 -103 c0 -5 -5 -10 -11 -10 -5 0 -7 5 -4 10 3 6 8 10 11 10 2 0 4 -4 4 -10z
m-110 -9 c0 -5 -7 -14 -15 -21 -16 -14 -18 -10 -9 14 6 17 24 22 24 7z m-400
-48 c0 -15 -3 -14 -19 7 -11 13 -17 28 -15 32 8 12 34 -18 34 -39z m270 -142
c-13 -26 -27 -34 -35 -21 -3 5 -1 10 4 10 6 0 11 7 11 15 0 8 7 15 15 15 12 0
14 -4 5 -19z m67 -17 c-3 -3 -12 -4 -19 -1 -8 3 -5 6 6 6 11 1 17 -2 13 -5z
m-202 -84 c-4 -6 -10 -8 -15 -5 -4 3 -10 -2 -14 -10 -3 -8 -11 -15 -17 -15 -7
0 -9 3 -6 7 4 3 0 15 -10 25 -9 10 -14 20 -11 23 8 9 38 -6 32 -16 -3 -5 2 -6
10 -3 24 9 20 37 -4 29 -11 -3 -20 -2 -20 4 0 5 8 11 18 13 19 4 47 -36 37
-52z m242 43 c3 -7 -4 -9 -16 -6 -12 3 -18 9 -15 15 7 11 26 6 31 -9z m27 -18
c-4 -8 -9 -15 -14 -15 -4 0 -11 -10 -16 -21 -9 -20 -11 -20 -26 -6 -10 10 -19
12 -27 6 -6 -5 -9 -6 -6 -2 3 3 -1 13 -9 22 -13 14 -10 16 25 17 27 2 37 -2
33 -10 -4 -6 2 -3 12 7 22 21 35 22 28 2z m-254 -105 c0 -5 -5 -10 -11 -10 -5
0 -7 5 -4 10 3 6 8 10 11 10 2 0 4 -4 4 -10z m-90 -120 c0 -11 -7 -20 -15 -20
-13 0 -14 4 -5 20 6 11 13 20 15 20 3 0 5 -9 5 -20z m-12 -137 c-1 -10 1 -24
5 -30 5 -7 4 -13 -2 -13 -14 0 -18 9 -27 55 -7 37 -6 39 10 22 10 -9 16 -25
14 -34z"/>
<path d="M2580 1481 c0 -6 4 -13 10 -16 6 -3 7 1 4 9 -7 18 -14 21 -14 7z"/>
<path d="M352 1435 c4 -4 3 -16 -3 -26 -6 -12 -6 -25 -1 -36 7 -12 10 -8 14
21 2 21 -1 40 -6 43 -6 4 -8 3 -4 -2z"/>
<path d="M851 1364 c0 -11 3 -14 6 -6 3 7 2 16 -1 19 -3 4 -6 -2 -5 -13z"/>
<path d="M2840 1335 c0 -8 2 -15 4 -15 2 0 6 7 10 15 3 8 1 15 -4 15 -6 0 -10
-7 -10 -15z"/>
<path d="M1910 1326 c0 -9 5 -16 10 -16 6 0 10 4 10 9 0 6 -4 13 -10 16 -5 3
-10 -1 -10 -9z"/>
<path d="M1635 1295 c-16 -7 -27 -14 -23 -14 3 -1 -3 -12 -15 -25 -17 -20 -25
-22 -36 -13 -12 9 -13 9 -7 -1 4 -7 3 -19 -4 -27 -7 -8 -7 -15 -1 -19 10 -7
51 39 51 58 0 6 4 5 9 -3 7 -11 16 -7 44 22 36 39 31 45 -18 22z"/>
<path d="M851 1284 c0 -11 3 -14 6 -6 3 7 2 16 -1 19 -3 4 -6 -2 -5 -13z"/>
<path d="M2441 1254 c0 -11 3 -14 6 -6 3 7 2 16 -1 19 -3 4 -6 -2 -5 -13z"/>
<path d="M849 1248 c-8 -19 -7 -108 1 -113 7 -4 10 14 9 54 -2 51 -5 71 -10
59z"/>
<path d="M2580 1199 c0 -5 5 -7 10 -4 6 3 10 8 10 11 0 2 -4 4 -10 4 -5 0 -10
-5 -10 -11z"/>
<path d="M2442 1180 c0 -14 2 -19 5 -12 2 6 2 18 0 25 -3 6 -5 1 -5 -13z"/>
<path d="M1983 1163 c2 -10 15 -39 31 -66 52 -87 66 -140 66 -240 0 -54 -4
-86 -9 -79 -6 10 -13 3 -25 -25 -9 -21 -23 -48 -31 -59 -14 -19 -14 -22 0 -27
10 -5 15 0 15 13 0 11 4 20 8 20 4 0 8 -9 8 -20 0 -11 -4 -20 -8 -20 -4 0 -8
-8 -8 -17 0 -16 2 -16 11 -3 9 12 10 12 5 -3 -3 -10 -6 -24 -6 -30 -1 -7 -7 2
-15 18 l-15 30 4 -27 c1 -15 0 -25 -4 -23 -5 3 -11 -2 -14 -11 -3 -8 -2 -12 4
-9 6 3 10 1 10 -5 0 -6 5 -8 10 -5 13 8 13 -5 0 -25 -8 -13 -10 -12 -10 3 0 9
-5 17 -10 17 -6 0 -9 -3 -9 -7 1 -5 1 -10 -1 -13 -8 -21 -8 -50 0 -55 6 -3 11
4 11 17 1 17 3 18 6 6 6 -23 -47 -98 -69 -98 -11 0 -18 -8 -18 -20 0 -11 5
-20 11 -20 6 0 9 6 6 13 -3 7 3 13 13 14 16 1 17 -1 5 -24 -8 -14 -20 -30 -27
-34 -9 -6 -6 -8 9 -6 12 0 20 4 18 7 -2 3 3 13 10 23 12 16 13 14 13 -18 0
-30 -3 -36 -18 -32 -13 3 -17 -2 -17 -22 0 -14 2 -20 4 -13 3 6 18 12 33 12
31 0 50 18 31 29 -18 12 -16 91 3 141 17 42 22 64 47 199 5 29 21 85 34 124
29 81 32 160 10 214 -14 33 -112 173 -121 173 -2 0 -3 -8 -1 -17z m114 -275
c-3 -8 -6 -5 -6 6 -1 11 2 17 5 13 3 -3 4 -12 1 -19z"/>
<path d="M2840 1156 c0 -8 4 -17 9 -20 5 -4 7 3 4 14 -6 23 -13 26 -13 6z"/>
<path d="M1956 1131 c-4 -5 -2 -12 3 -15 5 -4 12 -2 15 3 4 5 2 12 -3 15 -5 4
-12 2 -15 -3z"/>
<path d="M1914 1118 c-5 -7 -3 -8 6 -3 9 6 10 2 5 -16 -16 -51 -25 -69 -32
-67 -16 4 -53 -27 -53 -44 0 -28 17 -21 29 12 12 37 21 39 21 4 0 -14 -4 -22
-10 -19 -6 3 -7 -1 -4 -9 3 -9 10 -16 14 -16 5 0 2 -14 -7 -31 -11 -22 -21
-29 -34 -26 -10 3 -20 2 -22 -2 -2 -3 -2 0 -1 7 4 14 -12 16 -21 2 -7 -11 -35
-2 -35 12 0 7 5 6 14 -1 10 -9 17 -7 27 6 12 15 12 16 -3 11 -10 -5 -27 4 -47
23 -17 16 -31 31 -31 33 0 7 59 -24 65 -35 8 -12 35 -12 35 1 0 6 -8 10 -18
10 -11 0 -27 9 -36 19 -19 21 -54 20 -68 -1 -5 -9 0 -16 16 -22 28 -11 42 -54
17 -52 -9 0 -16 -6 -16 -14 0 -11 10 -14 37 -13 21 1 37 -1 37 -5 -3 -19 4
-19 46 3 l44 24 -9 -25 c-9 -22 2 -36 13 -16 11 20 17 63 7 57 -15 -9 -12 2 6
31 16 23 16 24 -2 18 -14 -4 -11 1 9 20 27 25 31 39 28 104 -1 32 -14 42 -27
20z"/>
<path d="M1987 1093 c5 -15 3 -16 -8 -5 -7 6 -17 12 -23 12 -5 0 4 -11 20 -25
27 -23 42 -65 23 -65 -4 0 -5 -16 -2 -35 4 -25 2 -35 -7 -35 -7 0 -10 -3 -7
-6 15 -15 37 20 37 58 0 22 4 37 9 33 6 -3 -2 15 -15 40 -26 46 -38 58 -27 28z"/>
<path d="M1743 1066 c-28 -13 -30 -30 -3 -21 15 5 21 0 26 -19 6 -27 61 -55
61 -31 0 7 -5 11 -12 9 -6 -3 -20 4 -30 16 -19 21 -8 28 14 8 7 -7 4 2 -6 19
-10 18 -20 32 -23 32 -3 -1 -15 -6 -27 -13z"/>
<path d="M1975 1040 c5 -17 4 -21 -5 -15 -9 5 -11 4 -6 -4 4 -6 12 -9 17 -6
12 8 11 32 -2 41 -8 4 -9 -1 -4 -16z"/>
<path d="M1966 984 c-9 -23 -7 -46 3 -40 12 8 21 45 11 51 -4 3 -11 -2 -14
-11z"/>
<path d="M1930 975 c-1 -11 -2 -23 -1 -27 0 -4 -3 -18 -9 -32 -6 -17 -5 -26 3
-29 7 -3 -2 -17 -23 -36 -19 -16 -31 -34 -27 -38 5 -4 12 -1 16 6 6 9 11 10
15 2 4 -6 15 -11 24 -11 10 0 13 3 7 8 -14 10 -12 35 3 45 10 7 10 12 2 22 -9
11 -7 14 9 12 15 -1 20 -6 16 -17 -5 -11 -3 -12 6 -3 9 9 7 18 -9 40 -11 15
-22 39 -25 53 -3 20 -5 21 -7 5z"/>
<path d="M2020 920 c-13 -40 -10 -57 8 -46 6 3 8 15 5 26 -3 11 0 26 6 34 7 8
8 17 3 20 -5 3 -15 -13 -22 -34z"/>
<path d="M1830 931 c0 -18 18 -21 30 -6 10 13 9 15 -9 15 -11 0 -21 -4 -21 -9z"/>
<path d="M1600 910 c-9 -6 -10 -10 -3 -10 6 0 15 5 18 10 8 12 4 12 -15 0z"/>
<path d="M1545 850 c-3 -5 1 -10 10 -10 9 0 13 5 10 10 -3 6 -8 10 -10 10 -2
0 -7 -4 -10 -10z"/>
<path d="M1756 845 c-9 -26 -7 -32 5 -12 6 10 9 21 6 23 -2 3 -7 -2 -11 -11z"/>
<path d="M1950 849 c0 -5 5 -7 12 -3 7 5 8 3 2 -7 -13 -22 -14 -41 -1 -36 7 3
11 10 10 16 -2 6 2 11 7 11 6 0 10 7 10 15 0 8 -9 15 -20 15 -11 0 -20 -5 -20
-11z"/>
<path d="M2029 859 c-6 -40 -6 -59 1 -59 5 0 12 5 15 10 4 6 12 7 18 3 7 -3 3
4 -8 18 -11 13 -21 26 -22 28 -2 2 -3 2 -4 0z"/>
<path d="M1675 840 c-3 -5 -2 -10 4 -10 5 0 13 5 16 10 3 6 2 10 -4 10 -5 0
-13 -4 -16 -10z"/>
<path d="M847 819 c6 -23 9 -24 16 -5 3 8 0 17 -7 19 -10 4 -12 -1 -9 -14z"/>
<path d="M341 804 c0 -11 3 -14 6 -6 3 7 2 16 -1 19 -3 4 -6 -2 -5 -13z"/>
<path d="M1591 811 c-7 -5 -11 -24 -9 -47 2 -27 -1 -38 -9 -36 -15 2 -17 -14
-4 -22 12 -8 45 6 48 19 1 6 5 19 9 29 5 14 4 17 -5 11 -10 -6 -11 -3 -2 13 6
11 11 23 11 25 0 10 -27 15 -39 8z"/>
<path d="M1885 789 c-4 -5 -3 -9 2 -9 4 -1 -3 -7 -17 -15 -15 -9 -19 -14 -10
-15 12 0 12 -2 2 -9 -11 -7 -10 -9 3 -15 19 -7 45 5 66 30 8 10 9 15 4 12 -6
-4 -17 -3 -25 3 -13 7 -12 9 3 9 9 0 17 4 17 8 0 11 -39 12 -45 1z"/>
<path d="M1982 788 c-10 -13 -10 -17 4 -22 13 -5 14 -9 4 -21 -10 -12 -9 -15
8 -15 12 0 23 9 27 20 3 11 11 20 16 20 5 0 9 4 9 10 0 5 -7 7 -15 4 -8 -4
-15 -13 -15 -22 0 -21 -17 -3 -22 22 -3 17 -4 17 -16 4z"/>
<path d="M1790 745 c-11 -13 -10 -14 4 -9 9 3 16 10 16 15 0 13 -6 11 -20 -6z"/>
<path d="M851 718 c-5 -14 -5 -31 1 -41 13 -24 19 -17 23 27 4 40 -11 48 -24
14z"/>
<path d="M1904 715 c-16 -14 -23 -25 -16 -25 6 0 12 -4 12 -9 0 -13 -58 -19
-72 -7 -7 7 -7 4 1 -6 7 -10 10 -18 6 -18 -4 0 -2 -7 5 -15 11 -13 17 -11 49
14 20 15 46 32 59 36 13 4 22 9 19 11 -2 3 -16 0 -31 -5 -30 -12 -33 -5 -10
27 20 29 14 28 -22 -3z"/>
<path d="M1680 716 c0 -2 8 -10 18 -17 15 -13 16 -12 3 4 -13 16 -21 21 -21
13z"/>
<path d="M1815 709 c-4 -6 -5 -12 -2 -15 2 -3 7 2 10 11 7 17 1 20 -8 4z"/>
<path d="M1973 709 c9 -6 14 -15 11 -21 -4 -7 -2 -8 5 -4 14 9 -3 36 -23 36
-6 0 -3 -5 7 -11z"/>
<path d="M2208 698 c-10 -10 -18 -23 -18 -29 0 -7 -7 -17 -15 -23 -12 -9 -2
-11 42 -12 32 0 50 1 41 3 -10 3 -18 8 -18 13 0 4 9 6 20 3 11 -3 20 0 20 6 0
6 -11 13 -25 17 -14 3 -23 9 -21 13 12 18 -11 26 -26 9z"/>
<path d="M1655 690 c-3 -5 -1 -10 4 -10 6 0 11 5 11 10 0 6 -2 10 -4 10 -3 0
-8 -4 -11 -10z"/>
<path d="M812 662 c-2 -26 17 -87 25 -79 2 3 -2 16 -8 30 -9 20 -9 30 0 40 9
11 8 17 -2 25 -10 8 -13 5 -15 -16z"/>
<path d="M1734 654 c3 -9 6 -19 6 -24 0 -11 28 -6 41 7 8 8 6 11 -7 10 -11 -1
-18 4 -16 11 1 6 -5 12 -14 12 -11 0 -14 -5 -10 -16z"/>
<path d="M2355 650 c-3 -5 -1 -10 4 -10 6 0 11 5 11 10 0 6 -2 10 -4 10 -3 0
-8 -4 -11 -10z"/>
<path d="M193 643 c9 -2 23 -2 30 0 6 3 -1 5 -18 5 -16 0 -22 -2 -12 -5z"/>
<path d="M125 630 l-40 -7 43 -2 c23 0 42 4 42 9 0 6 -1 9 -2 9 -2 -1 -21 -5
-43 -9z"/>
<path d="M694 623 c5 -11 -1 -23 -16 -36 -23 -18 -23 -18 9 -3 24 12 30 20 26
36 -3 11 -10 20 -15 20 -6 0 -7 -8 -4 -17z"/>
<path d="M1568 633 c6 -2 10 -9 7 -13 -3 -5 0 -12 6 -16 8 -5 9 -3 4 6 -6 10
-4 12 8 7 10 -3 17 -2 17 2 0 10 -25 21 -43 20 -8 0 -8 -2 1 -6z"/>
<path d="M2435 629 c-4 -6 -5 -12 -2 -15 2 -3 7 2 10 11 7 17 1 20 -8 4z"/>
<path d="M938 621 c-37 -3 -72 -11 -77 -16 -7 -7 9 -8 47 -5 38 4 66 1 86 -8
24 -12 30 -12 37 0 13 20 11 31 -7 24 -8 -3 -12 -2 -9 4 3 6 3 9 -2 8 -4 0
-38 -4 -75 -7z"/>
<path d="M2140 610 c-9 -6 -10 -10 -3 -10 6 0 15 5 18 10 8 12 4 12 -15 0z"/>
<path d="M2488 613 c6 -2 18 -2 25 0 6 3 1 5 -13 5 -14 0 -19 -2 -12 -5z"/>
<path d="M606 595 c-3 -8 -1 -15 4 -15 6 0 10 7 10 15 0 8 -2 15 -4 15 -2 0
-6 -7 -10 -15z"/>
<path d="M1096 592 c-2 -4 -1 -14 4 -22 7 -12 12 -12 22 -2 9 9 9 12 -2 12
-13 0 -13 2 0 10 13 8 13 10 -2 10 -9 0 -19 -4 -22 -8z"/>
<path d="M2430 591 c0 -5 14 -11 30 -13 17 -3 27 -1 22 4 -12 12 -52 19 -52 9z"/>
<path d="M105 580 c-19 -8 -19 -9 3 -9 12 -1 22 4 22 9 0 6 -1 10 -2 9 -2 0
-12 -4 -23 -9z"/>
<path d="M2160 590 c-8 -22 -9 -60 0 -65 6 -4 7 1 3 12 -5 14 -3 16 7 6 13
-12 40 -7 40 8 0 5 -3 8 -7 8 -21 -3 -32 3 -36 19 -3 9 -6 15 -7 12z"/>
<path d="M2320 580 c19 -13 30 -13 30 0 0 6 -10 10 -22 10 -19 0 -20 -2 -8
-10z"/>
<path d="M391 557 c-8 -11 -5 -19 15 -38 l27 -24 -13 25 c-16 29 -16 30 2 41
10 7 9 9 -3 9 -9 0 -22 -6 -28 -13z"/>
<path d="M607 558 c-7 -20 -7 -28 0 -30 3 -2 8 7 9 20 4 24 -1 30 -9 10z"/>
<path d="M2508 563 c6 -2 10 -9 7 -14 -4 -5 1 -6 9 -3 20 8 11 24 -12 23 -11
0 -12 -2 -4 -6z"/>
<path d="M346 541 c-4 -7 -5 -15 -2 -18 9 -9 19 4 14 18 -4 11 -6 11 -12 0z"/>
<path d="M2315 540 c4 -6 11 -8 16 -5 14 9 11 15 -7 15 -8 0 -12 -5 -9 -10z"/>
<path d="M2385 540 c-3 -5 -1 -10 4 -10 6 0 11 5 11 10 0 6 -2 10 -4 10 -3 0
-8 -4 -11 -10z"/>
<path d="M2850 540 c0 -5 7 -7 15 -4 8 4 15 8 15 10 0 2 -7 4 -15 4 -8 0 -15
-4 -15 -10z"/>
<path d="M818 510 c5 -34 -18 -45 -65 -29 -18 6 -39 9 -46 6 -11 -4 45 -23 97
-33 21 -4 40 13 50 42 5 15 0 23 -17 31 -22 10 -23 9 -19 -17z"/>
<path d="M881 526 c-12 -14 -9 -16 25 -16 41 0 88 19 49 20 -11 0 -29 3 -41 6
-12 3 -26 -1 -33 -10z"/>
<path d="M2584 523 c3 -7 -1 -13 -9 -13 -8 0 -15 -7 -15 -15 0 -14 3 -13 25 2
32 24 39 42 14 40 -11 -1 -17 -7 -15 -14z"/>
<path d="M371 503 c0 -13 2 -14 6 -4 4 10 9 8 19 -10 9 -15 13 -18 14 -8 0 16
-19 39 -32 39 -4 0 -8 -8 -7 -17z"/>
<path d="M1008 513 c6 -2 18 -2 25 0 6 3 1 5 -13 5 -14 0 -19 -2 -12 -5z"/>
<path d="M1420 511 c0 -11 48 -24 60 -16 21 13 8 25 -25 25 -19 0 -35 -4 -35
-9z"/>
<path d="M1500 510 c0 -5 5 -10 11 -10 5 0 7 5 4 10 -3 6 -8 10 -11 10 -2 0
-4 -4 -4 -10z"/>
<path d="M2380 510 c-13 -8 -12 -10 3 -10 9 0 17 5 17 10 0 12 -1 12 -20 0z"/>
<path d="M2653 505 c0 -8 4 -12 9 -9 5 3 6 10 3 15 -9 13 -12 11 -12 -6z"/>
<path d="M339 508 c0 -2 -2 -11 -4 -20 -5 -25 11 -23 18 2 3 11 1 20 -4 20 -5
0 -9 -1 -10 -2z"/>
<path d="M2257 503 c-3 -5 8 -8 24 -8 16 0 29 3 29 8 0 4 -11 7 -24 7 -14 0
-27 -3 -29 -7z"/>
<path d="M154 484 c-18 -14 -18 -15 4 -4 12 6 22 13 22 15 0 8 -5 6 -26 -11z"/>
<path d="M2520 480 c-15 -12 -33 -17 -45 -13 -18 5 -18 4 -3 -11 22 -21 27
-21 55 10 30 32 26 39 -7 14z"/>
<path d="M2688 493 c-10 -2 -18 -9 -18 -14 0 -6 5 -7 11 -4 17 11 57 -4 62
-23 4 -15 5 -15 6 0 0 9 -6 24 -15 32 -16 17 -17 17 -46 9z"/>
<path d="M1681 473 c7 -12 15 -20 18 -17 3 2 -3 12 -13 22 -17 16 -18 16 -5
-5z"/>
<path d="M1963 474 c-5 -13 -7 -13 -14 -2 -7 10 -9 9 -9 -4 0 -24 13 -23 35 2
11 12 13 20 6 20 -6 0 -14 -7 -18 -16z"/>
<path d="M104 464 c-18 -14 -18 -15 4 -4 12 6 22 13 22 15 0 8 -5 6 -26 -11z"/>
<path d="M370 470 c0 -5 9 -14 20 -20 19 -10 20 -10 8 9 -13 22 -28 28 -28 11z"/>
<path d="M1830 470 c0 -6 7 -10 15 -10 8 0 15 2 15 4 0 2 -7 6 -15 10 -8 3
-15 1 -15 -4z"/>
<path d="M2832 459 c-12 -19 -11 -19 8 -9 11 6 18 15 15 21 -8 12 -8 12 -23
-12z"/>
<path d="M422 445 c0 -16 2 -22 5 -12 2 9 2 23 0 30 -3 6 -5 -1 -5 -18z"/>
<path d="M2150 460 c-22 -7 -21 -8 12 -9 20 -1 40 4 43 9 7 12 -19 12 -55 0z"/>
<path d="M2220 461 c0 -12 79 -21 129 -14 39 5 44 4 38 -11 -4 -10 -7 -19 -7
-21 0 -2 -17 -7 -37 -11 -30 -6 -34 -8 -18 -14 21 -7 54 6 68 28 4 6 25 13 45
13 23 1 29 3 15 6 -13 2 -23 9 -23 14 0 5 -3 8 -7 8 -5 -1 -10 0 -13 1 -15 7
-190 7 -190 1z"/>
<path d="M60 450 c-9 -6 -10 -10 -3 -10 6 0 15 5 18 10 8 12 4 12 -15 0z"/>
<path d="M670 451 c0 -10 31 -31 45 -31 11 0 -5 20 -26 30 -12 7 -19 7 -19 1z"/>
<path d="M2078 453 c7 -3 16 -2 19 1 4 3 -2 6 -13 5 -11 0 -14 -3 -6 -6z"/>
<path d="M2615 450 c-3 -5 -1 -10 4 -10 6 0 11 5 11 10 0 6 -2 10 -4 10 -3 0
-8 -4 -11 -10z"/>
<path d="M353 439 c-6 -6 -9 -18 -6 -25 8 -23 22 -16 16 9 -4 21 -4 22 11 3 9
-11 16 -15 16 -9 0 19 -25 34 -37 22z"/>
<path d="M2570 440 c-13 -8 -13 -10 2 -10 9 0 20 5 23 10 8 13 -5 13 -25 0z"/>
<path d="M2880 440 c0 -5 -6 -10 -14 -10 -8 0 -17 -4 -20 -9 -3 -5 5 -8 19 -7
17 1 25 7 25 19 0 9 -2 17 -5 17 -3 0 -5 -4 -5 -10z"/>
<path d="M10 430 c-8 -5 -11 -10 -5 -10 6 0 17 5 25 10 8 5 11 10 5 10 -5 0
-17 -5 -25 -10z"/>
<path d="M2655 420 c-3 -5 1 -10 9 -10 8 0 18 5 21 10 3 6 -1 10 -9 10 -8 0
-18 -4 -21 -10z"/>
<path d="M727 409 c-17 -10 -15 -29 4 -29 6 0 7 5 3 11 -5 8 1 10 19 5 28 -7
46 8 21 18 -21 8 -26 7 -47 -5z"/>
<path d="M1260 411 c0 -12 26 -21 63 -21 30 1 31 1 13 15 -22 16 -76 20 -76 6z"/>
<path d="M2558 413 c7 -3 16 -2 19 1 4 3 -2 6 -13 5 -11 0 -14 -3 -6 -6z"/>
<path d="M650 394 c0 -8 5 -12 10 -9 6 3 10 10 10 16 0 5 -4 9 -10 9 -5 0 -10
-7 -10 -16z"/>
<path d="M900 402 c0 -5 9 -12 21 -15 13 -3 19 -1 16 6 -5 15 -37 22 -37 9z"/>
<path d="M2100 395 c-7 -8 -23 -15 -36 -15 -12 0 -26 -4 -29 -10 -10 -16 48
-6 77 14 16 10 35 16 43 12 8 -3 15 -1 15 4 0 16 -56 12 -70 -5z"/>
<path d="M2200 402 c0 -4 17 -6 38 -4 58 5 62 10 10 11 -27 1 -48 -3 -48 -7z"/>
<path d="M2746 385 c-3 -8 -1 -15 3 -15 5 0 11 7 15 15 3 8 1 15 -3 15 -5 0
-11 -7 -15 -15z"/>
<path d="M855 368 c5 -25 2 -28 -22 -30 -36 -2 -46 -1 -58 3 -5 2 -10 0 -10
-6 0 -6 41 -10 102 -10 58 0 98 4 93 9 -5 5 -6 15 -3 22 4 11 -2 10 -26 -3
l-31 -18 -26 30 -25 30 6 -27z"/>
<path d="M2397 383 c-3 -5 8 -8 24 -9 15 -1 26 3 23 7 -6 11 -41 12 -47 2z"/>
<path d="M750 376 c0 -8 60 -12 72 -4 8 4 -4 8 -29 8 -24 0 -43 -2 -43 -4z"/>
<path d="M1395 372 c-11 -12 9 -22 45 -22 23 0 40 5 43 14 4 11 -4 14 -39 14
-24 -1 -46 -3 -49 -6z"/>
<path d="M1550 365 c7 -8 16 -12 21 -9 13 8 1 24 -18 24 -13 0 -13 -3 -3 -15z"/>
<path d="M2638 373 c7 -3 16 -2 19 1 4 3 -2 6 -13 5 -11 0 -14 -3 -6 -6z"/>
<path d="M2677 366 c-4 -9 -15 -16 -26 -16 -32 0 -71 -22 -71 -39 1 -14 3 -14
14 2 9 11 34 20 72 25 42 5 59 11 59 22 0 20 -41 25 -48 6z"/>
<path d="M1799 361 c7 -5 10 -14 7 -20 -4 -6 -1 -11 8 -11 24 0 28 18 7 29
-24 13 -42 14 -22 2z"/>
<path d="M2413 363 c4 -6 1 -14 -5 -16 -7 -3 -2 -6 12 -6 14 0 32 4 40 9 13 8
13 10 -2 10 -9 0 -24 3 -34 7 -11 4 -15 3 -11 -4z"/>
<path d="M2150 351 c0 -18 21 -22 75 -16 75 10 69 25 -10 25 -36 0 -65 -4 -65
-9z"/>
<path d="M2755 340 c4 -6 2 -17 -5 -25 -16 -20 2 -25 22 -6 16 16 16 18 -4 30
-12 7 -17 8 -13 1z"/>
<path d="M1095 330 c-3 -6 5 -10 19 -10 14 0 28 5 31 10 3 6 -5 10 -19 10 -14
0 -28 -4 -31 -10z"/>
<path d="M1185 330 c6 -10 151 -8 161 3 3 3 -33 6 -80 6 -51 0 -84 -4 -81 -9z"/>
<path d="M1492 331 c-8 -5 0 -8 23 -9 21 -1 33 3 30 8 -7 12 -35 13 -53 1z"/>
<path d="M1560 330 c0 -13 11 -13 30 0 12 8 11 10 -7 10 -13 0 -23 -4 -23 -10z"/>
<path d="M2320 325 c0 -8 2 -15 4 -15 2 0 6 7 10 15 3 8 1 15 -4 15 -6 0 -10
-7 -10 -15z"/>
<path d="M2435 315 l-40 -12 59 1 c32 0 52 2 45 5 -8 2 -16 7 -19 11 -3 4 -23
2 -45 -5z"/>
<path d="M2528 323 c7 -3 16 -2 19 1 4 3 -2 6 -13 5 -11 0 -14 -3 -6 -6z"/>
<path d="M2985 310 c3 -5 8 -10 11 -10 2 0 4 5 4 10 0 6 -5 10 -11 10 -5 0 -7
-4 -4 -10z"/>
<path d="M312 302 c-7 -5 -2 -12 17 -18 21 -8 32 -8 45 1 15 12 15 13 -1 19
-10 4 -19 2 -21 -4 -3 -7 -8 -8 -16 -1 -6 5 -17 7 -24 3z"/>
<path d="M905 300 c-4 -6 5 -10 20 -10 15 0 24 4 20 10 -3 6 -12 10 -20 10 -8
0 -17 -4 -20 -10z"/>
<path d="M1405 299 c-12 -4 19 -8 78 -8 53 -1 97 2 97 7 0 10 -150 11 -175 1z"/>
<path d="M1775 300 c4 -6 11 -8 16 -5 14 9 11 15 -7 15 -8 0 -12 -5 -9 -10z"/>
<path d="M2030 299 c0 -5 13 -9 29 -9 17 0 32 4 35 9 3 5 -10 9 -29 9 -19 0
-35 -4 -35 -9z"/>
<path d="M2165 300 c-3 -5 -1 -10 4 -10 6 0 11 5 11 10 0 6 -2 10 -4 10 -3 0
-8 -4 -11 -10z"/>
<path d="M1153 293 c9 -2 25 -2 35 0 9 3 1 5 -18 5 -19 0 -27 -2 -17 -5z"/>
<path d="M1308 293 c6 -2 18 -2 25 0 6 3 1 5 -13 5 -14 0 -19 -2 -12 -5z"/>
<path d="M1871 283 c3 -20 -3 -77 -7 -67 -3 7 -15 10 -27 7 -22 -5 -22 -5 -2
12 20 17 20 17 0 10 -11 -4 -26 -8 -32 -8 -7 0 -13 -4 -13 -8 0 -5 -6 -6 -13
-3 -8 3 -14 -1 -14 -8 0 -10 27 -14 99 -16 94 -3 98 -3 98 17 0 21 -16 29 -22
11 -2 -6 -14 -12 -27 -15 -13 -2 -21 -2 -17 2 3 3 1 12 -4 19 -8 8 -6 16 4 27
8 8 12 17 9 21 -9 9 -33 8 -32 -1z"/>
<path d="M2548 283 c7 -3 16 -2 19 1 4 3 -2 6 -13 5 -11 0 -14 -3 -6 -6z"/>
<path d="M2584 282 c6 -5 37 -10 81 -13 23 -1 31 -4 18 -6 -12 -2 -27 -11 -33
-19 -7 -8 -20 -14 -29 -14 -9 -1 2 -7 24 -15 47 -16 163 -26 170 -15 3 4 -1 7
-8 7 -6 -1 -44 2 -84 6 -57 6 -71 11 -66 23 7 18 33 18 101 0 28 -8 52 -11 52
-6 0 6 -47 20 -82 24 -19 3 -18 16 2 16 13 0 20 3 17 7 -4 3 -43 7 -87 8 -43
0 -78 -1 -76 -3z"/>
<path d="M2300 270 c0 -5 5 -10 11 -10 5 0 7 5 4 10 -3 6 -8 10 -11 10 -2 0
-4 -4 -4 -10z"/>
<path d="M197 255 c-5 -11 0 -15 16 -15 12 0 18 4 12 8 -5 4 -13 11 -16 15 -4
4 -9 1 -12 -8z"/>
<path d="M243 258 c0 -9 13 -12 36 -11 70 3 76 5 36 14 -57 11 -72 11 -72 -3z"/>
<path d="M781 254 c0 -11 3 -14 6 -6 3 7 2 16 -1 19 -3 4 -6 -2 -5 -13z"/>
<path d="M1125 259 c-22 -5 -10 -7 45 -9 41 -1 91 -3 110 -4 19 -1 51 2 70 5
20 4 -10 7 -72 7 -60 0 -111 2 -115 5 -5 2 -21 0 -38 -4z"/>
<path d="M1920 255 c-17 -21 -5 -31 15 -12 8 9 15 18 15 21 0 11 -18 6 -30 -9z"/>
<path d="M2090 260 l-125 -6 138 -2 c90 -1 136 1 132 8 -3 6 -9 9 -13 8 -4 -1
-63 -5 -132 -8z"/>
<path d="M2334 263 c9 -9 86 -12 86 -3 0 3 -21 7 -47 9 -26 1 -44 -1 -39 -6z"/>
<path d="M158 253 c7 -3 16 -2 19 1 4 3 -2 6 -13 5 -11 0 -14 -3 -6 -6z"/>
<path d="M373 253 c9 -2 23 -2 30 0 6 3 -1 5 -18 5 -16 0 -22 -2 -12 -5z"/>
<path d="M830 250 c-13 -8 -12 -10 3 -10 9 0 17 5 17 10 0 12 -1 12 -20 0z"/>
<path d="M987 253 c-3 -5 6 -9 20 -10 19 -1 22 1 12 8 -17 11 -26 11 -32 2z"/>
<path d="M1050 250 c0 -5 7 -6 17 -3 12 5 14 3 8 -7 -5 -9 -4 -11 4 -6 6 4 9
12 6 17 -8 12 -35 12 -35 -1z"/>
<path d="M2820 240 c0 -5 7 -10 16 -10 8 0 12 5 9 10 -3 6 -10 10 -16 10 -5 0
-9 -4 -9 -10z"/>
<path d="M2456 232 c-2 -4 4 -8 15 -8 10 0 19 4 19 8 0 10 -27 10 -34 0z"/>
<path d="M840 215 c-11 -13 -7 -15 29 -15 26 0 40 4 36 10 -3 6 -18 7 -32 4
-18 -5 -24 -3 -19 5 10 16 1 14 -14 -4z"/>
<path d="M924 214 c9 -8 24 -13 34 -11 16 4 16 5 -1 6 -10 0 -15 6 -12 11 3 6
-3 10 -15 10 -20 0 -20 -1 -6 -16z"/>
<path d="M1008 223 c12 -2 30 -2 40 0 9 3 -1 5 -23 4 -22 0 -30 -2 -17 -4z"/>
<path d="M1248 223 c6 -2 18 -2 25 0 6 3 1 5 -13 5 -14 0 -19 -2 -12 -5z"/>
<path d="M1455 216 c-60 -6 -143 -9 -185 -5 -41 3 -100 3 -130 -1 -45 -5 -33
-7 65 -9 203 -5 333 1 361 17 10 6 15 11 9 10 -5 0 -59 -6 -120 -12z"/>
<path d="M1660 221 c0 -17 19 -22 37 -11 17 11 17 11 1 6 -10 -3 -18 -1 -18 4
0 6 -4 10 -10 10 -5 0 -10 -4 -10 -9z"/>
<path d="M2040 218 c0 -5 9 -8 19 -8 11 0 22 3 24 8 3 4 -6 7 -19 7 -13 0 -24
-3 -24 -7z"/>
<path d="M2558 223 c7 -3 16 -2 19 1 4 3 -2 6 -13 5 -11 0 -14 -3 -6 -6z"/>
<path d="M240 210 c0 -6 7 -10 15 -10 8 0 15 2 15 4 0 2 -7 6 -15 10 -8 3 -15
1 -15 -4z"/>
<path d="M1628 213 c7 -3 16 -2 19 1 4 3 -2 6 -13 5 -11 0 -14 -3 -6 -6z"/>
<path d="M2108 213 c7 -3 16 -2 19 1 4 3 -2 6 -13 5 -11 0 -14 -3 -6 -6z"/>
<path d="M2182 203 c6 -8 19 -11 31 -7 13 4 17 2 13 -5 -4 -6 -3 -11 3 -11 5
0 13 5 16 10 3 6 18 10 33 10 15 0 32 4 39 8 7 4 -24 8 -67 8 -66 0 -78 -2
-68 -13z"/>
<path d="M2492 199 c-9 -14 -22 -19 -45 -18 -17 1 -47 -1 -64 -5 -19 -4 -33
-4 -33 1 0 5 -13 8 -30 5 -16 -2 -30 -7 -30 -11 0 -3 -29 -6 -64 -6 -35 0 -62
3 -59 8 6 10 -49 9 -66 -2 -25 -16 73 -24 203 -17 103 6 221 21 192 25 -5 0
-3 8 4 16 7 9 11 17 9 20 -3 2 -10 -5 -17 -16z"/>
<path d="M588 203 c6 -2 18 -2 25 0 6 3 1 5 -13 5 -14 0 -19 -2 -12 -5z"/>
<path d="M708 203 c7 -3 16 -2 19 1 4 3 -2 6 -13 5 -11 0 -14 -3 -6 -6z"/>
<path d="M798 203 c7 -3 16 -2 19 1 4 3 -2 6 -13 5 -11 0 -14 -3 -6 -6z"/>
<path d="M1048 203 c7 -3 16 -2 19 1 4 3 -2 6 -13 5 -11 0 -14 -3 -6 -6z"/>
<path d="M1720 201 c0 -9 24 -21 43 -21 6 0 2 7 -9 15 -22 17 -34 19 -34 6z"/>
<path d="M2003 193 c9 -2 25 -2 35 0 9 3 1 5 -18 5 -19 0 -27 -2 -17 -5z"/>
<path d="M2860 196 c0 -2 7 -7 16 -10 8 -3 12 -2 9 4 -6 10 -25 14 -25 6z"/>
<path d="M2907 189 c7 -7 15 -10 18 -7 3 3 -2 9 -12 12 -14 6 -15 5 -6 -5z"/>
<path d="M2979 183 c-13 -16 -12 -17 4 -4 16 13 21 21 13 21 -2 0 -10 -8 -17
-17z"/>
<path d="M490 180 c34 -11 60 -11 35 0 -11 5 -29 8 -40 8 -16 0 -15 -2 5 -8z"/>
<path d="M954 182 c5 -8 66 -4 66 4 0 2 -16 4 -36 4 -19 0 -33 -4 -30 -8z"/>
<path d="M1080 186 c0 -2 7 -7 16 -10 8 -3 12 -2 9 4 -6 10 -25 14 -25 6z"/>
<path d="M1180 181 c0 -5 -8 -12 -17 -14 -14 -4 -12 -5 5 -6 13 -1 22 5 22 14
0 8 -2 15 -5 15 -3 0 -5 -4 -5 -9z"/>
<path d="M1276 181 c-4 -5 3 -7 14 -4 23 6 26 13 6 13 -8 0 -17 -4 -20 -9z"/>
<path d="M1378 183 c7 -3 16 -2 19 1 4 3 -2 6 -13 5 -11 0 -14 -3 -6 -6z"/>
<path d="M1514 179 c-4 -7 -3 -9 4 -5 6 3 13 2 17 -4 3 -5 18 -9 33 -9 l27 2
-25 4 c-14 3 -30 9 -37 14 -7 7 -14 6 -19 -2z"/>
<path d="M1954 180 c-5 -5 -54 -11 -109 -12 -78 -3 -93 -5 -67 -12 44 -12 41
-29 -4 -20 -23 4 -35 3 -31 -3 3 -5 45 -10 93 -11 48 -1 92 -6 99 -12 6 -5 55
-9 108 -9 53 0 103 -3 110 -6 6 -4 4 0 -6 8 -18 15 -102 25 -236 27 -41 0 -79
4 -85 7 -15 10 24 22 75 22 28 1 51 7 59 16 14 17 10 21 -6 5z"/>
<path d="M2068 183 c7 -3 16 -2 19 1 4 3 -2 6 -13 5 -11 0 -14 -3 -6 -6z"/>
<path d="M2525 180 c-12 -5 17 -8 67 -7 48 1 85 3 83 6 -8 8 -129 9 -150 1z"/>
<path d="M2690 179 c0 -5 5 -7 10 -4 6 3 10 8 10 11 0 2 -4 4 -10 4 -5 0 -10
-5 -10 -11z"/>
<path d="M600 176 c0 -2 7 -7 16 -10 8 -3 12 -2 9 4 -6 10 -25 14 -25 6z"/>
<path d="M678 173 c7 -3 16 -2 19 1 4 3 -2 6 -13 5 -11 0 -14 -3 -6 -6z"/>
<path d="M803 165 c0 -8 4 -15 9 -15 4 0 8 4 8 9 0 6 -4 12 -8 15 -5 3 -9 -1
-9 -9z"/>
<path d="M1329 163 c-13 -16 -12 -17 4 -4 16 13 21 21 13 21 -2 0 -10 -8 -17
-17z"/>
<path d="M1604 169 c-3 -5 23 -9 57 -9 34 0 60 3 56 6 -10 10 -107 12 -113 3z"/>
<path d="M990 166 c0 -2 11 -6 25 -8 13 -3 22 -1 19 3 -5 9 -44 13 -44 5z"/>
<path d="M1111 161 c-11 -7 -5 -11 22 -16 20 -4 42 -5 49 -2 7 3 -2 6 -20 6
-19 1 -31 5 -27 11 8 12 -5 13 -24 1z"/>
<path d="M1467 159 c14 -12 53 -21 53 -11 0 5 -14 12 -30 14 -17 3 -27 1 -23
-3z"/>
<path d="M1978 163 c6 -2 18 -2 25 0 6 3 1 5 -13 5 -14 0 -19 -2 -12 -5z"/>
<path d="M2765 160 c28 -12 93 -12 100 0 4 6 -17 10 -57 9 -44 0 -57 -3 -43
-9z"/>
<path d="M518 153 c6 -2 18 -2 25 0 6 3 1 5 -13 5 -14 0 -19 -2 -12 -5z"/>
<path d="M858 153 c7 -3 16 -2 19 1 4 3 -2 6 -13 5 -11 0 -14 -3 -6 -6z"/>
<path d="M1210 148 c0 -4 7 -8 15 -8 8 0 15 4 15 8 0 5 -7 9 -15 9 -8 0 -15
-4 -15 -9z"/>
<path d="M82 134 c-11 -12 -9 -14 8 -14 11 0 20 4 20 9 0 17 -15 19 -28 5z"/>
<path d="M905 136 c-19 -13 -18 -14 7 -13 14 1 24 5 22 9 -2 3 2 9 8 11 9 4 8
6 -3 6 -8 1 -24 -5 -34 -13z"/>
<path d="M965 140 c3 -5 8 -10 11 -10 2 0 4 5 4 10 0 6 -5 10 -11 10 -5 0 -7
-4 -4 -10z"/>
<path d="M1576 142 c-9 -15 52 -21 109 -12 l50 8 -60 0 c-33 0 -67 3 -76 7
-10 3 -20 2 -23 -3z"/>
<path d="M2880 140 c8 -5 28 -10 44 -10 39 0 30 6 -19 13 -27 4 -35 3 -25 -3z"/>
<path d="M2970 140 c-8 -5 -12 -12 -9 -15 8 -8 39 5 39 16 0 11 -11 11 -30 -1z"/>
<path d="M380 130 c-9 -6 -10 -10 -3 -10 6 0 15 5 18 10 8 12 4 12 -15 0z"/>
<path d="M1350 128 c0 -4 14 -8 30 -8 17 0 30 2 30 4 0 2 -13 6 -30 8 -16 3
-30 1 -30 -4z"/>
<path d="M600 121 c0 -5 7 -12 16 -15 14 -5 15 -4 4 9 -14 17 -20 19 -20 6z"/>
<path d="M678 123 c7 -3 16 -2 19 1 4 3 -2 6 -13 5 -11 0 -14 -3 -6 -6z"/>
<path d="M1278 123 c7 -3 16 -2 19 1 4 3 -2 6 -13 5 -11 0 -14 -3 -6 -6z"/>
<path d="M1438 123 c12 -2 32 -2 45 0 12 2 2 4 -23 4 -25 0 -35 -2 -22 -4z"/>
<path d="M1529 117 c5 -5 19 -7 32 -5 20 3 19 5 -9 9 -20 3 -29 2 -23 -4z"/>
<path d="M1228 113 c7 -3 16 -2 19 1 4 3 -2 6 -13 5 -11 0 -14 -3 -6 -6z"/>
<path d="M2488 113 c12 -2 30 -2 40 0 9 3 -1 5 -23 4 -22 0 -30 -2 -17 -4z"/>
<path d="M828 103 c7 -3 16 -2 19 1 4 3 -2 6 -13 5 -11 0 -14 -3 -6 -6z"/>
<path d="M1005 99 c-28 -6 -26 -7 13 -8 42 -1 53 3 30 11 -7 2 -26 1 -43 -3z"/>
<path d="M1070 99 c0 -6 8 -9 18 -7 10 3 23 -1 29 -7 11 -12 97 -15 108 -3 8
8 -71 19 -88 12 -8 -3 -18 -1 -22 5 -8 14 -45 14 -45 0z"/>
<path d="M1305 100 c-3 -5 -1 -10 4 -10 6 0 11 5 11 10 0 6 -2 10 -4 10 -3 0
-8 -4 -11 -10z"/>
<path d="M1436 98 c7 -11 32 -10 39 2 3 6 -4 9 -19 8 -13 -1 -22 -6 -20 -10z"/>
<path d="M1660 100 c-13 -8 -13 -10 2 -10 9 0 20 5 23 10 8 13 -5 13 -25 0z"/>
<path d="M2358 103 c7 -3 16 -2 19 1 4 3 -2 6 -13 5 -11 0 -14 -3 -6 -6z"/>
<path d="M160 96 c0 -2 7 -7 16 -10 8 -3 12 -2 9 4 -6 10 -25 14 -25 6z"/>
<path d="M224 91 c5 -8 56 -3 56 5 0 2 -14 4 -31 4 -16 0 -28 -4 -25 -9z"/>
<path d="M300 90 c17 -11 57 -14 46 -3 -4 4 -19 9 -34 10 -21 3 -24 1 -12 -7z"/>
<path d="M439 83 c-13 -16 -12 -17 4 -4 16 13 21 21 13 21 -2 0 -10 -8 -17
-17z"/>
<path d="M495 90 c3 -5 12 -10 20 -10 8 0 17 5 20 10 4 6 -5 10 -20 10 -15 0
-24 -4 -20 -10z"/>
<path d="M1330 96 c0 -2 18 -6 40 -8 22 -2 40 0 40 4 0 5 -18 8 -40 8 -22 0
-40 -2 -40 -4z"/>
<path d="M1720 89 c0 -5 37 -9 82 -9 45 0 78 3 75 6 -10 10 -157 13 -157 3z"/>
<path d="M2281 91 c-14 -4 -27 -13 -29 -20 -3 -10 2 -11 19 -5 13 4 34 8 47 7
27 -1 28 3 5 15 -10 5 -29 6 -42 3z"/>
<path d="M1253 83 c9 -2 23 -2 30 0 6 3 -1 5 -18 5 -16 0 -22 -2 -12 -5z"/>
<path d="M2115 80 c-3 -5 -2 -10 4 -10 5 0 13 5 16 10 3 6 2 10 -4 10 -5 0
-13 -4 -16 -10z"/>
<path d="M2210 70 c0 -5 7 -10 16 -10 8 0 12 5 9 10 -3 6 -10 10 -16 10 -5 0
-9 -4 -9 -10z"/>
<path d="M1265 60 c-14 -6 -2 -8 37 -6 32 1 61 5 64 9 10 10 -77 7 -101 -3z"/>
<path d="M1425 60 c3 -5 11 -10 16 -10 6 0 7 5 4 10 -3 6 -11 10 -16 10 -6 0
-7 -4 -4 -10z"/>
<path d="M1628 63 c7 -3 16 -2 19 1 4 3 -2 6 -13 5 -11 0 -14 -3 -6 -6z"/>
<path d="M940 50 c0 -5 12 -10 28 -9 24 0 25 1 7 9 -27 12 -35 12 -35 0z"/>
<path d="M2360 43 c0 -9 3 -14 6 -11 3 4 19 2 35 -2 37 -11 37 -5 -1 15 -37
19 -40 19 -40 -2z"/>
<path d="M2730 39 c-34 -6 -33 -6 13 -8 46 -1 59 3 35 11 -7 2 -29 1 -48 -3z"/>
<path d="M1886 30 c7 -7 19 -7 35 -1 23 9 22 10 -10 10 -24 1 -32 -2 -25 -9z"/>
<path d="M1959 31 c12 -8 51 -4 51 5 0 2 -15 4 -32 4 -23 0 -29 -3 -19 -9z"/>
<path d="M2053 28 c14 -9 93 -11 84 -2 -3 3 -26 7 -51 8 -25 1 -40 -2 -33 -6z"/>
<path d="M2154 29 c-3 -5 14 -9 37 -9 23 0 40 2 37 5 -9 9 -68 12 -74 4z"/>
<path d="M1045 19 c-39 -4 -27 -6 53 -7 56 -1 102 1 102 6 0 9 -87 10 -155 1z"/>
<path d="M1279 19 c-8 -5 42 -8 121 -8 74 0 131 2 125 4 -24 8 -234 12 -246 4z"/>
<path d="M1560 19 c0 -5 23 -9 52 -9 28 0 49 2 47 4 -9 9 -99 13 -99 5z"/>
<path d="M1750 22 c0 -11 48 -13 55 -2 4 6 -7 10 -24 10 -17 0 -31 -4 -31 -8z"/>
<path d="M918 13 c7 -3 16 -2 19 1 4 3 -2 6 -13 5 -11 0 -14 -3 -6 -6z"/>
<path d="M1238 13 c7 -3 16 -2 19 1 4 3 -2 6 -13 5 -11 0 -14 -3 -6 -6z"/>
<path d="M2298 13 c12 -2 30 -2 40 0 9 3 -1 5 -23 4 -22 0 -30 -2 -17 -4z"/>
<path d="M618 3 c6 -2 18 -2 25 0 6 3 1 5 -13 5 -14 0 -19 -2 -12 -5z"/>
<path d="M693 3 c9 -2 23 -2 30 0 6 3 -1 5 -18 5 -16 0 -22 -2 -12 -5z"/>
<path d="M2668 3 c7 -3 16 -2 19 1 4 3 -2 6 -13 5 -11 0 -14 -3 -6 -6z"/>
</g>
</svg>
