<?xml version="1.0" standalone="no"?>
<!DOCTYPE svg PUBLIC "-//W3C//DTD SVG 20010904//EN"
 "http://www.w3.org/TR/2001/REC-SVG-20010904/DTD/svg10.dtd">
<svg version="1.0" xmlns="http://www.w3.org/2000/svg"
 width="275.000000pt" height="183.000000pt" viewBox="0 0 275.000000 183.000000"
 preserveAspectRatio="xMidYMid meet">
<metadata>
Created by potrace 1.10, written by Peter Selinger 2001-2011
</metadata>
<g transform="translate(0.000000,183.000000) scale(0.100000,-0.100000)"
fill="#000000" stroke="none">
<path d="M10 1818 c0 -7 5 -20 10 -28 8 -12 10 -9 10 13 0 15 -4 27 -10 27 -5
0 -10 -6 -10 -12z"/>
<path d="M802 1805 c0 -16 2 -22 5 -12 2 9 2 23 0 30 -3 6 -5 -1 -5 -18z"/>
<path d="M1155 1820 c3 -5 12 -7 20 -3 21 7 19 13 -6 13 -11 0 -18 -4 -14 -10z"/>
<path d="M1210 1819 c0 -9 9 -24 19 -33 11 -10 18 -26 16 -36 -3 -15 2 -17 36
-13 34 5 44 2 70 -23 35 -33 73 -103 84 -154 4 -19 14 -56 22 -82 13 -42 19
-48 50 -54 39 -7 39 -11 0 -18 -49 -9 -71 -18 -100 -42 -34 -29 -20 -32 15 -5
13 11 38 23 54 26 29 6 29 6 -3 -9 -21 -10 -31 -20 -27 -29 3 -8 -4 -31 -15
-51 -20 -34 -20 -36 -2 -27 10 6 22 7 26 3 5 -4 5 -2 1 5 -4 8 1 11 14 10 14
-1 19 -6 15 -16 -4 -10 1 -9 17 5 23 19 23 19 8 -1 -8 -11 -20 -23 -27 -28 -7
-4 -10 -15 -7 -25 5 -13 4 -14 -4 -3 -6 8 -8 20 -5 28 7 19 -12 16 -28 -4 -12
-14 -12 -16 0 -9 9 6 12 5 9 -5 -3 -8 -13 -13 -22 -11 -9 2 -25 -3 -37 -11
-17 -13 -18 -15 -4 -21 9 -3 14 -10 10 -15 -3 -5 5 -17 17 -25 12 -9 18 -16
12 -16 -6 0 -19 7 -30 15 -40 30 -117 2 -94 -35 5 -8 6 -18 4 -22 -3 -5 0 -7
8 -6 7 2 12 -2 11 -8 -1 -6 5 -11 12 -11 12 0 12 3 2 16 -6 9 -16 19 -22 24
-12 9 22 37 46 37 24 0 59 -31 63 -56 4 -17 0 -20 -20 -16 -19 3 -22 7 -13 18
14 17 5 31 -26 36 -18 4 -25 1 -25 -10 0 -9 7 -13 20 -9 21 5 28 -7 10 -18 -5
-3 -10 -11 -10 -16 0 -6 4 -8 8 -5 4 2 14 1 22 -4 11 -7 11 -11 1 -24 -8 -9
-18 -16 -24 -16 -6 0 -3 6 7 13 15 11 11 13 -28 13 -28 1 -43 -3 -39 -9 3 -6
1 -7 -6 -3 -9 6 -9 11 0 22 6 8 8 14 3 14 -5 0 -15 12 -22 27 -11 25 -10 29
18 53 16 14 30 30 30 34 0 5 -8 2 -18 -7 -10 -10 -22 -14 -27 -10 -4 5 -5 3
-1 -4 8 -14 -14 -30 -23 -16 -3 6 -19 13 -35 17 -24 6 -27 5 -19 -6 16 -19 27
-98 14 -98 -5 0 -13 17 -16 38 -4 20 -8 44 -10 52 -5 20 21 54 34 45 6 -3 9
-11 6 -16 -7 -10 6 -12 29 -3 9 3 16 11 16 16 0 6 -7 8 -15 4 -9 -3 -24 3 -35
14 -18 18 -18 19 -1 25 11 3 21 19 25 36 5 26 9 29 28 24 22 -6 22 -5 5 9 -12
9 -15 16 -7 21 13 8 12 8 29 -20 11 -19 12 -18 5 4 -4 18 -3 22 7 16 9 -6 11
-4 6 7 -3 9 0 21 6 27 6 6 8 14 4 17 -9 9 -74 -41 -88 -67 -6 -11 -18 -29 -27
-39 -9 -10 -22 -25 -29 -33 -7 -9 -10 -47 -9 -103 2 -54 -3 -104 -11 -128 -17
-51 -17 -98 2 -122 14 -18 14 -17 5 10 -17 48 -7 58 37 36 21 -10 40 -14 41
-9 2 5 25 9 50 9 l47 -1 -35 -19 c-38 -21 -36 -26 4 -10 17 6 35 28 51 62 41
87 130 166 130 117 0 -8 10 -14 22 -13 18 0 20 -3 12 -18 -6 -10 -15 -15 -21
-12 -6 4 -8 3 -4 -4 3 -6 2 -13 -4 -17 -5 -3 -10 1 -10 9 0 9 -5 16 -11 16 -6
0 -8 -8 -4 -19 3 -11 1 -22 -5 -26 -5 -3 -10 -12 -10 -18 0 -7 4 -6 11 3 8 12
10 11 7 -5 -2 -12 -11 -20 -22 -20 -11 0 -21 -6 -24 -13 -5 -15 -1 -15 32 -2
19 7 26 6 27 -3 0 -6 4 -2 9 11 10 23 25 29 35 12 14 -22 43 -3 54 36 7 26 6
30 -11 31 -16 2 -19 -3 -14 -23 6 -23 4 -25 -28 -22 -34 2 -41 18 -8 18 12 0
13 3 5 8 -8 5 -9 13 -3 22 6 8 10 11 10 7 0 -5 7 -1 16 7 12 12 20 13 35 6 13
-8 25 -7 39 0 14 8 20 8 20 0 0 -6 4 -9 9 -6 5 3 14 -1 21 -9 7 -9 8 -15 2
-15 -5 0 -8 -9 -5 -20 4 -14 0 -20 -11 -20 -18 0 -20 13 -6 40 8 15 7 18 -4
14 -16 -6 -26 -47 -15 -65 11 -18 39 -20 39 -3 0 9 11 14 30 14 35 0 38 10 9
28 -12 7 -18 16 -15 19 3 3 12 0 21 -7 25 -21 23 -7 -4 20 -13 14 -21 19 -17
13 10 -18 -9 -16 -24 2 -8 10 -31 15 -70 15 -38 0 -60 4 -63 13 -4 10 -7 10
-18 0 -18 -18 -34 -16 -19 2 7 8 18 15 26 15 7 0 15 4 18 9 4 5 -9 5 -30 1
-26 -6 -33 -5 -26 2 13 13 -2 48 -21 48 -7 0 -6 -4 3 -10 13 -8 12 -10 -3 -10
-11 0 -17 -6 -15 -17 2 -13 -3 -17 -16 -15 -11 2 -15 -1 -11 -7 3 -6 2 -11 -4
-11 -16 0 -18 24 -2 40 13 13 12 15 -7 18 -12 2 -22 8 -22 13 0 11 3 11 35 -1
17 -7 24 -7 20 0 -3 6 0 10 7 10 10 0 9 3 -2 10 -8 5 -12 12 -8 15 3 4 17 -1
30 -9 22 -14 25 -14 25 -1 0 8 -7 15 -16 15 -13 1 -12 4 4 17 16 13 17 15 3
10 -22 -8 -24 11 -3 19 18 7 28 36 19 57 -3 9 -18 24 -32 33 -26 17 -27 17
-12 -2 8 -10 20 -23 25 -27 6 -5 3 -7 -7 -3 -10 3 -18 1 -18 -5 0 -6 -5 -7
-11 -3 -8 4 -8 9 -1 13 7 4 8 12 2 21 -15 23 -12 33 8 28 9 -2 25 4 35 14 9
10 14 18 10 19 -26 2 40 18 78 18 51 1 142 -26 133 -40 -3 -5 2 -9 10 -9 8 0
21 -10 27 -22 7 -13 18 -29 26 -37 8 -7 12 -20 9 -27 -5 -13 6 -19 28 -15 5 1
4 -4 -3 -13 -10 -12 -8 -16 8 -21 12 -3 21 -11 21 -16 0 -5 5 -9 10 -9 16 0
12 30 -5 36 -8 4 -15 12 -15 19 0 7 -6 16 -12 18 -10 4 -10 6 -1 6 7 1 -4 17
-23 37 -20 19 -34 38 -31 40 9 9 47 -16 47 -30 0 -9 7 -12 20 -9 27 7 25 20
-2 29 -13 3 -31 14 -41 22 -16 14 -19 14 -27 2 -9 -15 -11 -13 -14 13 -1 6 -7
11 -14 9 -7 -1 -12 3 -12 9 0 5 -4 7 -10 4 -5 -3 -18 -1 -27 4 -16 9 -16 10
-2 11 9 0 19 10 22 23 3 12 10 36 16 52 6 17 18 55 26 85 17 57 54 110 78 110
7 0 27 12 44 28 24 22 30 34 29 69 -1 31 -5 43 -16 43 -11 0 -15 -12 -15 -47
0 -42 -3 -49 -27 -61 -15 -7 -55 -15 -90 -18 -35 -3 -69 -7 -75 -9 -7 -2 -13
3 -13 13 0 14 -2 15 -10 2 -14 -22 26 -40 78 -34 23 2 42 0 42 -4 0 -12 -20
-38 -21 -27 -1 16 -29 -78 -29 -100 0 -11 -11 -41 -24 -66 l-23 -47 -92 2
c-50 0 -91 4 -91 8 0 5 -7 8 -15 8 -8 0 -16 10 -16 23 -1 12 -2 31 -3 42 -1
11 -11 39 -23 62 -13 23 -20 50 -17 60 5 14 4 15 -4 4 -8 -11 -11 -9 -17 10
-7 23 -75 106 -75 92 0 -4 -5 -2 -12 5 -7 7 -21 12 -31 12 -11 0 -35 17 -53
38 -22 24 -33 32 -34 21z m253 -294 c-3 -9 -8 -14 -10 -11 -3 3 -2 9 2 15 9
16 15 13 8 -4z m-7 -329 c0 -13 -5 -21 -11 -18 -5 4 -16 7 -23 8 -24 4 -26 14
-4 14 11 0 24 5 27 10 10 16 13 12 11 -14z m-191 -92 c10 -20 18 -45 18 -56
-1 -11 2 -31 7 -44 7 -19 6 -24 -5 -24 -8 0 -15 -8 -15 -17 0 -13 3 -14 12 -5
16 16 25 15 32 -3 5 -13 -3 -15 -51 -10 -54 5 -83 18 -83 36 0 15 22 10 36 -8
7 -10 16 -15 20 -11 4 4 -3 16 -15 25 -21 18 -21 53 0 53 14 0 11 -18 -3 -23
-7 -2 -10 -7 -7 -11 4 -4 14 0 22 9 9 8 20 15 25 15 5 0 9 7 9 15 0 11 -4 12
-13 4 -11 -9 -13 -5 -12 18 0 15 -2 38 -5 51 -9 34 6 26 28 -14z m98 -88 c15
-12 16 -18 7 -35 -6 -12 -16 -21 -23 -21 -15 0 -49 54 -40 64 10 10 37 6 56
-8z"/>
<path d="M1345 991 c-3 -5 -1 -12 4 -15 5 -3 11 1 15 9 6 16 -9 21 -19 6z"/>
<path d="M1610 1796 c0 -19 -2 -40 -3 -48 -2 -7 -2 -9 1 -5 2 4 10 0 16 -9 12
-15 13 -15 19 0 4 9 2 16 -3 16 -4 0 -7 18 -6 40 2 28 -1 40 -10 40 -9 0 -14
-12 -14 -34z"/>
<path d="M1840 1820 c0 -5 7 -7 15 -4 8 4 15 8 15 10 0 2 -7 4 -15 4 -8 0 -15
-4 -15 -10z"/>
<path d="M2175 1698 c2 -73 5 -289 7 -480 2 -192 6 -348 11 -348 4 0 7 -12 7
-27 l1 -28 12 23 c7 12 16 19 20 16 4 -4 7 -2 7 4 0 7 -6 12 -14 12 -13 0 -15
42 -17 268 -1 147 -3 292 -5 322 -2 30 -3 126 -4 213 0 132 -2 157 -15 157
-13 0 -14 -20 -10 -132z"/>
<path d="M2437 1510 c2 -249 0 -320 -10 -320 -9 0 -9 -2 -1 -8 8 -5 13 -71 14
-212 2 -113 5 -218 8 -235 10 -61 19 8 17 125 -2 63 -5 307 -7 542 -2 277 -7
428 -13 428 -7 0 -9 -112 -8 -320z"/>
<path d="M1120 1780 c0 -5 4 -10 9 -10 6 0 13 5 16 10 3 6 -1 10 -9 10 -9 0
-16 -4 -16 -10z"/>
<path d="M193 1753 c15 -2 27 -9 27 -14 0 -6 19 -8 47 -5 57 7 69 16 21 16
-19 0 -55 2 -79 4 -24 2 -32 1 -16 -1z"/>
<path d="M13 1675 c0 -51 2 -69 7 -50 3 17 3 53 0 80 -6 44 -7 40 -7 -30z"/>
<path d="M801 1668 c0 -46 3 -77 6 -70 2 6 11 12 19 12 19 0 18 16 -2 24 -14
5 -16 16 -11 61 3 31 2 55 -4 55 -5 0 -9 -37 -8 -82z"/>
<path d="M1124 1678 c10 -105 10 -124 2 -215 -5 -63 -3 -90 9 -119 17 -42 21
-89 5 -64 -8 12 -10 10 -11 -10 -1 -14 -1 -29 0 -33 1 -4 -4 -17 -10 -29 -8
-15 -8 -18 0 -14 6 4 11 3 11 -3 0 -5 -4 -13 -10 -16 -5 -3 -10 -12 -10 -18 0
-7 4 -6 10 3 5 8 10 11 10 7 0 -8 -71 -80 -83 -84 -57 -18 -114 -72 -148 -140
-25 -50 -29 -70 -29 -139 0 -68 3 -84 20 -99 11 -10 20 -24 20 -30 0 -7 6 -18
14 -24 24 -20 36 19 36 116 0 121 19 173 99 278 47 62 90 105 105 105 5 0 3 7
-4 15 -7 8 -9 15 -5 15 4 0 2 6 -4 14 -8 10 -8 21 2 45 7 17 16 29 19 26 3 -3
2 13 -2 35 -4 23 -13 47 -19 53 -16 16 -13 118 5 186 15 55 15 59 -1 79 -13
15 -18 36 -17 76 0 32 -4 56 -10 56 -7 0 -8 -25 -4 -72z m-99 -636 c-31 -23
-93 -190 -95 -255 0 -5 -4 -6 -8 -3 -4 2 -8 -4 -9 -14 -1 -11 3 -17 10 -14 8
3 12 -9 12 -35 l1 -40 -22 36 c-18 30 -21 49 -19 109 2 62 8 81 35 126 17 29
29 45 26 36 -3 -10 -1 -20 4 -23 6 -4 10 1 10 10 0 20 40 75 54 75 7 0 8 -3 1
-8z"/>
<path d="M933 944 c-3 -8 0 -21 7 -27 10 -10 11 -7 5 12 -5 18 -4 22 5 16 9
-5 11 -4 6 3 -10 16 -15 15 -23 -4z"/>
<path d="M920 896 c0 -8 -6 -16 -12 -19 -7 -3 -4 -5 8 -4 15 1 20 6 16 19 -5
22 -12 24 -12 4z"/>
<path d="M2310 1710 c0 -22 5 -40 10 -40 6 0 10 18 10 40 0 22 -4 40 -10 40
-5 0 -10 -18 -10 -40z"/>
<path d="M2360 1734 c0 -8 5 -12 10 -9 6 3 10 10 10 16 0 5 -4 9 -10 9 -5 0
-10 -7 -10 -16z"/>
<path d="M321 1714 c0 -11 3 -14 6 -6 3 7 2 16 -1 19 -3 4 -6 -2 -5 -13z"/>
<path d="M350 1720 c-12 -7 -10 -9 8 -7 12 0 22 5 22 9 0 11 -12 10 -30 -2z"/>
<path d="M397 1705 c3 -8 9 -12 14 -9 12 7 11 11 -5 17 -10 4 -13 1 -9 -8z"/>
<path d="M455 1709 c-19 -7 -19 -8 3 -8 14 -1 22 -7 23 -18 0 -11 3 -13 6 -5
2 6 11 12 19 12 9 0 12 -4 9 -10 -4 -6 15 -10 49 -10 31 0 56 -4 56 -10 0 -5
12 -10 28 -10 27 1 27 1 -7 15 -18 8 -44 15 -57 15 -13 0 -24 5 -24 10 0 6
-18 10 -39 10 -22 0 -41 4 -43 9 -1 4 -12 5 -23 0z"/>
<path d="M1275 1709 c-4 -5 -12 -8 -18 -6 -16 5 -54 -33 -62 -63 -5 -19 -4
-21 4 -10 7 10 11 11 11 3 0 -7 7 -10 15 -7 8 4 15 17 15 30 0 16 4 22 14 18
7 -3 16 2 19 10 19 49 89 -14 111 -98 8 -31 18 -61 21 -66 3 -6 2 -10 -3 -10
-6 0 -15 17 -20 38 -9 32 -10 28 -6 -30 5 -67 3 -74 -28 -69 -4 0 -6 -16 -4
-37 1 -20 6 -35 11 -32 6 3 9 10 7 16 -1 6 9 17 23 24 14 7 25 17 25 22 0 4 7
8 16 8 9 0 14 6 11 13 -2 6 -12 11 -21 11 -18 -2 -22 11 -6 21 16 10 0 96 -26
142 -37 64 -92 101 -109 72z"/>
<path d="M1400 1705 c7 -8 17 -15 22 -15 6 0 5 7 -2 15 -7 8 -17 15 -22 15 -6
0 -5 -7 2 -15z"/>
<path d="M1295 1680 c3 -5 11 -10 16 -10 6 0 7 5 4 10 -3 6 -11 10 -16 10 -6
0 -7 -4 -4 -10z"/>
<path d="M706 1654 c-9 -24 -7 -31 4 -14 8 13 10 13 10 -1 0 -10 8 -15 23 -13
12 1 29 3 37 3 12 1 11 4 -3 12 -9 5 -21 8 -26 4 -5 -3 -16 1 -24 10 -13 13
-16 13 -21 -1z"/>
<path d="M1840 1657 c0 -10 8 -17 18 -17 9 0 13 4 7 8 -5 4 -13 11 -17 16 -5
5 -8 2 -8 -7z"/>
<path d="M1263 1625 c0 -22 2 -30 4 -17 2 12 2 30 0 40 -3 9 -5 -1 -4 -23z"/>
<path d="M1280 1651 c0 -5 5 -13 10 -16 6 -3 10 -2 10 4 0 5 -4 13 -10 16 -5
3 -10 2 -10 -4z"/>
<path d="M2310 1625 c0 -19 5 -35 10 -35 6 0 10 16 10 35 0 19 -4 35 -10 35
-5 0 -10 -16 -10 -35z"/>
<path d="M1801 1623 c-6 -16 -18 -59 -27 -98 -8 -38 -20 -75 -25 -81 -11 -14
-1 -24 17 -17 8 3 14 -1 14 -8 0 -7 3 -9 6 -6 4 4 1 13 -6 22 -7 9 -10 18 -7
21 3 3 15 -12 26 -34 21 -42 41 -62 41 -42 0 6 -6 21 -14 33 -23 37 -36 111
-26 146 10 34 10 35 11 54 0 6 5 1 10 -13 7 -17 7 -26 0 -28 -6 -2 -11 -8 -11
-14 0 -7 5 -6 14 1 8 7 13 24 11 39 -2 15 -4 33 -4 40 -2 21 -18 13 -30 -15z"/>
<path d="M1900 1615 c7 -9 15 -13 17 -11 7 7 -7 26 -19 26 -6 0 -6 -6 2 -15z"/>
<path d="M1206 1603 c-11 -11 -6 -21 14 -26 11 -3 20 -3 20 0 0 10 -28 32 -34
26z"/>
<path d="M1330 1596 c0 -2 7 -7 16 -10 8 -3 12 -2 9 4 -6 10 -25 14 -25 6z"/>
<path d="M11 1558 c0 -18 4 -55 9 -83 7 -47 7 -45 9 33 0 49 -3 82 -9 82 -5 0
-10 -15 -9 -32z"/>
<path d="M1912 1570 c0 -14 2 -19 5 -12 2 6 2 18 0 25 -3 6 -5 1 -5 -13z"/>
<path d="M2323 1520 c0 -36 2 -50 4 -32 2 17 2 47 0 65 -2 17 -4 3 -4 -33z"/>
<path d="M1180 1535 c0 -15 7 -33 15 -42 8 -8 13 -18 10 -23 -3 -4 2 -11 10
-14 9 -3 24 -24 34 -46 l18 -40 11 25 c8 18 8 25 1 25 -6 0 -9 6 -6 14 4 10 0
12 -16 8 -22 -5 -22 -5 -3 17 16 17 17 24 7 34 -10 9 -11 8 -5 -7 6 -16 4 -17
-17 -11 -30 10 -50 35 -43 57 3 9 0 19 -6 23 -6 4 -10 -4 -10 -20z"/>
<path d="M1214 1536 c-6 -17 2 -36 17 -36 12 0 12 37 -1 45 -6 3 -13 -1 -16
-9z"/>
<path d="M1711 1532 c-1 -15 -5 -21 -13 -16 -7 5 -8 3 -3 -5 10 -18 28 2 22
25 -4 15 -5 14 -6 -4z"/>
<path d="M1846 1528 c-9 -36 -7 -41 9 -24 16 16 20 46 6 46 -5 0 -11 -10 -15
-22z"/>
<path d="M1335 1530 c3 -5 11 -10 16 -10 6 0 7 5 4 10 -3 6 -11 10 -16 10 -6
0 -7 -4 -4 -10z"/>
<path d="M1896 1518 c-3 -13 -6 -38 -6 -55 0 -40 -20 -44 -21 -5 l-1 27 -7
-30 c-9 -38 -6 -44 19 -38 14 4 20 14 20 33 0 16 6 31 13 34 9 4 9 8 1 11 -7
3 -10 15 -7 25 3 11 3 20 0 20 -2 0 -7 -10 -11 -22z"/>
<path d="M1810 1525 c0 -5 5 -17 10 -25 5 -8 10 -10 10 -5 0 6 -5 17 -10 25
-5 8 -10 11 -10 5z"/>
<path d="M2163 1470 c0 -25 2 -35 4 -22 2 12 2 32 0 45 -2 12 -4 2 -4 -23z"/>
<path d="M2370 1500 c0 -5 5 -10 10 -10 6 0 10 5 10 10 0 6 -4 10 -10 10 -5 0
-10 -4 -10 -10z"/>
<path d="M1165 1445 c9 -95 15 -125 26 -125 5 0 7 18 4 43 -4 32 -3 37 4 20
13 -30 61 -56 61 -33 0 6 -7 10 -15 10 -18 0 -38 37 -31 55 8 22 -11 28 -24 8
-10 -16 -10 -15 -5 4 3 12 -1 34 -10 50 -15 27 -15 27 -10 -32z"/>
<path d="M1505 1480 c-3 -5 -1 -10 4 -10 6 0 11 5 11 10 0 6 -2 10 -4 10 -3 0
-8 -4 -11 -10z"/>
<path d="M1292 1450 c0 -14 2 -19 5 -12 2 6 2 18 0 25 -3 6 -5 1 -5 -13z"/>
<path d="M2322 1397 c1 -47 2 -48 5 -12 3 22 9 43 15 46 5 4 3 9 -6 12 -13 5
-16 -2 -14 -46z"/>
<path d="M1426 1419 c2 -4 -2 -10 -8 -12 -7 -3 -4 -5 7 -6 22 0 66 17 50 19
-38 6 -53 6 -49 -1z"/>
<path d="M1906 1414 c-3 -9 -4 -19 -1 -23 2 -5 0 -23 -5 -40 -7 -24 -6 -31 3
-28 7 2 13 27 15 55 4 52 -1 65 -12 36z"/>
<path d="M1225 1390 c3 -5 8 -10 11 -10 2 0 4 5 4 10 0 6 -5 10 -11 10 -5 0
-7 -4 -4 -10z"/>
<path d="M1286 1383 c-6 -14 -5 -15 5 -6 7 7 10 15 7 18 -3 3 -9 -2 -12 -12z"/>
<path d="M1865 1380 c-4 -12 -5 -24 -2 -27 3 -2 8 5 12 17 4 12 5 24 2 27 -3
2 -8 -5 -12 -17z"/>
<path d="M1543 1365 c0 -7 6 -11 14 -8 8 3 13 -2 13 -12 0 -9 7 -23 15 -31 19
-19 19 -15 0 23 -16 33 -42 50 -42 28z"/>
<path d="M1335 1350 c-4 -6 -3 -10 2 -9 20 3 27 -2 13 -11 -8 -5 -12 -11 -9
-14 10 -11 29 11 23 27 -7 19 -20 22 -29 7z"/>
<path d="M193 1343 c9 -2 25 -2 35 0 9 3 1 5 -18 5 -19 0 -27 -2 -17 -5z"/>
<path d="M275 1343 c-40 -10 -39 -23 2 -23 23 0 43 -4 45 -10 2 -6 8 -6 18 0
13 8 12 10 -2 10 -10 0 -18 7 -18 15 0 15 -9 17 -45 8z"/>
<path d="M2370 1310 c0 -22 5 -40 10 -40 6 0 10 18 10 40 0 22 -4 40 -10 40
-5 0 -10 -18 -10 -40z"/>
<path d="M415 1319 c-59 -6 -56 -8 15 -15 19 -2 62 -8 95 -13 96 -16 108 -17
112 -5 3 9 -71 24 -137 26 -8 1 -17 4 -20 7 -3 3 -32 3 -65 0z"/>
<path d="M1400 1317 c0 -9 -4 -17 -10 -17 -5 0 -10 -4 -10 -10 0 -5 4 -10 9
-10 12 0 25 39 17 47 -3 4 -6 -1 -6 -10z"/>
<path d="M1547 1295 c7 -33 29 -51 37 -29 4 11 2 15 -8 11 -10 -4 -13 -1 -10
7 3 7 -1 18 -9 24 -12 10 -13 8 -10 -13z"/>
<path d="M1200 1290 c-12 -23 2 -27 19 -6 8 9 8 16 2 20 -6 4 -15 -3 -21 -14z"/>
<path d="M1855 1300 c3 -5 10 -10 16 -10 5 0 9 5 9 10 0 6 -7 10 -16 10 -8 0
-12 -4 -9 -10z"/>
<path d="M650 1287 c0 -10 14 -16 40 -19 77 -7 76 20 -1 28 -29 4 -39 1 -39
-9z"/>
<path d="M1335 1290 c4 -6 11 -8 16 -5 14 9 11 15 -7 15 -8 0 -12 -5 -9 -10z"/>
<path d="M1902 1270 c14 -22 24 -19 15 5 -4 8 -11 15 -17 15 -6 0 -6 -7 2 -20z"/>
<path d="M1947 1277 c-3 -8 -1 -20 4 -28 6 -10 9 -7 9 14 0 29 -5 35 -13 14z"/>
<path d="M1267 1247 c-2 -18 -3 -34 0 -37 7 -8 23 24 18 37 -2 6 1 13 8 16 6
2 5 6 -5 9 -12 5 -17 -1 -21 -25z"/>
<path d="M1860 1270 c0 -5 6 -10 14 -10 8 0 17 -8 19 -17 4 -14 5 -13 6 3 0
12 -6 25 -15 28 -21 8 -24 8 -24 -4z"/>
<path d="M22 1240 c0 -19 2 -27 5 -17 2 9 2 25 0 35 -3 9 -5 1 -5 -18z"/>
<path d="M770 1266 c0 -9 37 -12 55 -5 15 6 11 8 -17 8 -21 1 -38 -1 -38 -3z"/>
<path d="M1750 1255 c33 -19 49 -19 24 0 -10 8 -26 14 -34 14 -9 0 -4 -6 10
-14z"/>
<path d="M1350 1243 c0 -4 5 -15 10 -23 8 -13 10 -13 10 2 0 9 -4 20 -10 23
-5 3 -10 3 -10 -2z"/>
<path d="M1634 1237 c-8 -21 2 -35 16 -21 5 5 6 15 0 24 -8 12 -10 12 -16 -3z"/>
<path d="M1680 1241 c0 -6 4 -13 10 -16 6 -3 7 1 4 9 -7 18 -14 21 -14 7z"/>
<path d="M802 1190 c0 -50 1 -52 8 -21 5 19 4 44 0 55 -6 15 -9 5 -8 -34z"/>
<path d="M1541 1230 c0 -8 4 -24 9 -35 5 -13 9 -14 9 -5 0 8 -4 24 -9 35 -5
13 -9 14 -9 5z"/>
<path d="M1919 1233 c-4 -41 -3 -63 2 -63 4 0 12 -12 17 -27 l10 -28 1 31 c1
43 -10 94 -20 94 -5 0 -9 -3 -10 -7z"/>
<path d="M1310 1220 c0 -5 7 -10 15 -10 8 0 15 5 15 10 0 6 -7 10 -15 10 -8 0
-15 -4 -15 -10z"/>
<path d="M1585 1217 c-4 -10 -5 -21 -1 -24 10 -10 18 4 13 24 -4 17 -4 17 -12
0z"/>
<path d="M1722 1208 c-18 -37 -24 -68 -13 -68 5 0 12 14 16 30 4 17 11 30 16
30 5 0 9 7 9 15 0 22 -15 18 -28 -7z"/>
<path d="M1890 1206 c0 -8 4 -17 9 -20 5 -4 7 3 4 14 -6 23 -13 26 -13 6z"/>
<path d="M1961 1210 c1 -8 4 -26 8 -39 l6 -24 14 29 c7 16 9 26 5 22 -4 -4
-13 0 -20 10 -11 14 -13 14 -13 2z"/>
<path d="M1815 1200 c4 -6 11 -8 16 -5 14 9 11 15 -7 15 -8 0 -12 -5 -9 -10z"/>
<path d="M1763 1174 c2 -13 -2 -29 -9 -35 -8 -6 -14 -8 -14 -3 0 5 -4 2 -10
-6 -6 -11 2 -25 35 -57 24 -24 51 -65 61 -91 20 -53 29 -62 64 -62 23 0 25 4
26 47 0 46 0 46 -11 19 -10 -24 -13 -26 -19 -10 -4 10 -1 21 6 25 7 4 9 12 4
16 -9 9 -36 -24 -36 -44 0 -7 5 -13 10 -13 6 0 10 -4 10 -10 0 -5 -3 -10 -7
-10 -11 0 -49 72 -48 90 0 8 -8 23 -20 34 -11 10 -19 23 -17 28 2 6 -5 20 -15
31 -10 11 -12 17 -5 13 6 -4 12 -3 12 2 0 12 38 23 45 12 3 -4 -7 -11 -22 -14
-19 -5 -23 -10 -15 -18 8 -8 18 -6 37 6 25 16 28 16 51 1 14 -9 23 -23 20 -30
-2 -7 -1 -26 3 -42 8 -26 9 -25 9 13 0 23 2 50 6 60 7 23 -2 37 -33 53 -17 10
-26 10 -35 1 -8 -8 -7 -10 4 -6 16 6 67 -31 57 -41 -4 -3 -14 0 -23 8 -10 8
-27 14 -38 14 -12 0 -20 5 -19 10 1 6 -14 16 -34 22 -34 10 -35 10 -30 -13z"/>
<path d="M22 1165 c0 -16 2 -22 5 -12 2 9 2 23 0 30 -3 6 -5 -1 -5 -18z"/>
<path d="M1608 1183 c-29 -7 -22 -31 7 -25 24 4 33 17 18 25 -5 2 -16 2 -25 0z"/>
<path d="M2373 1150 c0 -25 2 -35 4 -22 2 12 2 32 0 45 -2 12 -4 2 -4 -23z"/>
<path d="M1070 1171 c0 -6 4 -13 10 -16 6 -3 7 1 4 9 -7 18 -14 21 -14 7z"/>
<path d="M1015 1130 c-22 -4 -53 -12 -68 -19 -16 -6 -33 -9 -38 -5 -5 3 -12
-2 -15 -10 -3 -9 -13 -16 -21 -16 -8 0 -28 -14 -46 -30 -18 -17 -38 -28 -45
-25 -7 3 -11 1 -8 -3 6 -9 -35 -49 -104 -102 -25 -19 -48 -39 -51 -44 -4 -5
-17 -9 -30 -10 -12 0 -24 -8 -26 -16 -4 -13 -3 -13 6 0 5 8 14 11 18 6 14 -13
-65 -78 -87 -71 -15 5 -18 3 -14 -9 3 -9 1 -16 -5 -16 -6 0 -11 4 -11 9 0 5
-10 7 -22 3 -21 -5 -21 -6 -2 -13 10 -4 14 -8 7 -8 -6 -1 -25 -12 -41 -26 -17
-14 -37 -23 -45 -19 -8 3 -18 1 -22 -5 -4 -7 1 -8 12 -4 17 6 17 5 0 -13 -15
-17 -19 -17 -28 -4 -8 12 -9 12 -7 -5 2 -14 -5 -22 -27 -28 -16 -5 -38 -13
-47 -18 -23 -12 -37 -11 -19 0 9 6 1 9 -25 8 -21 0 -31 -2 -21 -4 26 -6 21
-19 -13 -33 -44 -18 -52 -40 -47 -131 4 -84 13 -101 49 -91 18 4 18 5 -4 16
-25 13 -39 66 -17 66 10 0 10 3 1 12 -16 16 -15 70 1 89 16 20 103 53 117 44
9 -5 84 44 135 88 11 9 69 44 126 76 20 11 52 38 71 60 19 22 52 52 73 67 22
14 55 42 74 61 42 42 134 106 182 125 19 8 58 21 87 27 28 7 52 17 52 22 0 5
-3 8 -7 8 -5 -1 -26 -5 -48 -9z"/>
<path d="M1828 1113 c-22 -5 -23 -36 -3 -53 15 -13 55 -5 55 11 0 6 -7 6 -19
0 -14 -8 -22 -7 -32 5 -11 13 -10 15 2 14 7 -1 22 -2 33 -1 15 1 16 4 6 16 -7
8 -15 14 -19 14 -3 -1 -14 -3 -23 -6z"/>
<path d="M800 1095 c0 -9 6 -12 15 -9 8 4 15 7 15 9 0 2 -7 5 -15 9 -9 3 -15
0 -15 -9z"/>
<path d="M1924 1075 c-3 -20 -4 -39 0 -42 3 -4 6 6 6 21 0 16 4 25 10 21 6 -3
10 1 10 9 0 32 -19 25 -26 -9z"/>
<path d="M1570 1090 c0 -6 18 -10 43 -9 23 1 56 -1 72 -5 28 -7 29 -7 11 8
-22 18 -126 23 -126 6z"/>
<path d="M1960 1085 c-1 -11 -2 -40 -1 -65 2 -40 0 -43 -12 -27 -14 16 -15 16
-21 1 -4 -10 -2 -20 4 -24 6 -4 8 -14 4 -23 -4 -11 -1 -17 7 -17 25 0 42 17
35 35 -3 9 -1 25 4 36 7 12 7 19 1 19 -5 0 -12 19 -14 43 -2 23 -5 33 -7 22z"/>
<path d="M1140 1064 c0 -8 5 -12 10 -9 6 3 10 10 10 16 0 5 -4 9 -10 9 -5 0
-10 -7 -10 -16z"/>
<path d="M797 1050 c-3 -11 -3 -20 -1 -20 2 0 8 9 14 20 6 11 7 20 2 20 -6 0
-12 -9 -15 -20z"/>
<path d="M1436 1014 c-15 -20 -26 -38 -23 -40 3 -3 17 11 32 31 36 46 28 55
-9 9z"/>
<path d="M1841 1018 c9 -16 12 -17 24 -4 21 20 19 26 -9 24 -20 -2 -23 -5 -15
-20z"/>
<path d="M1133 997 c-1 -30 -1 -31 8 -8 5 14 6 28 2 32 -4 4 -9 -6 -10 -24z"/>
<path d="M1776 1017 c3 -10 9 -15 12 -12 3 3 0 11 -7 18 -10 9 -11 8 -5 -6z"/>
<path d="M740 1010 c-9 -6 -10 -10 -3 -10 6 0 15 5 18 10 8 12 4 12 -15 0z"/>
<path d="M1620 998 c0 -32 -15 -51 -41 -55 -40 -6 -41 -20 -2 -16 20 1 40 -3
44 -9 4 -6 7 15 8 46 0 31 -2 56 -4 56 -3 0 -5 -10 -5 -22z"/>
<path d="M22 980 c0 -19 2 -27 5 -17 2 9 2 25 0 35 -3 9 -5 1 -5 -18z"/>
<path d="M845 980 c-20 -13 -25 -20 -13 -20 15 0 48 25 48 36 0 6 -3 5 -35
-16z"/>
<path d="M1992 939 c1 -50 -5 -76 -25 -118 -27 -56 -24 -69 16 -84 15 -6 16
-4 7 13 -5 10 -14 22 -20 25 -11 7 -2 35 11 35 4 0 7 -6 5 -12 -1 -7 -1 -10 1
-5 3 4 9 5 14 1 5 -3 9 -1 9 5 0 5 -4 12 -8 15 -7 4 -8 26 -3 56 1 2 7 -4 15
-15 18 -27 31 -69 19 -62 -6 4 -8 -5 -5 -21 l5 -27 8 28 c4 16 4 39 0 50 -5
12 -6 28 -3 36 2 8 0 11 -5 8 -6 -4 -12 18 -16 54 -8 87 -27 101 -25 18z"/>
<path d="M2333 985 c-17 -18 -16 -22 2 -22 8 0 15 9 15 19 0 21 -1 22 -17 3z"/>
<path d="M1751 973 c-7 -8 -11 -16 -8 -19 2 -2 10 2 17 11 17 20 9 27 -9 8z"/>
<path d="M1796 977 c3 -10 9 -15 12 -12 3 3 0 11 -7 18 -10 9 -11 8 -5 -6z"/>
<path d="M1090 970 c0 -5 7 -10 16 -10 8 0 12 5 9 10 -3 6 -10 10 -16 10 -5 0
-9 -4 -9 -10z"/>
<path d="M1697 952 c-9 -10 -17 -23 -17 -29 0 -6 -6 -14 -12 -16 -10 -4 -10
-6 0 -6 17 -1 43 24 35 33 -4 3 -1 6 5 6 5 0 13 -6 15 -12 4 -9 6 -8 6 2 0 8
-3 21 -7 28 -7 10 -12 8 -25 -6z"/>
<path d="M1060 950 c0 -5 5 -10 10 -10 6 0 10 5 10 10 0 6 -4 10 -10 10 -5 0
-10 -4 -10 -10z"/>
<path d="M1523 954 c9 -15 -8 -35 -31 -37 -44 -3 -2 -21 46 -19 35 1 42 -1 27
-8 -15 -6 -16 -9 -4 -9 9 -1 23 7 33 17 15 18 14 19 -30 15 -43 -4 -45 -3 -35
16 8 14 8 22 -1 27 -6 4 -8 3 -5 -2z"/>
<path d="M796 935 c-3 -8 -1 -15 4 -15 6 0 10 7 10 15 0 8 -2 15 -4 15 -2 0
-6 -7 -10 -15z"/>
<path d="M1642 925 c0 -16 2 -22 5 -12 2 9 2 23 0 30 -3 6 -5 -1 -5 -18z"/>
<path d="M1760 939 c0 -5 6 -7 13 -3 9 5 9 3 -1 -7 -11 -11 -14 -12 -21 -1 -7
11 -10 10 -15 -3 -3 -9 -10 -14 -15 -10 -14 8 -25 -15 -26 -57 -1 -23 3 -34 9
-30 6 3 5 -2 -3 -11 -8 -10 -11 -21 -7 -25 12 -11 38 31 31 51 -3 9 -8 26 -11
37 -5 14 -2 20 10 20 9 0 16 -4 16 -10 0 -5 5 -10 12 -10 9 0 9 3 0 12 -16 16
-15 31 1 21 24 -15 37 -11 37 13 0 15 -6 24 -15 24 -8 0 -15 -5 -15 -11z"/>
<path d="M2329 941 c12 -7 10 -14 -8 -38 -13 -15 -35 -31 -49 -35 -21 -6 -19
-6 10 -3 28 3 38 0 41 -13 4 -15 5 -15 6 1 0 9 5 17 10 17 5 0 11 18 13 40 3
35 1 40 -17 40 -15 0 -17 -2 -6 -9z"/>
<path d="M1376 915 c-9 -14 -13 -25 -9 -25 10 0 36 40 30 46 -2 3 -12 -7 -21
-21z"/>
<path d="M1827 913 c-6 -13 31 -44 39 -32 3 6 4 11 3 12 -2 2 -11 8 -21 15 -9
7 -18 9 -21 5z"/>
<path d="M1960 906 c0 -8 5 -18 10 -21 6 -3 10 1 10 9 0 8 -4 18 -10 21 -5 3
-10 -1 -10 -9z"/>
<path d="M1040 900 c-1 -8 -1 -23 0 -34 1 -10 -4 -22 -10 -26 -6 -4 -10 -18
-8 -31 3 -20 6 -16 19 21 10 27 13 53 8 65 -5 14 -8 15 -9 5z"/>
<path d="M1190 901 c0 -6 8 -16 19 -23 10 -7 19 -16 19 -21 2 -24 9 -28 9 -4
0 18 -5 27 -16 27 -12 0 -13 2 -3 9 11 7 10 10 -3 15 -22 8 -25 8 -25 -3z"/>
<path d="M1895 900 c4 -6 11 -8 16 -5 14 9 11 15 -7 15 -8 0 -12 -5 -9 -10z"/>
<path d="M1614 869 c5 -28 36 -72 36 -51 0 5 9 12 20 15 11 3 20 10 20 16 0
17 -21 13 -35 -6 -12 -16 -14 -14 -20 20 -4 20 -12 37 -17 37 -6 0 -8 -13 -4
-31z"/>
<path d="M1106 881 c-19 -7 -19 -8 2 -13 15 -4 22 -2 22 8 0 8 -1 14 -2 13 -2
0 -12 -4 -22 -8z"/>
<path d="M1326 879 c4 -8 -1 -9 -17 -5 -20 6 -21 5 -6 -4 10 -7 23 -8 33 -2
15 8 15 10 0 15 -11 4 -15 3 -10 -4z"/>
<path d="M1670 880 c0 -5 5 -10 11 -10 5 0 7 5 4 10 -3 6 -8 10 -11 10 -2 0
-4 -4 -4 -10z"/>
<path d="M1770 881 c0 -6 4 -13 10 -16 6 -3 7 1 4 9 -7 18 -14 21 -14 7z"/>
<path d="M1888 878 c6 -6 18 -8 28 -6 14 3 12 5 -9 10 -19 3 -25 2 -19 -4z"/>
<path d="M1366 871 c-4 -5 3 -7 14 -4 23 6 26 13 6 13 -8 0 -17 -4 -20 -9z"/>
<path d="M792 850 c-10 -17 -9 -25 4 -45 9 -14 21 -25 28 -25 6 0 4 4 -4 10
-9 5 -13 22 -12 44 3 42 1 43 -16 16z"/>
<path d="M1256 862 c-3 -5 1 -9 9 -9 8 0 12 4 9 9 -3 4 -7 8 -9 8 -2 0 -6 -4
-9 -8z"/>
<path d="M1440 860 c-8 -5 -31 -10 -50 -10 -26 0 -31 -3 -19 -10 18 -10 84 4
94 20 8 13 -6 13 -25 0z"/>
<path d="M1555 848 c-4 -13 -8 -33 -10 -46 -9 -58 -71 -97 -151 -95 -33 1
-108 42 -137 77 -10 11 -15 15 -11 7 4 -9 2 -12 -7 -9 -8 3 -14 9 -15 14 -2
27 -17 64 -26 64 -6 0 -7 -11 -3 -27 10 -41 36 -93 46 -93 5 0 9 -6 9 -13 0
-7 14 -23 30 -36 26 -19 31 -20 36 -6 3 8 10 15 16 15 5 0 7 -4 3 -9 -3 -6 3
-15 14 -20 25 -14 31 -14 31 -1 0 6 -7 10 -15 10 -8 0 -15 5 -15 10 0 7 6 7
18 2 9 -5 24 -8 32 -7 10 2 16 -5 16 -16 0 -15 -6 -18 -31 -15 -16 2 -39 7
-50 11 -17 6 -17 4 3 -12 15 -13 35 -18 55 -16 l32 4 -30 -14 -30 -14 32 -1
c36 -1 58 19 50 48 -6 23 7 36 48 46 17 3 37 13 47 21 9 8 25 16 35 18 10 1
17 7 16 13 -3 13 63 -9 108 -35 38 -22 44 -44 28 -99 -15 -49 -36 -67 -89 -78
-19 -4 -55 -11 -80 -16 -42 -8 -40 -8 25 -6 82 2 145 34 145 74 0 24 31 44 38
24 2 -7 12 -3 25 11 12 12 39 31 60 41 22 11 40 29 43 43 4 14 11 20 18 16 6
-4 5 1 -3 10 -12 15 -12 17 0 12 9 -3 20 9 31 38 14 33 14 38 2 22 -80 -106
-107 -122 -170 -105 -28 8 -46 20 -50 32 -7 22 -69 52 -86 42 -7 -4 -8 -3 -4
4 4 7 2 12 -4 12 -6 0 -8 5 -5 10 3 6 2 10 -4 10 -5 0 -13 -9 -16 -21 -5 -15
-10 -18 -18 -10 -7 7 -6 15 3 26 10 13 9 15 -6 15 -16 0 -16 2 -4 9 8 6 18 7
24 4 5 -3 6 -1 2 6 -4 6 -12 9 -17 6 -5 -4 -9 -1 -9 4 0 20 -18 11 -25 -11z
m6 -79 c-22 -22 -23 -18 -9 21 10 29 12 31 18 14 5 -12 2 -25 -9 -35z m-252
-44 c9 -9 10 -18 4 -30 -9 -16 -10 -16 -17 0 -3 9 -4 20 -1 25 3 4 -2 11 -11
14 -12 5 -15 2 -10 -11 5 -14 3 -14 -9 2 -8 11 -22 29 -32 39 -15 16 -11 16
22 -4 22 -13 46 -29 54 -35z m536 -35 c-3 -5 -14 -10 -23 -9 -14 0 -13 2 3 9
27 11 27 11 20 0z m-77 -49 c-15 -5 -18 3 -11 29 l7 25 6 -25 c3 -14 2 -27 -2
-29z m29 27 c-3 -8 -6 -5 -6 6 -1 11 2 17 5 13 3 -3 4 -12 1 -19z"/>
<path d="M2056 855 c-9 -26 -7 -32 5 -12 6 10 9 21 6 23 -2 3 -7 -2 -11 -11z"/>
<path d="M2093 863 c9 -2 25 -2 35 0 9 3 1 5 -18 5 -19 0 -27 -2 -17 -5z"/>
<path d="M1477 846 c-8 -21 12 -88 25 -80 7 4 6 9 -2 14 -6 4 -12 24 -13 44
-1 40 -2 43 -10 22z"/>
<path d="M1760 840 c0 -11 -5 -20 -12 -20 -6 0 -8 -3 -5 -6 4 -4 13 -1 21 5 8
7 20 10 26 6 17 -10 11 -1 -10 18 -19 16 -20 16 -20 -3z"/>
<path d="M1857 840 c4 -14 0 -20 -10 -20 -17 0 -33 -18 -24 -26 3 -3 15 -1 26
6 21 11 30 60 12 60 -5 0 -7 -9 -4 -20z"/>
<path d="M700 840 c0 -5 5 -10 10 -10 6 0 10 5 10 10 0 6 -4 10 -10 10 -5 0
-10 -4 -10 -10z"/>
<path d="M1157 830 c-3 -11 -1 -20 4 -20 5 0 9 9 9 20 0 11 -2 20 -4 20 -2 0
-6 -9 -9 -20z"/>
<path d="M1506 841 c-4 -7 -5 -15 -2 -18 9 -9 19 4 14 18 -4 11 -6 11 -12 0z"/>
<path d="M1930 839 c0 -5 5 -7 10 -4 6 3 10 8 10 11 0 2 -4 4 -10 4 -5 0 -10
-5 -10 -11z"/>
<path d="M1256 832 c-3 -5 1 -15 8 -21 11 -10 14 -9 12 3 -3 21 -13 29 -20 18z"/>
<path d="M1132 810 c0 -14 2 -19 5 -12 2 6 2 18 0 25 -3 6 -5 1 -5 -13z"/>
<path d="M1435 820 c-16 -7 -17 -9 -3 -9 9 -1 20 4 23 9 7 11 7 11 -20 0z"/>
<path d="M686 811 c-4 -7 -5 -15 -2 -18 9 -9 19 4 14 18 -4 11 -6 11 -12 0z"/>
<path d="M1665 810 c-3 -5 -2 -10 4 -10 5 0 13 5 16 10 3 6 2 10 -4 10 -5 0
-13 -4 -16 -10z"/>
<path d="M1787 796 c-4 -10 -1 -13 8 -9 8 3 12 9 9 14 -7 12 -11 11 -17 -5z"/>
<path d="M1040 783 c0 -12 3 -14 8 -7 4 7 16 14 27 17 15 4 14 5 -7 6 -21 1
-28 -4 -28 -16z"/>
<path d="M1390 790 c34 -11 60 -11 35 0 -11 5 -29 8 -40 8 -16 0 -15 -2 5 -8z"/>
<path d="M23 750 c0 -25 2 -35 4 -22 2 12 2 32 0 45 -2 12 -4 2 -4 -23z"/>
<path d="M1100 775 c0 -8 5 -15 10 -15 6 0 10 7 10 15 0 8 -4 15 -10 15 -5 0
-10 -7 -10 -15z"/>
<path d="M1310 781 c0 -6 5 -11 10 -11 6 0 9 -5 8 -11 -2 -6 8 -13 22 -15 21
-3 22 -2 7 7 -9 6 -15 15 -12 20 4 5 11 6 17 3 7 -5 8 -2 3 5 -5 9 -10 10 -18
2 -7 -7 -14 -7 -24 0 -9 8 -13 8 -13 0z"/>
<path d="M1841 774 c-7 -9 -22 -13 -32 -11 -11 3 -19 0 -19 -6 0 -7 -6 -5 -13
4 -11 15 -14 14 -24 -7 -8 -18 -8 -22 0 -17 7 4 32 8 56 8 38 1 45 4 47 23 4
26 3 26 -15 6z"/>
<path d="M2062 765 c0 -16 2 -22 5 -12 2 9 2 23 0 30 -3 6 -5 -1 -5 -18z"/>
<path d="M1735 770 c3 -5 8 -10 11 -10 2 0 4 5 4 10 0 6 -5 10 -11 10 -5 0 -7
-4 -4 -10z"/>
<path d="M2001 764 c0 -11 3 -14 6 -6 3 7 2 16 -1 19 -3 4 -6 -2 -5 -13z"/>
<path d="M1400 748 c14 -5 37 -7 52 -4 15 3 29 1 32 -5 2 -5 3 -4 2 3 -2 8
-23 13 -57 14 -43 1 -49 0 -29 -8z"/>
<path d="M2200 745 c0 -9 -10 -20 -22 -25 l-23 -9 22 0 c12 -1 24 -9 26 -18 3
-10 5 1 6 25 0 23 -1 42 -4 42 -3 0 -5 -7 -5 -15z"/>
<path d="M2728 753 c7 -3 16 -2 19 1 4 3 -2 6 -13 5 -11 0 -14 -3 -6 -6z"/>
<path d="M1930 746 c0 -2 9 -26 21 -53 12 -29 18 -59 15 -75 -4 -21 -2 -28 9
-28 9 0 32 -11 53 -24 20 -13 53 -27 72 -31 19 -4 80 -25 134 -46 55 -22 110
-39 122 -39 12 0 46 -5 76 -11 29 -6 63 -13 75 -15 12 -2 35 -16 53 -30 42
-36 50 -24 10 15 -22 20 -47 32 -78 37 -45 8 -46 8 -17 15 18 5 4 6 -38 4 -38
-2 -65 0 -62 5 3 5 1 11 -4 14 -5 4 -12 2 -16 -4 -4 -6 -19 -5 -42 5 -19 8
-45 15 -57 15 -18 0 -19 2 -6 11 13 9 12 10 -3 5 -19 -6 -69 13 -62 24 2 4
-14 7 -36 8 -23 1 -62 11 -87 23 -39 18 -44 22 -28 28 18 7 18 8 2 14 -26 10
-38 8 -30 -5 4 -6 3 -8 -4 -5 -5 4 -9 19 -7 34 3 27 -14 88 -21 80 -3 -2 0
-17 6 -32 6 -15 9 -30 6 -32 -2 -2 -12 19 -22 47 -10 27 -22 50 -26 50 -4 0
-8 -2 -8 -4z"/>
<path d="M810 720 c-8 -5 -12 -11 -9 -14 2 -3 11 -1 19 4 8 5 12 11 9 14 -2 3
-11 1 -19 -4z"/>
<path d="M2340 720 c0 -5 5 -10 11 -10 5 0 7 5 4 10 -3 6 -8 10 -11 10 -2 0
-4 -4 -4 -10z"/>
<path d="M1206 707 c3 -10 9 -15 12 -12 3 3 0 11 -7 18 -10 9 -11 8 -5 -6z"/>
<path d="M1010 700 c0 -5 7 -7 15 -4 8 4 15 8 15 10 0 2 -7 4 -15 4 -8 0 -15
-4 -15 -10z"/>
<path d="M750 670 c0 -13 5 -20 13 -17 6 2 12 10 12 17 0 7 -6 15 -12 18 -8 2
-13 -5 -13 -18z"/>
<path d="M1236 683 c6 -4 14 -15 17 -23 5 -11 6 -9 4 4 -1 11 -9 21 -17 23
-10 3 -11 2 -4 -4z"/>
<path d="M1519 677 c5 -5 19 -7 32 -5 20 3 19 5 -9 9 -20 3 -29 2 -23 -4z"/>
<path d="M1588 653 c5 -21 7 -23 10 -9 2 10 0 22 -6 28 -6 6 -7 0 -4 -19z"/>
<path d="M2625 670 c-3 -5 -1 -10 4 -10 6 0 11 5 11 10 0 6 -2 10 -4 10 -3 0
-8 -4 -11 -10z"/>
<path d="M22 650 c0 -14 2 -19 5 -12 2 6 2 18 0 25 -3 6 -5 1 -5 -13z"/>
<path d="M465 651 c-3 -5 -1 -12 5 -16 5 -3 10 1 10 9 0 18 -6 21 -15 7z"/>
<path d="M1303 645 c0 -8 4 -12 9 -9 5 3 6 10 3 15 -9 13 -12 11 -12 -6z"/>
<path d="M1910 645 c7 -9 15 -13 17 -11 7 7 -7 26 -19 26 -6 0 -6 -6 2 -15z"/>
<path d="M980 640 c0 -5 5 -10 11 -10 5 0 7 5 4 10 -3 6 -8 10 -11 10 -2 0 -4
-4 -4 -10z"/>
<path d="M1010 640 c0 -5 5 -10 11 -10 5 0 7 5 4 10 -3 6 -8 10 -11 10 -2 0
-4 -4 -4 -10z"/>
<path d="M1869 643 c-1 -4 0 -18 1 -30 1 -13 -3 -23 -9 -23 -6 0 -11 -9 -11
-20 0 -11 4 -20 8 -20 12 0 31 89 21 96 -5 3 -9 2 -10 -3z"/>
<path d="M2471 624 c0 -11 3 -14 6 -6 3 7 2 16 -1 19 -3 4 -6 -2 -5 -13z"/>
<path d="M130 626 c0 -2 9 -6 20 -9 11 -3 18 -1 14 4 -5 9 -34 13 -34 5z"/>
<path d="M2401 614 c0 -11 3 -14 6 -6 3 7 2 16 -1 19 -3 4 -6 -2 -5 -13z"/>
<path d="M1060 612 c0 -4 14 -16 31 -26 17 -10 28 -24 25 -31 -3 -8 2 -11 15
-8 16 5 14 9 -19 39 -37 33 -52 41 -52 26z"/>
<path d="M1450 583 c-3 -23 -2 -39 3 -34 5 5 7 24 5 42 -3 33 -4 33 -8 -8z"/>
<path d="M1571 604 c0 -11 3 -14 6 -6 3 7 2 16 -1 19 -3 4 -6 -2 -5 -13z"/>
<path d="M1590 604 c0 -8 5 -12 10 -9 6 4 8 11 5 16 -9 14 -15 11 -15 -7z"/>
<path d="M1155 590 c10 -11 20 -20 22 -20 2 0 -2 9 -9 20 -7 11 -17 20 -22 20
-5 0 -1 -9 9 -20z"/>
<path d="M1280 606 c0 -2 19 -23 43 -48 23 -24 55 -63 71 -87 15 -23 30 -40
33 -38 7 8 -36 87 -47 87 -6 0 -10 9 -10 20 0 13 -7 20 -20 20 -11 0 -20 5
-20 11 0 7 -8 18 -17 25 -17 13 -33 18 -33 10z"/>
<path d="M1340 606 c0 -2 7 -7 16 -10 8 -3 12 -2 9 4 -6 10 -25 14 -25 6z"/>
<path d="M791 584 c0 -11 3 -14 6 -6 3 7 2 16 -1 19 -3 4 -6 -2 -5 -13z"/>
<path d="M872 575 c0 -16 2 -22 5 -12 2 9 2 23 0 30 -3 6 -5 -1 -5 -18z"/>
<path d="M1400 585 c7 -8 20 -15 29 -15 13 1 13 3 -3 15 -26 19 -42 19 -26 0z"/>
<path d="M1749 595 c-1 -3 -2 -8 -3 -12 -1 -5 -5 -14 -10 -22 -6 -10 -5 -12 2
-7 7 4 12 1 12 -8 0 -8 -4 -18 -10 -21 -5 -3 -10 -11 -10 -17 0 -6 6 -6 15 2
10 8 15 27 13 51 -2 35 -6 49 -9 34z"/>
<path d="M1770 573 c0 -15 6 -23 18 -23 13 0 14 2 4 9 -10 6 -9 10 7 14 29 7
26 25 -4 23 -19 -1 -25 -7 -25 -23z"/>
<path d="M913 583 c-14 -5 -18 -33 -5 -33 10 0 32 22 32 32 0 9 -8 9 -27 1z"/>
<path d="M1542 570 c0 -14 2 -19 5 -12 2 6 2 18 0 25 -3 6 -5 1 -5 -13z"/>
<path d="M1638 583 c7 -3 16 -2 19 1 4 3 -2 6 -13 5 -11 0 -14 -3 -6 -6z"/>
<path d="M440 565 c-10 -12 -10 -15 4 -15 9 0 16 7 16 15 0 8 -2 15 -4 15 -2
0 -9 -7 -16 -15z"/>
<path d="M1940 571 c0 -9 30 -24 36 -18 2 1 -6 8 -16 15 -11 7 -20 8 -20 3z"/>
<path d="M2472 555 c0 -16 2 -22 5 -12 2 9 2 23 0 30 -3 6 -5 -1 -5 -18z"/>
<path d="M90 560 c0 -5 5 -10 11 -10 5 0 7 5 4 10 -3 6 -8 10 -11 10 -2 0 -4
-4 -4 -10z"/>
<path d="M720 561 c0 -10 19 -25 25 -20 1 2 -3 10 -11 17 -8 7 -14 8 -14 3z"/>
<path d="M1197 545 c3 -8 9 -12 14 -9 12 7 11 11 -5 17 -10 4 -13 1 -9 -8z"/>
<path d="M1890 539 c0 -5 5 -7 10 -4 6 3 10 8 10 11 0 2 -4 4 -10 4 -5 0 -10
-5 -10 -11z"/>
<path d="M1463 525 c4 -8 2 -17 -3 -20 -6 -4 -10 -12 -10 -18 0 -7 7 -4 14 6
8 10 20 15 30 11 21 -8 21 5 -1 22 -24 18 -36 17 -30 -1z"/>
<path d="M827 513 c-13 -13 -17 -14 -17 -3 0 7 -3 11 -6 8 -3 -4 0 -16 6 -28
l12 -22 15 21 c19 28 12 46 -10 24z"/>
<path d="M996 515 c-28 -8 -35 -13 -23 -18 9 -3 31 -2 49 4 18 5 49 9 68 9 26
0 31 3 20 10 -18 12 -61 10 -114 -5z"/>
<path d="M1220 525 c0 -10 68 -74 73 -68 3 2 -10 20 -30 39 -34 33 -43 39 -43
29z"/>
<path d="M2401 514 c0 -11 3 -14 6 -6 3 7 2 16 -1 19 -3 4 -6 -2 -5 -13z"/>
<path d="M1521 506 c10 -9 79 -14 79 -5 0 5 -19 9 -42 9 -23 0 -39 -2 -37 -4z"/>
<path d="M1610 488 c0 -12 1 -19 3 -17 1 2 9 12 16 22 12 14 11 17 -3 17 -10
0 -16 -8 -16 -22z"/>
<path d="M1683 498 c-6 -8 -7 -21 -2 -33 7 -19 8 -18 8 4 1 17 5 22 17 17 10
-4 14 -1 12 6 -6 17 -24 20 -35 6z"/>
<path d="M215 479 l-30 -19 27 0 c15 0 36 -9 46 -20 18 -20 92 -40 92 -26 0 4
-16 14 -36 22 -20 8 -38 24 -41 34 -7 27 -24 30 -58 9z"/>
<path d="M640 476 c0 -18 -7 -25 -31 -30 -17 -3 -41 -3 -53 0 -12 3 -35 -2
-51 -10 -19 -10 -48 -14 -86 -11 -51 3 -57 1 -56 -15 1 -13 5 -16 16 -10 8 4
25 3 37 -2 13 -6 31 -7 41 -3 10 4 41 9 68 12 28 2 66 9 85 14 70 21 121 27
116 13 -5 -12 20 -41 29 -33 7 8 9 78 2 85 -3 4 -31 8 -62 10 -52 3 -55 2 -55
-20z m68 -13 c-10 -2 -26 -2 -35 0 -10 3 -2 5 17 5 19 0 27 -2 18 -5z"/>
<path d="M1960 487 c0 -24 26 -40 47 -28 16 9 14 10 -10 11 -16 0 -26 4 -22 9
3 5 1 12 -5 16 -5 3 -10 0 -10 -8z"/>
<path d="M2070 490 c-9 -6 -10 -10 -3 -10 6 0 15 5 18 10 8 12 4 12 -15 0z"/>
<path d="M1515 479 c-4 -6 -13 -8 -21 -5 -7 3 -16 1 -19 -4 -10 -16 35 -11 51
5 9 8 11 15 5 15 -5 0 -13 -5 -16 -11z"/>
<path d="M1850 475 c-11 -13 -10 -14 4 -9 9 3 16 10 16 15 0 13 -6 11 -20 -6z"/>
<path d="M1058 473 c7 -3 16 -2 19 1 4 3 -2 6 -13 5 -11 0 -14 -3 -6 -6z"/>
<path d="M1741 471 c-10 -6 -9 -10 3 -14 8 -3 18 -2 21 3 8 13 -9 20 -24 11z"/>
<path d="M807 444 c-4 -4 -7 -22 -7 -40 0 -18 -4 -36 -10 -39 -5 -3 -9 -20 -7
-37 2 -28 -2 -33 -30 -41 -46 -14 -41 -27 5 -15 38 9 38 10 51 83 13 72 12
103 -2 89z"/>
<path d="M1334 431 c17 -11 33 -18 38 -15 4 3 8 -1 8 -9 0 -15 124 -77 154
-77 19 0 113 -84 121 -109 4 -12 18 -16 64 -16 33 0 56 2 53 5 -19 14 -7 28
29 33 37 5 75 24 66 34 -7 6 -137 -39 -133 -46 2 -3 -14 -7 -35 -8 -24 -2 -38
1 -34 7 3 6 12 10 19 10 8 0 38 11 67 25 34 15 43 22 24 18 -16 -3 -50 -15
-74 -26 -24 -10 -47 -15 -51 -10 -15 15 -15 46 0 50 13 4 13 3 0 -6 -12 -8 -6
-10 23 -9 20 1 37 4 37 8 0 4 10 11 23 14 21 7 21 8 3 15 -13 5 -16 10 -9 14
7 4 14 3 18 -3 10 -15 95 -10 95 7 0 7 -3 12 -7 11 -5 -2 -9 2 -9 7 -1 6 2 9
7 8 4 -2 5 5 2 14 -4 11 -3 14 5 9 16 -10 49 1 56 19 4 12 -2 12 -41 0 -25 -8
-49 -18 -52 -23 -3 -5 -19 -10 -34 -10 -15 0 -38 -9 -51 -21 -12 -11 -30 -21
-39 -21 -10 0 -29 -7 -43 -16 -23 -16 -26 -16 -44 2 -23 23 -40 37 -59 49 -11
6 -13 4 -8 -9 6 -14 3 -15 -14 -6 -11 6 -17 15 -14 20 3 4 -4 6 -15 3 -11 -3
-20 0 -20 6 0 6 -11 11 -23 11 -13 0 -32 9 -42 20 -10 11 -21 18 -25 15 -4 -2
-16 2 -26 10 -10 8 -23 14 -29 15 -5 0 3 -9 19 -19z"/>
<path d="M1520 429 c0 -11 4 -18 10 -14 5 3 7 12 3 20 -7 21 -13 19 -13 -6z"/>
<path d="M1818 443 c-10 -2 -18 -8 -18 -13 0 -4 9 -6 20 -3 11 3 20 9 20 14 0
5 -1 8 -2 8 -2 -1 -11 -3 -20 -6z"/>
<path d="M2000 441 c0 -10 91 -64 97 -57 9 9 -46 54 -74 59 -12 2 -23 1 -23
-2z"/>
<path d="M1483 410 c-1 -11 2 -20 6 -20 5 0 11 9 14 20 3 12 0 20 -7 20 -6 0
-12 -9 -13 -20z"/>
<path d="M1559 428 c-8 -27 -5 -38 11 -38 13 0 17 5 13 20 -4 16 -21 28 -24
18z"/>
<path d="M2720 420 c0 -5 7 -10 15 -10 8 0 15 5 15 10 0 6 -7 10 -15 10 -8 0
-15 -4 -15 -10z"/>
<path d="M2498 393 c7 -3 16 -2 19 1 4 3 -2 6 -13 5 -11 0 -14 -3 -6 -6z"/>
<path d="M600 386 c0 -8 51 -13 56 -5 3 5 -9 9 -25 9 -17 0 -31 -2 -31 -4z"/>
<path d="M910 380 c0 -5 4 -10 9 -10 6 0 13 5 16 10 3 6 -1 10 -9 10 -9 0 -16
-4 -16 -10z"/>
<path d="M2410 382 c0 -10 41 -35 47 -28 7 7 -23 36 -36 36 -6 0 -11 -3 -11
-8z"/>
<path d="M1641 364 c0 -11 3 -14 6 -6 3 7 2 16 -1 19 -3 4 -6 -2 -5 -13z"/>
<path d="M2161 367 c24 -18 33 -53 14 -60 -8 -4 -14 -1 -12 6 1 8 -23 12 -83
14 -47 2 -118 4 -157 6 -56 2 -73 0 -73 -10 0 -9 13 -14 38 -14 20 0 57 0 82
0 25 -1 47 -5 50 -9 3 -5 25 -4 49 2 36 9 48 8 70 -5 15 -9 37 -14 49 -10 12
3 30 2 39 -2 15 -6 13 -9 -12 -20 l-30 -13 30 1 c17 1 33 9 37 18 3 9 16 15
30 13 12 -1 29 -3 36 -3 7 -1 11 -5 7 -10 -6 -11 4 -12 103 -11 40 0 71 -3 68
-8 -2 -4 16 -8 42 -8 41 -1 44 0 22 10 -14 5 -27 11 -29 12 -6 5 27 34 39 34
7 0 6 5 -2 14 -13 14 -32 11 -23 -4 13 -21 -73 -28 -94 -7 -11 10 -12 8 -6
-10 5 -18 2 -23 -12 -23 -31 0 -93 21 -93 31 0 6 -20 7 -51 4 -48 -6 -50 -5
-39 14 6 12 15 21 21 21 6 0 8 4 4 10 -9 15 -35 0 -35 -21 0 -28 -19 -23 -38
10 -9 17 -26 32 -37 35 -17 4 -18 4 -4 -7z"/>
<path d="M720 360 c0 -5 -7 -10 -15 -10 -8 0 -15 -5 -15 -11 0 -8 11 -9 31 -5
17 3 35 6 40 6 5 0 9 7 9 15 0 9 -9 15 -25 15 -14 0 -25 -4 -25 -10z"/>
<path d="M2100 360 c0 -5 5 -10 10 -10 6 0 10 5 10 10 0 6 -4 10 -10 10 -5 0
-10 -4 -10 -10z"/>
<path d="M2563 344 c16 -14 31 -23 34 -20 7 6 -37 45 -52 46 -5 0 3 -12 18
-26z"/>
<path d="M2622 362 c-14 -9 -6 -42 10 -42 7 0 6 5 -1 13 -8 10 -7 17 1 25 14
14 9 15 -10 4z"/>
<path d="M115 345 c-22 -7 -31 -13 -20 -13 34 0 80 13 70 19 -5 4 -28 1 -50
-6z"/>
<path d="M218 353 c7 -3 16 -2 19 1 4 3 -2 6 -13 5 -11 0 -14 -3 -6 -6z"/>
<path d="M1600 350 c0 -5 4 -10 9 -10 6 0 13 5 16 10 3 6 -1 10 -9 10 -9 0
-16 -4 -16 -10z"/>
<path d="M1360 340 c0 -5 7 -10 16 -10 8 0 12 5 9 10 -3 6 -10 10 -16 10 -5 0
-9 -4 -9 -10z"/>
<path d="M2450 331 c0 -5 6 -11 13 -14 8 -3 14 1 14 9 0 8 -6 14 -14 14 -7 0
-13 -4 -13 -9z"/>
<path d="M238 318 c-2 -6 -30 -13 -62 -16 -32 -2 -53 -8 -46 -12 6 -4 -15 -10
-47 -14 -32 -4 -65 -11 -73 -17 -24 -16 106 1 169 22 60 21 101 24 101 9 0 -5
-10 -11 -22 -11 -18 -1 -19 -2 -5 -6 34 -9 48 3 35 32 -11 26 -43 34 -50 13z"/>
<path d="M1123 317 c0 -9 9 -12 24 -9 13 2 30 -1 38 -8 12 -10 15 -9 15 6 0
15 -9 20 -38 22 -27 1 -39 -2 -39 -11z"/>
<path d="M2385 320 c-3 -5 -2 -10 4 -10 5 0 13 5 16 10 3 6 2 10 -4 10 -5 0
-13 -4 -16 -10z"/>
<path d="M7 313 c7 -2 19 -2 26 0 6 3 1 5 -13 5 -14 0 -19 -2 -13 -5z"/>
<path d="M548 313 c6 -2 18 -2 25 0 6 3 1 5 -13 5 -14 0 -19 -2 -12 -5z"/>
<path d="M715 310 c-3 -5 -1 -10 4 -10 6 0 11 5 11 10 0 6 -2 10 -4 10 -3 0
-8 -4 -11 -10z"/>
<path d="M1376 312 c-2 -4 -1 -14 4 -22 7 -11 9 -9 7 8 -1 24 -3 26 -11 14z"/>
<path d="M1437 314 c7 -3 9 -13 5 -22 -5 -16 -5 -16 11 0 10 9 25 15 35 12 14
-5 15 -4 2 5 -8 6 -26 10 -40 10 -14 0 -20 -3 -13 -5z"/>
<path d="M1290 283 c0 -18 2 -33 4 -33 9 0 13 39 5 51 -6 10 -9 4 -9 -18z"/>
<path d="M1825 300 c-3 -5 -1 -10 4 -10 6 0 11 5 11 10 0 6 -2 10 -4 10 -3 0
-8 -4 -11 -10z"/>
<path d="M668 293 c6 -2 18 -2 25 0 6 3 1 5 -13 5 -14 0 -19 -2 -12 -5z"/>
<path d="M1402 290 c17 -49 18 -60 9 -60 -5 0 -15 8 -21 18 -8 14 -9 12 -6
-10 3 -15 8 -33 12 -39 3 -6 1 -15 -7 -19 -8 -6 0 -11 24 -15 20 -4 37 -13 37
-19 0 -9 19 -10 77 -4 63 7 80 6 92 -7 14 -13 13 -15 -4 -15 -11 0 -35 -9 -53
-20 -18 -11 -41 -20 -52 -20 -10 0 -22 -4 -25 -10 -3 -5 -15 -10 -26 -10 -10
0 -19 -4 -19 -10 0 -5 -10 -10 -22 -11 -22 0 -22 -1 -3 -8 12 -5 24 -3 33 5 7
8 32 19 55 25 23 6 44 14 47 18 3 3 43 21 90 40 122 48 260 113 260 123 0 13
-10 10 -77 -27 -34 -20 -63 -33 -63 -29 0 3 -6 2 -13 -4 -8 -7 -18 -7 -27 -2
-8 6 -21 10 -29 10 -11 0 -11 -3 -1 -15 14 -17 0 -21 -16 -5 -8 8 -15 6 -25
-6 -12 -16 -12 -17 3 -11 10 3 20 2 23 -2 3 -5 -2 -12 -11 -15 -23 -9 -36 -7
-29 4 3 6 1 10 -5 10 -7 0 -4 7 5 16 21 21 14 40 -15 36 -20 -2 -22 1 -16 30
3 18 3 28 -2 23 -18 -26 -78 2 -68 31 6 16 -18 13 -34 -5 -13 -13 -12 -14 3
-8 11 4 17 1 17 -8 0 -8 -6 -15 -12 -16 -7 0 -3 -4 10 -9 12 -5 22 -16 22 -24
0 -7 9 -16 21 -19 16 -4 18 -3 9 8 -7 8 -9 19 -5 25 11 17 25 11 25 -11 0 -12
8 -23 20 -26 11 -3 17 -9 14 -14 -3 -5 -9 -7 -14 -4 -5 3 -23 -1 -39 -10 -40
-20 -60 -19 -56 3 1 10 10 16 21 14 16 -2 16 0 -5 18 -25 22 -42 22 -49 2 -2
-7 2 -10 12 -6 12 4 15 2 10 -9 -8 -22 -35 -30 -51 -15 -7 8 -17 35 -22 62 -5
26 -14 53 -21 59 -10 9 -12 9 -8 -3z m28 -95 c0 -23 -14 -18 -26 10 -11 23
-10 24 7 14 10 -5 19 -16 19 -24z"/>
<path d="M1133 275 c-19 -21 -16 -27 7 -15 11 6 20 15 20 20 0 14 -13 12 -27
-5z"/>
<path d="M1320 280 c0 -5 5 -10 10 -10 6 0 10 5 10 10 0 6 -4 10 -10 10 -5 0
-10 -4 -10 -10z"/>
<path d="M1880 279 c0 -5 5 -7 10 -4 6 3 10 8 10 11 0 2 -4 4 -10 4 -5 0 -10
-5 -10 -11z"/>
<path d="M558 273 c6 -2 18 -2 25 0 6 3 1 5 -13 5 -14 0 -19 -2 -12 -5z"/>
<path d="M780 265 c-14 -6 -74 -24 -135 -39 -60 -14 -213 -51 -340 -81 -280
-68 -308 -75 -302 -81 5 -6 96 16 487 113 304 76 342 83 348 64 2 -5 10 -7 17
-5 8 3 29 1 47 -4 30 -10 149 -20 258 -22 41 -1 43 -2 20 -12 -18 -8 -21 -12
-10 -15 8 -3 21 -10 28 -16 9 -7 11 -5 6 8 -6 14 -4 16 6 10 10 -6 12 -4 8 7
-5 13 -3 14 17 4 21 -10 22 -12 7 -18 -15 -6 -15 -7 -1 -7 9 -1 21 5 27 12 9
10 3 17 -21 30 -24 12 -67 18 -172 21 -121 5 -233 21 -262 39 -4 3 -19 -1 -33
-8z"/>
<path d="M1222 260 c0 -14 2 -19 5 -12 2 6 2 18 0 25 -3 6 -5 1 -5 -13z"/>
<path d="M1933 266 c-13 -6 -23 -14 -23 -18 0 -8 48 10 65 24 13 12 -16 8 -42
-6z"/>
<path d="M2081 265 c-19 -6 -40 -20 -47 -30 -7 -9 -17 -14 -23 -10 -6 3 -11
-1 -11 -9 0 -22 6 -20 75 14 33 16 66 30 73 30 6 0 12 5 12 10 0 13 -36 11
-79 -5z"/>
<path d="M678 263 c6 -2 18 -2 25 0 6 3 1 5 -13 5 -14 0 -19 -2 -12 -5z"/>
<path d="M2285 260 c3 -5 10 -10 16 -10 5 0 9 5 9 10 0 6 -7 10 -16 10 -8 0
-12 -4 -9 -10z"/>
<path d="M2610 260 c0 -5 7 -7 15 -4 8 4 15 8 15 10 0 2 -7 4 -15 4 -8 0 -15
-4 -15 -10z"/>
<path d="M444 250 c-5 -5 -37 -14 -69 -19 -49 -7 -164 -32 -354 -76 -13 -3
-21 -8 -18 -11 2 -3 56 6 118 20 63 14 134 30 159 35 151 34 230 53 230 57 0
8 -56 4 -66 -6z"/>
<path d="M263 242 c-13 -2 -23 -7 -23 -11 0 -10 -22 -13 -85 -13 -38 0 -45 -2
-30 -9 15 -7 11 -8 -15 -4 -27 4 -31 2 -20 -6 11 -8 4 -9 -30 -5 -31 3 -39 2
-25 -4 19 -8 19 -9 -2 -9 -12 -1 -24 -5 -27 -10 -4 -5 21 -3 53 5 33 7 90 20
128 28 79 16 153 36 153 40 0 4 -49 3 -77 -2z"/>
<path d="M515 230 c-446 -99 -512 -115 -512 -127 0 -8 6 -12 14 -9 7 3 64 17
126 31 205 47 502 123 477 123 -14 0 -61 -8 -105 -18z"/>
<path d="M1260 238 c0 -5 7 -16 15 -24 8 -8 12 -21 9 -29 -4 -10 1 -12 18 -8
18 4 20 3 8 -6 -8 -6 -23 -11 -33 -11 -10 0 -16 -4 -12 -9 5 -8 60 3 74 15 2
2 -14 21 -37 42 -23 22 -42 35 -42 30z"/>
<path d="M1461 241 c-10 -6 -10 -10 -1 -16 13 -8 24 -1 19 14 -3 6 -10 7 -18
2z"/>
<path d="M2334 241 c3 -5 -17 -19 -44 -32 -28 -13 -50 -27 -50 -30 0 -3 -42
-28 -92 -54 -51 -26 -100 -54 -109 -61 -8 -8 -19 -14 -23 -14 -4 0 -12 -5 -19
-10 -7 -6 -21 -17 -32 -25 -19 -13 -19 -14 5 -8 14 3 27 10 30 14 5 8 134 85
217 130 84 46 97 53 116 68 19 16 22 31 6 31 -5 0 -8 -4 -5 -9z"/>
<path d="M2440 240 c0 -5 5 -10 10 -10 6 0 10 5 10 10 0 6 -4 10 -10 10 -5 0
-10 -4 -10 -10z"/>
<path d="M40 233 c-42 -8 -42 -19 0 -15 22 2 40 8 40 13 0 5 -3 8 -7 8 -5 -1
-19 -4 -33 -6z"/>
<path d="M780 230 c-20 -6 -21 -8 -5 -8 11 0 29 3 40 8 25 11 -1 11 -35 0z"/>
<path d="M2193 233 c-7 -2 -13 -9 -13 -14 0 -6 8 -6 19 1 24 12 44 13 37 1 -4
-5 3 -7 14 -4 11 3 20 8 20 12 0 7 -60 11 -77 4z"/>
<path d="M1363 211 c0 -11 5 -18 9 -15 4 3 5 11 1 19 -7 21 -12 19 -10 -4z"/>
<path d="M2110 220 c-8 -5 -10 -10 -5 -10 6 0 17 5 25 10 8 5 11 10 5 10 -5 0
-17 -5 -25 -10z"/>
<path d="M2550 214 c0 -14 3 -15 18 -3 9 7 19 15 21 16 2 2 -5 3 -17 3 -14 0
-22 -6 -22 -16z"/>
<path d="M2717 219 c7 -7 15 -10 18 -7 3 3 -2 9 -12 12 -14 6 -15 5 -6 -5z"/>
<path d="M716 203 c-6 -14 -5 -15 5 -6 7 7 10 15 7 18 -3 3 -9 -2 -12 -12z"/>
<path d="M1948 208 c-16 -5 -28 -14 -28 -19 0 -6 8 -6 19 1 11 5 26 10 33 10
7 0 -27 -20 -75 -45 -74 -37 -93 -42 -114 -34 -14 5 -28 7 -31 4 -3 -3 0 -5 7
-5 7 0 10 -4 6 -10 -3 -5 -13 -6 -23 -3 -14 5 -13 2 3 -11 21 -18 22 -18 -32
0 -16 5 -16 4 -3 -6 13 -10 11 -11 -8 -7 -12 3 -20 1 -16 -4 3 -5 0 -9 -5 -9
-6 0 -11 5 -11 11 0 5 -5 7 -10 4 -6 -4 -4 -12 5 -21 8 -9 15 -19 15 -23 0 -4
52 19 115 51 63 33 120 56 127 52 6 -4 8 -3 5 3 -4 6 10 18 33 27 28 11 38 20
34 31 -7 17 -9 17 -46 3z m-148 -102 c0 -2 -9 -6 -20 -9 -11 -3 -18 -1 -14 4
5 9 34 13 34 5z m-60 -30 c0 -2 -13 -9 -30 -15 -35 -12 -41 -5 -7 9 25 10 37
12 37 6z"/>
<path d="M980 200 c-21 -7 -19 -8 18 -9 23 -1 42 4 42 9 0 12 -24 12 -60 0z"/>
<path d="M2064 195 c-10 -8 -14 -14 -9 -15 15 0 40 18 34 24 -3 3 -14 -1 -25
-9z"/>
<path d="M2593 203 c-15 -5 -17 -23 -4 -23 5 0 11 7 15 15 3 8 4 15 3 14 -1 0
-8 -3 -14 -6z"/>
<path d="M620 189 c-14 -4 -137 -36 -275 -70 -137 -35 -261 -69 -275 -77 l-25
-14 25 7 c271 74 467 124 510 129 29 4 102 36 80 35 -8 -1 -26 -5 -40 -10z"/>
<path d="M780 191 c-8 -5 -32 -11 -52 -15 -21 -4 -38 -11 -38 -16 0 -6 -10
-10 -22 -10 -12 0 -19 -3 -15 -6 9 -9 139 26 157 43 13 11 13 13 0 13 -8 0
-22 -4 -30 -9z"/>
<path d="M2085 173 c-27 -14 -53 -30 -56 -35 -3 -5 -12 -10 -20 -12 -27 -5
-133 -61 -157 -83 -14 -13 -33 -23 -43 -23 -11 0 -19 -5 -19 -11 0 -16 43 -6
61 14 9 9 24 17 33 17 9 0 16 7 16 16 0 11 6 14 23 9 17 -5 19 -4 7 4 -13 9
-12 11 5 11 11 0 30 7 41 15 12 8 24 11 28 8 3 -3 6 -1 6 5 0 7 6 12 14 12 8
0 21 6 28 14 8 7 33 23 56 35 23 12 42 24 42 26 0 9 -14 4 -65 -22z"/>
<path d="M2185 190 c-3 -5 -2 -10 4 -10 5 0 13 5 16 10 3 6 2 10 -4 10 -5 0
-13 -4 -16 -10z"/>
<path d="M2320 175 c-25 -12 -67 -34 -95 -47 -58 -29 -134 -70 -149 -81 -6 -4
-20 -14 -31 -22 -17 -12 -18 -14 -3 -15 9 0 23 7 32 15 8 8 17 15 21 15 3 0
35 19 72 42 55 34 74 41 108 39 29 -2 53 4 76 18 40 24 31 28 -12 5 -17 -8
-38 -14 -47 -12 -11 2 0 12 30 27 44 21 70 42 51 40 -4 0 -28 -11 -53 -24z"/>
<path d="M1852 165 c-23 -14 -50 -25 -60 -25 -15 -1 -16 -1 -1 -10 12 -7 32
-2 73 19 31 15 53 31 49 34 -9 10 -14 9 -61 -18z"/>
<path d="M2395 179 c-4 -6 -5 -12 -2 -15 2 -3 7 2 10 11 7 17 1 20 -8 4z"/>
<path d="M928 173 c6 -2 18 -2 25 0 6 3 1 5 -13 5 -14 0 -19 -2 -12 -5z"/>
<path d="M1120 164 c0 -8 5 -12 10 -9 6 3 10 10 10 16 0 5 -4 9 -10 9 -5 0
-10 -7 -10 -16z"/>
<path d="M2690 150 c-19 -16 -30 -29 -24 -30 7 0 14 7 18 15 3 8 12 15 20 15
7 0 16 7 20 15 7 20 5 19 -34 -15z"/>
<path d="M871 154 c-12 -14 -11 -16 4 -12 10 1 20 9 23 16 5 17 -10 15 -27 -4z"/>
<path d="M1350 161 c0 -6 -5 -11 -11 -11 -14 0 -81 -31 -76 -36 1 -2 22 3 45
12 26 8 58 12 81 8 24 -4 41 -2 45 5 5 7 -2 11 -18 12 -34 2 -39 3 -53 12 -8
5 -13 4 -13 -2z"/>
<path d="M1986 155 c-25 -19 -16 -19 20 0 16 8 22 15 14 15 -8 -1 -24 -7 -34
-15z"/>
<path d="M2150 160 c-13 -8 -12 -10 3 -10 9 0 17 5 17 10 0 12 -1 12 -20 0z"/>
<path d="M794 151 c-10 -10 -155 -55 -167 -53 -4 1 -60 -14 -125 -34 -64 -19
-137 -42 -162 -49 -37 -11 -40 -14 -17 -14 15 -1 60 8 100 20 39 12 79 22 87
24 8 1 22 5 30 8 8 3 31 8 50 11 19 3 49 12 65 20 34 16 116 36 145 36 11 0
20 6 20 14 0 19 -14 28 -26 17z m-167 -67 c-3 -3 -12 -4 -19 -1 -8 3 -5 6 6 6
11 1 17 -2 13 -5z"/>
<path d="M1024 135 c-25 -19 -6 -19 37 0 32 13 32 14 8 15 -14 0 -34 -7 -45
-15z"/>
<path d="M2050 110 c-36 -22 -71 -39 -77 -40 -11 0 -20 -20 -9 -20 11 0 105
54 131 75 42 34 31 31 -45 -15z"/>
<path d="M585 130 c2 -4 -8 -7 -23 -7 -15 1 -99 -19 -187 -43 -88 -24 -189
-51 -225 -61 -73 -20 -38 -27 40 -8 25 6 74 18 110 25 82 18 82 18 98 27 6 5
30 9 52 9 35 0 39 2 28 16 -11 13 -10 14 9 4 16 -9 24 -9 29 -1 3 6 14 9 24 6
11 -3 17 0 14 7 -2 7 10 12 32 13 45 2 64 18 24 19 -16 1 -27 -2 -25 -6z"/>
<path d="M1210 130 c0 -5 4 -10 9 -10 6 0 13 5 16 10 3 6 -1 10 -9 10 -9 0
-16 -4 -16 -10z"/>
<path d="M1940 129 c0 -5 5 -7 10 -4 6 3 10 8 10 11 0 2 -4 4 -10 4 -5 0 -10
-5 -10 -11z"/>
<path d="M2717 133 c-13 -13 -7 -21 13 -16 11 3 20 9 20 14 0 10 -24 12 -33 2z"/>
<path d="M909 125 c-1 -3 -2 -8 -3 -12 -4 -20 -18 -31 -46 -35 -16 -2 -31 -1
-32 4 -4 11 -108 -12 -108 -23 0 -5 10 -5 23 0 12 4 36 11 52 15 l30 6 -25
-15 c-14 -8 -33 -14 -42 -15 -10 0 -18 -4 -18 -9 0 -6 -15 -11 -32 -13 -27 -2
-29 -4 -12 -9 11 -4 36 1 55 10 19 10 57 23 84 31 28 8 75 24 105 37 l55 23
-45 -6 c-33 -4 -41 -3 -30 5 10 7 11 11 3 11 -7 0 -14 -2 -14 -5z"/>
<path d="M1355 120 c-3 -6 1 -7 9 -4 18 7 21 14 7 14 -6 0 -13 -4 -16 -10z"/>
<path d="M1510 111 c-47 -17 -103 -48 -67 -37 11 3 30 9 44 12 33 9 102 43 83
42 -8 0 -35 -8 -60 -17z"/>
<path d="M2375 100 c-22 -16 -48 -29 -58 -30 -15 0 -16 -2 -5 -14 10 -11 15
-11 20 -1 4 7 21 18 38 25 16 7 30 16 30 21 0 5 6 9 14 9 8 0 18 5 21 10 12
20 -21 9 -60 -20z"/>
<path d="M2550 125 c0 -5 5 -17 10 -25 5 -8 10 -10 10 -5 0 6 -5 17 -10 25 -5
8 -10 11 -10 5z"/>
<path d="M1178 113 c7 -3 16 -2 19 1 4 3 -2 6 -13 5 -11 0 -14 -3 -6 -6z"/>
<path d="M1900 110 c-8 -5 -25 -10 -36 -10 -12 0 -27 -7 -34 -15 -14 -17 -8
-19 18 -6 9 5 33 16 52 24 19 9 31 16 25 16 -5 0 -17 -4 -25 -9z"/>
<path d="M1110 93 c-13 -15 -12 -16 4 -10 10 4 22 7 27 7 5 0 9 5 9 10 0 15
-23 11 -40 -7z"/>
<path d="M1220 99 c0 -5 5 -7 10 -4 6 3 10 8 10 11 0 2 -4 4 -10 4 -5 0 -10
-5 -10 -11z"/>
<path d="M1428 103 c7 -3 16 -2 19 1 4 3 -2 6 -13 5 -11 0 -14 -3 -6 -6z"/>
<path d="M2235 95 c-16 -9 -34 -21 -40 -28 -5 -7 -35 -24 -65 -39 -30 -15 -48
-28 -40 -28 8 0 28 7 44 15 15 8 37 15 47 15 11 0 22 6 25 14 3 8 15 16 26 19
11 3 17 10 13 16 -3 6 1 11 9 11 9 0 16 5 16 10 0 13 1 13 -35 -5z"/>
<path d="M2280 106 c0 -2 7 -6 15 -10 8 -3 15 -1 15 4 0 6 -7 10 -15 10 -8 0
-15 -2 -15 -4z"/>
<path d="M1274 88 c-4 -7 -4 -10 1 -6 4 4 14 3 22 -4 11 -8 12 -7 7 6 -7 19
-20 21 -30 4z"/>
<path d="M2428 82 c-15 -9 -29 -26 -32 -37 -4 -18 -3 -18 11 3 8 12 21 22 28
22 7 0 15 7 19 15 3 8 4 15 3 14 -1 0 -14 -8 -29 -17z"/>
<path d="M1184 79 c14 -9 16 -13 5 -20 -7 -4 -10 -11 -6 -16 11 -10 27 17 20
34 -3 7 -13 13 -22 13 -13 -1 -13 -2 3 -11z"/>
<path d="M973 73 c9 -2 25 -2 35 0 9 3 1 5 -18 5 -19 0 -27 -2 -17 -5z"/>
<path d="M2268 73 c7 -3 16 -2 19 1 4 3 -2 6 -13 5 -11 0 -14 -3 -6 -6z"/>
<path d="M915 60 c-3 -5 -1 -10 4 -10 6 0 11 5 11 10 0 6 -2 10 -4 10 -3 0 -8
-4 -11 -10z"/>
<path d="M1600 53 c0 -8 12 -13 30 -13 17 0 30 5 30 10 0 6 -3 10 -7 11 -5 0
-18 2 -30 3 -14 2 -23 -3 -23 -11z"/>
<path d="M1778 63 c-10 -2 -18 -9 -18 -14 0 -13 12 -11 34 6 20 15 16 17 -16
8z"/>
<path d="M2705 60 c3 -5 8 -10 11 -10 2 0 4 5 4 10 0 6 -5 10 -11 10 -5 0 -7
-4 -4 -10z"/>
<path d="M630 40 c8 -5 22 -9 30 -9 10 0 8 3 -5 9 -27 12 -43 12 -25 0z"/>
<path d="M837 33 c-26 -9 -45 -18 -43 -21 5 -5 106 27 106 34 0 6 -11 4 -63
-13z"/>
<path d="M1335 30 c-20 -13 -25 -20 -13 -20 15 0 48 25 48 36 0 6 -3 5 -35
-16z"/>
<path d="M1115 29 c-11 -16 -1 -19 13 -3 7 8 8 14 3 14 -5 0 -13 -5 -16 -11z"/>
<path d="M1720 36 c0 -2 9 -6 20 -9 11 -3 18 -1 14 4 -5 9 -34 13 -34 5z"/>
<path d="M550 14 c-60 -13 -33 -17 40 -6 25 4 38 10 30 13 -8 2 -40 -1 -70 -7z"/>
<path d="M905 10 c-26 -7 -24 -8 18 -7 26 0 47 4 47 9 0 9 -23 9 -65 -2z"/>
<path d="M1630 9 c-22 -6 -20 -7 13 -8 20 -1 37 3 37 7 0 10 -17 11 -50 1z"/>
<path d="M58 3 c7 -3 16 -2 19 1 4 3 -2 6 -13 5 -11 0 -14 -3 -6 -6z"/>
</g>
</svg>
