<?xml version="1.0" standalone="no"?>
<!DOCTYPE svg PUBLIC "-//W3C//DTD SVG 20010904//EN"
 "http://www.w3.org/TR/2001/REC-SVG-20010904/DTD/svg10.dtd">
<svg version="1.0" xmlns="http://www.w3.org/2000/svg"
 width="992.000000pt" height="558.000000pt" viewBox="0 0 992.000000 558.000000"
 preserveAspectRatio="xMidYMid meet">

<g transform="translate(0.000000,558.000000) scale(0.100000,-0.100000)"
fill="#000000" stroke="none">
<path d="M0 2790 l0 -2790 4960 0 4960 0 0 2790 0 2790 -1006 0 -1007 0 5 -50
c4 -40 2 -53 -11 -60 -13 -7 -14 -12 -3 -29 7 -13 8 -21 2 -21 -5 0 -10 -18
-10 -40 0 -30 4 -40 16 -40 14 0 16 -9 11 -62 -4 -42 -2 -57 4 -47 7 10 8 7 3
-11 -4 -14 -7 -29 -7 -35 2 -66 16 -262 19 -267 5 -8 -16 -49 -30 -60 -5 -3
-3 -20 6 -39 9 -18 14 -38 11 -46 -3 -7 2 -13 11 -13 20 0 21 -16 2 -23 -16
-6 -22 -114 -18 -302 2 -73 -1 -115 -6 -107 -7 11 -11 10 -16 -4 -4 -11 -2
-20 3 -22 6 -2 11 -21 11 -42 0 -22 5 -40 13 -43 9 -3 7 -9 -5 -24 -19 -21
-24 -82 -9 -98 11 -12 2 -115 -9 -115 -4 0 -11 37 -14 83 -4 45 -9 99 -12 120
-4 23 -2 37 5 37 16 0 13 61 -4 111 -10 28 -17 86 -18 156 -1 62 -5 113 -10
113 -4 0 -6 10 -4 23 2 12 2 16 0 9 -3 -10 -18 -13 -48 -10 -28 2 -41 -1 -38
-8 2 -6 -4 -17 -13 -25 -14 -11 -18 -11 -30 5 -7 11 -11 23 -8 27 3 5 -2 22
-11 38 -8 17 -15 50 -15 76 0 39 -3 45 -21 45 -13 0 -18 4 -13 12 4 7 8 43 8
80 1 58 -1 68 -16 68 -15 0 -18 9 -18 50 0 28 -4 50 -10 50 -5 0 -10 9 -10 20
0 11 5 20 10 20 15 0 13 100 -2 100 -8 0 -6 4 3 10 14 8 16 25 13 112 -6 136
-5 131 -17 146 -18 23 -37 -7 -37 -59 0 -37 4 -49 15 -49 8 0 15 -5 15 -11 0
-6 -7 -8 -17 -5 -26 10 -33 -12 -33 -119 -1 -60 -7 -116 -15 -140 -18 -49 -20
-125 -3 -125 9 0 9 -3 0 -12 -7 -7 -12 -22 -12 -34 0 -13 -4 -25 -9 -28 -13
-9 -21 -77 -11 -97 6 -10 6 -20 1 -23 -13 -8 -22 -61 -27 -150 -2 -43 -10 -91
-18 -107 -9 -17 -10 -29 -4 -29 6 0 7 -8 3 -17 -16 -40 -35 -240 -41 -418 -3
-104 -7 -207 -9 -227 -2 -21 0 -40 4 -42 12 -8 7 -421 -5 -437 -16 -20 -24
-59 -12 -59 7 0 7 -4 0 -12 -5 -7 -12 -31 -14 -53 -3 -22 -15 -87 -28 -145
-12 -58 -22 -113 -22 -123 0 -10 -6 -21 -14 -24 -8 -3 -14 -18 -14 -33 0 -16
-9 -49 -20 -74 -23 -54 -52 -188 -42 -196 4 -3 8 -12 8 -20 1 -8 5 -28 9 -43
6 -23 4 -29 -13 -34 -13 -3 -22 -16 -26 -38 -4 -19 -13 -47 -21 -62 -8 -15
-15 -40 -15 -54 0 -14 -12 -39 -26 -54 -25 -27 -26 -33 -20 -91 4 -39 3 -65
-4 -69 -5 -3 -10 -21 -10 -38 0 -18 -7 -45 -15 -61 -8 -15 -15 -30 -15 -31 0
-6 85 38 91 47 4 6 31 11 60 12 60 1 67 -4 132 -89 41 -53 45 -65 21 -65 -8 0
-13 -4 -9 -9 3 -6 -3 -14 -12 -20 -36 -21 26 -12 69 10 70 36 188 13 188 -37
0 -7 -13 -25 -30 -41 -16 -15 -30 -32 -30 -36 0 -4 -12 -19 -26 -32 -19 -18
-38 -25 -65 -25 -22 0 -39 5 -39 10 0 6 -11 8 -25 4 -17 -4 -25 -2 -26 7 -5
39 -3 55 4 66 5 7 6 16 3 21 -6 10 -100 27 -124 23 -20 -3 -62 27 -62 44 0 8
-11 22 -24 30 -26 17 -50 11 -75 -18 -17 -22 -33 -177 -20 -194 6 -7 9 -22 6
-33 -5 -19 16 -30 26 -12 2 4 2 1 0 -6 -1 -8 -3 -29 -3 -48 0 -27 -4 -34 -20
-34 -12 0 -20 -7 -21 -17 -1 -10 -2 -22 -4 -28 -1 -5 -3 -16 -3 -22 -1 -7 -14
-13 -29 -13 -14 0 -24 -3 -20 -6 3 -4 68 -7 144 -9 125 -2 315 -24 329 -38 3
-3 -4 -8 -15 -12 -23 -7 -29 -25 -8 -25 6 -1 -5 -10 -27 -20 -21 -11 -42 -18
-45 -15 -10 6 -91 -13 -126 -30 -23 -10 -40 -11 -75 -3 -25 6 -91 12 -147 15
-102 5 -103 5 -140 -25 -21 -16 -55 -35 -75 -41 -21 -7 -38 -16 -38 -20 0 -5
-24 -16 -52 -25 -66 -20 -125 -8 -134 28 -10 43 4 131 34 206 17 41 47 129 68
195 30 97 37 135 36 197 -1 52 3 82 12 91 40 40 92 220 81 281 -3 17 1 64 9
104 9 40 16 91 16 112 0 21 5 42 10 45 36 22 124 273 139 395 16 128 13 206
-13 311 -34 134 -82 227 -191 369 -27 36 -59 77 -70 92 -102 140 -187 237
-207 238 -15 0 -8 -27 12 -53 24 -30 26 -51 5 -43 -25 9 -17 -23 17 -66 67
-86 116 -168 98 -168 -5 0 -10 4 -10 9 0 4 -18 20 -41 35 -25 17 -47 43 -58
69 -11 23 -35 58 -55 77 -31 29 -38 32 -46 20 -18 -29 -10 3 16 61 15 33 30
59 35 59 5 0 6 6 3 14 -6 16 71 106 91 106 27 0 27 54 1 72 -6 4 -27 5 -47 2
-32 -5 -38 -3 -44 15 -3 11 -3 31 1 43 6 19 7 19 16 5 5 -10 15 -17 22 -17 8
0 17 -7 20 -16 4 -10 13 -13 26 -9 15 5 21 0 26 -19 3 -14 10 -26 14 -26 15 0
23 76 25 230 1 85 5 184 9 220 11 91 -14 248 -54 344 -50 120 -117 165 -218
146 -65 -11 -168 -100 -209 -180 -19 -37 -23 -42 -53 -79 -11 -13 -20 -30 -20
-37 0 -7 -4 -14 -10 -16 -12 -4 -80 -165 -80 -190 0 -10 -4 -18 -9 -18 -5 0
-12 -19 -16 -42 -4 -24 -12 -49 -19 -57 -8 -11 -8 -15 1 -18 20 -7 3 -32 -19
-28 -12 3 -27 -3 -35 -13 -8 -9 -11 -11 -7 -3 5 11 3 13 -10 8 -10 -4 -25 -7
-34 -8 -9 0 1 -8 23 -18 22 -10 42 -18 45 -18 3 0 16 -5 29 -13 21 -11 26 -10
38 6 12 16 13 16 13 1 0 -9 4 -17 10 -17 5 0 7 6 5 13 -3 6 -1 18 4 26 8 12
11 12 25 -1 8 -9 12 -19 8 -23 -4 -5 -1 -5 6 -1 7 4 10 11 7 16 -3 5 0 12 7
16 7 4 10 4 6 0 -13 -15 16 -35 34 -25 16 8 17 7 8 -16 -6 -16 -6 -24 0 -20
14 9 49 -17 43 -32 -3 -7 -12 -13 -20 -13 -8 0 -11 -5 -8 -11 5 -7 13 -5 24 5
16 14 17 13 16 -12 0 -19 -5 -27 -18 -26 -9 1 -17 -2 -17 -7 0 -5 9 -9 21 -9
11 0 18 -4 14 -9 -3 -5 0 -13 6 -16 5 -4 8 -13 5 -21 -3 -9 1 -14 13 -14 17 0
18 -3 8 -25 -12 -24 -37 -35 -37 -16 0 5 -10 12 -22 14 l-23 4 23 2 c12 0 22
5 22 10 0 4 -12 6 -26 3 -21 -4 -25 -2 -19 8 6 10 4 12 -8 7 -11 -4 -17 -1
-17 7 0 8 -7 16 -15 20 -8 3 -15 1 -15 -4 0 -16 5 -25 12 -23 3 1 9 -4 12 -12
7 -20 -33 -20 -48 -1 -7 9 -18 11 -31 6 -11 -5 -14 -9 -7 -9 7 -1 20 -8 28
-16 14 -13 13 -15 -3 -16 -11 0 -7 -5 12 -11 17 -6 33 -16 37 -22 4 -6 8 -8 8
-4 0 10 70 -55 70 -65 0 -4 -10 -2 -22 4 -19 9 -21 9 -10 -2 14 -16 16 -33 2
-24 -6 3 -10 0 -10 -7 0 -8 -26 -19 -65 -28 -36 -9 -65 -12 -65 -8 0 4 6 8 14
8 8 0 22 7 31 16 14 15 14 18 -7 36 -13 11 -24 15 -26 9 -5 -16 -22 -13 -22 4
0 8 7 15 16 15 14 0 14 2 0 15 -8 8 -23 15 -34 15 -11 0 -22 6 -25 14 -4 9
-16 13 -32 11 -16 -1 -29 3 -32 11 -3 8 -9 11 -14 8 -6 -3 -7 5 -3 22 5 19 4
25 -5 20 -6 -4 -11 -1 -11 8 0 9 -6 16 -14 16 -23 0 -81 57 -64 63 7 3 1 6
-14 7 -16 2 -32 4 -38 5 -5 1 -15 3 -21 4 -8 1 -8 5 0 15 9 10 9 20 0 40 -9
19 -15 23 -21 14 -6 -10 -10 -10 -18 2 -6 10 -8 4 -3 -22 4 -31 3 -38 -10 -38
-24 0 -42 39 -22 46 20 8 20 24 0 24 -24 0 -97 -39 -127 -69 -26 -25 -36 -60
-21 -74 3 -4 12 1 19 11 9 11 13 13 14 4 0 -7 -6 -20 -14 -28 -13 -12 -17 -12
-32 3 -17 17 -18 17 -11 1 3 -10 2 -18 -3 -18 -5 0 -6 -7 -3 -17 4 -11 3 -14
-5 -9 -17 10 -62 -4 -62 -21 0 -8 -3 -12 -7 -10 -5 3 -15 -2 -23 -11 -13 -14
-12 -15 3 -9 22 8 32 -10 14 -27 -8 -9 -19 -11 -28 -6 -7 5 -18 5 -25 -1 -7
-6 -18 -9 -26 -8 -30 4 -48 -2 -48 -16 0 -9 -9 -15 -22 -15 -24 0 -63 -20 -40
-20 6 0 12 -8 12 -19 0 -27 -53 -34 -69 -9 -7 11 -7 18 -1 18 5 0 10 7 10 16
0 10 5 14 16 10 9 -3 12 -2 9 5 -6 9 61 79 76 79 3 0 4 12 1 26 -3 19 -1 25 7
20 6 -4 11 -3 11 2 0 20 -29 21 -35 1 -4 -10 -9 -19 -13 -20 -4 0 -15 -2 -25
-4 -15 -3 -16 -1 -6 11 9 11 8 14 -5 14 -14 0 -21 11 -17 33 2 12 -18 8 -26
-7 -4 -7 -15 -16 -23 -20 -8 -3 -3 -4 13 -2 15 2 27 -1 27 -5 0 -5 -5 -9 -10
-9 -7 0 -7 -6 -1 -17 6 -13 5 -22 -5 -31 -12 -11 -15 -8 -20 17 -4 17 -10 31
-15 31 -5 0 -6 -7 -3 -15 4 -10 0 -15 -12 -16 -18 0 -17 -1 1 -9 19 -8 19 -9
-2 -9 -29 -1 -34 27 -10 62 10 15 15 27 11 27 -3 0 -1 7 6 15 7 8 16 13 20 10
5 -3 11 -1 15 4 3 6 13 8 23 5 14 -5 14 -4 2 4 -8 6 -17 9 -21 6 -4 -2 -11 1
-15 8 -4 7 -4 10 1 6 4 -4 14 0 22 10 8 9 12 11 8 5 -4 -8 -1 -11 9 -7 8 3 12
12 10 19 -5 12 53 75 69 75 5 0 5 5 1 12 -5 7 -2 9 9 5 11 -4 14 -2 10 9 -6
17 1 18 30 2 20 -10 21 -10 8 5 -12 15 -11 17 6 17 10 0 23 -4 28 -9 6 -6 15
-4 22 4 10 10 7 14 -13 19 -45 12 -29 26 34 27 25 1 28 11 9 27 -7 6 -19 27
-27 47 -7 19 -17 35 -22 35 -4 0 -8 9 -8 20 0 11 -4 20 -10 20 -5 0 -9 3 -9 8
5 27 -3 52 -16 52 -9 0 -15 9 -15 25 0 14 -4 25 -10 25 -5 0 -17 16 -26 35 -9
19 -23 35 -30 35 -8 0 -14 7 -14 16 0 21 -35 65 -45 56 -5 -4 -5 -1 -1 6 10
17 -87 111 -152 146 -46 24 -62 28 -108 24 -45 -4 -61 -11 -90 -39 -38 -37
-58 -72 -70 -121 -10 -42 -9 -40 -19 -61 -18 -41 17 -307 40 -307 5 0 5 -4 -2
-8 -7 -4 -10 -17 -6 -31 4 -14 8 -19 13 -11 4 6 11 -21 15 -62 16 -138 18
-150 30 -186 4 -14 13 -21 21 -18 11 4 10 -1 -3 -20 -14 -22 -14 -27 -2 -35 8
-5 10 -9 4 -9 -5 0 -4 -5 3 -12 10 -10 22 -2 58 35 25 26 50 45 55 41 6 -3 17
2 25 12 13 18 15 18 25 1 5 -9 14 -15 19 -12 11 7 23 -32 14 -46 -5 -9 -11 -6
-21 6 -12 18 -13 18 -13 -4 0 -13 -4 -20 -11 -16 -6 4 -8 13 -5 21 8 21 -17
12 -29 -11 -8 -14 -19 -19 -38 -17 -15 2 -27 -1 -27 -7 0 -5 -9 -13 -20 -16
-11 -3 -20 -14 -20 -23 0 -21 63 -89 91 -97 10 -4 19 -15 19 -26 0 -11 14 -34
31 -51 37 -38 49 -66 49 -120 0 -32 3 -39 15 -34 8 3 15 1 15 -4 0 -6 -6 -10
-14 -10 -45 0 -52 -195 -11 -316 17 -50 22 -80 16 -82 -6 -2 -11 -12 -11 -22
0 -10 -4 -21 -9 -24 -5 -4 -17 -32 -26 -64 -9 -31 -23 -77 -32 -102 -8 -25
-19 -63 -23 -85 -4 -22 -13 -60 -21 -85 -9 -30 -14 -97 -13 -205 0 -153 1
-163 28 -230 16 -38 47 -101 69 -139 39 -66 41 -72 49 -190 4 -66 12 -140 18
-164 12 -47 62 -143 85 -162 8 -7 15 -16 15 -21 0 -4 13 -27 28 -51 82 -123
154 -420 113 -461 -8 -8 -11 -8 -11 2 0 10 -10 11 -37 7 -21 -4 -57 -6 -80 -6
-31 1 -47 -5 -62 -22 -28 -29 -26 -40 10 -67 29 -21 30 -24 15 -39 -15 -15
-19 -15 -51 2 -40 22 -115 18 -144 -8 -10 -9 -23 -16 -29 -16 -7 0 -21 -9 -31
-19 -19 -19 -19 -19 7 -29 15 -5 47 -10 71 -10 66 -1 69 -17 7 -32 -41 -10
-62 -10 -86 -1 -18 6 -50 11 -70 11 -43 0 -100 18 -100 31 0 6 -10 0 -22 -11
-18 -17 -33 -20 -73 -18 -42 3 -50 6 -50 23 0 16 8 21 47 25 50 6 70 17 51 28
-6 4 18 8 53 8 35 1 64 -2 64 -7 0 -5 5 -9 11 -9 5 0 7 5 4 10 -3 5 0 10 8 10
8 0 17 7 21 15 3 8 12 15 19 15 8 0 26 9 41 21 39 30 33 75 -12 96 -29 14 -43
15 -91 5 -32 -7 -79 -12 -105 -12 -45 0 -110 -22 -122 -41 -3 -5 4 -22 15 -38
12 -16 21 -31 21 -34 0 -12 -215 -18 -421 -12 -203 7 -231 10 -250 26 -23 20
-99 27 -99 9 0 -17 -29 -11 -50 10 -11 11 -46 27 -78 34 -86 21 -137 40 -136
51 1 6 -6 16 -15 23 -14 11 -14 13 4 27 11 8 25 19 31 24 6 5 20 11 30 13 19
5 19 5 0 13 -13 6 -21 4 -24 -3 -5 -17 -91 -15 -98 2 -3 8 -17 17 -32 21 -32
8 -91 73 -92 101 0 12 11 33 25 48 14 15 25 34 25 42 0 8 9 14 21 14 19 0 21
4 16 35 -3 19 -14 43 -24 55 -23 24 -103 50 -156 50 -23 0 -51 8 -67 20 -15
10 -45 22 -68 26 -22 3 -53 14 -69 24 -32 19 -83 114 -75 142 6 24 52 48 90
48 16 0 43 5 61 11 27 9 41 7 99 -16 37 -15 73 -31 79 -37 23 -19 60 0 81 42
22 44 22 43 -48 79 -44 23 -47 23 -93 7 -59 -20 -90 -20 -127 -1 -17 9 -31 15
-32 14 -2 -1 -13 4 -25 12 -14 8 -23 24 -23 39 0 14 -7 33 -14 43 -8 10 -12
26 -9 37 3 10 -4 38 -15 62 -23 50 -46 143 -38 156 3 5 -12 44 -33 88 -31 63
-38 92 -40 144 -2 61 -16 132 -31 155 -4 6 -13 43 -20 82 -11 61 -11 85 0 145
17 94 18 135 3 176 -21 55 -29 179 -41 622 -9 338 -12 363 -54 373 -10 3 -18
14 -18 25 0 10 -9 31 -20 45 -11 14 -20 34 -20 45 0 12 -9 23 -20 27 -21 7
-27 21 -10 27 5 2 7 13 4 25 -4 13 -11 20 -16 17 -6 -4 -14 0 -19 7 -13 20
-11 29 6 29 12 0 10 7 -7 38 -46 81 -48 87 -42 129 3 23 1 49 -5 60 -10 17
-10 17 -11 1 0 -21 -15 -24 -26 -6 -4 6 -2 14 4 16 19 6 14 93 -7 125 -12 18
-21 25 -26 18 -9 -16 -28 -2 -21 15 4 11 -1 13 -19 8 -27 -7 -33 4 -13 24 8 8
8 15 -2 28 -14 16 -15 68 -11 329 1 54 -3 91 -9 93 -5 2 -10 34 -10 72 0 38
-5 92 -11 120 l-11 50 -1219 0 -1219 0 0 -2790z m7537 2083 c-3 -10 -5 -2 -5
17 0 19 2 27 5 18 2 -10 2 -26 0 -35z m-4994 -100 c-7 -2 -19 -2 -25 0 -7 3
-2 5 12 5 14 0 19 -2 13 -5z m2521 -229 c3 -8 2 -12 -4 -9 -6 3 -10 10 -10 16
0 14 7 11 14 -7z m1296 6 c0 -5 -2 -10 -4 -10 -3 0 -8 5 -11 10 -3 6 -1 10 4
10 6 0 11 -4 11 -10z m-1310 -41 c0 -6 -4 -7 -10 -4 -5 3 -10 11 -10 16 0 6 5
7 10 4 6 -3 10 -11 10 -16z m26 -18 c-4 -6 -13 -11 -19 -10 -9 0 -9 2 0 5 7 3
9 13 6 22 -5 13 -3 14 7 5 7 -6 9 -16 6 -22z m1231 -7 c-3 -3 -12 -4 -19 -1
-8 3 -5 6 6 6 11 1 17 -2 13 -5z m-1177 -36 c0 7 4 12 8 12 15 0 7 -53 -8 -58
-8 -3 -12 -1 -8 3 4 5 2 15 -4 23 -7 8 -13 21 -14 31 -2 13 0 12 12 -3 8 -11
14 -14 14 -8z m1267 -15 c-10 -22 -13 -24 -15 -9 -2 10 2 22 10 27 19 12 19
12 5 -18z m-1317 -2 c0 -5 -7 -12 -16 -15 -24 -9 -28 -7 -14 9 14 17 30 20 30
6z m90 -46 c11 -13 10 -14 -4 -9 -9 3 -16 10 -16 15 0 13 6 11 20 -6z m844
-66 c-31 -12 -39 -10 -19 5 11 8 24 12 29 8 5 -3 1 -9 -10 -13z m-389 -119 c3
-5 1 -10 -4 -10 -6 0 -11 5 -11 10 0 6 2 10 4 10 3 0 8 -4 11 -10z m635 -30
c0 -8 -22 -30 -31 -30 -4 0 -5 8 -2 18 4 17 33 27 33 12z m-614 -27 c-10 -10
-19 5 -10 18 6 11 8 11 12 0 2 -7 1 -15 -2 -18z m2288 12 c3 -8 1 -15 -4 -15
-6 0 -10 7 -10 15 0 8 2 15 4 15 2 0 6 -7 10 -15z m-1664 -20 c0 -8 -7 -15
-16 -15 -14 0 -14 3 -4 15 7 8 14 15 16 15 2 0 4 -7 4 -15z m-640 -25 c0 -5
-4 -10 -10 -10 -5 0 -10 5 -10 10 0 6 5 10 10 10 6 0 10 -4 10 -10z m677 -26
c-3 -3 -12 -4 -19 -1 -8 3 -5 6 6 6 11 1 17 -2 13 -5z m-177 -31 c0 -10 -4
-14 -8 -8 -4 6 -11 13 -16 18 -5 4 -2 7 7 7 10 0 17 -8 17 -17z m98 -7 c13 8
20 8 30 -2 19 -20 -2 -26 -66 -18 -31 4 -51 9 -44 11 6 3 10 8 7 13 -3 5 8 3
25 -3 22 -8 35 -9 48 -1z m77 5 c3 -5 1 -12 -4 -15 -5 -3 -11 1 -15 9 -6 16 9
21 19 6z m-1105 -11 c-12 -8 -12 -10 -1 -10 8 0 12 -3 8 -6 -3 -4 -14 -3 -24
0 -15 6 -15 8 -3 16 8 6 20 10 25 10 6 0 3 -5 -5 -10z m-90 -30 c0 -5 -2 -10
-4 -10 -3 0 -8 5 -11 10 -3 6 -1 10 4 10 6 0 11 -4 11 -10z m60 0 c0 -5 -4
-10 -10 -10 -5 0 -10 5 -10 10 0 6 5 10 10 10 6 0 10 -4 10 -10z m-90 -4 c0
-2 -7 -7 -16 -10 -8 -3 -12 -2 -9 4 6 10 25 14 25 6z m1202 -40 c6 4 5 -3 -1
-15 -11 -19 -14 -20 -27 -6 -9 8 -20 15 -25 15 -6 0 -7 5 -3 11 4 8 9 7 15 -2
7 -11 9 -11 9 -1 0 7 -8 16 -17 19 -15 6 -14 7 3 13 14 6 21 2 27 -16 5 -13
13 -21 19 -18z m-1192 14 c0 -5 -2 -10 -4 -10 -3 0 -8 5 -11 10 -3 6 -1 10 4
10 6 0 11 -4 11 -10z m-26 -35 c-4 -8 -7 -15 -9 -15 -2 0 -5 7 -9 15 -3 9 0
15 9 15 9 0 12 -6 9 -15z m46 2 c0 -7 -9 -18 -20 -25 -11 -7 -20 -8 -20 -3 0
6 5 13 10 16 6 4 8 11 5 16 -4 5 1 9 9 9 9 0 16 -6 16 -13z m143 -4 c-7 -2
-19 -2 -25 0 -7 3 -2 5 12 5 14 0 19 -2 13 -5z m-199 -53 c-6 -5 -24 21 -24
34 0 6 6 1 14 -10 8 -10 12 -21 10 -24z m80 -44 c-3 -8 -13 -17 -22 -21 -13
-5 -13 -2 3 15 21 24 26 25 19 6z m-110 -12 c3 -8 2 -12 -4 -9 -6 3 -10 10
-10 16 0 14 7 11 14 -7z m36 1 c0 -8 -4 -15 -10 -15 -5 0 -7 7 -4 15 4 8 8 15
10 15 2 0 4 -7 4 -15z m1046 5 c8 0 14 -4 14 -9 0 -6 -8 -10 -17 -9 -10 0 -34
-3 -53 -7 l-35 -6 24 21 c13 11 31 18 38 15 8 -3 21 -5 29 -5z m-868 -22 c19
-19 15 -25 -18 -30 -34 -5 -34 -4 -20 23 12 22 21 24 38 7z m-58 -19 c-7 -11
-14 -18 -17 -15 -8 8 5 36 17 36 7 0 7 -6 0 -21z m489 -26 c3 -5 21 -9 39 -10
19 0 48 -13 70 -29 20 -16 40 -29 44 -29 3 0 10 -3 14 -7 4 -5 -3 -8 -16 -8
-12 0 -28 6 -34 13 -12 15 -119 39 -176 40 -19 0 -53 -8 -75 -18 -22 -10 -44
-19 -48 -19 -5 -1 -15 -10 -23 -20 -7 -11 -17 -16 -21 -13 -4 4 -1 13 5 19 15
15 16 32 2 23 -5 -3 -10 -4 -10 -1 0 9 96 58 130 65 39 9 91 6 99 -6z m537 0
c-12 -53 -21 -65 -59 -80 -42 -17 -90 -20 -121 -8 -10 4 -21 4 -25 -1 -10 -14
-39 -16 -47 -3 -4 8 -3 9 4 5 7 -4 12 -5 12 -2 0 3 -21 15 -46 26 -52 24 -54
34 -5 20 22 -6 38 -6 50 2 13 8 26 5 56 -11 22 -11 48 -21 58 -21 31 0 75 28
94 60 19 33 35 40 29 13z m34 3 c0 -3 -4 -8 -10 -11 -5 -3 -10 -1 -10 4 0 6 5
11 10 11 6 0 10 -2 10 -4z m-1067 -95 c21 -11 32 -12 52 -3 31 14 35 15 35 3
0 -11 -56 -30 -85 -28 -17 0 -76 47 -60 47 3 0 3 6 -2 13 -10 17 -13 39 -6 51
4 5 14 -8 23 -30 10 -21 29 -45 43 -53z m953 61 c-8 -13 -63 -20 -78 -10 -8 4
4 8 30 8 25 0 42 5 42 12 0 6 3 9 6 5 3 -3 3 -10 0 -15z m-962 -7 c7 -18 57
-20 75 -2 11 10 13 9 9 -2 -2 -8 -17 -19 -32 -24 -24 -8 -32 -5 -54 17 -15 14
-22 26 -15 26 6 0 13 -7 17 -15z m186 -15 c0 -5 -5 -10 -11 -10 -5 0 -7 5 -4
10 3 6 8 10 11 10 2 0 4 -4 4 -10z m-46 -19 c3 -5 -1 -12 -10 -15 -20 -8 -29
-1 -19 13 8 13 22 14 29 2z m1152 -2 c3 -6 0 -15 -7 -20 -14 -9 -12 -10 19
-13 22 -2 62 -28 62 -40 0 -5 -9 -1 -20 9 -14 13 -23 15 -32 7 -10 -7 -20 -4
-39 12 -20 18 -23 25 -15 39 13 20 22 21 32 6z m-711 -19 c10 -8 28 -14 39
-13 12 1 15 0 9 -3 -7 -3 -13 -10 -13 -16 0 -5 -6 -16 -14 -24 -12 -11 -20
-12 -40 -3 -13 6 -22 17 -20 23 3 9 -23 12 -96 12 -96 -1 -101 -2 -106 -23 -4
-13 -12 -23 -18 -23 -17 0 -36 21 -36 39 0 8 3 12 6 9 3 -4 22 5 42 19 34 23
44 24 133 21 67 -2 102 -8 114 -18z m583 -45 c-3 -3 -9 2 -12 12 -6 14 -5 15
5 6 7 -7 10 -15 7 -18z m-474 7 c3 -5 -1 -9 -9 -9 -8 0 -15 4 -15 9 0 4 4 8 9
8 6 0 12 -4 15 -8z m-484 -16 c0 -3 -4 -8 -10 -11 -5 -3 -10 -1 -10 4 0 6 5
11 10 11 6 0 10 -2 10 -4z m616 -81 c21 -51 12 -43 -32 31 -30 50 -31 55 -10
34 14 -14 33 -43 42 -65z m477 35 c4 0 5 -5 2 -10 -3 -6 0 -13 8 -16 9 -3 13
-14 11 -27 -4 -21 -4 -21 6 1 7 17 6 31 -5 53 -9 16 -12 29 -7 29 13 0 34 -45
30 -65 -2 -11 4 -19 15 -20 9 -2 17 2 17 8 0 20 21 -9 41 -55 l19 -43 -40 45
c-22 25 -40 39 -40 32 0 -7 -4 -11 -9 -8 -4 3 -6 -6 -3 -19 7 -39 -22 -21 -38
23 -13 36 -14 36 -21 12 -7 -24 -7 -24 -8 5 -1 17 -3 48 -6 70 -4 38 -4 39 7
13 7 -16 16 -28 21 -28z m-733 15 c-7 -9 -15 -13 -17 -11 -7 7 7 26 19 26 6 0
6 -6 -2 -15z m118 -20 c2 -12 0 -16 -5 -9 -4 6 -20 10 -34 10 -18 -1 -25 3
-22 12 9 21 57 11 61 -13z m-508 11 c0 -3 -4 -8 -10 -11 -5 -3 -10 -1 -10 4 0
6 5 11 10 11 6 0 10 -2 10 -4z m113 -11 c-3 -9 -8 -14 -10 -11 -3 3 -2 9 2 15
9 16 15 13 8 -4z m97 11 c0 -11 -19 -15 -25 -6 -3 5 1 10 9 10 9 0 16 -2 16
-4z m150 -6 c0 -5 -2 -10 -4 -10 -3 0 -8 5 -11 10 -3 6 -1 10 4 10 6 0 11 -4
11 -10z m-646 -15 c3 -8 1 -15 -4 -15 -6 0 -10 7 -10 15 0 8 2 15 4 15 2 0 6
-7 10 -15z m371 5 c-3 -5 -11 -10 -16 -10 -6 0 -7 5 -4 10 3 6 11 10 16 10 6
0 7 -4 4 -10z m505 -11 c0 -5 -4 -9 -10 -9 -5 0 -10 7 -10 16 0 8 5 12 10 9 6
-3 10 -10 10 -16z m-125 -9 c3 -5 1 -10 -4 -10 -6 0 -11 5 -11 10 0 6 2 10 4
10 3 0 8 -4 11 -10z m-463 -40 c-9 -22 -21 -40 -26 -40 -5 0 -14 -7 -20 -16
-10 -13 -12 -9 -13 22 -1 24 2 32 7 24 7 -11 13 -9 29 11 11 13 20 27 21 32 0
4 4 7 9 7 5 0 2 -18 -7 -40z m248 36 c0 -3 -4 -8 -10 -11 -5 -3 -10 -1 -10 4
0 6 5 11 10 11 6 0 10 -2 10 -4z m170 -1 c0 -9 -82 -47 -88 -41 -10 10 14 28
50 36 18 4 34 8 36 9 1 1 2 -1 2 -4z m-215 -26 c5 -6 5 -13 -1 -19 -6 -6 -20
0 -39 17 l-30 26 30 -7 c17 -4 34 -12 40 -17z m415 1 c0 -11 -2 -20 -4 -20 -2
0 -6 9 -9 20 -3 11 -1 20 4 20 5 0 9 -9 9 -20z m-893 -22 c-3 -8 -6 -5 -6 6
-1 11 2 17 5 13 3 -3 4 -12 1 -19z m728 12 c3 -5 1 -10 -4 -10 -6 0 -11 5 -11
10 0 6 2 10 4 10 3 0 8 -4 11 -10z m135 -20 c0 -11 -2 -20 -4 -20 -2 0 -6 9
-9 20 -3 11 -1 20 4 20 5 0 9 -9 9 -20z m777 14 c-3 -3 -12 -4 -19 -1 -8 3 -5
6 6 6 11 1 17 -2 13 -5z m-513 -19 c-4 -8 -14 -15 -23 -14 -10 0 -11 2 -3 6 6
2 10 9 6 14 -3 5 2 9 10 9 10 0 13 -6 10 -15z m427 -17 l23 -33 -27 24 c-15
14 -27 28 -27 33 0 15 8 8 31 -24z m-1166 12 c3 -5 1 -10 -4 -10 -6 0 -11 5
-11 10 0 6 2 10 4 10 3 0 8 -4 11 -10z m132 -12 c-18 -9 -18 -11 0 -31 10 -11
13 -17 6 -14 -20 12 -43 -4 -44 -32 -1 -25 -2 -25 -8 4 l-7 30 -8 -25 c-4 -14
-10 -20 -12 -13 -5 10 -10 10 -27 1 -12 -7 -26 -11 -30 -10 -4 1 -10 -5 -13
-13 -4 -8 -14 -15 -25 -15 -10 0 -25 -10 -33 -22 -9 -12 -19 -19 -22 -15 -4 4
5 19 19 33 15 15 27 24 27 20 0 -10 129 74 157 102 13 13 27 21 31 17 4 -3 -1
-11 -11 -17z m873 -36 c0 -20 -4 -31 -10 -27 -5 3 -10 25 -10 48 0 31 3 38 10
27 5 -8 10 -30 10 -48z m-1040 38 c0 -5 -5 -10 -11 -10 -5 0 -7 5 -4 10 3 6 8
10 11 10 2 0 4 -4 4 -10z m228 -2 c-4 -11 9 -19 100 -60 26 -12 30 -17 17 -21
-12 -5 -14 -11 -6 -26 13 -24 5 -31 -38 -31 l-36 1 25 14 c23 13 23 14 5 15
-12 0 -27 6 -34 13 -11 10 -13 10 -7 0 9 -16 -10 -17 -19 -2 -4 6 -13 8 -21 5
-8 -3 -14 0 -14 5 0 6 9 9 20 6 11 -3 23 -1 26 4 3 5 -7 9 -23 10 l-28 1 29
12 c22 10 25 14 12 19 -9 4 -16 2 -16 -4 0 -6 -5 -7 -10 -4 -6 4 -8 10 -5 15
3 5 0 12 -7 16 -8 5 -6 10 8 15 26 10 26 10 22 -3z m562 -18 c0 -5 -4 -10 -10
-10 -5 0 -10 5 -10 10 0 6 5 10 10 10 6 0 10 -4 10 -10z m-731 -12 c8 3 11 0
7 -7 -4 -6 -16 -11 -27 -11 -11 0 -17 -4 -14 -10 3 -6 -1 -7 -9 -4 -9 3 -16
15 -16 25 0 15 4 17 23 10 12 -4 28 -6 36 -3z m311 -18 c-20 -12 -32 -2 -17
15 8 8 16 10 22 4 6 -7 5 -13 -5 -19z m700 -2 c0 -5 -4 -8 -10 -8 -5 0 -10 10
-10 23 0 18 2 19 10 7 5 -8 10 -18 10 -22z m17 0 c-3 -7 -5 -2 -5 12 0 14 2
19 5 13 2 -7 2 -19 0 -25z m-532 12 c3 -6 -1 -7 -9 -4 -18 7 -21 14 -7 14 6 0
13 -4 16 -10z m-665 -4 c0 -7 -62 -67 -66 -64 -7 8 39 68 52 68 8 0 14 -2 14
-4z m65 -6 c-3 -5 2 -10 11 -10 10 0 15 -3 12 -6 -4 -3 -10 -6 -15 -6 -4 0
-13 -4 -20 -9 -8 -7 -11 -6 -9 3 2 16 15 38 22 38 3 0 2 -4 -1 -10z m522 -1
c14 -14 6 -39 -12 -39 -7 0 -12 11 -12 25 0 27 7 31 24 14z m123 -19 c0 -4 9
-17 20 -30 23 -26 27 -49 7 -31 -8 6 -16 9 -19 6 -2 -3 -15 6 -28 20 -13 14
-18 25 -12 25 6 0 16 -8 21 -17 6 -10 11 -13 11 -8 0 6 -7 20 -15 33 -14 20
-14 21 0 16 8 -3 15 -9 15 -14z m530 10 c0 -5 -2 -10 -4 -10 -3 0 -8 5 -11 10
-3 6 -1 10 4 10 6 0 11 -4 11 -10z m-725 -10 c3 -5 1 -10 -4 -10 -6 0 -11 5
-11 10 0 6 2 10 4 10 3 0 8 -4 11 -10z m-494 -23 c-6 -8 -8 -17 -4 -20 3 -4
-1 -7 -10 -7 -15 0 -15 3 -5 20 7 11 17 20 22 20 4 0 3 -6 -3 -13z m629 -19
c0 -5 -4 -8 -10 -8 -5 0 -10 10 -10 23 0 18 2 19 10 7 5 -8 10 -18 10 -22z
m280 22 c0 -5 -2 -10 -4 -10 -3 0 -8 5 -11 10 -3 6 -1 10 4 10 6 0 11 -4 11
-10z m-730 -32 c0 -5 -7 -8 -15 -8 -15 0 -20 21 -8 33 7 7 23 -11 23 -25z
m305 22 c-7 -12 -42 -13 -48 -2 -3 4 8 8 24 9 17 1 27 -2 24 -7z m-570 -30
c-3 -5 -12 -10 -18 -10 -7 0 -6 4 3 10 19 12 23 12 15 0z m79 -15 c-4 -8 -10
-13 -14 -10 -5 3 -10 0 -12 -6 -4 -11 -58 -23 -58 -14 0 5 72 44 82 45 4 0 5
-7 2 -15z m683 0 c0 -8 -4 -15 -8 -15 -11 0 -20 16 -12 24 11 11 20 7 20 -9z
m-213 -21 c3 -8 2 -12 -4 -9 -6 3 -10 10 -10 16 0 14 7 11 14 -7z m-437 -24
c2 -22 1 -23 -21 -14 -12 5 -13 9 -3 20 17 19 22 17 24 -6z m1473 -64 c0 -28
-16 -8 -24 29 -7 29 -7 29 8 10 8 -11 16 -29 16 -39z m-1527 27 c-7 -20 -23
-33 -38 -33 -5 1 -1 7 9 15 15 11 16 15 5 16 -11 0 5 11 28 18 1 1 -1 -7 -4
-16z m745 -38 c-3 -3 -9 2 -12 12 -6 14 -5 15 5 6 7 -7 10 -15 7 -18z m-397
-52 c0 -15 2 -15 9 2 7 16 9 13 9 -17 1 -21 -3 -38 -9 -38 -5 0 -10 -7 -10
-16 0 -14 3 -14 15 -4 8 7 15 22 15 34 1 21 1 21 20 -3 14 -16 20 -19 20 -8 0
8 7 17 15 21 10 3 15 -1 15 -13 0 -10 7 -21 15 -25 8 -3 14 -13 14 -23 -1 -17
-2 -17 -6 0 -2 9 -8 17 -13 17 -5 0 -7 -6 -4 -14 3 -9 -1 -13 -13 -13 -13 2
-17 -4 -15 -21 2 -19 -2 -22 -17 -17 -11 3 -23 0 -27 -7 -4 -6 -2 -14 4 -16 8
-2 9 -9 3 -20 -6 -12 -5 -24 5 -36 12 -16 28 -19 116 -20 100 -1 102 -1 108
-26 9 -40 65 -40 115 0 40 32 50 35 130 45 32 4 45 3 36 -3 -7 -6 -13 -22 -13
-37 0 -14 -6 -29 -14 -32 -22 -8 -12 -43 13 -43 32 0 37 -16 11 -34 -21 -15
-21 -16 -3 -16 14 0 16 -3 7 -9 -7 -4 -14 -18 -15 -29 -1 -12 -5 -22 -11 -22
-5 0 -2 -8 6 -17 9 -10 19 -28 22 -40 4 -13 12 -23 17 -23 6 0 7 -5 4 -10 -4
-6 -11 -8 -16 -5 -8 5 -14 -16 -10 -37 0 -5 -7 -8 -17 -8 -24 0 -33 -10 -25
-24 14 -21 11 -34 -8 -39 -27 -7 -24 -37 4 -38 17 0 15 -3 -13 -14 -32 -12
-33 -14 -10 -15 14 -1 19 -4 13 -7 -19 -7 -16 -23 4 -23 9 0 13 -3 10 -6 -10
-10 33 -64 51 -64 13 0 13 2 -4 15 -18 14 -18 15 5 7 26 -9 41 -32 22 -32 -6
0 -11 -5 -11 -10 0 -6 -10 -21 -22 -33 -28 -27 -55 -73 -37 -62 8 6 10 4 5 -4
-5 -7 -13 -10 -20 -8 -6 3 -20 -1 -31 -9 -26 -19 -32 -18 -49 14 -10 18 -15
21 -16 10 0 -9 -3 -24 -7 -34 -4 -11 -3 -15 4 -11 6 4 13 1 16 -7 3 -8 -1 -17
-9 -20 -19 -7 -18 -45 1 -52 35 -14 12 -29 -48 -32 -71 -3 -107 -17 -107 -43
0 -10 -9 -19 -22 -22 -23 -4 -23 -4 2 -15 14 -6 21 -11 16 -11 -5 -1 -3 -8 4
-16 17 -20 -8 -20 -56 0 -19 8 -38 14 -42 13 -4 -1 -31 4 -59 11 -49 12 -53
15 -53 42 0 16 -8 33 -17 39 -15 9 -13 10 10 5 28 -6 35 3 16 22 -9 9 -18 8
-36 -4 -16 -11 -27 -13 -31 -6 -4 5 -20 13 -36 17 -17 4 -40 18 -53 32 -12 13
-31 24 -41 24 -39 0 -172 74 -172 96 0 6 -11 16 -25 22 -17 8 -25 20 -25 37 0
24 2 25 36 19 25 -5 35 -3 30 4 -3 6 -2 13 3 16 6 4 6 18 1 35 -6 23 -5 31 7
35 8 4 13 12 10 20 -3 8 1 23 10 35 12 17 12 25 3 36 -7 8 -9 15 -5 15 4 0 2
7 -5 15 -9 11 -9 22 -2 45 8 22 8 30 -1 30 -8 0 -8 3 1 12 19 19 14 28 -14 28
-21 0 -24 3 -15 13 8 11 5 17 -17 27 -18 8 -22 14 -13 18 10 3 7 8 -10 18
l-24 13 23 1 c21 0 22 1 8 16 -18 18 -20 30 -6 39 16 10 12 25 -7 25 -14 1
-10 8 15 30 17 16 31 35 30 41 -3 10 77 41 85 33 2 -2 21 -5 43 -8 21 -2 62
-7 90 -11 35 -5 54 -4 58 4 4 6 16 11 27 11 27 0 24 28 -6 42 -14 6 -25 17
-25 25 0 16 -5 16 -49 3 -40 -11 -49 -7 -31 15 11 13 10 14 -4 9 -9 -3 -16 -1
-16 6 0 6 -4 9 -9 6 -5 -3 -11 5 -13 19 -3 14 -2 25 3 25 4 0 10 8 13 18 7 20
34 25 52 11 6 -5 25 -6 43 -3 29 6 36 17 32 52 -1 6 3 12 9 12 5 0 10 -8 11
-17z m-61 -28 c0 -8 -4 -15 -10 -15 -5 0 -7 7 -4 15 4 8 8 15 10 15 2 0 4 -7
4 -15z m-610 -475 c0 -5 -2 -10 -4 -10 -3 0 -8 5 -11 10 -3 6 -1 10 4 10 6 0
11 -4 11 -10z m1219 -411 c-16 -10 -23 -4 -14 10 3 6 11 8 17 5 6 -4 5 -9 -3
-15z m94 -332 c3 -7 -6 -44 -19 -82 -13 -38 -24 -91 -24 -119 0 -28 -7 -78
-15 -111 -8 -33 -14 -84 -15 -114 0 -41 -7 -67 -30 -108 -16 -29 -30 -65 -31
-80 -1 -30 -27 -108 -28 -84 -1 7 -7 11 -16 7 -8 -3 -15 0 -16 7 0 9 -2 9 -6
0 -6 -17 -33 -16 -78 3 -21 8 -49 14 -64 14 -49 -4 -51 -2 -51 48 0 26 -7 67
-16 92 -8 24 -18 67 -21 95 -7 55 -41 141 -79 195 -24 36 -74 186 -74 223 0
16 6 18 38 15 20 -3 66 -13 102 -23 84 -23 295 -15 368 14 58 23 69 24 75 8z
m-3218 -687 c9 -27 1 -37 -39 -50 -50 -16 -101 -1 -101 31 0 26 24 35 97 38
28 1 38 -3 43 -19z m-291 -36 c25 -10 8 -24 -30 -24 -38 0 -46 16 -11 23 12 2
23 5 24 6 1 0 8 -2 17 -5z m2475 -30 c-16 -20 -39 -17 -39 4 0 27 10 33 32 21
15 -8 17 -13 7 -25z m-814 -94 c3 -5 -1 -10 -10 -10 -9 0 -13 5 -10 10 3 6 8
10 10 10 2 0 7 -4 10 -10z m635 -530 c10 -7 1 -8 -30 -4 -56 8 -64 14 -19 14
19 0 41 -5 49 -10z m253 -27 c-13 -2 -35 -2 -50 0 -16 2 -5 4 22 4 28 0 40 -2
28 -4z"/>
<path d="M5977 3703 c3 -7 9 -13 13 -13 4 0 10 6 13 13 3 7 -3 13 -13 13 -10
0 -16 -6 -13 -13z"/>
<path d="M5687 3079 c-7 -27 -1 -37 14 -22 7 7 8 17 2 28 -9 15 -11 15 -16 -6z"/>
<path d="M5510 3075 c0 -9 5 -15 11 -13 6 2 11 8 11 13 0 5 -5 11 -11 13 -6 2
-11 -4 -11 -13z"/>
<path d="M5764 2112 c-6 -4 -13 -15 -17 -25 -6 -15 -1 -17 29 -15 28 2 40 -3
55 -22 19 -25 19 -25 3 23 -12 37 -21 47 -37 47 -12 0 -27 -4 -33 -8z"/>
<path d="M5840 2089 c0 -5 5 -7 10 -4 6 3 10 8 10 11 0 2 -4 4 -10 4 -5 0 -10
-5 -10 -11z"/>
<path d="M5895 2070 c3 -5 10 -10 16 -10 5 0 9 5 9 10 0 6 -7 10 -16 10 -8 0
-12 -4 -9 -10z"/>
<path d="M7840 4931 c0 -6 5 -13 10 -16 6 -3 10 1 10 9 0 9 -4 16 -10 16 -5 0
-10 -4 -10 -9z"/>
<path d="M7795 4899 c-4 -6 -5 -13 -2 -16 7 -7 27 6 27 18 0 12 -17 12 -25 -2z"/>
<path d="M7847 4804 c-4 -4 -6 -30 -5 -58 l1 -51 7 45 7 45 3 -45 c3 -42 4
-43 7 -10 4 39 -8 85 -20 74z"/>
<path d="M5380 4325 c0 -8 7 -15 16 -15 8 0 13 4 9 9 -3 5 3 12 12 14 11 3 8
5 -9 6 -19 1 -28 -4 -28 -14z"/>
<path d="M5454 4295 c-4 -8 -10 -12 -15 -9 -16 10 -48 -7 -55 -29 -4 -12 -6
-24 -5 -26 1 -2 -13 -13 -31 -24 -20 -12 -28 -22 -20 -25 10 -3 10 -7 1 -18
-6 -8 -8 -14 -5 -14 4 0 2 -9 -4 -21 -9 -16 -8 -24 4 -38 9 -10 13 -21 9 -24
-3 -4 -1 -7 6 -7 7 0 9 -4 6 -10 -3 -5 0 -7 9 -4 16 6 14 9 -22 49 -15 17 -9
19 17 6 14 -8 23 -2 47 25 16 20 39 47 51 61 13 14 20 30 16 36 -3 5 -1 7 5 3
6 -3 13 3 17 14 3 11 13 20 21 20 8 0 14 4 14 9 0 5 14 13 31 16 23 5 28 9 18
16 -24 15 -58 10 -76 -11 -10 -11 -21 -20 -24 -20 -4 0 -5 9 -2 20 6 23 -5 27
-13 5z"/>
<path d="M5695 4300 c4 -6 12 -9 18 -7 13 5 67 -23 67 -34 0 -3 -11 -4 -25 -1
-20 3 -24 1 -19 -11 3 -9 12 -13 20 -10 8 3 14 0 14 -7 0 -10 3 -10 14 -1 10
8 16 9 21 1 3 -6 10 -8 15 -5 11 7 24 -40 15 -54 -3 -7 0 -8 9 -5 9 3 16 1 16
-5 0 -6 7 -11 15 -11 9 0 18 -12 22 -30 5 -27 18 -36 46 -31 4 1 17 -3 28 -9
15 -8 19 -8 17 2 -5 24 -31 37 -53 26 -20 -11 -20 -11 0 11 11 13 21 18 23 11
3 -7 10 -5 23 6 10 9 16 21 13 25 -3 5 0 9 6 9 7 0 10 7 6 15 -4 12 0 14 18 9
14 -3 27 -1 31 7 5 8 4 10 -3 5 -7 -4 -12 -1 -12 7 0 14 -26 35 -80 66 -14 7
-45 15 -70 16 -25 2 -80 6 -124 10 -58 5 -77 4 -71 -5z m289 -107 c-5 -5 -12
-12 -16 -18 -4 -6 -8 -2 -8 8 0 9 7 17 17 17 9 0 12 -3 7 -7z"/>
<path d="M5361 4261 c-16 -10 -24 -41 -12 -41 4 0 13 11 19 25 13 28 13 28 -7
16z"/>
<path d="M6036 4261 c-4 -5 3 -7 14 -4 23 6 26 13 6 13 -8 0 -17 -4 -20 -9z"/>
<path d="M5295 4180 c-3 -5 -1 -10 4 -10 6 0 11 5 11 10 0 6 -2 10 -4 10 -3 0
-8 -4 -11 -10z"/>
<path d="M6021 4163 c-12 -13 -11 -14 8 -8 17 5 21 2 21 -14 0 -13 -6 -21 -17
-21 -9 0 -14 -3 -10 -6 11 -12 46 7 40 22 -4 10 0 12 11 8 19 -7 21 3 4 19
-19 18 -41 18 -57 0z"/>
<path d="M5272 4148 c-15 -15 -16 -31 0 -26 6 2 12 12 14 21 3 20 2 21 -14 5z"/>
<path d="M6118 4153 c7 -3 16 -2 19 1 4 3 -2 6 -13 5 -11 0 -14 -3 -6 -6z"/>
<path d="M5995 4130 c-3 -5 -2 -10 4 -10 5 0 13 5 16 10 3 6 2 10 -4 10 -5 0
-13 -4 -16 -10z"/>
<path d="M6140 4130 c0 -5 5 -10 11 -10 5 0 7 5 4 10 -3 6 -8 10 -11 10 -2 0
-4 -4 -4 -10z"/>
<path d="M5110 4120 c0 -5 5 -10 10 -10 6 0 10 5 10 10 0 6 -4 10 -10 10 -5 0
-10 -4 -10 -10z"/>
<path d="M6555 4120 c3 -5 8 -10 11 -10 2 0 4 5 4 10 0 6 -5 10 -11 10 -5 0
-7 -4 -4 -10z"/>
<path d="M6095 3930 c3 -5 8 -10 11 -10 2 0 4 5 4 10 0 6 -5 10 -11 10 -5 0
-7 -4 -4 -10z"/>
<path d="M6910 1519 c0 -5 5 -7 10 -4 6 3 10 8 10 11 0 2 -4 4 -10 4 -5 0 -10
-5 -10 -11z"/>
<path d="M6913 1493 c9 -2 25 -2 35 0 9 3 1 5 -18 5 -19 0 -27 -2 -17 -5z"/>
<path d="M4222 1371 c-43 -11 -48 -17 -31 -37 23 -28 75 -44 144 -44 l66 0 -3
27 c-5 45 -98 73 -176 54z"/>
</g>
</svg>
