<?xml version="1.0" standalone="no"?>
<!DOCTYPE svg PUBLIC "-//W3C//DTD SVG 20010904//EN"
 "http://www.w3.org/TR/2001/REC-SVG-20010904/DTD/svg10.dtd">
<svg version="1.0" xmlns="http://www.w3.org/2000/svg"
 width="1908.000000pt" height="1146.000000pt" viewBox="0 0 1908.000000 1146.000000"
 preserveAspectRatio="xMidYMid meet">

<g transform="translate(0.000000,1146.000000) scale(0.100000,-0.100000)"
fill="#000000" stroke="none">
<path d="M15115 11196 c-33 -7 -77 -16 -97 -20 -21 -4 -43 -12 -50 -19 -34
-32 -90 -68 -129 -83 -24 -9 -60 -29 -79 -44 -19 -15 -53 -38 -75 -52 -22 -14
-62 -47 -90 -73 -60 -56 -132 -105 -156 -105 -17 0 -99 -84 -99 -101 0 -5 -14
-15 -30 -24 -17 -9 -42 -35 -57 -58 -15 -23 -53 -72 -85 -109 -31 -36 -69 -88
-84 -115 -15 -26 -35 -57 -44 -68 -9 -11 -26 -39 -36 -62 -10 -23 -27 -44 -36
-46 -9 -3 -20 -18 -24 -33 -4 -16 -15 -37 -25 -47 -11 -10 -19 -28 -19 -40 0
-12 -16 -47 -36 -77 -33 -50 -36 -59 -30 -106 5 -46 4 -52 -17 -61 -28 -13
-77 -110 -77 -153 0 -18 -6 -33 -15 -37 -19 -7 -45 -54 -45 -81 0 -10 -9 -27
-20 -37 -11 -10 -20 -23 -20 -30 0 -7 -9 -20 -20 -30 -11 -10 -20 -26 -20 -37
0 -10 -6 -18 -14 -18 -7 0 -25 -18 -40 -40 -14 -22 -30 -40 -35 -40 -6 0 -13
-10 -17 -22 -12 -39 -119 -135 -168 -152 -58 -20 -80 -12 -149 52 -29 27 -75
62 -102 80 -80 50 -270 136 -380 172 -55 18 -115 39 -133 47 -18 7 -42 13 -53
13 -11 0 -32 6 -47 14 -44 23 -272 77 -397 95 -217 31 -528 38 -544 12 -7 -9
-219 -31 -308 -31 -32 0 -74 5 -93 10 -71 21 -164 30 -293 31 -197 1 -322 -32
-439 -116 -87 -63 -173 -86 -368 -100 -47 -4 -112 -13 -145 -22 -129 -32 -352
-115 -419 -156 -38 -23 -94 -56 -125 -74 -49 -28 -154 -108 -200 -154 -39 -39
-219 98 -288 219 -44 80 -69 125 -93 172 -10 19 -39 64 -64 100 -25 36 -72
103 -103 150 -31 47 -74 106 -95 131 -21 25 -38 50 -38 55 0 6 -14 23 -31 40
-17 16 -49 52 -70 79 -67 89 -361 378 -472 465 -140 109 -158 121 -180 116
-25 -6 -194 77 -232 114 -40 39 -62 46 -185 59 -248 26 -426 10 -540 -50 -104
-56 -220 -171 -220 -219 0 -11 -16 -36 -35 -56 -45 -45 -109 -171 -128 -254
-46 -194 -47 -206 -43 -320 2 -69 11 -139 21 -175 18 -63 30 -128 43 -236 4
-36 15 -77 25 -92 9 -14 17 -45 17 -68 0 -23 14 -79 31 -123 27 -74 40 -102
102 -220 12 -22 24 -64 28 -95 10 -68 98 -244 167 -333 27 -35 85 -133 129
-218 44 -85 105 -190 134 -234 100 -145 130 -213 122 -276 -3 -26 2 -72 12
-110 9 -36 22 -92 29 -125 7 -33 22 -78 33 -100 11 -22 26 -58 33 -80 7 -22
24 -67 37 -99 13 -32 31 -95 39 -140 19 -110 43 -173 81 -214 18 -19 35 -44
39 -56 3 -11 12 -30 19 -41 7 -11 20 -46 29 -77 18 -62 47 -97 108 -128 20
-11 70 -52 111 -92 79 -77 134 -168 148 -243 4 -22 10 -57 14 -77 13 -67 -48
-118 -85 -73 -26 32 -69 3 -96 -65 -3 -8 -12 -31 -20 -50 -20 -50 -44 -165
-44 -208 0 -65 26 -152 54 -181 15 -16 29 -46 35 -73 4 -26 25 -72 46 -103 20
-31 39 -74 42 -94 5 -35 2 -40 -32 -61 -51 -31 -114 -37 -150 -14 -27 17 -28
17 -41 -1 -10 -13 -14 -50 -14 -123 0 -62 -5 -112 -12 -125 -7 -13 -13 -69
-15 -134 -2 -111 -7 -133 -69 -323 -18 -53 -36 -260 -32 -351 3 -62 4 -64 46
-92 33 -22 42 -34 42 -57 0 -44 -19 -77 -51 -89 -16 -6 -43 -16 -59 -22 -17
-7 -38 -25 -46 -42 -38 -72 -25 -278 23 -382 15 -34 23 -69 23 -108 0 -49 7
-70 47 -145 25 -48 59 -101 75 -118 25 -27 34 -30 61 -25 l32 7 6 79 c5 76 6
79 44 112 21 18 42 33 47 33 4 0 13 -20 19 -45 13 -51 26 -58 31 -17 3 25 6
27 51 28 43 1 53 6 93 45 44 42 46 43 60 25 21 -30 18 -111 -5 -133 -11 -10
-22 -30 -26 -45 -5 -18 -14 -28 -25 -28 -27 0 -69 -61 -63 -92 6 -33 -22 -89
-41 -82 -8 3 -17 12 -20 20 -9 25 -26 15 -26 -15 0 -41 -9 -61 -26 -54 -8 3
-14 0 -14 -6 0 -17 -28 -1 -33 20 -5 18 -27 28 -27 12 1 -13 34 -49 51 -55 17
-6 49 -86 49 -120 0 -26 -27 -22 -46 8 -9 14 -31 32 -48 41 -17 8 -41 25 -54
36 l-22 20 0 -34 c1 -153 48 -260 153 -346 l27 -23 -1 73 c-1 39 4 85 10 100
6 16 9 32 6 37 -6 9 33 25 41 17 3 -2 1 -15 -4 -28 -18 -47 -32 -120 -32 -169
0 -37 -3 -48 -13 -44 -10 3 -17 -17 -26 -74 -14 -86 -7 -168 15 -176 9 -3 14
-20 14 -45 0 -30 5 -43 20 -51 11 -6 20 -18 20 -26 0 -27 51 -103 83 -126 18
-12 47 -35 66 -51 27 -23 40 -28 65 -23 17 4 37 7 44 8 6 1 12 10 12 20 0 11
5 16 10 13 6 -3 10 -21 10 -40 0 -19 5 -37 10 -40 17 -10 0 95 -20 130 -21 36
-37 263 -21 294 6 10 23 24 40 30 63 27 81 -7 130 -249 36 -178 50 -222 77
-235 11 -5 28 -18 38 -28 36 -36 83 -67 102 -67 10 0 39 -7 63 -16 25 -8 56
-14 70 -12 14 1 32 -1 39 -6 9 -5 22 -1 35 12 19 17 32 19 100 15 46 -4 77
-10 78 -17 1 -6 4 0 8 13 10 36 36 49 58 29 10 -9 29 -18 42 -20 14 -1 26 -8
28 -13 4 -12 -56 -37 -69 -29 -12 8 -68 -16 -68 -28 0 -5 15 -15 32 -23 25
-10 38 -10 53 -2 11 6 26 10 33 9 6 -2 12 2 12 9 0 7 9 9 21 6 11 -3 39 3 62
13 31 14 46 16 60 8 14 -7 22 -7 27 3 7 10 14 10 39 -1 46 -19 126 -5 184 32
26 17 51 35 55 42 4 6 34 22 67 34 78 31 106 42 127 53 10 5 27 9 38 9 11 0
19 4 18 9 -4 12 6 13 37 5 14 -3 25 -10 25 -16 0 -5 5 -6 11 -2 8 4 8 9 0 17
-18 18 -13 24 19 19 22 -3 30 0 30 11 0 17 35 22 255 37 312 20 400 22 440 11
26 -7 43 -7 49 -1 15 15 26 12 26 -7 1 -17 2 -17 14 0 14 18 15 17 21 -4 4
-12 10 -17 14 -12 3 5 25 10 47 11 54 3 78 8 128 26 39 15 191 32 361 41 44 2
114 6 155 9 48 2 77 0 82 -7 4 -7 10 8 14 31 l7 43 17 -27 18 -26 12 22 c9 16
15 19 23 11 17 -17 44 -13 60 9 14 21 15 21 21 -5 9 -36 26 -22 28 23 l1 37 4
-32 c5 -40 20 -43 26 -6 4 26 4 26 6 -4 0 -18 6 -33 11 -33 6 0 10 5 10 11 0
5 4 8 8 5 5 -3 7 9 5 27 -3 31 0 27 19 -23 l10 -25 14 34 c18 43 36 30 38 -28
1 -40 1 -41 17 -20 10 14 15 37 14 63 -2 31 -1 33 2 7 3 -27 7 -31 14 -20 7 9
7 5 3 -16 -7 -27 -6 -29 10 -16 15 13 16 12 7 -13 -12 -29 2 -36 18 -9 10 17
10 17 11 -1 0 -26 11 -13 32 37 l18 42 -6 -49 c-5 -35 -4 -47 5 -42 6 4 11 17
12 29 1 16 3 14 10 -10 16 -56 32 -40 26 25 -4 36 -3 50 3 37 5 -11 9 -38 10
-60 0 -34 2 -37 11 -21 9 15 13 16 20 5 7 -11 9 -11 9 3 0 9 -4 20 -10 23 -5
3 -10 18 -9 33 1 26 1 26 7 4 4 -13 12 -22 17 -20 6 1 14 -16 19 -40 10 -49
31 -58 23 -9 -3 17 -3 26 0 20 6 -17 24 -17 17 0 -2 7 4 13 16 14 17 2 20 -4
20 -38 0 -21 5 -39 10 -39 6 0 10 5 10 11 0 6 6 9 13 6 9 -3 13 5 14 28 1 18
6 41 12 52 9 16 10 14 10 -12 -1 -73 8 -116 29 -135 l21 -20 12 40 c15 49 30
53 22 5 -5 -33 10 -51 19 -23 3 7 11 -2 19 -20 18 -41 30 -41 22 0 l-6 32 31
-34 c29 -32 31 -33 32 -13 0 30 17 38 25 12 5 -14 12 -18 23 -14 10 4 25 10
34 12 10 3 15 9 12 14 -3 5 2 6 10 3 8 -3 12 -13 9 -22 -3 -10 -2 -13 4 -7 7
10 22 13 71 17 6 1 12 7 12 14 0 21 27 23 46 3 9 -10 21 -19 26 -19 5 0 0 10
-12 22 -11 12 -20 25 -20 28 0 4 25 7 55 8 30 1 55 -2 55 -6 0 -15 121 -54
168 -54 15 0 27 -9 32 -22 7 -17 9 -18 9 -3 1 19 36 24 47 6 4 -8 9 -7 15 2 6
10 9 10 9 2 0 -7 7 -10 16 -6 9 3 20 0 25 -8 8 -12 11 -12 19 1 5 8 10 11 11
5 0 -5 4 -1 9 10 9 19 9 19 16 -2 7 -26 19 -30 27 -9 4 9 17 12 41 9 23 -2 36
1 36 8 0 18 40 -21 41 -40 1 -9 4 -2 8 14 7 33 41 46 67 24 8 -6 34 -13 57
-15 57 -4 72 -8 91 -23 14 -12 16 -10 16 9 0 22 1 22 20 5 14 -12 27 -15 47
-10 15 3 45 9 66 12 27 4 37 9 33 19 -7 19 13 17 37 -3 19 -17 20 -17 14 0 -8
21 1 21 27 2 28 -21 39 -19 25 6 -10 19 -9 20 13 14 12 -4 29 -10 36 -12 6 -3
12 0 12 6 0 6 7 11 15 11 8 0 15 7 15 15 0 9 6 12 16 8 13 -5 15 -2 9 17 -6
20 -5 22 18 16 14 -3 33 -9 44 -13 16 -6 16 -5 4 10 -12 15 -10 17 18 17 21 0
31 5 31 15 0 24 16 18 46 -17 18 -22 22 -25 12 -8 -8 14 -17 35 -20 47 -5 19
-3 21 10 14 22 -12 46 11 29 28 -8 8 -6 11 7 11 15 0 16 3 6 15 -10 12 -7 15
17 20 56 13 57 14 38 35 -13 14 -15 24 -8 31 10 10 37 -14 103 -91 12 -14 3 2
-19 34 -47 68 -50 80 -18 70 12 -4 36 -6 54 -6 18 1 52 -5 78 -12 25 -8 54
-12 64 -9 14 3 20 -2 25 -22 4 -15 12 -25 19 -22 7 2 23 0 35 -5 19 -7 28 -4
43 16 19 25 20 25 62 9 32 -13 81 -17 207 -17 149 -1 171 1 224 22 33 13 71
31 85 41 32 23 72 34 230 62 114 19 171 38 226 72 11 7 42 27 69 44 27 18 68
35 91 38 45 7 73 20 63 30 -3 3 -23 9 -44 12 -22 3 -45 10 -51 16 -14 10 -18
134 -5 153 4 7 50 26 102 44 106 36 146 54 175 80 24 22 252 93 366 115 63 12
93 23 133 52 28 21 53 40 56 43 8 10 72 40 84 40 27 1 38 17 27 39 -14 26 -5
30 129 59 124 27 181 32 515 44 376 13 371 13 605 4 276 -11 691 -13 877 -4
122 5 165 12 225 32 40 13 84 26 98 28 l25 3 3 372 2 372 -66 83 c-37 46 -93
128 -125 184 -53 89 -71 111 -162 188 -72 62 -134 104 -210 143 -125 64 -157
97 -215 224 -44 96 -151 231 -255 323 -81 71 -112 136 -162 335 -105 418 -296
816 -564 1174 -87 116 -129 156 -257 239 -55 36 -116 79 -135 95 -80 70 -179
116 -343 159 -210 56 -295 101 -528 282 -120 94 -223 150 -352 193 -181 61
-257 96 -303 141 -33 32 -47 40 -68 36 -17 -4 -28 -1 -32 7 -2 8 16 87 41 177
24 90 50 204 56 253 18 139 37 200 100 330 32 66 69 158 80 205 12 47 30 99
39 115 33 57 113 307 113 354 1 26 13 77 29 116 15 39 32 97 38 130 5 33 23
95 40 137 31 78 61 206 61 265 0 18 9 56 21 85 23 61 59 310 59 415 0 82 -23
187 -75 342 -29 89 -43 116 -81 156 -28 31 -50 65 -57 92 -8 30 -30 62 -73
108 -72 75 -150 117 -212 114 -28 -2 -47 4 -67 19 -25 20 -39 22 -134 21 -58
0 -133 -6 -166 -13z m-7210 -1696 c3 -5 -3 -10 -15 -10 -12 0 -18 5 -15 10 3
6 10 10 15 10 5 0 12 -4 15 -10z m-63 -25 c-3 -20 0 -25 17 -25 12 0 34 6 49
14 34 17 142 31 142 18 0 -5 -7 -15 -16 -23 -14 -12 -14 -14 1 -25 15 -11 15
-13 -4 -19 -33 -10 -12 -28 25 -22 30 5 37 1 69 -36 20 -23 46 -44 57 -47 13
-3 25 -17 29 -33 4 -14 22 -42 41 -61 18 -19 46 -51 62 -71 26 -33 28 -38 15
-61 -12 -23 -11 -27 8 -42 12 -10 24 -33 28 -52 8 -44 25 -90 34 -90 9 0 28
-48 35 -90 4 -19 16 -43 29 -52 l22 -17 -23 -30 c-28 -38 -28 -39 4 -51 34
-13 21 -31 -16 -23 -17 3 -30 1 -30 -4 0 -15 39 -91 50 -98 16 -10 12 -25 -7
-25 -10 0 -25 -4 -33 -10 -12 -8 -12 -11 3 -28 37 -41 15 -52 -105 -52 -61 0
-78 -3 -78 -14 0 -8 9 -17 19 -21 34 -10 71 -46 71 -68 0 -11 -5 -35 -12 -53
-9 -25 -9 -39 0 -58 l11 -26 -43 6 c-35 5 -50 2 -84 -20 -35 -22 -49 -25 -84
-20 -24 4 -51 11 -60 16 -21 10 -24 51 -5 67 10 7 13 33 12 83 -2 62 1 77 18
96 16 17 18 25 9 34 -9 9 -15 8 -24 -4 -17 -21 -59 -30 -108 -22 -35 6 -42 11
-47 35 -3 16 -14 31 -24 34 -43 14 -30 75 17 75 21 0 24 -5 24 -35 0 -30 3
-35 24 -35 13 0 30 -10 38 -21 10 -16 20 -20 36 -15 25 8 29 34 7 42 -8 4 -15
12 -15 18 0 7 -11 23 -25 36 -21 19 -24 30 -19 57 5 25 3 33 -9 33 -8 0 -21 7
-28 16 -7 9 -24 20 -38 25 -18 8 -21 13 -13 21 20 20 13 47 -16 62 -16 8 -41
31 -56 50 -15 20 -33 36 -41 36 -8 0 -19 17 -25 40 -6 22 -15 40 -20 40 -5 0
-16 16 -24 35 -8 19 -20 35 -25 35 -6 0 -11 9 -11 20 0 12 -7 20 -16 20 -13 0
-15 6 -9 33 11 48 13 187 4 193 -35 21 38 115 100 131 35 9 69 50 70 86 1 9 5
17 10 17 4 0 6 -11 3 -25z m828 -305 c0 -5 -2 -10 -4 -10 -3 0 -8 5 -11 10 -3
6 -1 10 4 10 6 0 11 -4 11 -10z m2818 -182 c-5 -15 -48 -24 -48 -10 0 14 12
22 33 22 10 0 17 -5 15 -12z m682 -83 c0 -8 -4 -15 -10 -15 -5 0 -7 7 -4 15 4
8 8 15 10 15 2 0 4 -7 4 -15z m825 -16 c39 -6 88 -10 110 -10 44 -1 66 -12 84
-47 16 -30 7 -40 -16 -19 -28 24 -69 31 -76 13 -8 -21 -27 -20 -57 4 -14 11
-35 20 -47 20 -26 0 -93 30 -93 42 0 10 8 10 95 -3z m252 -65 c9 -23 -11 -38
-26 -20 -13 16 -7 36 10 36 5 0 12 -7 16 -16z m-1464 -14 c10 -15 12 -32 7
-61 -9 -48 -19 -60 -26 -32 -3 12 -12 24 -20 27 -22 8 -16 25 11 32 23 6 23 7
8 30 -19 29 0 33 20 4z m96 -24 c23 -37 27 -60 10 -54 -8 3 -38 68 -39 86 0
10 12 -3 29 -32z m443 -18 c-7 -7 -12 -8 -12 -2 0 14 12 26 19 19 2 -3 -1 -11
-7 -17z m-2248 -18 c7 -7 -1 -10 -21 -10 -17 0 -37 8 -44 17 -13 15 -11 16 21
9 19 -3 39 -11 44 -16z m677 4 c12 -14 11 -16 -5 -13 -11 2 -21 10 -24 17 -5
17 13 15 29 -4z m-827 -15 c38 -22 49 -44 19 -36 -10 3 -39 8 -65 12 -27 3
-48 8 -48 10 0 39 42 45 94 14z m1726 -28 c-1 -12 -6 -10 -20 8 -11 12 -17 28
-13 34 8 12 33 -20 33 -42z m-1435 29 c3 -5 -1 -10 -10 -10 -9 0 -13 5 -10 10
3 6 8 10 10 10 2 0 7 -4 10 -10z m595 -48 c0 -13 -12 -22 -22 -16 -10 6 -1 24
13 24 5 0 9 -4 9 -8z m-163 -14 c7 -6 26 -8 42 -6 25 4 31 0 36 -20 8 -32 -3
-42 -21 -17 -14 19 -15 19 -46 1 -67 -40 -146 -26 -162 29 -5 19 -1 20 66 22
40 1 78 -3 85 -9z m-361 -26 c-3 -5 9 -19 25 -31 l31 -23 -22 -15 c-21 -15
-56 -11 -46 6 3 4 -3 16 -14 26 -15 14 -17 21 -9 32 12 14 44 19 35 5z m234
-72 c0 -14 -14 -12 -28 2 -19 19 -14 30 8 18 11 -6 20 -15 20 -20z m-415 -10
c-3 -5 -10 -10 -16 -10 -5 0 -9 5 -9 10 0 6 7 10 16 10 8 0 12 -4 9 -10z
m-337 -67 c2 -8 -6 -13 -22 -13 -26 0 -40 12 -29 24 11 11 46 2 51 -11z m2467
-16 c-4 -8 -15 -15 -25 -14 -17 1 -17 2 -1 23 17 24 36 18 26 -9z m341 7 c-4
-14 -3 -23 2 -20 5 3 2 -15 -7 -40 -12 -35 -17 -40 -19 -24 -2 12 1 27 7 33 6
6 11 16 11 22 0 5 -7 1 -16 -10 -13 -17 -16 -18 -24 -5 -7 10 -10 11 -10 3 0
-7 -5 -13 -11 -13 -8 0 -8 5 1 15 7 8 16 12 21 9 5 -3 14 8 20 25 13 38 34 42
25 5z m-242 -8 c-6 -16 -24 -23 -24 -8 0 10 22 33 27 28 2 -2 1 -11 -3 -20z
m116 -7 c-9 -31 -9 -31 10 -14 19 17 20 17 20 -3 0 -12 -5 -22 -11 -22 -5 0
-7 -4 -4 -10 3 -5 1 -18 -4 -27 -9 -16 -10 -16 -11 5 0 12 -5 21 -11 20 -15
-4 -19 41 -7 65 15 29 27 20 18 -14z m745 21 c-3 -5 -12 -10 -18 -10 -7 0 -6
4 3 10 19 12 23 12 15 0z m-3585 -14 c0 -15 -27 -25 -48 -18 -10 3 -10 7 -1
18 15 18 49 18 49 0z m3164 -31 c-4 -8 -11 -15 -16 -15 -6 0 -5 6 2 15 7 8 14
15 16 15 2 0 1 -7 -2 -15z m-3254 -6 c0 -5 -18 -9 -40 -9 -47 0 -52 -11 -10
-27 43 -16 37 -31 -17 -39 -27 -3 -55 -13 -64 -20 -9 -8 -24 -12 -33 -8 -17 7
-57 -28 -69 -60 -7 -17 -79 -21 -127 -6 -22 6 -23 8 -7 15 10 4 33 5 51 2 31
-5 33 -4 31 24 -2 26 1 29 30 29 17 0 35 4 41 8 5 5 35 17 67 26 45 14 55 21
47 31 -17 20 11 40 58 42 23 0 42 -3 42 -8z m50 -9 c0 -5 -5 -10 -11 -10 -5 0
-7 5 -4 10 3 6 8 10 11 10 2 0 4 -4 4 -10z m-200 -40 c0 -5 -4 -10 -10 -10 -5
0 -10 5 -10 10 0 6 5 10 10 10 6 0 10 -4 10 -10z m3353 -18 c-3 -12 -9 -22
-14 -22 -5 0 -3 11 3 25 13 30 20 28 11 -3z m-2373 -124 c0 -6 -7 -5 -15 2 -8
7 -15 17 -15 22 0 6 7 5 15 -2 8 -7 15 -17 15 -22z m-180 -20 c0 -6 -6 -5 -15
2 -8 7 -15 14 -15 16 0 2 7 1 15 -2 8 -4 15 -11 15 -16z m216 -35 c-4 -4 -11
-1 -16 7 -16 25 -11 35 7 17 9 -9 13 -20 9 -24z m-1329 -9 c-3 -3 -12 -4 -19
-1 -8 3 -5 6 6 6 11 1 17 -2 13 -5z m858 -4 c8 -13 -5 -13 -25 0 -13 8 -13 10
2 10 9 0 20 -4 23 -10z m3532 2 c8 -5 -2 -8 -25 -9 -28 0 -32 1 -17 7 26 11
28 11 42 2z m-1215 -34 c-7 -7 -12 -8 -12 -2 0 14 12 26 19 19 2 -3 -1 -11 -7
-17z m1271 5 c-7 -2 -21 -2 -30 0 -10 3 -4 5 12 5 17 0 24 -2 18 -5z m-5935
-15 c22 -22 12 -28 -48 -28 -33 0 -60 2 -60 4 0 2 -3 11 -6 20 -5 13 3 16 48
16 30 0 59 -5 66 -12z m4642 -38 c-6 -12 -14 -19 -17 -17 -2 3 1 15 7 27 6 12
14 19 17 17 2 -3 -1 -15 -7 -27z m-2467 3 c-7 -2 -19 -2 -25 0 -7 3 -2 5 12 5
14 0 19 -2 13 -5z m62 -13 c8 -13 -15 -13 -35 0 -12 8 -11 10 7 10 12 0 25 -4
28 -10z m2632 -10 c2 -23 -13 -35 -23 -19 -5 8 -3 9 6 4 10 -6 12 -4 7 7 -3 9
-3 19 0 22 9 8 9 8 10 -14z m-199 -10 c-7 -10 -14 -17 -17 -15 -4 4 18 35 25
35 2 0 -1 -9 -8 -20z m-3950 -15 c26 -14 41 -25 34 -25 -8 0 -10 -5 -6 -12 4
-7 9 -39 11 -73 5 -106 14 -138 51 -184 33 -41 34 -45 18 -57 -14 -10 -17 -21
-11 -52 7 -45 -17 -143 -40 -162 -8 -7 -15 -25 -15 -41 0 -17 -9 -37 -20 -46
-11 -10 -20 -27 -20 -39 0 -12 -7 -27 -15 -34 -8 -7 -15 -18 -15 -25 0 -7 -9
-24 -21 -39 -13 -16 -18 -33 -14 -46 14 -44 -51 -93 -93 -71 -32 17 -49 13
-85 -19 -41 -36 -45 -36 -106 -9 l-48 20 -35 -35 c-39 -39 -70 -45 -106 -21
-21 15 -21 21 -15 107 l6 91 -29 -7 c-16 -4 -54 -8 -84 -9 -45 -2 -55 1 -58
15 -2 12 9 25 33 39 23 14 42 36 52 61 14 35 18 39 42 33 47 -13 54 -11 63 23
8 28 13 33 36 30 40 -4 102 22 102 44 0 26 -31 89 -62 126 -37 43 -35 66 8 99
20 15 50 43 68 62 17 18 45 40 61 48 45 23 165 154 165 180 0 44 10 53 57 53
28 0 61 -9 91 -25z m3902 4 c0 -14 -17 -10 -23 5 -4 10 -1 13 9 9 7 -3 14 -9
14 -14z m-3433 -6 c11 -29 60 -73 82 -73 25 0 37 -18 17 -26 -22 -9 -91 10
-89 24 2 7 -6 26 -17 44 -11 18 -20 36 -20 41 0 14 21 7 27 -10z m1495 -116
c19 -28 20 -30 3 -17 -24 18 -44 42 -45 53 0 14 18 -2 42 -36z m2208 39 c0 -2
-8 -10 -17 -17 -16 -13 -17 -12 -4 4 13 16 21 21 21 13z m-130 -41 c-7 -9 -15
-13 -18 -10 -3 2 1 11 8 20 7 9 15 13 18 10 3 -2 -1 -11 -8 -20z m-2570 5 c21
-7 19 -8 -15 -8 -22 0 -49 3 -60 8 -16 7 -13 9 15 8 19 0 46 -4 60 -8z m335
-10 c3 -6 -1 -7 -9 -4 -18 7 -21 14 -7 14 6 0 13 -4 16 -10z m545 -11 c0 -6
-4 -7 -10 -4 -5 3 -10 11 -10 16 0 6 5 7 10 4 6 -3 10 -11 10 -16z m30 -40 c0
-5 -4 -9 -10 -9 -5 0 -10 7 -10 16 0 8 5 12 10 9 6 -3 10 -10 10 -16z m-1134
2 c-5 -8 -56 -3 -56 5 0 2 14 4 31 4 16 0 28 -4 25 -9z m-46 -21 c0 -15 -81
-33 -93 -21 -12 12 0 18 48 24 17 2 33 5 38 6 4 0 7 -3 7 -9z m-692 -8 c7 -5
10 -16 6 -25 -4 -11 -1 -17 7 -17 8 0 25 -9 38 -19 23 -18 23 -18 2 -24 -11
-3 -24 -1 -27 4 -3 5 -13 9 -23 9 -10 0 -26 9 -36 20 -10 11 -31 20 -46 20
-15 0 -31 5 -34 11 -5 7 4 8 28 4 26 -5 36 -3 40 9 7 17 25 20 45 8z m1047
-12 l20 -9 -20 0 c-11 0 -29 4 -40 9 l-20 9 20 0 c11 0 29 -4 40 -9z m-457
-42 c-3 -7 -20 -14 -39 -16 l-34 -2 25 15 c31 18 53 19 48 3z m477 -28 c13 -6
15 -9 5 -9 -8 0 -22 4 -30 9 -18 12 -2 12 25 0z m-418 -14 c4 -7 15 -16 23
-19 8 -3 -2 -6 -22 -6 -25 -1 -38 -6 -38 -15 0 -23 -24 -35 -85 -42 -47 -6
-57 -5 -53 7 2 8 24 19 49 26 l44 11 -35 2 c-29 1 -32 3 -15 10 11 5 34 9 52
9 41 1 52 18 16 24 -20 3 -16 4 14 6 26 0 45 -4 50 -13z m163 -16 c0 -5 -12
-10 -27 -9 l-28 1 25 8 c14 4 26 8 28 9 1 1 2 -3 2 -9z m200 0 c13 -9 13 -10
0 -9 -8 0 -24 4 -35 9 l-20 9 20 0 c11 0 27 -4 35 -9z m-1135 -20 c-3 -5 -13
-10 -21 -10 -8 0 -14 5 -14 10 0 6 9 10 21 10 11 0 17 -4 14 -10z m1115 -26
c0 -2 -7 -4 -15 -4 -8 0 -15 4 -15 10 0 5 7 7 15 4 8 -4 15 -8 15 -10z m2870
-29 c-7 -9 -15 -13 -19 -10 -3 3 1 10 9 15 21 14 24 12 10 -5z m-3910 1 c0 -2
-7 -6 -15 -10 -8 -3 -15 -1 -15 4 0 6 7 10 15 10 8 0 15 -2 15 -4z m4290 -41
c-7 -8 -17 -15 -23 -15 -6 0 -2 7 9 15 25 19 30 19 14 0z m-4290 -19 c0 -11
-19 -15 -25 -6 -3 5 1 10 9 10 9 0 16 -2 16 -4z m1560 -11 c7 -8 8 -15 2 -15
-5 0 -15 7 -22 15 -7 8 -8 15 -2 15 5 0 15 -7 22 -15z m-1655 -10 c0 -5 -15
-11 -34 -13 -31 -3 -33 -2 -21 13 14 17 55 17 55 0z m961 -50 c-18 -9 -38 -12
-55 -8 -24 7 -24 8 14 14 66 10 71 10 41 -6z m-231 -4 l40 -9 -52 -1 c-28 0
-55 4 -58 9 -7 12 15 12 70 1z m85 -1 c0 -5 -4 -10 -9 -10 -6 0 -13 5 -16 10
-3 6 1 10 9 10 9 0 16 -4 16 -10z m3650 -35 c-14 -8 -29 -14 -35 -14 -5 0 1 6
15 14 14 8 30 14 35 14 6 0 -1 -6 -15 -14z m-3667 -22 c-7 -2 -19 -2 -25 0 -7
3 -2 5 12 5 14 0 19 -2 13 -5z m295 -9 c37 -10 25 -20 -19 -16 -26 3 -44 0
-49 -8 -5 -8 -16 -9 -30 -5 l-23 7 24 14 c26 14 61 17 97 8z m3042 2 c0 -2 -7
-7 -16 -10 -8 -3 -12 -2 -9 4 6 10 25 14 25 6z m-3800 -25 c0 -11 -36 -21 -79
-21 -40 0 -35 9 11 20 46 11 68 11 68 1z m427 3 c-3 -3 -12 -4 -19 -1 -8 3 -5
6 6 6 11 1 17 -2 13 -5z m-42 -14 c-3 -5 -23 -10 -43 -9 -33 1 -34 2 -12 9 36
12 62 12 55 0z m250 -10 c-3 -5 -13 -10 -21 -10 -8 0 -14 5 -14 10 0 6 9 10
21 10 11 0 17 -4 14 -10z m82 -26 c-3 -3 -12 -4 -19 -1 -8 3 -5 6 6 6 11 1 17
-2 13 -5z m3163 -8 c0 -2 -7 -7 -16 -10 -8 -3 -12 -2 -9 4 6 10 25 14 25 6z
m-3960 -16 c0 -5 6 -10 13 -10 7 0 17 -8 24 -19 10 -16 7 -20 -23 -35 -19 -9
-40 -16 -46 -16 -6 0 -16 -7 -23 -16 -8 -11 -19 -14 -33 -10 -20 7 -20 8 12
37 19 16 43 29 55 29 14 0 19 5 15 15 -4 8 -13 15 -21 15 -8 0 -11 5 -8 10 3
6 13 10 21 10 8 0 14 -4 14 -10z m173 -60 c-10 -11 -63 -24 -63 -16 0 9 54 34
63 29 5 -3 5 -9 0 -13z m460 11 c9 0 17 -5 17 -10 0 -6 -8 -10 -17 -10 -71 0
-136 -5 -125 -8 6 -3 12 -8 12 -13 0 -13 -42 -18 -90 -11 l-45 7 35 16 c19 9
28 17 20 17 -10 1 -11 4 -3 9 9 6 136 8 196 3z m-329 -15 c-3 -8 -19 -18 -36
-21 -18 -4 -32 -15 -35 -26 -4 -13 -14 -19 -35 -19 l-29 0 21 28 c29 36 126
68 114 38z m866 -16 c13 -9 13 -10 0 -10 -8 0 -22 5 -30 10 -13 9 -13 10 0 10
8 0 22 -5 30 -10z m-400 -10 c0 -13 -11 -13 -30 0 -12 8 -11 10 8 10 12 0 22
-4 22 -10z m58 3 c-10 -2 -26 -2 -35 0 -10 3 -2 5 17 5 19 0 27 -2 18 -5z
m3242 3 c0 -2 -7 -7 -16 -10 -8 -3 -12 -2 -9 4 6 10 25 14 25 6z m-3706 -26
c-10 -4 -23 -5 -28 -2 -5 3 -1 9 10 12 10 4 23 5 28 2 5 -3 1 -9 -10 -12z
m801 -5 c17 -8 23 -14 14 -14 -19 -1 -89 26 -89 35 0 6 32 -3 75 -21z m-1148
3 c-2 -8 -17 -12 -35 -10 -24 2 -32 -2 -37 -18 -7 -22 -26 -23 -33 -2 -2 7 11
19 30 27 42 18 81 19 75 3z m440 -8 c32 0 5 -11 -46 -19 -36 -6 -51 -5 -48 3
4 12 46 26 65 20 8 -2 21 -4 29 -4z m230 -16 c-3 -3 -12 -4 -19 -1 -8 3 -5 6
6 6 11 1 17 -2 13 -5z m-537 -8 c0 -3 -4 -8 -10 -11 -5 -3 -10 -1 -10 4 0 6 5
11 10 11 6 0 10 -2 10 -4z m165 -6 c-3 -5 -12 -10 -18 -10 -7 0 -6 4 3 10 19
12 23 12 15 0z m460 0 c-3 -5 -27 -9 -53 -8 l-47 1 45 7 c25 4 49 8 53 8 5 1
5 -2 2 -8z m-342 -17 c-7 -2 -19 -2 -25 0 -7 3 -2 5 12 5 14 0 19 -2 13 -5z
m-105 -18 c-9 -9 -88 -15 -88 -6 0 11 45 19 73 12 10 -2 16 -5 15 -6z m147 6
c-3 -5 3 -12 12 -14 11 -3 8 -5 -9 -6 -20 -1 -26 3 -22 14 4 8 10 15 16 15 5
0 7 -4 3 -9z m-315 -5 c0 -2 3 -11 6 -20 4 -11 0 -14 -15 -13 -24 1 -30 37 -6
37 8 0 15 -2 15 -4z m230 -6 c0 -5 -10 -10 -22 -10 -19 0 -20 2 -8 10 19 13
30 13 30 0z m310 -10 c-8 -5 -26 -10 -40 -10 -14 0 -32 5 -40 10 -11 7 1 10
40 10 39 0 51 -3 40 -10z m-750 -15 c0 -8 7 -15 15 -15 22 0 18 -15 -7 -29
-20 -10 -18 -11 17 -6 22 4 54 8 70 10 17 2 54 8 83 13 50 9 70 3 58 -17 -7
-11 -57 -21 -117 -24 -25 -1 -53 -8 -62 -16 -9 -7 -24 -11 -33 -7 -8 3 -28 -1
-44 -9 -33 -17 -52 -20 -30 -4 12 8 10 9 -7 4 -13 -3 -23 -2 -23 3 0 5 8 12
19 15 20 5 34 54 17 61 -6 2 -3 5 7 5 9 1 17 8 17 16 0 8 5 15 10 15 6 0 10
-7 10 -15z m393 2 c-2 -4 -3 -11 -3 -17 0 -15 -39 -12 -56 4 -10 11 -11 15 -1
19 18 7 62 3 60 -6z m162 -7 c-27 -12 -35 -12 -35 0 0 6 12 10 28 9 24 0 25
-1 7 -9z m-268 -16 c-3 -3 -12 -4 -19 -1 -8 3 -5 6 6 6 11 1 17 -2 13 -5z
m273 -9 c-8 -9 -30 -15 -58 -15 -56 0 -50 9 15 20 26 4 50 8 52 9 2 0 -2 -6
-9 -14z m170 1 c0 -3 -4 -8 -10 -11 -5 -3 -10 -1 -10 4 0 6 5 11 10 11 6 0 10
-2 10 -4z m-1165 -16 c3 -5 1 -10 -4 -10 -6 0 -11 5 -11 10 0 6 2 10 4 10 3 0
8 -4 11 -10z m870 0 c3 -5 2 -10 -3 -10 -5 0 -25 -3 -43 -6 l-34 -5 25 15 c29
18 46 20 55 6z m-765 -7 c-1 -16 -29 -45 -39 -39 -5 3 -24 -2 -43 -13 -47 -27
-78 -35 -78 -20 0 22 70 64 120 72 14 2 28 5 33 6 4 0 7 -2 7 -6z m958 -5 c-3
-7 -22 -13 -44 -15 -21 -1 -40 -7 -42 -13 -2 -5 -13 -10 -25 -10 -25 0 -15 12
28 34 36 19 88 21 83 4z m450 5 c-10 -2 -26 -2 -35 0 -10 3 -2 5 17 5 19 0 27
-2 18 -5z m3089 1 c-3 -3 -12 -4 -19 -1 -8 3 -5 6 6 6 11 1 17 -2 13 -5z m63
-4 c-8 -5 -19 -10 -25 -10 -5 0 -3 5 5 10 8 5 20 10 25 10 6 0 3 -5 -5 -10z
m-3895 -20 c-3 -5 -15 -10 -26 -10 -28 0 -23 -19 7 -26 19 -5 22 -9 12 -15 -9
-6 -4 -9 17 -9 l30 -1 -25 -15 c-23 -14 -21 -15 40 -8 36 4 81 8 100 8 19 1
40 6 45 13 14 17 85 28 85 14 0 -6 -7 -11 -15 -11 -9 0 -12 -6 -8 -16 5 -13
-3 -15 -48 -14 -30 0 -81 -4 -114 -10 -33 -6 -84 -9 -113 -7 -57 5 -92 0 -92
-14 0 -5 7 -9 15 -9 13 0 14 -3 3 -14 -11 -12 -15 -13 -23 -1 -14 17 -101 23
-116 8 -9 -9 3 -11 47 -9 33 2 50 1 40 -2 -13 -3 -15 -6 -7 -11 7 -4 -9 -9
-34 -9 -76 -3 -90 32 -25 66 14 7 39 25 55 39 l30 25 -35 -6 c-19 -3 -48 -8
-65 -12 -29 -5 -29 -5 -11 10 20 16 20 16 0 16 -16 0 -17 2 -4 10 20 13 43 13
35 0 -10 -16 41 -10 145 18 48 13 62 14 55 2z m125 -30 c0 -5 -6 -10 -14 -10
-8 0 -23 -3 -33 -6 -16 -5 -16 -4 1 10 22 18 46 21 46 6z m225 -10 c4 -6 -7
-10 -25 -10 -18 0 -29 4 -25 10 3 6 15 10 25 10 10 0 22 -4 25 -10z m455 0 c0
-5 -5 -10 -11 -10 -5 0 -7 5 -4 10 3 6 8 10 11 10 2 0 4 -4 4 -10z m-1453 -16
c-3 -3 -12 -4 -19 -1 -8 3 -5 6 6 6 11 1 17 -2 13 -5z m-956 -35 l23 -16 -26
-26 c-23 -23 -31 -25 -54 -17 -30 12 -32 10 -48 -22 -6 -13 -20 -24 -30 -26
-14 -3 -17 2 -14 23 2 21 11 30 38 39 21 7 40 21 47 38 14 29 28 30 64 7z
m1969 12 c0 -11 -49 -21 -55 -11 -3 5 1 11 7 13 21 9 48 8 48 -2z m-740 -31
c0 -6 -8 -13 -17 -16 -10 -3 -26 -10 -36 -15 -27 -15 -30 -6 -7 19 21 23 60
30 60 12z m4377 4 c-3 -3 -12 -4 -19 -1 -8 3 -5 6 6 6 11 1 17 -2 13 -5z
m-3422 -14 c7 -12 -2 -12 -30 0 -19 8 -19 9 2 9 12 1 25 -3 28 -9z m-375 -27
c-12 -8 -28 -12 -38 -8 -14 6 -12 10 13 20 37 16 54 8 25 -12z m4765 17 c3 -5
1 -10 -4 -10 -6 0 -11 5 -11 10 0 6 2 10 4 10 3 0 8 -4 11 -10z m-5705 -14 c0
-16 -21 -26 -56 -26 -23 0 -32 18 -17 33 13 13 73 7 73 -7z m65 -16 c-10 -11
-24 -20 -32 -20 -7 0 -13 -8 -13 -17 0 -10 -14 -33 -31 -50 -30 -33 -59 -43
-59 -22 0 7 -10 9 -25 7 -14 -3 -25 -2 -25 3 0 11 41 39 58 39 11 0 69 36 82
51 8 9 44 28 54 29 5 0 1 -9 -9 -20z m815 8 c0 -5 -6 -8 -13 -8 -18 0 -77 -30
-77 -38 1 -27 20 -32 98 -29 58 2 83 0 86 -9 5 -14 -18 -26 -36 -19 -7 3 -26
1 -43 -4 -16 -5 -22 -10 -12 -10 9 -1 17 -6 17 -12 0 -5 5 -7 10 -4 6 3 10 -1
10 -11 0 -11 6 -15 20 -11 11 3 20 2 20 -3 0 -13 -51 -29 -125 -39 -38 -6 -81
-13 -95 -17 -44 -12 -9 14 55 40 33 14 51 25 40 26 -11 0 -42 -12 -69 -26 -36
-19 -51 -23 -56 -14 -5 7 -19 11 -34 8 -16 -3 -23 -1 -19 5 4 7 -13 8 -48 4
-51 -5 -50 -2 6 19 26 9 144 11 147 2 2 -3 17 0 33 8 22 10 24 13 8 10 -13 -2
-23 0 -23 4 0 5 10 11 23 14 12 3 -6 3 -40 1 -38 -3 -63 -1 -63 5 0 6 7 10 15
10 8 0 15 4 15 9 0 14 -122 0 -147 -16 -29 -19 -166 -16 -159 4 3 8 -2 13 -12
13 -15 0 -15 2 -2 10 8 5 24 7 34 4 14 -5 18 -2 13 9 -8 21 26 32 52 17 14 -7
34 -7 68 1 69 16 133 39 133 48 0 4 38 7 85 7 47 -1 85 -4 85 -8z m317 6 c-3
-3 -12 -4 -19 -1 -8 3 -5 6 6 6 11 1 17 -2 13 -5z m-200 -19 c0 -9 -6 -14 -13
-11 -7 3 -14 1 -16 -4 -2 -6 -25 -13 -53 -16 -41 -5 -48 -4 -37 7 6 7 28 13
47 13 22 0 35 5 35 13 0 7 8 13 18 13 10 0 19 -7 19 -15z m3718 -5 c3 -5 -3
-10 -15 -10 -12 0 -18 5 -15 10 3 6 10 10 15 10 5 0 12 -4 15 -10z m-4475 -10
c0 -13 -38 -32 -51 -25 -14 10 9 35 32 35 11 0 19 -4 19 -10z m870 -10 c-8 -5
-26 -9 -40 -9 l-25 1 25 8 c14 4 32 8 40 9 13 1 13 0 0 -9z m-675 -10 c-3 -5
-12 -10 -18 -10 -7 0 -6 4 3 10 19 12 23 12 15 0z m601 -9 c-10 -15 -42 -19
-59 -6 -14 10 -10 12 24 13 22 1 38 -2 35 -7z m3759 -31 c-3 -5 -14 -10 -23
-10 -15 0 -15 2 -2 10 20 13 33 13 25 0z m-3811 -36 c21 -8 21 -24 0 -24 -8 0
-13 4 -9 9 3 5 -3 12 -12 14 -10 3 -13 5 -6 6 6 0 18 -2 27 -5z m-728 -13 c-7
-11 -66 -20 -84 -13 -11 4 -11 6 0 13 17 12 91 11 84 0z m130 -21 c0 -20 -53
-47 -65 -34 -3 4 0 9 7 11 6 3 12 11 12 18 0 13 14 23 35 24 6 1 11 -8 11 -19z
m-476 -30 c0 -5 -5 -10 -11 -10 -5 0 -7 5 -4 10 3 6 8 10 11 10 2 0 4 -4 4
-10z m595 -5 l30 -13 -29 -1 c-27 -1 -29 -14 -3 -17 7 0 21 -2 32 -3 17 -1 18
-3 4 -11 -8 -5 -27 -11 -41 -14 -15 -2 -35 -9 -46 -15 -26 -14 -65 -14 -57 -1
3 6 16 10 28 11 20 1 20 2 -3 9 l-25 7 28 11 c38 16 34 24 -8 16 -47 -8 -45
10 3 23 50 14 53 14 87 -2z m492 9 c-3 -3 -12 -4 -19 -1 -8 3 -5 6 6 6 11 1
17 -2 13 -5z m-927 -29 c0 -8 -5 -15 -11 -15 -6 0 -9 -6 -6 -14 8 -19 -36 -58
-56 -50 -9 3 -13 12 -10 20 3 8 0 14 -6 14 -6 0 -11 -4 -11 -10 0 -5 -13 -10
-30 -10 -27 0 -29 -2 -24 -28 4 -19 1 -32 -10 -41 -9 -8 -16 -19 -16 -25 0
-22 25 -66 37 -66 7 0 12 -8 10 -17 -5 -30 -31 -63 -49 -63 -10 0 -18 -5 -18
-11 0 -6 -6 -9 -12 -6 -12 3 -16 25 -20 100 0 15 -5 27 -9 27 -19 0 -8 42 11
47 26 7 22 36 -5 42 -46 8 -37 43 21 87 l35 27 24 -29 c23 -28 24 -28 25 -6 0
15 6 22 20 22 11 0 20 -7 20 -15 0 -22 13 -18 40 10 26 28 50 33 50 10z m520
6 c0 -12 -20 -25 -27 -18 -7 7 6 27 18 27 5 0 9 -4 9 -9z m70 -17 c0 -11 -45
-43 -62 -44 -9 0 -19 -4 -23 -9 -3 -6 7 -6 27 0 42 12 78 12 78 0 0 -5 -10
-11 -22 -13 -28 -4 -36 -28 -9 -28 12 0 18 -5 16 -13 -7 -17 83 -10 110 9 23
16 73 18 95 4 11 -7 3 -9 -27 -5 -35 4 -41 2 -37 -10 4 -8 17 -15 30 -15 13 0
24 -4 24 -10 0 -5 -12 -10 -26 -10 -31 0 -22 -20 9 -21 17 0 18 -2 6 -7 -25
-11 -69 -49 -69 -60 0 -6 -10 -12 -22 -14 -13 -2 -22 -9 -20 -17 2 -9 -10 -12
-45 -10 -26 1 -70 1 -98 0 -45 -1 -48 -3 -32 -16 18 -13 18 -14 -2 -24 -11 -6
-34 -11 -51 -11 -17 0 -40 -4 -50 -10 -22 -12 -50 -3 -50 15 0 8 15 25 33 39
l32 26 -40 -6 c-41 -5 -37 -1 30 26 l30 12 -24 9 c-13 5 -33 7 -45 4 -20 -6
-20 -5 3 14 13 12 31 21 42 21 10 0 21 4 24 10 3 6 30 7 64 4 35 -4 66 -2 77
4 17 10 17 11 2 12 -21 0 -24 16 -5 24 6 3 -6 3 -28 -1 -22 -3 -45 -10 -52
-15 -7 -6 -14 -5 -18 3 -4 6 -1 15 6 20 9 5 -3 6 -28 3 -35 -4 -42 -2 -37 11
7 17 -30 22 -41 5 -3 -5 -1 -10 4 -10 7 0 7 -7 -1 -20 -18 -28 -30 -25 -22 5
4 15 2 25 -5 25 -26 0 -8 18 25 24 33 7 141 47 174 66 17 10 50 13 50 4z m330
-5 c0 -3 -30 -12 -66 -19 -58 -12 -64 -16 -48 -27 22 -16 13 -27 -15 -18 -33
10 -25 31 20 52 38 18 109 26 109 12z m-770 -3 c0 -3 -4 -8 -10 -11 -5 -3 -10
-1 -10 4 0 6 5 11 10 11 6 0 10 -2 10 -4z m597 -19 c3 -5 1 -7 -5 -3 -6 3 -16
0 -24 -7 -20 -20 -48 -29 -45 -14 1 8 -8 11 -28 9 -16 -2 -26 0 -22 5 9 8 14
9 43 12 8 0 13 5 10 9 -2 4 11 6 30 4 19 -2 37 -9 41 -15z m-715 -61 c-17 -19
-33 -44 -37 -55 -7 -23 -45 -29 -45 -8 0 22 31 77 43 78 23 1 49 8 55 13 3 3
7 6 10 6 2 0 -9 -15 -26 -34z m628 19 c0 -10 -10 -15 -27 -15 -27 1 -27 1 -9
15 25 19 36 19 36 0z m-340 -74 c0 -13 -29 -35 -37 -28 -7 8 15 37 28 37 5 0
9 -4 9 -9z m80 -1 c0 -5 -8 -10 -17 -10 -15 0 -16 2 -3 10 19 12 20 12 20 0z
m2018 -31 c-3 -8 -7 -3 -11 10 -4 17 -3 21 5 13 5 -5 8 -16 6 -23z m-1498 11
c0 -6 -23 -9 -52 -9 l-53 2 40 7 c60 11 65 11 65 0z m1045 0 c3 -5 1 -10 -4
-10 -6 0 -11 5 -11 10 0 6 2 10 4 10 3 0 8 -4 11 -10z m-650 -10 c7 -12 -2
-12 -30 0 -19 8 -19 9 2 9 12 1 25 -3 28 -9z m366 -7 c13 -16 12 -17 -3 -4
-10 7 -18 15 -18 17 0 8 8 3 21 -13z m224 -11 c-3 -3 -11 0 -18 7 -9 10 -8 11
6 5 10 -3 15 -9 12 -12z m-1725 -2 c0 -5 -4 -10 -10 -10 -5 0 -10 5 -10 10 0
6 5 10 10 10 6 0 10 -4 10 -10z m734 -8 c3 -5 27 -5 53 -1 26 4 64 8 83 8 30
0 27 -3 -23 -16 -37 -9 -75 -13 -103 -8 -45 6 -71 25 -35 25 11 0 22 -4 25 -8z
m3188 -14 c-7 -7 -12 -8 -12 -2 0 14 12 26 19 19 2 -3 -1 -11 -7 -17z m-2375
6 c-3 -3 -12 -4 -19 -1 -8 3 -5 6 6 6 11 1 17 -2 13 -5z m-764 -37 c42 1 50
-14 12 -22 -14 -3 -36 -7 -50 -10 -14 -3 -34 -1 -44 5 -13 7 -20 7 -23 -1 -4
-11 -38 -2 -38 11 0 15 46 29 75 22 17 -4 47 -6 68 -5z m1022 -5 c-3 -3 -11 0
-18 7 -9 10 -8 11 6 5 10 -3 15 -9 12 -12z m-945 -2 c0 -5 -4 -10 -10 -10 -5
0 -10 5 -10 10 0 6 5 10 10 10 6 0 10 -4 10 -10z m915 -10 c12 -13 14 -20 5
-20 -10 0 -10 -3 0 -15 6 -8 15 -14 18 -13 10 3 52 -25 52 -34 0 -5 -14 -8
-31 -8 -16 0 -28 4 -25 9 3 5 -1 11 -9 15 -34 13 -11 -25 25 -40 22 -10 19
-11 -27 -12 -29 0 -50 4 -48 9 3 4 12 6 20 2 8 -3 15 0 15 5 0 6 -16 14 -35
18 -40 7 -38 19 3 19 22 0 27 5 28 25 0 14 -6 33 -14 43 -21 24 1 22 23 -3z
m2202 -22 c-3 -8 -6 -5 -6 6 -1 11 2 17 5 13 3 -3 4 -12 1 -19z m-2609 -16 c2
-7 -1 -12 -7 -12 -6 0 -11 5 -11 10 0 6 -24 11 -52 11 -48 2 -50 2 -18 8 41 8
82 0 88 -17z m259 12 c-3 -3 -12 -4 -19 -1 -8 3 -5 6 6 6 11 1 17 -2 13 -5z
m-1041 -17 c4 -4 1 -8 -7 -8 -30 -3 -55 -6 -79 -7 -18 -2 -21 -5 -12 -11 16
-10 -23 -27 -80 -35 -35 -4 -50 5 -29 18 5 3 7 15 4 25 -4 16 1 20 29 23 56 6
167 3 174 -5z m887 6 c-7 -2 -19 -2 -25 0 -7 3 -2 5 12 5 14 0 19 -2 13 -5z
m194 1 c-3 -3 -12 -4 -19 -1 -8 3 -5 6 6 6 11 1 17 -2 13 -5z m-420 -20 c-3
-3 -12 -4 -19 -1 -8 3 -5 6 6 6 11 1 17 -2 13 -5z m73 -4 c0 -5 -2 -10 -4 -10
-3 0 -8 5 -11 10 -3 6 -1 10 4 10 6 0 11 -4 11 -10z m120 -10 c12 -8 11 -10
-7 -10 -12 0 -25 5 -28 10 -8 13 15 13 35 0z m91 -8 c-7 -2 -18 1 -23 6 -8 8
-4 9 13 5 13 -4 18 -8 10 -11z m-1828 -24 c5 -38 -7 -58 -35 -58 -11 0 -28 -5
-39 -10 -15 -8 -19 -7 -19 4 0 8 6 16 13 19 9 3 9 8 -3 21 -12 16 -11 20 10
37 40 30 67 25 73 -13z m873 23 c-3 -5 -15 -7 -26 -4 -28 7 -25 13 6 13 14 0
23 -4 20 -9z m737 -8 c-7 -2 -19 -2 -25 0 -7 3 -2 5 12 5 14 0 19 -2 13 -5z
m-1012 -17 c-14 -17 -65 -41 -106 -50 l-30 -6 24 20 c17 15 32 19 49 15 15 -4
21 -2 17 5 -10 16 4 30 32 30 21 0 23 -3 14 -14z m497 7 c-10 -2 -26 -2 -35 0
-10 3 -2 5 17 5 19 0 27 -2 18 -5z m389 1 c-3 -3 -12 -4 -19 -1 -8 3 -5 6 6 6
11 1 17 -2 13 -5z m310 0 c-3 -3 -12 -4 -19 -1 -8 3 -5 6 6 6 11 1 17 -2 13
-5z m-368 -8 c-9 -10 -89 -15 -84 -5 4 5 25 9 47 9 23 0 39 -2 37 -4z m200 -6
c-17 -9 -52 -13 -94 -10 l-30 2 30 7 c44 9 111 10 94 1z m316 -7 c-34 -8 -58
-10 -75 -3 -14 5 -34 11 -45 13 -11 3 23 4 75 4 l94 -1 -49 -13z m-1190 -3
c-11 -5 -31 -9 -45 -9 -23 0 -23 1 -5 9 11 5 31 9 45 9 23 0 23 -1 5 -9z m133
3 c-10 -2 -18 -9 -18 -14 0 -5 -17 -9 -37 -9 -23 0 -33 4 -27 9 10 10 46 18
79 18 16 1 17 0 3 -4z m339 -9 c-3 -3 -12 -4 -19 -1 -8 3 -5 6 6 6 11 1 17 -2
13 -5z m589 -9 c-11 -8 -36 -15 -55 -14 l-36 1 40 13 c56 18 75 18 51 0z
m-1724 -15 c19 -21 17 -24 -25 -34 -20 -5 -29 -2 -33 9 -16 42 28 61 58 25z
m1993 10 c7 -12 -22 -12 -50 0 -17 7 -15 9 12 9 17 1 35 -3 38 -9z m2282 -22
c-3 -7 -5 -2 -5 12 0 14 2 19 5 13 2 -7 2 -19 0 -25z m-3157 7 c16 -19 0 -19
-26 0 -16 12 -16 14 -3 15 9 0 22 -7 29 -15z m417 9 c-3 -3 -12 -4 -19 -1 -8
3 -5 6 6 6 11 1 17 -2 13 -5z m589 -21 c-7 -7 -26 7 -26 19 0 6 6 6 15 -2 9
-7 13 -15 11 -17z m-679 11 c-3 -3 -12 -4 -19 -1 -8 3 -5 6 6 6 11 1 17 -2 13
-5z m123 -4 c-8 -5 -22 -9 -30 -9 -10 0 -8 3 5 9 27 12 43 12 25 0z m181 -10
c-35 -16 -50 -18 -70 -10 l-26 10 26 -3 c15 -2 38 2 50 9 13 7 33 13 44 13 12
1 2 -8 -24 -19z m2492 0 c-3 -11 -9 -20 -14 -20 -11 0 -11 3 -3 24 9 23 23 20
17 -4z m-4465 -15 c13 -28 23 -31 52 -13 15 10 22 10 31 1 10 -10 8 -20 -6
-48 l-19 -35 39 -35 c21 -20 53 -38 69 -41 96 -15 140 -49 65 -49 -30 0 -34
-3 -35 -26 -2 -50 -23 -58 -88 -33 -13 5 -17 3 -14 -6 4 -12 61 -50 106 -70
12 -5 22 -11 22 -14 0 -2 3 -11 6 -20 4 -11 1 -16 -10 -16 -10 0 -16 -9 -16
-25 0 -14 -8 -29 -21 -35 -18 -10 -25 -7 -54 27 -26 30 -36 35 -46 26 -16 -16
1 -37 47 -59 19 -9 34 -22 34 -29 0 -7 11 -20 25 -29 14 -9 25 -20 25 -24 0
-12 -56 -42 -78 -42 -14 0 -22 -8 -24 -22 -3 -25 -23 -27 -88 -11 -31 8 -35
13 -33 42 2 52 12 81 29 81 11 0 12 4 4 19 -5 11 -10 49 -10 84 0 67 -29 140
-69 176 -18 15 -41 70 -41 97 0 7 12 14 28 16 25 3 27 6 24 47 -7 82 21 122
46 66z m826 0 c-26 -19 -10 -19 32 1 19 9 37 14 41 11 12 -13 -7 -37 -30 -37
-13 0 -28 -5 -34 -11 -8 -8 -17 -6 -33 9 l-22 20 29 15 c33 18 45 13 17 -8z
m1490 10 c3 -8 1 -15 -4 -15 -6 0 -10 6 -11 13 -1 6 -5 1 -9 -13 l-8 -25 -1
28 c-1 29 23 38 33 12z m-571 -15 c-7 -7 -101 -30 -123 -30 -6 0 -9 6 -7 13 1
7 -7 11 -21 10 -15 -2 -21 1 -16 8 3 6 16 8 28 6 11 -3 29 -2 38 2 24 8 112 1
101 -9z m-1106 4 c-3 -3 -12 -4 -19 -1 -8 3 -5 6 6 6 11 1 17 -2 13 -5z m606
-1 c-13 -2 -33 -2 -45 0 -13 2 -3 4 22 4 25 0 35 -2 23 -4z m3120 -13 c-3 -12
-8 -19 -11 -16 -5 6 5 36 12 36 2 0 2 -9 -1 -20z m204 -12 c-3 -7 -5 -2 -5 12
0 14 2 19 5 13 2 -7 2 -19 0 -25z m-3521 11 c5 -9 -55 -21 -67 -13 -5 3 -9 10
-9 15 0 11 69 9 76 -2z m3266 -11 c-7 -7 -12 -8 -12 -2 0 14 12 26 19 19 2 -3
-1 -11 -7 -17z m-3617 -14 c-23 -17 -89 -19 -80 -3 11 16 45 26 73 21 24 -5
24 -6 7 -18z m-355 6 c0 -5 -4 -10 -10 -10 -5 0 -10 5 -10 10 0 6 5 10 10 10
6 0 10 -4 10 -10z m840 6 c0 -3 -4 -8 -10 -11 -5 -3 -10 -1 -10 4 0 6 5 11 10
11 6 0 10 -2 10 -4z m247 -16 c1 -14 -4 -20 -20 -20 -18 0 -19 2 -7 10 8 5 11
10 7 10 -10 0 1 20 11 20 4 0 8 -9 9 -20z m351 12 c9 -6 6 -12 -13 -20 -15 -7
-25 -8 -25 -2 0 6 -8 10 -17 11 -12 1 -10 4 7 9 34 11 33 11 48 2z m-471 -8
c-3 -3 -12 -4 -19 -1 -8 3 -5 6 6 6 11 1 17 -2 13 -5z m219 -9 c-16 -9 -32
-13 -35 -10 -8 9 21 25 44 25 16 0 14 -3 -9 -15z m-503 -2 c-7 -2 -19 -2 -25
0 -7 3 -2 5 12 5 14 0 19 -2 13 -5z m652 -3 c-16 -4 -39 -8 -50 -8 l-20 -1 20
9 c11 5 34 8 50 8 l30 0 -30 -8z m230 0 c-3 -5 -10 -10 -16 -10 -5 0 -9 5 -9
10 0 6 7 10 16 10 8 0 12 -4 9 -10z m-950 -10 c-3 -5 -11 -10 -16 -10 -6 0 -7
5 -4 10 3 6 11 10 16 10 6 0 7 -4 4 -10z m263 -4 c2 -3 1 -10 -3 -16 -5 -8
-23 -10 -54 -6 -42 6 -44 5 -22 -7 21 -13 22 -15 5 -21 -17 -7 -44 15 -44 36
0 4 -12 8 -27 9 l-28 1 25 8 c24 8 139 4 148 -4z m639 8 c-3 -3 -12 -4 -19 -1
-8 3 -5 6 6 6 11 1 17 -2 13 -5z m360 0 c-3 -3 -12 -4 -19 -1 -8 3 -5 6 6 6
11 1 17 -2 13 -5z m2083 -36 c11 -23 20 -44 20 -46 0 -11 -38 45 -44 66 -12
36 2 25 24 -20z m-2766 5 c-42 -15 -65 -14 -65 2 0 11 68 23 90 16 8 -2 -2
-10 -25 -18z m749 20 c-7 -2 -19 -2 -25 0 -7 3 -2 5 12 5 14 0 19 -2 13 -5z
m-1499 -18 c-4 -8 -10 -15 -15 -15 -4 0 -6 7 -3 15 4 8 10 15 15 15 4 0 6 -7
3 -15z m233 9 c-3 -3 -12 -4 -19 -1 -8 3 -5 6 6 6 11 1 17 -2 13 -5z m296 -1
c-7 -2 -21 -2 -30 0 -10 3 -4 5 12 5 17 0 24 -2 18 -5z m-1129 -18 c-4 -9 -19
-15 -36 -15 -26 0 -29 2 -18 15 7 8 23 15 36 15 17 0 22 -4 18 -15z m156 5 c0
-5 -7 -10 -16 -10 -8 0 -12 5 -9 10 3 6 10 10 16 10 5 0 9 -4 9 -10z m395 1
c-16 -14 -55 -23 -55 -13 0 12 17 20 45 21 11 1 15 -3 10 -8z m1505 -7 c0 -2
-9 -4 -21 -4 -11 0 -18 4 -14 10 5 8 35 3 35 -6z m-1400 2 c0 -3 -4 -8 -10
-11 -5 -3 -10 -1 -10 4 0 6 5 11 10 11 6 0 10 -2 10 -4z m117 -2 c-3 -3 -12
-4 -19 -1 -8 3 -5 6 6 6 11 1 17 -2 13 -5z m133 -4 c8 -5 11 -10 5 -10 -5 0
-17 5 -25 10 -8 5 -10 10 -5 10 6 0 17 -5 25 -10z m280 6 c0 -11 -19 -15 -25
-6 -3 5 1 10 9 10 9 0 16 -2 16 -4z m450 -5 c-8 -5 -26 -11 -40 -15 -21 -5
-20 -3 5 9 32 15 60 20 35 6z m-1026 -26 c-6 -16 -24 -21 -24 -7 0 11 11 22
21 22 5 0 6 -7 3 -15z m511 5 c-3 -5 -13 -10 -21 -10 -8 0 -12 5 -9 10 3 6 13
10 21 10 8 0 12 -4 9 -10z m410 0 c-3 -5 -18 -10 -33 -10 -21 0 -24 2 -12 10
20 13 53 13 45 0z m1015 -10 c0 -11 -4 -20 -9 -20 -5 0 -7 9 -4 20 3 11 7 20
9 20 2 0 4 -9 4 -20z m-1347 3 c-7 -2 -21 -2 -30 0 -10 3 -4 5 12 5 17 0 24
-2 18 -5z m254 1 c-3 -4 -25 -10 -47 -14 -23 -4 -38 -4 -33 0 12 12 92 26 80
14z m-464 -18 c-10 -5 -40 -13 -68 -17 -27 -4 -58 -10 -67 -14 -11 -4 -18 -3
-18 4 0 6 8 11 19 11 10 0 24 7 31 15 8 10 29 14 67 13 42 -1 50 -4 36 -12z
m332 4 c13 -5 14 -9 5 -9 -8 0 -24 4 -35 9 -13 5 -14 9 -5 9 8 0 24 -4 35 -9z
m4786 1 c8 12 10 12 19 -1 15 -20 3 -102 -15 -113 -8 -4 -15 -17 -15 -27 0
-24 -18 -36 -33 -21 -7 7 -5 20 8 45 16 29 17 39 7 61 -7 14 -12 35 -12 47 0
17 2 19 16 7 13 -10 17 -10 25 2z m-5461 -15 c0 -3 -4 -8 -10 -11 -5 -3 -10
-1 -10 4 0 6 5 11 10 11 6 0 10 -2 10 -4z m620 1 c-10 -9 -70 -16 -70 -9 0 4
17 9 37 10 21 2 35 1 33 -1z m-83 -13 c-3 -3 -12 -4 -19 -1 -8 3 -5 6 6 6 11
1 17 -2 13 -5z m-677 -13 c0 -16 -30 -41 -48 -41 -12 0 -9 7 13 25 34 28 35
28 35 16z m95 -1 c-3 -5 -11 -10 -16 -10 -6 0 -7 5 -4 10 3 6 11 10 16 10 6 0
7 -4 4 -10z m3572 -52 c-3 -8 -6 -5 -6 6 -1 11 2 17 5 13 3 -3 4 -12 1 -19z
m60 -10 c-3 -8 -6 -5 -6 6 -1 11 2 17 5 13 3 -3 4 -12 1 -19z m-2590 6 c-3 -3
-12 -4 -19 -1 -8 3 -5 6 6 6 11 1 17 -2 13 -5z m-1117 -8 c0 -2 -7 -6 -15 -10
-8 -3 -15 -1 -15 4 0 6 7 10 15 10 8 0 15 -2 15 -4z m336 -11 c-22 -16 -57
-21 -40 -6 7 8 29 15 54 20 3 0 -4 -6 -14 -14z m131 -11 c-3 -3 -12 -4 -19 -1
-8 3 -5 6 6 6 11 1 17 -2 13 -5z m-227 -8 c0 -2 -7 -7 -16 -10 -8 -3 -12 -2
-9 4 6 10 25 14 25 6z m155 -6 c3 -5 2 -10 -4 -10 -5 0 -13 5 -16 10 -3 6 -2
10 4 10 5 0 13 -4 16 -10z m3355 -14 c0 -3 -4 -8 -10 -11 -5 -3 -10 -1 -10 4
0 6 5 11 10 11 6 0 10 -2 10 -4z m-3512 -27 c-11 -8 -11 -10 0 -18 11 -6 10
-10 -3 -15 -10 -3 -24 -1 -32 5 -10 9 -17 9 -25 1 -20 -20 -32 -13 -14 7 11
12 25 17 39 13 19 -5 20 -3 9 10 -10 13 -9 15 14 10 19 -3 22 -7 12 -13z m49
6 c0 -8 -4 -15 -9 -15 -10 0 -11 14 -1 23 9 10 10 9 10 -8z m69 -9 c-26 -22
-90 -45 -69 -26 10 10 86 50 93 50 3 -1 -8 -11 -24 -24z m3118 -15 c-2 -3 -12
3 -22 13 -16 17 -16 18 5 5 12 -7 20 -15 17 -18z m-2104 9 c0 -5 -2 -10 -4
-10 -3 0 -8 5 -11 10 -3 6 -1 10 4 10 6 0 11 -4 11 -10z m-2411 -16 c51 -25
69 -74 27 -74 -28 0 -86 50 -86 74 0 20 18 20 59 0z m1021 1 c-7 -8 -16 -12
-21 -9 -13 8 -1 24 18 24 13 0 13 -3 3 -15z m-240 -19 c0 -3 -4 -8 -10 -11 -5
-3 -10 -1 -10 4 0 6 5 11 10 11 6 0 10 -2 10 -4z m390 -6 c0 -5 -5 -10 -11
-10 -5 0 -7 5 -4 10 3 6 8 10 11 10 2 0 4 -4 4 -10z m70 3 c0 -14 -15 -29 -32
-36 -27 -10 -31 10 -6 27 24 17 38 20 38 9z m3295 -3 c3 -5 2 -10 -4 -10 -5 0
-13 5 -16 10 -3 6 -2 10 4 10 5 0 13 -4 16 -10z m-3865 -9 c0 -19 -42 -23 -58
-7 -15 15 -13 16 21 16 20 0 37 -4 37 -9z m355 -31 c3 -5 1 -10 -4 -10 -6 0
-11 5 -11 10 0 6 2 10 4 10 3 0 8 -4 11 -10z m220 -10 c-10 -11 -21 -18 -23
-15 -3 3 3 12 14 20 27 20 30 18 9 -5z m1151 4 c-4 -9 1 -27 9 -40 9 -13 12
-24 7 -24 -12 0 -31 41 -30 63 1 9 6 17 11 17 5 0 6 -7 3 -16z m-701 -18 c67
-6 108 -66 45 -66 -16 0 -30 5 -30 11 0 6 7 8 16 5 9 -3 20 -3 26 0 15 10 -41
34 -79 34 -19 0 -42 7 -51 17 -16 15 -15 16 13 9 17 -4 44 -9 60 -10z m761 0
c16 -16 19 -40 4 -31 -12 8 -33 45 -25 45 4 0 13 -6 21 -14z m61 -18 c-3 -8
-6 -5 -6 6 -1 11 2 17 5 13 3 -3 4 -12 1 -19z m-887 -10 c0 -6 11 -7 24 -4 29
7 39 -4 20 -22 -8 -7 -14 -9 -14 -5 0 5 -13 14 -30 20 -16 6 -30 16 -30 22 0
6 7 8 15 5 8 -4 15 -11 15 -16z m-812 0 c-5 -15 -35 -34 -43 -27 -3 4 -3 14 1
23 7 18 48 23 42 4z m1012 5 c0 -5 -11 -9 -25 -9 -14 -1 -25 2 -25 7 0 5 11 9
25 9 14 0 25 -3 25 -7z m-375 -23 c3 -5 1 -10 -4 -10 -6 0 -11 5 -11 10 0 6 2
10 4 10 3 0 8 -4 11 -10z m93 3 c-26 -7 -22 -20 7 -25 14 -3 25 -1 25 3 0 5 7
9 15 9 8 0 15 -4 15 -10 0 -14 78 -12 82 2 3 7 7 2 10 -10 5 -16 2 -22 -10
-24 -24 -2 -35 -4 -52 -11 -8 -3 -46 -13 -85 -21 -38 -8 -64 -15 -57 -15 7 -1
11 -5 8 -10 -3 -4 -33 -8 -66 -7 -33 0 -60 -2 -60 -6 0 -5 7 -8 15 -8 8 0 15
-4 15 -9 0 -5 12 -12 27 -16 25 -6 26 -8 10 -17 -10 -5 -27 -8 -36 -5 -11 2
-23 -4 -30 -15 -6 -10 -16 -16 -21 -13 -6 3 -10 0 -10 -7 0 -15 -63 -58 -85
-58 -8 0 -15 -5 -15 -11 0 -6 9 -8 21 -4 15 5 19 4 15 -4 -4 -6 0 -11 9 -11 9
0 14 -4 10 -10 -3 -5 -12 -7 -20 -3 -9 3 -15 -1 -15 -11 0 -9 -3 -16 -7 -16
-5 0 -8 -14 -9 -30 -1 -17 3 -30 8 -30 5 0 6 -4 3 -10 -3 -5 1 -10 9 -10 9 0
16 -5 16 -12 0 -6 6 -3 14 8 13 17 15 18 21 2 4 -9 2 -32 -4 -50 -6 -19 -12
-75 -12 -126 -1 -60 -5 -92 -13 -92 -6 0 -5 -4 3 -9 7 -5 10 -14 7 -20 -4 -6
-4 -16 0 -22 4 -8 9 -7 15 2 6 10 9 8 9 -8 0 -13 4 -23 9 -23 5 0 12 -11 15
-25 4 -16 11 -22 21 -19 20 8 19 -5 -2 -28 -9 -11 -11 -18 -5 -18 7 0 12 4 12
8 0 5 7 9 15 9 8 0 15 -4 15 -7 0 -4 23 -31 50 -59 28 -28 50 -49 50 -47 0 3
30 -10 68 -28 37 -18 99 -39 137 -47 44 -8 75 -20 83 -31 16 -22 36 -24 28 -2
-3 9 -2 12 5 9 6 -4 8 -12 6 -19 -3 -6 6 -12 19 -12 13 -1 24 2 24 7 0 5 -6 9
-12 10 -10 0 -10 2 0 6 7 3 20 -3 28 -13 9 -11 12 -13 8 -5 -5 11 1 13 29 9
20 -2 33 0 31 4 -3 4 2 8 10 8 9 0 16 -8 16 -19 0 -17 3 -18 24 -8 16 8 21 14
13 19 -14 9 -4 11 35 8 15 -1 37 4 50 11 13 6 20 8 16 4 -4 -4 -3 -16 3 -26 6
-12 6 -19 0 -19 -5 0 -11 5 -13 11 -2 6 -11 7 -22 3 -19 -7 -19 -8 0 -15 17
-7 17 -8 2 -8 -10 -1 -18 -7 -18 -15 0 -7 -9 -16 -19 -19 -17 -4 -18 -2 -11
19 11 28 9 29 -31 9 -16 -9 -27 -20 -23 -26 4 -6 12 -6 22 3 14 10 15 10 5 -2
-7 -8 -13 -20 -13 -28 0 -16 -40 -55 -48 -47 -3 3 2 11 12 18 12 9 16 22 12
51 -5 43 -11 52 -21 37 -3 -6 -1 -11 6 -11 7 0 -6 -18 -29 -40 -22 -22 -47
-40 -56 -40 -15 0 -32 37 -22 47 3 4 6 -1 6 -10 0 -21 -1 -21 39 -1 37 19 49
40 31 57 -9 9 -11 8 -8 -8 2 -14 -3 -21 -19 -23 -13 -2 -23 -9 -23 -15 0 -7
-10 2 -21 18 -12 17 -19 22 -15 13 4 -13 0 -18 -15 -18 -15 0 -19 5 -16 15 4
8 1 17 -5 21 -8 5 -9 -2 -5 -24 5 -22 2 -32 -10 -36 -12 -5 -14 -1 -9 18 3 13
2 35 -3 47 -7 21 -9 20 -15 -14 -6 -35 -21 -55 -33 -44 -3 3 -1 12 3 19 5 7 9
18 10 23 1 6 6 19 10 30 7 18 6 18 -9 6 -9 -7 -15 -16 -14 -20 2 -3 -7 -17
-21 -31 -13 -14 -23 -20 -22 -15 1 6 2 19 1 30 -2 20 -2 20 -16 1 -12 -16 -17
-17 -30 -6 -8 7 -15 9 -15 4 0 -5 -5 -1 -11 9 -5 9 -7 22 -4 27 3 6 1 10 -4
10 -6 0 -11 -4 -11 -9 0 -21 -60 11 -66 35 -6 23 -19 29 -56 26 -14 -1 -18 6
-18 33 0 19 -4 35 -9 35 -5 0 -7 -8 -4 -18 3 -13 -1 -19 -12 -19 -9 0 -14 6
-11 14 3 7 1 13 -5 13 -6 0 -8 7 -5 16 4 12 1 14 -13 9 -11 -3 -22 -1 -26 5
-3 6 -11 8 -16 5 -14 -9 -50 5 -43 16 4 6 10 7 17 0 8 -6 22 -4 42 5 29 14 29
14 3 9 -14 -3 -37 -1 -50 4 -13 6 -18 10 -11 10 7 1 10 8 7 16 -5 12 -10 13
-20 4 -11 -9 -14 -8 -14 6 0 9 -6 15 -12 12 -7 -2 -12 -11 -10 -20 4 -21 -30
-39 -43 -23 -5 6 -11 18 -13 26 -5 27 -36 95 -51 110 -8 8 -26 23 -40 33 l-26
18 25 -3 c22 -3 25 0 25 37 0 26 -6 46 -17 58 -21 21 -26 107 -5 107 6 0 4 5
-5 11 -22 12 -24 59 -3 59 22 0 18 17 -5 23 -30 8 -24 24 10 32 17 4 28 11 24
16 -3 5 2 9 11 9 11 0 15 5 11 15 -3 8 -1 15 5 15 6 0 8 3 5 8 -7 11 16 36 47
49 15 7 27 17 27 23 0 6 -6 8 -12 4 -15 -8 26 41 56 69 25 23 17 30 -17 12
-23 -12 -27 -12 -27 1 0 8 7 14 15 14 8 0 15 4 15 10 0 5 8 9 18 8 36 -3 52 2
52 17 0 18 30 20 30 3 0 -7 5 -5 11 5 5 9 22 17 37 17 15 0 32 4 37 8 14 10
17 32 5 32 -5 0 -10 5 -10 11 0 6 9 9 20 6 10 -3 24 1 31 9 6 8 19 13 28 13
13 -1 13 -2 -1 -6z m862 -34 c0 -14 -5 -11 -31 17 l-24 27 28 -18 c15 -9 27
-21 27 -26z m-1235 21 c-3 -5 -12 -10 -18 -10 -7 0 -6 4 3 10 19 12 23 12 15
0z m1186 -12 c11 -11 19 -26 19 -31 0 -6 -1 -8 -2 -6 -2 2 -14 16 -27 32 -14
15 -21 27 -16 27 4 0 16 -10 26 -22z m-396 2 c-3 -5 -14 -10 -23 -9 -14 0 -13
2 3 9 27 11 27 11 20 0z m-130 -10 c3 -5 -1 -10 -10 -10 -9 0 -13 5 -10 10 3
6 8 10 10 10 2 0 7 -4 10 -10z m-995 -19 c0 -20 -13 -35 -23 -25 -7 8 4 44 14
44 5 0 9 -9 9 -19z m630 4 c0 -9 -6 -12 -15 -9 -8 4 -15 10 -15 15 0 5 7 9 15
9 8 0 15 -7 15 -15z m294 -10 c-10 -8 -29 -15 -42 -15 -21 0 -22 2 -8 15 8 8
21 12 29 9 8 -3 18 0 22 6 4 6 10 9 13 6 3 -4 -3 -13 -14 -21z m110 -18 c7 -6
6 -7 -4 -4 -8 2 -16 12 -17 23 -2 13 -1 15 4 4 3 -8 11 -19 17 -23z m-1199 14
c3 -5 1 -12 -5 -16 -5 -3 -10 1 -10 9 0 18 6 21 15 7z m522 3 c-3 -3 -12 -4
-19 -1 -8 3 -5 6 6 6 11 1 17 -2 13 -5z m610 -21 c3 -7 -3 -9 -16 -6 -12 3
-21 10 -21 15 0 13 32 6 37 -9z m551 -17 c12 -7 12 -10 1 -17 -19 -12 -38 8
-31 34 4 15 7 17 10 7 3 -8 12 -19 20 -24z m352 25 c0 -5 -6 -14 -14 -20 -12
-10 -13 -8 -9 8 5 21 23 30 23 12z m-397 -16 c-3 -9 -8 -14 -10 -11 -3 3 -2 9
2 15 9 16 15 13 8 -4z m96 -39 c-9 -8 -10 -7 -5 7 3 10 7 26 7 35 1 9 4 6 6
-7 3 -13 -1 -28 -8 -35z m-744 34 c-54 -12 -84 -12 -67 -1 7 4 34 8 60 8 l47
1 -40 -8z m782 -12 c-3 -8 -6 -5 -6 6 -1 11 2 17 5 13 3 -3 4 -12 1 -19z
m3641 -14 c-3 -14 -5 -12 -10 9 -3 19 -2 25 4 19 6 -6 8 -18 6 -28z m-4335 19
c-7 -2 -21 -2 -30 0 -10 3 -4 5 12 5 17 0 24 -2 18 -5z m-1084 -26 c13 -16 5
-27 -19 -27 -20 0 -43 24 -33 33 11 12 40 8 52 -6z m501 -1 c0 -3 -4 -8 -10
-11 -5 -3 -10 -1 -10 4 0 6 5 11 10 11 6 0 10 -2 10 -4z m1270 -27 c0 -5 -4
-9 -10 -9 -5 0 -10 7 -10 16 0 8 5 12 10 9 6 -3 10 -10 10 -16z m17 -1 c-3 -8
-6 -5 -6 6 -1 11 2 17 5 13 3 -3 4 -12 1 -19z m-1937 -5 c14 -10 43 -18 64
-18 36 0 40 -3 48 -32 5 -18 13 -33 18 -33 14 0 13 -23 -1 -37 -9 -9 -18 -8
-35 4 -32 21 -45 9 -40 -38 4 -31 1 -41 -12 -46 -9 -3 -29 -17 -44 -31 -21
-19 -26 -31 -21 -50 5 -21 3 -23 -18 -20 -20 2 -24 9 -24 37 0 19 -6 36 -12
38 -8 3 -13 -5 -13 -22 0 -22 -4 -26 -22 -23 -16 2 -22 9 -20 21 3 16 -2 17
-32 11 l-36 -6 1 38 c0 22 -2 55 -3 74 -3 31 -1 35 20 32 17 -3 22 2 22 17 0
23 1 24 24 15 21 -8 21 -24 0 -24 -11 0 -14 -6 -9 -21 4 -13 1 -27 -10 -39
-20 -22 -14 -50 10 -50 9 0 18 8 21 18 3 9 13 31 22 47 9 17 15 32 15 35 -1 3
8 10 19 16 20 11 20 11 -3 32 -24 23 -20 43 5 23 8 -7 21 -9 27 -5 9 5 7 11
-7 21 -16 12 -17 15 -4 23 20 13 22 13 50 -7z m5030 -43 c28 -96 37 -122 62
-177 36 -77 75 -111 171 -152 79 -33 120 -37 177 -21 46 13 55 -4 27 -54 -46
-83 -178 -167 -290 -184 -46 -7 -64 -5 -109 12 -71 27 -98 50 -142 120 -38 57
-56 128 -56 211 0 36 60 172 111 253 18 28 40 25 49 -8z m-3194 -17 c-10 -10
-19 5 -10 18 6 11 8 11 12 0 2 -7 1 -15 -2 -18z m24 -60 c-10 -16 -11 -15 -6
7 3 14 6 32 7 40 1 8 4 5 6 -7 2 -12 -1 -30 -7 -40z m115 35 c-6 -17 -4 -20 9
-15 22 9 20 4 -6 -19 -12 -10 -18 -13 -13 -5 4 8 2 16 -5 21 -10 6 -10 11 1
24 19 21 22 20 14 -6z m3602 -25 c-3 -10 -5 -2 -5 17 0 19 2 27 5 18 2 -10 2
-26 0 -35z m-4304 -11 c15 -6 27 -16 27 -22 0 -6 8 -14 17 -17 49 -19 63 -44
63 -114 l0 -67 -77 -20 c-43 -12 -126 -29 -185 -39 -60 -9 -108 -21 -108 -25
0 -4 -9 -8 -20 -8 -22 0 -27 -25 -7 -37 7 -4 20 -19 28 -33 29 -45 81 -88 150
-125 123 -64 240 -57 416 26 89 42 137 84 113 99 -9 5 -9 9 -1 14 6 4 11 14
11 23 0 19 35 64 44 56 3 -3 6 -1 6 5 0 6 -9 14 -20 17 -16 5 -18 10 -10 26 6
11 8 24 5 29 -3 6 -2 10 3 10 6 0 14 17 19 38 l10 37 25 -55 c65 -139 100
-255 83 -268 -6 -4 -10 -13 -10 -21 0 -31 -24 -21 -31 13 -3 20 -11 36 -16 36
-6 0 -7 7 -4 16 3 9 3 21 -1 27 -5 7 -8 21 -8 32 0 17 -7 20 -40 20 l-40 0 -1
-43 c-1 -23 -10 -54 -20 -70 -10 -15 -17 -31 -16 -36 6 -18 -43 -100 -91 -152
-77 -85 -98 -94 -230 -101 -192 -10 -280 22 -384 137 -86 94 -133 214 -133
335 0 96 51 218 64 153 3 -12 8 -36 11 -53 3 -16 11 -47 16 -68 l10 -37 25 25
c14 14 33 25 42 26 9 0 42 8 72 18 46 15 55 22 58 45 2 18 -1 26 -11 26 -9 0
-30 18 -47 40 -17 22 -29 40 -26 40 3 0 9 0 12 -1 4 0 10 3 13 8 10 13 63 36
96 41 17 2 31 5 33 6 5 6 37 0 65 -12z m91 -8 c9 -3 16 -12 16 -20 0 -20 -13
-17 -28 6 -13 22 -12 23 12 14z m43 -41 c-3 -10 -5 -4 -5 12 0 17 2 24 5 18 2
-7 2 -21 0 -30z m440 -5 c-3 -7 -5 -2 -5 12 0 14 2 19 5 13 2 -7 2 -19 0 -25z
m30 -30 c-3 -8 -6 -5 -6 6 -1 11 2 17 5 13 3 -3 4 -12 1 -19z m-430 -10 c-3
-8 -6 -5 -6 6 -1 11 2 17 5 13 3 -3 4 -12 1 -19z m-33 -15 c-10 -40 -14 -41
-14 -5 0 18 5 32 10 32 6 0 8 -11 4 -27z m656 -52 c-6 -12 -15 -21 -21 -21 -5
0 -2 15 7 33 10 17 19 27 21 20 2 -7 -1 -21 -7 -32z m-1503 -7 c-9 -9 -28 6
-21 18 4 6 10 6 17 -1 6 -6 8 -13 4 -17z m-827 -7 c0 -13 16 -41 35 -63 19
-21 44 -50 56 -63 21 -24 19 -51 -3 -51 -7 0 -21 -14 -30 -30 -9 -17 -24 -30
-32 -30 -26 0 -66 70 -66 115 0 79 12 145 26 145 8 0 14 -10 14 -23z m168 -63
l22 -21 -50 11 c-35 7 -50 15 -50 26 0 9 3 19 6 22 7 8 44 -12 72 -38z m2119
24 c-3 -8 -6 -5 -6 6 -1 11 2 17 5 13 3 -3 4 -12 1 -19z m-14 -105 c-9 -20 -8
-102 2 -148 5 -26 0 -35 -36 -70 -31 -30 -37 -41 -25 -43 20 -4 21 -21 1 -28
-8 -4 -12 -10 -9 -15 5 -9 -33 -65 -43 -62 -3 1 -10 7 -15 15 -7 10 -8 8 -4
-5 3 -10 0 -20 -9 -23 -7 -3 -11 -13 -9 -22 3 -9 -2 -6 -11 8 -10 15 -14 17
-11 7 5 -14 2 -17 -13 -12 -10 3 -24 -1 -31 -10 -11 -13 -15 -13 -22 -3 -6 10
-10 10 -18 -2 -6 -10 -6 -16 0 -18 6 -2 10 -8 10 -14 0 -6 -8 -4 -18 5 -22 20
-54 23 -46 4 3 -8 -11 -21 -34 -34 -35 -18 -40 -19 -48 -4 -17 28 -5 46 50 74
59 30 71 33 60 15 -5 -9 -2 -9 9 1 9 7 17 19 17 25 0 15 104 116 120 116 6 0
21 11 32 25 11 14 24 25 30 25 21 0 35 33 28 69 -8 51 -2 75 16 60 22 -18 16
2 -8 28 -12 13 -16 23 -10 23 7 0 12 -6 12 -12 1 -7 8 -1 16 15 16 30 29 37
17 10z m29 -44 c-8 -31 -9 -32 -16 -12 -4 14 -2 28 6 37 18 20 21 14 10 -25z
m-2172 -49 c0 -5 -5 -10 -11 -10 -5 0 -7 5 -4 10 3 6 8 10 11 10 2 0 4 -4 4
-10z m2195 0 c3 -5 0 -21 -8 -35 l-13 -26 0 36 c0 34 9 45 21 25z m1585 -45
c0 -12 -14 -15 -62 -15 -68 0 -70 16 -3 23 22 2 46 4 53 5 6 1 12 -5 12 -13z
m94 2 c10 -10 4 -12 -31 -14 -37 -1 -42 1 -32 13 14 17 46 18 63 1z m-3994
-40 c17 -30 7 -46 -18 -31 -21 13 -30 68 -10 62 7 -3 20 -16 28 -31z m164 -19
c20 -28 20 -38 1 -38 -17 0 -55 35 -55 50 0 19 39 10 54 -12z m871 -98 c-4 -6
-11 -8 -16 -5 -5 4 -9 -3 -9 -14 0 -14 9 -21 31 -26 34 -8 69 -33 69 -51 0 -6
11 -20 25 -30 28 -21 32 -34 10 -34 -8 0 -14 5 -12 12 1 6 -18 25 -42 41 -37
26 -47 28 -63 18 -18 -11 -19 -10 -13 9 5 15 0 26 -17 40 -23 20 -23 20 -4 35
22 17 50 20 41 5z m-925 -14 c0 -2 3 -11 6 -20 5 -12 0 -16 -19 -16 -28 0 -42
14 -32 30 6 10 45 15 45 6z m1879 -15 c-37 -29 -119 -62 -169 -67 -34 -4 -41
-3 -30 5 8 6 29 11 47 11 17 0 60 15 95 34 71 38 92 45 57 17z m-919 -83 c0
-13 -23 -5 -28 10 -2 7 2 10 12 6 9 -3 16 -11 16 -16z m35 -18 c3 -5 2 -10 -4
-10 -5 0 -13 5 -16 10 -3 6 -2 10 4 10 5 0 13 -4 16 -10z m15 -40 c0 -5 -9
-10 -21 -10 -11 0 -17 5 -14 10 3 6 13 10 21 10 8 0 14 -4 14 -10z m878 -15
c-3 -3 -9 2 -12 12 -6 14 -5 15 5 6 7 -7 10 -15 7 -18z m-833 5 c3 -5 -1 -10
-9 -10 -9 0 -16 5 -16 10 0 6 4 10 9 10 6 0 13 -4 16 -10z m45 -20 c8 -5 11
-10 5 -10 -5 0 -17 5 -25 10 -8 5 -10 10 -5 10 6 0 17 -5 25 -10z m783 -7 c-7
-2 -13 -11 -13 -19 0 -9 -5 -12 -10 -9 -13 8 6 35 24 34 7 0 6 -2 -1 -6z
m-133 -12 c0 -5 -7 -12 -16 -15 -14 -5 -15 -4 -4 9 14 17 20 19 20 6z m70 -1
c0 -5 -7 -7 -15 -4 -8 4 -15 8 -15 10 0 2 7 4 15 4 8 0 15 -4 15 -10z m-605
-15 c0 -6 -15 -9 -35 -8 -47 2 -47 2 -30 13 18 12 65 9 65 -5z m737 -35 c-12
-12 -22 -18 -22 -14 0 12 33 45 38 39 3 -3 -4 -14 -16 -25z m-486 -27 c-3 -4
-6 -1 -6 6 0 9 -5 9 -20 1 -25 -13 -27 -32 -2 -23 14 6 15 4 5 -9 -7 -8 -12
-17 -10 -19 1 -2 -4 2 -10 10 -18 20 -16 28 8 52 20 20 22 20 31 5 6 -10 7
-20 4 -23z m-110 -2 c-12 -19 -24 -12 -19 10 4 13 9 17 15 11 6 -6 7 -15 4
-21z m354 19 c0 -5 -5 -10 -11 -10 -5 0 -7 5 -4 10 3 6 8 10 11 10 2 0 4 -4 4
-10z m-400 -20 c0 -5 -7 -10 -15 -10 -8 0 -15 5 -15 10 0 6 7 10 15 10 8 0 15
-4 15 -10z m-195 -10 c-3 -5 -12 -10 -18 -10 -7 0 -6 4 3 10 19 12 23 12 15 0z
m85 -10 c0 -5 -2 -10 -4 -10 -3 0 -8 5 -11 10 -3 6 -1 10 4 10 6 0 11 -4 11
-10z m-625 -20 c3 -5 -1 -10 -9 -10 -9 0 -16 5 -16 10 0 6 4 10 9 10 6 0 13
-4 16 -10z m695 0 c0 -5 -8 -10 -17 -10 -15 0 -16 2 -3 10 19 12 20 12 20 0z
m-1300 -76 c0 -8 -5 -12 -10 -9 -6 4 -8 11 -5 16 9 14 15 11 15 -7z m1890 -19
c-7 -9 -15 -13 -17 -11 -7 7 7 26 19 26 6 0 6 -6 -2 -15z m1825 -5 c3 -5 1
-10 -4 -10 -6 0 -11 5 -11 10 0 6 2 10 4 10 3 0 8 -4 11 -10z m201 -32 c16
-18 22 -27 14 -20 -20 18 -30 15 -30 -9 0 -12 -5 -19 -12 -16 -7 2 -12 13 -10
25 2 11 -2 23 -8 27 -14 9 -13 25 3 25 7 0 26 -15 43 -32z m-153 -8 c3 -11 1
-20 -4 -20 -5 0 -9 4 -9 9 0 5 -3 17 -7 27 -4 11 -3 15 4 11 6 -4 13 -16 16
-27z m-933 0 c0 -5 -2 -10 -4 -10 -3 0 -8 5 -11 10 -3 6 -1 10 4 10 6 0 11 -4
11 -10z m430 -5 c0 -8 7 -15 15 -15 8 0 15 7 15 16 0 11 5 14 16 10 9 -3 20
-6 25 -6 5 0 9 -7 9 -16 0 -13 -3 -14 -13 -5 -8 6 -17 8 -21 4 -3 -4 6 -17 20
-28 19 -15 24 -24 16 -29 -7 -4 -12 -2 -12 3 0 6 -7 11 -15 11 -22 0 -18 -21
5 -27 20 -5 28 -23 10 -23 -18 0 -52 41 -46 56 3 9 -4 16 -19 20 -24 6 -37 44
-15 44 6 0 10 -7 10 -15z m555 6 c3 -5 1 -12 -4 -15 -5 -3 -11 1 -15 9 -6 16
9 21 19 6z m-148 -23 c-3 -8 -6 -5 -6 6 -1 11 2 17 5 13 3 -3 4 -12 1 -19z
m50 -10 c-3 -7 -5 -2 -5 12 0 14 2 19 5 13 2 -7 2 -19 0 -25z m-512 8 c34 -18
43 -61 15 -69 -10 -3 -23 0 -29 6 -8 8 -11 4 -11 -15 0 -18 7 -27 21 -31 33
-9 17 -32 -20 -29 -17 1 -31 -2 -31 -8 0 -5 6 -10 13 -11 6 0 2 -4 -11 -9 -34
-14 -39 -40 -11 -61 18 -13 21 -21 13 -29 -9 -9 -17 -9 -32 -1 -30 16 -42 13
-42 -9 0 -20 -1 -20 -25 -3 -13 10 -25 25 -25 34 0 8 -5 20 -12 27 -9 10 -8
16 5 29 16 16 17 16 17 -11 0 -21 4 -27 18 -24 11 2 17 13 17 33 0 43 15 95
27 95 6 0 8 -11 6 -24 -6 -32 16 -41 42 -19 23 20 26 39 6 50 -7 4 -16 18 -20
30 -5 16 -2 23 14 28 13 4 19 12 16 21 -7 18 4 18 39 0z m795 -7 c0 -6 -4 -7
-10 -4 -5 3 -10 11 -10 16 0 6 5 7 10 4 6 -3 10 -11 10 -16z m-600 -33 c0 -12
6 -28 13 -36 10 -12 9 -12 -6 0 -24 18 -40 48 -32 60 10 16 25 1 25 -24z m367
-12 c1 -28 -1 -33 -11 -25 -7 6 -11 23 -8 41 6 39 16 30 19 -16z m43 31 c0 -9
-6 -12 -16 -8 -13 5 -13 7 -2 14 17 11 18 11 18 -6z m-340 -5 c0 -5 -4 -10
-10 -10 -5 0 -10 5 -10 10 0 6 5 10 10 10 6 0 10 -4 10 -10z m-200 -30 c0 -5
-4 -10 -10 -10 -5 0 -10 5 -10 10 0 6 5 10 10 10 6 0 10 -4 10 -10z m625 0 c3
-5 -1 -10 -9 -10 -9 0 -16 5 -16 10 0 6 4 10 9 10 6 0 13 -4 16 -10z m12 -42
c-3 -8 -6 -5 -6 6 -1 11 2 17 5 13 3 -3 4 -12 1 -19z m-652 2 c3 -5 -1 -10 -9
-10 -9 0 -16 5 -16 10 0 6 4 10 9 10 6 0 13 -4 16 -10z m425 -10 c-6 -11 -13
-20 -15 -20 -3 0 -5 9 -5 20 0 11 7 20 15 20 13 0 14 -4 5 -20z m155 2 c-3 -3
-11 0 -18 7 -9 10 -8 11 6 5 10 -3 15 -9 12 -12z m-975 4 c0 -3 -4 -8 -10 -11
-5 -3 -10 -1 -10 4 0 6 5 11 10 11 6 0 10 -2 10 -4z m194 -11 c3 -8 1 -15 -4
-15 -6 0 -10 7 -10 15 0 8 2 15 4 15 2 0 6 -7 10 -15z m-54 1 c0 -3 -4 -8 -10
-11 -5 -3 -10 -1 -10 4 0 6 5 11 10 11 6 0 10 -2 10 -4z m320 -27 c0 -5 -4 -9
-10 -9 -5 0 -10 7 -10 16 0 8 5 12 10 9 6 -3 10 -10 10 -16z m-262 -17 c3 -10
-10 -11 -46 -3 -2 1 0 6 3 12 9 13 37 8 43 -9z m822 -2 c0 -5 -4 -10 -10 -10
-5 0 -10 5 -10 10 0 6 5 10 10 10 6 0 10 -4 10 -10z m-2075 -10 c-3 -5 -11
-10 -16 -10 -6 0 -7 5 -4 10 3 6 11 10 16 10 6 0 7 -4 4 -10z m1149 -11 c-8
-14 -24 -10 -24 6 0 9 6 12 15 9 8 -4 12 -10 9 -15z m286 -38 c-1 -13 -30 34
-30 48 0 9 7 3 15 -13 8 -15 15 -31 15 -35z m50 49 c0 -5 -4 -10 -10 -10 -5 0
-10 5 -10 10 0 6 5 10 10 10 6 0 10 -4 10 -10z m-539 -27 c8 -9 9 -14 2 -10
-6 4 -14 1 -16 -5 -3 -7 -6 -3 -6 10 -1 26 2 27 20 5z m1019 7 c0 -5 -4 -10
-10 -10 -5 0 -10 5 -10 10 0 6 5 10 10 10 6 0 10 -4 10 -10z m-847 -25 c-3 -9
-8 -14 -10 -11 -3 3 -2 9 2 15 9 16 15 13 8 -4z m1047 11 c0 -3 -4 -8 -10 -11
-5 -3 -10 -1 -10 4 0 6 5 11 10 11 6 0 10 -2 10 -4z m-966 -21 c4 -11 -1 -15
-19 -15 -16 0 -25 6 -25 15 0 8 9 15 19 15 10 0 21 -7 25 -15z m-47 -41 c2 -7
-6 -10 -22 -6 -35 6 -44 24 -9 20 15 -2 29 -8 31 -14z m38 -4 c-5 -14 -2 -20
9 -20 9 0 24 -9 33 -20 21 -24 36 -25 53 -5 11 13 16 12 37 -11 27 -29 23 -45
-7 -26 -23 14 -50 16 -50 3 0 -21 13 -41 26 -41 8 0 14 -4 14 -8 0 -13 -36 -8
-54 7 -11 9 -13 17 -6 26 11 13 -6 35 -27 35 -7 0 -13 7 -13 15 0 8 -4 15 -10
15 -5 0 -10 -5 -10 -11 0 -5 -4 -7 -10 -4 -14 8 -13 38 2 53 17 17 20 15 13
-8z m-341 -6 c3 -8 2 -12 -4 -9 -6 3 -10 10 -10 16 0 14 7 11 14 -7z m272 -28
c-3 -12 1 -34 9 -48 13 -26 12 -27 -6 -15 -11 7 -24 28 -29 47 -13 47 -13 49
11 43 15 -4 19 -11 15 -27z m1064 10 c0 -3 -4 -8 -10 -11 -5 -3 -10 -1 -10 4
0 6 5 11 10 11 6 0 10 -2 10 -4z m-4015 -72 c-14 -27 -15 -45 -7 -135 9 -102
8 -106 -25 -209 -18 -58 -36 -123 -40 -144 -3 -22 -19 -59 -35 -82 -15 -23
-28 -51 -28 -63 0 -14 -9 -25 -25 -31 -14 -5 -30 -21 -36 -34 -23 -50 -59 -36
-45 17 3 14 -1 32 -9 43 -26 35 -19 51 22 50 l37 -1 26 102 c15 55 32 114 38
130 13 32 16 128 7 220 -6 58 -5 65 25 107 17 26 37 46 44 46 7 0 23 12 37 26
21 23 24 24 28 8 2 -10 -4 -32 -14 -50z m3166 43 c-10 -9 -11 -8 -5 6 3 10 9
15 12 12 3 -3 0 -11 -7 -18z m-181 -17 c0 -5 -5 -10 -11 -10 -5 0 -7 5 -4 10
3 6 8 10 11 10 2 0 4 -4 4 -10z m950 0 c0 -5 -4 -10 -9 -10 -6 0 -13 5 -16 10
-3 6 1 10 9 10 9 0 16 -4 16 -10z m-4300 -29 c0 -26 -17 -36 -35 -21 -23 19
-18 40 10 40 18 0 25 -5 25 -19z m4405 -1 c-3 -5 -10 -10 -16 -10 -5 0 -9 5
-9 10 0 6 7 10 16 10 8 0 12 -4 9 -10z m-55 -15 c-10 -12 -16 -13 -29 -3 -9 7
-18 14 -20 15 -2 2 10 3 29 3 28 0 31 -2 20 -15z m-1020 -25 c0 -5 -2 -10 -4
-10 -3 0 -8 5 -11 10 -3 6 -1 10 4 10 6 0 11 -4 11 -10z m60 -14 c0 -14 -4
-27 -8 -30 -5 -3 -9 8 -9 24 0 17 4 30 9 30 4 0 8 -11 8 -24z m-123 -13 c-3
-33 -23 -41 -30 -12 -7 26 -1 39 18 39 9 0 13 -10 12 -27z m180 -9 c-3 -3 -12
-4 -19 -1 -8 3 -5 6 6 6 11 1 17 -2 13 -5z m-128 -61 c15 -18 31 -29 41 -26
23 6 22 -25 -1 -32 -10 -4 -28 5 -47 25 -17 16 -27 30 -24 30 4 0 1 4 -7 9 -9
6 -11 16 -6 32 6 19 9 21 14 8 3 -9 17 -30 30 -46z m716 47 c3 -5 1 -10 -4
-10 -6 0 -11 5 -11 10 0 6 2 10 4 10 3 0 8 -4 11 -10z m-460 -10 c3 -5 1 -10
-4 -10 -6 0 -11 5 -11 10 0 6 2 10 4 10 3 0 8 -4 11 -10z m-116 -14 c6 -4 11
-11 11 -17 0 -12 -37 -12 -45 1 -4 6 -14 8 -24 5 -9 -3 -26 1 -36 9 -17 12
-14 13 32 11 28 -1 56 -5 62 -9z m51 -61 c0 -14 -6 -25 -12 -25 -7 0 -13 11
-13 25 0 14 6 25 13 25 6 0 12 -11 12 -25z m-2010 11 c0 -3 -4 -8 -10 -11 -5
-3 -10 -1 -10 4 0 6 5 11 10 11 6 0 10 -2 10 -4z m1735 -56 c3 -5 1 -10 -4
-10 -6 0 -11 5 -11 10 0 6 2 10 4 10 3 0 8 -4 11 -10z m-675 -50 c0 -5 -4 -10
-9 -10 -6 0 -13 5 -16 10 -3 6 1 10 9 10 9 0 16 -4 16 -10z m1778 -43 c3 -17
-25 -54 -34 -45 -2 3 -1 19 2 37 7 33 26 37 32 8z m-918 -7 c0 -5 -4 -10 -10
-10 -5 0 -10 5 -10 10 0 6 5 10 10 10 6 0 10 -4 10 -10z m76 -5 c7 -6 10 -25
7 -41 -4 -27 -3 -28 9 -8 13 21 38 22 38 2 0 -6 -7 -8 -15 -4 -11 4 -15 -1
-15 -19 0 -14 -5 -25 -11 -25 -5 0 -7 4 -4 10 4 7 -3 7 -19 0 -14 -5 -26 -7
-26 -4 0 3 -5 2 -11 -2 -8 -4 -7 -9 2 -15 16 -9 12 -14 -18 -23 -20 -7 -23 -4
-23 23 0 17 5 31 10 31 6 0 8 10 4 24 -4 18 -1 25 17 29 18 5 20 9 10 21 -11
12 -9 15 11 13 13 -1 28 -6 34 -12z m774 -101 c0 -2 -7 -4 -15 -4 -8 0 -15 4
-15 10 0 5 7 7 15 4 8 -4 15 -8 15 -10z m-670 -58 c0 -8 -4 -18 -10 -21 -5 -3
-10 3 -10 14 0 12 5 21 10 21 6 0 10 -6 10 -14z m-340 -136 c0 -5 -2 -10 -4
-10 -3 0 -8 5 -11 10 -3 6 -1 10 4 10 6 0 11 -4 11 -10z m-3125 -150 c15 13
17 11 14 -10 -2 -14 0 -30 4 -37 4 -6 5 -17 1 -25 -6 -16 -75 -61 -82 -53 -3
3 0 5 6 5 18 0 37 41 22 50 -7 5 -9 20 -4 45 4 24 9 33 15 24 6 -10 11 -10 24
1z m-70 -99 c3 -5 0 -13 -6 -16 -5 -4 -8 -13 -5 -21 6 -17 -10 -28 -19 -14 -4
6 -4 22 -1 36 7 25 20 31 31 15z m1832 -17 c-3 -3 -12 -4 -19 -1 -8 3 -5 6 6
6 11 1 17 -2 13 -5z m-1857 -63 c0 -5 -7 -11 -14 -14 -10 -4 -13 -1 -9 9 6 15
23 19 23 5z m206 -43 c-18 -26 -22 -17 -5 14 6 11 13 17 16 15 3 -3 -2 -16
-11 -29z m2584 12 c0 -5 -4 -10 -10 -10 -5 0 -10 5 -10 10 0 6 5 10 10 10 6 0
10 -4 10 -10z m-2846 -43 c-3 -8 -11 -18 -19 -20 -18 -8 -14 27 5 34 19 8 22
6 14 -14z m2776 7 c0 -2 -7 -4 -15 -4 -8 0 -15 4 -15 10 0 5 7 7 15 4 8 -4 15
-8 15 -10z m-2705 -4 c-3 -5 -16 -15 -28 -21 -22 -12 -22 -12 -3 10 19 21 43
30 31 11z m3541 -47 c-10 -10 -19 5 -10 18 6 11 8 11 12 0 2 -7 1 -15 -2 -18z
m-26 -37 c0 -3 -4 -8 -10 -11 -5 -3 -10 -1 -10 4 0 6 5 11 10 11 6 0 10 -2 10
-4z m-1394 -110 c50 -57 95 -138 88 -158 -7 -24 33 -99 49 -92 8 3 25 -12 41
-36 26 -40 50 -51 59 -27 4 9 6 9 6 0 1 -7 -11 -27 -27 -44 -24 -27 -35 -31
-92 -34 -36 -3 -57 -2 -46 1 14 5 17 12 12 37 -11 53 -57 160 -85 197 -24 32
-53 73 -103 149 -30 44 -24 57 22 53 32 -3 47 -12 76 -46z m-1686 -116 c0 -22
-4 -40 -10 -40 -11 0 -14 63 -3 73 11 12 13 8 13 -33z m-579 -103 c-8 -8 -11
-7 -11 4 0 20 13 34 18 19 3 -7 -1 -17 -7 -23z m569 -19 c0 -13 -4 -29 -9 -37
-13 -20 -24 4 -17 35 8 30 26 32 26 2z m3560 -12 c0 -3 -4 -8 -10 -11 -5 -3
-10 -1 -10 4 0 6 5 11 10 11 6 0 10 -2 10 -4z m-4120 -36 c0 -5 -5 -10 -11
-10 -5 0 -7 5 -4 10 3 6 8 10 11 10 2 0 4 -4 4 -10z m1479 -52 c37 -96 120
-270 138 -290 9 -11 30 -18 50 -18 18 0 33 -5 33 -11 0 -5 -3 -8 -7 -6 -5 3
-35 -8 -68 -24 -63 -30 -126 -38 -142 -16 -27 37 -103 271 -103 320 0 34 47
106 70 107 3 0 16 -28 29 -62z m-1330 9 c0 -18 -4 -50 -8 -72 -8 -35 -9 -30
-10 38 -1 50 3 76 9 72 6 -3 10 -21 9 -38z m-112 -14 c-3 -10 -5 -4 -5 12 0
17 2 24 5 18 2 -7 2 -21 0 -30z m51 12 c-3 -3 -9 2 -12 12 -6 14 -5 15 5 6 7
-7 10 -15 7 -18z m6899 -17 c-3 -8 -6 -5 -6 6 -1 11 2 17 5 13 3 -3 4 -12 1
-19z m-6227 -45 c0 -7 -4 -13 -9 -13 -10 0 -21 24 -21 48 0 13 3 12 15 -4 8
-10 15 -25 15 -31z m6809 -30 c-7 -19 -15 -24 -37 -21 -19 2 -27 9 -27 23 0
11 6 21 13 21 6 1 17 2 22 3 6 0 10 9 10 19 0 31 14 35 22 7 4 -15 3 -38 -3
-52z m-6575 35 c30 -28 119 -183 146 -256 11 -29 20 -65 20 -81 0 -30 -16 -38
-131 -61 -72 -14 -91 -7 -89 34 4 59 0 74 -19 79 -33 8 -52 53 -65 151 -12 98
-9 119 22 144 26 20 88 15 116 -10z m-987 -10 c-3 -8 -6 -5 -6 6 -1 11 2 17 5
13 3 -3 4 -12 1 -19z m63 -26 c0 -15 -2 -15 -10 -2 -13 20 -13 33 0 25 6 -3
10 -14 10 -23z m500 -37 c0 -19 -4 -36 -9 -40 -12 -7 -26 59 -16 75 11 18 25
0 25 -35z m6379 2 c-10 -36 -11 -37 -58 -37 -53 0 -87 24 -75 54 6 16 8 16 28
-2 11 -11 31 -25 43 -31 20 -10 23 -9 29 14 5 21 33 49 41 41 1 -1 -2 -19 -8
-39z m-6932 -19 c-3 -7 -5 -2 -5 12 0 14 2 19 5 13 2 -7 2 -19 0 -25z m4219
-114 c-4 -9 -9 -15 -11 -12 -3 3 -3 13 1 22 4 9 9 15 11 12 3 -3 3 -13 -1 -22z
m-4030 -29 c8 -44 -2 -57 -16 -21 -13 34 -13 56 0 56 5 0 12 -16 16 -35z
m3367 5 c3 -11 1 -20 -4 -20 -5 0 -9 9 -9 20 0 11 2 20 4 20 2 0 6 -9 9 -20z
m604 -42 c-2 -13 -4 -3 -4 22 0 25 2 35 4 23 2 -13 2 -33 0 -45z m-4027 16 c0
-13 -4 -24 -10 -24 -5 0 -10 14 -10 31 0 17 4 28 10 24 6 -3 10 -17 10 -31z
m3764 20 c3 -8 2 -12 -4 -9 -6 3 -10 10 -10 16 0 14 7 11 14 -7z m173 -26 c-3
-8 -6 -5 -6 6 -1 11 2 17 5 13 3 -3 4 -12 1 -19z m-367 -10 c0 -19 -18 -44
-25 -36 -4 3 0 15 7 27 15 24 18 26 18 9z m517 -20 c-3 -8 -6 -5 -6 6 -1 11 2
17 5 13 3 -3 4 -12 1 -19z m-2337 -67 c0 -17 -12 -41 -21 -41 -10 0 -12 33 -2
43 9 10 23 9 23 -2z m-150 -131 c0 -5 -7 -10 -16 -10 -8 0 -12 5 -9 10 3 6 10
10 16 10 5 0 9 -4 9 -10z m-895 -70 c3 -5 1 -10 -4 -10 -6 0 -11 5 -11 10 0 6
2 10 4 10 3 0 8 -4 11 -10z m83 -7 c-10 -2 -26 -2 -35 0 -10 3 -2 5 17 5 19 0
27 -2 18 -5z"/>
<path d="M9160 6910 c-11 -7 -4 -9 24 -6 21 3 41 7 44 10 10 10 -52 6 -68 -4z"/>
<path d="M9161 6886 c11 -9 69 -14 69 -6 0 6 -16 10 -37 10 -20 0 -34 -2 -32
-4z"/>
<path d="M9103 6873 c9 -2 23 -2 30 0 6 3 -1 5 -18 5 -16 0 -22 -2 -12 -5z"/>
<path d="M8945 6850 c-3 -5 3 -10 15 -10 12 0 18 5 15 10 -3 6 -10 10 -15 10
-5 0 -12 -4 -15 -10z"/>
<path d="M9200 6851 c0 -5 9 -7 20 -4 11 3 20 7 20 9 0 2 -9 4 -20 4 -11 0
-20 -4 -20 -9z"/>
<path d="M9325 6770 l-20 -9 20 0 c11 0 27 4 35 9 13 9 13 10 0 9 -8 0 -24 -4
-35 -9z"/>
<path d="M9026 6624 c-5 -12 -2 -15 10 -10 8 3 22 6 30 6 9 0 12 5 9 10 -10
16 -42 12 -49 -6z"/>
<path d="M9160 6569 c-10 -18 -9 -20 7 -17 10 2 19 11 21 21 5 24 -15 21 -28
-4z"/>
<path d="M9130 6530 c-22 -7 -20 -8 15 -9 22 0 47 4 55 9 11 7 8 9 -15 9 -16
-1 -41 -5 -55 -9z"/>
<path d="M9070 6520 c0 -5 4 -10 9 -10 6 0 13 5 16 10 3 6 -1 10 -9 10 -9 0
-16 -4 -16 -10z"/>
<path d="M9060 6488 c-14 -5 -45 -11 -70 -13 -41 -3 -45 -6 -46 -29 -1 -14 0
-26 1 -26 1 0 26 13 56 30 30 16 62 30 71 30 9 0 20 5 23 10 8 12 -2 12 -35
-2z"/>
<path d="M8380 5900 c0 -5 7 -10 16 -10 8 0 12 5 9 10 -3 6 -10 10 -16 10 -5
0 -9 -4 -9 -10z"/>
<path d="M8330 5760 c20 -13 33 -13 25 0 -3 6 -14 10 -23 10 -15 0 -15 -2 -2
-10z"/>
<path d="M9463 5734 c10 -10 96 -14 102 -5 2 4 -21 9 -53 10 -31 1 -53 -1 -49
-5z"/>
<path d="M9150 5489 c0 -5 5 -7 10 -4 6 3 10 8 10 11 0 2 -4 4 -10 4 -5 0 -10
-5 -10 -11z"/>
<path d="M9135 5390 c3 -5 1 -10 -4 -10 -6 0 -11 -7 -11 -15 0 -10 10 -15 30
-15 17 0 30 5 30 10 0 6 -7 10 -15 10 -8 0 -15 7 -15 15 0 8 -5 15 -11 15 -5
0 -7 -4 -4 -10z"/>
<path d="M9210 5045 c0 -9 6 -12 15 -9 8 4 15 10 15 15 0 5 -7 9 -15 9 -8 0
-15 -7 -15 -15z"/>
<path d="M9217 4996 c-6 -15 12 -26 45 -26 16 0 18 3 9 13 -6 8 -8 17 -4 20 3
4 -5 7 -19 7 -14 0 -28 -6 -31 -14z m33 -6 c0 -5 -5 -10 -11 -10 -5 0 -7 5 -4
10 3 6 8 10 11 10 2 0 4 -4 4 -10z"/>
<path d="M9440 4800 c0 -5 5 -10 10 -10 6 0 10 5 10 10 0 6 -4 10 -10 10 -5 0
-10 -4 -10 -10z"/>
<path d="M8460 5530 c0 -5 5 -10 11 -10 5 0 7 5 4 10 -3 6 -8 10 -11 10 -2 0
-4 -4 -4 -10z"/>
<path d="M8415 5470 c3 -5 11 -10 16 -10 6 0 7 5 4 10 -3 6 -11 10 -16 10 -6
0 -7 -4 -4 -10z"/>
<path d="M10252 4820 c-11 -17 -7 -30 9 -30 5 0 13 9 18 19 14 26 -11 36 -27
11z"/>
<path d="M10123 4745 c-15 -16 -16 -25 -5 -25 4 0 13 9 20 20 14 23 3 26 -15
5z"/>
<path d="M11482 4358 c2 -6 10 -14 16 -16 7 -2 10 2 6 12 -7 18 -28 22 -22 4z"/>
<path d="M18960 11121 c-14 -5 -61 -26 -105 -49 -94 -47 -198 -76 -347 -92
-92 -11 -115 -11 -170 3 -87 22 -214 48 -271 54 l-48 6 -69 -70 c-63 -63 -70
-73 -70 -109 0 -22 4 -44 9 -50 4 -5 14 -31 20 -59 7 -29 24 -62 41 -80 16
-16 42 -55 58 -85 38 -73 73 -90 242 -118 74 -13 165 -30 202 -38 74 -18 63
-20 265 55 45 17 120 37 165 46 46 9 109 21 141 27 l57 12 0 278 0 278 -47 -1
c-27 0 -59 -4 -73 -8z"/>
<path d="M18997 5133 c-43 -13 -80 -30 -83 -38 -3 -8 6 -29 20 -48 14 -19 34
-58 45 -88 10 -30 27 -71 37 -91 17 -38 17 -38 -6 -80 -13 -24 -36 -60 -52
-80 -30 -38 -31 -75 -3 -98 12 -10 117 -41 123 -36 1 2 1 134 0 294 l-3 290
-78 -25z"/>
<path d="M11561 2084 c0 -11 3 -14 6 -6 3 7 2 16 -1 19 -3 4 -6 -2 -5 -13z"/>
<path d="M14066 1950 c20 -43 24 -47 24 -29 0 8 -10 25 -21 39 l-20 25 17 -35z"/>
<path d="M8070 1930 c0 -6 7 -10 15 -10 8 0 15 2 15 4 0 2 -7 6 -15 10 -8 3
-15 1 -15 -4z"/>
<path d="M14090 1895 c0 -5 5 -17 10 -25 5 -8 10 -10 10 -5 0 6 -5 17 -10 25
-5 8 -10 11 -10 5z"/>
<path d="M2170 1616 c0 -69 1 -74 20 -69 18 5 20 14 20 74 0 62 -2 69 -20 69
-18 0 -20 -7 -20 -74z"/>
<path d="M2240 1655 c0 -16 6 -25 15 -25 16 0 19 9 9 34 -9 25 -24 19 -24 -9z"/>
<path d="M14060 1371 c-30 -4 -60 -10 -67 -14 -6 -4 -90 -9 -185 -12 -96 -2
-206 -9 -244 -14 -38 -6 -105 -13 -149 -16 -44 -2 -107 -10 -140 -17 l-60 -12
110 -9 c105 -9 158 -6 520 23 50 4 167 13 260 20 94 6 174 15 178 20 20 18
-135 40 -223 31z"/>
<path d="M15337 1120 c6 -23 43 -48 43 -30 0 20 -20 50 -34 50 -9 0 -12 -7 -9
-20z"/>
<path d="M16290 1056 c-6 -30 -20 -66 -30 -79 -34 -43 -43 -108 -37 -270 7
-218 45 -432 98 -557 15 -36 33 -84 40 -107 l12 -43 144 0 c136 0 146 1 162
21 13 16 35 24 79 30 99 14 129 31 153 86 31 72 35 141 12 194 -32 72 -126
174 -201 219 -37 22 -95 66 -129 99 -51 50 -65 71 -83 128 -13 37 -35 96 -50
130 -16 34 -35 86 -44 116 -14 50 -19 56 -59 71 -23 9 -46 16 -49 16 -4 0 -12
-24 -18 -54z"/>
<path d="M10300 1089 c-85 -4 -193 -12 -240 -19 -47 -6 -161 -14 -255 -16 -93
-3 -186 -6 -205 -8 -19 -2 -73 -7 -120 -11 -47 -4 -98 -11 -115 -15 -33 -10
-88 -16 -215 -25 -47 -3 -161 -13 -255 -22 -93 -9 -262 -17 -375 -19 -228 -3
-449 -16 -467 -27 -19 -12 -273 -35 -572 -52 -150 -8 -334 -22 -410 -29 -75
-8 -176 -18 -226 -21 -122 -8 -156 -15 -162 -32 -12 -31 12 -34 168 -23 85 5
224 15 309 20 85 6 205 15 265 21 61 6 232 19 380 30 149 10 322 23 385 29 63
5 176 15 250 21 74 6 182 18 240 27 58 8 119 15 135 15 17 0 95 4 175 9 80 6
154 10 165 10 11 0 61 4 110 9 50 5 131 11 180 13 50 3 160 11 245 17 85 6
189 13 230 15 69 4 118 9 130 14 3 1 34 2 70 1 36 -1 106 8 155 18 76 16 92
17 101 5 9 -11 13 -10 27 4 14 13 21 14 36 5 15 -10 20 -9 25 2 3 8 15 15 26
15 11 0 20 4 20 9 0 10 -26 22 -43 19 -7 0 -82 -4 -167 -9z"/>
<path d="M15140 1072 c0 -15 28 -47 35 -40 8 8 -13 48 -25 48 -6 0 -10 -4 -10
-8z"/>
<path d="M14918 1063 c7 -3 16 -2 19 1 4 3 -2 6 -13 5 -11 0 -14 -3 -6 -6z"/>
<path d="M14686 1044 c-11 -7 -17 -16 -15 -19 3 -3 14 2 25 9 10 8 17 17 14
19 -3 3 -14 -1 -24 -9z"/>
<path d="M14844 1045 c21 -16 32 -13 21 4 -3 6 -14 11 -23 11 -15 -1 -15 -2 2
-15z"/>
<path d="M15391 1044 c0 -11 3 -14 6 -6 3 7 2 16 -1 19 -3 4 -6 -2 -5 -13z"/>
<path d="M15060 1035 c7 -8 17 -15 22 -15 6 0 5 7 -2 15 -7 8 -17 15 -22 15
-6 0 -5 -7 2 -15z"/>
<path d="M14517 999 c-9 -10 -16 -19 -14 -20 1 0 17 -3 35 -6 31 -4 33 -3 23
16 -16 30 -26 32 -44 10z"/>
<path d="M15290 1008 c0 -7 9 -24 20 -38 l20 -25 -3 25 c-3 30 -14 50 -28 50
-5 0 -9 -6 -9 -12z"/>
<path d="M14488 1003 c7 -3 16 -2 19 1 4 3 -2 6 -13 5 -11 0 -14 -3 -6 -6z"/>
<path d="M15095 1000 c3 -5 8 -10 11 -10 2 0 4 5 4 10 0 6 -5 10 -11 10 -5 0
-7 -4 -4 -10z"/>
<path d="M15221 964 c0 -11 3 -14 6 -6 3 7 2 16 -1 19 -3 4 -6 -2 -5 -13z"/>
<path d="M14460 951 c0 -5 7 -11 15 -15 9 -3 15 0 15 9 0 8 -7 15 -15 15 -8 0
-15 -4 -15 -9z"/>
<path d="M15387 918 c-7 -23 -1 -38 14 -38 5 0 9 14 9 30 0 35 -15 40 -23 8z"/>
<path d="M15345 910 c-3 -5 -1 -10 4 -10 6 0 11 5 11 10 0 6 -2 10 -4 10 -3 0
-8 -4 -11 -10z"/>
<path d="M15251 894 c0 -11 3 -14 6 -6 3 7 2 16 -1 19 -3 4 -6 -2 -5 -13z"/>
<path d="M15367 855 c7 -38 12 -43 23 -25 14 21 12 30 -4 30 -8 0 -17 6 -20
13 -3 6 -3 -1 1 -18z"/>
<path d="M6544 785 c-18 -13 -16 -14 21 -15 48 0 85 9 85 21 0 15 -85 10 -106
-6z"/>
<path d="M14385 770 c3 -5 13 -10 21 -10 8 0 14 5 14 10 0 6 -9 10 -21 10 -11
0 -17 -4 -14 -10z"/>
<path d="M15310 770 c0 -5 5 -10 11 -10 5 0 7 5 4 10 -3 6 -8 10 -11 10 -2 0
-4 -4 -4 -10z"/>
<path d="M15330 736 c0 -15 18 -31 26 -23 7 7 -7 37 -17 37 -5 0 -9 -6 -9 -14z"/>
<path d="M15370 636 c0 -8 5 -18 10 -21 6 -3 10 3 10 14 0 12 -4 21 -10 21 -5
0 -10 -6 -10 -14z"/>
<path d="M0 235 l0 -235 251 0 c162 0 249 4 247 10 -1 5 -85 88 -184 182 -100
95 -196 190 -214 211 -28 33 -77 67 -95 67 -3 0 -5 -106 -5 -235z"/>
<path d="M1667 309 c-35 -82 -46 -118 -51 -171 -2 -32 -3 -58 -1 -58 12 0 75
133 84 179 10 46 9 57 -3 69 -13 13 -17 11 -29 -19z"/>
<path d="M10550 134 c0 -8 5 -12 10 -9 6 3 10 10 10 16 0 5 -4 9 -10 9 -5 0
-10 -7 -10 -16z"/>
</g>
</svg>
