<?xml version="1.0" standalone="no"?>
<!DOCTYPE svg PUBLIC "-//W3C//DTD SVG 20010904//EN"
 "http://www.w3.org/TR/2001/REC-SVG-20010904/DTD/svg10.dtd">
<svg version="1.0" xmlns="http://www.w3.org/2000/svg"
 width="275.000000pt" height="183.000000pt" viewBox="0 0 275.000000 183.000000"
 preserveAspectRatio="xMidYMid meet">

<g transform="translate(0.000000,183.000000) scale(0.100000,-0.100000)"
fill="#000000" stroke="none">
<path d="M0 915 l0 -915 351 0 352 0 58 28 c32 15 57 32 55 37 -4 13 -90 8
-94 -5 -2 -6 -31 -10 -65 -10 -57 1 -60 2 -43 15 14 11 16 15 5 15 -12 0 -12
2 1 10 22 14 1 12 -59 -6 -29 -8 -55 -13 -58 -11 -2 3 9 8 26 12 17 4 31 11
31 16 0 5 8 9 18 9 16 1 16 1 0 10 -11 7 -42 4 -98 -9 -47 -12 -95 -17 -113
-14 -28 6 -24 8 44 29 72 22 79 33 9 15 -19 -5 -48 -12 -65 -15 -26 -6 -28 -5
-10 6 10 6 37 17 60 24 l40 13 -35 1 -35 2 30 13 30 14 -50 1 c-46 1 -49 2
-31 15 17 13 18 15 3 15 -9 0 -17 4 -17 9 0 5 -9 11 -20 14 -12 3 -18 11 -15
19 7 18 -31 68 -51 68 -8 0 -14 4 -14 10 0 5 -10 12 -23 15 -32 8 -57 59 -64
131 -5 58 -4 63 20 78 13 9 47 20 75 25 38 6 65 20 114 58 34 27 92 66 128 86
36 20 93 62 127 94 172 163 254 224 339 254 100 35 111 20 29 -41 -80 -59
-115 -132 -115 -239 0 -69 3 -84 27 -120 46 -71 63 -53 63 67 0 105 21 174 75
254 50 73 112 138 131 138 21 0 27 -90 10 -139 -9 -24 -16 -49 -16 -55 0 -19
79 -34 143 -29 55 5 59 7 72 40 18 43 68 102 107 125 30 19 38 55 13 64 -12 5
-13 9 -4 20 7 8 9 17 6 21 -4 3 -2 12 4 19 21 25 20 90 -1 109 -18 17 -18 18
12 51 28 30 37 34 83 34 101 0 150 -31 213 -134 24 -40 32 -61 23 -64 -9 -3
-9 -7 0 -18 9 -11 6 -14 -20 -14 -18 0 -31 -5 -31 -12 0 -9 -4 -8 -10 2 -8 13
-10 13 -10 -1 0 -9 -7 -22 -15 -29 -22 -18 -19 -25 25 -69 22 -22 40 -45 40
-51 0 -6 3 -9 8 -7 4 3 8 -5 9 -16 0 -12 6 -34 12 -49 9 -23 17 -28 46 -28 19
0 35 4 35 10 0 5 7 7 15 4 20 -8 45 13 46 40 1 11 5 3 9 -18 8 -43 -5 -106
-21 -106 -6 0 -7 -4 -4 -10 3 -5 1 -10 -5 -10 -6 0 -8 -4 -5 -10 3 -5 1 -18
-5 -27 -10 -16 -11 -16 -6 2 4 13 -7 5 -31 -21 -21 -23 -48 -46 -60 -53 -46
-24 -107 -7 -141 41 -7 10 -20 18 -28 18 -8 0 -13 4 -9 10 3 5 12 7 20 4 21
-8 37 30 25 61 -13 35 -13 45 4 45 8 0 17 7 20 16 8 22 8 26 -4 19 -6 -3 -10
5 -10 19 0 14 4 28 10 31 11 7 1 21 -38 58 -17 16 -40 23 -88 27 -35 3 -64 3
-64 0 0 -3 -13 -20 -30 -38 -18 -20 -30 -44 -30 -60 0 -52 4 -72 15 -68 5 2 9
9 7 15 -1 7 2 10 8 6 6 -3 8 -11 5 -16 -4 -5 3 -9 13 -9 21 0 22 -7 8 -89 -11
-69 -82 -112 -162 -101 -42 6 -146 68 -137 82 2 4 -4 5 -13 1 -10 -4 -15 -2
-12 3 4 5 0 18 -8 29 -13 18 -14 16 -8 -15 10 -52 87 -145 112 -135 7 3 11 1
8 -4 -3 -5 5 -16 19 -25 14 -9 25 -13 25 -9 0 4 6 -1 13 -11 25 -34 59 -12 71
44 4 21 16 28 68 43 35 10 71 22 80 27 18 10 67 -3 106 -28 25 -16 29 -58 11
-110 -11 -31 -26 -40 -111 -63 -26 -7 -44 -17 -41 -22 4 -6 -13 -8 -41 -5 -36
4 -44 3 -36 -7 7 -9 6 -16 -5 -25 -11 -9 -14 -23 -9 -49 8 -44 10 -47 27 -33
10 9 22 8 45 0 36 -14 40 -12 57 39 7 21 23 43 35 49 22 12 22 12 -7 22 -26
10 -26 10 -5 11 13 1 48 17 78 37 53 36 65 46 43 42 -6 -2 -14 3 -16 10 -4 9
1 13 13 10 11 -2 20 -13 22 -26 2 -14 -1 -21 -9 -20 -7 2 -14 -3 -15 -9 -1 -7
-2 -18 -3 -23 0 -6 -17 -18 -36 -27 -20 -10 -34 -22 -31 -29 3 -7 0 -14 -6
-16 -6 -2 -9 -10 -6 -18 3 -10 9 -9 26 8 12 12 22 19 22 16 0 -15 44 29 70 70
35 54 35 56 15 56 -8 0 -15 4 -15 8 0 11 44 52 56 52 13 0 64 48 64 60 0 6 7
10 15 10 19 0 45 -51 49 -96 3 -31 10 -40 47 -61 38 -21 166 -65 236 -80 18
-4 21 -2 16 16 -3 12 -9 21 -13 21 -3 0 -8 26 -9 58 -2 47 2 62 18 76 24 22
53 14 71 -18 11 -22 6 -106 -11 -165 -5 -16 74 -40 131 -41 l35 0 1 77 c0 43
2 96 3 118 2 22 0 54 -3 70 -16 76 -25 324 -26 708 l0 417 -69 0 -69 0 -6 -77
c-9 -96 9 -297 29 -346 11 -28 15 -77 15 -207 0 -93 -4 -170 -8 -170 -5 0 -16
-24 -25 -54 -20 -63 -37 -81 -71 -72 -16 4 -25 15 -30 37 -3 17 -6 224 -6 460
l0 429 -190 0 -190 0 6 -39 c8 -48 -8 -60 -90 -63 -68 -3 -90 14 -89 67 l1 35
-834 0 -834 0 0 -915z m1228 803 c2 -10 -9 -34 -24 -54 l-28 -35 -12 23 c-11
20 -10 58 3 81 9 15 58 3 61 -15z m-537 -118 c60 -11 102 -37 108 -66 2 -10 7
-21 11 -24 5 -3 13 -39 19 -80 12 -91 6 -101 -71 -107 -66 -6 -375 50 -396 71
-8 9 17 86 28 86 6 0 10 8 10 18 0 10 14 31 30 47 17 16 28 35 26 41 -3 7 3
15 12 17 33 9 170 7 223 -3z m664 -114 c7 -22 7 -30 -2 -33 -7 -3 -13 -13 -13
-24 0 -11 -16 -35 -36 -54 -31 -30 -37 -33 -50 -21 -16 17 -19 36 -4 36 6 0
10 -7 10 -15 0 -18 16 -20 27 -2 13 21 15 99 1 91 -8 -5 -9 -2 -5 10 4 10 7
22 7 27 0 4 7 5 17 2 11 -5 14 -3 8 6 -5 9 -2 12 11 9 10 -2 23 -16 29 -32z
m-186 -74 c1 -20 -3 -31 -9 -27 -5 3 -10 27 -9 53 0 35 3 42 9 27 5 -11 9 -35
9 -53z m78 -86 c-7 -21 -37 -19 -37 2 0 15 5 19 20 15 12 -3 19 -11 17 -17z
m-67 -128 c0 -16 -3 -19 -11 -11 -6 6 -8 16 -5 22 11 17 16 13 16 -11z m230
-88 c12 -22 6 -40 -12 -40 -6 0 -8 9 -5 20 3 12 -1 24 -11 30 -16 9 -16 9 0
10 10 0 22 -9 28 -20z m400 -25 c0 -8 -4 -15 -10 -15 -5 0 -10 7 -10 15 0 8 5
15 10 15 6 0 10 -7 10 -15z m482 -347 c-15 -15 -27 14 -17 40 6 15 8 15 18 -6
7 -16 7 -26 -1 -34z m-980 -23 c0 -5 -6 -11 -13 -14 -8 -2 -10 2 -6 13 4 9 3
16 -1 16 -5 0 -17 7 -28 16 -13 11 -9 11 15 -3 19 -10 34 -22 33 -28z m-945
-551 c-3 -3 -12 -4 -19 -1 -8 3 -5 6 6 6 11 1 17 -2 13 -5z"/>
<path d="M1580 1090 c-11 -7 -6 -10 20 -10 26 0 31 3 20 10 -8 5 -17 10 -20
10 -3 0 -12 -5 -20 -10z"/>
<path d="M610 475 c-25 -14 -53 -25 -63 -25 -27 0 -79 -29 -72 -40 4 -6 19
-10 35 -10 16 0 31 -4 34 -9 3 -5 26 -12 50 -15 25 -4 55 -15 68 -25 37 -29
75 -34 109 -14 20 12 27 22 23 33 -4 8 -11 33 -17 55 -16 66 -20 70 -73 72
-36 1 -61 -5 -94 -22z"/>
<path d="M1817 393 c-4 -4 -20 -8 -36 -9 -16 -1 -44 -9 -62 -18 -61 -28 -119
-45 -134 -40 -25 10 -17 -6 24 -51 44 -48 67 -85 52 -85 -5 0 -13 5 -16 10 -9
15 -19 12 -44 -9 -13 -11 -29 -17 -37 -14 -8 3 -14 0 -14 -6 0 -16 -17 -13
-24 5 -3 8 -2 12 4 9 6 -3 10 -1 10 4 0 15 -21 13 -45 -4 -12 -10 -30 -13 -52
-9 -26 5 -33 3 -33 -10 0 -24 -54 -9 -90 24 -21 19 -37 26 -51 23 -12 -3 -24
-1 -28 5 -7 11 -43 16 -116 14 l-49 -2 34 -30 c19 -16 45 -29 58 -30 13 0 33
-5 44 -11 15 -8 18 -8 14 0 -11 17 26 0 45 -20 9 -11 38 -20 78 -25 67 -7 69
-11 47 -66 -5 -11 -1 -18 15 -23 12 -4 24 -3 28 3 3 5 22 13 41 17 19 4 47 16
62 27 15 10 40 20 57 21 16 1 27 5 25 8 -2 3 27 19 64 34 37 16 117 52 177 81
104 50 201 81 213 69 3 -3 3 -6 1 -8 -2 -1 -19 -12 -37 -25 -18 -13 -53 -32
-78 -42 -25 -11 -43 -24 -39 -29 3 -5 1 -12 -5 -16 -5 -3 -10 -1 -10 4 0 17
-25 13 -78 -10 -26 -11 -74 -32 -107 -46 -130 -56 -144 -66 -104 -78 19 -7 20
-7 2 -21 -15 -11 13 -13 202 -14 l219 0 95 63 c87 57 98 62 142 59 27 -2 50 1
54 8 5 7 -2 9 -22 4 -27 -6 -27 -6 -8 9 11 8 17 18 13 22 -7 7 -55 -12 -121
-46 -21 -12 -41 -19 -43 -16 -9 9 240 147 265 147 5 0 16 -9 24 -21 10 -13 16
-16 19 -8 2 7 22 13 44 14 21 2 45 3 53 4 11 1 11 5 -3 20 -15 17 -15 20 -1
34 8 9 11 18 6 21 -5 4 -11 1 -13 -6 -3 -7 -25 -13 -52 -14 -26 -1 -50 -5 -53
-8 -12 -11 -68 -6 -98 10 -17 9 -42 13 -58 10 -22 -5 -30 -1 -37 17 -5 12 -9
16 -9 8 -1 -11 -5 -11 -24 2 -13 8 -35 13 -49 10 -15 -3 -34 -1 -44 5 -13 7
-22 6 -32 -4 -10 -10 -39 -14 -105 -13 -118 1 -142 8 -142 39 0 24 -15 36 -28
23z m353 -141 c0 -5 -10 -14 -22 -21 -13 -6 -15 -9 -5 -6 38 11 3 -16 -71 -54
-42 -22 -105 -54 -139 -73 -34 -18 -65 -29 -70 -25 -4 5 -1 12 7 17 13 8 12
10 -2 10 -26 0 -22 19 7 32 13 6 22 15 18 21 -3 6 -1 7 4 4 6 -4 28 2 49 13
35 18 36 19 9 14 -16 -4 -27 -4 -23 0 3 4 21 9 40 11 18 2 67 17 108 33 85 34
90 35 90 24z m-330 -152 c0 -5 -8 -10 -17 -10 -15 0 -16 2 -3 10 19 12 20 12
20 0z"/>
<path d="M1430 376 c19 -17 95 -46 118 -45 15 0 -6 10 -70 35 -10 3 -18 10
-18 15 0 5 -10 9 -22 9 -19 0 -20 -2 -8 -14z"/>
<path d="M1628 363 c-10 -2 -18 -8 -18 -13 0 -4 9 -6 20 -3 11 3 20 9 20 14 0
5 -1 8 -2 8 -2 -1 -11 -3 -20 -6z"/>
<path d="M910 230 c8 -5 44 -9 80 -9 65 1 65 2 20 10 -66 11 -119 11 -100 -1z"/>
<path d="M2550 220 c0 -5 7 -7 15 -4 8 4 15 8 15 10 0 2 -7 4 -15 4 -8 0 -15
-4 -15 -10z"/>
<path d="M735 120 c-13 -6 -15 -9 -5 -9 8 0 22 4 30 9 18 12 2 12 -25 0z"/>
<path d="M2536 115 c-23 -17 -40 -20 -31 -5 8 14 -55 1 -80 -17 -31 -21 -43
-15 -15 9 l25 21 -24 -8 c-34 -11 -105 -49 -137 -74 -15 -12 -31 -20 -36 -19
-20 7 -12 21 22 39 19 11 29 19 22 19 -22 0 -12 20 11 21 16 1 17 3 5 6 -10 2
-64 -21 -120 -51 l-103 -55 230 0 230 -1 25 29 c14 15 33 42 42 58 16 28 16
32 2 37 -25 10 -47 7 -68 -9z"/>
<path d="M2680 9 c0 -5 9 -9 20 -9 11 0 20 2 20 4 0 2 -9 6 -20 9 -11 3 -20 1
-20 -4z"/>
</g>
</svg>
