<?xml version="1.0" standalone="no"?>
<!DOCTYPE svg PUBLIC "-//W3C//DTD SVG 20010904//EN"
 "http://www.w3.org/TR/2001/REC-SVG-20010904/DTD/svg10.dtd">
<svg version="1.0" xmlns="http://www.w3.org/2000/svg"
 width="1200.000000pt" height="627.000000pt" viewBox="0 0 1200.000000 627.000000"
 preserveAspectRatio="xMidYMid meet">

<g transform="translate(0.000000,627.000000) scale(0.100000,-0.100000)"
fill="#000000" stroke="none">
<path d="M0 3135 l0 -3135 571 0 c564 0 639 4 678 34 11 8 13 8 7 -1 -5 -9 0
-13 18 -13 14 0 28 5 31 10 3 6 13 10 22 10 21 0 92 33 93 43 0 4 -7 7 -15 7
-8 0 -15 -4 -15 -10 0 -5 -8 -10 -17 -10 -15 0 -16 2 -3 10 13 9 13 10 0 11
-8 0 -2 5 14 9 21 7 32 5 44 -6 14 -15 25 -15 82 2 17 4 22 3 15 -3 -5 -6 -62
-27 -125 -48 -63 -20 -117 -38 -119 -41 -2 -2 367 -4 821 -4 l825 0 12 27 c9
19 9 29 2 31 -6 2 -9 8 -5 13 3 5 0 9 -6 9 -6 0 -10 6 -9 13 2 6 -6 30 -16 52
-10 22 -17 45 -16 51 1 7 -5 14 -14 17 -19 8 -10 33 26 72 l28 30 -28 1 c-16
1 -37 4 -46 8 -16 6 -15 10 10 36 16 17 33 30 38 30 4 0 15 6 22 14 7 7 40 18
73 25 33 6 66 18 72 26 11 13 3 19 -46 40 -82 35 -127 60 -135 76 -3 8 -11 24
-17 36 -7 13 -12 32 -12 42 0 43 31 135 56 168 82 108 235 225 316 242 28 6
94 36 147 66 53 31 133 67 179 82 45 14 82 30 82 34 0 5 -4 9 -10 9 -5 0 -27
15 -47 34 -21 18 -51 36 -68 40 -45 11 -132 66 -143 92 -34 73 -22 143 34 202
19 20 34 39 34 43 0 3 30 20 68 36 53 25 91 33 182 41 121 12 176 6 300 -33
88 -27 145 -30 164 -8 78 90 78 90 162 106 69 13 90 21 142 61 57 44 136 137
168 198 8 16 26 78 39 138 39 177 151 367 307 522 76 75 88 91 82 113 -5 22
-3 24 24 22 17 -1 28 -5 25 -10 -2 -4 -1 -12 3 -18 3 -6 14 3 26 22 l20 32 19
-30 c21 -34 38 -43 129 -71 105 -32 118 -35 98 -22 -27 17 -22 26 25 45 23 10
37 20 30 22 -7 2 -21 -1 -32 -7 -12 -6 -21 -7 -21 -3 0 10 114 65 126 61 25
-7 52 23 58 64 3 24 8 63 11 87 10 67 77 231 96 231 5 0 9 7 9 15 0 8 8 22 18
32 10 10 33 39 50 64 38 56 109 115 134 111 12 -2 16 1 13 11 -7 17 30 51 48
44 8 -3 20 -1 28 4 11 7 10 9 -5 9 -17 0 -15 4 11 26 36 29 53 81 32 95 -11 7
-11 9 -1 9 7 0 11 4 8 8 -3 5 -21 8 -41 7 -40 -1 -45 7 -12 24 22 11 22 11 -3
5 -24 -6 -24 -6 -7 13 9 11 17 26 17 34 0 9 7 24 15 35 19 25 19 40 0 24 -8
-7 -15 -19 -15 -26 0 -8 -5 -14 -11 -14 -7 0 -8 7 -4 18 4 9 7 24 7 34 0 9 9
24 21 35 22 18 22 18 5 -3 -24 -28 -23 -41 1 -20 27 24 33 54 13 66 -15 8 -14
15 16 69 18 33 32 64 31 68 -3 20 2 31 19 35 15 4 22 23 32 82 7 42 17 76 21
76 9 0 1 80 -13 120 l-8 25 3 -26 c4 -28 -18 -58 -26 -36 -3 7 -6 3 -7 -8 -1
-15 -4 -12 -11 9 -8 29 -1 54 8 28 6 -16 23 -5 23 14 0 8 -4 13 -9 10 -9 -6
-24 71 -18 95 2 8 2 11 0 6 -3 -4 -8 -5 -13 -2 -4 2 -5 -17 -3 -43 5 -44 4
-46 -11 -27 -8 11 -15 25 -16 30 0 6 5 3 10 -5 15 -23 12 3 -6 45 -18 45 -14
64 9 41 16 -16 17 -16 17 11 0 16 7 39 16 52 11 15 14 33 10 54 l-6 32 15 -25
c11 -21 15 -22 20 -9 5 14 12 51 14 82 1 5 5 6 9 3 15 -9 40 32 47 78 6 41 11
47 49 66 22 11 56 33 74 48 31 26 33 30 21 55 -6 14 -15 24 -20 22 -4 -3 -10
-1 -14 5 -3 5 -18 10 -33 10 -35 0 -133 47 -112 54 33 10 143 14 205 6 112
-14 105 -27 105 196 0 206 16 797 25 927 l5 77 -3250 0 -3250 0 0 -3135z
m5290 2206 c0 -17 4 -18 32 -10 37 10 46 6 29 -15 -9 -11 -9 -15 1 -19 10 -3
10 -8 2 -17 -8 -8 -14 -9 -18 -1 -4 6 -14 11 -23 11 -25 0 -51 29 -46 51 7 25
23 25 23 0z m-35 -531 c3 -5 -1 -10 -9 -10 -9 0 -16 5 -16 10 0 6 4 10 9 10 6
0 13 -4 16 -10z m296 -132 c11 -21 11 -22 -4 -9 -10 7 -17 17 -17 22 0 15 9
10 21 -13z m-527 -89 c-2 -4 -23 -9 -46 -13 -23 -4 -48 -12 -55 -17 -17 -15
-28 33 -13 60 12 23 54 29 66 10 4 -8 10 -5 17 7 10 17 12 16 23 -11 7 -17 10
-33 8 -36z m996 -81 c11 -23 18 -43 15 -46 -5 -6 -45 60 -45 76 0 22 9 13 30
-30z m9 -74 c12 -20 20 -38 18 -41 -4 -4 -47 63 -47 73 0 11 10 1 29 -32z
m-25 -10 c3 -8 2 -12 -4 -9 -6 3 -10 10 -10 16 0 14 7 11 14 -7z m126 -115 c0
-11 -4 -17 -10 -14 -5 3 -10 -2 -10 -12 0 -10 -5 -25 -10 -33 -7 -11 -8 -5 -4
20 10 51 34 80 34 39z m-39 -174 c5 4 9 -1 9 -9 0 -9 -4 -16 -9 -16 -11 0 -21
26 -20 48 1 10 4 8 6 -6 2 -12 9 -20 14 -17z m-93 -185 c-7 -11 -17 -20 -22
-20 -6 0 -5 5 2 12 7 7 12 23 12 38 1 21 2 23 11 8 7 -12 6 -23 -3 -38z m-45
-85 c-3 -9 -8 -14 -10 -11 -3 3 -2 9 2 15 9 16 15 13 8 -4z m-343 -160 c0 -9
-9 -15 -25 -15 -16 0 -25 6 -25 15 0 9 9 15 25 15 16 0 25 -6 25 -15z m-95 -4
c3 -5 1 -12 -5 -16 -5 -3 -10 1 -10 9 0 18 6 21 15 7z m35 -1 c0 -5 -4 -10
-10 -10 -5 0 -10 5 -10 10 0 6 5 10 10 10 6 0 10 -4 10 -10z m-160 -55 c0 -18
-4 -23 -16 -18 -13 5 -15 0 -11 -23 3 -16 8 -37 12 -46 13 -33 -4 -18 -21 18
-17 36 -17 37 4 55 12 9 22 22 22 28 0 6 2 11 5 11 3 0 5 -11 5 -25z m323 -27
c24 -53 47 -110 47 -119 0 -16 -60 -39 -132 -51 -60 -9 -79 -8 -100 3 -27 14
-26 14 20 14 26 0 58 4 72 7 32 9 60 56 60 102 0 32 -3 36 -25 36 -34 0 -32
28 3 33 15 2 30 5 33 6 4 0 14 -14 22 -31z m-270 -103 c28 -36 28 -38 4 -16
-27 25 -58 80 -56 103 0 7 5 0 11 -17 6 -16 24 -48 41 -70z m-4460 -3082 c-7
-2 -13 -13 -13 -23 0 -12 -10 -19 -32 -23 -34 -4 -58 0 -58 12 1 11 64 38 90
39 14 0 19 -2 13 -5z m-153 -83 c-8 -5 -19 -10 -25 -10 -5 0 -3 5 5 10 8 5 20
10 25 10 6 0 3 -5 -5 -10z m995 -117 c-27 -7 -47 -35 -32 -45 7 -4 8 -8 2 -8
-5 0 -16 4 -23 9 -19 11 24 51 52 50 20 -1 20 -2 1 -6z m-451 -47 c-6 -16 -35
-30 -94 -46 -87 -22 -87 -22 -60 -5 25 16 25 16 -18 13 -38 -3 -41 -2 -25 10
11 8 30 11 50 7 42 -8 123 13 102 26 -10 6 -5 9 18 9 23 0 31 -4 27 -14z m346
4 c11 -8 7 -9 -15 -4 -37 8 -45 14 -19 14 10 0 26 -5 34 -10z m-610 -64 c0 -2
-7 -6 -15 -10 -8 -3 -15 -1 -15 4 0 6 7 10 15 10 8 0 15 -2 15 -4z m370 -26
c0 -5 -9 -10 -20 -10 -11 0 -20 5 -20 10 0 6 9 10 20 10 11 0 20 -4 20 -10z"/>
<path d="M6856 6147 c-7 -123 -1 -231 16 -276 l8 -24 145 5 c114 3 148 8 162
20 15 13 43 16 153 16 121 0 136 2 150 20 9 11 25 22 37 26 22 7 33 52 28 116
-4 46 -38 119 -70 149 -14 13 -25 34 -25 47 0 24 -1 24 -95 24 l-95 0 0 -29
c0 -20 -10 -39 -30 -58 -16 -15 -30 -38 -30 -50 0 -36 -46 -74 -91 -76 -48 -2
-59 10 -88 90 -14 38 -30 63 -41 66 -13 3 -16 11 -13 31 5 26 5 26 -54 26
l-60 0 -7 -123z"/>
<path d="M7870 6246 c-37 -25 -277 -256 -265 -256 3 0 -3 -12 -14 -26 -12 -15
-21 -33 -21 -41 0 -7 -7 -16 -15 -19 -8 -4 -15 -12 -15 -19 0 -8 -6 -20 -14
-28 -24 -24 -117 -193 -158 -290 -22 -50 -43 -94 -47 -97 -12 -8 -74 -139 -74
-156 0 -8 -4 -14 -8 -14 -4 0 -22 -30 -40 -67 -41 -86 -94 -140 -145 -148 -74
-12 -125 -28 -133 -42 -4 -8 -37 -33 -73 -57 -72 -45 -73 -52 -15 -90 25 -15
28 -23 25 -54 -3 -21 -8 -46 -13 -57 -5 -15 -1 -13 18 8 l25 27 5 -27 c3 -15
1 -35 -4 -45 -5 -9 -9 -24 -9 -34 0 -13 3 -14 15 -4 12 10 15 10 15 -2 0 -7
13 -25 29 -39 22 -19 34 -23 51 -17 19 7 22 5 17 -12 -4 -18 -3 -19 9 -9 12
10 13 9 7 -7 -6 -17 -5 -17 10 -5 17 14 21 10 18 -21 -1 -10 4 -18 13 -18 9 0
16 -7 16 -15 0 -13 4 -14 21 -5 19 11 20 10 9 -9 -9 -18 -8 -21 10 -21 23 0
27 -25 5 -34 -8 -3 -12 -12 -9 -20 5 -13 10 -13 27 -4 19 10 20 9 9 -4 -11
-13 -8 -15 20 -12 l33 4 -28 -18 c-26 -18 -27 -19 -9 -35 10 -9 26 -17 36 -17
9 0 14 -4 11 -10 -3 -5 2 -10 11 -10 13 0 15 -3 7 -11 -6 -6 -24 -11 -38 -11
l-27 -1 31 -19 c35 -22 35 -22 20 -49 -9 -18 -7 -19 18 -14 25 6 26 5 11 -8
-15 -12 -14 -14 16 -25 19 -7 41 -9 51 -5 13 4 16 3 11 -5 -4 -7 -15 -12 -24
-13 -14 0 -14 -2 2 -8 14 -5 16 -10 8 -15 -16 -9 -15 -24 1 -23 36 1 46 -4 40
-19 -5 -14 -1 -16 25 -12 27 4 30 2 21 -14 -5 -10 -21 -18 -35 -18 -14 0 -23
-4 -19 -10 3 -6 -2 -13 -12 -17 -10 -4 -21 -11 -24 -15 -3 -5 -12 -10 -20 -12
-8 -1 -25 -6 -38 -10 -18 -6 -21 -10 -10 -17 11 -7 9 -10 -8 -15 -26 -7 -31
-24 -8 -24 8 0 15 -4 15 -10 0 -5 18 -10 41 -10 24 0 38 -4 34 -10 -3 -5 -15
-10 -25 -10 -10 0 -28 -13 -40 -30 -12 -16 -29 -30 -38 -30 -9 0 -32 -9 -49
-20 -18 -11 -33 -15 -33 -10 0 6 -7 10 -15 10 -9 0 -15 -9 -15 -25 0 -25 -56
-92 -68 -80 -3 3 -2 9 4 13 22 15 54 71 44 77 -6 3 -13 -1 -16 -9 -3 -9 -10
-13 -15 -10 -5 3 -9 1 -9 -3 0 -17 -48 -74 -54 -64 -4 5 2 18 12 28 22 22 35
53 22 53 -6 0 -10 -4 -10 -10 0 -5 -7 -10 -15 -10 -8 0 -12 -6 -9 -14 3 -7 -2
-20 -10 -29 -19 -19 -21 -37 -3 -37 9 0 8 -3 -2 -9 -7 -5 -11 -13 -7 -19 3 -6
-3 -13 -14 -17 -11 -3 -20 -13 -20 -21 0 -8 -5 -14 -11 -14 -5 0 -7 5 -3 12 4
7 3 8 -4 4 -12 -7 -5 -37 12 -48 6 -4 1 -6 -11 -5 -12 0 -19 5 -16 11 3 5 1 6
-5 2 -8 -4 -12 0 -12 11 0 14 -2 15 -9 4 -6 -9 -4 -19 4 -28 8 -7 12 -20 9
-28 -5 -11 1 -15 19 -15 14 0 28 6 30 13 3 7 6 5 6 -5 1 -12 -6 -18 -21 -18
-19 0 -20 -2 -8 -11 12 -8 12 -12 2 -16 -12 -5 58 -63 76 -63 4 0 23 -16 42
-35 19 -19 43 -35 54 -36 12 0 15 -3 9 -6 -17 -6 -17 -23 0 -23 8 0 24 -11 37
-25 13 -14 29 -25 36 -25 8 0 20 -12 29 -27 l16 -28 -6 28 c-4 19 -2 26 5 22
5 -3 10 -12 10 -19 0 -8 9 -24 21 -37 11 -13 18 -19 15 -14 -13 27 11 30 32 4
22 -27 22 -28 2 -24 -30 6 -24 -12 10 -30 19 -10 27 -20 24 -30 -9 -24 -30
-18 -60 18 -25 30 -26 30 -20 7 12 -43 29 -70 43 -70 9 0 11 5 7 13 -4 6 2 3
14 -7 12 -11 22 -22 22 -25 0 -3 -5 0 -11 6 -12 12 -39 7 -39 -8 0 -20 59
-135 77 -150 10 -9 38 -19 62 -22 31 -4 41 -3 30 4 -9 7 7 9 54 6 66 -4 67 -4
50 16 -18 19 -17 19 40 12 37 -5 57 -4 57 3 0 6 -6 13 -12 15 -7 3 -2 6 12 6
35 1 73 29 66 48 -5 12 -1 14 14 10 13 -3 20 0 20 8 0 8 4 17 10 20 14 8 1
-26 -18 -47 -14 -17 -13 -18 12 -18 19 0 29 7 36 25 5 14 12 25 15 25 4 0 3
-4 0 -10 -3 -5 3 -10 14 -10 30 0 26 -16 -9 -30 -16 -7 -30 -16 -30 -21 0 -11
57 17 78 37 11 11 11 14 0 14 -8 0 -7 4 4 11 10 5 24 9 30 7 7 -1 23 3 36 10
12 7 26 11 31 8 5 -3 29 14 54 38 44 42 60 80 61 141 0 21 52 75 72 75 42 0
49 81 12 131 -16 23 -24 44 -22 64 2 17 -3 45 -12 63 -15 33 -11 72 8 72 5 0
8 7 4 15 -4 10 6 18 34 26 35 11 40 17 48 53 5 23 5 48 1 56 -10 21 -12 65
-10 223 l1 137 34 16 c18 9 41 29 50 44 16 27 15 30 -9 76 l-25 47 40 43 c22
24 40 53 40 63 0 11 29 53 65 92 70 78 86 116 105 245 5 38 16 104 25 147 8
43 15 93 15 110 0 18 9 59 19 92 20 59 52 191 56 230 24 206 27 270 17 318 -6
29 -16 97 -22 152 -18 167 -45 255 -109 357 l-36 57 -285 0 c-282 0 -285 0
-320 -23z m83 -759 c3 -7 -3 -13 -14 -13 -13 0 -15 3 -7 13 6 7 12 13 13 13 2
0 5 -6 8 -13z m-63 -31 c0 -3 -4 -8 -10 -11 -5 -3 -10 -1 -10 4 0 6 5 11 10
11 6 0 10 -2 10 -4z m-14 -410 c10 -8 16 -18 11 -22 -4 -4 -7 -2 -7 4 0 7 -6
12 -14 12 -8 0 -18 5 -21 10 -9 15 8 12 31 -4z m84 -37 c0 -5 -4 -9 -10 -9 -5
0 -10 7 -10 16 0 8 5 12 10 9 6 -3 10 -10 10 -16z m276 6 c15 -10 20 -22 17
-40 -6 -30 -11 -31 -29 -7 -7 9 -14 12 -14 5 0 -6 5 -15 10 -18 17 -10 11 -25
-9 -25 -11 0 -21 -6 -24 -12 -4 -10 -7 -10 -18 0 -11 10 -10 12 4 12 20 0 20
1 7 35 -8 20 -7 27 5 31 8 4 15 12 15 20 0 18 10 18 36 -1z m-86 -101 c0 -8
-4 -14 -10 -14 -5 0 -10 9 -10 21 0 11 5 17 10 14 6 -3 10 -13 10 -21z m-150
-39 c-7 -14 -19 -25 -27 -25 -7 0 -13 -4 -13 -10 0 -5 -5 -10 -11 -10 -18 0 0
53 24 72 29 22 45 7 27 -27z m-592 -12 c-13 -30 -59 -85 -66 -79 -9 9 10 46
24 46 8 0 17 8 21 18 6 18 23 42 29 42 2 0 -2 -12 -8 -27z m-38 7 c0 -5 -6
-10 -14 -10 -7 0 -20 -10 -29 -22 -8 -13 -18 -20 -21 -17 -11 10 28 48 62 58
1 1 2 -3 2 -9z m800 -10 c0 -18 -3 -19 -22 -9 -13 7 -25 11 -28 10 -2 -1 -6 2
-8 8 -2 6 10 11 27 11 25 0 31 -4 31 -20z m-721 -52 c-14 -27 18 -24 40 4 29
35 32 5 4 -38 l-26 -39 26 24 c15 14 27 20 27 14 0 -16 -31 -38 -55 -38 -14
-1 -22 5 -21 15 1 11 -8 15 -37 14 -28 -1 -35 2 -27 11 5 6 7 15 3 18 -8 9 17
38 42 47 25 9 37 -7 24 -32z m776 22 c-3 -5 0 -10 9 -10 17 0 76 -71 76 -93 0
-13 -27 -26 -55 -27 -6 0 -17 17 -25 38 -7 20 -15 31 -17 25 -6 -16 -29 -17
-38 -3 -4 6 -1 18 6 26 10 12 14 12 21 2 6 -8 7 -5 3 11 -5 15 -2 27 6 32 18
11 22 11 14 -1z m86 -32 c11 -21 11 -22 -4 -9 -10 7 -17 17 -17 22 0 15 9 10
21 -13z m-1118 -15 c-7 -2 -21 -2 -30 0 -10 3 -4 5 12 5 17 0 24 -2 18 -5z
m855 -11 c2 -7 -3 -12 -12 -12 -9 0 -16 7 -16 16 0 17 22 14 28 -4z m-338 -16
c0 -2 -8 -10 -17 -17 -16 -13 -17 -12 -4 4 13 16 21 21 21 13z m390 -28 c0
-21 -17 -41 -28 -34 -6 3 -15 -2 -21 -11 -11 -19 -11 -19 -15 30 -1 6 4 12 11
12 6 0 15 3 19 8 12 11 34 8 34 -5z m-947 -918 c-3 -12 -8 -19 -11 -16 -5 6 5
36 12 36 2 0 2 -9 -1 -20z m155 -113 c3 -12 -2 -16 -15 -14 -56 11 -74 40 -21
35 22 -2 34 -9 36 -21z m-110 -63 c4 -136 40 -179 148 -179 44 0 56 -2 41 -8
-12 -5 -50 -8 -85 -8 -49 0 -77 6 -127 29 -88 42 -92 53 -49 138 29 57 60 104
69 104 1 0 2 -34 3 -76z m170 59 c2 -8 -5 -13 -17 -13 -12 0 -21 6 -21 16 0
18 31 15 38 -3z m223 -53 c21 0 27 -4 23 -15 -5 -11 -11 -12 -25 -4 -25 13
-35 6 -42 -31 -4 -16 -23 -47 -43 -67 l-36 -38 26 40 c14 22 31 66 38 99 10
52 13 57 21 38 7 -15 19 -22 38 -22z m-311 -26 c0 -8 -4 -12 -10 -9 -5 3 -10
10 -10 16 0 5 5 9 10 9 6 0 10 -7 10 -16z m80 6 c0 -5 -7 -10 -15 -10 -8 0
-15 5 -15 10 0 6 7 10 15 10 8 0 15 -4 15 -10z m218 -65 c-12 -25 -26 -45 -31
-45 -5 0 -7 3 -5 8 30 68 43 90 49 86 5 -3 -1 -25 -13 -49z m-133 -85 c-3 -5
-12 -10 -18 -10 -7 0 -6 4 3 10 19 12 23 12 15 0z m-50 -70 c3 -5 1 -10 -4
-10 -6 0 -11 5 -11 10 0 6 2 10 4 10 3 0 8 -4 11 -10z m-20 -20 c3 -5 1 -10
-4 -10 -6 0 -11 5 -11 10 0 6 2 10 4 10 3 0 8 -4 11 -10z m-175 -30 c0 -5 -2
-10 -4 -10 -3 0 -8 5 -11 10 -3 6 -1 10 4 10 6 0 11 -4 11 -10z m167 -207 c-3
-3 -11 -2 -17 2 -9 6 -9 10 1 16 14 8 27 -7 16 -18z m573 -32 c0 -13 -28 -22
-35 -11 -3 4 1 11 7 13 20 8 28 8 28 -2z m-201 -15 c-10 -9 -69 -36 -69 -32 0
7 52 35 64 36 5 0 7 -2 5 -4z m-334 -66 c3 -5 1 -10 -4 -10 -6 0 -11 5 -11 10
0 6 2 10 4 10 3 0 8 -4 11 -10z m185 -20 c-19 -13 -30 -13 -30 0 0 6 10 10 23
10 18 0 19 -2 7 -10z m27 -16 c-3 -3 -12 -4 -19 -1 -8 3 -5 6 6 6 11 1 17 -2
13 -5z"/>
<path d="M10604 6208 c4 -35 9 -142 12 -238 4 -141 2 -189 -11 -245 -9 -38
-18 -86 -20 -105 -2 -19 -11 -66 -19 -105 -9 -45 -14 -118 -13 -207 2 -123 4
-139 23 -160 55 -61 91 -169 101 -300 5 -74 3 -97 -17 -158 -12 -39 -32 -82
-43 -97 -20 -25 -22 -25 -101 -19 -45 4 -94 10 -111 12 -16 3 -34 5 -40 4 -5
-1 -44 -4 -85 -6 -71 -5 -78 -3 -130 28 -30 18 -59 43 -65 54 -22 44 -32 49
-84 46 -42 -3 -56 -10 -79 -34 -54 -59 -168 -123 -245 -137 -118 -22 -314 -24
-517 -5 -263 24 -269 23 -302 -17 -54 -64 -29 -126 68 -169 63 -29 99 -38 264
-66 150 -25 194 -60 220 -171 17 -75 -1 -131 -75 -238 -18 -27 -20 -45 -20
-219 0 -143 -3 -190 -12 -193 -7 -3 -13 -10 -13 -17 0 -24 -49 -55 -97 -61
-60 -7 -109 -20 -197 -53 -38 -14 -83 -24 -100 -23 -80 5 -83 3 -85 -53 -3
-95 38 -345 75 -456 57 -169 75 -189 162 -175 60 10 201 6 223 -5 9 -5 22 -23
29 -39 10 -26 10 -33 -4 -46 -9 -9 -16 -20 -16 -23 0 -4 -16 -16 -36 -27 -28
-15 -57 -19 -145 -19 -89 -1 -109 -4 -110 -16 0 -8 -5 -67 -10 -130 -18 -194
-18 -191 16 -210 16 -9 57 -53 90 -98 33 -44 92 -118 130 -164 97 -115 174
-214 186 -241 5 -12 23 -42 39 -67 108 -166 149 -272 154 -399 2 -52 8 -86 16
-91 9 -5 10 -20 5 -46 -18 -104 0 -244 32 -244 9 0 40 -7 68 -16 l52 -17 -11
-31 c-6 -17 -13 -33 -16 -36 -18 -18 -29 -66 -33 -138 -4 -80 -3 -83 12 -58
15 26 41 36 41 16 0 -5 18 -10 40 -10 22 0 40 5 40 10 0 6 7 10 16 10 28 0 44
27 44 74 0 42 2 46 24 46 25 0 42 -28 38 -60 -9 -56 -13 -62 -37 -56 -22 6
-25 3 -25 -19 0 -14 5 -25 10 -25 6 0 10 5 10 10 0 6 6 10 13 10 8 0 13 -15
14 -42 3 -54 -18 -78 -67 -78 -20 0 -41 -5 -47 -11 -9 -9 -12 -4 -11 20 1 17
-2 35 -6 38 -8 8 -45 -35 -46 -52 0 -5 -9 -20 -19 -32 -20 -24 -63 -32 -58
-10 1 7 -10 13 -28 14 -20 1 -23 0 -7 -4 30 -6 28 -19 -5 -28 -37 -9 -43 -20
-43 -81 0 -28 -4 -64 -9 -80 -5 -16 -12 -50 -15 -77 l-6 -47 173 2 c153 3 172
5 169 19 -1 10 4 55 13 100 28 155 38 275 27 321 -13 50 -11 54 17 37 18 -12
20 -21 16 -99 -2 -47 -8 -121 -14 -165 -5 -44 -7 -110 -4 -147 l6 -68 68 0
c60 0 69 2 69 18 0 61 24 242 36 271 8 18 14 46 14 62 0 15 5 31 10 34 6 3 10
25 10 48 0 47 9 87 19 87 9 0 2 -131 -9 -155 -9 -21 -18 -57 -27 -112 l-5 -32
48 4 c27 2 53 0 59 -3 5 -3 19 -6 30 -7 19 0 20 -6 16 -107 l-3 -108 492 0
492 0 -5 22 c-3 13 -15 68 -28 123 -12 55 -23 114 -24 130 -1 17 -7 46 -13 65
-14 48 -24 118 -13 101 7 -11 10 -11 15 0 3 8 4 4 2 -8 -2 -13 -1 -23 3 -23 8
0 26 -49 36 -97 4 -19 11 -30 19 -27 7 3 16 -13 24 -41 15 -55 15 -75 2 -75
-5 0 -9 3 -9 7 4 24 -2 53 -11 53 -16 0 -11 -56 10 -117 11 -32 20 -66 20 -78
0 -16 2 -17 10 -5 8 12 10 11 10 -7 0 -19 6 -23 31 -23 24 0 30 4 25 15 -21
51 -21 51 2 31 12 -11 22 -25 22 -33 0 -16 17 -17 23 0 4 9 6 9 6 0 1 -7 6
-13 12 -13 23 0 -18 112 -62 169 -11 13 -19 35 -18 50 0 26 0 26 9 3 10 -23
21 -38 57 -78 13 -14 22 -28 22 -32 -3 -19 2 -26 10 -13 6 9 11 -2 15 -32 7
-43 29 -77 42 -64 9 8 -26 97 -51 132 -28 38 -55 91 -66 127 -10 36 -2 36 14
0 17 -38 160 -252 165 -247 2 2 -5 16 -17 31 -11 15 -21 30 -21 35 0 4 -5 20
-12 36 -6 15 -12 30 -13 33 0 3 -15 33 -33 67 -36 70 -21 76 20 8 41 -68 49
-54 17 26 -28 69 -41 131 -17 81 6 -12 17 -22 24 -22 11 0 11 6 2 28 -6 15
-17 85 -25 157 -7 72 -18 166 -23 210 -13 124 -12 278 3 299 12 16 16 15 69
-8 31 -14 58 -30 60 -37 2 -7 12 -13 22 -15 16 -2 18 3 13 32 -3 19 -2 34 2
34 5 0 6 33 3 73 -3 53 -10 78 -24 94 -12 12 -18 29 -14 40 4 12 -5 30 -25 53
-49 55 -62 87 -54 134 3 22 6 64 6 91 -1 28 -1 71 -2 98 0 31 7 59 20 80 19
31 19 35 4 63 -31 56 -37 240 -35 1077 0 510 -3 817 -9 817 -5 0 -9 11 -9 24
0 16 -7 27 -20 31 -24 8 -43 -2 -37 -19 3 -7 -5 -13 -16 -14 -12 0 -23 -6 -25
-12 -2 -5 -21 -10 -43 -10 -32 0 -39 -3 -39 -20 0 -11 -5 -20 -11 -20 -6 0 -9
-9 -6 -20 3 -11 -3 -30 -14 -44 -10 -13 -19 -29 -19 -35 0 -6 -6 -11 -12 -11
-10 0 -10 -2 -1 -8 9 -6 12 -57 12 -187 0 -99 5 -245 11 -325 6 -80 13 -253
15 -385 2 -132 4 -253 4 -268 2 -31 -19 -57 -44 -57 -28 0 -55 20 -55 40 0 11
-7 20 -15 20 -8 0 -15 -4 -15 -10 0 -5 -9 -10 -20 -10 -11 0 -20 -4 -20 -10 0
-5 9 -10 20 -10 28 0 25 -17 -5 -22 -16 -4 -25 0 -28 11 -4 13 -5 13 -6 -1 -1
-22 -31 -24 -31 -3 0 8 -9 15 -19 15 -11 0 -21 6 -23 12 -6 17 -38 -14 -38
-36 0 -9 -4 -16 -10 -16 -5 0 -10 -7 -10 -15 0 -8 -4 -15 -10 -15 -5 0 -12
-11 -16 -25 -7 -28 -34 -34 -34 -7 0 12 -4 10 -13 -8 -14 -28 -41 -37 -62 -20
-16 13 -18 75 -19 645 -1 413 12 1515 18 1565 2 19 7 247 10 505 4 259 9 484
12 500 14 95 28 827 17 889 l-5 26 -160 0 -160 0 6 -62z m-44 -3463 c0 -50 8
-45 -95 -51 -27 -1 -76 0 -107 3 -56 5 -58 6 -58 33 0 20 6 31 20 35 11 3 20
11 20 16 0 5 49 9 110 9 l110 0 0 -45z m-120 -1864 c0 -42 -3 -49 -22 -54 -30
-8 -38 -1 -38 38 0 49 9 65 36 65 22 0 24 -4 24 -49z m317 -73 c8 -14 11 -34
42 -228 11 -69 24 -141 30 -160 12 -42 41 -229 41 -264 l0 -26 -34 33 c-65 64
-76 99 -80 270 -1 84 -8 161 -13 172 -11 21 -22 168 -16 198 5 20 19 22 30 5z
m-877 -208 c0 -5 -4 -10 -10 -10 -5 0 -10 5 -10 10 0 6 5 10 10 10 6 0 10 -4
10 -10z m25 -300 c3 -5 -1 -10 -10 -10 -9 0 -13 5 -10 10 3 6 8 10 10 10 2 0
7 -4 10 -10z m365 -4 c0 -8 -4 -18 -10 -21 -5 -3 -10 3 -10 14 0 12 5 21 10
21 6 0 10 -6 10 -14z m1104 -182 c9 -23 7 -46 -3 -40 -11 7 -21 56 -11 56 4 0
11 -7 14 -16z m76 -79 c0 -5 -5 -3 -10 5 -5 8 -10 20 -10 25 0 6 5 3 10 -5 5
-8 10 -19 10 -25z"/>
<path d="M11310 6202 c0 -38 9 -111 20 -162 11 -51 20 -97 20 -102 0 -4 20 -8
45 -8 38 0 45 -3 45 -20 0 -13 7 -20 20 -20 11 0 20 -4 20 -10 0 -5 18 -10 40
-10 37 0 40 -2 40 -29 0 -49 -12 -91 -26 -91 -8 0 -14 5 -14 10 0 6 -9 10 -20
10 -13 0 -20 -7 -20 -20 0 -13 7 -20 20 -20 11 0 20 -4 20 -10 0 -5 -13 -10
-30 -10 -23 0 -30 -4 -30 -20 0 -11 5 -20 10 -20 6 0 10 -9 10 -20 0 -13 7
-20 20 -20 11 0 20 -4 20 -10 0 -5 7 -10 15 -10 8 0 15 -7 15 -15 0 -23 22
-65 35 -65 12 0 25 336 25 627 l0 113 -150 0 -150 0 0 -68z"/>
<path d="M11260 6163 c0 -16 5 -35 10 -43 7 -11 10 -4 10 28 0 23 -4 42 -10
42 -5 0 -10 -12 -10 -27z"/>
<path d="M11160 5950 c0 -33 4 -40 19 -40 18 0 37 27 26 38 -3 3 -5 0 -5 -6 0
-7 -4 -12 -10 -12 -5 0 -10 14 -10 30 0 17 -4 30 -10 30 -5 0 -10 -18 -10 -40z"/>
<path d="M11128 5858 c-12 -15 -14 -26 -8 -39 6 -10 10 -29 10 -43 0 -13 5
-26 12 -28 7 -3 12 -25 12 -58 0 -33 -5 -55 -12 -58 -18 -6 -16 -122 2 -122 8
0 18 -9 21 -20 4 -14 15 -20 36 -20 16 0 29 -4 29 -10 0 -22 20 -8 26 18 4 15
12 30 18 34 8 5 7 13 -1 28 -7 11 -13 36 -13 55 0 19 -4 35 -10 35 -6 0 -10
27 -10 60 0 33 -4 60 -9 60 -5 0 -11 23 -13 52 -8 74 -53 103 -90 56z"/>
<path d="M11450 5568 c0 -6 -9 -21 -19 -32 -20 -22 -25 -57 -22 -163 1 -56 3
-63 21 -63 29 0 90 64 90 94 0 13 -6 27 -12 30 -10 5 -10 7 0 12 7 3 12 25 12
55 0 42 -3 49 -20 49 -11 0 -20 7 -20 15 0 8 -7 15 -15 15 -8 0 -15 -5 -15
-12z"/>
<path d="M11571 5298 c2 -156 17 -177 18 -25 1 78 -3 127 -9 127 -6 0 -10 -40
-9 -102z"/>
<path d="M11458 5103 c-10 -3 -18 -11 -18 -18 0 -7 -5 -15 -12 -17 -8 -3 -6
-24 7 -77 14 -57 15 -75 5 -81 -8 -5 -10 -18 -5 -39 5 -23 2 -37 -8 -49 -19
-21 -38 -161 -25 -182 6 -11 7 -8 3 10 -4 20 -2 19 12 -7 9 -18 23 -33 30 -33
8 0 18 -10 23 -22 5 -13 9 -17 9 -10 1 6 10 12 20 12 14 0 18 -5 14 -20 -4
-16 0 -20 21 -20 14 0 26 -3 26 -6 0 -11 -29 -34 -44 -34 -13 0 -16 -15 -16
-90 0 -53 -4 -90 -10 -90 -6 0 -10 37 -10 90 0 81 -2 90 -18 90 -17 0 -20 -14
-27 -167 -9 -206 -10 -190 8 -238 14 -36 15 -38 20 -15 4 23 4 23 6 3 0 -13 5
-23 10 -23 5 0 12 -13 16 -30 4 -16 13 -30 21 -30 11 0 14 -20 14 -100 0 -59
4 -100 10 -100 5 0 12 10 14 23 18 87 32 1157 16 1157 -6 0 -10 -12 -10 -27
l0 -27 -20 22 c-11 12 -20 26 -20 32 0 6 -4 8 -10 5 -5 -3 -10 3 -10 14 0 12
-5 21 -11 21 -7 0 -9 12 -5 34 7 37 1 45 -26 39z"/>
<path d="M11160 4845 c0 -8 -9 -15 -20 -15 -17 0 -20 -7 -20 -40 0 -22 4 -40
8 -40 14 0 32 -48 32 -85 0 -19 5 -35 10 -35 6 0 10 -9 10 -20 0 -11 5 -20 10
-20 6 0 10 52 10 135 0 128 -1 135 -20 135 -11 0 -20 -7 -20 -15z"/>
<path d="M11220 4623 c0 -5 5 -15 10 -23 8 -12 10 -11 10 8 0 12 -4 22 -10 22
-5 0 -10 -3 -10 -7z"/>
<path d="M11250 4574 c0 -8 -7 -22 -15 -31 -13 -13 -15 -40 -12 -167 3 -153
14 -206 44 -206 7 0 13 5 13 10 0 6 7 10 16 10 9 0 25 10 36 23 17 19 19 34
16 110 -1 48 1 88 6 90 15 5 -3 97 -20 97 -8 0 -14 6 -14 14 0 8 -9 18 -20 21
-11 3 -20 15 -20 26 0 10 -7 19 -15 19 -8 0 -15 -7 -15 -16z"/>
<path d="M11370 4430 c0 -36 3 -40 25 -40 23 0 25 4 25 40 0 36 -2 40 -25 40
-22 0 -25 -4 -25 -40z"/>
<path d="M6080 4029 c0 -5 5 -7 10 -4 6 3 10 8 10 11 0 2 -4 4 -10 4 -5 0 -10
-5 -10 -11z"/>
<path d="M7195 3910 c-3 -5 -1 -10 4 -10 6 0 11 5 11 10 0 6 -2 10 -4 10 -3 0
-8 -4 -11 -10z"/>
<path d="M6937 3740 c3 -11 9 -17 15 -14 5 3 4 12 -3 20 -16 19 -18 18 -12 -6z"/>
<path d="M6005 3710 c-8 -13 5 -13 25 0 13 8 13 10 -2 10 -9 0 -20 -4 -23 -10z"/>
<path d="M6280 3500 c0 -5 -12 -13 -27 -16 -16 -4 -31 -9 -35 -11 -11 -6 3
-34 16 -32 6 2 28 -1 49 -5 20 -5 53 -5 73 -2 29 6 34 10 29 26 -5 15 -3 18 9
14 30 -11 39 8 10 21 -36 15 -124 19 -124 5z"/>
<path d="M6540 3498 c0 -4 5 -8 11 -8 5 0 7 -5 4 -10 -4 -6 -11 -8 -16 -5 -5
3 1 -10 14 -29 25 -38 57 -58 76 -46 17 10 -4 24 -24 17 -7 -3 -16 1 -19 9 -9
23 -7 26 6 18 7 -5 9 -2 5 9 -4 10 1 18 14 22 10 4 19 10 19 15 0 15 -24 24
-28 12 -2 -7 -13 -12 -23 -12 -11 0 -18 4 -15 8 3 5 -1 9 -9 9 -8 0 -15 -4
-15 -9z m30 -28 c0 -5 -5 -10 -11 -10 -5 0 -7 5 -4 10 3 6 8 10 11 10 2 0 4
-4 4 -10z"/>
<path d="M6445 3490 c-3 -5 -1 -10 4 -10 6 0 11 5 11 10 0 6 -2 10 -4 10 -3 0
-8 -4 -11 -10z"/>
<path d="M6400 3449 c0 -5 5 -7 10 -4 6 3 10 8 10 11 0 2 -4 4 -10 4 -5 0 -10
-5 -10 -11z"/>
<path d="M6648 3433 c7 -3 16 -2 19 1 4 3 -2 6 -13 5 -11 0 -14 -3 -6 -6z"/>
<path d="M6327 3404 c-1 -1 -30 -5 -65 -8 -70 -5 -114 -28 -161 -81 -17 -19
-35 -35 -41 -35 -6 0 -9 -4 -6 -9 3 -4 -1 -16 -8 -27 -12 -16 -16 -17 -32 -4
-17 14 -18 14 -5 -2 12 -16 11 -18 -3 -18 -9 0 -15 -3 -14 -7 1 -5 -4 -19 -11
-32 -9 -17 -16 -20 -24 -12 -13 13 -41 15 -32 2 3 -5 0 -13 -6 -17 -6 -3 -15
0 -20 7 -6 10 -8 8 -7 -8 1 -11 7 -19 13 -16 7 2 18 -3 25 -12 11 -14 10 -17
-8 -22 -23 -6 -29 -23 -20 -65 1 -9 -1 -17 -7 -17 -14 1 -24 -34 -14 -53 5 -9
10 -28 11 -42 1 -14 8 -28 16 -31 7 -3 11 -9 8 -14 -3 -5 2 -7 12 -4 15 4 17
-2 14 -39 -3 -38 -1 -41 11 -26 8 10 17 15 21 11 4 -4 4 0 0 10 -4 12 -1 17
10 17 11 0 15 -10 14 -37 -1 -72 2 -94 12 -88 6 3 10 1 10 -5 0 -7 7 -9 16 -6
33 13 63 -4 66 -37 3 -28 6 -32 31 -30 29 2 33 -7 17 -38 -7 -12 -8 -31 -2
-52 7 -26 5 -36 -10 -52 -14 -14 -17 -27 -12 -45 10 -40 10 -184 -1 -192 -6
-5 -6 -17 2 -37 10 -27 9 -30 -11 -33 -17 -2 -22 -12 -27 -45 -5 -40 -19 -72
-19 -44 0 9 -4 8 -15 -3 -8 -8 -15 -22 -15 -30 0 -9 -6 -13 -14 -10 -7 3 -16
-3 -20 -13 -5 -13 -9 -14 -15 -5 -13 22 -42 3 -35 -23 3 -13 1 -26 -5 -29 -6
-4 -11 -1 -11 6 0 7 -5 5 -11 -6 -9 -15 -13 -16 -20 -5 -7 11 -9 11 -9 1 0 -9
-7 -11 -20 -7 -13 4 -20 2 -20 -7 0 -10 -3 -9 -11 2 -8 11 -12 12 -16 3 -7
-18 -30 -16 -41 3 -8 15 -10 15 -15 0 -5 -12 1 -19 17 -26 18 -6 25 -19 29
-47 9 -68 19 -98 38 -115 24 -23 28 -23 21 4 -3 15 -2 19 7 14 7 -5 22 3 37
19 13 14 29 23 34 20 10 -6 8 12 -6 65 -2 8 5 20 15 25 11 6 36 19 58 30 21
10 52 34 70 53 17 19 36 31 42 28 5 -4 26 18 46 49 20 30 41 52 46 49 5 -3 9
4 9 15 0 12 4 21 10 21 5 0 7 8 4 18 -4 10 -2 13 3 7 4 -6 31 -11 58 -11 28 1
67 -2 87 -5 22 -4 44 -2 55 5 29 20 92 20 113 1 10 -9 24 -14 29 -10 6 3 11 1
11 -5 0 -6 4 -9 8 -6 5 3 18 -2 28 -12 11 -9 26 -18 33 -20 7 -1 20 -9 28 -17
27 -28 208 -99 224 -89 5 3 9 0 9 -5 0 -6 7 -11 15 -11 55 0 -45 -256 -127
-325 -15 -13 -28 -25 -28 -28 0 -2 25 2 56 8 39 8 64 19 78 36 12 14 30 28 39
32 9 3 17 15 17 27 0 11 9 25 20 32 24 15 25 33 5 72 -22 42 -19 46 29 46 24
0 46 4 48 9 3 11 128 22 128 12 0 -4 -5 -12 -11 -18 -7 -7 -7 -13 -1 -17 15
-9 82 33 82 51 0 8 5 11 10 8 6 -4 15 7 21 24 6 17 15 31 21 31 5 0 15 6 23
13 12 11 79 56 189 124 84 52 164 92 172 85 5 -4 2 2 -6 12 -10 13 -10 17 -2
12 7 -4 12 -2 12 4 0 6 4 8 10 5 5 -3 12 6 15 20 14 66 18 79 22 68 9 -25 29
-14 109 63 24 23 41 44 38 46 -3 3 4 25 14 49 20 45 29 69 65 172 16 45 18 62
9 80 l-11 22 -7 -22 c-8 -27 -29 -30 -39 -5 -6 14 -9 12 -16 -13 -6 -20 -5
-32 4 -37 6 -4 14 -5 16 -2 3 3 -1 9 -9 14 -13 8 -12 10 3 10 27 0 32 -28 9
-53 -11 -12 -23 -31 -26 -42 -9 -28 -63 -85 -81 -85 -18 0 -19 -12 -4 -27 8
-8 3 -13 -20 -18 -17 -3 -34 -11 -37 -17 -4 -6 -3 -8 2 -5 6 3 16 2 24 -4 12
-7 12 -9 -3 -9 -10 0 -15 -4 -12 -10 3 -5 1 -10 -5 -10 -7 0 -10 -13 -8 -32 3
-29 0 -33 -19 -31 -13 2 -23 -2 -23 -7 0 -6 -5 -10 -10 -10 -6 0 -8 11 -4 28
10 40 -11 16 -26 -30 -6 -21 -18 -38 -26 -38 -8 0 -21 -6 -28 -12 -12 -11 -12
-16 0 -29 13 -15 13 -17 -2 -23 -12 -4 -15 -2 -10 9 3 8 1 15 -4 15 -6 0 -10
-4 -10 -10 0 -5 -12 -16 -27 -24 -16 -8 -25 -15 -21 -16 12 0 -46 -60 -59 -60
-7 0 -13 -4 -13 -10 0 -5 -5 -10 -11 -10 -7 0 -22 -10 -34 -22 -31 -31 -53
-48 -61 -48 -3 0 -20 -6 -37 -14 -79 -35 -247 -58 -247 -33 0 9 -2 9 -8 0 -9
-14 -74 -13 -84 2 -5 6 -12 4 -18 -5 -8 -13 -10 -13 -10 1 0 11 -11 18 -30 21
-16 3 -30 1 -30 -3 0 -15 -93 26 -97 42 -3 9 -16 22 -29 28 -13 6 -24 15 -24
20 0 6 -6 8 -14 5 -9 -4 -16 2 -18 17 -2 12 -12 27 -22 33 -11 6 -29 19 -40
29 -32 29 -68 40 -78 25 -6 -10 -8 -9 -8 4 0 10 -11 23 -25 30 l-25 13 25 30
c22 27 26 28 35 13 6 -9 18 -24 26 -33 15 -14 18 -14 33 0 10 8 21 15 25 15
11 0 45 43 46 58 0 6 5 12 11 12 8 0 8 4 0 14 -10 12 -8 13 10 9 18 -5 20 -3
14 17 -4 12 -8 28 -9 34 -3 21 -17 36 -28 30 -7 -5 -9 -1 -5 9 7 19 -14 67
-29 67 -29 0 -37 29 -25 85 12 54 17 59 54 55 10 -1 27 6 37 15 16 15 17 19 3
46 -15 30 -30 41 -20 14 12 -31 -12 -23 -33 10 -26 42 -21 54 15 31 23 -15 25
-15 26 1 5 90 8 105 17 81 5 -13 11 -15 22 -7 13 8 13 11 -2 20 -24 14 -23 29
3 29 11 0 17 5 14 10 -3 6 -2 10 4 10 5 0 12 -4 15 -8 8 -13 49 -7 54 8 3 8 0
10 -7 6 -14 -9 -71 3 -71 15 0 4 15 6 33 4 17 -3 26 -3 20 1 -19 9 -16 27 3
20 14 -5 15 -4 4 9 -10 12 -10 15 1 15 8 0 7 4 -5 13 -14 10 -15 17 -7 40 8
20 8 34 1 48 -6 11 -8 23 -5 28 3 5 -5 7 -17 4 -21 -4 -22 -3 -5 10 18 15 23
37 8 37 -5 0 -12 -7 -15 -16 -4 -9 -9 -14 -13 -11 -3 4 0 13 7 22 7 9 10 19 6
22 -4 4 -11 1 -15 -6 -6 -9 -11 -10 -15 -2 -4 6 -2 11 3 11 6 0 11 7 11 17 0
9 -3 13 -7 10 -3 -4 -17 0 -30 8 -21 14 -25 14 -38 1 -9 -8 -24 -12 -37 -8
-19 5 -20 6 -4 12 16 5 14 7 -8 18 -14 6 -26 16 -26 21 0 5 -8 12 -17 14 -14
4 -12 5 5 6 21 1 33 31 11 31 -5 0 -8 -4 -4 -10 6 -9 -45 -7 -145 5 -47 6
-189 12 -193 9z m467 -169 c3 -8 1 -15 -4 -15 -6 0 -10 7 -10 15 0 8 2 15 4
15 2 0 6 -7 10 -15z m-856 -306 c11 0 12 -2 4 -6 -15 -6 -42 14 -42 31 0 6 5
3 11 -6 5 -10 18 -18 27 -19z m722 -6 c0 -11 -20 -40 -20 -29 0 5 -7 3 -15 -4
-15 -12 -35 -6 -35 11 0 10 35 27 58 28 6 1 12 -2 12 -6z m25 -113 c-3 -5 -11
-10 -16 -10 -6 0 -7 5 -4 10 3 6 11 10 16 10 6 0 7 -4 4 -10z m-525 -570 c0
-17 -2 -19 -14 -8 -10 9 -11 15 -2 20 16 11 16 10 16 -12z m10 -65 c0 -8 -2
-15 -4 -15 -2 0 -6 7 -10 15 -3 8 -1 15 4 15 6 0 10 -7 10 -15z m12 -57 c-15
-15 -24 -6 -16 16 5 12 10 14 17 7 8 -8 8 -14 -1 -23z"/>
<path d="M6110 3374 c0 -8 5 -12 10 -9 6 3 10 10 10 16 0 5 -4 9 -10 9 -5 0
-10 -7 -10 -16z"/>
<path d="M6835 3290 c-3 -5 3 -10 15 -10 12 0 18 5 15 10 -3 6 -10 10 -15 10
-5 0 -12 -4 -15 -10z"/>
<path d="M7200 3266 c0 -2 7 -9 15 -16 9 -7 15 -8 15 -2 0 5 -7 12 -15 16 -8
3 -15 4 -15 2z"/>
<path d="M6891 3174 c0 -11 3 -14 6 -6 3 7 2 16 -1 19 -3 4 -6 -2 -5 -13z"/>
<path d="M6887 3123 c-12 -12 -7 -22 8 -17 8 4 15 10 15 15 0 11 -14 12 -23 2z"/>
<path d="M6896 2943 c5 -29 44 -77 44 -55 0 7 -4 12 -10 12 -5 0 -10 9 -10 19
0 11 -6 22 -12 24 -10 4 -10 6 0 6 7 1 10 6 7 11 -12 20 -24 9 -19 -17z"/>
<path d="M6940 2921 c0 -5 7 -12 16 -15 13 -5 14 -9 5 -20 -10 -12 -9 -14 5
-12 9 1 21 11 26 21 8 13 7 16 -1 11 -6 -4 -11 -1 -11 8 0 9 -9 16 -20 16 -11
0 -20 -4 -20 -9z"/>
<path d="M5850 2890 c0 -5 7 -10 16 -10 8 0 12 5 9 10 -3 6 -10 10 -16 10 -5
0 -9 -4 -9 -10z"/>
<path d="M6820 2859 c-11 -25 -11 -33 1 -44 12 -12 14 -8 15 30 1 25 1 45 -1
45 -1 0 -8 -14 -15 -31z"/>
<path d="M7006 2866 c7 -17 -51 -30 -76 -16 -13 7 -21 7 -25 0 -7 -12 2 -30
16 -30 6 0 7 5 3 11 -4 7 -1 10 7 7 7 -2 20 -17 29 -33 15 -27 60 -54 60 -36
0 5 -7 11 -15 15 -8 3 -15 12 -15 21 0 13 4 14 21 4 17 -9 20 -8 13 2 -4 7 -7
26 -6 41 1 15 -2 28 -8 28 -5 0 -7 -6 -4 -14z"/>
<path d="M6860 2824 c0 -3 10 -14 23 -25 20 -17 20 -19 2 -13 -18 5 -17 3 4
-15 29 -26 36 -26 38 -2 1 13 -11 27 -33 40 -19 11 -34 18 -34 15z"/>
<path d="M6790 2799 c0 -5 5 -7 10 -4 6 3 10 8 10 11 0 2 -4 4 -10 4 -5 0 -10
-5 -10 -11z"/>
<path d="M5934 2768 c1 -14 -4 -22 -12 -20 -8 1 -11 -2 -7 -8 9 -15 31 -12 45
5 10 12 10 18 0 30 -18 21 -27 19 -26 -7z"/>
<path d="M5970 2740 c0 -5 5 -10 10 -10 6 0 10 5 10 10 0 6 -4 10 -10 10 -5 0
-10 -4 -10 -10z"/>
<path d="M6840 2710 c0 -5 5 -10 11 -10 5 0 7 5 4 10 -3 6 -8 10 -11 10 -2 0
-4 -4 -4 -10z"/>
<path d="M7916 2673 c-6 -14 -5 -15 5 -6 7 7 10 15 7 18 -3 3 -9 -2 -12 -12z"/>
<path d="M7878 2633 c6 -2 18 -2 25 0 6 3 1 5 -13 5 -14 0 -19 -2 -12 -5z"/>
<path d="M6085 2600 c-3 -5 1 -10 9 -10 9 0 16 5 16 10 0 6 -4 10 -9 10 -6 0
-13 -4 -16 -10z"/>
<path d="M7860 2599 c0 -5 5 -7 10 -4 6 3 10 8 10 11 0 2 -4 4 -10 4 -5 0 -10
-5 -10 -11z"/>
<path d="M11212 2380 c0 -19 2 -27 5 -17 2 9 2 25 0 35 -3 9 -5 1 -5 -18z"/>
<path d="M7800 2330 c0 -5 4 -10 9 -10 6 0 13 5 16 10 3 6 -1 10 -9 10 -9 0
-16 -4 -16 -10z"/>
<path d="M5440 2184 c0 -40 36 -87 91 -117 53 -31 67 -34 49 -12 -7 8 -18 15
-24 15 -6 0 -20 15 -31 33 -21 35 -24 39 -60 80 l-25 28 0 -27z"/>
<path d="M5920 1770 c6 -11 12 -20 14 -20 2 0 2 9 -1 20 -3 11 -9 20 -15 20
-5 0 -4 -9 2 -20z"/>
<path d="M5965 1749 c-4 -6 -5 -12 -2 -15 2 -3 7 2 10 11 7 17 1 20 -8 4z"/>
<path d="M5970 1710 c0 -5 5 -10 10 -10 6 0 10 5 10 10 0 6 -4 10 -10 10 -5 0
-10 -4 -10 -10z"/>
<path d="M6725 1659 c-16 -6 -75 -12 -130 -15 -82 -4 -110 -9 -154 -31 -30
-15 -81 -30 -114 -34 -32 -4 -64 -12 -71 -19 -8 -9 7 -11 69 -6 44 3 143 7
220 10 155 5 164 6 185 12 13 5 13 6 0 14 -13 8 -13 10 1 10 18 0 59 41 59 58
0 14 -23 14 -65 1z"/>
<path d="M11808 1145 c-3 -3 -3 -17 0 -30 6 -36 32 -32 32 5 0 27 -17 40 -32
25z"/>
<path d="M9591 984 c0 -11 3 -14 6 -6 3 7 2 16 -1 19 -3 4 -6 -2 -5 -13z"/>
<path d="M5550 968 c0 -74 -120 -165 -250 -191 -41 -9 -120 -18 -175 -22 -55
-4 -142 -13 -194 -21 -68 -11 -133 -13 -236 -8 -103 5 -147 4 -164 -5 -18 -10
-33 -10 -71 0 -46 12 -53 11 -99 -10 -41 -20 -52 -31 -66 -68 -16 -40 -20 -44
-44 -39 -86 18 -119 21 -141 15 -14 -4 -43 -7 -65 -8 -32 -1 -47 -9 -81 -42
-39 -38 -108 -72 -173 -85 -13 -3 -32 -9 -42 -14 -9 -5 -42 -11 -73 -12 -45
-2 -58 1 -70 17 -12 17 -17 18 -40 7 -34 -15 -73 -6 -81 19 -6 19 -45 27 -45
10 0 -15 -48 -22 -199 -30 -77 -4 -144 -10 -148 -15 -4 -4 1 -14 11 -22 19
-13 19 -14 1 -34 -15 -16 -17 -25 -8 -38 8 -13 22 -16 60 -14 37 3 52 0 56
-11 5 -12 26 -15 114 -12 59 1 134 8 166 15 54 13 58 12 80 -8 26 -25 47 -14
47 23 0 20 6 21 93 21 99 1 170 10 199 25 10 5 46 9 80 9 65 -1 99 2 156 15
55 13 29 -16 -48 -53 -39 -18 -70 -37 -70 -41 0 -6 94 9 120 19 3 1 15 1 28 0
13 -1 32 6 42 15 23 21 60 5 60 -25 0 -15 6 -19 25 -18 14 1 27 10 30 19 3 9
15 21 28 27 21 11 20 11 -5 6 -63 -14 -15 37 77 81 33 16 71 37 84 47 13 10
33 18 45 18 19 0 55 11 116 37 14 6 28 9 33 6 4 -2 20 5 35 16 43 30 93 36
122 13 16 -12 49 -21 92 -25 82 -8 105 -19 107 -52 3 -52 4 -56 19 -50 7 3 26
8 40 11 42 9 82 26 82 34 0 8 98 45 148 55 50 10 125 -3 118 -21 -11 -28 63
-10 169 40 251 120 293 131 367 98 62 -27 60 -50 -10 -96 -33 -21 -62 -34 -71
-31 -50 20 -127 33 -154 28 -40 -8 -92 -38 -137 -78 -35 -32 -122 -96 -172
-128 -16 -10 -28 -24 -28 -31 0 -7 -7 -19 -15 -26 -11 -9 -12 -16 -5 -25 11
-13 60 -1 121 30 15 8 30 15 32 15 3 0 7 -19 9 -42 3 -35 0 -47 -19 -64 -35
-32 -29 -44 25 -45 71 -2 80 0 125 31 23 15 80 53 127 84 94 61 97 63 225 155
132 94 191 122 237 112 37 -9 93 -42 116 -69 21 -27 13 -48 -25 -67 -21 -10
-32 -20 -25 -22 6 -3 12 -13 12 -23 0 -10 5 -20 11 -22 8 -3 6 -10 -5 -20 -9
-9 -16 -28 -16 -42 0 -19 -7 -27 -25 -32 -21 -5 -37 -34 -18 -34 9 0 147 93
151 103 2 4 7 7 12 7 4 0 47 25 95 55 49 31 100 55 114 55 18 0 22 -3 12 -9
-11 -7 -11 -9 0 -13 10 -4 6 -9 -11 -17 -14 -7 -35 -28 -48 -47 l-22 -34 26
-10 c15 -6 34 -8 43 -6 9 3 36 8 60 11 28 3 49 12 58 25 8 11 21 20 29 20 8 0
14 4 14 9 0 10 72 55 135 84 39 18 105 25 125 12 17 -10 -14 -56 -80 -120 -95
-91 -160 -159 -160 -167 0 -4 11 -3 24 3 19 9 38 7 90 -11 36 -12 68 -26 71
-31 4 -5 15 -9 26 -9 11 0 30 -9 42 -21 14 -13 31 -19 46 -16 14 3 32 0 42 -6
14 -8 25 -5 52 16 20 15 42 27 49 27 10 0 10 -2 -1 -9 -20 -13 -5 -29 38 -41
45 -12 59 -35 31 -50 -11 -6 -20 -17 -20 -24 0 -16 59 -9 78 11 13 13 82 16
82 3 0 -3 -7 -16 -16 -28 l-15 -22 500 0 501 0 0 25 c0 26 32 51 51 39 6 -3
24 3 40 15 15 11 37 21 49 21 13 0 20 7 20 19 0 12 11 25 27 33 18 9 30 23 33
43 3 17 14 34 26 40 12 6 29 16 37 23 8 7 23 9 32 5 11 -4 16 -3 12 4 -4 6 10
15 31 21 35 11 101 66 91 76 -12 12 -277 10 -321 -3 -50 -14 -53 -19 -73 -144
-8 -48 -24 -84 -40 -91 -8 -3 -10 4 -7 19 4 21 1 23 -21 17 -14 -4 -62 -6
-107 -4 -72 3 -82 6 -90 25 l-9 22 0 -22 c-1 -13 -5 -23 -9 -23 -5 0 -18 -9
-30 -20 -17 -16 -22 -17 -22 -6 0 8 5 18 10 21 17 10 11 23 -8 18 -31 -8 -86
12 -98 35 -6 12 -14 19 -17 16 -4 -4 -13 -2 -20 4 -18 15 -85 23 -92 11 -4 -5
-2 -9 4 -9 15 0 2 -27 -16 -35 -9 -3 -20 0 -25 7 -13 21 -28 -11 -28 -64 0
-45 -1 -47 -35 -57 -41 -11 -85 5 -85 31 0 23 -45 56 -94 69 -22 6 -48 15 -56
20 -8 5 -35 19 -60 31 -25 12 -50 29 -56 37 -12 16 -34 7 -34 -14 0 -30 23
-62 65 -90 46 -31 51 -40 35 -65 -5 -8 -10 -10 -10 -4 0 16 -34 23 -54 12 -10
-5 -16 -5 -16 1 0 10 -58 35 -77 32 -7 -1 -13 3 -13 9 0 6 -5 8 -10 5 -10 -6
-103 36 -124 56 -13 12 -14 72 -4 149 6 49 18 79 45 120 42 63 166 190 187
190 7 0 42 20 77 44 35 23 105 66 155 94 81 46 194 144 194 169 0 19 -154 2
-295 -32 -38 -9 -101 -22 -139 -30 -38 -7 -74 -19 -80 -27 -18 -24 -194 -108
-226 -108 -17 0 -45 -8 -63 -17 -43 -23 -47 -23 -160 -27 -62 -3 -107 0 -121
7 -23 13 -139 13 -316 2 -58 -4 -211 -1 -340 5 -189 9 -247 15 -298 32 -71 24
-102 54 -102 102 -1 67 -76 105 -206 104 -57 0 -64 -2 -64 -20z m-1226 -454
c25 -10 0 -34 -35 -34 -27 0 -28 2 -17 20 13 21 26 24 52 14z m3886 -433 c0
-13 -9 -20 -30 -23 -41 -6 -45 2 -14 29 29 24 44 22 44 -6z"/>
<path d="M7886 625 c-3 -8 -1 -15 3 -15 5 0 11 5 13 12 3 8 6 7 10 -3 5 -13
-13 -79 -39 -139 -6 -14 -8 -29 -6 -33 7 -12 53 58 53 82 0 10 4 21 9 23 5 2
12 22 16 46 7 42 6 42 -23 42 -17 0 -32 -6 -36 -15z"/>
<path d="M9371 496 c-27 -32 -185 -86 -254 -86 -46 0 -114 -27 -101 -39 5 -6
46 -4 99 4 49 7 93 11 97 9 4 -3 8 -18 8 -34 0 -28 1 -28 32 -19 18 5 49 9 68
9 37 0 90 38 90 64 0 7 11 30 25 50 14 20 25 41 25 46 0 15 -76 12 -89 -4z"/>
<path d="M7852 404 c1 -9 9 -19 16 -22 9 -3 13 2 10 14 -1 9 -9 19 -16 22 -9
3 -13 -2 -10 -14z"/>
<path d="M9671 404 c0 -11 3 -14 6 -6 3 7 2 16 -1 19 -3 4 -6 -2 -5 -13z"/>
<path d="M9850 380 c0 -6 7 -10 15 -10 8 0 15 2 15 4 0 2 -7 6 -15 10 -8 3
-15 1 -15 -4z"/>
<path d="M7836 323 c2 -45 32 -150 44 -158 13 -8 31 30 24 49 -3 9 -11 16 -17
16 -6 0 -8 3 -4 6 3 4 -1 21 -10 38 -9 17 -18 40 -20 51 -7 37 -19 35 -17 -2z"/>
<path d="M7975 350 c-8 -13 20 -24 41 -16 20 8 9 26 -16 26 -10 0 -22 -5 -25
-10z"/>
<path d="M8284 298 c3 -29 6 -57 6 -63 0 -5 5 -3 10 5 8 15 -6 110 -17 110 -3
0 -3 -24 1 -52z"/>
<path d="M4656 322 c-3 -5 -32 -17 -65 -27 -61 -18 -82 -40 -64 -67 4 -7 7
-22 6 -33 -2 -11 0 -15 3 -8 4 8 13 9 28 3 26 -9 45 -1 126 51 31 20 46 37 43
45 -3 8 -11 14 -18 14 -7 0 -15 7 -19 15 -6 16 -32 20 -40 7z"/>
<path d="M3113 305 c-17 -19 -16 -35 0 -35 14 0 47 31 47 43 0 13 -35 6 -47
-8z"/>
<path d="M7640 305 c13 -16 50 -21 50 -6 0 10 -24 21 -47 21 -13 0 -13 -3 -3
-15z"/>
<path d="M4758 303 c7 -3 16 -2 19 1 4 3 -2 6 -13 5 -11 0 -14 -3 -6 -6z"/>
<path d="M7385 300 c-3 -5 -17 -10 -31 -10 -14 0 -23 -4 -19 -9 9 -16 46 -8
56 11 10 19 5 25 -6 8z"/>
<path d="M8340 240 c-21 -6 -22 -8 -8 -15 11 -4 24 -1 33 9 18 17 14 18 -25 6z"/>
<path d="M6266 233 c-11 -11 -6 -23 9 -23 8 0 15 4 15 9 0 13 -16 22 -24 14z"/>
<path d="M11580 156 c0 -9 5 -16 10 -16 6 0 10 4 10 9 0 6 -4 13 -10 16 -5 3
-10 -1 -10 -9z"/>
<path d="M9561 68 c-7 -25 -11 -52 -8 -60 6 -17 29 68 25 90 -2 9 -10 -4 -17
-30z"/>
<path d="M9938 70 c-7 -24 -3 -38 8 -28 3 4 4 17 2 30 l-3 23 -7 -25z"/>
<path d="M11310 15 c0 -8 4 -15 10 -15 5 0 7 7 4 15 -8 19 -14 19 -14 0z"/>
</g>
</svg>
