<?xml version="1.0" standalone="no"?>
<!DOCTYPE svg PUBLIC "-//W3C//DTD SVG 20010904//EN"
 "http://www.w3.org/TR/2001/REC-SVG-20010904/DTD/svg10.dtd">
<svg version="1.0" xmlns="http://www.w3.org/2000/svg"
 width="665.000000pt" height="450.000000pt" viewBox="0 0 665.000000 450.000000"
 preserveAspectRatio="xMidYMid meet">

<g transform="translate(0.000000,450.000000) scale(0.100000,-0.100000)"
fill="#000000" stroke="none">
<path d="M2395 4163 c3 -186 8 -426 11 -533 3 -107 6 -212 7 -232 0 -21 4 -38
9 -38 5 0 7 -4 3 -9 -3 -6 -13 -9 -23 -9 -9 0 -29 -2 -44 -5 -21 -4 -27 -1
-32 16 -3 12 -8 18 -12 14 -4 -4 -12 0 -18 7 -6 8 -32 21 -59 30 -26 9 -86 41
-134 71 -48 30 -93 55 -100 55 -7 0 -13 4 -13 8 0 5 -10 14 -22 21 -13 6 -32
17 -43 24 -58 35 -193 106 -215 112 -14 4 -45 16 -70 27 -174 76 -205 89 -257
102 -42 11 -69 12 -115 5 -128 -21 -177 -68 -253 -244 -25 -57 -30 -157 -12
-242 15 -69 73 -199 120 -268 25 -36 174 -193 258 -270 98 -92 206 -209 227
-248 11 -22 27 -46 36 -55 51 -55 67 -79 72 -113 4 -21 12 -43 18 -48 33 -27
141 -81 164 -81 48 -1 121 -25 145 -48 18 -17 35 -22 74 -22 56 0 67 -9 104
-80 16 -31 24 -65 26 -110 1 -36 14 -110 27 -165 14 -55 26 -109 26 -121 0
-11 3 -24 7 -28 17 -16 28 -106 14 -106 -7 0 -9 5 -6 10 8 14 3 13 -33 -6 -37
-18 -177 -30 -478 -39 -767 -25 -730 -28 -821 58 -86 81 -88 88 -88 268 0 105
4 161 12 170 15 18 4 36 -33 55 -24 13 -66 15 -229 13 -110 -1 -229 -3 -265
-5 -36 -1 -136 -3 -222 -3 l-158 -1 0 -655 0 -655 40 6 c27 4 40 3 40 -5 0 -8
34 -9 120 -4 70 3 120 2 120 -3 0 -5 26 -10 58 -11 31 -1 73 -4 91 -7 27 -4
39 -1 53 14 20 21 54 27 60 10 2 -6 17 -6 43 2 22 6 47 11 57 9 9 -1 19 3 23
10 6 8 9 8 14 0 11 -17 132 27 138 50 3 10 14 21 24 24 10 4 19 13 19 21 0 8
3 14 8 14 8 0 54 37 121 97 20 18 39 33 43 33 4 0 13 6 20 12 14 14 97 47 138
56 14 2 30 8 35 12 6 4 32 6 58 4 26 -2 59 1 73 6 18 7 23 7 18 -2 -5 -7 -3
-8 6 -3 10 6 148 15 255 16 11 0 45 1 75 1 30 1 105 1 165 0 61 -1 130 -2 154
-2 25 0 50 -5 56 -10 13 -11 64 -8 85 5 9 6 9 9 -1 16 -11 7 -11 9 2 9 18 0
62 63 101 145 13 28 36 69 51 93 29 45 28 48 -6 31 -16 -7 -13 -2 8 16 17 14
44 32 60 40 17 8 64 34 106 57 l76 43 -1 45 c-1 25 5 51 12 58 6 7 12 21 12
30 0 15 -2 15 -11 2 -11 -15 -9 -3 7 50 5 16 3 19 -11 13 -16 -5 -17 -2 -12
28 3 19 9 42 13 53 6 16 3 18 -27 12 l-34 -6 32 16 c26 14 32 24 37 63 8 61
10 74 21 90 6 11 4 13 -8 8 -14 -5 -15 -2 -7 19 15 39 12 54 -7 48 -11 -4 -14
-2 -8 3 15 12 70 125 70 143 0 8 5 15 10 16 23 2 45 17 50 35 4 10 12 19 19
19 8 0 16 14 20 31 9 45 8 59 -5 59 -5 0 -8 -4 -4 -9 3 -6 -4 -8 -15 -6 -11 2
-20 -1 -20 -8 0 -24 -41 56 -43 83 -1 15 -5 26 -9 24 -9 -6 -21 33 -14 44 3 5
-1 18 -9 28 -20 26 -19 39 2 23 15 -13 15 -12 4 9 -10 19 -21 26 -41 24 -3 0
-6 8 -6 18 0 15 3 17 15 7 12 -10 14 -9 8 8 -6 17 -5 17 11 -3 17 -22 18 -22
19 -2 1 11 -6 24 -16 29 -10 6 -17 20 -16 33 1 13 -5 32 -14 42 -16 19 -15 19
12 1 36 -23 34 -4 -4 40 -17 19 -28 35 -23 35 4 0 -1 10 -12 22 -11 12 4 5 35
-17 l54 -37 -22 30 c-26 36 -27 49 -3 31 15 -13 16 -12 3 3 -7 10 -17 15 -22
12 -5 -3 -10 0 -10 5 -1 6 -2 15 -3 20 0 5 -5 13 -10 18 -6 5 -6 2 -1 -7 5
-10 1 -8 -13 4 -25 21 -31 36 -7 16 9 -8 15 -9 15 -2 0 6 -4 14 -10 17 -5 3
-10 11 -10 16 0 6 7 3 16 -5 25 -26 27 -18 4 15 -12 16 -19 33 -16 36 3 3 0
13 -7 21 -9 13 -9 14 1 8 15 -9 16 6 0 22 -9 9 -9 12 3 12 8 0 20 -12 26 -27
l12 -28 -4 29 c-2 16 -14 40 -27 54 l-23 26 29 -18 29 -18 -29 38 c-16 21 -23
34 -15 29 11 -6 13 -4 7 10 -5 15 -4 16 9 5 11 -9 19 -10 26 -3 8 8 7 13 0 17
-6 4 -11 12 -11 18 0 7 4 7 13 0 10 -8 13 -6 14 9 1 12 -3 17 -9 13 -7 -4 -8
-2 -4 5 6 9 11 9 24 -1 13 -11 15 -10 9 4 -3 10 -2 20 4 24 6 3 9 16 8 27 -3
46 -1 51 19 36 13 -10 12 -8 -3 10 -11 14 -14 21 -6 16 10 -6 12 -3 7 13 -5
15 -2 20 11 18 18 -1 24 19 12 44 -4 9 3 24 17 38 13 12 24 19 24 15 0 -10 20
19 20 30 0 4 -13 7 -30 7 -16 0 -30 3 -30 8 0 9 85 48 125 57 16 4 48 15 71
26 24 10 60 22 81 25 66 11 77 13 98 18 11 2 20 5 20 6 0 2 59 6 214 15 96 5
132 4 127 -4 -4 -6 -19 -11 -34 -11 -33 0 -45 -8 -62 -40 -12 -23 -12 -24 3
-11 18 14 22 7 18 -28 -2 -7 2 -10 7 -7 6 3 20 -5 33 -18 18 -19 27 -22 37
-14 7 6 12 7 11 2 -1 -5 -1 -18 0 -29 1 -15 3 -17 10 -6 11 18 65 6 54 -12 -4
-8 -1 -7 10 2 20 16 21 12 7 -23 -13 -34 -5 -33 14 2 11 19 15 22 16 10 0 -15
4 -16 25 -6 13 6 22 15 18 21 -4 6 -1 7 6 3 9 -6 8 -13 -6 -29 -10 -11 -12
-17 -5 -13 14 8 17 -10 2 -19 -5 -3 -10 -11 -10 -18 0 -8 3 -8 11 0 6 6 18 9
25 6 8 -3 14 1 14 8 0 20 31 -28 33 -50 1 -11 5 -17 9 -15 5 3 6 10 3 15 -3 5
1 6 10 3 12 -5 13 -9 4 -20 -10 -12 -8 -13 6 -8 13 5 16 4 11 -5 -6 -9 2 -8
22 3 25 13 30 13 28 1 -1 -8 -9 -22 -18 -32 -8 -10 -13 -24 -11 -30 3 -7 -1
-13 -8 -13 -7 0 -9 -3 -6 -6 4 -4 23 6 44 22 21 16 31 20 23 9 -14 -17 -13
-18 15 -11 l30 7 -35 -31 c-19 -18 -28 -27 -19 -21 9 7 21 11 25 10 28 -5 43
2 38 19 -5 14 -4 14 4 2 6 -8 8 -18 6 -22 -3 -4 0 -8 6 -8 6 0 8 -4 5 -10 -3
-5 -11 -10 -16 -10 -6 0 -7 4 -4 10 3 6 -1 7 -10 3 -13 -5 -14 -7 -3 -14 7 -5
21 -9 31 -9 9 0 17 -4 17 -9 0 -5 -8 -12 -17 -14 -10 -3 -5 -5 12 -6 23 -1 27
-3 15 -11 -8 -5 -10 -10 -3 -10 15 0 10 -29 -8 -42 -10 -7 -4 -8 21 -4 33 5
34 5 11 -8 l-24 -13 22 -15 c11 -8 18 -18 14 -21 -3 -4 -1 -7 7 -7 10 0 10 -3
0 -16 -11 -12 -10 -18 4 -32 14 -14 20 -15 37 -4 12 8 24 11 27 8 3 -3 0 -6
-6 -6 -15 0 -16 -29 -2 -31 6 -1 15 -3 20 -4 6 -1 18 -3 27 -4 18 -1 10 -14
-12 -17 -35 -5 -85 -26 -80 -34 3 -5 -11 -18 -32 -30 -34 -18 -35 -19 -9 -14
19 5 27 3 22 -4 -7 -11 31 -28 41 -18 4 3 -2 6 -13 7 -16 0 -15 2 5 10 13 5
26 7 29 4 3 -3 0 -5 -7 -5 -7 0 -10 -4 -7 -9 8 -12 -24 -37 -56 -45 -14 -3
-34 -9 -44 -13 -12 -5 -15 -3 -9 6 6 10 3 11 -14 2 -11 -7 -21 -14 -21 -17 0
-3 6 -2 13 2 6 4 4 -2 -6 -13 -10 -11 -19 -34 -20 -51 -1 -23 -5 -28 -15 -20
-9 8 -11 7 -6 -6 3 -9 10 -16 15 -16 4 0 6 -8 2 -17 -6 -16 -4 -16 15 1 26 23
28 28 5 19 -14 -6 -14 -3 3 25 10 18 22 32 27 32 5 0 3 -7 -4 -16 -11 -14 -11
-18 5 -29 16 -12 16 -14 -3 -20 -13 -4 -19 -11 -15 -18 4 -7 4 -9 -1 -5 -4 4
-15 -1 -25 -11 -10 -12 -21 -17 -29 -12 -9 6 -10 11 -2 15 6 4 11 12 11 17 0
6 -4 7 -10 4 -5 -3 -7 0 -4 8 3 8 1 18 -5 22 -6 3 -11 0 -12 -7 0 -7 -4 -4 -8
7 -7 16 -10 11 -16 -27 -4 -25 -4 -57 0 -70 8 -23 7 -23 -13 -5 -20 18 -20 18
-15 -4 4 -14 2 -20 -5 -16 -9 6 -10 -12 -2 -33 1 -3 2 -8 1 -12 0 -5 4 -8 10
-8 8 0 7 -5 -1 -15 -11 -13 -10 -14 2 -10 8 3 21 -2 29 -11 12 -15 12 -16 0
-10 -9 6 -12 5 -10 -3 3 -7 8 -12 13 -11 4 1 14 -7 21 -17 19 -26 29 -10 32
53 2 42 10 66 33 99 17 24 34 46 38 49 4 2 7 -30 7 -72 0 -102 23 -151 80
-168 40 -12 39 -12 -25 -9 -36 2 -82 10 -103 18 -20 9 -39 12 -42 7 -3 -5 7
-12 22 -16 15 -3 42 -10 58 -15 27 -9 107 -20 160 -23 16 -1 20 -8 20 -38 0
-21 5 -40 11 -42 7 -3 10 3 7 15 -3 11 0 19 7 19 6 0 10 -6 7 -12 -2 -7 7 -25
21 -40 14 -16 20 -28 14 -28 -7 0 -15 6 -18 13 -3 8 -10 14 -17 15 -7 1 -24 4
-39 8 -17 4 -28 2 -28 -4 0 -8 34 -23 62 -26 3 -1 9 -4 13 -8 4 -4 -11 -5 -34
-4 -22 2 -38 -1 -35 -5 9 -15 -13 -10 -26 6 -11 13 -10 14 2 10 10 -4 14 3 15
30 1 19 -3 35 -9 35 -5 0 -6 -5 -2 -12 4 -7 3 -8 -5 -4 -6 4 -9 11 -6 16 3 4
-2 13 -10 20 -8 7 -15 9 -16 4 0 -5 -4 0 -9 11 -8 17 -9 16 -7 -7 2 -15 7 -31
12 -35 4 -4 5 -3 1 4 -3 6 -2 14 4 18 5 3 10 -3 10 -14 0 -11 5 -23 10 -26 6
-3 10 -11 10 -17 0 -5 -15 3 -34 19 -18 15 -31 31 -29 35 2 4 -4 5 -13 1 -10
-4 -20 0 -26 11 -5 9 -13 14 -19 11 -5 -4 -9 -1 -9 4 0 6 -5 11 -10 11 -6 0
-5 -8 2 -20 7 -10 14 -17 17 -15 2 3 16 -12 31 -32 15 -20 54 -51 86 -68 51
-28 59 -36 57 -59 -2 -26 12 -37 19 -15 2 7 9 5 17 -5 12 -14 11 -16 -5 -9
-17 6 -17 5 -5 -10 12 -15 12 -17 -4 -11 -16 6 -16 5 -4 -17 7 -13 12 -28 11
-32 -1 -5 1 -6 6 -3 5 3 20 -6 32 -19 16 -17 19 -25 9 -25 -7 0 2 -9 21 -19
19 -11 34 -24 32 -31 -1 -6 2 -9 8 -5 5 3 18 1 27 -4 10 -6 12 -11 6 -11 -20
0 -15 -18 7 -25 11 -4 18 -10 15 -15 -3 -5 -13 -7 -23 -4 -9 3 2 -6 26 -21 23
-14 42 -28 42 -31 0 -3 -4 -2 -10 1 -5 3 -10 2 -10 -3 0 -15 47 -34 69 -27 14
4 23 1 27 -9 3 -9 10 -16 16 -16 5 0 7 4 4 9 -3 5 1 11 9 15 20 7 19 26 -2 43
-16 13 -16 13 5 3 20 -10 24 -9 29 9 3 12 9 21 13 21 11 0 40 122 40 167 0 51
16 77 25 42 9 -35 -1 -196 -14 -247 -6 -22 -15 -60 -20 -85 -8 -45 -8 -45 31
-67 82 -46 199 -183 198 -232 -1 -7 -12 11 -26 40 -14 28 -32 52 -40 52 -9 0
-13 4 -9 9 10 17 -134 141 -164 141 -27 0 10 -92 44 -109 11 -5 15 -10 8 -10
-6 -1 6 -30 28 -66 21 -35 39 -70 39 -76 0 -7 22 -58 48 -113 64 -134 77 -163
92 -211 11 -36 24 -71 50 -130 5 -11 12 -58 15 -105 3 -47 10 -98 15 -115 5
-16 11 -55 15 -85 3 -30 13 -104 22 -165 19 -136 13 -306 -17 -419 -11 -44
-20 -94 -20 -113 l0 -33 910 0 910 0 0 1935 0 1935 -22 0 c-12 0 -78 -7 -145
-16 -121 -15 -125 -15 -167 5 -61 28 -85 69 -75 129 4 26 7 152 8 280 l2 232
-635 0 c-554 0 -635 -2 -640 -15 -4 -10 1 -15 15 -15 11 0 22 -8 26 -17 3 -10
22 -38 41 -62 33 -41 34 -43 11 -36 -13 4 -27 13 -31 19 -22 37 -110 108 -143
115 -11 2 -579 6 -1262 8 l-1242 3 4 -337z m2465 277 c0 -5 -5 -10 -11 -10 -5
0 -7 5 -4 10 3 6 8 10 11 10 2 0 4 -4 4 -10z m-167 -7 c-8 -3 -11 -15 -8 -31
5 -26 5 -26 -5 -4 -11 26 -6 42 13 41 9 0 9 -2 0 -6z m-90 -111 c-4 -12 0 -10
11 5 12 15 24 21 45 18 24 -3 30 0 35 21 9 34 23 30 23 -6 0 -16 -4 -30 -9
-30 -5 0 -6 -9 -3 -21 7 -22 -18 -59 -40 -59 -14 0 -29 29 -20 38 3 3 5 -1 6
-9 0 -8 5 -1 10 15 11 39 6 43 -22 17 -13 -12 -30 -19 -37 -16 -10 4 -13 0 -9
-15 4 -17 1 -19 -19 -16 -33 6 -44 15 -43 34 0 16 1 16 7 0 5 -13 11 -15 22
-8 8 5 10 10 4 10 -8 0 -6 14 4 44 16 43 16 44 29 20 6 -14 10 -32 6 -42z
m-73 24 c0 -8 -4 -17 -9 -21 -6 -3 -9 4 -8 15 1 23 17 28 17 6z m-180 -26 c0
-5 -4 -10 -10 -10 -5 0 -10 5 -10 10 0 6 5 10 10 10 6 0 10 -4 10 -10z m400
-24 c0 -3 -4 -8 -10 -11 -5 -3 -10 -1 -10 4 0 6 5 11 10 11 6 0 10 -2 10 -4z
m-283 -38 c-3 -8 -6 -5 -6 6 -1 11 2 17 5 13 3 -3 4 -12 1 -19z m640 0 c-3 -8
-6 -5 -6 6 -1 11 2 17 5 13 3 -3 4 -12 1 -19z m-477 -3 c0 -11 -26 -61 -35
-67 -5 -5 5 -5 23 -2 21 4 32 3 32 -5 0 -6 -3 -10 -7 -10 -19 3 -33 -2 -33
-11 0 -22 65 -1 68 23 1 4 15 19 32 33 38 33 40 11 3 -29 -19 -19 -22 -26 -10
-22 13 6 16 3 11 -9 -3 -9 -1 -23 6 -31 10 -12 9 -15 -5 -15 -10 0 -15 -6 -13
-17 3 -13 12 -17 32 -16 23 2 27 -1 23 -17 -3 -13 0 -20 9 -20 16 0 36 -34 26
-45 -7 -8 20 -3 53 11 18 7 17 4 -5 -23 -23 -29 -59 -55 -45 -33 10 16 -8 11
-33 -10 -21 -18 -22 -21 -9 -35 9 -8 23 -15 32 -15 13 0 16 -7 13 -30 -5 -33
3 -38 22 -15 7 8 17 15 22 15 6 0 -6 -16 -25 -35 -23 -23 -33 -41 -30 -54 3
-13 -2 -23 -17 -31 -17 -9 -19 -14 -9 -26 9 -11 8 -14 -2 -14 -12 0 -12 -2 0
-9 12 -8 12 -12 -2 -26 -10 -9 -17 -19 -17 -23 0 -3 5 -1 12 6 15 15 32 16 23
2 -13 -21 15 -40 41 -29 31 11 34 11 34 0 0 -5 -15 -16 -32 -25 -30 -14 -31
-16 -9 -16 14 0 33 7 42 16 10 9 33 18 50 20 32 4 32 4 13 -17 -18 -20 -18
-20 11 -13 29 7 30 7 13 -13 -10 -11 -18 -27 -18 -36 0 -9 -5 -19 -11 -22 -6
-4 -8 -13 -5 -21 9 -23 -23 -113 -53 -147 -15 -17 -33 -48 -40 -69 -11 -32 -9
-42 14 -89 19 -40 22 -55 13 -60 -7 -5 -16 -3 -20 4 -4 7 -8 -5 -8 -26 0 -21
4 -36 9 -33 5 3 11 -1 15 -9 4 -12 -4 -15 -45 -15 -40 0 -54 5 -69 22 -14 18
-21 20 -32 10 -8 -6 -25 -13 -39 -15 -14 -2 -24 -11 -24 -20 0 -22 -13 -31
-65 -47 -25 -7 -55 -19 -67 -27 -19 -11 -22 -11 -17 2 4 8 1 15 -6 15 -7 0 -4
13 9 34 12 19 20 40 19 47 -2 7 7 18 20 24 25 11 29 37 9 53 -10 9 -19 8 -34
-3 -15 -11 -22 -12 -25 -3 -2 6 -15 -3 -27 -21 -27 -38 -20 -55 8 -20 20 24
20 24 14 2 -3 -15 -1 -23 8 -23 9 0 8 -5 -4 -17 -22 -22 -85 -24 -92 -3 -7 25
12 93 30 103 9 5 15 18 14 30 -2 35 1 43 11 27 8 -12 10 -11 10 7 0 12 -8 27
-18 32 -24 13 -80 93 -75 109 3 6 0 12 -6 12 -6 0 -12 -6 -12 -12 -6 -52 -3
-71 9 -75 11 -5 11 -7 0 -14 -7 -5 -13 -23 -13 -40 0 -34 -33 -66 -42 -41 -3
6 -9 9 -15 6 -5 -3 -8 2 -6 12 5 27 -27 29 -40 2 l-12 -23 6 23 c4 16 1 22
-12 22 -14 0 -14 3 -4 15 11 13 10 18 -9 32 -30 21 -12 33 51 33 45 0 46 0 35
24 -7 14 -14 20 -17 15 -3 -5 -21 -12 -40 -15 -24 -5 -31 -4 -26 4 4 7 1 12
-6 12 -22 0 14 20 38 20 11 0 29 7 40 16 18 15 18 15 -9 11 -35 -5 -45 9 -12
17 25 6 35 26 13 26 -9 0 -9 3 0 12 15 15 -3 38 -29 38 -11 0 -19 5 -19 10 0
6 12 10 28 10 25 1 26 1 8 15 -12 9 -30 12 -50 8 -28 -6 -30 -5 -17 10 7 9 24
17 36 17 26 0 41 28 25 44 -7 7 -16 7 -28 0 -18 -12 -42 -8 -42 7 0 5 9 9 20
9 25 0 27 17 3 22 -12 3 -2 11 30 25 49 23 62 35 27 26 -11 -3 -20 0 -20 6 0
10 14 15 33 12 4 0 7 4 7 10 0 7 8 18 18 25 10 8 12 13 5 14 -27 0 -11 30 30
58 23 16 41 34 39 40 -1 7 2 12 7 12 16 0 76 59 68 66 -4 4 -15 0 -25 -9 -10
-10 -32 -17 -48 -18 -25 -1 -26 -2 -7 -7 20 -6 18 -9 -19 -24 -41 -18 -41 -18
-23 2 13 15 14 20 5 20 -9 0 -7 5 5 14 11 8 23 12 27 10 5 -3 8 2 8 10 0 10 6
13 18 9 15 -6 15 -5 3 10 -10 13 -17 14 -26 7 -7 -6 -23 -13 -35 -15 -29 -6
-51 -25 -44 -37 4 -6 -10 -25 -30 -44 -31 -29 -51 -65 -27 -50 4 3 -9 -30 -31
-74 -21 -44 -43 -82 -47 -84 -5 -3 -11 13 -14 37 -3 23 -2 44 4 45 5 2 9 17 9
33 0 16 4 29 8 29 5 0 17 7 28 16 16 13 16 15 2 10 -10 -3 -20 -1 -23 4 -4 6
-1 10 5 10 6 0 9 4 5 10 -3 5 3 18 15 30 11 11 20 28 20 39 0 10 11 30 25 45
14 15 25 32 25 38 0 5 7 8 15 4 8 -3 15 -1 15 4 0 6 -5 10 -11 10 -5 0 -7 5
-4 10 4 6 11 8 16 5 5 -4 9 1 9 9 0 9 -4 16 -10 16 -18 0 -10 18 10 23 11 3
24 17 30 31 5 14 14 26 20 26 5 0 10 8 10 18 0 13 7 18 23 17 28 -3 48 5 42
15 -3 5 4 6 14 3 13 -3 21 1 24 14 3 12 5 10 6 -9 0 -14 -4 -28 -10 -30 -7 -2
-10 -11 -7 -18 3 -11 10 -6 21 15 9 17 16 23 17 15 0 -8 10 0 21 18 21 32 39
42 39 21 0 -5 4 -8 9 -4 5 3 12 1 16 -5 3 -5 1 -10 -5 -10 -6 0 -8 -5 -5 -11
8 -13 42 15 50 42 6 16 25 28 25 14z m164 -120 c-4 -9 -16 -21 -28 -27 -19
-10 -19 -9 3 16 28 30 33 32 25 11z m-844 -359 c0 -17 -5 -24 -17 -22 -10 2
-19 10 -21 19 -4 20 14 23 21 5 3 -8 6 -6 6 5 1 26 11 20 11 -7z m1146 -18
c-12 -40 -17 -50 -22 -46 -5 6 13 58 20 58 3 0 4 -6 2 -12z m-1263 -53 c4 -8
2 -17 -2 -20 -5 -2 -11 4 -14 15 -6 23 8 27 16 5z m-2286 -57 c-3 -8 -6 -5 -6
6 -1 11 2 17 5 13 3 -3 4 -12 1 -19z m91 -23 c33 -36 43 -57 18 -36 -7 6 -20
9 -28 6 -8 -3 -23 3 -33 15 -10 11 -13 20 -7 20 6 0 9 7 6 15 -10 26 10 16 44
-20z m2089 3 c2 -22 -4 -23 -23 -4 -19 19 -18 25 4 23 10 0 19 -9 19 -19z m53
-20 c0 -11 -28 -10 -35 1 -3 6 4 9 15 8 11 -1 20 -5 20 -9z m-152 -23 c-3 -3
-9 2 -12 12 -6 14 -5 15 5 6 7 -7 10 -15 7 -18z m-2033 5 c3 -6 -1 -7 -9 -4
-18 7 -21 14 -7 14 6 0 13 -4 16 -10z m2585 0 c0 -5 -5 -10 -11 -10 -5 0 -7 5
-4 10 3 6 8 10 11 10 2 0 4 -4 4 -10z m-2400 -37 c0 -8 4 -12 9 -9 5 3 11 -3
14 -14 3 -11 2 -20 -1 -20 -11 1 -47 30 -37 30 5 0 4 5 -3 12 -17 17 -15 29 3
22 8 -4 15 -13 15 -21z m60 -58 c0 -5 -5 -3 -10 5 -5 8 -10 20 -10 25 0 6 5 3
10 -5 5 -8 10 -19 10 -25z m2007 29 c-3 -3 -12 -4 -19 -1 -8 3 -5 6 6 6 11 1
17 -2 13 -5z m-1793 -40 c3 -8 2 -12 -4 -9 -6 3 -10 10 -10 16 0 14 7 11 14
-7z m1865 -8 c-15 -13 -49 -25 -49 -17 0 5 8 12 18 14 24 6 36 8 31 3z m56
-36 c13 -6 15 -9 5 -9 -8 0 -22 4 -30 9 -18 12 -2 12 25 0z m-139 -21 c3 -5
11 -6 17 -2 7 4 6 -1 -2 -11 -8 -9 -17 -13 -20 -9 -3 5 -17 13 -31 19 l-25 11
28 0 c15 0 30 -4 33 -8z m144 -21 c11 -12 18 -23 16 -26 -9 -8 -95 -12 -100
-4 -9 14 24 52 44 52 11 0 28 -10 40 -22z m-2440 -69 c3 -3 23 -9 45 -12 22
-4 57 -15 77 -26 43 -21 109 -77 102 -84 -8 -8 20 -47 33 -47 7 0 13 -3 13 -8
0 -4 19 -15 41 -25 23 -10 56 -33 74 -50 18 -18 42 -39 54 -48 13 -10 23 -31
26 -54 3 -21 9 -43 13 -49 4 -6 7 -46 7 -89 -1 -76 -1 -78 32 -103 41 -31 42
-41 3 -41 -16 0 -30 5 -30 11 0 6 -3 7 -10 0 -16 -16 0 -52 26 -58 29 -8 31
-29 3 -55 -13 -12 -17 -21 -10 -26 17 -10 13 -53 -6 -63 -10 -5 -44 -7 -76 -6
-38 2 -67 -2 -80 -11 -12 -7 -44 -21 -71 -30 -45 -15 -51 -16 -61 -1 -6 8 -10
28 -7 44 3 23 8 29 23 25 18 -5 18 -4 2 40 -14 38 -25 50 -68 71 -27 14 -55
26 -61 26 -20 0 -214 182 -214 201 0 31 103 12 151 -28 14 -11 18 -11 28 0 12
15 12 67 -1 67 -4 0 -5 7 -2 15 4 10 0 15 -12 15 -28 1 -76 44 -72 65 2 11 -8
23 -27 34 -16 9 -30 23 -30 31 0 11 -10 15 -35 13 -21 -1 -26 1 -11 4 20 4 22
9 17 35 -3 17 -13 36 -21 42 -8 6 -17 28 -20 49 -4 32 -2 37 14 37 11 0 23 5
26 10 3 6 -1 10 -9 10 -9 0 -16 7 -16 15 0 8 7 15 16 15 9 0 12 5 8 12 -5 7
-2 9 9 5 11 -4 14 -2 10 9 -6 17 8 19 25 2 6 -6 15 -8 19 -4 5 4 0 13 -10 20
-9 7 -17 16 -17 19 0 6 73 -15 80 -24z m2453 13 c-4 -9 -11 -20 -17 -24 -6 -4
3 -6 21 -4 30 4 31 3 30 -29 -2 -31 -17 -40 -17 -10 0 7 -12 15 -27 17 -16 2
-27 8 -25 16 2 11 -10 16 -30 13 -3 0 -5 7 -3 17 2 9 4 17 4 17 1 0 17 1 35 2
29 1 34 -1 29 -15z m-2583 -32 c0 -5 -2 -10 -4 -10 -3 0 -8 5 -11 10 -3 6 -1
10 4 10 6 0 11 -4 11 -10z m2663 -37 c-7 -2 -19 -2 -25 0 -7 3 -2 5 12 5 14 0
19 -2 13 -5z m42 -31 c-3 -3 -11 0 -18 7 -9 10 -8 11 6 5 10 -3 15 -9 12 -12z
m-60 -52 c3 -6 -1 -7 -9 -4 -18 7 -21 14 -7 14 6 0 13 -4 16 -10z m-60 -110
c3 -5 1 -10 -4 -10 -6 0 -11 5 -11 10 0 6 2 10 4 10 3 0 8 -4 11 -10z m408
-100 c8 -12 20 -20 27 -18 31 7 56 -91 28 -108 -9 -6 -48 23 -46 35 2 9 -14
44 -27 61 -14 17 -16 50 -4 50 4 0 14 -9 22 -20z m-224 -27 c2 -2 -3 -3 -11
-3 -9 0 -19 7 -22 16 -6 15 -4 15 11 3 10 -7 20 -15 22 -16z m451 -3 c0 -5 -7
-10 -15 -10 -8 0 -15 5 -15 10 0 6 7 10 15 10 8 0 15 -4 15 -10z m30 -14 c0
-3 -4 -8 -10 -11 -5 -3 -10 -1 -10 4 0 6 5 11 10 11 6 0 10 -2 10 -4z m-2095
-96 c3 -6 -1 -7 -9 -4 -18 7 -21 14 -7 14 6 0 13 -4 16 -10z m1592 -21 c12 1
24 -3 28 -8 3 -5 -5 -7 -17 -4 -19 4 -21 3 -8 -7 13 -10 12 -11 -5 -5 -37 13
-119 14 -134 2 -12 -10 -13 -9 -6 2 5 9 -5 5 -22 -7 -17 -12 -36 -22 -42 -22
-34 0 17 47 57 53 19 3 36 8 38 10 3 2 24 0 47 -5 23 -5 52 -9 64 -9z m-1612
1 c8 -13 -5 -13 -25 0 -13 8 -13 10 2 10 9 0 20 -4 23 -10z m29 -12 c-5 -8 -2
-9 9 -5 9 3 19 1 23 -5 4 -7 3 -8 -4 -4 -7 4 -12 2 -12 -5 0 -8 -4 -8 -15 1
-13 11 -12 30 1 30 3 0 2 -5 -2 -12z m1350 -44 c3 -8 2 -12 -4 -9 -6 3 -10 10
-10 16 0 14 7 11 14 -7z m-1323 -11 c13 -16 12 -17 -3 -4 -17 13 -22 21 -14
21 2 0 10 -8 17 -17z m1994 -83 c7 -12 -2 -12 -30 0 -19 8 -19 9 2 9 12 1 25
-3 28 -9z m-506 -42 c11 -29 6 -37 -19 -31 -22 6 -43 36 -33 47 14 14 44 5 52
-16z m142 -32 c1 -17 2 -18 6 -3 2 9 13 17 24 17 10 0 19 5 19 12 0 6 3 8 6 5
4 -4 1 -13 -5 -21 -9 -11 -9 -16 0 -21 8 -6 7 -10 -2 -16 -10 -6 -11 -9 -1 -9
6 0 12 -5 12 -11 0 -5 -4 -7 -10 -4 -5 3 -10 2 -10 -4 0 -5 8 -12 18 -14 12
-3 11 -5 -6 -6 -13 0 -21 -5 -17 -11 8 -13 -21 -80 -36 -80 -6 0 -9 -7 -6 -14
4 -11 1 -13 -11 -8 -16 6 -16 4 1 -21 14 -21 14 -25 2 -21 -10 4 -15 0 -15
-11 0 -12 -5 -15 -22 -9 -28 8 -33 12 -25 20 4 4 13 1 22 -6 13 -11 14 -10 9
5 -5 13 -4 16 4 11 7 -4 12 -1 12 8 0 20 -2 20 -46 1 -19 -8 -32 -10 -29 -5 3
6 0 10 -7 10 -23 1 14 18 47 22 39 4 50 15 69 72 18 53 21 86 6 86 -5 0 -7 -7
-4 -15 7 -17 -15 -55 -54 -97 -35 -38 -50 -35 -18 3 31 36 40 66 40 137 1 44
3 50 14 35 6 -9 13 -26 13 -37z m-204 18 c-3 -4 -17 -8 -31 -9 -28 -3 -26 21
2 28 19 4 39 -9 29 -19z m163 6 c6 -11 8 -20 6 -20 -3 0 -10 9 -16 20 -6 11
-8 20 -6 20 3 0 10 -9 16 -20z m-367 -57 c-4 -15 -6 -36 -4 -47 1 -10 -2 -15
-7 -12 -6 3 -9 20 -7 36 3 18 -1 30 -7 30 -7 0 -3 7 8 16 10 8 13 13 7 9 -9
-4 -11 -1 -6 11 10 28 25 -10 16 -43z m-1171 23 c3 2 8 -2 11 -10 4 -11 1 -13
-11 -9 -15 6 -15 4 -4 -10 17 -20 45 -110 32 -102 -6 4 -10 14 -10 23 0 9 -12
29 -27 46 -16 17 -20 24 -10 17 21 -16 23 1 2 19 -8 7 -15 19 -15 27 0 12 3
13 13 4 8 -6 16 -8 19 -5z m-356 -69 c-11 -7 -35 -25 -55 -42 -27 -22 -31 -24
-16 -6 19 22 74 62 85 60 3 0 -4 -6 -14 -12z m174 -71 c0 4 7 0 16 -7 15 -12
16 -11 10 9 -7 21 -6 22 13 10 11 -7 16 -15 10 -18 -10 -7 -2 -40 10 -40 4 0
7 -9 7 -19 0 -18 -2 -18 -16 -6 -30 29 -75 62 -93 68 -10 4 -15 12 -12 17 5 8
15 6 31 -5 13 -8 24 -13 24 -9z m-78 -13 c-12 -2 -20 -9 -17 -14 3 -5 -1 -6
-10 -2 -13 5 -14 7 -3 14 7 5 22 8 33 7 17 -1 17 -1 -3 -5z m-201 -26 c-10 -9
-11 -8 -5 6 3 10 9 15 12 12 3 -3 0 -11 -7 -18z m516 -9 c-3 -8 -6 -5 -6 6 -1
11 2 17 5 13 3 -3 4 -12 1 -19z m1549 -60 c5 4 2 -1 -6 -12 -9 -11 -16 -14
-18 -7 -3 9 -7 9 -18 0 -15 -13 -17 -9 -8 15 4 12 11 13 24 6 9 -5 21 -6 26
-2z m-1696 -27 c13 -2 41 -64 41 -89 -3 -81 -10 -77 -36 17 -10 39 -22 67 -25
62 -3 -5 -16 -12 -28 -16 -22 -6 -23 -5 -13 14 8 14 19 19 34 17 12 -3 24 -5
27 -5z m1639 -14 c8 -10 7 -14 -2 -14 -8 0 -14 6 -14 14 0 7 1 13 2 13 2 0 8
-6 14 -13z m145 -32 c-4 -8 -8 -15 -10 -15 -2 0 -4 7 -4 15 0 8 4 15 10 15 5
0 7 -7 4 -15z m36 2 c0 -2 -9 -12 -20 -22 -24 -21 -27 -14 -4 9 15 15 24 20
24 13z m-290 -27 c0 -5 -2 -10 -4 -10 -3 0 -8 5 -11 10 -3 6 -1 10 4 10 6 0
11 -4 11 -10z m30 0 c0 -5 -2 -10 -4 -10 -3 0 -8 5 -11 10 -3 6 -1 10 4 10 6
0 11 -4 11 -10z m-1781 -63 c1 -5 -3 -5 -9 -2 -5 3 -10 16 -9 28 0 21 1 21 9
2 5 -11 9 -24 9 -28z m1984 -244 c-7 -2 -19 -2 -25 0 -7 3 -2 5 12 5 14 0 19
-2 13 -5z m62 -13 c13 -5 14 -9 5 -9 -8 0 -24 4 -35 9 -13 5 -14 9 -5 9 8 0
24 -4 35 -9z m225 -300 c20 -6 21 -8 5 -8 -11 0 -29 3 -40 8 -25 11 1 11 35 0z"/>
<path d="M4510 4145 c-10 -12 -10 -15 3 -15 8 0 17 7 21 15 3 8 2 15 -3 15 -5
0 -14 -7 -21 -15z"/>
<path d="M4510 4107 c-8 -6 -22 -21 -30 -32 -14 -19 -14 -19 5 -5 11 8 23 19
27 24 4 6 13 4 22 -3 10 -9 16 -10 16 -3 0 6 6 9 14 6 8 -3 17 -1 21 5 3 6 0
11 -7 11 -7 0 -22 2 -33 5 -11 3 -27 -1 -35 -8z"/>
<path d="M4605 4079 c-4 -6 -5 -13 -2 -16 7 -7 27 6 27 18 0 12 -17 12 -25 -2z"/>
<path d="M4515 4060 c-3 -5 1 -10 10 -10 9 0 13 5 10 10 -3 6 -8 10 -10 10 -2
0 -7 -4 -10 -10z"/>
<path d="M4670 4054 c0 -8 5 -12 10 -9 6 4 8 11 5 16 -9 14 -15 11 -15 -7z"/>
<path d="M4571 4046 c-9 -10 -9 -16 -1 -21 17 -10 37 12 24 25 -8 8 -15 6 -23
-4z"/>
<path d="M4530 4010 c0 -5 5 -10 10 -10 6 0 10 5 10 10 0 6 -4 10 -10 10 -5 0
-10 -4 -10 -10z"/>
<path d="M4745 3980 c-3 -6 1 -7 9 -4 18 7 21 14 7 14 -6 0 -13 -4 -16 -10z"/>
<path d="M4620 3409 c0 -5 5 -9 11 -9 5 0 7 -6 3 -12 -5 -8 -1 -8 12 2 10 8
20 15 22 16 2 1 -9 4 -23 6 -14 3 -25 1 -25 -3z"/>
<path d="M4229 3298 c-1 -2 -3 -16 -5 -33 -2 -21 0 -25 6 -15 5 8 6 18 4 22
-3 4 0 8 5 8 6 0 11 5 11 10 0 9 -18 15 -21 8z"/>
<path d="M4636 3127 c3 -10 9 -15 12 -12 3 3 0 11 -7 18 -10 9 -11 8 -5 -6z"/>
<path d="M4660 3106 c0 -8 5 -18 10 -21 6 -3 10 3 10 14 0 12 -4 21 -10 21 -5
0 -10 -6 -10 -14z"/>
<path d="M4575 3050 c-3 -5 3 -10 14 -10 12 0 21 5 21 10 0 6 -6 10 -14 10 -8
0 -18 -4 -21 -10z"/>
<path d="M1620 2833 c1 -19 18 -33 32 -28 9 4 28 -1 42 -10 26 -17 62 -14 51
5 -15 25 -125 53 -125 33z"/>
<path d="M3676 3413 c-6 -14 -5 -15 5 -6 7 7 10 15 7 18 -3 3 -9 -2 -12 -12z"/>
<path d="M3759 3353 c-13 -17 -13 -17 6 -3 11 8 22 16 24 17 2 2 0 3 -6 3 -6
0 -17 -8 -24 -17z"/>
<path d="M3915 2930 c-3 -6 1 -7 9 -4 18 7 21 14 7 14 -6 0 -13 -4 -16 -10z"/>
<path d="M2620 2846 c0 -2 8 -10 18 -17 15 -13 16 -12 3 4 -13 16 -21 21 -21
13z"/>
<path d="M3810 2803 c0 -5 5 -15 10 -23 7 -12 9 -10 7 8 -1 19 -17 33 -17 15z"/>
<path d="M3740 2670 c0 -5 5 -10 10 -10 6 0 10 5 10 10 0 6 -4 10 -10 10 -5 0
-10 -4 -10 -10z"/>
<path d="M2720 2454 c0 -18 28 -30 40 -18 5 5 -1 14 -16 21 -19 9 -24 8 -24
-3z"/>
<path d="M4057 2354 c7 -3 9 -13 6 -22 -4 -14 -3 -14 5 -2 12 16 7 30 -11 29
-9 0 -9 -2 0 -5z"/>
<path d="M4024 2218 c-4 -7 -4 -10 1 -6 4 4 15 2 24 -5 14 -11 14 -10 2 6 -16
20 -18 21 -27 5z"/>
<path d="M3383 2203 c-23 -9 -14 -22 27 -43 26 -13 40 -27 40 -40 0 -10 5 -22
11 -25 6 -4 8 -13 5 -21 -3 -7 0 -11 7 -8 20 7 49 -19 42 -38 -10 -27 -35 -30
-44 -6 -5 14 -10 17 -15 10 -13 -21 -27 -13 -20 12 3 13 1 27 -5 30 -6 4 -11
12 -11 18 0 7 6 6 15 -2 10 -9 15 -9 15 -1 0 20 -38 50 -79 62 -24 7 -41 18
-41 27 0 15 -18 14 -130 -2 -19 -3 -48 -8 -65 -10 -16 -3 -31 -5 -32 -7 -2 -1
-6 -2 -10 -4 -28 -7 -41 -19 -36 -31 3 -8 -1 -14 -9 -14 -16 0 -48 -50 -48
-75 0 -9 -4 -14 -8 -11 -11 7 -35 -61 -27 -75 4 -5 -1 -19 -10 -29 -14 -15
-15 -22 -4 -42 7 -13 12 -24 11 -25 -8 -12 2 -23 21 -23 14 0 18 3 10 8 -8 5
2 8 24 9 25 1 32 -2 22 -8 -11 -7 -10 -9 5 -9 20 0 20 0 0 -15 -10 -8 -14 -15
-8 -15 18 0 50 -33 69 -70 9 -19 27 -42 38 -52 16 -12 21 -29 23 -67 1 -31 11
-70 26 -101 23 -45 24 -53 10 -66 -10 -11 -14 -35 -13 -85 1 -55 -2 -71 -14
-76 -9 -3 -14 -12 -11 -20 3 -7 -6 -23 -19 -35 -31 -27 -49 -86 -33 -105 8
-11 7 -12 -8 -8 -12 4 -10 1 6 -10 l25 -16 -33 5 c-23 4 -31 2 -26 -6 5 -8 2
-9 -11 -5 -14 6 -16 3 -12 -13 3 -11 1 -20 -4 -20 -5 0 -9 5 -9 10 0 11 -37 7
-98 -10 -26 -7 -31 -6 -23 4 7 9 4 12 -12 13 -12 1 -25 -3 -29 -10 -6 -9 -8
-9 -8 0 0 6 5 15 10 18 16 10 12 28 -5 21 -8 -3 -15 -1 -15 5 0 6 -5 7 -11 4
-6 -4 -8 -12 -6 -19 2 -6 -2 -24 -9 -41 -8 -18 -13 -23 -14 -12 0 9 -7 17 -15
17 -8 0 -15 -8 -15 -17 0 -15 -2 -16 -10 -3 -8 13 -10 12 -10 -3 0 -10 7 -20
16 -24 11 -4 12 -8 4 -13 -8 -5 -3 -10 14 -14 14 -3 37 -17 51 -30 14 -13 39
-29 56 -36 26 -11 33 -11 46 3 8 8 16 26 16 40 0 19 4 23 18 20 11 -3 19 -9
19 -14 0 -5 5 -9 12 -9 9 0 9 3 0 12 -14 14 -16 32 -2 23 5 -3 12 6 16 20 6
24 24 35 24 14 0 -5 4 -8 10 -4 5 3 7 13 4 23 -5 15 -4 15 6 2 10 -13 12 -13
17 -1 4 9 10 3 19 -19 8 -17 11 -37 7 -44 -3 -6 -3 -8 2 -4 4 4 14 0 21 -10
10 -12 16 -14 22 -5 5 8 13 9 22 3 8 -5 25 -7 37 -4 14 4 29 -2 42 -15 12 -12
21 -16 21 -8 0 8 4 7 10 -3 9 -13 10 -13 9 0 0 21 -28 69 -29 50 -1 -12 -5
-10 -18 5 -9 11 -26 19 -38 17 -17 -2 -23 4 -28 29 -3 17 -3 35 0 40 3 5 0 9
-7 9 -7 0 -9 -10 -7 -24 3 -13 -1 -31 -8 -41 -11 -14 -12 -8 -9 41 3 56 -8 90
-25 79 -21 -13 -17 15 5 39 14 15 23 30 21 34 -2 4 7 7 20 7 13 0 24 -4 24
-10 0 -5 4 -3 9 5 6 8 8 17 6 20 -1 3 3 11 11 18 11 10 13 8 8 -17 -4 -17 -1
-31 6 -36 16 -10 26 3 12 17 -8 8 -7 14 5 23 22 16 51 8 55 -16 5 -31 27 -7
30 33 3 34 18 44 18 12 0 -8 5 -14 11 -14 5 0 15 -13 20 -30 6 -17 16 -30 21
-30 6 0 5 6 -2 15 -7 8 -10 27 -7 42 6 33 -1 55 -16 46 -6 -4 -7 -1 -3 6 6 9
12 9 25 -3 10 -9 21 -13 24 -9 4 3 7 -1 7 -10 0 -9 4 -17 9 -17 5 0 11 -10 15
-22 6 -27 26 -13 29 20 1 21 27 41 27 22 0 -19 42 -10 47 10 5 19 6 19 24 -3
10 -12 18 -17 19 -10 0 6 -4 15 -10 18 -5 3 -10 15 -10 26 0 16 3 18 19 10 16
-9 19 -7 19 16 0 38 20 48 93 46 35 -1 82 -3 103 -3 22 -1 48 -6 57 -11 23
-12 119 -18 119 -8 0 5 6 6 14 3 8 -3 17 -1 21 5 3 6 3 11 -2 12 -4 0 -18 2
-31 5 -16 3 -21 0 -17 -8 4 -7 -2 -2 -13 11 -17 21 -29 24 -110 27 -53 2 -93
0 -97 -6 -4 -6 -13 -6 -23 -1 -28 15 -165 52 -194 54 -16 0 -28 6 -28 12 0 7
-11 28 -23 47 l-24 34 34 34 c18 19 33 29 33 22 0 -16 40 -36 51 -25 12 12
-11 62 -32 68 -11 4 -20 29 -29 78 -8 39 -13 76 -12 80 1 4 -5 21 -13 37 -20
38 -19 60 3 77 9 8 12 12 5 9 -6 -4 -15 -1 -18 5 -4 5 -13 8 -21 5 -17 -6 -19
10 -3 20 6 3 14 2 18 -4 4 -7 12 -6 24 3 12 8 14 15 7 20 -5 3 -8 11 -4 16 3
5 10 6 16 3 6 -4 8 1 3 16 -6 19 -4 22 9 17 9 -4 16 -1 17 6 1 7 2 24 3 40 2
21 -5 34 -31 54 -18 15 -40 28 -49 29 -8 1 -26 9 -39 18 -24 16 -49 19 -72 9z
m-273 -281 c0 -4 -9 -8 -19 -8 -11 0 -17 4 -15 8 3 4 12 8 20 8 8 0 14 -4 14
-8z m286 -79 c-7 -7 -46 16 -46 28 0 5 11 2 25 -7 14 -9 24 -19 21 -21z m-272
-52 c-6 -6 -24 19 -24 34 1 6 7 1 15 -9 8 -11 12 -22 9 -25z m396 -21 c0 -5
-5 -10 -11 -10 -5 0 -7 5 -4 10 3 6 8 10 11 10 2 0 4 -4 4 -10z m-250 -10 c0
-5 -2 -10 -4 -10 -3 0 -8 5 -11 10 -3 6 -1 10 4 10 6 0 11 -4 11 -10z m266
-75 c1 -8 -4 -15 -12 -15 -9 0 -14 10 -14 27 0 21 3 24 12 15 6 -6 13 -19 14
-27z m-271 14 c4 -5 19 -15 33 -21 16 -6 22 -12 14 -15 -10 -4 -10 -8 -1 -19
19 -24 2 -27 -20 -5 -12 12 -25 21 -31 21 -5 0 -10 5 -10 10 0 7 7 7 23 0 21
-11 21 -10 3 4 -11 9 -26 16 -34 16 -7 0 -10 5 -7 10 8 13 22 13 30 -1z m17
-66 c-10 -4 -9 -8 5 -19 16 -12 16 -13 2 -14 -23 0 -44 26 -27 33 7 3 18 5 23
5 6 0 4 -2 -3 -5z m-37 -33 c-3 -5 -12 -10 -18 -10 -7 0 -6 4 3 10 19 12 23
12 15 0z m52 -45 c5 -4 -2 -5 -14 -2 -19 4 -21 2 -14 -12 11 -20 -2 -50 -13
-32 -4 6 -2 11 5 11 8 0 6 6 -4 18 -10 10 -14 22 -11 25 9 8 41 3 51 -8z
m-343 -580 c-4 -8 -8 -15 -10 -15 -2 0 -4 7 -4 15 0 8 4 15 10 15 5 0 7 -7 4
-15z"/>
<path d="M4050 2176 c0 -2 8 -10 18 -17 15 -13 16 -12 3 4 -13 16 -21 21 -21
13z"/>
<path d="M3605 1650 c3 -5 8 -10 11 -10 2 0 4 5 4 10 0 6 -5 10 -11 10 -5 0
-7 -4 -4 -10z"/>
<path d="M2524 1537 c-34 -17 -72 -39 -85 -48 -23 -16 -23 -17 -6 -36 9 -11
17 -25 17 -31 0 -7 5 -12 10 -12 6 0 10 -11 10 -25 0 -14 5 -25 10 -25 6 0 10
-7 10 -15 0 -44 49 9 57 61 3 22 10 47 15 57 6 12 5 17 -4 17 -7 0 -2 7 10 16
12 8 20 19 17 24 -3 5 -1 11 5 15 12 7 14 35 3 35 -5 0 -36 -15 -69 -33z"/>
<path d="M2703 1223 c-18 -7 -16 -43 2 -43 8 0 15 -6 15 -14 0 -8 7 -16 15
-20 11 -4 15 2 15 24 0 17 -4 30 -10 30 -5 0 -10 7 -10 15 0 15 -6 17 -27 8z"/>
<path d="M2778 1198 c-4 -20 0 -28 13 -31 10 -3 20 2 23 10 8 21 8 23 -8 23
-8 0 -16 6 -19 13 -2 6 -6 0 -9 -15z"/>
<path d="M2796 1132 c-4 -7 -2 -12 5 -12 7 0 9 -8 6 -21 -4 -16 -3 -19 5 -11
8 8 8 18 1 34 -6 15 -12 18 -17 10z"/>
<path d="M3940 1088 c0 -4 7 -8 15 -8 8 0 15 4 15 8 0 5 -7 9 -15 9 -8 0 -15
-4 -15 -9z"/>
<path d="M4015 1090 c-3 -6 1 -7 9 -4 18 7 21 14 7 14 -6 0 -13 -4 -16 -10z"/>
<path d="M3760 1076 c-6 -6 -10 -20 -10 -32 0 -21 4 -22 38 -17 20 3 39 10 42
14 3 4 18 11 33 14 15 4 25 10 22 13 -10 10 -49 8 -57 -3 -5 -6 -8 -4 -8 5 0
17 -45 21 -60 6z"/>
<path d="M3900 1078 c0 -4 7 -8 15 -8 8 0 15 4 15 8 0 5 -7 9 -15 9 -8 0 -15
-4 -15 -9z"/>
<path d="M2586 1063 c-4 -9 -1 -21 5 -27 9 -8 10 -7 6 5 -3 9 0 22 6 28 8 8 8
11 0 11 -6 0 -14 -8 -17 -17z"/>
<path d="M2770 1069 c0 -5 5 -7 10 -4 6 3 10 8 10 11 0 2 -4 4 -10 4 -5 0 -10
-5 -10 -11z"/>
<path d="M3507 1061 c-20 -10 -34 -21 -30 -26 5 -4 -2 -6 -14 -3 -12 3 -21 3
-20 -1 4 -14 -48 -61 -70 -61 -25 0 -29 -10 -11 -28 15 -15 88 -16 88 -1 0 6
9 9 20 6 11 -3 20 -1 20 4 0 5 10 7 23 4 12 -3 38 1 58 9 35 14 80 26 107 28
6 1 12 5 12 10 0 5 4 7 9 3 14 -8 43 25 39 44 -2 10 -11 15 -23 13 -34 -6 -78
-3 -84 6 -10 15 -85 11 -124 -7z"/>
<path d="M2612 1004 c-22 -34 -18 -56 5 -26 11 15 12 13 3 -12 -6 -16 -9 -31
-6 -33 6 -7 26 59 20 68 -3 5 0 9 5 9 6 0 12 -23 12 -52 2 -69 4 -80 13 -100
7 -16 10 -40 14 -126 2 -26 8 -35 37 -49 19 -9 35 -23 35 -30 0 -7 11 -13 24
-13 13 0 26 -3 28 -8 2 -4 33 -22 69 -39 72 -36 119 -72 123 -95 2 -18 60 -78
75 -78 18 0 22 -19 9 -40 -11 -19 -10 -24 9 -40 47 -38 88 8 100 113 3 31 0
39 -17 45 -20 7 -19 9 14 45 43 47 47 58 30 82 -8 10 -14 31 -14 46 0 15 -7
29 -16 33 -9 3 -14 12 -11 20 3 8 -3 22 -14 32 -26 23 -24 30 11 48 17 8 30
10 30 5 0 -15 77 -10 94 7 9 8 21 12 28 8 7 -5 3 7 -9 26 -12 19 -35 38 -50
43 -43 12 -83 14 -83 3 0 -5 -3 -6 -6 -3 -4 4 -20 -3 -36 -14 -16 -12 -32 -19
-35 -15 -8 7 -40 -30 -48 -55 -4 -11 -11 -19 -16 -19 -6 0 -6 7 0 19 8 14 7
22 -6 32 -14 12 -16 12 -11 -2 4 -11 0 -15 -13 -14 -10 1 -22 4 -25 8 -14 14
-42 -13 -38 -35 3 -13 -2 -7 -11 12 -14 31 -17 33 -26 17 -9 -15 -13 -16 -26
-5 -9 7 -30 14 -47 14 -53 3 -56 4 -56 22 0 10 -7 27 -15 38 -8 10 -15 33 -15
50 0 19 -6 34 -15 38 -8 3 -15 12 -15 20 0 9 -9 20 -19 26 -34 17 -67 8 -89
-26z"/>
<path d="M3309 962 c13 -24 51 -49 51 -33 0 5 -14 20 -31 32 -31 22 -31 22
-20 1z"/>
<path d="M2981 919 c-16 -26 -2 -38 38 -35 32 2 51 13 51 29 0 9 -3 8 -8 -1
-7 -9 -13 -8 -27 8 -23 26 -37 25 -54 -1z"/>
<path d="M2596 903 c-6 -14 -5 -15 5 -6 7 7 10 15 7 18 -3 3 -9 -2 -12 -12z"/>
<path d="M3315 890 c-3 -5 -1 -19 6 -31 9 -17 13 -19 20 -8 13 21 11 29 -7 29
-8 0 -12 5 -9 10 3 6 4 10 1 10 -3 0 -8 -4 -11 -10z"/>
<path d="M2631 864 c0 -11 3 -14 6 -6 3 7 2 16 -1 19 -3 4 -6 -2 -5 -13z"/>
<path d="M710 780 c0 -5 5 -10 10 -10 6 0 10 5 10 10 0 6 -4 10 -10 10 -5 0
-10 -4 -10 -10z"/>
</g>
</svg>
