<?xml version="1.0" standalone="no"?>
<!DOCTYPE svg PUBLIC "-//W3C//DTD SVG 20010904//EN"
 "http://www.w3.org/TR/2001/REC-SVG-20010904/DTD/svg10.dtd">
<svg version="1.0" xmlns="http://www.w3.org/2000/svg"
 width="750.000000pt" height="530.000000pt" viewBox="0 0 750.000000 530.000000"
 preserveAspectRatio="xMidYMid meet">
<metadata>
Created by potrace 1.16, written by Peter Selinger 2001-2019
</metadata>
<g transform="translate(0.000000,530.000000) scale(0.100000,-0.100000)"
fill="#000000" stroke="none">
<path d="M6890 5285 c52 -8 125 -14 163 -16 48 -1 67 -6 67 -16 0 -7 12 -14
28 -15 15 -1 34 -2 43 -3 23 -1 125 -53 139 -70 7 -9 10 -19 6 -22 -4 -4 -11
-1 -17 7 -8 13 -12 12 -28 -7 -10 -12 -34 -25 -55 -28 -20 -4 -36 -11 -36 -16
0 -5 -7 -9 -15 -9 -38 0 -25 -47 18 -63 13 -5 17 -18 17 -51 0 -40 3 -46 37
-66 21 -12 65 -27 98 -33 33 -6 79 -21 103 -33 l42 -22 0 239 0 239 -352 -1
c-336 -1 -348 -2 -258 -14z"/>
<path d="M3885 4630 c-3 -5 -15 -10 -26 -10 -10 0 -19 -4 -19 -10 0 -5 -6 -10
-12 -10 -26 -1 -58 -40 -79 -96 -23 -62 -34 -223 -17 -257 10 -20 17 -48 23
-85 2 -13 11 -32 19 -41 9 -10 13 -21 9 -24 -3 -4 -1 -7 5 -7 7 0 12 -11 12
-24 0 -14 4 -27 8 -30 10 -6 38 -114 41 -158 1 -12 6 -15 18 -11 12 5 14 3 8
-7 -6 -9 -4 -12 6 -8 8 3 20 -1 27 -8 11 -12 9 -14 -7 -14 -22 0 -37 -17 -26
-28 4 -4 10 -1 12 5 3 10 20 11 61 6 53 -6 56 -5 43 11 -9 11 -11 20 -5 24 10
7 14 72 4 72 -3 0 -6 16 -7 35 -1 19 3 35 7 35 5 0 10 6 13 13 2 6 3 4 2 -5
-2 -10 3 -18 11 -18 18 0 17 4 0 39 -8 15 -14 37 -14 47 1 10 -2 30 -6 44 l-7
25 20 -25 c11 -14 21 -19 21 -12 0 6 9 12 20 12 11 0 20 5 20 10 0 6 -4 10
-10 10 -5 0 -10 4 -10 10 0 11 49 -7 65 -24 6 -6 26 -19 44 -29 27 -14 36 -15
42 -5 6 9 10 6 17 -11 6 -17 17 -24 41 -26 19 -2 37 -9 42 -16 6 -9 9 -10 9
-2 0 6 -8 19 -17 29 -13 13 -14 19 -5 22 19 6 14 30 -8 44 -11 7 -20 23 -20
35 0 13 -5 23 -10 23 -13 0 -70 89 -70 109 0 14 1 14 10 1 9 -13 10 -13 10 0
0 8 -5 22 -10 30 -8 13 -10 13 -10 1 0 -11 -4 -9 -14 5 -14 18 -14 18 -13 0 1
-10 -5 -21 -13 -24 -13 -5 -13 -3 -1 11 11 14 11 17 0 17 -8 0 -5 6 7 14 11 8
21 10 22 5 3 -6 10 -5 18 2 11 9 14 7 14 -9 0 -12 5 -24 10 -27 6 -3 10 -2 10
3 0 6 10 8 22 4 14 -3 19 -2 14 7 -4 6 -11 9 -15 6 -5 -2 -11 8 -14 23 -8 35
-53 88 -61 70 -3 -7 -3 -1 0 14 5 20 1 28 -15 33 -12 3 -21 10 -21 14 0 4 -9
18 -20 31 -11 13 -20 20 -20 16 0 -4 -7 -1 -15 7 -20 20 -82 58 -99 61 -8 1
-22 8 -31 16 -14 12 -18 12 -26 -1 -7 -11 -9 -11 -9 4 0 19 -15 23 -25 7z"/>
<path d="M5983 4606 c-42 -24 -123 -84 -134 -98 -10 -14 -74 -90 -91 -109 -10
-10 -18 -23 -18 -29 0 -5 -4 -10 -10 -10 -5 0 -12 -11 -16 -25 -3 -14 -10 -25
-14 -25 -4 0 -7 -10 -7 -23 0 -13 6 -24 13 -24 8 0 14 8 14 18 0 12 6 16 19
12 13 -3 17 -11 15 -26 -4 -21 -4 -21 5 -2 6 14 4 25 -6 36 -12 15 -11 17 12
17 16 0 25 -6 26 -17 0 -12 2 -12 10 4 7 16 9 14 6 -12 -2 -18 0 -30 5 -27 4
3 8 12 8 20 0 8 5 14 10 14 16 0 12 -18 -10 -40 -24 -24 -25 -31 -4 -23 12 4
15 2 12 -8 -2 -8 -14 -15 -26 -17 -21 -3 -30 -26 -14 -35 4 -2 1 -2 -7 0 -20
5 -41 -16 -40 -41 0 -18 2 -17 11 7 10 28 22 34 33 17 3 -5 -1 -10 -10 -10
-10 0 -15 -5 -12 -14 3 -7 -7 -23 -24 -35 -26 -19 -27 -24 -17 -49 7 -15 13
-29 15 -31 7 -11 89 -18 95 -9 8 15 59 19 74 7 8 -7 14 -7 19 1 10 16 25 12
25 -7 0 -24 13 -7 15 19 3 43 21 28 22 -19 2 -60 1 -57 16 -45 10 8 13 6 13
-8 0 -10 -4 -16 -8 -14 -4 3 -8 -5 -8 -18 0 -18 -2 -20 -10 -8 -13 20 -13 4 1
-21 6 -12 7 -28 3 -37 -4 -9 -8 -24 -8 -32 -1 -22 -63 -20 -95 4 -14 11 -42
34 -61 52 -35 33 -99 57 -118 45 -14 -9 -10 -64 6 -76 7 -6 12 -15 11 -20 -2
-6 3 -28 9 -50 16 -53 15 -55 -7 -55 -10 0 -21 -7 -24 -14 -5 -13 -10 -13 -36
0 -33 16 -39 29 -18 37 8 4 7 6 -4 6 -12 1 -15 12 -14 54 0 28 -3 55 -7 58 -5
3 -10 24 -11 47 0 22 -5 38 -10 35 -4 -2 -23 11 -42 31 -45 48 -59 47 -52 -4
3 -23 1 -38 -4 -34 -20 12 -21 -27 -1 -44 13 -12 18 -23 13 -31 -9 -13 6 -67
24 -88 6 -6 19 -23 30 -38 11 -15 31 -37 43 -50 14 -14 21 -29 16 -36 -4 -8
-3 -9 4 -5 7 4 12 2 12 -3 0 -6 7 -11 15 -11 8 0 15 -7 15 -16 0 -8 5 -12 10
-9 9 6 14 -10 13 -42 0 -6 6 -9 15 -6 9 4 13 2 9 -4 -4 -6 0 -16 8 -23 8 -7
12 -16 9 -21 -3 -5 2 -9 10 -9 9 0 16 -5 16 -11 0 -6 -7 -8 -16 -5 -8 3 -12 2
-9 -4 3 -6 19 -10 36 -10 16 0 28 -3 27 -7 -4 -12 25 -49 45 -56 9 -3 16 -12
15 -19 -2 -7 2 -12 7 -11 6 1 11 -20 13 -45 2 -26 5 -48 7 -51 9 -8 35 22 35
40 0 11 5 19 12 19 13 0 128 72 128 80 -1 3 -12 13 -26 24 -24 17 -53 24 -113
25 -16 1 -21 5 -18 15 5 12 1 13 -24 4 -16 -5 -32 -14 -35 -20 -3 -5 -14 -2
-25 8 -10 9 -16 21 -13 26 3 4 0 7 -8 6 -9 -2 -12 6 -11 25 2 24 0 27 -13 17
-20 -17 -18 -7 7 35 23 38 46 42 41 7 -2 -15 2 -22 12 -22 9 0 16 5 16 10 0 6
7 10 15 10 8 0 24 10 36 23 12 12 19 16 14 9 -10 -18 23 -52 51 -52 21 0 23 4
19 40 -2 22 1 40 6 40 5 0 9 7 9 16 0 25 21 11 41 -26 17 -31 46 -57 54 -48 1
1 14 27 28 56 22 44 23 52 9 48 -9 -3 -24 -1 -32 4 -12 8 -9 10 13 10 15 0 27
6 27 13 0 7 9 29 20 50 13 23 18 47 14 61 -3 13 -1 27 5 30 6 4 11 16 11 27 0
10 6 19 13 19 9 0 9 2 -1 9 -11 6 -10 12 4 25 13 14 14 20 5 25 -10 6 -9 12 3
24 9 8 16 20 16 25 0 6 4 12 8 14 15 6 51 170 58 264 8 105 -1 143 -52 221
-50 75 -85 97 -164 101 -55 2 -72 -1 -107 -22z"/>
<path d="M4389 4031 c-3 -7 -2 -39 2 -70 3 -31 3 -58 0 -61 -4 -3 -6 -25 -6
-50 0 -25 -4 -48 -9 -52 -6 -4 -5 -12 3 -22 11 -13 10 -18 -2 -30 -8 -8 -17
-12 -21 -9 -3 4 -6 2 -6 -4 0 -6 -9 -9 -21 -6 -12 3 -18 11 -15 19 3 8 1 14
-5 14 -6 0 -8 8 -4 19 3 11 0 21 -8 24 -8 3 -17 15 -20 27 -3 12 -3 19 0 16 3
-3 14 -1 24 4 14 8 16 16 9 39 -6 23 -5 31 8 36 13 5 14 8 3 14 -15 10 -51 2
-66 -13 -20 -21 -75 -105 -75 -115 0 -5 -5 -21 -11 -35 -10 -21 -17 -24 -43
-19 -30 5 -30 5 -11 -10 17 -14 17 -16 4 -17 -22 0 -44 -26 -29 -35 5 -3 10
-1 10 4 0 6 7 11 15 11 9 0 12 -6 8 -16 -8 -21 16 -62 41 -70 21 -6 27 -11 74
-54 30 -27 20 -40 -10 -14 -21 17 -21 16 1 -9 16 -18 20 -27 11 -27 -11 0 -11
-3 -2 -12 23 -23 12 -26 -35 -8 -49 18 -78 15 -78 -8 0 -6 -15 -20 -34 -30
-19 -9 -33 -21 -32 -25 1 -4 -8 -16 -21 -27 l-23 -18 28 -11 c15 -6 39 -16 53
-21 22 -9 31 -7 47 7 11 10 17 12 13 5 -10 -17 3 -74 17 -69 11 3 38 103 29
111 -2 3 2 12 9 20 86 91 108 119 103 129 -4 7 -4 9 1 5 10 -10 37 11 30 23
-9 13 26 48 42 42 8 -3 13 -2 12 3 -5 32 2 46 22 41 16 -4 18 -3 8 9 -9 11 -7
14 10 14 12 0 21 6 21 15 0 8 5 15 11 15 5 0 8 4 4 9 -3 6 4 15 15 21 13 7 19
18 16 26 -3 8 1 14 9 14 18 0 20 20 3 20 -7 0 -5 5 5 11 14 8 16 14 6 25 -6 7
-15 11 -20 8 -5 -3 -9 0 -9 5 0 6 10 11 21 11 19 0 20 2 8 17 -11 13 -11 17
-1 20 21 8 14 43 -9 43 -19 0 -21 4 -14 37 6 34 5 36 -11 22 -10 -8 -15 -9
-12 -4 3 6 -4 10 -17 10 -13 0 -21 -4 -17 -9 3 -5 -2 -7 -11 -3 -12 4 -17 1
-17 -11 -1 -10 -6 -5 -14 13 -8 18 -14 25 -17 16z"/>
<path d="M5307 3607 c2 -4 -3 -14 -11 -23 -15 -14 -16 -14 -17 3 0 14 -2 15
-6 3 -9 -21 -29 -40 -44 -40 -8 0 -7 6 4 18 28 31 19 44 -12 16 -20 -18 -27
-32 -24 -47 3 -16 2 -18 -5 -8 -8 11 -12 10 -21 -5 -11 -17 -11 -17 -6 4 8 29
-2 28 -33 -5 l-25 -27 5 32 c2 18 1 32 -4 32 -4 0 -8 -13 -8 -30 0 -23 -3 -28
-16 -23 -11 4 -22 -1 -30 -12 -8 -10 -14 -17 -15 -14 -9 52 -19 64 -20 23 -1
-16 -3 -21 -6 -12 -2 9 -16 24 -30 33 -14 10 -23 12 -19 7 10 -17 -18 -20 -36
-4 -11 9 -18 10 -18 4 0 -6 5 -14 10 -17 6 -3 10 -12 10 -18 0 -7 -8 0 -18 16
-19 30 -34 36 -26 10 4 -14 2 -13 -7 2 -22 35 -42 51 -46 38 -3 -7 -11 -9 -20
-6 -11 4 -14 2 -9 -5 5 -8 2 -10 -8 -6 -9 3 -16 1 -16 -5 0 -6 7 -11 15 -11 8
0 15 -4 15 -10 0 -6 -10 -5 -26 2 -20 9 -27 9 -33 -1 -6 -9 -11 -10 -15 -2 -4
6 -3 11 2 11 6 0 12 7 16 15 4 12 2 13 -12 7 -9 -5 -34 -8 -54 -6 -21 2 -38
-1 -38 -6 0 -6 5 -9 11 -8 6 2 14 -3 16 -9 3 -7 0 -13 -7 -13 -6 0 -8 -5 -5
-10 4 -6 10 -8 15 -5 15 9 23 -16 10 -28 -10 -9 -11 -9 -6 1 4 6 2 12 -4 12
-7 0 -10 -6 -7 -12 2 -7 12 -12 21 -12 9 1 16 -5 16 -12 0 -8 10 -19 23 -24
12 -5 16 -9 9 -9 -9 -1 -10 -6 -1 -23 27 -51 29 -60 31 -100 1 -34 -4 -45 -30
-69 -31 -28 -71 -33 -101 -15 -9 6 -17 3 -23 -7 -9 -16 -38 -13 -38 5 0 5 4 7
8 4 5 -3 9 8 9 24 0 17 -4 30 -8 30 -4 0 -10 9 -14 19 -5 16 -14 19 -45 17
-38 -3 -55 7 -27 17 9 3 9 7 -2 20 -11 15 -11 17 2 17 18 0 20 40 2 53 -6 4
-1 9 13 13 13 4 22 14 22 26 0 15 5 19 18 16 12 -4 18 1 19 14 2 23 -26 58
-47 58 -13 0 -13 -1 0 -10 8 -5 11 -10 6 -10 -5 0 2 -10 15 -21 l24 -21 -32 7
c-27 5 -32 4 -27 -8 6 -16 -22 -31 -38 -20 -7 4 -8 1 -4 -6 5 -7 14 -10 22 -7
8 3 14 1 14 -5 0 -6 -9 -13 -20 -16 -11 -3 -20 -10 -20 -15 0 -5 5 -6 10 -3 6
3 15 3 22 -1 8 -5 -1 -12 -23 -20 -18 -7 -28 -13 -20 -13 11 -1 11 -4 0 -18
-12 -15 -12 -16 3 -11 25 10 28 -2 6 -24 -15 -15 -22 -17 -33 -8 -12 10 -13 8
-10 -11 3 -12 10 -26 16 -29 7 -5 7 -9 -3 -12 -15 -6 -40 16 -30 27 4 4 -5 1
-20 -5 -15 -7 -29 -19 -32 -26 -7 -18 -1 -18 18 2 9 9 16 11 16 4 0 -6 5 -8
13 -4 8 5 8 3 -2 -9 -7 -9 -18 -14 -23 -11 -6 4 -4 -4 3 -17 7 -13 12 -27 11
-31 -1 -4 10 -2 24 4 21 10 28 9 38 -3 6 -8 18 -13 28 -11 9 2 19 -1 22 -6 3
-6 -16 -13 -42 -18 -26 -4 -50 -8 -54 -10 -5 -1 -12 -2 -16 -3 -10 -1 -29 -41
-27 -56 3 -24 34 -82 53 -99 40 -35 153 -21 190 23 8 9 11 10 7 4 -10 -21 30
-15 81 12 25 14 51 22 57 18 5 -3 7 -1 4 4 -4 6 0 13 8 17 10 4 15 -1 15 -14
0 -11 5 -20 11 -20 5 0 8 4 5 9 -10 16 4 37 24 38 12 1 20 -4 20 -13 0 -11 -6
-13 -20 -9 -25 8 -26 -2 -2 -28 12 -14 12 -18 2 -12 -18 11 -52 14 -64 7 -5
-2 6 -11 23 -18 17 -7 31 -18 31 -25 0 -8 5 -8 16 2 20 17 35 20 107 26 36 3
57 1 57 -6 0 -6 -6 -8 -14 -5 -8 3 -24 -5 -36 -18 -17 -17 -21 -19 -17 -5 9
24 -2 21 -35 -10 -19 -18 -28 -22 -28 -12 -1 8 -8 1 -17 -16 -10 -16 -16 -33
-15 -37 1 -5 -7 -8 -18 -8 -11 0 -20 -5 -20 -11 0 -6 -7 -8 -16 -5 -8 3 -12 2
-9 -3 3 -5 -4 -12 -14 -16 -11 -3 -23 -15 -26 -25 -4 -11 -17 -23 -29 -26 -28
-7 -34 -52 -7 -53 26 -2 64 -8 94 -16 30 -8 37 -34 10 -36 -12 -1 -10 -4 7 -9
23 -7 23 -8 3 -9 -15 -1 -21 -7 -20 -21 1 -11 6 -19 12 -16 6 2 11 -4 11 -14
0 -19 -23 -16 -39 4 -5 7 -7 2 -4 -11 3 -13 1 -24 -4 -24 -19 -3 -25 -5 -44
-16 -11 -7 -15 -13 -9 -13 6 0 14 3 17 7 4 3 17 7 30 8 12 1 31 6 42 10 15 6
13 1 -10 -24 -25 -27 -27 -33 -15 -41 13 -8 12 -10 -2 -10 -11 0 -15 -5 -12
-14 4 -10 0 -13 -14 -10 -14 4 -23 -3 -35 -27 -8 -18 -13 -38 -9 -43 3 -6 9 0
13 14 4 14 8 21 8 15 1 -5 6 -2 12 8 5 9 19 17 29 17 12 0 20 7 20 16 0 14 3
14 15 4 13 -11 14 -10 10 2 -4 9 0 18 9 21 23 9 27 -22 6 -43 -11 -11 -32 -20
-47 -21 -16 0 -22 -3 -15 -6 6 -2 12 -9 12 -15 0 -6 -7 -8 -15 -5 -8 4 -23 -5
-35 -21 l-21 -26 23 -10 c19 -8 20 -10 6 -13 -10 -3 -18 -8 -18 -13 0 -5 -9
-7 -19 -5 -25 5 -34 -20 -15 -40 13 -13 12 -18 -14 -43 -22 -22 -34 -27 -46
-20 -11 6 -16 5 -16 -4 -1 -8 -6 -5 -15 6 -8 11 -15 14 -15 8 0 -7 -5 -12 -11
-12 -6 0 -9 7 -5 15 3 8 0 15 -5 15 -6 0 -9 -9 -6 -20 3 -10 0 -21 -5 -22 -6
-2 -3 -12 7 -21 20 -21 34 -15 16 7 -9 11 -8 15 3 19 8 3 17 -1 20 -9 3 -9 11
-12 18 -8 8 5 9 2 5 -9 -4 -11 -2 -14 9 -10 9 3 14 -1 14 -12 0 -9 -4 -13 -10
-10 -5 3 -7 0 -4 -9 3 -8 12 -12 20 -9 8 3 14 1 14 -3 0 -5 33 -9 73 -10 104
0 157 -6 157 -16 0 -5 -4 -6 -10 -3 -5 3 -10 -1 -10 -10 0 -9 5 -13 11 -9 8 4
8 0 0 -15 -13 -24 -26 -29 -17 -6 11 31 -16 9 -58 -45 -6 -8 -20 -22 -31 -30
-19 -14 -19 -14 -3 6 14 16 15 23 5 34 -6 7 -7 10 -2 7 6 -3 17 -1 25 5 13 8
13 9 -1 5 -8 -3 -26 1 -40 9 -13 7 -36 13 -50 14 -17 0 -33 9 -43 25 -9 14
-21 23 -27 20 -5 -4 -12 0 -15 8 -5 13 -10 15 -58 18 -14 1 -41 17 -61 36 -20
18 -40 31 -46 28 -5 -4 -8 -1 -7 5 5 18 -38 44 -48 29 -4 -8 -3 -9 4 -5 7 4
12 2 12 -3 0 -6 -5 -11 -11 -11 -6 0 -9 -6 -6 -14 3 -7 0 -19 -6 -26 -9 -10
-9 -11 1 -6 21 12 13 -5 -13 -30 -24 -22 -25 -22 -25 -4 0 11 -4 20 -10 20 -5
0 -10 -5 -10 -11 0 -5 -4 -7 -10 -4 -6 3 -7 -1 -4 -9 4 -10 1 -16 -7 -16 -9
-1 -7 -6 5 -15 11 -8 14 -15 8 -15 -7 0 -12 -7 -12 -15 0 -8 5 -15 10 -15 17
0 11 -18 -7 -23 -16 -4 -16 -5 -1 -6 16 -1 42 -54 31 -64 -3 -3 6 -3 19 0 18
5 21 3 11 -7 -10 -11 -7 -16 14 -27 14 -7 39 -13 55 -13 23 0 29 -4 24 -15 -3
-9 0 -15 10 -15 8 0 17 -7 20 -15 4 -8 14 -15 23 -15 9 0 21 -4 26 -8 6 -5 29
-14 53 -21 23 -6 42 -16 42 -21 0 -4 17 -14 38 -20 20 -7 43 -19 50 -28 10
-13 12 -13 12 -1 0 12 2 12 9 0 5 -8 18 -12 29 -9 14 4 19 2 16 -7 -3 -7 9
-29 26 -48 19 -22 26 -37 18 -39 -8 -3 -7 -11 5 -28 21 -30 22 -47 2 -30 -10
8 -15 9 -15 1 0 -7 -8 -8 -24 -2 -13 5 -41 7 -63 4 -32 -4 -43 -1 -54 14 -20
28 -57 46 -83 39 -13 -3 -31 1 -42 9 -19 14 -19 14 1 15 19 0 18 1 -3 22 -18
18 -33 23 -82 23 -57 0 -75 7 -47 18 9 4 8 6 -2 6 -11 1 -11 4 -1 16 10 12 9
16 -4 21 -9 3 -16 10 -16 16 0 13 -26 38 -39 38 -6 0 -11 4 -11 9 0 17 -34 22
-49 6 -10 -9 -11 -15 -4 -15 8 0 12 -19 11 -55 -1 -30 -6 -55 -11 -55 -5 0 -4
-7 4 -16 10 -13 10 -17 0 -24 -10 -6 -10 -9 -1 -12 7 -2 13 -19 14 -38 2 -29
6 -34 22 -32 18 3 17 2 -2 -12 -31 -22 -39 -63 -18 -94 11 -17 13 -27 6 -30
-8 -2 -8 -10 -2 -23 6 -10 15 -28 20 -39 6 -11 10 -27 10 -36 0 -11 6 -15 18
-12 15 4 18 1 14 -19 -5 -27 24 -91 51 -111 9 -7 17 -20 17 -29 0 -9 7 -24 16
-34 8 -9 17 -30 18 -45 3 -20 8 -28 20 -26 9 2 16 -4 16 -13 0 -8 4 -15 9 -15
5 0 11 -11 13 -25 4 -19 1 -25 -13 -25 -28 0 -23 -19 9 -33 15 -6 36 -20 46
-29 26 -24 82 -24 91 -1 3 10 1 19 -4 21 -6 2 -9 8 -5 13 11 18 -17 119 -37
133 -15 10 -20 27 -23 70 -1 31 -6 59 -9 63 -13 12 -7 23 24 38 28 15 34 15
71 0 27 -10 44 -13 51 -6 5 5 19 6 31 2 44 -15 61 -8 58 23 -3 25 -1 28 15 21
10 -5 43 -11 74 -13 55 -4 58 -3 99 39 23 23 45 38 48 33 14 -19 110 -51 140
-46 18 2 32 8 32 12 0 5 24 20 53 34 28 13 68 41 86 60 19 20 38 36 41 36 4 0
7 -12 7 -27 0 -39 56 -122 95 -141 25 -13 32 -22 30 -39 -2 -13 2 -23 7 -23 6
0 11 -12 11 -26 0 -14 -4 -23 -9 -20 -4 3 -6 -6 -3 -20 5 -25 -26 -104 -40
-104 -5 0 -8 -7 -8 -15 0 -8 -5 -15 -10 -15 -6 0 -9 -6 -8 -12 2 -7 -3 -12
-10 -10 -17 3 -28 -28 -13 -37 8 -5 5 -14 -10 -29 -13 -15 -18 -29 -14 -42 5
-17 13 -19 47 -15 52 7 56 10 53 40 -2 14 1 25 5 25 9 0 50 25 123 75 20 15
37 34 37 43 1 21 23 52 39 52 6 0 11 7 11 15 0 8 10 23 21 34 13 12 19 26 16
35 -4 9 -2 16 3 16 5 0 17 13 27 30 9 17 23 30 31 30 8 0 11 7 8 18 -4 10 4
29 19 46 14 17 28 41 32 55 3 14 14 33 25 42 23 21 23 24 -4 50 l-23 22 29 -7
c26 -6 27 -6 12 9 -9 9 -20 14 -25 10 -5 -3 -12 -1 -16 5 -3 5 3 10 14 10 12
0 21 7 21 15 0 9 -6 12 -16 8 -14 -5 -14 -3 -3 15 10 16 10 28 1 60 -15 50
-15 112 -1 112 6 0 9 9 6 20 -3 11 -1 23 4 26 5 3 7 10 4 15 -4 5 -1 9 6 9 7
0 2 11 -10 24 -13 14 -20 29 -16 35 3 7 -2 11 -14 11 -10 0 -21 -3 -24 -7 -2
-5 -2 -2 -1 5 2 6 -1 12 -6 12 -6 0 -10 5 -10 11 0 6 9 9 20 6 17 -4 19 -2 13
20 -5 20 -3 24 8 18 11 -6 12 -5 2 6 -26 27 -12 32 15 6 28 -27 62 -36 62 -17
0 6 -4 10 -10 10 -5 0 -19 9 -30 20 -20 20 -13 34 13 25 10 -4 14 2 15 25 0
16 -4 30 -9 30 -5 0 -9 -3 -9 -8 0 -15 -61 -35 -72 -24 -8 8 -4 9 13 5 21 -6
22 -4 11 9 -10 13 -9 15 14 10 18 -3 25 -1 20 6 -3 6 2 13 11 15 10 3 0 5 -21
6 -45 1 -42 13 5 16 36 3 77 35 45 35 -10 0 -30 12 -43 26 -19 21 -22 29 -11
35 7 5 18 9 23 9 6 0 3 5 -5 10 -8 5 -10 10 -5 10 6 0 3 5 -5 10 -13 8 -12 10
4 10 16 0 17 2 5 16 -12 15 -10 16 21 9 l35 -7 -37 26 c-20 14 -38 31 -40 37
-2 6 -18 13 -35 14 -34 3 -79 35 -49 35 9 0 16 -4 16 -9 0 -12 49 -20 56 -9 3
5 -13 27 -36 50 -22 23 -39 47 -36 55 3 7 1 13 -4 13 -6 0 -10 7 -10 15 0 9
-6 12 -16 8 -12 -4 -14 -14 -9 -39 5 -28 3 -33 -10 -28 -11 5 -14 1 -10 -12 3
-11 0 -9 -7 4 -9 19 -9 25 0 31 16 10 4 41 -12 35 -15 -6 -41 -54 -37 -68 1
-5 -4 -13 -11 -18 -10 -7 -9 -11 5 -22 9 -7 17 -17 17 -21 0 -4 -6 -2 -14 4
-19 16 -26 2 -20 -41 3 -25 -1 -42 -12 -52 -8 -9 -16 -25 -17 -36 -1 -14 -6
-18 -18 -15 -13 5 -16 1 -12 -14 3 -13 -1 -21 -16 -26 -12 -3 -21 -14 -21 -23
0 -13 -2 -14 -9 -4 -6 10 -10 8 -15 -10 -4 -13 -10 -18 -12 -11 -3 7 -12 9
-20 6 -9 -3 -14 2 -14 15 0 11 7 23 16 26 13 5 14 8 1 20 -8 8 -23 12 -35 10
-11 -3 -23 0 -28 7 -5 9 -2 10 10 6 13 -5 17 -3 13 6 -3 8 -1 20 4 28 7 12 9
12 9 -1 0 -8 11 -23 24 -32 23 -16 23 -16 23 15 1 24 -1 27 -6 13 -7 -18 -8
-18 -24 5 -23 32 -23 57 -1 34 9 -9 19 -13 23 -9 3 4 1 9 -6 11 -7 2 -9 11 -6
19 3 9 -2 14 -15 14 -20 0 -36 -25 -26 -41 3 -5 1 -9 -5 -9 -5 0 -11 -10 -13
-22 -2 -16 -9 -22 -22 -20 -18 3 -18 2 -2 -13 9 -9 16 -21 16 -27 0 -6 -12 1
-27 16 -29 30 -46 27 -19 -3 10 -11 16 -28 13 -38 -4 -16 -5 -16 -6 1 -1 20
-1 20 -17 0 -15 -19 -15 -19 -5 1 6 13 6 27 0 38 -7 11 -5 26 6 47 9 17 11 30
5 30 -5 0 -10 -8 -11 -17 0 -11 -3 -13 -6 -5 -2 6 -9 12 -15 12 -12 0 -32 20
-47 48 -11 21 1 33 14 12 4 -6 12 -5 21 4 19 19 18 23 -6 29 -12 3 -20 14 -20
25 0 11 -7 23 -16 26 -9 4 -14 13 -10 21 3 9 0 15 -7 15 -24 0 -48 25 -41 43
8 23 23 22 32 -3 5 -13 11 -17 21 -10 12 7 12 11 2 24 -10 12 -11 19 -2 29 6
8 8 17 4 20 -3 4 -12 -1 -20 -11 -8 -9 -12 -12 -9 -6 3 7 2 34 -3 60 -10 52
-6 68 9 44 8 -12 10 -11 10 5 0 14 3 16 9 7 6 -10 10 -10 21 3 11 13 10 18 -4
33 -9 10 -16 26 -16 35 0 9 -10 17 -22 19 -13 2 -22 9 -21 16 2 6 -4 12 -13
12 -8 0 -12 5 -9 10 9 14 48 13 63 -2 9 -9 12 -9 12 0 0 6 7 9 15 6 8 -4 13
-9 10 -13 -2 -4 5 -14 16 -21 10 -8 19 -22 19 -32 0 -22 16 -24 24 -3 3 8 0
15 -6 15 -7 0 -3 7 8 15 16 12 17 16 4 24 -8 5 -18 7 -24 4 -5 -3 -6 -1 -2 5
4 7 3 12 -2 12 -5 0 -20 15 -33 34 -13 19 -27 32 -31 30 -4 -3 -12 6 -19 18
-11 21 -11 22 5 9 15 -13 19 -13 27 0 6 11 9 8 9 -11 0 -18 3 -21 9 -11 5 7
13 11 19 7 6 -3 14 -1 17 5 4 5 13 8 21 5 8 -3 14 -1 14 4 0 6 -6 10 -14 10
-8 0 -16 13 -18 29 -2 17 -1 28 4 25 4 -3 8 0 8 5 0 6 -7 11 -15 11 -9 0 -27
7 -40 16 -13 9 -30 12 -37 8 -11 -6 -11 -4 0 7 10 11 20 9 62 -13 52 -28 54
-27 53 20 -1 18 5 15 39 -19 38 -38 66 -49 122 -49 52 0 92 34 102 86 3 19 10
34 15 34 14 0 28 -45 22 -69 -3 -12 -1 -21 4 -21 18 0 54 42 49 56 -3 8 -1 14
4 14 5 0 6 8 3 17 -4 11 -8 12 -11 5 -2 -7 -8 -12 -14 -12 -6 0 -7 7 -4 16 3
8 2 12 -4 9 -14 -9 -12 1 5 35 15 28 15 29 -14 28 -26 -1 -28 -3 -21 -28 4
-15 13 -37 20 -49 20 -39 5 -46 -19 -8 -12 20 -20 41 -17 45 3 5 -6 19 -19 30
-31 27 -34 47 -5 32 29 -16 43 -3 25 23 -18 25 -19 37 -4 37 5 0 7 -4 4 -10
-3 -5 1 -10 9 -10 9 0 15 -3 15 -7 -3 -19 2 -31 15 -36 10 -4 13 2 12 19 0 13
-4 24 -8 24 -5 0 -8 9 -8 19 0 11 -5 23 -11 27 -8 4 -7 9 2 16 10 7 8 8 -7 3
-23 -6 -42 20 -21 29 7 2 2 5 -10 5 -12 1 -24 5 -28 10 -3 6 -26 13 -51 17
-28 4 -44 11 -41 18 3 8 -5 11 -22 10 -36 -2 -38 -3 -23 -13 11 -6 10 -12 -4
-25 -14 -15 -15 -19 -3 -27 9 -5 10 -9 2 -9 -6 0 -14 3 -16 8 -6 9 -64 8 -74
-1 -3 -4 2 -7 13 -7 16 0 17 -2 4 -10 -8 -5 -10 -10 -5 -10 6 0 2 -5 -7 -11
-20 -11 -24 -45 -6 -51 9 -3 9 -6 0 -12 -8 -4 -16 1 -21 16 -6 13 -10 17 -10
9 -1 -8 -8 -11 -21 -8 -10 3 -18 0 -17 -5 1 -6 -6 -12 -16 -13 -15 -3 -16 -1
-5 13 10 12 10 14 0 8 -7 -4 -15 -1 -18 8 -3 9 -10 13 -15 10 -5 -3 -6 3 -2
12 4 11 2 15 -4 11 -16 -10 -14 54 4 108 19 56 39 85 60 85 7 0 13 6 13 13 0
8 10 23 23 35 23 22 24 22 40 4 10 -10 14 -22 10 -25 -3 -4 1 -7 11 -7 9 0 14
-4 11 -10 -3 -5 6 -12 21 -16 l27 -7 -24 -13 c-29 -16 -9 -18 25 -3 36 17 31
50 -6 44 -16 -3 -28 -1 -28 5 0 5 5 9 12 8 6 -2 14 6 16 16 3 14 0 17 -11 13
-10 -4 -17 3 -21 24 -3 17 -10 28 -16 24 -6 -4 -7 -11 -4 -17 4 -7 2 -8 -4 -4
-9 5 -9 13 -2 26 14 26 13 35 -3 22 -8 -7 -18 -7 -27 -2 -27 17 -47 10 -60
-20 -7 -16 -16 -30 -21 -30 -12 0 -11 7 1 31 9 16 7 19 -15 19 -18 0 -28 -7
-35 -25 -14 -36 -20 -31 -9 7 5 18 9 34 9 34 0 1 -11 1 -24 0 -13 0 -22 -4
-19 -9z m466 -1714 c-19 -7 -16 -20 7 -26 13 -3 20 0 20 8 0 11 6 12 30 4 16
-6 27 -15 24 -20 -3 -6 0 -17 8 -26 11 -14 10 -15 -8 -9 -16 5 -27 -2 -50 -31
-16 -20 -28 -40 -26 -45 1 -4 -3 -8 -9 -8 -6 0 -8 -9 -4 -20 4 -12 2 -20 -5
-20 -6 0 -27 -7 -48 -15 -29 -13 -34 -18 -22 -25 17 -11 10 -13 -45 -10 -41 2
-87 19 -55 20 13 1 13 2 -1 10 -23 13 -89 1 -89 -17 0 -9 -6 -13 -15 -9 -8 3
-15 1 -15 -5 0 -6 -7 -9 -15 -5 -8 3 -15 2 -15 -2 0 -4 -16 -9 -35 -10 -23 -2
-35 2 -35 10 0 7 -10 14 -23 15 -21 2 -56 9 -67 13 -3 1 -8 2 -12 1 -10 -1
-10 3 -2 23 3 9 11 13 16 10 6 -4 5 3 -2 15 -6 12 -15 19 -21 16 -20 -13 -8 8
16 27 14 11 25 25 25 31 0 7 5 19 10 27 9 13 11 13 20 0 8 -11 9 -7 4 15 l-6
30 17 -23 c16 -22 18 -22 41 -8 31 21 41 20 22 -1 -20 -24 -30 -53 -18 -53 13
0 13 -37 0 -45 -5 -3 -10 -13 -10 -21 0 -8 5 -14 10 -14 6 0 10 7 10 15 0 12
4 14 19 5 13 -7 22 -7 26 0 3 5 -1 10 -9 10 -18 0 -23 45 -6 55 6 3 7 -1 4 -9
-7 -19 29 -22 71 -6 33 12 51 4 34 -16 -8 -10 -8 -14 0 -14 6 0 11 5 11 10 0
6 7 10 15 10 20 0 19 -17 -2 -29 -13 -8 -5 -9 32 -4 28 3 51 7 53 8 1 1 -8 14
-20 30 -21 27 -21 27 -1 21 26 -8 39 10 22 30 -19 23 -2 29 22 8 22 -19 22
-19 10 3 -6 13 -7 24 -2 27 5 4 12 0 15 -6 5 -10 7 -10 12 0 3 6 13 12 22 13
12 0 13 2 4 6 -10 4 -7 9 10 18 12 7 28 13 33 13 6 0 4 -2 -2 -5z"/>
<path d="M6120 2970 c13 -8 12 -10 -3 -10 -10 0 -15 -4 -12 -10 3 -5 -2 -10
-12 -11 -10 0 -13 -3 -5 -6 6 -2 12 -11 12 -19 0 -8 5 -14 12 -14 9 0 9 -3 0
-12 -15 -15 -16 -54 -2 -63 15 -9 12 -25 -4 -19 -11 4 -16 -13 -21 -80 -9
-107 -12 -90 63 -361 11 -38 19 -91 18 -116 -1 -38 4 -50 26 -70 26 -24 99
-153 110 -196 14 -51 58 -3 73 79 5 28 2 39 -20 62 -16 17 -25 37 -23 50 3 15
-10 34 -42 66 -53 51 -65 76 -49 96 9 11 8 14 -2 14 -8 1 4 10 25 20 50 25
110 12 112 -24 2 -29 88 -116 114 -116 17 0 20 5 17 33 -4 33 -26 77 -39 77
-5 0 -17 9 -29 21 -19 19 -19 22 -4 45 18 28 2 33 -27 7 -20 -18 -34 -12 -25
12 4 8 16 15 27 15 11 0 20 4 20 9 0 5 3 18 6 28 6 17 6 17 -8 -1 -8 -10 -20
-16 -26 -12 -5 3 -12 0 -15 -6 -4 -15 -49 4 -79 34 -32 32 -57 92 -46 111 12
23 4 47 -16 47 -12 0 -15 11 -14 43 2 89 0 95 -32 102 -16 4 -30 11 -30 16 0
6 -4 7 -10 4 -5 -3 -10 1 -10 9 0 20 16 21 24 1 7 -19 26 -20 26 -1 0 8 8 16
18 19 16 4 16 4 0 10 -10 4 -25 9 -33 12 -8 2 -15 14 -15 25 0 15 7 20 25 20
14 0 25 4 25 10 0 5 -7 7 -15 4 -8 -4 -15 -1 -15 5 0 6 6 11 13 11 7 0 4 7 -7
15 -25 19 -40 19 -33 1 4 -10 1 -13 -9 -9 -7 3 -14 11 -14 19 0 8 -8 14 -17
14 -15 0 -16 -2 -3 -10z"/>
<path d="M5510 2963 c0 -4 9 -19 20 -33 11 -14 20 -31 20 -39 0 -11 -4 -9 -15
5 -8 10 -15 17 -15 14 -7 -29 -8 -41 -3 -36 10 10 33 -15 33 -35 0 -34 62
-204 81 -224 18 -18 19 -19 13 -1 -6 15 -3 17 17 12 13 -3 18 -3 12 0 -14 6
-18 25 -5 23 23 -4 24 4 2 17 -14 8 -17 13 -8 10 14 -4 16 -2 7 17 -11 25 3
77 21 77 6 0 8 5 4 12 -4 7 -3 8 4 4 18 -11 15 -39 -3 -32 -22 8 -18 -7 5 -21
22 -14 46 -8 54 13 7 20 -4 18 -20 -3 -7 -10 -16 -14 -21 -10 -12 12 28 38 48
32 10 -3 20 -1 24 5 3 6 -3 10 -16 10 -21 0 -21 1 -5 19 25 28 12 71 -23 72
-14 1 -19 3 -10 6 11 3 15 15 15 38 -2 34 -16 63 -16 32 0 -19 -56 -32 -100
-23 -17 3 -30 2 -30 -3 0 -14 44 -29 79 -26 23 2 29 0 20 -6 -12 -8 -12 -11 1
-19 9 -6 10 -10 3 -10 -6 0 -15 5 -18 10 -10 16 -28 12 -21 -5 8 -21 -11 -19
-23 3 -8 12 -10 13 -11 3 0 -11 -4 -9 -15 5 -8 10 -15 15 -15 10 0 -6 -11 5
-24 23 -26 35 -66 68 -66 54z"/>
<path d="M4563 2944 c-6 -3 -9 -16 -7 -31 4 -23 3 -25 -11 -13 -10 8 -15 9
-15 1 0 -6 5 -11 10 -11 6 0 10 -6 10 -13 0 -8 -7 -14 -15 -14 -8 0 -15 7 -15
14 0 10 -8 8 -28 -9 -23 -19 -26 -25 -15 -36 10 -11 10 -18 -4 -40 l-17 -27
22 20 23 19 -10 -26 c-5 -14 -7 -29 -4 -32 3 -3 0 -12 -7 -21 -7 -8 -10 -22
-6 -30 3 -8 -4 -24 -16 -35 -24 -22 -17 -40 9 -24 16 10 62 83 84 134 6 14 8
35 6 48 -2 12 -1 25 4 27 10 7 39 65 39 78 0 12 -14 0 -16 -14 -3 -22 -5 -23
-13 -10 -6 9 -6 22 0 33 5 10 8 18 7 17 -2 0 -8 -3 -15 -5z"/>
<path d="M6379 1547 c-11 -9 -15 -33 -16 -89 -2 -88 -8 -105 -29 -87 -11 9
-24 9 -53 0 -67 -20 -66 -20 -64 76 l3 88 -16 -35 c-9 -19 -20 -42 -23 -50 -4
-8 -24 -23 -44 -33 -41 -21 -45 -32 -19 -62 18 -22 136 -65 176 -65 16 0 26
-7 29 -21 5 -19 11 -21 41 -15 32 6 36 4 36 -14 0 -11 4 -20 9 -20 15 0 23 18
11 25 -17 10 -11 25 10 25 11 0 20 -5 20 -11 0 -6 6 -9 14 -6 8 3 17 1 19 -6
3 -9 9 -9 25 0 15 9 29 10 47 3 20 -8 27 -6 32 6 4 11 13 14 32 9 19 -4 22 -3
11 4 -12 8 -12 12 3 29 22 24 21 35 -3 57 -11 10 -20 24 -20 30 0 7 -6 18 -14
24 -8 6 -19 32 -25 56 -14 56 -37 62 -27 8 16 -86 18 -113 12 -138 -6 -23 -11
-26 -34 -20 -38 9 -79 60 -88 109 -4 22 -9 44 -10 49 -1 4 -2 25 -3 47 -1 42
-13 50 -42 27z"/>
<path d="M5302 827 c-5 -6 -13 -34 -16 -60 -5 -30 -13 -50 -24 -54 -9 -4 -17
-2 -19 4 -3 8 -15 7 -39 -3 -21 -9 -44 -12 -57 -8 -12 5 -31 7 -42 7 -15 -1
-16 0 -3 3 9 3 16 13 15 24 -1 11 -6 16 -15 13 -9 -4 -12 1 -10 13 2 13 -4 20
-19 22 -13 2 -23 7 -23 11 0 4 -7 8 -15 8 -18 0 -18 0 -3 -32 7 -15 17 -24 25
-21 16 7 17 -6 1 -22 -10 -10 -10 -15 2 -22 8 -5 14 -21 15 -36 0 -23 6 -29
34 -36 18 -5 40 -16 48 -24 16 -16 38 -19 28 -5 -3 5 -1 12 4 16 6 3 15 -4 21
-15 7 -14 17 -19 29 -15 25 8 53 -5 47 -21 -4 -11 5 -14 36 -14 34 0 39 -2 28
-15 -10 -12 -8 -13 12 -9 12 2 47 5 77 5 44 1 54 5 58 20 6 22 23 24 42 7 10
-10 12 -10 7 -1 -7 13 32 11 68 -3 18 -7 18 -8 -3 -16 -12 -4 -19 -13 -16 -18
4 -6 1 -17 -5 -25 -7 -8 -9 -15 -4 -15 14 1 64 48 64 60 0 5 10 10 21 10 18 0
19 -3 9 -15 -10 -12 -10 -16 1 -19 24 -7 54 -3 61 8 4 6 17 11 29 11 12 0 24
6 27 14 3 10 -3 11 -29 6 -19 -4 -40 -12 -47 -18 -7 -5 -15 -7 -19 -4 -3 4 2
9 11 13 9 3 16 17 16 31 0 13 -4 22 -9 19 -5 -3 -24 15 -42 40 -19 25 -46 60
-60 77 -14 18 -29 44 -33 60 -6 25 -26 39 -26 17 0 -5 -6 -10 -14 -10 -11 0
-13 -14 -9 -64 6 -63 -10 -136 -28 -136 -5 0 -15 11 -21 25 -11 24 -15 25 -56
19 -73 -11 -77 -10 -80 14 -3 20 32 124 48 145 3 4 16 -2 28 -13 26 -25 52
-26 52 -2 0 18 -59 42 -105 42 -15 0 -35 4 -45 10 -12 7 -21 6 -28 -3z"/>
<path d="M5780 704 c0 -20 -9 -49 -21 -65 -12 -17 -16 -29 -9 -29 7 0 10 -6 7
-14 -4 -10 1 -14 14 -13 11 1 17 7 15 14 -3 7 2 13 10 13 8 0 13 -4 9 -9 -3
-5 -1 -12 5 -16 24 -15 10 -43 -27 -53 l-38 -10 31 -1 c36 -1 57 -31 22 -31
-20 0 -20 -1 4 -22 32 -30 76 -53 85 -45 3 4 2 7 -4 7 -6 0 -9 12 -7 28 2 15
1 19 -2 10 -3 -10 -10 -18 -16 -18 -6 0 -8 3 -5 7 4 3 2 12 -4 19 -5 7 -12 25
-15 40 -4 24 -3 26 11 14 11 -9 13 -15 5 -20 -8 -5 -6 -9 6 -14 9 -3 19 -4 22
-1 6 5 -36 91 -57 118 -8 9 -11 20 -7 24 4 4 11 1 15 -6 6 -9 12 -3 20 20 6
17 11 35 11 40 0 7 -62 49 -74 49 -3 0 -6 -16 -6 -36z"/>
<path d="M4632 540 c-6 -11 -12 -31 -12 -45 0 -14 -13 -38 -30 -55 -16 -17
-37 -42 -47 -56 -12 -19 -23 -24 -41 -21 -15 3 -31 -2 -41 -12 -10 -10 -22
-16 -28 -14 -6 2 -14 -1 -18 -6 -3 -6 -1 -11 4 -11 6 0 11 -7 11 -15 0 -9 6
-12 15 -9 8 4 17 -1 21 -10 3 -9 15 -16 25 -16 21 0 26 -16 7 -23 -8 -3 -5 -6
5 -6 11 -1 15 -6 11 -12 -4 -7 -1 -10 7 -7 8 3 13 14 12 24 -1 18 -1 18 11 2
17 -23 22 -23 29 2 6 23 27 27 27 6 0 -17 38 -28 71 -20 21 5 37 8 87 13 6 0
11 7 10 14 -2 6 9 13 24 15 19 2 28 -2 33 -17 3 -12 3 -26 0 -31 -7 -12 12
-40 27 -40 5 0 4 9 -2 20 -7 14 -7 20 0 20 5 0 10 -4 10 -8 0 -5 11 -21 24
-37 19 -22 25 -25 32 -13 5 8 16 18 24 21 12 4 12 6 -2 6 -12 1 -15 6 -11 17
5 14 1 16 -20 12 -16 -3 -31 0 -38 8 -9 11 -7 14 11 14 13 0 33 12 46 27 26
31 31 29 37 -12 5 -37 34 -57 48 -33 13 24 38 12 31 -14 -3 -14 -1 -19 6 -14
7 4 12 13 12 21 0 26 28 23 49 -6 19 -25 20 -29 5 -29 -10 0 -14 -3 -10 -7 12
-12 52 -14 77 -3 24 10 24 10 -2 5 -28 -5 -49 19 -25 28 8 3 14 17 14 31 0 30
-4 32 -26 10 -11 -12 -17 -13 -20 -5 -2 7 4 20 14 30 17 16 20 16 30 3 6 -8
16 -12 22 -8 13 8 -20 46 -39 46 -8 0 -8 5 1 15 7 8 19 15 28 15 8 0 13 -3 9
-6 -3 -4 0 -13 8 -20 22 -22 27 -16 10 10 -11 16 -13 26 -6 31 17 10 13 28 -4
21 -8 -3 -19 2 -24 12 -9 15 -11 15 -26 -5 -17 -25 -37 -31 -33 -10 2 7 -9 13
-24 15 -26 3 -27 1 -22 -27 7 -34 0 -39 -23 -16 -9 9 -23 13 -34 10 -11 -4
-19 -2 -19 5 0 7 -6 10 -14 7 -14 -5 -32 24 -56 91 -7 17 -16 32 -21 32 -5 0
-7 11 -3 25 8 31 -12 34 -22 3 -4 -13 -2 -24 5 -26 22 -7 12 -94 -17 -147 -26
-48 -28 -50 -76 -53 -38 -3 -52 1 -59 14 -8 13 -11 14 -18 3 -7 -11 -9 -9 -9
5 0 20 0 20 -14 0 -30 -40 -36 2 -17 126 11 78 8 110 -12 110 -7 0 -18 -9 -25
-20z"/>
<path d="M7260 482 c0 -10 -8 -12 -32 -7 l-33 7 19 -21 c11 -11 31 -21 45 -21
24 -1 25 -2 8 -14 -10 -8 -17 -18 -16 -22 4 -21 -3 -32 -26 -42 -32 -15 -35
-15 -35 -2 0 6 9 10 21 10 14 0 19 5 16 14 -3 8 -1 17 6 20 21 8 -11 24 -39
18 -19 -3 -24 0 -24 17 0 11 -4 21 -10 21 -5 0 -10 -4 -10 -9 0 -5 -12 -12
-26 -15 -22 -6 -24 -9 -12 -23 9 -12 10 -15 0 -9 -18 11 -43 -17 -30 -35 7
-11 11 -11 15 -1 2 6 10 12 16 12 8 0 7 -4 -1 -12 -20 -20 -14 -28 21 -23 26
4 27 3 7 -3 -26 -8 -33 -36 -16 -59 6 -9 3 -13 -10 -13 -18 -1 -18 -1 -1 -11
20 -12 23 -34 3 -26 -7 3 -20 -3 -30 -14 -20 -24 -20 -29 -1 -29 19 0 19 -10
0 -37 -12 -16 -12 -22 -2 -26 6 -3 -3 -6 -20 -6 -30 -1 -33 2 -33 29 0 17 -4
30 -8 30 -11 0 -9 -53 2 -61 5 -4 5 -13 1 -20 -6 -9 -11 -6 -18 12 -6 13 -9
31 -8 39 2 10 -4 8 -18 -7 -26 -27 -26 -29 -1 -36 20 -5 28 -27 10 -27 -5 0
-19 -10 -30 -22 -20 -21 -97 -37 -85 -18 3 5 2 10 -2 13 -5 2 -3 2 4 1 7 -2
15 1 18 6 4 6 11 10 16 10 6 0 7 -4 4 -10 -3 -6 4 -10 16 -10 18 0 20 3 11 12
-16 16 -15 41 1 35 8 -3 12 6 13 24 1 16 -3 26 -7 23 -5 -3 -18 1 -30 9 -20
14 -20 16 -2 26 16 9 16 10 1 11 -9 0 -20 -5 -23 -10 -4 -6 -11 -8 -16 -5 -5
4 -9 1 -9 -4 0 -6 -4 -11 -10 -11 -15 0 0 28 18 34 10 2 6 4 -8 3 -19 -2 -26
-9 -31 -34 -5 -24 -3 -30 7 -26 22 8 16 -15 -6 -27 -22 -12 -27 -40 -7 -40 6
0 4 -5 -5 -11 -10 -5 -18 -16 -18 -23 0 -8 -6 -14 -12 -13 -31 1 -48 -4 -48
-13 0 -6 62 -10 165 -10 152 0 167 2 185 20 22 22 35 27 24 8 -5 -7 -2 -9 9
-5 11 4 14 2 11 -8 -5 -12 20 -14 155 -14 95 0 161 4 161 10 0 5 -6 9 -14 9
-22 0 -24 23 -4 43 18 17 18 17 12 -8 -5 -19 -2 -25 10 -25 9 0 15 -5 14 -11
-2 -6 3 -14 10 -16 8 -3 12 7 12 30 0 20 -6 38 -12 41 -10 5 -10 7 0 12 6 3
12 14 12 25 0 16 -6 19 -35 16 -32 -2 -40 -8 -36 -29 0 -5 -3 -8 -9 -8 -6 0
-11 -12 -11 -27 -2 -25 -2 -26 -6 -5 -3 18 -10 23 -24 19 -24 -7 -25 10 -1 18
11 3 24 17 31 31 6 14 16 24 22 22 21 -7 69 52 69 83 0 16 -5 29 -11 29 -5 0
-7 -5 -3 -11 4 -7 1 -10 -7 -7 -15 6 -15 8 -5 51 5 23 3 27 -14 27 -12 0 -20
-6 -19 -12 3 -27 -2 -38 -16 -38 -8 0 -15 -7 -15 -16 0 -10 -6 -14 -15 -10 -8
3 -15 2 -15 -3 0 -5 10 -11 23 -15 18 -5 19 -8 7 -15 -8 -6 -11 -13 -8 -17 10
-9 -38 -57 -61 -61 -17 -2 -21 3 -21 27 0 17 -4 30 -10 30 -5 0 -10 8 -9 18 0
10 3 12 6 5 2 -7 11 -13 19 -13 8 0 14 -6 14 -14 0 -8 8 -13 18 -11 9 2 20 4
25 4 14 2 7 32 -10 38 -25 9 -34 25 -21 40 6 7 7 14 2 14 -5 1 -13 2 -19 3
-19 3 -87 28 -113 43 -27 14 -26 14 13 8 22 -3 50 -8 62 -11 23 -4 40 10 24
20 -6 4 -5 17 2 35 11 30 -5 91 -25 91 -5 0 -7 9 -3 19 5 16 1 19 -15 18 -11
-1 -20 -7 -20 -15z"/>
<path d="M6573 422 c-17 -3 -23 -10 -23 -29 0 -20 -4 -24 -20 -20 -10 3 -19 2
-18 -2 3 -24 -5 -41 -23 -46 -12 -4 -18 -13 -15 -20 3 -8 -1 -19 -9 -25 -16
-13 -9 -40 10 -40 19 0 30 21 16 30 -9 5 -8 10 4 20 13 11 15 10 10 -2 -7 -18
32 -32 49 -19 6 5 25 12 43 16 26 5 34 2 45 -14 7 -12 17 -21 22 -21 4 0 1 11
-7 24 -19 28 -13 36 25 36 24 0 27 2 16 14 -7 8 -14 10 -16 5 -6 -16 -22 -10
-22 9 0 10 -6 24 -12 31 -11 10 -8 10 15 2 31 -12 36 -5 10 15 -11 7 -30 10
-47 7 -17 -4 -27 -2 -23 3 9 16 -6 30 -30 26z"/>
<path d="M5899 124 c14 -10 21 -23 18 -35 -3 -12 4 -24 19 -34 29 -19 32 -19
37 3 3 14 6 13 14 -8 9 -21 12 -22 18 -8 4 9 4 22 0 28 -4 6 4 10 20 10 20 0
26 -4 21 -15 -4 -12 0 -14 22 -9 23 4 24 3 10 -6 -25 -16 -23 -33 3 -25 14 5
25 2 30 -6 6 -10 9 -10 9 -2 0 6 -5 15 -10 18 -15 9 10 30 39 32 18 2 22 -2
18 -17 -4 -16 -1 -17 19 -10 13 5 23 6 22 2 -2 -12 13 -42 22 -42 6 0 7 34 1
73 -1 4 -12 7 -26 7 -14 0 -25 5 -25 11 0 5 4 8 9 5 5 -3 12 1 15 10 9 24 7
29 -6 16 -7 -7 -20 -12 -30 -12 -10 0 -18 -5 -18 -11 0 -9 -4 -9 -14 0 -10 8
-21 7 -46 -6 -20 -9 -35 -12 -37 -6 -2 5 -16 8 -32 5 -16 -2 -32 1 -36 8 -5 8
-10 8 -20 0 -9 -8 -12 -4 -9 17 2 16 1 20 -2 10 -6 -19 -31 -17 -26 2 1 6 -10
11 -25 11 l-27 0 23 -16z"/>
</g>
</svg>
