<?xml version="1.0" standalone="no"?>
<!DOCTYPE svg PUBLIC "-//W3C//DTD SVG 20010904//EN"
 "http://www.w3.org/TR/2001/REC-SVG-20010904/DTD/svg10.dtd">
<svg version="1.0" xmlns="http://www.w3.org/2000/svg"
 width="850.000000pt" height="850.000000pt" viewBox="0 0 850.000000 850.000000"
 preserveAspectRatio="xMidYMid meet">
<metadata>
Created by potrace 1.16, written by Peter Selinger 2001-2019
</metadata>
<g transform="translate(0.000000,850.000000) scale(0.100000,-0.100000)"
fill="#000000" stroke="none">
<path d="M5885 7530 c-4 -6 -22 -17 -42 -25 -42 -18 -79 -47 -180 -140 -128
-118 -213 -205 -213 -217 0 -6 -3 -8 -7 -5 -6 7 -30 -21 -31 -36 0 -5 -10 -17
-21 -26 -11 -10 -18 -21 -16 -25 3 -3 2 -4 -2 -1 -3 3 -12 0 -20 -6 -10 -9
-10 -15 -2 -25 16 -20 1 -38 -19 -22 -13 11 -15 10 -10 -10 6 -20 4 -21 -10
-10 -13 11 -15 10 -9 -10 8 -31 -2 -59 -14 -40 -7 10 -9 10 -9 -2 0 -9 5 -21
10 -26 8 -8 6 -15 -5 -24 -10 -8 -15 -9 -15 -1 0 6 5 11 12 11 6 0 8 3 5 6
-10 11 -38 -18 -33 -33 3 -8 -1 -16 -9 -19 -8 -4 -12 -11 -8 -17 4 -6 0 -8 -9
-5 -11 5 -14 0 -10 -18 3 -15 0 -24 -8 -24 -6 0 -10 -6 -7 -12 2 -7 -3 -18
-12 -25 -11 -8 -12 -12 -3 -13 17 0 15 -30 -3 -30 -8 0 -15 -6 -15 -14 0 -8
-4 -16 -10 -18 -5 -1 -13 -25 -16 -53 -4 -27 -13 -54 -21 -58 -7 -4 -13 -19
-13 -33 0 -14 -4 -23 -9 -20 -5 3 -14 -8 -21 -24 -7 -17 -17 -30 -22 -30 -5 0
-6 -6 -2 -12 5 -8 0 -7 -11 2 -17 14 -18 14 -6 -9 7 -13 8 -21 3 -17 -16 9
-39 -3 -57 -31 -10 -14 -12 -22 -6 -19 6 4 11 3 11 -2 0 -5 12 -15 28 -23 28
-14 62 -44 62 -54 0 -4 -14 4 -32 17 -18 12 -37 23 -43 24 -62 10 -60 11 -60
-25 0 -22 5 -36 15 -38 12 -4 13 -3 1 5 -7 5 -10 15 -7 21 10 16 26 14 26 -4
0 -18 12 -19 28 -3 7 7 12 8 12 2 0 -6 -9 -19 -21 -30 -16 -14 -35 -18 -85
-17 -45 0 -64 -3 -61 -11 2 -6 11 -10 20 -10 9 1 14 -3 11 -8 -4 -6 6 -8 27
-4 l34 6 -30 -14 c-16 -8 -24 -15 -16 -15 11 -1 11 -4 0 -17 -12 -15 -11 -16
9 -10 13 5 22 3 22 -3 0 -6 -8 -11 -17 -12 -13 0 -11 -3 6 -10 14 -5 31 -7 38
-4 8 2 11 0 8 -5 -10 -17 25 -59 43 -53 15 6 16 5 2 -12 -14 -17 -13 -18 11
-12 20 5 29 3 33 -9 5 -14 4 -15 -9 -4 -10 8 -15 9 -15 2 0 -6 18 -17 40 -23
21 -7 37 -16 34 -20 -3 -5 4 -9 16 -9 16 0 20 -4 15 -19 -5 -16 -2 -18 15 -14
16 4 19 2 14 -11 -4 -12 -2 -15 9 -10 8 3 18 1 21 -4 3 -6 16 -8 29 -6 l22 5
-22 -10 c-21 -10 -23 -41 -3 -41 5 0 12 -9 15 -21 6 -17 12 -20 39 -15 29 5
29 5 9 -7 -15 -8 -19 -17 -14 -26 6 -8 10 -9 12 -2 3 7 14 8 34 2 l30 -9 -27
-1 c-33 -1 -47 -20 -24 -33 9 -5 14 -13 11 -19 -4 -5 0 -9 8 -9 14 0 49 -59
42 -70 -2 -4 9 -4 26 -2 18 3 29 0 29 -8 0 -7 7 -10 15 -6 13 5 20 -5 13 -19
-2 -2 6 -11 17 -19 15 -12 16 -15 5 -16 -13 0 -13 -1 0 -10 12 -8 12 -10 1
-10 -11 0 -11 -3 -1 -15 19 -23 6 -28 -18 -7 -16 14 -18 22 -10 30 9 9 9 12 0
12 -7 0 -12 7 -12 15 0 8 -9 19 -20 25 -16 9 -20 8 -20 -5 0 -8 5 -15 11 -15
5 0 8 -4 4 -9 -3 -5 -1 -12 5 -16 5 -3 10 -15 10 -26 0 -10 6 -19 13 -19 8 0
24 -11 37 -25 19 -21 21 -25 7 -25 -9 0 -17 7 -17 15 0 8 -4 15 -10 15 -13 0
-13 -17 -1 -25 6 -3 10 -13 10 -23 -1 -39 10 -102 21 -121 6 -12 8 -26 5 -31
-9 -14 -6 -13 49 15 27 14 55 25 62 25 6 0 23 15 37 34 14 18 51 45 82 60 98
48 181 136 177 187 -2 20 2 29 13 29 26 0 12 37 -15 37 -8 1 -38 3 -67 6 -29
4 -55 2 -58 -3 -10 -16 -25 -11 -19 5 7 18 -17 20 -34 3 -10 -10 -12 -7 -10
12 2 19 -1 24 -14 22 -10 -2 -18 2 -18 8 0 5 -8 10 -17 11 -14 0 -13 2 4 9 19
8 21 13 13 37 -4 15 -11 40 -14 56 -4 15 -13 27 -21 27 -8 0 -17 11 -21 25 -3
14 -10 25 -15 25 -5 0 -9 5 -9 10 0 6 9 10 20 10 11 0 20 5 20 10 0 6 9 10 20
10 15 0 20 7 20 25 0 14 -6 25 -12 25 -7 0 -4 7 7 16 11 8 27 13 36 11 12 -3
15 1 12 14 -3 11 0 19 8 19 7 0 10 3 6 6 -8 8 18 34 33 34 6 0 8 5 5 10 -3 6
-2 10 4 10 6 0 8 7 5 15 -4 9 -1 15 8 15 7 0 18 8 25 19 6 10 30 28 52 39 l40
21 -17 -33 c-13 -27 -21 -32 -34 -25 -24 13 -36 10 -18 -4 28 -23 67 -94 57
-103 -4 -4 -13 -1 -22 6 -12 10 -15 10 -15 -3 0 -8 -7 -18 -16 -21 -8 -3 -12
-10 -9 -16 3 -5 -1 -10 -10 -10 -11 0 -15 -5 -11 -15 3 -8 -4 -24 -16 -35 -15
-13 -18 -23 -11 -32 5 -7 10 -24 11 -37 1 -28 21 -51 46 -55 9 -1 34 -20 56
-41 l40 -39 0 49 c1 28 3 85 6 129 4 66 2 77 -11 73 -19 -8 -29 9 -12 20 18
10 50 74 64 128 30 107 34 127 28 148 -5 16 -4 18 3 8 8 -11 11 -9 17 9 5 15
2 25 -6 31 -11 7 -11 9 2 9 9 0 20 11 23 24 3 13 9 31 12 40 4 11 1 16 -10 16
-9 0 -16 5 -16 11 0 5 4 8 8 5 17 -10 53 25 47 45 -4 10 -2 19 3 19 24 0 110
273 128 409 11 83 12 209 3 251 -15 66 -32 124 -39 130 -3 3 -17 23 -30 45
-13 22 -35 53 -50 68 -26 29 -80 63 -80 50 0 -4 -5 -2 -12 5 -15 15 -104 16
-113 2z m-197 -962 c0 -18 3 -44 7 -58 9 -36 -25 -76 -53 -61 -15 8 -23 7 -32
-4 -10 -12 -9 -15 9 -15 11 0 21 -5 21 -11 0 -6 15 -2 35 10 40 23 44 20 15
-11 -23 -25 -27 -47 -6 -29 7 6 22 8 31 4 13 -5 16 -3 10 7 -5 8 -3 11 4 9 7
-3 12 -8 12 -12 -1 -4 -1 -14 -1 -22 0 -8 -8 -15 -17 -16 -11 0 -13 -3 -5 -6
17 -7 15 -42 -3 -49 -8 -4 -15 -10 -15 -16 0 -5 -12 -20 -26 -33 -15 -14 -23
-29 -18 -36 5 -8 0 -10 -17 -6 -13 3 -31 2 -39 -3 -12 -8 -10 -10 10 -11 l25
0 -23 -11 c-12 -6 -21 -16 -19 -22 2 -6 -10 -16 -27 -22 -17 -6 -36 -19 -41
-30 -6 -10 -15 -20 -21 -21 -13 -2 -17 46 -5 61 5 6 5 21 -1 36 -10 24 -10 24
-18 5 -8 -18 -9 -18 -9 5 -1 14 -19 61 -41 105 -46 92 -47 101 -20 110 11 3
20 12 20 20 0 7 15 23 34 34 37 23 51 27 40 10 -4 -7 -1 -10 7 -7 8 3 14 10
14 16 0 6 11 19 25 29 33 23 46 35 53 53 5 13 6 13 6 0 1 -9 -4 -21 -10 -27
-6 -6 -7 -13 -1 -17 5 -3 17 10 28 29 16 30 27 39 56 44 4 0 6 -14 6 -31z"/>
<path d="M8197 6775 c-6 -14 -24 -14 -89 1 -16 4 -28 2 -28 -4 0 -5 -9 -12
-21 -15 -21 -6 -21 -6 3 -39 13 -18 26 -34 31 -36 12 -6 8 -77 -5 -90 -7 -7
-19 -12 -27 -12 -9 0 -33 -20 -55 -44 l-38 -43 -24 23 c-15 16 -29 22 -41 17
-33 -12 -73 -44 -73 -59 0 -8 -5 -13 -11 -11 -6 1 -14 -4 -16 -10 -3 -7 2 -13
10 -13 8 0 15 -10 15 -22 0 -21 20 -70 58 -140 9 -16 29 -31 52 -39 20 -6 43
-16 49 -21 7 -6 22 -8 33 -5 11 3 45 -3 76 -13 74 -22 104 -10 125 52 7 24 21
49 31 56 14 10 16 25 13 80 -4 80 2 112 22 112 10 0 12 6 8 19 -5 15 -2 18 14
14 25 -6 51 35 30 48 -11 6 -10 9 3 14 9 4 23 8 32 9 32 4 27 17 -33 78 -33
35 -61 66 -61 71 0 4 -8 7 -19 7 -10 0 -24 7 -31 15 -16 19 -26 19 -33 0z"/>
<path d="M1530 6555 c-39 -18 -95 -76 -111 -115 -53 -130 -30 -326 59 -495 48
-92 240 -305 342 -381 139 -104 267 -233 311 -314 13 -25 33 -58 44 -75 12
-16 27 -42 35 -57 7 -16 17 -28 22 -28 4 0 8 -7 8 -15 0 -20 48 -122 61 -130
15 -10 20 -1 23 39 4 48 16 58 18 15 2 -55 3 -58 16 -71 6 -6 12 -20 12 -29 0
-24 16 -32 71 -36 26 -1 67 -10 91 -20 28 -11 76 -18 138 -19 58 -1 112 -8
139 -18 33 -12 61 -15 108 -10 77 8 148 -16 140 -48 -3 -10 -1 -21 4 -24 6 -3
5 -11 -2 -20 -9 -11 -9 -14 1 -14 7 0 10 -8 7 -20 -4 -14 0 -20 11 -21 11 0
12 -2 5 -6 -19 -7 -16 -43 3 -43 8 0 13 -4 10 -9 -8 -13 4 -42 15 -35 5 3 9 1
9 -5 0 -5 -5 -13 -10 -16 -6 -4 -7 -12 -3 -18 13 -21 12 -55 -3 -61 -8 -3 -14
-12 -14 -21 0 -14 19 -19 58 -18 9 1 5 -8 -9 -23 -20 -21 -21 -24 -5 -24 15 0
16 -3 6 -15 -9 -11 -10 -15 -1 -15 18 0 43 -28 36 -40 -3 -5 -2 -10 2 -10 5 0
9 -9 10 -21 1 -12 9 -26 19 -33 12 -9 15 -22 11 -49 -3 -20 -1 -37 4 -37 5 0
8 -10 6 -22 -2 -13 -2 -18 0 -11 2 7 13 15 23 18 25 8 34 35 12 35 -14 0 -18
8 -18 35 0 19 1 35 3 35 2 0 11 -17 20 -37 11 -22 27 -39 40 -43 25 -5 83 -50
83 -62 0 -5 -8 -8 -17 -8 -14 0 -15 -2 -4 -9 11 -7 10 -11 -7 -20 -11 -6 -27
-11 -35 -11 -8 0 -18 -7 -21 -16 -5 -12 -2 -15 11 -10 10 4 14 4 10 0 -4 -4
-2 -13 3 -19 8 -9 4 -14 -15 -19 -37 -9 -32 -29 6 -21 30 7 30 7 12 -14 -19
-23 -66 -30 -57 -8 2 7 -7 19 -20 27 -14 7 -23 17 -20 21 2 4 0 10 -6 14 -6 4
-8 11 -5 16 4 5 -1 9 -9 9 -9 0 -13 6 -10 14 3 7 -2 16 -10 19 -9 4 -16 12
-16 19 0 7 -11 35 -25 62 -14 27 -25 55 -25 61 0 6 -10 31 -22 56 -12 24 -21
48 -20 52 2 8 -3 28 -26 97 -2 8 -6 24 -8 35 -1 11 -5 34 -9 50 -9 42 -11 53
-20 113 -4 28 -11 52 -16 52 -5 0 -9 9 -9 20 0 14 -7 20 -21 20 -18 0 -19 3
-9 15 12 15 7 45 -7 45 -5 0 -14 -10 -22 -21 -10 -17 -10 -23 -1 -29 15 -9 4
-30 -16 -30 -8 0 -21 -18 -30 -39 -8 -22 -21 -42 -28 -44 -17 -7 -14 -76 3
-86 16 -10 6 -31 -15 -31 -8 0 -14 -5 -14 -11 0 -5 4 -8 8 -5 5 3 1 -27 -8
-67 -10 -42 -13 -74 -8 -78 13 -8 -9 -52 -34 -68 -26 -16 -31 -10 -19 23 10
24 8 26 -14 26 -29 0 -43 -19 -24 -31 8 -5 10 -9 5 -9 -5 0 -3 -6 3 -14 10
-11 8 -17 -9 -29 -11 -8 -22 -23 -24 -34 -9 -42 -10 -79 -4 -89 4 -5 2 -28 -3
-50 -23 -89 -27 -119 -17 -125 6 -4 6 -13 0 -25 -36 -70 -37 -75 -19 -106 22
-38 21 -48 -2 -48 -23 0 -36 -16 -21 -25 5 -3 10 -26 10 -51 0 -25 5 -44 11
-44 7 0 9 -12 5 -35 -6 -28 -4 -35 9 -35 18 0 19 -13 4 -38 -9 -14 -8 -26 5
-50 9 -18 14 -37 11 -42 -3 -4 0 -20 7 -35 9 -21 9 -28 -1 -35 -8 -4 -11 -13
-7 -18 4 -6 -3 -16 -15 -22 -16 -9 -18 -15 -10 -23 8 -8 14 -8 19 -1 8 11 62
17 62 6 0 -4 -16 -22 -35 -41 -23 -22 -35 -43 -35 -60 0 -25 1 -24 17 9 9 19
18 37 19 39 2 2 15 0 29 -3 24 -6 25 -8 10 -29 -8 -12 -15 -32 -15 -45 0 -21
-2 -23 -16 -11 -13 10 -17 10 -25 -2 -12 -20 -11 -67 2 -71 8 -3 8 -10 -2 -26
-12 -20 -12 -24 1 -32 12 -8 13 -13 2 -30 -9 -15 -10 -26 -1 -41 6 -11 8 -27
5 -35 -3 -8 -1 -14 4 -14 6 0 10 10 11 23 1 12 5 2 10 -23 5 -25 6 -53 3 -63
-3 -10 1 -26 10 -36 15 -16 14 -19 -7 -39 -26 -25 -27 -43 -3 -136 8 -32 20
-100 27 -150 15 -116 16 -123 33 -231 11 -67 13 -100 5 -128 -8 -32 -7 -42 5
-56 9 -10 19 -31 22 -49 3 -17 15 -39 25 -48 10 -9 16 -20 13 -25 -3 -5 2 -20
11 -33 9 -14 14 -30 10 -36 -10 -17 5 -50 23 -51 11 0 12 -3 5 -6 -19 -7 -16
-31 8 -65 12 -16 18 -32 14 -36 -3 -4 -11 2 -17 13 -6 11 -22 30 -35 43 -13
12 -23 31 -23 40 0 9 -7 36 -15 60 -9 24 -16 55 -17 70 -1 15 -10 42 -20 60
-10 18 -18 41 -18 52 0 25 -15 33 -32 17 -8 -8 -32 -45 -53 -83 -69 -118 -168
-202 -301 -253 -44 -17 -98 -46 -120 -65 -21 -18 -53 -40 -71 -50 -18 -9 -46
-34 -64 -56 -18 -22 -36 -37 -42 -33 -6 3 -25 8 -44 10 -31 3 -33 2 -23 -17
10 -19 46 -35 66 -28 12 4 50 -35 59 -61 3 -12 22 -28 41 -36 31 -13 41 -12
97 5 34 10 121 23 193 29 98 8 140 15 165 30 19 10 78 26 133 34 54 9 103 20
109 26 5 5 11 46 12 91 2 44 5 84 9 87 9 10 32 -15 49 -54 43 -98 42 -93 51
-208 2 -27 4 -56 5 -62 1 -15 31 -18 31 -3 0 6 4 10 8 10 4 0 8 -23 7 -51 -1
-27 3 -53 8 -56 24 -15 23 -50 -3 -103 -20 -40 -26 -65 -23 -91 4 -30 1 -38
-22 -53 -31 -20 -136 -125 -170 -171 -16 -20 -22 -38 -19 -52 4 -14 -5 -37
-26 -67 -34 -50 -43 -54 -67 -30 -11 11 -19 12 -26 5 -6 -6 -17 -11 -25 -11
-7 0 -20 -6 -27 -14 -8 -7 -34 -17 -59 -20 -25 -4 -48 -11 -51 -17 -4 -5 -21
-9 -40 -9 -18 0 -40 -6 -48 -14 -7 -8 -39 -17 -70 -21 -51 -7 -59 -11 -78 -42
-18 -29 -26 -34 -49 -30 -15 3 -33 1 -40 -6 -10 -9 -11 -9 -8 3 3 9 -6 22 -19
31 -26 17 -25 20 22 44 25 13 49 58 33 64 -6 2 -15 -4 -20 -13 -11 -20 -57
-21 -64 -2 -5 13 -11 13 -40 -2 l-35 -16 26 -13 c14 -8 25 -22 25 -32 0 -26
-45 -36 -73 -16 -12 8 -31 15 -42 15 -19 0 -18 2 5 19 l24 19 -34 7 c-20 3
-73 -1 -120 -10 -97 -19 -116 -20 -149 -10 -22 7 -23 6 -18 -16 6 -27 -19 -51
-65 -62 -21 -6 -32 -2 -48 15 -20 21 -20 21 -20 1 0 -23 -52 -46 -127 -58 -24
-4 -45 -11 -49 -16 -3 -5 -15 -9 -28 -9 -12 0 -44 -11 -69 -24 -43 -21 -47
-22 -47 -5 0 29 -22 34 -41 11 -9 -12 -22 -22 -28 -22 -5 0 -14 -7 -19 -16 -9
-16 -23 -16 -63 0 -11 5 -34 -9 -72 -43 -42 -39 -56 -47 -61 -36 -3 8 -15 15
-26 15 -28 0 -25 17 4 24 14 3 32 14 42 23 9 10 44 32 78 50 123 66 135 73
140 91 3 10 19 23 36 29 27 10 42 41 23 44 -53 8 -64 6 -73 -12 -6 -10 -21
-19 -33 -19 -20 0 -20 2 8 20 30 20 31 19 -20 35 -8 2 -17 0 -20 -5 -4 -6 -15
-10 -27 -10 -16 0 -18 -3 -9 -13 8 -11 2 -16 -32 -24 -23 -6 -49 -13 -58 -17
-9 -4 -23 -1 -30 6 -19 18 -154 17 -192 -2 -23 -11 -30 -11 -36 -1 -6 10 -10
9 -14 -3 -8 -21 -74 -19 -82 2 -3 8 -12 12 -20 9 -9 -4 -12 -1 -9 8 8 20 -34
39 -60 27 -29 -14 -119 -24 -111 -13 10 18 -16 23 -38 8 -29 -19 -107 -32
-107 -19 0 6 10 12 23 14 12 2 26 13 32 26 5 12 13 22 18 22 4 0 6 4 3 9 -3 5
1 14 9 21 8 7 15 17 15 22 0 6 -6 6 -14 -1 -19 -16 -111 23 -102 44 4 10 -1
15 -14 15 -12 0 -20 7 -20 18 0 9 -12 22 -27 29 -32 13 -112 10 -122 -4 -3 -6
-26 -17 -50 -25 -43 -14 -53 -23 -65 -61 -4 -11 -15 -21 -26 -24 -25 -7 -30
-73 -5 -73 8 0 15 -8 15 -19 0 -10 -7 -24 -15 -31 -20 -17 -20 -70 0 -70 8 0
24 6 35 13 17 10 22 9 28 -1 5 -7 26 -12 53 -11 24 1 54 -1 66 -5 14 -4 36 2
66 18 32 18 63 26 104 28 32 1 77 10 101 20 48 20 65 23 42 8 -12 -8 -10 -10
10 -11 31 0 -59 -26 -119 -33 -22 -3 -51 -12 -63 -20 -12 -9 -37 -16 -55 -16
-18 0 -33 -5 -33 -11 0 -5 -5 -7 -12 -3 -6 4 -16 0 -22 -9 -7 -8 -32 -18 -58
-22 -39 -6 -48 -4 -67 16 -11 12 -21 26 -21 31 0 16 -25 8 -38 -12 -7 -11 -8
-20 -3 -20 5 0 11 5 13 12 5 14 38 4 38 -12 0 -5 -8 -10 -17 -10 -27 -1 -68
-26 -55 -34 9 -5 9 -12 0 -25 -17 -27 -2 -91 22 -91 32 0 32 -18 0 -25 -16 -4
-30 -11 -30 -17 0 -6 9 -7 22 -3 13 4 43 9 68 10 25 1 55 6 68 10 18 6 21 4
16 -10 -6 -14 -1 -16 32 -15 68 3 74 0 55 -28 -6 -11 -13 -11 -36 0 -22 10
-29 10 -33 0 -2 -6 -15 -12 -29 -12 -27 0 -84 -31 -116 -63 -10 -10 -25 -16
-33 -13 -11 4 -15 0 -12 -16 2 -14 12 -24 28 -28 27 -6 35 -34 10 -36 -36 -2
-40 -5 -40 -29 l0 -25 1220 0 1220 0 22 22 21 21 8 -21 c12 -31 45 -28 53 4 7
26 31 29 31 3 0 -8 8 -14 17 -14 9 0 20 -4 24 -8 12 -11 2092 -9 2099 3 3 6
14 10 24 10 14 0 17 6 13 27 -4 24 -3 25 19 20 13 -4 27 -7 32 -7 13 0 8 -20
-6 -20 -7 0 -18 -9 -25 -20 -12 -20 -10 -20 113 -19 110 1 126 3 123 17 -2 9
-14 22 -28 29 -23 11 -50 40 -50 53 0 3 9 11 21 18 18 12 23 11 35 -7 15 -20
15 -20 34 -1 27 27 25 32 -7 24 -22 -6 -25 -4 -20 10 5 12 1 16 -14 16 -16 0
-20 5 -16 20 3 11 1 20 -4 20 -5 0 -9 4 -9 9 0 13 79 8 84 -6 3 -7 11 -10 18
-8 19 8 18 -57 -1 -72 -14 -11 -14 -14 -1 -22 11 -8 17 -3 27 20 7 17 20 29
31 29 10 0 26 6 37 14 17 12 17 13 -8 20 -26 6 -38 26 -16 26 8 0 8 5 -1 15
-19 23 -4 18 25 -9 26 -24 40 -27 63 -13 7 5 12 3 12 -3 0 -6 7 -18 15 -26 8
-9 15 -21 15 -27 -1 -7 -12 1 -25 18 -22 26 -25 27 -31 11 -10 -26 32 -56 68
-49 30 6 39 -11 11 -21 -14 -6 -14 -8 3 -21 10 -8 27 -15 36 -15 17 0 34 -17
25 -26 -2 -2 -16 0 -31 5 -20 8 -26 7 -26 -3 0 -8 -17 -21 -37 -29 -21 -9 -30
-16 -20 -16 10 -1 27 4 38 9 13 7 19 7 19 0 0 -6 70 -10 205 -10 113 0 205 4
205 9 0 17 -29 33 -50 26 -16 -5 -23 -2 -26 13 -4 14 -12 18 -30 14 -17 -3
-30 3 -44 19 -37 45 -21 59 47 40 39 -11 46 -5 27 24 -8 13 -11 25 -7 28 17
11 40 -20 52 -71 12 -47 15 -52 41 -52 16 0 30 -3 32 -7 2 -5 19 -16 38 -25
26 -13 62 -17 148 -17 65 0 112 4 112 9 0 6 -4 10 -10 10 -16 0 -51 44 -46 57
4 9 -4 13 -24 13 -32 0 -42 23 -15 34 8 3 15 1 15 -4 0 -6 5 -10 11 -10 6 0 9
6 6 14 -3 8 0 17 8 19 19 8 27 -4 13 -20 -14 -17 13 -39 60 -48 30 -6 36 -14
33 -42 -1 -6 3 -14 9 -18 6 -4 10 -3 9 2 -7 39 2 51 36 50 20 -1 34 -6 32 -11
-6 -17 44 -37 73 -31 18 4 31 1 39 -9 12 -14 139 -16 1117 -16 l1104 0 0 735
0 736 -21 -12 c-12 -6 -30 -9 -40 -6 -21 6 -27 -21 -8 -40 12 -12 2 -63 -13
-63 -6 0 -16 7 -23 17 -15 20 -45 11 -45 -15 0 -41 -67 -61 -77 -22 -7 25 -28
25 -59 1 -18 -14 -34 -18 -59 -14 -24 4 -39 1 -50 -11 -15 -15 -18 -15 -33 4
-15 18 -20 19 -42 7 -14 -8 -61 -22 -103 -32 -63 -15 -80 -23 -90 -43 -10 -21
-20 -25 -72 -27 -33 -2 -89 -7 -124 -12 -54 -8 -67 -6 -86 8 -13 11 -31 16
-43 12 -12 -3 -22 -1 -22 4 0 10 -47 28 -100 38 -19 3 -48 12 -65 20 -16 7
-59 18 -95 25 -36 6 -69 17 -75 23 -6 7 -45 13 -100 14 -49 1 -118 6 -152 12
-35 6 -140 13 -235 16 -95 2 -220 8 -278 14 -58 6 -245 12 -416 13 -340 2
-344 2 -344 -53 0 -31 3 -32 90 -44 88 -12 176 -18 249 -16 52 1 92 -5 137
-20 41 -14 75 -19 101 -16 21 3 55 8 76 12 20 3 37 1 37 -4 0 -5 18 -7 40 -4
33 5 40 3 40 -12 0 -14 -8 -16 -47 -15 -72 4 -81 1 -54 -13 14 -6 26 -17 28
-24 5 -13 -70 -28 -88 -17 -18 11 -248 14 -255 3 -3 -5 14 -18 37 -28 l42 -19
-46 -7 c-27 -4 -60 -3 -78 4 -48 17 -119 14 -119 -4 0 -21 30 -34 86 -37 27
-1 54 -6 60 -10 16 -12 68 -3 95 16 13 9 19 16 14 16 -5 0 -4 5 2 11 13 13
268 17 280 6 3 -4 49 -4 102 -1 53 3 117 1 143 -5 26 -6 127 -11 225 -12 218
-1 237 -4 252 -35 10 -23 9 -24 -32 -26 -23 -1 -61 -1 -84 0 -23 2 -44 -2 -48
-8 -3 -5 -15 -10 -26 -10 -14 0 -19 -7 -19 -26 0 -25 -2 -25 -41 -19 -29 5
-45 3 -57 -8 -26 -22 -79 -35 -170 -40 -45 -3 -88 -9 -95 -15 -18 -14 -75 -23
-82 -12 -10 17 -36 11 -34 -7 3 -35 -1 -45 -16 -40 -8 4 -17 2 -20 -3 -8 -13
-55 -13 -55 0 0 17 -48 11 -62 -7 -7 -10 -30 -26 -50 -35 -32 -15 -38 -15 -49
-2 -15 18 -44 14 -44 -6 0 -11 -14 -16 -55 -18 -30 -2 -58 -8 -61 -14 -4 -6
-15 -8 -25 -3 -11 4 -42 8 -71 9 l-52 2 20 -24 c23 -30 19 -37 -18 -27 -15 5
-32 7 -38 6 -5 -1 -15 5 -21 14 -8 11 -18 14 -26 9 -7 -5 -21 -7 -31 -6 -9 2
-30 -6 -46 -17 -24 -18 -33 -19 -60 -10 -38 13 -47 8 -32 -19 15 -28 14 -42
-4 -42 -8 0 -15 4 -15 9 0 5 -8 7 -19 4 -15 -4 -18 0 -14 21 5 23 2 26 -21 26
-15 0 -38 -7 -52 -16 -29 -20 -48 -9 -20 12 11 8 14 14 8 14 -7 0 -12 5 -12
10 0 6 15 8 38 5 20 -4 69 -1 107 5 39 7 85 14 103 17 17 3 32 9 32 14 0 8
-15 13 -32 10 -5 0 -8 4 -8 10 0 6 6 9 14 6 9 -4 12 2 11 16 -1 12 -3 27 -4
34 0 6 -26 35 -57 64 -45 44 -55 59 -53 84 3 41 -16 82 -40 90 -12 3 -21 13
-21 21 0 8 -7 14 -15 14 -8 0 -12 6 -9 13 3 10 -8 17 -37 23 -37 8 -42 12 -44
37 0 16 3 31 8 34 4 2 5 13 2 23 -4 13 0 20 12 22 15 4 13 7 -10 18 -20 10
-26 18 -21 32 5 18 -11 27 -18 9 -5 -15 -40 -17 -45 -3 -3 7 7 15 25 18 21 4
29 11 25 20 -3 8 0 14 6 14 6 0 11 13 11 29 0 24 3 28 20 24 14 -4 22 1 29 20
8 19 15 24 35 20 30 -6 33 3 10 28 -22 24 -9 40 26 32 33 -6 38 5 20 52 -9 23
-7 31 12 51 13 13 29 24 35 24 16 0 27 43 19 75 -4 14 -2 25 3 25 5 0 21 16
35 35 25 32 26 38 16 75 -9 33 -8 47 5 75 9 19 14 38 11 43 -3 5 5 8 17 8 19
-1 22 6 29 59 7 56 15 80 41 130 13 25 10 115 -5 133 -14 17 -16 110 -3 116 6
3 2 10 -7 16 -20 12 -24 40 -7 40 7 0 9 12 5 33 -4 23 0 42 15 66 11 18 18 39
15 46 -2 7 0 17 6 23 12 12 17 71 6 78 -13 9 -9 24 7 24 8 0 15 5 15 10 0 6
-9 10 -20 10 -23 0 -26 10 -7 29 10 10 9 15 -5 25 -10 7 -18 20 -18 29 0 9 -5
19 -10 22 -6 3 -7 18 -4 32 4 16 2 29 -7 35 -11 8 -11 9 3 5 9 -3 24 0 34 7
17 13 17 15 1 30 -9 10 -17 14 -17 10 0 -15 -29 31 -30 47 0 9 -7 22 -15 29
-8 7 -15 21 -15 32 0 10 -7 21 -15 24 -8 4 -15 13 -15 20 0 8 -6 17 -14 20
-15 6 -16 35 -2 66 4 9 3 26 -4 37 -8 17 -8 21 4 21 8 0 16 -5 18 -12 2 -6 12
-9 21 -5 14 5 16 14 11 47 -6 33 -4 40 10 40 12 0 16 6 12 18 -7 22 8 47 23
38 7 -5 9 -1 5 8 -3 9 -11 16 -16 16 -6 0 -8 10 -5 22 4 12 1 28 -5 35 -8 10
-7 13 4 13 24 0 17 67 -10 86 -27 19 -28 34 -3 34 25 0 36 16 16 24 -8 3 -15
15 -15 26 0 13 -7 20 -20 20 -23 0 -27 15 -5 24 22 8 18 26 -5 26 -11 0 -20
-4 -20 -10 0 -5 -7 -7 -15 -4 -8 4 -15 15 -15 26 0 10 5 16 10 13 6 -3 10 -1
10 5 0 7 -6 10 -14 7 -8 -3 -27 11 -47 36 l-32 42 34 -31 c41 -36 79 -36 79 1
0 13 -4 27 -10 30 -15 9 -12 35 4 35 25 0 29 21 8 36 -15 10 -20 24 -19 44 1
17 5 30 9 30 4 0 5 12 3 28 -1 15 -8 26 -14 24 -16 -3 -51 16 -51 28 0 6 7 10
15 10 14 0 16 5 19 38 1 7 7 17 15 21 9 6 1 11 -26 16 -45 8 -63 21 -63 45 0
13 -10 19 -34 22 -30 3 -33 2 -25 -13 14 -27 11 -39 -8 -33 -17 5 -17 5 0 -6
24 -15 21 -27 -10 -44 l-28 -15 39 6 c29 4 37 3 32 -6 -4 -6 -11 -9 -15 -7 -4
3 -18 -8 -30 -24 -12 -17 -17 -30 -11 -30 6 0 8 -5 5 -10 -4 -6 -2 -17 4 -24
7 -8 11 -18 9 -22 -1 -5 3 -19 10 -31 10 -18 10 -23 1 -23 -8 0 -6 -7 4 -18
19 -21 23 -42 5 -24 -26 26 -28 10 -2 -23 20 -27 23 -35 11 -35 -11 0 -15 -7
-12 -22 3 -12 1 -26 -4 -32 -10 -12 -11 -16 -11 -42 0 -8 -4 -13 -9 -10 -5 3
-14 -1 -21 -9 -10 -12 -10 -18 0 -31 8 -8 9 -14 4 -13 -28 5 -42 -2 -37 -20 4
-16 1 -19 -16 -14 -17 4 -20 1 -18 -23 2 -25 -1 -29 -20 -27 -21 3 -29 -10
-24 -39 0 -5 -6 -8 -14 -8 -9 0 -12 -6 -8 -15 3 -9 2 -15 -3 -14 -5 1 -18 1
-29 0 -15 -1 -16 -4 -7 -13 15 -15 16 -32 2 -23 -5 3 -10 1 -10 -4 0 -6 -7
-11 -16 -11 -11 0 -14 -6 -10 -17 5 -15 4 -15 -9 1 -13 17 -15 18 -15 3 0 -9
-5 -17 -11 -17 -6 0 -8 7 -5 16 3 9 6 26 6 40 0 18 4 22 18 17 15 -6 15 -4 4
9 -11 14 -10 16 7 11 20 -5 55 19 44 31 -4 3 -1 6 7 6 10 0 10 4 -1 17 -13 17
-13 17 13 1 l27 -17 -3 42 c-2 24 -7 54 -11 68 l-7 24 17 -22 c9 -13 26 -22
38 -22 16 1 17 3 5 6 -9 2 -24 15 -33 29 -9 14 -21 22 -28 18 -7 -3 3 9 22 26
18 18 36 28 40 24 8 -11 32 -11 49 0 7 4 20 2 30 -5 17 -13 3 5 -46 60 -12 14
-19 27 -16 30 3 3 10 -2 15 -12 6 -9 18 -17 27 -17 15 1 15 2 -2 15 -12 9 -15
15 -7 15 11 0 11 3 1 15 -7 9 -10 18 -6 22 3 3 6 0 6 -7 0 -7 3 -10 7 -7 3 4
-4 19 -18 34 -13 14 -18 23 -11 19 6 -4 12 -2 12 3 0 6 -4 11 -10 11 -5 0 -10
5 -10 11 0 6 8 8 18 5 9 -3 -1 9 -22 28 -27 24 -35 35 -25 39 10 4 8 6 -5 6
-13 1 -17 6 -13 21 3 10 -1 24 -9 31 -8 6 -12 15 -9 19 5 8 -41 46 -60 50 -5
1 -12 4 -15 7 -3 4 1 3 8 -1 15 -9 16 10 0 20 -8 5 -6 10 8 15 15 6 12 8 -14
8 -24 1 -31 -3 -26 -11 13 -20 15 -77 4 -97 -7 -15 -6 -20 6 -25 8 -3 13 -10
9 -16 -3 -5 -1 -18 4 -28 7 -13 6 -23 -2 -31 -9 -10 -8 -15 7 -27 18 -12 15
-19 -6 -15 -5 0 -8 -4 -8 -9 0 -6 5 -10 11 -10 8 0 8 -4 0 -14 -9 -11 -7 -15
11 -20 19 -5 20 -8 8 -15 -12 -8 -12 -12 3 -29 17 -19 17 -20 -3 -25 -19 -5
-20 -9 -10 -29 8 -15 2 -12 -18 11 -16 19 -33 31 -39 28 -5 -3 -22 1 -38 9
-15 8 -30 12 -33 9 -3 -3 -16 5 -29 17 -19 17 -23 19 -17 5 12 -31 -18 -18
-53 23 -23 27 -43 40 -61 41 -24 2 -24 2 -4 6 31 6 28 15 -13 37 -38 21 -48
41 -14 31 l22 -7 -21 23 c-17 17 -19 26 -10 36 8 10 8 17 1 24 -8 8 -13 7 -17
0 -4 -6 -15 -11 -24 -10 -15 0 -15 1 1 7 16 7 16 9 -4 31 -16 17 -18 26 -10
34 8 8 11 6 11 -7 0 -9 4 -14 10 -11 6 3 7 -1 4 -9 -4 -11 0 -16 11 -16 22 0
54 -32 37 -38 -21 -7 -13 -21 23 -38 20 -9 33 -19 30 -22 -6 -6 103 -61 123
-62 6 0 12 5 12 11 0 5 4 8 9 4 5 -3 12 -1 16 4 3 6 13 8 23 5 15 -5 15 -4 -1
6 -34 22 -77 69 -77 86 0 13 -6 15 -27 10 -21 -5 -24 -4 -13 4 12 8 13 11 1
19 -11 7 -11 9 0 14 8 4 1 4 -14 0 -29 -6 -34 9 -11 33 13 14 66 14 76 -1 4
-6 8 -2 8 9 0 15 6 17 29 14 17 -2 28 -1 25 4 -3 4 0 8 5 8 6 0 11 4 11 9 0 8
-55 0 -127 -19 -23 -6 -33 -4 -37 5 -3 8 0 16 7 19 20 8 -15 27 -40 21 -17 -4
-21 -2 -17 10 4 8 -1 17 -10 21 -22 8 -10 24 14 19 25 -5 26 10 3 20 -17 7
-16 8 2 15 11 5 31 9 45 9 38 1 51 18 39 50 -6 14 -14 28 -19 31 -4 3 -10 21
-12 40 -3 31 0 35 22 38 14 1 31 3 38 4 6 1 12 5 12 10 0 5 5 6 10 3 6 -3 10
-1 10 4 0 14 -6 14 -30 1 -13 -7 -21 -6 -30 4 -9 12 -7 14 12 10 23 -5 23 -4
1 7 -24 13 -40 51 -17 42 8 -3 14 -10 14 -16 0 -6 3 -7 6 -4 11 10 -16 37 -60
59 -23 12 -35 23 -28 26 7 2 19 -2 28 -8 8 -7 17 -10 21 -6 8 7 -24 33 -50 39
-9 3 -15 1 -11 -4 3 -5 0 -9 -5 -9 -6 0 -11 9 -11 20 0 12 -7 20 -17 20 -14 0
-15 2 -4 9 11 7 9 10 -8 16 -18 6 -26 22 -22 48 1 4 -11 5 -26 2 -16 -3 -22
-2 -15 1 10 5 10 9 1 20 -8 9 -8 14 -1 14 6 0 14 -4 17 -10 3 -5 14 -10 23
-10 13 0 13 2 -4 15 -10 8 -26 15 -35 15 -9 0 -23 7 -30 17 -13 15 -12 15 6 6
27 -14 50 -6 32 11 -7 7 -19 15 -27 19 -12 4 -12 6 -1 6 11 1 10 6 -5 22 -19
22 -19 22 4 14 13 -4 34 -8 45 -10 12 -2 33 -7 46 -11 19 -6 23 -4 17 7 -5 9
-3 9 6 -2 14 -16 89 -49 111 -49 6 1 -1 7 -18 15 -33 15 -14 18 40 6 17 -4 45
-4 62 0 19 4 30 3 27 -2 -3 -5 3 -9 12 -9 10 0 42 25 72 56 42 44 57 53 64 43
10 -14 6 2 -10 40 -4 10 -1 12 8 6 10 -6 11 -2 5 21 -5 16 -9 57 -10 92 -1 69
-4 73 -60 102 -25 13 -31 19 -16 16 l23 -5 -23 25 c-23 25 -35 32 -24 14 7
-12 -8 -14 -19 -2 -13 13 -145 8 -151 -5 -2 -7 -10 -13 -17 -13 -7 0 2 14 19
30 28 25 37 28 59 20 35 -14 38 -13 20 6 -9 8 -13 21 -9 27 5 8 8 8 11 -1 6
-18 40 -15 38 4 -1 20 39 50 49 35 3 -7 -2 -11 -14 -11 -11 0 -23 -4 -26 -10
-4 -6 12 -10 42 -9 26 1 40 3 30 6 -9 2 -15 9 -11 14 9 14 -15 39 -32 32 -8
-3 -14 0 -14 6 0 6 -12 11 -26 11 -16 0 -23 -4 -18 -12 4 -7 3 -8 -5 -4 -6 4
-9 11 -6 16 3 4 -2 13 -10 20 -21 18 -8 31 23 24 25 -5 26 -4 9 9 -14 12 -26
13 -53 6 -19 -6 -38 -8 -42 -5 -5 3 -22 -3 -39 -14 -26 -15 -30 -16 -29 -3 0
9 -7 17 -17 19 -32 5 -32 14 1 14 22 0 35 7 43 22 12 22 12 22 -15 5 -29 -19
-34 -16 -11 7 14 13 13 16 -5 26 -17 9 -27 8 -46 -5 -13 -8 -24 -11 -24 -6 0
6 16 18 35 27 38 18 47 29 16 19 -13 -4 -23 0 -30 12 -9 16 -12 16 -21 3 -5
-8 -10 -11 -10 -6 0 16 31 45 43 40 7 -2 17 7 23 19 10 23 9 24 -23 21 -44 -3
-52 12 -10 20 27 6 29 8 15 17 -14 8 -28 3 -63 -21 -25 -17 -49 -39 -55 -49
-6 -12 -17 -17 -29 -14 -25 6 -33 -9 -22 -39 l10 -23 0 24 c1 15 6 21 15 18 7
-3 24 2 37 11 l24 16 -19 -22 c-11 -12 -25 -22 -33 -22 -26 0 -12 -28 20 -39
26 -10 29 -14 17 -22 -11 -8 -12 -12 -2 -16 8 -3 3 -12 -15 -26 -15 -12 -30
-22 -33 -22 -3 0 -10 -4 -17 -8 -8 -5 -10 2 -8 23 3 18 0 28 -5 25 -15 -9 -12
2 6 19 16 16 10 41 -7 31 -5 -4 -9 -2 -9 4 0 6 -7 8 -15 5 -12 -5 -13 -10 -4
-20 8 -9 8 -14 1 -14 -20 0 -24 21 -8 45 25 37 19 44 -9 10 -18 -22 -24 -25
-25 -13 0 9 6 19 13 21 9 4 9 7 0 14 -17 12 -3 28 27 31 68 5 81 9 107 33 15
14 45 39 66 54 33 24 36 30 22 38 -12 6 -25 5 -41 -4 -13 -7 -27 -9 -31 -6 -3
4 -1 7 6 7 7 0 10 4 6 9 -3 6 5 20 17 32 l23 21 -25 -7 c-22 -7 -23 -6 -11 9
10 12 11 16 1 16 -9 0 -7 7 5 20 21 23 11 27 -11 5 -17 -17 -39 -21 -29 -5 9
14 6 13 -58 -20 -32 -16 -60 -30 -62 -30 -2 0 -1 9 2 20 3 11 9 17 14 15 11
-7 74 20 84 35 5 9 1 10 -14 5 -14 -4 -23 -2 -27 8 -4 12 -12 13 -35 7 -33
-10 -36 -4 -12 22 16 18 16 18 0 12 -14 -5 -16 -2 -11 12 6 16 5 17 -7 7 -23
-22 -32 -14 -14 13 24 37 12 41 -14 5 -21 -30 -21 -30 -1 -36 11 -4 18 -11 14
-16 -9 -16 16 -39 43 -39 15 0 22 -4 17 -11 -3 -6 -15 -9 -25 -6 -12 3 -17 1
-13 -5 5 -7 -3 -9 -20 -6 -22 5 -27 2 -23 -11 2 -11 -2 -17 -13 -17 -16 0 -16
2 -3 23 8 13 19 20 24 17 5 -3 9 4 9 14 0 31 -29 36 -40 8 -5 -13 -14 -27 -20
-31 -7 -4 -6 1 2 15 10 17 10 24 1 27 -7 2 -10 10 -7 18 3 7 0 16 -6 20 -13 8
-42 -13 -35 -25 3 -5 1 -11 -4 -15 -6 -3 -8 14 -6 47 l5 53 -14 -40 c-14 -39
-14 -40 -16 -10 -2 30 -2 30 -10 5 -7 -23 -8 -22 -9 10 l-1 35 -16 -32 c-15
-31 -44 -46 -44 -23 0 5 -8 7 -17 3 -15 -5 -16 -3 -5 8 6 7 12 22 12 34 0 16
-3 15 -15 -9 -11 -21 -12 -32 -5 -42 11 -12 4 -80 -9 -88 -3 -2 -6 30 -6 71 0
41 -4 80 -8 86 -6 8 -7 5 -3 -5 6 -21 -2 -48 -15 -48 -5 0 -9 6 -9 14 0 8 -5
18 -10 21 -7 4 -9 -2 -5 -18 4 -14 2 -28 -5 -32 -8 -5 -8 -10 0 -21 7 -7 10
-19 7 -26 -2 -7 0 -22 5 -33 9 -19 8 -19 -5 -2 -8 10 -13 27 -10 37 3 11 0 20
-6 20 -6 0 -12 -10 -12 -22 -1 -18 -3 -17 -8 7 l-7 30 -17 -30 c-16 -27 -17
-27 -11 -5 3 14 10 30 15 35 4 6 3 17 -2 25 -8 12 -9 11 -7 -5 2 -12 -2 -19
-10 -17 -6 1 -11 -2 -10 -7 5 -15 -65 -91 -83 -91 -9 0 -20 -7 -23 -16 -9 -23
-7 -36 4 -29 18 11 11 -10 -9 -27 -18 -15 -19 -14 -17 14 1 23 -4 31 -17 34
-16 2 -18 -2 -12 -37 5 -26 3 -39 -5 -39 -6 0 -10 6 -9 13 3 24 -1 38 -10 33
-5 -3 -7 -14 -4 -25 3 -11 -2 -21 -11 -24 -11 -4 -16 -1 -16 11 0 19 -39 74
-40 56 0 -6 6 -17 14 -23 8 -7 14 -21 13 -31 -1 -16 -5 -14 -29 11 -35 36 -47
38 -19 2 12 -14 19 -28 17 -31 -8 -7 -85 79 -92 103 -7 21 -22 35 -38 35 -5 0
0 -10 12 -23 12 -13 22 -31 22 -40 0 -9 5 -19 10 -22 6 -3 10 -18 10 -33 -1
-24 -3 -22 -15 12 -7 22 -24 49 -36 60 l-21 21 12 -23 c22 -44 2 -34 -25 11
-32 56 -55 77 -55 53 0 -10 4 -15 10 -11 5 3 13 -9 18 -27 7 -25 5 -35 -5 -41
-15 -9 -53 17 -53 36 0 6 9 2 20 -8 33 -30 35 -8 2 25 -20 20 -32 26 -35 17
-3 -7 -6 -5 -6 6 -1 9 -6 17 -11 17 -7 0 -7 -7 0 -20 6 -11 16 -17 22 -14 8 5
9 1 5 -10 -4 -10 1 -29 10 -44 16 -25 16 -26 1 -14 -10 8 -20 22 -23 33 -3 10
-27 32 -53 50 -25 17 -40 24 -33 16 7 -9 10 -20 7 -25 -2 -4 11 -26 30 -47 51
-58 33 -54 -21 4 -27 28 -50 49 -53 46 -3 -3 0 -11 6 -17 18 -18 14 -32 -4
-17 -23 19 -49 22 -33 3 6 -7 15 -12 19 -9 4 3 13 -2 20 -10 9 -11 10 -15 1
-15 -8 0 -10 -8 -6 -21 5 -15 4 -19 -4 -15 -6 4 -11 13 -11 20 0 7 -12 23 -26
37 l-26 24 21 -43 22 -43 -23 13 c-13 7 -25 16 -28 19 -3 3 -13 8 -23 12 -15
6 -16 4 -7 -13 6 -11 14 -19 18 -17 4 1 8 -1 10 -5 2 -9 -6 -10 -31 -2 -9 3
-15 9 -12 14 9 14 -28 29 -86 35 -54 5 -63 -2 -13 -11 46 -8 68 -16 76 -28 15
-23 7 -28 -14 -10 l-23 19 19 -22 c23 -28 10 -30 -24 -3 -14 11 -29 20 -33 20
-11 0 11 -21 45 -42 22 -15 27 -15 32 -3 7 19 22 19 29 1 4 -10 1 -13 -7 -10
-8 3 -17 1 -20 -5 -5 -7 -15 -7 -33 0 -22 8 -24 7 -14 -4 17 -22 -50 -52 -80
-37 -18 10 -19 10 -10 -8 6 -11 25 -22 42 -26 18 -3 30 -8 27 -11 -2 -3 -19 0
-37 5 -22 6 -43 5 -71 -5 -22 -8 -40 -10 -40 -5 0 5 16 12 35 16 19 3 35 10
35 14 0 5 -15 4 -32 -1 -46 -13 -47 -12 -10 11 37 23 42 35 10 24 -20 -6 -21
-5 -9 9 11 15 10 18 -10 26 l-24 10 22 7 c13 3 20 10 17 15 -3 5 1 7 8 5 7 -2
29 -7 48 -10 l35 -5 -29 15 c-22 12 -25 18 -15 25 15 9 11 16 -11 20 -22 4
-94 -22 -103 -37 -4 -8 -13 -14 -20 -14 -8 0 -6 4 3 11 12 8 9 9 -12 5 -16 -4
-28 -2 -28 4 0 5 10 10 23 10 13 0 32 7 43 15 18 14 17 15 -11 9 -23 -5 -27
-4 -19 5 6 7 21 13 33 14 11 1 21 5 21 9 0 4 7 5 15 2 8 -4 12 -10 9 -15 -3
-5 2 -9 10 -9 8 0 18 5 22 11 4 7 24 9 53 5 l46 -6 -41 14 c-23 7 -47 17 -54
21 -8 5 -11 4 -6 -3 9 -15 -12 -26 -27 -13 -7 5 -24 8 -38 4 -23 -5 -24 -5 -4
10 11 9 27 17 35 18 8 1 2 5 -15 10 -24 7 -20 8 20 4 49 -3 50 -3 20 10 -16 8
-38 14 -47 15 -9 0 -19 4 -22 9 -3 5 0 9 7 8 31 -1 57 4 57 11 0 4 -22 7 -50
8 -37 0 -47 -2 -40 -11 8 -9 2 -14 -21 -19 -33 -6 -31 -26 4 -26 13 0 17 -4
11 -9 -11 -11 -104 -2 -104 10 0 5 -9 9 -19 9 -11 0 -23 5 -26 10 -4 6 -14 10
-23 8 -10 -1 -23 1 -30 5 -7 5 -12 5 -11 0 1 -4 0 -17 -1 -28 -1 -16 -4 -15
-15 10 -7 17 -10 34 -5 39 14 15 -1 37 -21 31 -11 -4 -19 -2 -19 5 0 6 -4 8
-10 5 -5 -3 -10 -1 -10 6 0 6 -8 9 -20 6 -11 -3 -20 -2 -20 3 0 13 -74 18 -82
6 -6 -8 -8 -8 -8 0 0 6 -17 14 -38 18 -22 3 -51 17 -67 31 -15 15 -34 24 -41
21 -8 -3 -14 0 -14 7 0 7 -26 21 -57 32 -72 24 -92 35 -99 57 -3 10 -11 18
-17 18 -7 0 -18 9 -25 21 -9 14 -20 19 -33 16 -10 -3 -19 -1 -19 4 0 21 -79
76 -102 71 -5 -1 -8 3 -8 8 0 6 -6 10 -13 10 -8 0 -22 9 -32 20 -10 12 -25 18
-32 16 -8 -3 -33 8 -56 25 -35 25 -42 28 -47 14 -5 -15 -8 -14 -23 3 -19 21
-129 73 -162 76 -5 1 -23 6 -40 12 -16 7 -57 17 -90 24 -33 6 -73 15 -90 20
-16 5 -75 11 -130 14 -79 5 -107 3 -135 -9z m949 -814 c24 -24 38 -86 22 -95
-6 -4 -11 -12 -11 -17 0 -6 5 -7 10 -4 14 9 35 -16 37 -43 1 -13 10 -30 19
-36 13 -10 15 -21 11 -46 -6 -28 -5 -31 8 -20 18 15 30 7 22 -14 -7 -17 -47
-17 -47 0 0 6 -15 19 -32 28 -20 9 -26 16 -15 16 23 0 22 10 -7 43 -28 32 -43
34 -67 6 -17 -19 -19 -20 -41 -5 -14 10 -17 16 -8 16 10 0 9 4 -5 13 -17 13
-17 14 5 20 12 3 19 10 15 16 -3 7 3 11 17 12 18 1 19 2 5 6 -11 3 -16 11 -13
19 3 8 1 14 -3 14 -5 0 -11 -7 -15 -15 -3 -8 -11 -15 -17 -15 -8 0 -8 4 1 15
7 8 10 24 7 35 -3 11 -1 20 4 20 5 0 9 -7 9 -15 0 -30 31 -10 36 23 7 46 23
53 53 23z m-22 -398 c-9 -2 -14 -9 -11 -15 4 -6 0 -15 -7 -20 -11 -8 -10 -9 3
-4 10 3 20 1 23 -4 8 -13 52 -13 60 0 9 15 22 12 29 -7 5 -11 1 -22 -10 -30
-16 -12 -16 -13 -1 -13 14 0 15 -4 6 -27 -14 -36 -21 -73 -14 -73 3 0 17 7 30
16 22 15 35 8 18 -9 -3 -4 -8 -19 -9 -34 -2 -14 -8 -29 -15 -33 -6 -4 -9 -12
-6 -18 7 -10 -18 -35 -45 -45 -10 -3 -19 0 -22 9 -3 9 -10 13 -15 9 -5 -3 -12
-1 -16 5 -4 6 -10 8 -15 5 -4 -3 -4 11 0 31 6 27 5 37 -6 41 -8 3 -11 9 -8 14
3 5 1 9 -3 9 -5 0 -7 16 -5 35 4 31 7 35 26 30 15 -5 17 -4 7 3 -11 8 -9 11
10 15 21 4 20 4 -6 6 -17 0 -36 6 -43 13 -8 8 -15 8 -27 -2 -13 -10 -15 -9
-15 7 0 10 -10 24 -22 29 -13 6 -17 9 -9 7 8 -2 17 0 20 6 11 16 75 50 96 49
17 0 17 -1 2 -5z m1237 -487 c7 -47 2 -65 -38 -121 -11 -16 -21 -34 -21 -40 0
-16 -78 -55 -112 -55 -45 0 -117 34 -158 74 -44 44 -46 70 -2 30 67 -62 116
-80 176 -64 43 11 107 75 115 112 3 13 7 35 10 50 3 15 2 38 -4 53 -9 23 -8
25 9 16 12 -7 21 -27 25 -55z m702 -56 c4 0 4 14 1 30 -6 26 -4 30 15 30 18 0
20 -4 15 -40 -3 -23 -1 -40 5 -40 5 0 6 5 3 10 -3 6 -2 10 4 10 5 0 13 -5 17
-12 5 -7 10 -3 16 13 5 14 12 19 16 13 12 -19 50 -35 57 -24 3 5 12 7 20 3 8
-3 15 0 15 6 0 6 7 11 15 11 8 0 15 -5 15 -11 0 -8 12 -9 37 -4 38 7 38 7 19
-14 -18 -20 -18 -20 13 -11 22 6 29 6 25 -2 -5 -8 -1 -9 10 -5 14 5 16 3 11
-12 -5 -16 -2 -19 17 -15 13 2 17 2 11 -2 -22 -10 -14 -24 14 -24 14 0 23 -3
20 -7 -4 -3 1 -12 11 -19 16 -12 16 -13 0 -14 -9 0 -21 -8 -27 -17 -5 -10 -13
-14 -17 -10 -5 5 -4 11 1 15 25 18 12 30 -30 28 -34 -1 -44 2 -40 12 3 8 0 12
-7 9 -7 -2 -12 -10 -10 -16 1 -6 -5 -11 -14 -11 -8 0 -12 -5 -9 -10 4 -6 11
-8 16 -5 5 3 18 -3 30 -14 15 -14 19 -25 14 -41 -5 -16 -9 -19 -15 -10 -4 7
-15 10 -23 7 -8 -3 -18 -2 -23 3 -5 5 -27 11 -49 14 -70 9 -87 17 -74 32 7 8
9 17 6 21 -4 3 -15 -5 -26 -18 -11 -13 -20 -19 -21 -12 0 6 6 14 13 16 7 3 5
6 -5 6 -10 1 -18 -3 -18 -9 0 -19 -27 -10 -38 13 -6 12 -11 16 -11 9 -1 -10
-5 -10 -20 0 -16 10 -25 9 -45 -1 -14 -8 -23 -18 -19 -24 4 -6 0 -6 -12 0 -21
12 -128 -24 -118 -40 4 -6 0 -8 -8 -5 -20 8 -53 -17 -43 -33 5 -9 2 -10 -9 -6
-10 3 -17 3 -17 -2 0 -4 -11 -6 -24 -4 -13 3 -27 0 -30 -6 -9 -14 -26 -14 -26
-1 0 6 5 10 11 10 6 0 24 14 39 30 15 17 34 30 40 30 10 0 10 3 0 15 -14 17
-43 19 -70 5 -10 -6 -21 -6 -24 -2 -5 9 8 34 18 33 20 -3 25 1 20 14 -4 8 -1
15 6 15 7 0 10 7 6 15 -4 12 0 14 22 9 20 -4 23 -3 13 5 -12 8 -10 11 11 16
15 4 33 3 40 -1 11 -6 11 -5 0 8 -10 13 -10 17 2 21 9 4 18 2 21 -3 4 -6 11
-10 16 -10 6 0 7 5 4 10 -9 14 19 12 33 -2 9 -9 12 -8 12 7 0 18 0 18 16 -1
15 -18 15 -18 11 7 -2 18 2 30 15 38 15 9 18 8 18 -10 0 -12 -4 -18 -11 -13
-7 4 -10 1 -7 -6 2 -7 12 -14 21 -16 9 -1 15 2 11 7 -3 5 0 9 5 9 6 0 11 -9
11 -20 0 -11 5 -20 11 -20 10 0 9 8 -7 85 -2 11 3 5 11 -12 8 -18 18 -33 21
-33z m140 -223 c22 4 34 2 34 -6 0 -6 18 -11 43 -12 62 -1 93 -12 89 -32 -2
-9 2 -17 8 -17 5 0 9 -5 8 -11 -2 -6 3 -14 11 -17 8 -3 11 0 7 7 -10 16 6 13
29 -5 20 -16 20 -16 -2 -10 -37 11 -48 -50 -15 -87 8 -9 12 -20 8 -24 -4 -4
-11 -1 -15 6 -5 7 -13 11 -19 7 -6 -4 -8 2 -5 13 4 15 -5 24 -38 40 -24 12
-51 19 -61 15 -10 -3 -18 0 -18 6 0 6 5 8 10 5 6 -3 10 -2 10 4 0 5 -12 8 -27
7 -16 -2 -33 0 -39 6 -7 5 -18 7 -25 6 -16 -4 -19 24 -4 34 16 12 25 9 19 -5
-3 -8 2 -20 11 -27 13 -11 15 -9 15 9 0 12 6 21 15 21 17 0 19 9 7 27 -5 8
-18 10 -32 6 -36 -9 -82 -8 -104 2 -13 6 -17 5 -13 -2 10 -16 -13 -21 -45 -12
-16 4 -28 4 -28 0 0 -4 -15 -8 -32 -9 -18 -1 -41 -5 -52 -8 -13 -4 -17 -2 -14
7 3 8 17 13 31 13 15 -1 27 2 27 7 0 8 43 18 88 22 12 1 22 5 22 9 0 5 9 4 19
-1 15 -8 21 -7 26 7 5 10 9 13 12 5 3 -7 17 -10 39 -6z m622 -695 c18 -12 25
-55 8 -49 -9 4 -13 -3 -13 -19 0 -26 7 -30 23 -14 7 7 17 5 30 -4 10 -8 16
-18 12 -22 -4 -4 -14 -1 -23 6 -25 21 -28 4 -4 -19 20 -19 25 -20 38 -6 13 13
12 17 -7 38 -25 26 -30 46 -8 27 17 -14 60 -84 47 -76 -5 4 -16 3 -25 0 -13
-5 -13 -10 -5 -27 9 -17 5 -15 -20 8 -26 24 -31 26 -26 10 7 -20 6 -20 -9 -1
-9 11 -18 17 -21 14 -3 -2 7 -15 22 -29 14 -13 23 -17 18 -9 -5 8 -4 12 0 7
10 -9 14 -47 5 -47 -3 0 -16 13 -27 28 -22 30 -49 37 -57 16 -6 -15 18 -26 39
-18 8 4 15 1 15 -5 0 -6 -6 -11 -12 -11 -7 0 0 -12 15 -26 31 -29 30 -42 -2
-24 -16 8 -21 8 -21 -2 0 -7 -7 -2 -16 10 -9 13 -14 26 -11 29 3 3 -3 14 -13
26 -11 11 -17 24 -14 29 3 4 -1 15 -10 23 -16 17 -30 20 -21 5 3 -6 -1 -7 -9
-4 -25 10 -18 22 10 19 15 -1 30 -8 34 -16 5 -7 16 -14 25 -15 10 -2 0 13 -24
38 -38 36 -51 58 -35 58 4 0 13 -8 21 -17 14 -17 14 -17 9 0 -3 11 0 17 10 17
9 0 12 5 8 12 -5 8 -2 9 9 5 10 -3 24 -4 32 -1 12 5 10 10 -8 25 -22 18 -14
26 11 11z m-928 -987 c14 -17 40 -20 40 -5 0 6 7 10 15 10 9 0 15 -9 15 -25 0
-14 5 -25 10 -25 6 0 10 3 10 8 0 4 10 13 21 20 29 19 52 -2 24 -22 -11 -8
-16 -19 -12 -30 4 -9 3 -16 -1 -16 -28 0 -36 -114 -8 -132 7 -4 4 -13 -7 -26
-22 -24 -24 -60 -3 -43 12 10 14 8 9 -11 -5 -23 -18 -59 -33 -89 -5 -9 -4 -21
2 -27 7 -7 6 -17 -2 -32 -9 -17 -14 -19 -26 -9 -11 9 -17 9 -29 -1 -21 -18
-27 4 -22 84 6 86 -14 193 -39 211 -10 7 -28 30 -39 52 -10 21 -27 49 -37 62
-25 33 -22 44 10 37 17 -4 35 -1 47 8 26 20 39 20 55 1z m-612 -589 c37 -19
76 -43 86 -55 11 -12 23 -21 29 -21 5 0 23 -6 40 -14 63 -27 252 -52 357 -47
30 2 78 12 106 22 58 22 101 24 198 11 62 -9 76 -7 150 17 47 16 101 42 129
64 34 26 59 37 83 37 19 0 34 -4 34 -8 0 -5 14 -30 31 -55 17 -26 42 -77 55
-114 14 -37 37 -80 51 -96 27 -27 27 -28 11 -60 -20 -41 -35 -82 -47 -132 -17
-68 -49 -149 -61 -153 -6 -2 -19 3 -30 13 -20 18 -81 18 -87 -1 -4 -11 63 -37
87 -34 42 6 45 -18 15 -120 -7 -25 -16 -60 -20 -78 -8 -39 -32 -90 -55 -117
-21 -25 -105 -164 -113 -188 -4 -10 -22 -24 -42 -33 -64 -27 -175 -159 -175
-210 0 -23 -37 -59 -60 -59 -41 1 -78 18 -88 40 -13 28 -34 32 -52 10 -20 -24
-40 -18 -40 11 0 21 -4 25 -17 19 -10 -4 -23 -8 -30 -9 -7 -1 -16 -5 -19 -9
-4 -4 -20 -7 -36 -7 -33 0 -36 -15 -11 -58 14 -24 15 -35 6 -55 -10 -22 -18
-25 -58 -25 -40 0 -47 3 -60 28 -17 33 -19 60 -6 60 13 0 24 37 15 51 -4 8 -9
7 -16 -2 -7 -11 -8 -9 -4 5 7 22 -35 96 -81 141 -18 17 -33 37 -33 43 0 6 -16
24 -35 39 -19 15 -30 30 -24 34 12 7 -25 75 -46 83 -8 3 -15 15 -15 26 0 11
-7 32 -16 45 -9 14 -14 32 -10 40 3 9 -1 36 -10 61 -14 40 -14 48 -1 68 10 15
12 28 6 37 -5 8 -9 24 -9 36 0 12 -12 34 -27 47 -25 23 -26 29 -16 56 20 52
-25 202 -87 290 -33 47 -55 360 -25 360 3 0 36 -15 73 -34z m3006 -1062 c9 -3
16 -17 16 -30 0 -19 5 -24 23 -23 16 1 18 2 5 6 -32 8 -19 20 25 22 23 2 96 4
162 6 66 2 127 4 135 4 89 4 317 -14 351 -28 15 -5 29 -8 31 -6 2 2 32 7 66
10 50 5 62 3 62 -8 0 -20 -23 -37 -51 -37 -45 0 -95 -6 -106 -13 -6 -4 -55 -8
-107 -9 -69 -1 -96 -5 -96 -14 0 -21 -23 -22 -65 -3 -22 10 -55 19 -72 19 -23
0 -33 5 -33 15 0 10 -10 15 -26 15 -22 0 -25 -2 -14 -15 10 -13 9 -15 -8 -15
-12 0 -24 5 -27 10 -3 6 -19 10 -34 10 -16 0 -41 6 -57 14 -19 11 -33 12 -46
5 -10 -6 -28 -7 -38 -4 -11 4 -77 2 -148 -4 -105 -9 -134 -8 -167 4 -23 8 -32
14 -20 15 11 0 33 7 49 15 15 8 47 15 70 15 22 0 50 7 60 15 21 16 36 18 60 9z
m-1304 -184 c13 -9 13 -11 0 -20 -12 -8 -13 -12 -2 -19 8 -4 13 -14 12 -22 -4
-27 0 -49 9 -49 5 0 9 6 8 13 0 6 1 20 1 30 2 18 3 18 19 1 10 -10 23 -36 29
-60 9 -36 8 -43 -7 -52 -10 -6 -19 -21 -21 -33 -5 -36 -21 -32 -46 11 -34 59
-49 50 -42 -27 2 -34 -30 -29 -43 7 -6 17 -15 30 -19 30 -8 0 1 71 11 82 4 4
19 -4 33 -17 l27 -25 1 27 c0 53 5 88 14 102 5 8 4 16 -5 22 -8 5 -9 9 -4 9 6
0 17 -5 25 -10z m-814 -330 c6 -6 22 -6 44 0 49 14 81 12 94 -5 9 -13 16 -13
42 -4 26 10 45 8 119 -12 89 -24 112 -42 82 -64 -12 -9 -13 -15 -5 -23 8 -8 8
-15 -1 -26 -10 -12 -8 -14 11 -9 18 4 20 3 8 -6 -8 -6 -10 -11 -5 -11 6 -1 -2
-8 -17 -16 -30 -15 -35 -28 -17 -39 6 -4 8 -13 5 -21 -3 -7 -1 -16 4 -19 6 -4
10 -15 10 -26 0 -10 5 -19 10 -19 29 0 -9 -53 -45 -64 -17 -5 -23 0 -34 29
-11 33 -34 50 -29 23 2 -8 -6 -12 -19 -10 -13 2 -23 -2 -23 -7 0 -6 9 -11 20
-11 12 0 26 -12 35 -31 18 -35 12 -52 -8 -24 -13 17 -14 17 -21 0 -4 -11 3
-30 20 -52 14 -19 24 -36 22 -39 -9 -8 -58 49 -58 68 0 10 -10 23 -22 28 -13
5 -18 9 -13 10 6 0 6 3 0 8 -20 14 -45 60 -34 64 5 2 3 12 -6 23 -16 20 -16
20 -10 -2 6 -23 -8 -32 -20 -12 -4 6 -13 8 -20 5 -14 -5 -45 24 -45 42 0 7 -3
12 -7 12 -5 0 -19 28 -33 61 -26 64 -38 76 -67 64 -15 -5 -12 -9 14 -22 30
-14 35 -22 48 -91 2 -13 7 -33 11 -45 6 -19 5 -20 -10 -5 -9 9 -16 23 -16 32
0 8 -10 16 -22 18 -13 2 -29 15 -36 31 -10 21 -17 26 -25 18 -6 -6 -28 -8 -54
-4 -29 4 -43 2 -43 -6 0 -6 7 -14 15 -17 29 -12 16 -27 -17 -19 -53 11 -93 10
-93 -2 0 -21 -11 -22 -12 -1 -1 11 -11 30 -22 42 -12 12 -21 28 -21 36 0 7
-16 -3 -35 -23 -19 -20 -35 -41 -35 -47 0 -7 -8 -9 -19 -5 -21 6 -47 -27 -36
-45 3 -6 1 -10 -4 -10 -6 0 -11 4 -11 9 0 5 -9 7 -19 4 -10 -3 -30 1 -42 8
-24 13 -30 15 -61 17 -29 3 -20 21 14 30 40 10 49 32 14 32 -33 0 -35 26 -2
34 13 3 37 4 53 2 15 -2 23 -2 17 1 -7 2 -9 13 -6 25 4 18 2 19 -16 9 -29 -16
-105 -15 -98 2 3 6 9 19 12 28 4 12 23 18 65 22 33 3 66 10 73 16 20 17 28 0
9 -21 -14 -16 -14 -18 0 -18 8 0 29 -11 45 -25 30 -25 62 -33 62 -16 0 5 -13
15 -29 22 -17 8 -27 18 -24 26 7 18 60 16 67 -2 3 -8 12 -12 21 -10 8 3 22 7
31 10 13 4 14 8 4 20 -10 12 -6 17 22 28 34 14 58 12 58 -5 0 -5 5 -6 11 -2 7
4 10 -1 7 -12 -2 -11 -8 -19 -15 -19 -6 0 -15 -3 -19 -7 -4 -4 -18 -5 -30 -2
-17 4 -26 1 -30 -10 -3 -9 -14 -16 -24 -16 -11 0 -22 -4 -25 -10 -4 -6 5 -10
19 -10 14 0 26 -5 26 -11 0 -5 5 -7 10 -4 8 5 8 11 0 20 -14 17 -3 24 55 29
26 3 56 13 66 22 11 10 34 19 52 21 44 4 59 11 52 23 -7 11 2 30 14 30 4 0 11
-4 17 -10z m-1130 -175 c-17 -13 -18 -15 -3 -15 9 0 17 -7 17 -15 0 -20 17
-19 28 2 8 14 24 16 86 15 41 -1 78 3 81 8 8 13 52 13 60 0 3 -5 15 -10 26
-10 10 0 19 -4 19 -9 0 -5 8 -11 18 -14 15 -3 15 -5 -3 -11 -11 -5 -26 -10
-34 -12 -10 -3 -4 -11 18 -25 18 -11 31 -25 28 -32 -4 -12 -8 -13 -47 -16 -12
-1 -20 -8 -20 -19 0 -11 -9 -27 -20 -37 -11 -10 -17 -21 -15 -25 3 -5 -1 -11
-7 -13 -10 -4 -10 -8 1 -15 17 -12 9 -16 -59 -32 -31 -7 -66 -23 -79 -36 -13
-13 -32 -24 -42 -24 -10 0 -21 -5 -24 -11 -4 -5 -17 -9 -28 -7 -12 1 -27 -1
-34 -5 -6 -4 -22 -3 -35 2 -22 9 -22 10 -2 10 25 1 39 27 21 38 -19 12 -79 15
-72 3 9 -14 -8 -13 -23 2 -9 9 -17 8 -37 -2 -19 -10 -28 -11 -37 -2 -8 8 -4
14 16 22 23 8 27 15 22 35 -5 18 -1 27 16 36 21 11 21 12 2 27 -18 14 -18 14
3 9 30 -7 51 18 27 31 -9 5 -15 16 -11 24 6 18 96 33 111 18 14 -14 43 -13 49
3 3 7 6 5 6 -5 1 -26 31 -11 31 16 1 21 1 21 20 -3 11 -13 20 -34 20 -48 0
-15 5 -23 13 -20 6 2 11 11 9 21 -2 9 2 16 8 16 5 0 10 8 9 18 0 10 -3 12 -6
5 -8 -20 -23 -15 -23 7 0 17 7 20 39 20 53 0 91 -15 92 -37 1 -12 4 -10 9 7 4
14 8 30 9 35 1 9 -113 11 -247 3 -61 -4 -89 6 -53 20 20 7 21 10 8 15 -25 9
-21 22 11 34 39 16 50 15 28 -2z m-2874 -277 c-10 -12 -38 -18 -94 -21 -10 -1
-22 -13 -27 -28 -5 -15 -19 -37 -31 -49 -17 -17 -24 -19 -36 -9 -8 6 -18 9
-21 5 -4 -4 -1 -11 7 -16 8 -5 11 -12 7 -16 -4 -4 -13 -2 -19 4 -17 17 -38 15
-45 -5 -4 -10 -15 -27 -25 -37 -15 -17 -20 -17 -34 -5 -9 8 -26 13 -37 11 -12
-2 -17 1 -13 7 4 7 1 8 -8 5 -9 -3 -16 -10 -16 -15 0 -18 -29 -8 -35 12 -9 27
-8 27 49 33 27 2 52 8 55 14 3 5 19 12 35 16 16 4 41 16 54 27 14 10 33 19 43
19 10 0 21 5 24 10 3 6 -3 10 -14 10 -26 0 -32 12 -15 28 10 9 14 9 14 1 0 -9
3 -9 14 0 7 6 43 13 80 15 37 2 69 6 73 10 13 12 27 -12 15 -26z"/>
<path d="M4055 1738 c-44 -4 -135 -6 -203 -6 -110 1 -124 0 -137 -18 -12 -16
-12 -21 0 -33 13 -13 24 -13 82 -1 41 8 146 15 263 16 107 1 211 4 230 7 43 6
78 -7 87 -30 14 -39 58 -43 131 -14 86 34 147 51 179 51 39 0 51 15 24 30 -22
11 -518 10 -656 -2z"/>
<path d="M4485 1519 c-121 -9 -164 -29 -91 -43 29 -6 33 -10 28 -31 l-4 -26
83 2 c96 3 188 -8 207 -24 9 -7 16 -7 20 0 4 5 19 13 33 16 33 8 48 52 26 75
-17 16 -37 9 -37 -14 0 -8 -5 -14 -11 -14 -8 0 -7 -6 2 -17 13 -15 12 -16 -11
-8 -14 4 -73 11 -132 14 -108 7 -155 20 -82 22 21 1 42 1 47 0 4 0 7 6 7 14 0
8 5 15 10 15 14 0 12 17 -2 22 -7 2 -49 1 -93 -3z"/>
<path d="M4141 1103 c-9 -6 -16 -22 -16 -34 0 -16 -8 -26 -27 -33 -23 -8 -31
-6 -52 17 -24 26 -50 35 -60 19 -5 -9 45 -67 73 -81 13 -7 18 -17 14 -27 -5
-14 -1 -15 28 -9 40 9 59 22 59 41 0 9 11 14 30 14 17 0 30 5 30 10 0 6 7 10
15 10 8 0 15 7 15 15 0 15 31 21 44 8 8 -9 46 -15 46 -7 0 3 -7 18 -15 34 -12
23 -22 30 -46 30 -24 0 -30 -4 -25 -15 3 -9 0 -15 -10 -15 -9 0 -18 8 -21 19
-5 21 -55 24 -82 4z"/>
<path d="M8151 5951 c-14 -25 -2 -90 21 -113 10 -10 18 -24 18 -31 0 -22 40
-52 65 -49 16 2 27 -4 35 -17 17 -33 75 -29 97 7 10 15 21 30 26 33 11 8 -1
51 -13 44 -4 -3 -6 3 -4 12 5 19 -34 43 -69 43 -10 0 -21 8 -24 18 -2 10 -17
26 -34 37 -16 11 -29 23 -29 28 0 4 -18 7 -40 7 -28 0 -42 -5 -49 -19z"/>
<path d="M7764 4944 c-21 -19 -43 -34 -47 -34 -5 0 5 -11 21 -25 17 -14 35
-25 41 -25 6 0 11 -8 11 -17 0 -10 13 -27 30 -38 22 -15 28 -25 24 -40 -8 -28
-45 -57 -65 -52 -10 3 -20 0 -23 -7 -2 -6 -5 1 -5 17 -1 20 -8 30 -26 37 -14
5 -25 17 -25 25 0 9 -12 27 -26 40 -30 28 -74 34 -74 10 0 -8 -7 -15 -15 -15
-18 0 -18 -1 -6 -33 6 -14 18 -28 29 -31 17 -6 18 -12 9 -69 -5 -34 -16 -70
-25 -81 -23 -24 -66 -46 -94 -46 -13 0 -34 -9 -48 -20 -26 -20 -50 -26 -50
-12 0 4 -28 13 -61 19 -35 7 -71 21 -83 32 -24 22 -52 27 -76 11 -9 -5 -19
-39 -26 -88 -8 -57 -18 -87 -33 -103 -11 -12 -21 -29 -21 -36 0 -7 -4 -13 -8
-13 -11 0 -32 -45 -32 -68 0 -9 9 -23 20 -30 11 -7 20 -18 20 -26 0 -7 9 -21
20 -31 10 -9 24 -42 31 -73 14 -69 3 -111 -47 -177 -21 -26 -38 -59 -40 -72
-3 -28 -21 -53 -40 -53 -11 0 -21 37 -29 105 -1 6 -4 17 -7 25 -25 61 -39 128
-45 204 -5 72 -10 93 -27 110 -38 38 -68 117 -74 194 -2 39 -7 72 -9 72 -3 0
-14 -11 -25 -25 -11 -14 -32 -32 -46 -39 -26 -13 -106 -15 -119 -3 -3 4 -18 0
-34 -9 -27 -13 -29 -19 -29 -73 0 -77 -20 -102 -126 -151 -84 -40 -114 -42
-114 -10 0 22 -25 44 -40 35 -7 -4 -8 -36 -4 -96 6 -78 5 -92 -11 -109 -10
-11 -24 -20 -32 -20 -7 0 -13 -4 -13 -9 0 -5 -16 -16 -35 -25 -32 -15 -37 -15
-71 1 -45 22 -69 82 -61 153 4 32 -3 77 -25 155 -17 62 -27 123 -25 140 12 72
-9 100 -80 107 l-28 3 0 -69 c-1 -66 -2 -70 -35 -97 -19 -16 -38 -29 -43 -29
-5 0 -15 -7 -24 -15 -12 -12 -13 -22 -5 -43 13 -33 19 -63 27 -127 4 -27 10
-54 15 -58 4 -5 6 -26 3 -46 -6 -45 22 -150 41 -157 8 -3 12 -13 9 -24 -3 -10
0 -21 5 -24 6 -3 8 -24 5 -46 -4 -26 -2 -40 6 -40 6 0 11 -9 11 -20 0 -12 10
-24 24 -30 13 -5 29 -17 35 -27 9 -17 37 -18 468 -19 358 -1 467 2 499 13 59
18 164 14 164 -8 0 -11 125 -11 277 0 90 7 117 12 142 30 17 12 31 29 31 37 0
8 7 17 15 20 8 4 15 12 15 19 0 7 6 18 14 24 17 15 29 62 31 129 1 44 -3 57
-23 77 -19 19 -25 38 -28 86 -3 34 -9 70 -15 80 -6 13 -6 25 1 38 5 11 10 36
10 55 0 31 -3 36 -24 36 -24 0 -54 26 -42 37 3 3 6 1 6 -5 0 -7 5 -12 10 -12
6 0 8 11 4 26 -5 21 -4 25 6 19 10 -6 12 -3 8 11 -3 11 1 25 8 31 10 10 14 4
19 -27 6 -35 10 -40 35 -40 34 0 46 -14 55 -63 5 -23 11 -34 15 -27 5 8 10 3
14 -14 3 -14 13 -26 22 -26 12 0 15 -6 9 -22 -14 -46 -18 -81 -7 -74 5 3 12 0
14 -7 9 -24 -3 -111 -20 -140 -13 -23 -14 -31 -4 -34 6 -3 12 -10 12 -16 0 -7
7 -24 15 -40 8 -15 15 -49 16 -75 l2 -48 100 -12 c95 -11 102 -11 119 8 12 13
18 35 18 68 0 40 5 53 28 75 44 42 87 37 134 -15 27 -31 38 -53 39 -78 3 -94
2 -91 43 -105 22 -8 43 -12 47 -10 3 3 28 7 55 10 79 10 78 9 65 200 -7 110
-7 173 -1 185 6 10 10 49 10 85 0 36 5 76 12 88 14 28 40 47 52 39 5 -3 7 2 3
11 -3 10 -2 17 3 17 6 0 10 71 10 180 0 117 -4 180 -10 180 -6 0 -14 8 -17 18
-4 9 -17 28 -30 42 -13 14 -23 33 -23 42 0 10 -7 18 -16 18 -10 0 -14 5 -10
16 3 9 2 12 -5 9 -5 -4 -16 -1 -24 5 -8 7 -20 10 -27 8 -16 -6 -52 27 -44 40
3 5 -6 22 -19 36 -14 15 -25 31 -25 37 0 13 -44 11 -59 -3 -11 -10 -14 -10
-18 0 -3 6 -9 12 -15 12 -12 0 -38 -25 -38 -37 0 -5 -25 -10 -55 -11 -50 -2
-56 0 -67 22 -10 24 -14 25 -103 24 -89 -1 -93 -2 -131 -34z m618 -158 c43
-32 31 -142 -24 -218 -11 -16 -18 -38 -15 -48 3 -11 -1 -24 -9 -31 -8 -6 -14
-18 -14 -25 0 -8 -9 -14 -20 -14 -11 0 -20 5 -20 10 0 6 -8 14 -17 17 -29 11
-43 30 -50 65 -3 18 -15 47 -25 64 -13 23 -17 41 -12 61 9 35 35 72 52 73 6 0
12 4 12 8 0 5 22 14 50 21 27 7 52 17 56 22 7 12 16 11 36 -5z"/>
<path d="M4994 4876 c11 -13 30 -28 41 -35 18 -11 17 -12 -10 -7 -27 5 -28 4
-10 -7 11 -6 31 -25 45 -40 14 -16 45 -52 70 -80 39 -44 41 -48 15 -32 l-30
19 31 -35 c17 -19 38 -51 48 -71 9 -21 21 -38 27 -38 6 0 8 -4 5 -9 -3 -5 1
-22 9 -37 8 -16 15 -35 15 -42 0 -7 12 -30 28 -50 15 -20 21 -33 15 -28 -7 4
-13 4 -13 -1 1 -16 55 -86 70 -91 8 -3 2 10 -15 27 -19 20 -23 30 -12 26 11
-5 17 -2 17 6 0 10 3 10 12 1 15 -15 32 -16 23 -1 -4 5 -18 15 -32 20 -35 13
-21 24 14 11 25 -8 29 -7 30 8 1 10 -7 20 -18 23 -20 5 -26 41 -9 52 16 10 12
21 -14 35 -14 7 -27 19 -30 27 -4 9 8 5 34 -9 31 -18 42 -20 52 -10 9 9 8 12
-8 12 -10 0 -24 11 -31 25 -6 14 -7 25 -2 25 5 0 12 -7 15 -15 4 -8 13 -15 22
-15 12 0 12 4 -4 21 -14 16 -15 23 -6 26 23 8 12 21 -23 27 -21 4 -35 13 -35
21 0 8 -5 15 -11 15 -5 0 -7 -4 -4 -10 8 -13 -11 -13 -34 0 -19 10 -24 51 -6
49 6 0 9 -5 7 -10 -1 -5 11 -12 28 -15 16 -4 30 -12 30 -19 0 -7 8 -12 18 -10
9 2 21 4 25 4 5 1 5 6 2 11 -4 6 -11 8 -16 5 -5 -4 -23 4 -40 16 -25 17 -29
26 -24 46 4 17 0 32 -11 44 -9 11 -12 19 -7 19 6 0 16 -7 23 -15 7 -8 17 -15
23 -15 6 0 0 12 -14 26 -24 26 -24 26 -1 15 30 -16 28 0 -3 27 -33 29 -59 29
-52 1 4 -14 2 -18 -6 -11 -7 5 -26 8 -44 7 -18 -1 -30 1 -28 5 3 4 -11 11 -31
14 -19 4 -51 16 -70 27 -19 10 -43 19 -54 19 -11 0 -20 4 -20 8 0 4 -8 8 -19
9 -18 1 -17 0 3 -21z"/>
<path d="M39 4553 c-6 -15 -8 -39 -6 -51 3 -13 -4 -52 -14 -85 -17 -55 -19
-98 -19 -399 l0 -338 29 0 c17 0 33 5 36 10 4 6 11 8 16 5 5 -4 12 1 15 9 4
11 19 16 43 16 20 0 42 5 48 11 17 17 122 -5 178 -37 50 -27 168 -47 236 -39
71 8 163 27 174 35 6 4 36 8 69 9 42 2 63 7 75 20 9 10 32 24 51 31 19 8 48
24 63 37 41 33 74 39 97 18 11 -10 19 -20 18 -24 -4 -38 40 -78 97 -86 61 -10
91 0 104 32 19 46 41 82 66 109 18 19 23 33 19 51 -4 13 -7 31 -8 41 -1 19
-42 46 -56 37 -6 -3 -10 -2 -10 4 0 14 -55 24 -77 13 -42 -22 -95 -42 -109
-42 -11 0 -14 -6 -10 -16 4 -11 -1 -18 -14 -21 -11 -3 -20 -14 -20 -24 0 -11
-7 -19 -15 -19 -22 0 -18 37 5 43 23 6 27 37 4 37 -8 0 -13 4 -10 9 7 11 -44
71 -61 71 -7 0 -13 6 -14 13 0 6 -2 26 -2 42 -1 17 -6 36 -11 44 -8 12 -3 39
24 125 6 19 6 34 -1 42 -7 9 -5 20 7 40 17 25 17 27 -1 40 -10 8 -35 14 -54
14 -44 1 -106 22 -131 45 -15 14 -22 14 -40 5 -30 -16 -80 -61 -80 -72 0 -5
-11 -24 -25 -42 -14 -18 -25 -38 -25 -44 0 -16 -33 -15 -48 0 -9 9 -12 9 -12
0 0 -7 5 -12 10 -12 6 0 10 -10 10 -22 0 -20 -1 -21 -20 -3 -11 10 -17 21 -15
25 3 4 -13 26 -35 48 -22 22 -40 43 -40 47 0 3 -15 25 -33 48 -18 23 -39 54
-46 69 l-14 27 -48 -50 -48 -49 -68 0 c-122 0 -173 31 -202 121 -21 62 -37 72
-52 32z"/>
<path d="M2658 4494 c-34 -41 -81 -84 -86 -79 -5 5 -26 -17 -52 -54 -8 -12
-20 -21 -27 -21 -7 0 -13 -6 -13 -13 0 -9 -10 -12 -32 -9 -22 3 -35 0 -44 -13
-7 -10 -24 -23 -36 -29 -13 -6 -25 -23 -26 -36 -5 -34 -22 -54 -36 -40 -5 5
-20 10 -33 10 -18 0 -22 5 -22 28 1 15 -3 43 -9 63 -9 34 -8 36 12 32 l21 -5
-22 16 c-14 11 -20 25 -19 46 1 17 -3 35 -8 39 -29 23 -110 -48 -114 -100 -2
-18 -9 -44 -17 -56 -8 -12 -15 -31 -15 -41 0 -11 -7 -25 -15 -32 -8 -7 -15
-17 -15 -23 0 -5 -12 -26 -27 -46 -34 -43 -53 -93 -57 -143 -2 -27 -12 -44
-34 -63 -17 -14 -32 -38 -34 -52 -3 -29 -44 -48 -69 -33 -32 20 -28 137 7 191
42 67 50 142 22 196 -10 19 -16 39 -12 45 4 5 8 32 9 59 2 40 0 49 -14 49 -9
0 -22 -12 -28 -28 -7 -15 -29 -36 -49 -47 -20 -11 -52 -40 -72 -65 -20 -25
-41 -49 -47 -55 -24 -21 -37 -56 -26 -69 6 -7 8 -16 4 -19 -3 -4 2 -9 11 -13
18 -7 22 -44 6 -60 -7 -7 -4 -16 10 -29 27 -24 25 -64 -5 -105 -14 -19 -25
-45 -25 -58 0 -42 50 -133 79 -144 32 -12 128 -2 157 17 13 8 60 17 106 21 79
6 148 31 148 54 0 5 13 23 29 41 17 18 29 35 28 38 -1 3 15 35 35 71 l36 65
-8 95 c-4 53 -4 99 1 105 6 5 9 4 9 -3 0 -7 11 -12 25 -12 22 0 24 -3 16 -19
-8 -14 -7 -22 4 -31 9 -8 13 -21 9 -36 -4 -17 -1 -26 10 -30 9 -3 16 -17 16
-30 0 -13 10 -40 22 -58 l23 -34 105 1 105 2 7 100 c3 59 2 107 -4 118 -7 13
-5 28 6 52 9 18 16 37 16 42 0 17 58 189 74 221 22 43 14 52 -16 16z"/>
<path d="M6120 2833 c0 -7 -5 -13 -11 -13 -7 0 -18 -8 -25 -17 -15 -20 -19
-47 -6 -39 13 8 1 -58 -12 -66 -18 -13 -26 -9 -26 12 0 22 -20 26 -38 8 -9 -9
-12 -8 -12 8 -1 20 2 23 -65 -57 -15 -18 -20 -40 -21 -89 -1 -36 -7 -78 -13
-95 -7 -17 -9 -45 -6 -68 4 -23 2 -50 -6 -69 -11 -26 -10 -32 3 -42 9 -6 17
-20 19 -31 7 -32 60 -27 135 12 52 26 77 33 123 33 65 0 78 9 91 64 6 30 5 35
-16 45 -13 6 -24 15 -24 21 0 19 -29 10 -56 -19 -25 -26 -53 -34 -39 -11 3 5
-3 27 -14 48 -11 22 -18 42 -14 45 3 3 11 30 18 59 9 39 9 58 1 71 -8 12 -8
22 1 36 8 12 10 38 6 70 -5 43 -3 51 11 51 18 0 20 8 6 30 -6 10 -10 11 -10 3z"/>
<path d="M7930 1991 c-14 -11 -25 -26 -25 -32 0 -10 -22 -12 -83 -11 -78 3
-171 -12 -158 -25 3 -3 1 -12 -4 -18 -24 -29 33 -75 118 -95 48 -11 56 -10 95
10 23 13 59 23 80 23 20 0 37 4 37 9 0 5 4 7 8 4 5 -3 43 -6 86 -7 42 -2 79
-7 82 -11 3 -4 0 -8 -7 -8 -7 0 -9 -10 -7 -24 3 -13 -3 -34 -13 -47 -15 -21
-20 -22 -44 -11 -36 16 -101 6 -84 -14 20 -25 78 -38 106 -23 18 9 26 10 31 2
4 -6 21 -15 37 -19 17 -4 43 -13 59 -21 25 -13 30 -13 43 -1 8 8 15 30 16 49
1 19 6 40 11 47 10 17 -34 65 -80 87 -18 8 -57 37 -86 64 -91 83 -171 109
-218 72z"/>
<path d="M5769 1897 c-37 -47 -39 -51 -44 -106 -5 -48 -4 -51 17 -51 45 1 102
19 118 38 8 11 21 21 28 23 15 5 -49 103 -76 118 -14 8 -23 3 -43 -22z"/>
<path d="M35 1251 c-27 -6 -30 -10 -33 -50 l-3 -44 43 7 c24 4 58 10 76 13 17
3 32 9 32 14 0 5 13 9 29 9 17 0 33 5 36 10 3 6 15 10 25 10 24 0 36 20 19 31
-15 9 -176 9 -224 0z"/>
<path d="M2265 947 c-16 -5 -43 -19 -60 -31 -16 -11 -50 -23 -75 -26 -35 -4
-47 -10 -55 -28 -12 -28 -100 -76 -126 -69 -11 3 -19 1 -19 -4 0 -5 -20 -18
-44 -29 -51 -23 -60 -24 -51 -10 4 7 -10 9 -42 6 -26 -3 -64 -5 -83 -5 -43 -1
-121 -58 -98 -72 25 -16 83 -9 122 15 32 19 44 22 63 13 23 -10 60 -2 183 40
25 8 57 16 71 17 15 0 36 9 48 20 16 15 29 17 67 11 74 -11 78 -14 53 -41 -27
-28 -19 -42 21 -36 30 4 64 -13 55 -28 -3 -4 12 -11 32 -15 20 -3 46 -13 59
-21 15 -10 24 -12 29 -5 3 6 -1 11 -9 11 -9 0 -16 9 -16 20 0 16 7 20 30 20
17 0 30 4 30 8 0 5 17 9 37 10 24 1 45 10 63 27 14 14 31 25 38 25 6 0 24 12
39 26 23 21 35 25 66 21 66 -9 146 38 147 86 0 24 -23 21 -35 -5 -12 -28 -41
-35 -63 -15 -9 8 -26 12 -37 10 -11 -3 -42 -7 -69 -9 -26 -1 -55 -5 -62 -8
-24 -9 -73 6 -79 24 -10 32 -94 31 -115 -1 -9 -14 -50 2 -50 20 0 26 -31 39
-65 28z"/>
</g>
</svg>
