<?xml version="1.0" standalone="no"?>
<!DOCTYPE svg PUBLIC "-//W3C//DTD SVG 20010904//EN"
 "http://www.w3.org/TR/2001/REC-SVG-20010904/DTD/svg10.dtd">
<svg version="1.0" xmlns="http://www.w3.org/2000/svg"
 width="1900.000000pt" height="1440.000000pt" viewBox="0 0 1900.000000 1440.000000"
 preserveAspectRatio="xMidYMid meet">
<metadata>
Created by potrace 1.16, written by Peter Selinger 2001-2019
</metadata>
<g transform="translate(0.000000,1440.000000) scale(0.100000,-0.100000)"
fill="#000000" stroke="none">
<path d="M6907 12923 c-2 -5 -3 -43 -3 -85 1 -42 -2 -72 -5 -66 -9 13 -23 -13
-38 -68 -7 -25 -17 -41 -26 -41 -20 0 -19 15 5 65 11 22 20 48 20 56 0 8 4 17
9 20 5 3 11 16 14 28 2 13 8 32 12 42 6 13 5 17 -2 13 -6 -4 -13 -1 -16 5 -6
18 -14 -4 -23 -67 -3 -27 -9 -44 -12 -36 -9 25 -42 -82 -43 -139 -1 -30 -4
-45 -6 -32 -2 12 -9 20 -14 17 -14 -9 -10 -47 6 -69 8 -11 15 -36 15 -55 -1
-31 -2 -33 -11 -17 -9 15 -13 16 -20 5 -6 -10 -11 -7 -19 11 -10 23 -10 22 -5
-10 11 -76 11 -75 -7 -72 -28 5 -28 -63 -1 -137 16 -42 16 -44 -3 -58 -12 -8
-18 -23 -16 -37 2 -13 -1 -27 -7 -30 -6 -4 -8 -20 -4 -36 4 -23 2 -30 -11 -30
-9 0 -16 5 -16 10 0 16 -19 12 -42 -10 -12 -11 -28 -20 -35 -20 -17 0 -17 -30
1 -56 12 -16 12 -29 5 -60 -17 -66 -11 -108 15 -98 7 3 16 -2 19 -10 4 -10 1
-13 -9 -9 -14 5 -14 3 -2 -18 7 -13 20 -29 28 -35 23 -19 7 -26 -18 -8 -12 8
-22 22 -22 30 0 9 -6 14 -12 11 -7 -2 -12 -11 -10 -20 1 -9 -6 -25 -16 -35
-19 -19 -19 -19 -31 -1 -6 11 -18 19 -26 19 -8 0 -34 14 -57 30 -22 17 -47 30
-55 30 -7 0 -13 5 -13 10 0 6 7 10 15 10 8 0 15 3 15 7 0 14 -65 63 -90 70
-14 3 -32 11 -40 18 -19 16 -69 25 -76 14 -3 -5 0 -9 5 -9 6 0 11 -7 11 -15 0
-14 -3 -13 -25 2 -13 10 -27 26 -31 36 -4 13 -11 16 -22 11 -10 -4 -29 -7 -44
-7 -16 0 -28 -4 -28 -10 0 -5 -5 -5 -13 2 -10 8 -17 7 -26 -2 -9 -9 -14 -9
-21 3 -5 8 -12 12 -15 8 -10 -9 4 -48 17 -48 6 0 0 -8 -12 -18 -27 -22 -33
-80 -14 -134 12 -33 11 -38 -3 -38 -11 0 -14 -6 -9 -24 3 -14 1 -26 -5 -28 -6
-2 -8 -14 -4 -31 4 -15 10 -26 13 -23 2 3 14 0 25 -5 11 -6 16 -14 11 -18 -16
-11 -35 -51 -29 -61 8 -14 -15 -24 -28 -11 -8 8 -8 11 1 11 7 0 12 5 12 10 0
14 -11 12 -33 -4 -17 -13 -18 -16 -2 -39 16 -24 15 -25 -3 -20 -19 5 -19 3 -9
-29 7 -18 22 -46 35 -62 26 -34 32 -67 6 -42 -20 20 -25 20 -17 0 3 -8 16 -20
29 -25 13 -4 24 -12 24 -17 0 -12 -32 -11 -48 1 -19 15 -23 4 -9 -26 7 -16 25
-31 45 -38 17 -6 32 -15 32 -19 0 -5 -6 -7 -14 -4 -8 3 -16 -3 -19 -15 -3 -11
-2 -20 2 -19 16 5 51 -25 51 -44 0 -12 9 -31 20 -43 11 -12 23 -32 25 -45 2
-12 12 -31 21 -41 9 -10 13 -22 10 -28 -3 -5 2 -17 11 -26 53 -48 93 -90 93
-97 0 -5 4 -8 9 -8 6 0 22 -12 38 -26 18 -16 35 -24 50 -21 12 2 20 0 17 -5
-6 -9 67 -88 81 -88 4 0 18 -9 32 -20 14 -11 34 -20 44 -20 11 0 19 -7 19 -15
0 -8 6 -15 14 -15 9 0 12 8 8 25 -2 14 -10 25 -16 25 -19 0 -66 24 -66 33 0 5
-9 21 -19 36 -17 24 -18 28 -4 46 15 20 15 19 8 -2 -4 -14 -2 -23 4 -23 6 0
11 5 11 11 0 5 5 7 10 4 6 -4 10 5 10 19 0 22 5 26 30 26 17 0 33 -7 39 -17
16 -27 13 -13 -8 45 -20 55 -18 59 28 53 7 -2 11 4 9 11 -3 7 -14 13 -26 13
-24 1 -60 31 -49 41 4 4 16 -1 27 -11 19 -18 20 -17 20 3 0 12 -4 22 -10 22
-5 0 -10 20 -10 44 l0 45 40 -2 c40 -3 40 -2 35 25 -7 29 8 39 19 13 5 -13 9
-13 27 -3 17 10 23 10 26 1 7 -19 23 -16 23 5 1 16 1 16 14 -1 10 -13 21 -16
39 -12 14 4 28 2 31 -4 4 -6 20 -11 36 -11 16 0 32 -4 35 -10 10 -15 35 -12
35 5 0 24 18 18 22 -7 2 -18 12 -24 47 -30 24 -4 51 -14 61 -23 21 -19 31 -19
24 -1 -8 20 14 30 31 16 18 -15 19 -30 4 -30 -17 0 -39 -33 -29 -45 10 -13 -6
-55 -22 -56 -7 0 -3 -4 8 -9 29 -11 40 -80 12 -72 -13 3 -17 0 -13 -10 4 -9
-2 -14 -16 -15 -25 -2 -39 -19 -39 -49 0 -14 -13 -27 -44 -43 -25 -12 -48 -31
-51 -41 -4 -11 -13 -20 -21 -20 -8 0 -14 -4 -14 -9 0 -9 -19 -18 -57 -26 -10
-2 -31 -8 -46 -14 -16 -6 -33 -8 -39 -5 -7 4 -8 2 -4 -4 11 -18 -10 -14 -30 6
-17 16 -18 16 -11 -2 6 -15 4 -17 -10 -11 -22 9 -108 9 -123 0 -20 -12 -10
-27 15 -21 22 6 25 3 25 -19 0 -14 5 -25 12 -25 6 0 9 -3 5 -6 -3 -3 -16 1
-29 10 -25 17 -68 22 -68 7 0 -6 5 -13 10 -16 6 -3 10 -14 10 -23 0 -10 -3
-13 -8 -7 -4 6 -17 12 -30 12 l-23 2 21 -29 c11 -15 20 -35 20 -43 0 -9 5 -19
10 -22 6 -3 7 -18 4 -32 -6 -24 -5 -25 20 -21 14 3 29 1 32 -4 3 -5 18 -7 32
-4 21 4 31 0 45 -19 17 -24 17 -26 -8 -66 -23 -36 -30 -40 -53 -34 l-27 6 23
-16 c22 -16 22 -18 7 -35 -9 -10 -15 -22 -12 -27 3 -4 8 -26 11 -48 4 -22 13
-45 21 -51 8 -6 15 -16 15 -23 0 -6 7 -14 15 -17 8 -4 15 -12 15 -20 0 -7 -6
-11 -13 -8 -21 8 -35 -17 -34 -57 1 -23 -6 -43 -17 -54 -10 -11 -16 -28 -13
-41 5 -28 -12 -36 -38 -18 -29 21 -33 18 -40 -38 -7 -50 -8 -51 -24 -30 -16
22 -16 22 -54 3 -29 -15 -34 -21 -23 -30 7 -6 11 -22 8 -36 -3 -20 -7 -23 -22
-15 -28 15 -30 12 -20 -15 9 -23 6 -29 -12 -26 -5 0 -8 -11 -8 -26 0 -25 -1
-25 -18 -10 -26 24 -35 21 -28 -8 l7 -25 -38 17 c-21 9 -51 16 -68 15 -16 -1
-48 -3 -70 -5 -22 -2 -55 3 -72 9 -18 7 -54 13 -80 14 -27 1 -73 2 -103 3 -51
2 -55 0 -58 -21 -2 -13 3 -31 10 -40 22 -26 48 -90 48 -116 0 -15 17 -38 48
-66 115 -104 142 -132 148 -158 4 -15 12 -34 19 -42 10 -11 11 -29 4 -70 -5
-34 -5 -58 1 -64 6 -6 10 -18 10 -28 0 -9 9 -22 21 -28 33 -18 59 -49 53 -63
-3 -8 4 -32 16 -54 18 -35 20 -54 17 -135 -2 -52 -6 -99 -10 -105 -7 -11 -9
-179 -4 -508 2 -162 6 -237 15 -253 15 -25 7 -85 -14 -119 -8 -12 -14 -34 -14
-48 0 -14 -4 -25 -8 -25 -4 0 -16 -14 -25 -30 -19 -32 -20 -27 16 -145 8 -27
21 -83 28 -123 10 -62 17 -76 42 -94 19 -14 27 -27 24 -39 -3 -11 -1 -19 4
-19 6 0 9 -10 7 -22 -5 -41 13 -136 28 -149 8 -6 14 -8 14 -5 0 4 14 -2 30
-14 37 -27 39 -15 3 22 -18 19 -22 28 -12 28 8 0 37 -25 64 -55 26 -30 53 -55
58 -55 6 0 19 -7 29 -17 13 -11 38 -17 83 -18 36 -1 70 -6 76 -12 6 -6 17 -9
24 -7 8 4 18 -9 25 -32 8 -24 9 -39 3 -41 -17 -6 11 -105 32 -117 11 -6 25
-18 31 -26 7 -8 30 -16 51 -17 93 -5 171 -12 209 -18 39 -6 43 -5 65 27 13 18
29 39 37 47 27 28 44 -23 27 -78 l-8 -24 31 23 c36 27 77 88 125 187 21 44 29
69 21 66 -19 -7 -19 31 0 46 20 17 28 51 10 44 -20 -8 -17 4 10 40 13 18 27
50 31 72 l7 40 -24 -26 c-12 -14 -31 -31 -40 -38 -34 -25 -20 16 17 53 19 20
45 54 56 76 12 23 39 52 60 66 21 13 43 33 49 44 6 11 17 20 24 20 7 0 24 8
37 19 13 10 33 20 44 22 18 4 18 5 -5 27 -24 22 -24 22 -2 22 12 0 29 11 38
25 9 14 24 25 33 25 9 0 25 9 35 21 12 14 25 20 42 16 28 -5 43 11 23 24 -11
7 -9 10 8 15 13 4 20 10 17 16 -9 14 14 36 91 86 68 46 94 59 125 68 66 17
180 61 180 69 0 6 18 20 40 33 26 15 40 30 40 43 0 16 4 19 20 14 14 -4 20 -2
20 8 0 10 7 13 20 10 11 -3 20 0 20 6 0 6 7 11 15 11 8 0 17 11 21 25 3 14 10
25 14 25 5 0 17 19 28 43 17 36 19 59 17 164 -2 67 -7 132 -10 144 -4 12 -3
19 2 16 5 -3 5 31 0 81 -4 48 -5 107 -1 132 9 55 11 492 3 478 -3 -5 -9 17
-11 50 -3 33 -12 70 -19 83 -42 76 -93 262 -84 308 4 19 3 78 -1 130 -4 53
-10 87 -12 76 -8 -41 -22 -39 -22 3 0 23 -5 61 -11 85 -14 52 -4 132 19 156
40 40 46 65 33 148 -17 107 -22 124 -32 117 -5 -3 -9 0 -9 6 0 18 30 70 40 70
6 0 10 6 10 13 0 7 20 33 45 57 25 24 45 51 45 59 0 11 -4 10 -20 -4 -19 -17
-20 -17 -19 1 0 10 4 28 8 38 11 27 -22 57 -65 59 -19 1 -34 7 -34 15 0 7 -12
12 -29 12 -21 0 -39 -12 -70 -45 -23 -25 -45 -45 -50 -45 -4 0 -16 -9 -26 -20
-19 -21 -73 -24 -87 -5 -4 6 -8 31 -8 56 0 33 -6 51 -20 64 -11 10 -20 14 -20
10 0 -5 -6 -1 -13 10 -10 12 -16 14 -21 7 -10 -17 -26 -15 -26 3 0 17 -35 21
-45 5 -4 -7 -12 -7 -25 0 -13 7 -21 7 -25 0 -4 -6 -12 -10 -18 -9 -7 1 -20 -1
-30 -6 -27 -11 -30 -1 -13 40 18 43 21 75 5 75 -5 0 -8 4 -5 9 3 5 0 11 -7 14
-6 2 -18 26 -25 53 -8 27 -17 58 -22 69 -4 11 -11 29 -15 40 -9 24 -32 152
-45 250 -5 39 -14 95 -19 125 -58 331 -71 403 -85 455 -8 33 -17 71 -19 85 -2
14 -7 32 -10 40 -3 8 -14 40 -23 70 -22 72 -38 120 -70 205 -14 39 -29 84 -34
100 -12 45 -22 66 -47 104 -13 19 -23 42 -23 52 0 11 -4 19 -10 19 -5 0 -10 6
-10 13 0 17 -93 198 -128 250 -16 23 -31 47 -33 53 -6 17 -59 82 -101 124 -45
46 -55 38 -84 -70 l-12 -45 3 40 c1 22 10 56 18 75 13 31 13 38 1 55 -14 19
-15 19 -20 -3 -8 -30 -22 -28 -17 2 5 22 -11 45 -20 29z"/>
<path d="M9447 12413 c-6 -24 -21 -54 -32 -66 -26 -28 -41 -58 -50 -97 -4 -18
-22 -64 -40 -104 -18 -40 -38 -99 -44 -132 -7 -32 -16 -70 -21 -84 -22 -58
-41 -291 -46 -550 -4 -195 -9 -284 -19 -305 -7 -16 -16 -45 -20 -62 -4 -18
-10 -33 -14 -33 -10 0 -71 -122 -71 -143 0 -8 -7 -17 -15 -21 -23 -9 -20 -87
5 -114 24 -25 26 -55 5 -72 -11 -9 -15 -9 -15 -1 0 9 -5 9 -20 1 -14 -7 -20
-7 -20 0 0 17 -47 11 -54 -6 -4 -9 -9 -14 -13 -11 -3 4 -12 -1 -19 -11 -11
-14 -14 -14 -15 -2 -2 8 -5 -14 -8 -50 -8 -88 -3 -124 15 -109 12 9 13 6 8
-22 -4 -19 -10 -38 -15 -43 -4 -5 -5 2 -2 15 6 22 5 23 -13 9 -10 -8 -32 -28
-47 -45 l-28 -30 6 28 c13 51 -35 23 -54 -32 -14 -42 -14 -81 -1 -81 6 0 10
-9 10 -20 0 -21 20 -29 20 -7 0 6 6 3 12 -8 6 -11 16 -23 21 -26 9 -6 8 -24
-8 -114 l-5 -30 13 28 c16 33 29 25 21 -12 -4 -21 -3 -23 6 -11 8 12 10 5 6
-30 -3 -25 -8 -56 -12 -69 -5 -18 -4 -22 5 -17 14 9 10 -39 -8 -109 -15 -56
-14 -72 1 -57 7 7 15 12 19 12 6 0 -3 -57 -17 -104 -4 -11 -2 -16 4 -12 14 8
8 -100 -8 -139 -6 -16 -13 -55 -15 -85 -5 -69 -21 -174 -34 -220 -16 -61 -23
-137 -11 -120 9 12 11 8 6 -17 -5 -32 -23 -73 -54 -128 -27 -48 -39 -114 -29
-169 9 -50 5 -165 -8 -223 -5 -23 -4 -33 5 -33 9 0 10 -25 6 -95 -3 -63 -1
-97 6 -101 7 -5 9 0 6 14 -4 12 -2 20 2 17 5 -3 11 1 14 7 3 7 3 2 -1 -12 -3
-14 -7 -65 -8 -115 -2 -49 -6 -106 -9 -125 -4 -20 5 -4 23 39 32 79 57 118 42
64 -5 -17 -14 -40 -20 -51 -7 -13 -8 -29 -2 -44 l9 -23 12 28 c7 15 17 27 22
27 5 0 7 -3 5 -7 -29 -50 -73 -192 -47 -153 5 8 10 11 10 5 0 -5 5 -4 12 3 14
14 42 16 33 2 -3 -6 -2 -10 4 -10 5 0 11 3 14 8 2 4 2 1 0 -7 -5 -19 18 -32
34 -19 9 7 17 5 28 -6 9 -9 22 -17 28 -18 7 0 17 -2 22 -2 6 -1 20 -7 32 -14
13 -7 33 -10 47 -6 17 4 27 1 33 -11 6 -9 39 -27 74 -39 44 -15 65 -28 68 -41
5 -28 43 -56 69 -50 23 6 32 -17 12 -30 -17 -11 -11 -35 9 -35 10 0 25 -10 34
-23 8 -13 33 -31 56 -42 26 -11 41 -25 41 -36 0 -10 12 -25 28 -33 30 -16 75
-58 175 -165 63 -68 225 -317 242 -373 4 -13 12 -28 17 -35 26 -32 44 -82 36
-97 -23 -42 80 -251 130 -262 100 -23 149 -38 172 -53 24 -17 107 -51 124 -51
5 0 3 7 -4 15 -10 12 -6 13 23 8 30 -4 36 -2 42 16 10 33 42 62 135 126 47 31
97 71 113 89 46 53 97 167 114 257 19 104 25 179 15 179 -5 0 -9 62 -10 138
-2 162 -2 164 -13 178 -11 13 -3 116 12 162 6 19 12 65 13 101 1 60 -2 70 -32
112 -42 58 -49 103 -27 169 9 28 14 54 11 57 -3 3 -1 14 5 25 5 10 6 24 2 31
-9 13 -10 25 -14 104 -2 41 -5 50 -17 45 -12 -4 -14 -1 -7 14 10 25 7 271 -5
349 -5 33 -10 88 -12 123 -2 42 -7 62 -15 62 -17 0 -16 12 0 34 10 14 11 31 4
69 -5 29 -10 95 -12 147 -1 52 -8 119 -14 148 -10 42 -10 57 0 69 10 12 10 16
0 22 -16 11 -1 43 41 84 15 16 28 34 28 41 0 7 15 27 34 45 23 23 36 47 44 84
7 29 16 75 22 102 6 28 14 59 16 71 3 11 -2 47 -11 79 -17 57 -18 58 -34 36
-14 -18 -22 -20 -51 -14 -19 3 -41 13 -49 20 -10 10 -25 12 -54 8 -28 -5 -42
-3 -48 6 -6 10 -15 10 -44 2 -30 -10 -36 -9 -31 2 8 21 -10 27 -24 10 -19 -23
-30 -18 -30 16 0 24 -3 29 -12 21 -11 -8 -56 -9 -65 -2 -2 2 -9 3 -15 4 -7 1
-12 10 -10 20 3 15 -1 18 -17 13 -30 -7 -34 7 -11 33 24 28 25 40 3 40 -13 0
-14 3 -5 12 8 8 15 8 26 -1 12 -10 17 -8 26 10 12 22 11 22 -36 15 -27 -4 -59
-8 -71 -8 -13 0 -23 -4 -23 -9 0 -5 6 -9 14 -9 8 0 13 -8 12 -17 0 -10 5 -17
12 -15 6 1 12 -5 12 -13 0 -8 -5 -15 -11 -15 -6 0 -9 -7 -5 -15 3 -8 2 -14 -2
-14 -21 3 -32 -3 -32 -18 0 -13 -3 -14 -12 -5 -10 10 -8 19 5 42 20 34 13 38
-22 14 -22 -16 -25 -16 -40 5 l-16 21 -43 -41 c-23 -23 -42 -45 -42 -50 0 -5
-5 -9 -10 -9 -7 0 -7 6 0 19 9 18 7 19 -27 14 l-38 -6 20 23 c11 13 31 34 44
48 19 19 21 26 10 33 -8 5 -22 9 -31 9 -10 0 -18 5 -18 10 0 6 6 10 13 10 8 0
24 11 36 24 19 20 21 28 11 46 -6 12 -9 29 -6 37 8 19 -21 53 -44 53 -10 0
-23 7 -30 15 -7 8 -27 17 -46 21 l-35 6 31 29 c38 37 38 44 -2 55 -22 7 -33
16 -34 29 -2 48 -4 54 -18 49 -12 -5 -13 0 -5 31 6 21 8 48 5 61 -6 22 -10 23
-59 20 -28 -2 -61 -7 -72 -12 -14 -5 -8 5 18 32 39 42 47 60 22 50 -9 -3 -15
0 -15 9 0 18 -5 19 -30 3 -32 -20 -41 2 -19 46 10 22 19 51 19 65 l0 25 -28
-27 c-15 -15 -32 -27 -36 -27 -5 0 -17 -10 -27 -22 -25 -28 -24 -20 5 52 26
62 18 73 -11 17 -9 -18 -18 -27 -20 -20 -5 13 31 88 47 98 5 3 15 16 21 28 9
18 9 20 -2 10 -12 -12 -59 -19 -59 -9 0 2 7 23 15 46 20 56 11 63 -27 20 -17
-20 -27 -27 -24 -16 4 10 1 26 -6 34 -8 10 -9 13 -2 9 8 -5 12 8 12 41 1 26 3
71 6 100 3 28 2 52 -1 52 -4 0 -20 -12 -36 -27 l-29 -28 7 25 c4 14 16 42 26
62 21 42 24 63 8 52 -8 -4 -9 1 -4 17 4 12 8 35 9 50 1 15 5 31 9 35 12 13 8
34 -8 34 -19 0 -19 4 0 40 14 26 13 30 -2 38 -15 9 -15 12 0 45 22 45 21 50
-4 42 -19 -6 -20 -5 -9 15 6 12 9 28 6 35 -3 8 1 39 9 70 16 60 19 108 5 65
-6 -17 -8 -7 -5 34 2 32 8 63 14 69 18 18 14 47 -6 40 -14 -5 -15 -1 -10 30 3
21 2 37 -4 37 -5 0 -9 -9 -9 -19 0 -11 -5 -23 -12 -27 -8 -5 -10 9 -5 52 3 33
2 50 -2 39 -7 -17 -9 -15 -16 15 -4 19 -10 39 -13 44 -3 5 -4 42 -3 81 1 40
-2 76 -7 79 -5 3 -9 19 -10 35 0 17 -9 47 -19 68 -10 21 -18 45 -18 53 0 9
-11 15 -33 16 -31 2 -33 -1 -45 -43z"/>
<path d="M10791 10746 c-6 -7 -37 -21 -69 -30 -68 -19 -87 -30 -78 -45 4 -5
-9 -21 -28 -33 -27 -18 -34 -28 -30 -45 4 -14 0 -25 -13 -32 -46 -26 -48 -28
-33 -46 11 -14 10 -18 -8 -31 -12 -8 -22 -24 -22 -35 0 -10 -4 -19 -9 -19 -6
0 -8 -9 -6 -20 2 -11 -2 -20 -8 -20 -7 0 -6 -4 3 -10 8 -5 11 -12 7 -16 -4 -4
-1 -17 6 -28 8 -12 17 -32 20 -46 8 -31 55 -81 94 -99 15 -7 58 -28 94 -47 36
-18 69 -31 72 -28 3 3 2 16 -3 29 -16 42 -14 198 3 303 18 107 34 312 25 312
-3 0 -11 -6 -17 -14z"/>
<path d="M8485 7375 c-22 -8 -49 -15 -60 -15 -12 0 -26 -5 -32 -11 -8 -8 -41
-11 -90 -9 -100 3 -142 3 -172 -2 -33 -6 -120 -85 -128 -116 -3 -15 -9 -29
-13 -32 -19 -15 -60 -80 -60 -96 -1 -24 -23 -54 -52 -68 -38 -19 -35 -60 6
-102 19 -20 45 -56 57 -80 11 -24 27 -44 35 -44 7 0 16 -10 18 -22 3 -13 8
-36 11 -53 4 -16 9 -45 12 -63 6 -37 21 -51 35 -31 17 26 -3 -34 -24 -68 -11
-18 -17 -37 -14 -42 4 -5 -5 -35 -18 -65 -23 -51 -23 -55 -6 -46 34 18 50 12
50 -20 0 -35 21 -61 67 -81 41 -17 68 -66 59 -105 -3 -16 -7 -50 -9 -76 -1
-25 -6 -50 -11 -55 -5 -4 -6 -3 -2 5 14 23 -14 12 -30 -13 -11 -17 -15 -37
-11 -58 3 -20 0 -40 -10 -52 -13 -19 -14 -18 -8 10 l6 30 -15 -25 c-8 -14 -15
-40 -16 -58 0 -21 -9 -42 -25 -58 -14 -14 -25 -30 -25 -36 0 -25 -45 -78 -67
-78 -12 0 -24 -8 -27 -17 -3 -10 -4 -6 -2 10 2 21 -1 27 -15 27 -12 0 -19 -7
-19 -19 0 -24 -19 -38 -30 -21 -4 7 -12 -6 -21 -34 -15 -50 -29 -61 -29 -21 0
22 -4 25 -33 25 -18 0 -37 -4 -43 -10 -6 -6 -20 -4 -39 6 -19 10 -31 11 -33 5
-6 -18 -30 -13 -51 10 -24 26 -37 19 -62 -35 l-19 -41 6 48 c6 45 5 47 -19 47
-16 0 -28 7 -31 18 -3 9 -19 25 -35 34 -35 20 -39 16 -75 -63 -14 -30 -25 -47
-25 -39 -1 8 10 39 24 68 14 30 22 59 19 64 -10 16 -93 50 -105 42 -17 -10
-39 -70 -39 -105 0 -21 8 -37 25 -51 14 -11 25 -25 25 -33 0 -18 32 -28 42
-13 7 10 8 10 7 -2 -3 -32 3 -41 61 -80 33 -22 60 -45 60 -50 0 -6 8 -10 17
-10 10 0 26 -9 38 -19 70 -67 100 -91 112 -91 7 0 13 -5 13 -11 0 -6 7 -8 16
-5 19 7 41 -13 49 -47 8 -30 37 -59 56 -55 10 2 14 -8 14 -35 0 -29 6 -44 24
-58 l25 -20 14 26 c7 15 28 39 45 55 l32 29 23 -22 24 -22 24 30 c13 17 24 36
24 43 0 22 15 13 28 -18 10 -22 21 -30 38 -30 30 0 40 -23 25 -56 -10 -22 -16
-25 -59 -22 -30 2 -52 9 -60 20 -12 16 -16 17 -43 3 -17 -9 -29 -24 -29 -35 0
-24 38 -61 59 -58 29 5 26 -58 -4 -94 -18 -21 -25 -38 -21 -52 3 -12 6 -29 6
-38 0 -10 7 -18 15 -18 8 0 15 -5 15 -11 0 -5 10 -3 22 5 32 22 38 20 38 -14
0 -16 5 -30 10 -30 6 0 10 -10 10 -21 0 -18 2 -19 15 -9 12 10 15 9 15 -5 0
-11 5 -15 15 -11 8 3 14 0 12 -7 -1 -7 7 -12 18 -12 11 0 24 -6 28 -13 7 -11
12 -10 28 4 17 15 19 15 25 1 3 -9 12 -13 20 -10 7 3 21 -2 30 -11 8 -9 20
-14 25 -11 5 4 6 -2 2 -11 -4 -11 -3 -15 4 -11 17 11 63 -10 63 -28 0 -8 5
-15 10 -15 6 0 10 5 10 12 0 6 6 4 13 -7 8 -10 19 -15 25 -11 7 4 12 2 12 -3
0 -21 20 -10 26 14 3 14 11 25 16 25 6 0 8 -9 5 -20 -7 -25 24 -28 48 -3 11
11 19 13 23 6 4 -6 23 -14 43 -18 26 -5 39 -2 48 9 11 13 17 14 28 5 10 -9 18
-8 32 5 13 12 20 14 23 5 5 -14 85 -21 93 -8 4 5 15 9 25 9 10 0 31 5 47 12
15 6 33 10 40 9 6 -1 14 3 18 9 5 8 12 7 22 -2 13 -11 18 -9 30 9 12 17 21 21
44 16 24 -4 30 -1 38 18 5 13 6 28 4 32 -3 5 5 11 17 14 12 3 19 11 16 19 -3
8 5 19 17 25 21 11 71 52 128 104 16 14 29 39 32 62 7 43 48 123 83 166 33 39
40 74 22 106 -25 41 -32 92 -17 103 11 7 11 11 2 15 -8 3 -11 14 -7 26 3 13
-1 38 -9 56 -14 33 -15 33 -26 13 -6 -12 -13 -42 -15 -67 -10 -100 -95 -257
-185 -337 -38 -35 -112 -65 -131 -53 -5 3 -12 0 -15 -6 -4 -5 -13 -8 -20 -5
-7 2 -30 1 -51 -4 -21 -5 -41 -5 -44 -1 -8 12 -70 22 -70 11 0 -6 -4 -10 -10
-10 -5 0 -7 6 -4 14 3 8 -1 18 -8 22 -9 6 -4 10 17 14 18 3 34 14 40 28 5 12
16 22 23 22 7 0 12 8 10 18 -2 12 3 16 19 14 15 -2 29 7 44 28 16 21 25 26 31
18 5 -10 11 -8 22 7 9 11 16 26 16 33 0 6 6 12 14 12 8 0 22 7 31 17 14 14 18
14 26 2 12 -20 40 18 36 48 -2 12 0 20 4 17 5 -3 9 2 9 11 0 11 6 15 18 11 25
-8 74 34 75 67 2 19 6 25 18 22 11 -4 19 5 28 35 12 40 25 51 34 28 2 -7 10 7
17 32 8 26 15 38 17 28 5 -21 62 -20 80 2 14 17 12 22 18 -65 3 -48 -19 -125
-35 -125 -4 0 -10 -9 -13 -20 -4 -16 -1 -20 11 -16 76 22 109 18 114 -17 2
-13 11 -23 23 -25 23 -3 46 36 60 98 4 19 10 40 14 45 4 6 8 23 9 38 1 16 15
42 32 60 79 83 113 123 126 149 8 15 20 25 27 23 6 -3 39 19 72 50 33 30 68
57 78 60 9 4 17 15 17 26 0 11 -4 18 -9 14 -6 -3 -14 2 -19 12 -9 15 -14 13
-51 -20 -45 -40 -56 -46 -47 -21 4 11 1 14 -12 12 -9 -2 -17 -12 -18 -23 -1
-35 -16 -75 -26 -69 -5 3 -8 13 -7 22 3 33 -1 42 -20 42 -11 0 -22 -4 -25 -9
-7 -11 -56 -21 -130 -27 -32 -2 -67 -9 -77 -15 -10 -5 -19 -6 -19 -2 0 5 -15
8 -32 8 -18 0 -39 4 -46 9 -19 14 -82 18 -82 6 0 -5 -4 -10 -10 -10 -5 0 -10
8 -10 18 0 27 -30 64 -47 58 -12 -5 -14 0 -11 23 2 17 1 28 -2 26 -4 -2 -14 5
-23 16 -22 26 -62 24 -81 -3 -9 -12 -18 -19 -22 -16 -10 11 7 48 22 48 7 0 19
9 26 21 7 11 32 29 56 40 33 15 42 25 42 44 0 14 -5 25 -11 25 -8 0 -10 17 -5
55 5 47 3 56 -12 66 -12 8 -17 20 -14 35 3 14 0 24 -8 24 -6 0 -11 10 -10 23
4 46 0 59 -15 53 -9 -3 -20 3 -27 14 -7 11 -18 20 -25 20 -26 0 -31 64 -12
165 10 54 17 107 14 119 -2 11 -4 24 -4 29 -1 12 -29 8 -33 -5 -5 -14 -38 -4
-38 12 0 5 20 29 45 52 35 33 45 50 45 74 0 17 3 46 6 63 6 31 7 31 24 11 10
-11 20 -20 23 -20 3 0 9 21 13 48 4 26 15 64 26 85 11 22 17 45 15 52 -8 18
-96 67 -108 59 -8 -4 -9 1 -4 16 4 12 3 25 -1 29 -5 3 -14 15 -20 26 -6 11
-18 20 -26 20 -9 0 -33 18 -55 40 -22 22 -56 49 -76 59 -20 11 -37 22 -37 26
0 4 -23 8 -51 9 -28 1 -59 6 -69 11 -21 11 -163 16 -179 6 -5 -4 -12 -2 -16 4
-9 15 -114 11 -160 -5z m-302 -2098 c-3 -5 5 -7 18 -5 18 2 23 -1 21 -13 -3
-20 24 -33 34 -17 4 6 12 -1 18 -18 l12 -28 22 22 c16 16 22 18 22 8 0 -8 8
-17 18 -21 11 -3 25 -18 32 -33 10 -22 13 -24 19 -10 9 26 33 6 29 -25 -4 -35
14 -36 30 -3 16 31 37 34 52 5 11 -20 12 -20 27 -2 13 16 14 16 9 1 -6 -20 9
-34 19 -18 5 8 11 8 20 0 9 -8 15 -8 20 0 11 18 25 11 25 -15 0 -18 4 -23 15
-19 18 7 18 4 5 -30 -5 -14 -16 -26 -25 -26 -8 0 -15 -4 -15 -10 0 -16 -50
-12 -56 5 -8 20 -30 19 -38 0 -4 -12 -10 -13 -25 -5 -11 5 -27 7 -37 3 -11 -4
-22 1 -31 13 -12 16 -15 17 -23 4 -6 -9 -10 -11 -10 -3 0 7 -6 10 -13 7 -7 -2
-22 4 -32 16 -10 11 -29 20 -42 20 -12 0 -23 5 -23 10 0 6 -6 10 -14 10 -21 0
-79 60 -93 95 -9 23 -12 26 -13 10 -1 -12 -9 1 -20 30 -16 44 -16 51 -3 62 12
9 20 9 33 0 10 -6 16 -15 13 -20z"/>
<path d="M4662 6638 c-6 -7 -24 -49 -41 -93 -18 -44 -35 -89 -40 -100 -37 -90
-54 -134 -61 -160 -4 -16 -19 -57 -33 -90 -22 -53 -26 -82 -32 -215 -9 -230
21 -462 95 -714 16 -56 47 -168 70 -250 23 -82 55 -178 71 -213 16 -35 29 -66
29 -69 0 -3 22 -46 49 -95 28 -49 53 -99 57 -112 10 -34 115 -224 136 -247 47
-50 51 4 9 128 -34 100 -55 257 -47 346 15 145 28 236 46 311 35 151 41 236
35 448 -6 186 -9 209 -37 297 -16 52 -36 135 -45 185 -9 54 -25 107 -40 132
-29 51 -41 88 -53 178 -6 39 -14 81 -19 95 -5 14 -13 48 -19 75 -33 156 -32
153 -64 164 -40 14 -53 14 -66 -1z"/>
<path d="M10077 6583 c-4 -3 -7 -19 -7 -35 0 -24 10 -35 73 -74 39 -26 85 -57
100 -70 16 -13 32 -24 37 -24 14 0 58 82 62 115 3 27 -1 30 -47 46 -59 20
-177 49 -197 49 -8 0 -18 -3 -21 -7z"/>
<path d="M10150 6441 c0 -6 5 -11 10 -11 6 0 10 -4 10 -10 0 -5 -13 -7 -30 -3
-23 4 -30 2 -30 -10 0 -8 6 -17 14 -20 7 -3 14 -17 14 -31 0 -22 -4 -24 -30
-19 -16 3 -28 2 -27 -3 1 -5 -3 -21 -9 -36 -11 -26 -8 -31 36 -73 26 -24 52
-45 59 -45 30 0 67 82 46 104 -13 13 -10 47 4 41 7 -3 20 -8 28 -11 31 -13 14
25 -27 60 -24 20 -37 36 -30 36 6 0 12 -4 12 -8 0 -5 12 -14 28 -21 l27 -13
-22 24 c-28 30 -83 62 -83 49z"/>
<path d="M7228 5393 c-23 -4 -28 -9 -28 -34 0 -22 5 -29 20 -29 25 0 25 -8 1
-39 l-18 -24 -6 24 c-12 45 -21 51 -53 38 -29 -11 -29 -11 -6 -20 12 -4 22
-13 22 -19 0 -7 -6 -8 -17 -2 -24 12 -52 4 -32 -9 10 -6 11 -9 2 -9 -7 0 -13
-7 -13 -16 0 -10 6 -14 15 -11 8 4 17 2 20 -4 9 -13 -17 -37 -34 -31 -8 3 -11
0 -7 -7 5 -7 -1 -11 -13 -11 -24 0 -28 -25 -10 -63 8 -18 8 -30 0 -46 -11 -19
-8 -29 17 -70 1 -3 9 4 17 15 8 10 15 15 15 10 0 -5 7 -3 15 4 26 22 39 -3 17
-30 -28 -35 -18 -55 29 -56 21 -1 39 2 39 7 0 5 7 9 15 9 8 0 15 7 15 15 0 9
9 15 21 15 12 0 23 8 26 20 3 11 13 20 22 20 14 0 14 2 1 10 -20 13 -6 23 21
15 17 -6 19 -9 8 -16 -11 -7 -11 -9 3 -9 43 0 68 29 26 31 -13 0 -17 3 -10 6
6 2 12 9 12 14 0 11 -56 5 -72 -9 -7 -5 -29 -13 -48 -17 -19 -4 -42 -14 -51
-21 -14 -13 -18 -12 -29 1 -10 12 -10 15 3 15 8 0 20 6 26 14 7 8 42 30 79 49
110 55 143 78 140 96 -2 9 -12 17 -23 19 -11 2 -24 9 -30 14 -7 7 -3 8 12 3
25 -7 52 3 36 14 -5 3 -22 27 -37 54 -15 26 -31 47 -35 47 -18 0 -36 -71 -36
-142 0 -58 -3 -78 -13 -78 -10 0 -13 16 -11 63 3 86 0 119 -8 114 -5 -3 -8 11
-8 31 0 38 -5 41 -47 35z"/>
<path d="M10015 4992 c-16 -9 -32 -18 -34 -19 -2 -1 7 -11 20 -22 l24 -20 -49
-1 c-42 0 -47 -2 -36 -15 10 -12 9 -15 -5 -15 -17 0 -17 -1 0 -20 26 -29 14
-33 -34 -14 -53 21 -65 10 -26 -23 26 -21 27 -24 8 -18 -17 4 -23 2 -23 -8 0
-10 -7 -13 -20 -10 -18 5 -19 2 -14 -28 4 -19 11 -40 17 -46 14 -18 -14 -17
-39 2 -10 8 -27 15 -37 15 -15 0 -16 -3 -7 -20 9 -16 8 -21 -5 -25 -8 -3 -22
-7 -30 -10 -8 -2 -15 -14 -15 -25 0 -17 -3 -19 -19 -10 -27 14 -26 15 -40 -30
-12 -42 -20 -47 -39 -28 -9 9 -15 9 -24 0 -7 -7 -9 -12 -6 -12 3 0 2 -15 -2
-34 -4 -21 -3 -39 2 -44 7 -7 1 -37 -17 -89 -30 -87 -114 -298 -152 -383 -75
-165 -81 -191 -33 -145 17 16 30 35 30 42 0 7 5 13 11 13 6 0 9 7 5 15 -3 8
-2 14 2 12 4 -1 18 8 31 20 13 12 28 20 33 17 4 -3 8 6 8 20 0 21 5 26 26 26
21 0 25 4 21 19 -3 14 11 39 49 82 30 34 54 65 54 69 0 3 13 16 30 28 l29 22
56 -25 c64 -30 85 -27 115 16 36 50 42 86 28 172 -14 93 -5 149 40 247 16 36
33 76 37 90 4 14 13 39 20 55 37 83 64 159 59 167 -7 11 -15 10 -49 -10z"/>
<path d="M122 4535 c-7 -14 -15 -45 -18 -68 -3 -23 -19 -109 -35 -190 -35
-179 -36 -188 -9 -154 11 14 20 34 20 45 0 11 6 31 13 45 11 20 17 23 25 15
14 -14 12 -24 17 138 2 62 8 121 14 133 9 15 9 27 1 41 -14 25 -14 25 -28 -5z"/>
<path d="M9488 4503 c0 -5 -2 -12 -3 -18 -6 -31 -18 -42 -39 -38 -16 4 -29 -2
-41 -19 l-17 -23 5 23 c3 12 1 22 -4 22 -5 0 -9 -6 -9 -13 0 -7 -11 -21 -25
-31 -14 -10 -25 -24 -25 -31 0 -22 -58 -55 -97 -55 -31 0 -42 -6 -58 -30 -11
-16 -30 -35 -42 -41 -13 -7 -23 -16 -23 -20 0 -10 -83 -49 -104 -49 -8 0 -21
-9 -29 -20 -8 -11 -16 -17 -20 -14 -3 3 -12 -7 -20 -23 -8 -15 -24 -37 -36
-47 -12 -11 -21 -25 -21 -33 0 -7 -7 -13 -16 -13 -8 0 -12 -5 -9 -10 4 -6 1
-18 -6 -26 -7 -9 -14 -26 -14 -37 -5 -92 -4 -90 -25 -84 -12 3 -23 -1 -28 -10
-7 -12 -13 -10 -31 13 -12 15 -40 36 -62 46 -43 19 -75 24 -49 8 8 -5 11 -12
7 -16 -3 -4 -13 -1 -21 5 -17 14 -38 6 -34 -12 1 -7 -2 -35 -6 -64 -4 -29 -3
-83 3 -125 11 -74 19 -181 20 -275 1 -29 5 -53 9 -53 4 0 13 26 20 58 32 154
54 197 94 187 25 -6 26 -9 22 -68 -3 -34 -11 -102 -19 -152 -8 -49 -17 -115
-20 -145 -3 -30 -13 -89 -22 -131 -17 -82 -13 -116 12 -102 8 5 38 30 67 55
29 26 76 66 104 90 27 24 70 65 95 92 42 46 44 51 42 103 -3 49 -1 54 22 63
33 12 47 37 106 181 28 68 54 129 59 134 4 6 26 53 48 105 22 52 84 187 137
300 125 266 146 316 139 334 -6 16 -33 22 -36 9z"/>
<path d="M2672 4293 c-5 -10 -21 -58 -37 -108 -15 -49 -31 -94 -36 -99 -5 -5
-4 -15 2 -23 7 -8 8 -13 1 -13 -10 0 -26 -37 -23 -54 1 -5 -2 -12 -6 -15 -21
-15 -44 -101 -27 -101 9 0 34 28 34 39 0 5 8 15 18 20 16 10 16 10 0 11 -10 0
-18 3 -18 6 0 4 8 13 18 21 12 10 14 16 5 19 -19 8 -15 24 5 24 26 0 51 30 58
71 3 19 9 45 14 59 13 39 20 160 10 160 -5 0 -13 -8 -18 -17z"/>
<path d="M6686 4002 c-3 -3 -1 -11 5 -19 9 -9 8 -13 0 -13 -6 0 -11 5 -11 10
0 20 -30 9 -34 -12 -5 -24 -19 -362 -20 -458 0 -67 12 -130 24 -130 6 0 24 28
40 63 17 34 37 71 45 81 26 34 30 7 6 -47 -59 -137 -73 -189 -72 -282 1 -95
15 -266 31 -375 5 -36 10 -90 10 -121 0 -64 19 -169 31 -169 4 0 14 -2 22 -6
19 -7 28 143 18 341 -4 95 -3 168 4 200 22 103 3 817 -24 887 -9 25 -64 62
-75 50z"/>
<path d="M5040 3961 c0 -22 -4 -43 -10 -46 -5 -3 -10 -25 -10 -48 0 -23 -5
-49 -11 -57 -9 -12 -10 -11 -6 8 3 14 0 22 -8 22 -12 0 -22 -14 -23 -34 0 -5
-5 -12 -11 -16 -17 -10 -22 -51 -10 -67 8 -9 7 -22 -5 -47 -9 -19 -16 -55 -16
-80 0 -33 -4 -46 -14 -46 -20 0 -28 -25 -35 -115 -8 -88 -36 -175 -57 -175 -8
0 -14 6 -14 14 0 12 -58 47 -77 46 -4 0 -7 -33 -7 -74 -1 -41 2 -72 6 -70 4 2
9 0 13 -6 11 -18 42 -11 58 13 8 12 18 19 22 15 17 -17 26 -227 14 -355 -6
-72 -9 -141 -6 -152 3 -12 -3 -46 -14 -76 -21 -59 -25 -125 -9 -125 6 0 29 12
51 26 47 29 47 22 14 203 -13 75 -14 99 -5 122 16 38 36 37 56 -3 9 -18 36
-61 60 -95 26 -39 38 -63 31 -66 -7 -3 -3 -8 8 -12 42 -16 45 -24 23 -60 -11
-19 -17 -39 -13 -44 3 -6 14 -69 25 -141 11 -72 22 -135 26 -141 3 -6 18 -9
31 -6 25 5 25 4 20 -43 -5 -38 -2 -53 13 -70 l18 -21 15 43 c9 24 30 90 48
148 18 58 41 117 51 132 10 14 18 31 18 37 0 5 -27 23 -60 38 -33 15 -60 34
-60 41 0 17 1 16 74 -20 36 -18 68 -30 71 -27 2 3 8 19 11 36 6 30 4 32 -57
63 -76 37 -105 57 -96 66 3 4 40 -12 82 -35 l76 -42 24 25 c13 14 29 26 35 26
25 0 -1 128 -40 193 -12 21 -20 40 -18 43 3 2 25 -3 48 -11 51 -18 70 -14 70
15 0 29 -20 34 -87 22 -49 -9 -64 -7 -98 8 -41 18 -84 55 -120 101 -11 14 -38
37 -60 52 -25 17 -33 27 -22 27 19 0 23 15 6 25 -6 4 -9 25 -7 47 2 34 -1 42
-19 49 -26 9 -43 38 -43 72 0 35 28 111 50 135 15 16 17 26 10 51 -9 34 8 58
35 47 19 -7 19 -6 -10 51 -34 66 -38 96 -37 261 0 82 -3 142 -9 142 -5 0 -9
-18 -9 -39z"/>
<path d="M8400 3941 c0 -5 6 -11 13 -14 8 -3 14 -19 15 -36 1 -27 -2 -30 -18
-21 -10 6 -27 10 -38 10 -10 0 -41 11 -68 25 -27 14 -51 25 -54 25 -2 0 14
-19 35 -41 l40 -41 -40 7 c-22 4 -56 16 -75 27 l-35 20 26 -24 c14 -12 39 -33
54 -45 32 -25 28 -41 -5 -23 -15 8 -20 8 -16 1 10 -15 6 -14 -58 15 -31 14
-60 23 -66 19 -15 -9 -12 -31 5 -45 21 -18 11 -24 -15 -10 -18 10 -22 9 -27
-9 -3 -12 -8 -21 -12 -21 -10 0 -34 -53 -72 -153 -17 -45 -39 -104 -50 -131
-25 -64 -24 -84 6 -108 14 -11 53 -56 86 -99 58 -77 79 -89 79 -48 0 32 40 79
59 69 9 -5 24 -11 34 -14 14 -4 17 -17 17 -65 0 -65 9 -77 50 -72 30 4 57 30
66 65 3 15 10 29 15 32 5 3 9 16 9 29 0 35 17 39 36 10 9 -14 21 -22 25 -18 9
9 19 246 23 530 3 139 2 141 -21 152 -12 6 -23 7 -23 2z"/>
<path d="M622 3828 c-22 -95 -34 -193 -34 -283 0 -64 22 -84 88 -80 35 2 54
-2 75 -17 39 -29 43 -47 15 -73 -23 -22 -24 -22 -40 -4 -18 22 -44 24 -68 5
-24 -18 -23 -31 5 -53 12 -10 32 -32 44 -49 15 -21 37 -35 67 -44 63 -17 80
-39 71 -89 -4 -23 -9 -41 -12 -41 -11 0 -70 49 -122 100 -27 27 -53 45 -56 40
-14 -22 -91 1 -99 30 -3 12 -4 12 -5 -1 0 -9 6 -22 14 -29 8 -7 15 -19 15 -26
0 -7 12 -21 28 -31 15 -10 49 -38 75 -63 27 -25 57 -49 67 -55 10 -5 19 -14
20 -20 1 -5 16 -27 32 -48 38 -47 30 -61 -9 -16 -76 87 -233 234 -311 292 -93
68 -178 105 -165 71 8 -21 -6 -17 -47 16 -21 17 -42 30 -47 30 -5 0 -20 19
-32 41 -22 38 -23 45 -12 93 11 43 10 57 -4 90 -9 21 -14 41 -11 44 3 3 6 0 6
-6 0 -7 5 -12 10 -12 15 0 12 36 -5 50 -8 7 -15 22 -15 34 0 15 -9 25 -30 33
-19 7 -30 18 -30 30 0 11 -3 23 -7 27 -5 4 -8 12 -8 18 0 6 -7 15 -16 21 -22
14 -49 -12 -49 -47 0 -14 -5 -28 -10 -31 -6 -3 -10 -23 -10 -44 0 -31 5 -40
25 -49 21 -10 25 -18 23 -52 -1 -22 4 -46 10 -52 15 -15 16 -50 2 -64 -7 -7
-3 -24 12 -52 17 -31 20 -44 12 -52 -9 -9 -18 -8 -38 5 -21 14 -26 15 -26 3 0
-29 31 -104 53 -128 29 -32 35 -49 47 -127 6 -42 17 -75 33 -96 13 -18 27 -42
31 -54 4 -13 11 -23 15 -23 4 0 15 -18 24 -39 12 -26 30 -46 55 -59 24 -12 38
-27 40 -43 2 -13 8 -28 13 -34 5 -5 9 -39 9 -77 0 -74 13 -115 41 -123 17 -6
49 -86 49 -122 0 -7 5 -13 10 -13 6 0 10 6 10 14 0 7 7 19 15 26 12 10 14 26
9 76 -6 54 -4 65 10 70 32 12 72 -49 97 -152 7 -27 20 -65 30 -86 10 -20 25
-55 33 -77 13 -38 12 -43 -6 -66 -18 -23 -43 -143 -33 -154 8 -7 34 19 57 58
12 20 37 56 55 80 23 30 32 49 27 63 -3 11 -7 26 -9 32 -10 39 -22 68 -52 125
-18 35 -31 66 -29 68 2 2 -15 59 -39 126 -36 103 -65 173 -144 352 -5 11 -14
34 -20 50 -6 17 -21 36 -31 43 -18 11 -21 9 -26 -18 -6 -25 -10 -29 -30 -24
-26 7 -31 -5 -12 -24 8 -8 8 -15 -1 -26 -6 -8 -10 -25 -7 -38 13 -63 15 -108
6 -108 -5 0 -26 24 -46 54 -35 53 -49 105 -58 216 -7 89 -14 99 -82 131 -67
32 -81 49 -39 49 89 0 441 -216 580 -355 125 -126 198 -213 200 -239 0 -14 9
-34 20 -46 18 -20 20 -20 26 -3 7 19 -8 46 -21 38 -5 -3 -12 0 -16 6 -3 6 -1
15 7 19 10 7 10 16 0 51 -7 24 -15 75 -17 114 -1 39 -8 83 -13 98 -6 15 -7 36
-3 47 10 27 -6 264 -21 320 -9 30 -10 57 -4 82 7 31 5 42 -12 64 -12 15 -21
35 -21 45 0 10 -11 29 -25 43 -14 14 -25 34 -25 45 0 11 -9 36 -19 55 -11 19
-25 53 -32 76 -7 23 -23 51 -36 63 -12 12 -23 30 -23 40 0 9 -6 17 -13 17 -8
0 -21 -35 -35 -92z"/>
<path d="M6879 3868 c-2 -84 3 -443 6 -448 5 -8 18 -380 16 -450 -1 -30 7
-134 19 -230 11 -96 20 -191 20 -211 0 -20 3 -39 7 -42 11 -12 98 149 123 228
7 22 28 71 48 108 25 50 37 65 44 55 6 -9 7 -5 3 10 -5 17 2 38 27 75 59 90
71 124 63 176 -4 25 -7 64 -7 86 0 35 -13 282 -22 418 -2 26 -7 51 -10 54 -3
4 -6 42 -6 85 0 43 -3 78 -6 78 -3 0 -18 -8 -32 -19 -39 -27 -130 -18 -134 13
-2 14 -11 22 -28 24 -14 2 -29 9 -35 15 -5 7 -29 13 -52 15 l-43 3 -1 -43z"/>
<path d="M1648 3839 c-24 -18 -69 -87 -48 -74 4 3 13 -2 20 -10 7 -8 18 -15
25 -15 19 0 38 -28 40 -55 1 -37 19 -51 48 -38 28 13 35 63 10 63 -8 0 -12 4
-9 9 3 5 -7 35 -24 67 -16 32 -27 61 -24 66 9 14 -10 8 -38 -13z"/>
<path d="M7720 3824 c14 -36 13 -44 -10 -44 -11 0 -20 5 -20 10 0 7 -7 7 -21
-1 -17 -9 -25 -7 -45 12 l-24 22 0 -24 c1 -13 7 -35 15 -49 17 -29 20 -70 5
-70 -5 0 -10 -4 -10 -10 0 -5 7 -10 15 -10 11 0 15 -12 15 -44 0 -42 40 -211
56 -237 7 -12 43 26 44 46 0 6 24 75 54 153 67 178 74 207 47 221 -28 16 -33
14 -26 -9 8 -25 -1 -25 -43 0 -21 13 -32 26 -29 35 3 7 -1 16 -9 19 -24 9 -24
8 -14 -20z"/>
<path d="M7393 3703 c-20 -4 -21 -9 -18 -51 3 -26 7 -81 11 -122 5 -68 10
-117 13 -130 4 -15 25 42 42 111 21 89 24 151 9 180 -11 19 -16 20 -57 12z"/>
<path d="M6396 3629 c-6 -29 -23 -132 -30 -174 -4 -31 27 -164 48 -200 17 -31
25 116 13 260 -9 118 -21 162 -31 114z"/>
<path d="M4477 3574 c-8 -9 3 -33 39 -87 71 -103 87 -151 88 -253 0 -58 5 -94
11 -94 23 0 47 42 44 79 -3 45 10 101 23 101 6 0 8 9 5 20 -4 15 0 20 13 20
16 0 17 3 7 25 -7 14 -18 23 -25 20 -17 -6 -172 111 -172 132 -1 14 -27 43
-33 37z"/>
<path d="M1012 3508 c-6 -29 -10 -60 -8 -68 2 -8 7 -30 11 -47 4 -18 12 -33
17 -33 5 0 7 -4 4 -8 -8 -13 7 -26 58 -52 27 -14 87 -62 133 -107 46 -46 88
-83 92 -83 5 0 16 -3 25 -6 14 -5 15 1 10 40 -5 33 -3 46 5 46 8 0 10 8 6 20
-5 17 -2 20 20 20 14 0 39 -7 55 -15 34 -18 43 -9 31 31 -17 57 -34 84 -54 84
-29 0 -87 31 -87 46 0 18 -27 18 -37 0 -21 -37 -173 -14 -173 26 0 11 -5 15
-14 12 -16 -6 -66 88 -66 124 0 41 -17 22 -28 -30z"/>
<path d="M3940 3528 c-6 -13 -19 -38 -30 -56 -11 -18 -18 -37 -15 -42 7 -11
-12 -50 -23 -49 -21 3 -32 -3 -32 -17 0 -11 -5 -14 -16 -10 -12 4 -14 1 -9
-14 5 -16 2 -20 -15 -20 -15 0 -20 -5 -17 -14 3 -8 -2 -16 -14 -19 -10 -3 -23
-16 -29 -29 -6 -12 -22 -41 -35 -63 -14 -22 -25 -48 -25 -58 0 -23 -75 -129
-84 -120 -4 4 -4 0 -1 -9 4 -10 -3 -29 -16 -47 -12 -17 -21 -32 -18 -35 2 -2
23 -6 46 -9 l42 -5 18 47 c9 25 20 48 24 51 4 3 23 52 43 110 27 81 39 106 54
108 24 4 35 -31 26 -77 -4 -17 -5 -31 -3 -31 2 0 43 37 90 83 78 74 87 86 91
123 2 28 0 40 -8 37 -8 -3 -11 24 -10 91 2 74 -1 96 -11 96 -7 0 -18 -10 -23
-22z"/>
<path d="M7472 3434 c-54 -236 -55 -239 -43 -326 6 -44 12 -102 12 -127 l1
-46 9 45 c28 136 38 160 65 160 7 0 18 -19 24 -42 19 -74 20 -75 35 -54 8 10
19 42 26 71 9 43 9 61 -3 101 -18 55 -29 99 -54 198 -10 37 -25 78 -34 89 -17
20 -18 18 -38 -69z"/>
<path d="M4142 3444 c-28 -20 -28 -42 1 -53 40 -16 59 -45 48 -75 -13 -33 -20
-33 -55 4 -22 24 -31 28 -42 19 -8 -6 -14 -21 -14 -33 0 -45 -27 -109 -51
-121 -13 -7 -27 -11 -31 -9 -10 7 -10 1 1 -29 8 -20 6 -29 -8 -41 -20 -18 -46
-13 -55 10 -3 8 -9 14 -14 14 -11 0 -56 -109 -48 -117 3 -4 6 -1 6 5 0 7 5 12
11 12 7 0 9 -10 5 -27 -4 -16 -7 -36 -7 -45 0 -13 -8 -18 -28 -18 -23 0 -31
-8 -48 -46 -21 -45 -21 -46 -2 -79 11 -18 24 -59 30 -92 13 -75 18 -82 58 -85
48 -4 62 -45 25 -74 -17 -14 -7 -46 13 -42 15 3 47 78 65 153 15 60 74 178
102 204 27 25 32 22 38 -28 3 -20 9 -24 46 -25 42 -2 43 -1 37 23 -7 27 -21
41 -42 41 -18 0 -33 34 -27 61 3 13 8 49 11 79 5 52 10 60 79 135 41 43 74 84
74 91 0 19 38 37 65 30 14 -4 30 -22 44 -51 12 -25 28 -48 36 -51 8 -4 15 -12
15 -20 0 -8 7 -14 15 -14 22 0 18 36 -5 53 -23 16 -59 92 -60 125 0 13 -13 37
-29 53 -31 31 -71 39 -71 14 0 -10 -11 -15 -35 -15 -34 0 -47 -13 -22 -23 8
-4 7 -6 -3 -6 -29 -1 -50 22 -79 87 -12 26 -19 27 -49 6z"/>
<path d="M2171 3358 c3 -40 -11 -62 -26 -38 -4 6 -27 -10 -58 -40 -28 -27 -57
-50 -64 -50 -7 0 -12 -3 -11 -7 1 -5 -4 -46 -11 -93 -7 -47 -14 -98 -15 -115
-2 -16 -9 -31 -15 -33 -6 -2 -22 -27 -35 -56 -13 -29 -40 -70 -60 -91 -39 -41
-49 -79 -18 -68 9 4 23 13 30 20 32 31 50 2 32 -52 -6 -19 -26 -56 -44 -83
-45 -65 -52 -89 -31 -112 22 -25 13 -54 -15 -45 -11 3 -20 4 -20 2 0 -2 -11
-35 -25 -73 -25 -68 -55 -212 -55 -263 0 -15 6 -36 14 -47 14 -19 15 -19 22 1
10 26 51 82 86 119 15 15 28 37 28 47 0 14 7 19 25 19 15 0 28 7 32 18 6 18
73 81 86 82 4 0 7 7 7 15 0 8 6 15 14 15 8 0 16 10 20 23 3 12 21 39 41 60 19
21 35 42 35 46 0 5 14 25 30 46 19 23 29 48 28 64 -2 27 15 65 39 90 8 7 12
20 8 29 -3 8 -1 20 5 27 16 20 -10 60 -43 63 -21 2 -27 -2 -27 -16 0 -10 -5
-23 -10 -28 -15 -15 -23 -64 -10 -64 5 0 10 -5 10 -11 0 -7 -11 -9 -26 -6 -22
4 -31 -2 -57 -39 -25 -36 -33 -41 -49 -33 -20 11 -23 25 -8 34 6 3 10 14 10
24 0 10 11 26 25 35 13 9 22 22 19 29 -3 8 2 20 11 27 20 16 19 26 -5 59 -14
21 -18 38 -14 67 12 87 10 84 64 84 53 0 65 14 27 31 -13 6 -29 19 -36 30 -11
18 -7 25 28 57 23 21 41 43 41 49 0 19 16 24 44 13 25 -9 26 -8 26 24 0 18 3
47 6 64 5 25 1 36 -25 61 -19 18 -42 31 -57 31 -24 0 -25 -3 -23 -42z"/>
<path d="M3372 3302 c-9 -27 -7 -30 22 -47 72 -41 136 -89 142 -108 3 -11 2
-29 -4 -41 -29 -63 -33 -79 -21 -86 6 -4 19 -6 28 -3 22 6 56 189 42 226 -10
26 -68 52 -141 62 -25 4 -48 11 -51 17 -4 5 -11 -3 -17 -20z"/>
<path d="M7864 3293 c-8 -21 -20 -48 -26 -60 -8 -17 -7 -27 5 -46 15 -23 77
-300 77 -345 0 -15 7 -26 19 -29 14 -4 21 -15 23 -41 2 -27 8 -38 22 -40 17
-4 18 0 11 34 -11 62 -4 119 23 172 20 39 33 37 48 -9 18 -55 38 -43 45 26 7
78 -1 105 -50 163 -42 50 -49 68 -30 74 6 2 -4 18 -22 36 -58 55 -114 102
-122 102 -4 0 -15 -17 -23 -37z"/>
<path d="M5181 3275 c-27 -64 -28 -71 -14 -118 13 -44 13 -51 -1 -66 -15 -16
-15 -19 2 -34 26 -24 106 -58 110 -46 2 5 0 17 -4 27 -4 9 -7 20 -6 23 1 4
-10 35 -23 70 -14 34 -25 72 -25 84 0 12 -4 25 -9 31 -5 5 -11 20 -13 34 l-4
25 -13 -30z"/>
<path d="M1040 3232 c0 -15 -5 -33 -11 -39 -7 -7 -6 -25 5 -62 14 -49 14 -51
-4 -51 -15 0 -20 -11 -26 -57 -4 -32 -8 -76 -9 -98 -1 -22 -3 -40 -5 -40 -7 0
-7 -182 0 -195 5 -9 4 -24 -2 -34 -9 -16 -8 -17 14 -6 12 7 36 28 51 47 16 18
42 40 58 48 16 9 29 21 29 28 1 6 14 21 29 32 107 74 148 118 125 133 -17 12
-112 148 -141 203 -37 68 -52 88 -85 105 -27 14 -28 14 -28 -14z"/>
<path d="M3040 3223 c0 -14 -2 -15 -9 -4 -6 9 -10 5 -14 -15 -3 -16 -14 -60
-25 -99 -11 -38 -23 -88 -27 -109 -4 -25 -9 -35 -14 -27 -5 8 -10 -2 -14 -26
-13 -74 -12 -76 36 -68 23 4 70 7 105 6 38 0 75 5 92 14 16 8 46 15 67 16 35
0 36 1 16 11 -13 6 -23 18 -24 27 0 10 -2 12 -6 4 -8 -20 -23 -15 -23 8 0 19
4 20 40 14 25 -4 40 -3 40 4 0 5 12 9 28 8 26 -2 27 0 28 51 1 37 -3 52 -12
52 -8 0 -14 5 -14 11 0 8 -4 8 -14 0 -11 -9 -24 -9 -55 1 -37 12 -41 16 -42
48 -1 19 -1 38 0 43 0 4 -10 7 -24 7 -26 0 -29 -4 -39 -52 -4 -17 -13 -28 -24
-29 -10 0 -12 -3 -4 -6 18 -7 15 -20 -8 -26 -19 -5 -26 -30 -22 -77 1 -8 -1
-22 -5 -30 -3 -8 -7 -26 -9 -39 -4 -31 -8 -34 -33 -26 -25 8 -29 50 -6 62 11
6 16 29 17 82 2 53 7 75 18 81 13 8 13 9 -2 10 -21 0 -24 16 -5 23 9 4 8 8 -3
16 -10 7 -11 11 -2 11 6 0 12 9 12 20 0 11 -4 20 -10 20 -5 0 -10 -8 -10 -17z"/>
<path d="M9016 3108 c-19 -40 -57 -111 -85 -158 -28 -47 -51 -96 -51 -108 0
-26 29 -82 43 -82 4 0 18 21 29 48 12 26 29 52 38 59 12 9 19 33 24 80 4 37
15 105 25 151 10 45 16 82 14 82 -2 0 -18 -33 -37 -72z"/>
<path d="M9167 3147 c-3 -7 -3 -25 0 -40 3 -15 1 -33 -5 -40 -15 -18 -27 -92
-14 -83 6 3 14 -3 17 -15 8 -25 82 -99 99 -99 6 0 19 18 29 40 12 28 23 40 37
40 11 0 20 6 20 13 0 7 10 17 22 22 30 13 48 52 39 79 -11 29 -39 32 -66 6
-28 -26 -74 -21 -82 10 -3 10 -15 21 -26 24 -19 5 -20 8 -7 16 13 8 13 10 -1
10 -9 0 -22 7 -29 15 -15 18 -26 19 -33 2z"/>
<path d="M1720 3097 c0 -8 7 -50 15 -93 8 -44 16 -91 17 -106 1 -15 6 -24 10
-22 4 3 8 -2 8 -11 0 -14 3 -14 30 0 17 9 28 20 25 25 -3 4 -1 10 5 12 18 6
23 64 6 81 -9 8 -14 21 -11 29 6 15 -3 29 -26 43 -10 6 -31 20 -48 33 -23 18
-31 20 -31 9z"/>
<path d="M1600 3045 c0 -8 -4 -15 -9 -15 -5 0 -11 -10 -15 -22 -6 -23 -6 -23
-28 5 -22 27 -24 27 -35 9 -10 -16 -8 -23 7 -40 14 -15 16 -22 7 -25 -7 -3 -2
-6 11 -6 15 -1 21 3 16 10 -4 7 -1 10 6 7 8 -2 19 -33 26 -67 13 -64 33 -90
67 -91 9 0 17 -4 17 -9 0 -4 -11 -6 -25 -3 -20 3 -25 0 -25 -17 0 -12 -6 -21
-15 -21 -17 0 -20 -26 -5 -35 7 -4 4 -13 -9 -24 -14 -13 -17 -21 -9 -34 14
-26 2 -47 -24 -44 -14 1 -22 -3 -21 -10 2 -7 -6 -17 -17 -23 -25 -13 -26 -30
-2 -31 16 0 16 -1 -1 -7 -10 -4 -24 -20 -32 -35 -13 -25 -12 -27 5 -27 10 0
36 -10 58 -21 l40 -22 26 29 c48 53 74 108 90 192 l17 83 -39 47 c-36 43 -40
54 -46 126 -4 43 -10 92 -13 108 -6 29 -23 39 -23 13z"/>
<path d="M9111 2897 c-6 -35 -11 -76 -11 -90 0 -15 -14 -61 -30 -102 -29 -72
-29 -77 -15 -106 l16 -30 26 21 c14 11 31 20 39 20 17 0 27 52 19 99 -8 48 4
57 46 36 29 -15 32 -15 45 2 20 27 17 45 -16 89 -16 21 -30 45 -30 52 0 13
-58 72 -71 72 -4 0 -12 -28 -18 -63z"/>
<path d="M7248 2905 c-8 -16 -21 -54 -28 -84 -17 -71 -46 -150 -63 -170 -16
-18 -42 -73 -87 -184 -18 -42 -36 -75 -41 -71 -12 7 -12 -19 1 -32 5 -5 11
-18 13 -29 7 -38 48 -95 69 -95 35 0 83 29 134 81 l49 50 1 92 c1 109 -13 344
-24 419 l-8 53 -16 -30z"/>
<path d="M8245 2778 c3 -46 9 -137 14 -203 7 -105 20 -165 36 -165 3 0 13 17
23 38 10 20 29 55 41 77 34 58 24 134 -30 231 -73 132 -93 137 -84 22z"/>
<path d="M1280 2790 c-22 -22 -40 -45 -40 -51 0 -7 -17 -31 -37 -55 -59 -67
-85 -102 -130 -177 -34 -58 -39 -72 -28 -83 11 -12 45 -138 45 -170 0 -30 -28
-13 -34 21 -4 19 -16 55 -27 80 l-21 46 -45 -58 c-25 -32 -52 -73 -61 -90 -14
-30 -14 -34 2 -52 10 -11 16 -27 13 -35 -6 -16 17 -102 33 -121 5 -6 7 -15 3
-18 -10 -11 17 -54 42 -65 20 -9 26 -7 38 11 13 20 16 21 41 8 37 -20 32 -31
-14 -31 -37 0 -39 -2 -46 -36 -4 -19 -13 -38 -21 -41 -8 -3 -10 -10 -5 -17 14
-17 23 -48 13 -41 -5 3 -12 -8 -16 -25 -6 -28 -25 -43 -25 -20 0 6 -7 10 -15
10 -17 0 -19 -11 -6 -25 14 -16 22 -63 11 -70 -13 -8 -13 -38 1 -52 8 -8 23 2
56 40 81 90 157 190 201 264 39 64 42 75 36 110 -5 21 -7 42 -5 47 1 5 7 48
13 95 6 47 14 91 18 96 9 10 18 56 24 115 2 19 -3 53 -11 75 -29 81 -31 91
-19 114 l12 22 14 -26 c27 -50 35 -22 35 113 0 73 -1 132 -2 132 -2 0 -21 -18
-43 -40z"/>
<path d="M7625 2778 c-13 -29 -27 -77 -31 -105 -6 -48 -5 -53 13 -53 10 0 23
4 29 8 5 5 21 13 36 20 25 10 27 10 17 -6 -6 -9 -26 -28 -45 -42 -31 -23 -52
-56 -41 -66 2 -3 21 5 41 17 25 14 44 19 62 15 21 -6 25 -4 21 8 -4 9 -2 18 3
21 13 8 13 72 0 80 -6 4 -8 15 -5 25 15 47 -24 130 -61 130 -9 0 -25 -23 -39
-52z"/>
<path d="M0 2685 c0 -78 2 -88 25 -113 31 -33 41 -82 28 -138 -7 -28 -7 -78
-1 -137 4 -50 5 -116 2 -145 -5 -41 -2 -61 11 -86 18 -32 18 -35 -4 -78 -21
-44 -32 -142 -18 -164 6 -11 42 -21 95 -28 12 -1 28 -8 34 -14 7 -7 26 -12 42
-11 30 1 30 1 -9 13 -48 15 -65 51 -18 40 15 -3 38 -13 51 -21 20 -12 23 -12
29 4 7 22 43 63 55 63 4 0 8 -18 8 -40 0 -35 3 -39 22 -37 17 1 22 -3 23 -20
0 -22 18 -36 103 -80 31 -16 33 -16 50 1 16 17 16 17 -3 15 -36 -5 -61 11 -83
52 -19 35 -20 43 -8 53 12 9 11 22 -4 86 -10 41 -23 76 -29 78 -6 2 -11 13
-11 25 0 30 -16 52 -37 52 -10 0 -18 7 -18 15 -1 27 -17 42 -40 38 -32 -7 -59
45 -51 98 4 27 3 33 -3 19 -7 -16 -9 -12 -14 25 -8 64 -32 166 -54 230 -14 38
-28 59 -45 67 -14 7 -31 28 -38 45 -7 18 -16 42 -20 53 -5 11 -11 35 -14 54
-6 34 -31 71 -48 71 -4 0 -8 -38 -8 -85z"/>
<path d="M3075 2713 c-25 -6 -57 -19 -71 -28 -25 -16 -25 -19 -18 -92 6 -69 5
-78 -13 -92 -15 -12 -18 -22 -12 -41 4 -14 7 -19 8 -12 1 6 7 12 15 12 24 0
29 -56 10 -115 -9 -31 -14 -58 -11 -61 9 -10 217 162 217 179 0 6 6 18 13 26
24 28 42 100 29 113 -20 20 -13 30 21 26 28 -3 32 0 35 24 3 23 0 27 -13 21
-14 -5 -16 -2 -10 15 5 16 2 22 -9 22 -9 0 -16 5 -16 11 0 13 -112 8 -175 -8z"/>
<path d="M2858 2700 c-37 -8 -73 -21 -80 -28 -6 -6 -18 -12 -25 -12 -7 0 -13
-4 -13 -9 0 -4 -20 -19 -44 -32 -31 -16 -51 -36 -65 -65 -12 -23 -32 -49 -45
-60 -14 -10 -35 -42 -48 -71 -12 -29 -26 -53 -30 -53 -4 0 -15 -14 -24 -31
-13 -26 -15 -54 -12 -148 4 -91 2 -118 -9 -126 -12 -9 -16 -61 -13 -158 2 -32
30 -31 64 2 17 17 36 31 40 31 31 0 236 181 236 208 0 5 7 15 15 22 8 7 15 27
15 44 0 17 6 42 13 56 7 14 14 38 15 54 1 16 7 35 13 43 6 7 9 26 6 43 -4 16
-2 32 4 36 10 6 6 60 -7 107 -4 13 1 17 21 17 27 0 27 0 23 65 -4 63 -3 64 19
59 13 -4 23 -2 23 4 0 18 -24 19 -92 2z"/>
<path d="M4731 2654 c-27 -35 -51 -89 -51 -116 0 -32 31 -128 40 -128 5 0 16
14 25 30 17 32 28 191 16 224 -7 17 -9 16 -30 -10z"/>
<path d="M4205 2625 c-7 -21 -70 -66 -118 -84 -32 -12 -56 -48 -63 -93 -5 -28
1 -42 39 -93 57 -77 84 -105 97 -105 6 0 18 17 27 38 19 45 30 240 15 268 -7
13 -6 24 5 41 8 12 13 28 10 35 -4 9 -8 6 -12 -7z"/>
<path d="M9486 2593 c-14 -21 -26 -46 -26 -57 0 -10 -8 -24 -17 -31 -9 -7 -23
-37 -30 -66 -15 -68 -17 -235 -2 -245 16 -10 61 27 84 69 11 20 23 37 26 37 4
0 10 -32 14 -72 l7 -72 21 28 c15 21 22 24 28 14 6 -9 9 -5 9 14 0 15 -4 30
-10 33 -5 3 -10 23 -10 44 0 51 -30 141 -47 141 -13 0 -17 12 -14 38 1 7 -6
25 -15 41 -17 29 -17 30 9 64 22 29 24 37 13 47 -12 9 -20 4 -40 -27z"/>
<path d="M7693 2551 c-5 -3 -16 -19 -26 -34 -10 -15 -29 -32 -43 -37 -22 -9
-24 -15 -24 -75 0 -41 4 -65 11 -65 8 0 10 -36 8 -117 -6 -196 -1 -273 16
-273 19 0 37 37 65 129 20 67 38 101 55 101 3 0 3 -16 -1 -36 -5 -25 -3 -35 4
-30 15 9 26 66 14 78 -6 6 -2 22 10 46 13 25 17 47 13 67 -3 17 -12 76 -20
133 -7 57 -15 106 -18 108 -8 8 -55 12 -64 5z"/>
<path d="M2243 2485 c-20 -13 -56 -47 -78 -76 -31 -41 -50 -56 -78 -62 -51
-12 -125 -106 -111 -142 4 -9 -2 -25 -13 -38 -11 -12 -32 -44 -48 -72 -15 -27
-45 -71 -66 -96 -21 -26 -41 -58 -44 -72 -8 -32 2 -67 19 -67 13 0 36 41 36
65 0 19 189 215 207 215 7 0 13 4 13 9 0 5 15 16 34 25 23 11 39 28 50 56 9
22 19 40 24 40 4 0 16 14 26 30 13 23 16 41 11 72 l-7 41 30 -6 c31 -6 52 6
32 18 -15 9 -12 35 5 35 8 0 19 9 24 19 16 30 -21 33 -66 6z"/>
<path d="M1451 2443 c-6 -20 -7 -41 -4 -46 4 -6 1 -7 -6 -2 -9 5 -12 1 -10
-11 2 -11 0 -24 -3 -30 -6 -9 -28 -124 -28 -146 0 -23 25 2 84 84 36 50 66
101 66 114 0 23 -51 74 -75 74 -8 0 -19 -16 -24 -37z"/>
<path d="M4853 2437 c-53 -37 -61 -60 -62 -184 -2 -107 -1 -112 24 -137 23
-23 34 -26 92 -26 63 0 65 1 59 23 -3 12 -11 66 -16 120 -5 53 -15 126 -22
162 -13 73 -22 78 -75 42z"/>
<path d="M5386 2433 c-7 -37 -53 -366 -65 -473 -6 -47 -13 -95 -17 -107 -4
-14 -2 -23 5 -23 6 0 11 7 11 14 0 8 12 21 28 28 21 11 32 29 53 90 14 42 44
105 67 139 35 51 42 71 42 109 0 110 -35 220 -76 239 -36 16 -42 14 -48 -16z"/>
<path d="M6240 2421 c0 -11 -4 -23 -10 -26 -5 -3 -10 -17 -10 -31 0 -14 -7
-36 -16 -49 -9 -14 -16 -45 -16 -74 1 -57 49 -211 67 -211 6 0 17 11 24 24 7
13 24 30 38 37 23 13 25 17 20 69 -11 107 -19 155 -28 175 -5 11 -14 38 -21
60 -14 43 -48 62 -48 26z"/>
<path d="M3283 2387 c-31 -45 -213 -222 -294 -285 -74 -58 -74 -58 -95 -155
-17 -80 -16 -80 -5 -73 19 12 54 -45 67 -110 8 -38 19 -71 25 -75 8 -4 7 -8
-2 -12 -8 -3 -9 -6 -3 -6 18 -1 39 38 69 125 15 43 39 104 53 134 102 222 219
490 213 490 -3 0 -16 -15 -28 -33z"/>
<path d="M3458 2353 c-14 -29 -15 -57 -7 -260 11 -242 29 -342 70 -379 10 -9
19 -25 19 -35 0 -36 21 -29 40 13 26 57 28 183 3 210 -9 10 -11 18 -6 18 6 0
16 14 22 31 13 38 15 315 2 323 -13 8 -41 -4 -41 -17 0 -6 7 -19 17 -29 15
-17 15 -18 -1 -18 -10 0 -23 14 -32 35 -15 37 -24 41 -55 25 -17 -10 -19 -7
-19 26 l0 36 44 -6 c35 -6 45 -4 50 9 8 23 9 22 -19 27 -14 3 -25 1 -25 -6 0
-6 -5 -4 -10 4 -8 13 -11 13 -19 1 -7 -11 -10 -10 -13 5 -3 16 -7 13 -20 -13z"/>
<path d="M3957 2258 c-9 -29 -19 -70 -23 -91 -3 -20 -10 -40 -15 -43 -15 -9
-89 -188 -89 -215 0 -16 53 -35 70 -24 4 2 10 34 14 71 4 37 13 76 21 88 15
20 15 20 15 0 0 -11 5 -25 11 -31 13 -13 39 -6 39 11 0 6 16 37 35 69 19 32
35 65 35 73 0 25 -70 144 -84 144 -8 0 -20 -24 -29 -52z"/>
<path d="M4588 2161 c-7 -10 -23 -21 -35 -25 -24 -8 -43 -48 -24 -54 6 -2 11
-9 11 -17 0 -7 8 -30 17 -51 9 -22 17 -43 17 -49 1 -17 36 -18 36 -1 0 9 4 16
9 16 5 0 17 34 27 76 12 58 14 81 5 100 -13 29 -45 31 -63 5z"/>
<path d="M740 2123 c-9 -10 -32 -46 -53 -79 -20 -34 -44 -67 -52 -74 -8 -7
-15 -23 -15 -36 0 -15 -6 -24 -16 -24 -13 0 -14 -3 -5 -14 8 -9 8 -16 2 -20
-6 -4 -8 -12 -6 -19 2 -7 6 -25 9 -40 8 -33 26 -27 26 9 0 14 6 24 14 24 7 0
16 9 19 20 6 22 38 28 36 8 -3 -34 -16 -63 -29 -63 -9 0 -14 -8 -12 -18 2 -9
-2 -17 -8 -17 -6 0 -9 -3 -7 -7 3 -5 2 -26 -2 -48 -4 -22 -3 -50 3 -64 9 -20
15 -22 50 -18 27 4 49 0 68 -11 26 -15 29 -15 45 1 16 16 16 21 2 60 -15 43
-15 87 2 87 5 0 9 9 9 19 0 11 4 22 9 25 5 3 7 15 4 25 -7 26 16 37 32 15 8
-11 15 -15 15 -10 0 5 7 3 15 -4 12 -10 16 -9 21 5 4 9 2 20 -4 24 -6 3 -12
22 -14 40 -4 42 -25 51 -38 17 -18 -49 -40 -22 -44 56 -2 36 -22 49 -34 21
-11 -27 -75 -113 -80 -108 -3 2 0 11 6 18 9 10 8 17 0 25 -9 9 -8 12 5 12 9 0
17 5 17 11 0 5 -4 8 -9 4 -5 -3 -12 -1 -16 5 -3 5 -1 10 6 10 7 0 10 3 6 6 -3
4 5 21 19 40 19 24 24 42 22 69 -3 33 -4 35 -18 18z"/>
<path d="M4091 2104 c-6 -14 -11 -34 -11 -45 0 -11 -4 -18 -8 -15 -5 3 -20
-18 -33 -47 -22 -45 -25 -62 -21 -129 3 -53 8 -78 17 -78 14 0 75 127 75 157
0 11 9 32 20 46 25 32 25 38 -4 92 l-23 44 -12 -25z"/>
<path d="M4614 1898 c-9 -18 -20 -35 -24 -38 -20 -15 -87 -190 -72 -190 3 0
-2 -6 -12 -13 -20 -14 -21 -30 -11 -127 10 -105 25 -144 61 -169 18 -13 38
-20 44 -16 14 9 8 237 -6 242 -12 4 0 112 15 141 5 9 9 44 10 77 1 64 6 99 16
115 3 6 4 10 1 10 -3 0 -13 -15 -22 -32z"/>
<path d="M2139 1866 c-26 -57 -29 -139 -8 -203 10 -32 13 -35 24 -20 7 9 17
17 23 17 6 0 14 26 17 58 4 31 13 79 21 106 22 79 20 92 -20 93 -32 1 -36 -3
-57 -51z"/>
<path d="M2674 1884 c-42 -20 -83 -65 -66 -71 11 -4 18 -33 7 -33 -3 0 -14 9
-25 20 -16 16 -24 18 -38 9 -16 -10 -13 -16 34 -64 48 -48 59 -73 41 -91 -18
-18 -127 102 -109 121 16 17 -45 -9 -66 -28 -20 -19 -22 -27 -16 -81 4 -34 11
-64 17 -67 5 -4 5 -9 -2 -14 -8 -4 -9 -11 -3 -18 5 -7 15 -57 22 -113 l13
-101 33 34 c40 39 69 45 59 11 -4 -13 -13 -36 -21 -52 -15 -32 -17 -58 -7 -94
6 -24 9 -25 73 -7 23 7 22 6 -7 -17 -27 -20 -29 -26 -20 -44 33 -58 38 -58
100 9 57 62 68 80 44 75 -8 -2 -26 11 -40 27 -25 31 -25 32 -11 90 8 33 19
107 24 165 6 58 15 121 19 140 5 19 12 59 15 88 6 47 5 52 -13 52 -17 0 -20 6
-17 35 3 40 2 40 -40 19z"/>
<path d="M3805 1808 c-11 -32 -21 -185 -14 -200 5 -9 9 -28 9 -41 0 -14 9 -35
20 -48 19 -22 21 -23 30 -6 6 9 18 17 25 17 8 0 15 6 15 13 0 6 3 23 7 37 6
22 4 23 -9 12 -13 -10 -17 -10 -21 0 -4 10 -7 10 -15 -1 -21 -30 -22 10 -1 66
32 87 34 114 9 141 -23 24 -48 29 -55 10z"/>
<path d="M4274 1768 c-24 -36 -29 -54 -30 -109 l-1 -67 51 1 c28 0 44 2 36 5
-20 6 -50 33 -50 44 0 13 34 9 56 -7 10 -8 22 -15 25 -15 11 0 19 43 9 55 -12
14 -40 96 -40 118 0 30 -26 18 -56 -25z"/>
<path d="M3217 1713 c-20 -56 -21 -91 -6 -130 6 -15 12 -70 13 -122 1 -78 5
-95 20 -107 11 -7 27 -31 37 -54 10 -22 22 -40 28 -40 15 0 18 346 3 405 -11
45 -48 95 -70 95 -4 0 -16 -21 -25 -47z"/>
<path d="M2392 1674 c-10 -20 -17 -67 -32 -222 -13 -128 -27 -177 -45 -162
-20 16 -33 5 -41 -34 -4 -23 -1 -42 10 -59 15 -22 15 -25 1 -37 -11 -9 -12
-16 -5 -25 6 -7 7 -15 2 -17 -13 -4 -22 -87 -11 -94 6 -3 17 0 25 7 8 6 17 9
21 5 3 -3 0 -6 -7 -6 -10 0 -9 -4 3 -17 10 -12 13 -28 10 -48 -6 -30 -6 -30
15 -12 13 12 22 15 27 8 3 -6 -1 -11 -10 -11 -16 0 -14 -26 7 -82 6 -16 8 -39
6 -53 -3 -14 -1 -25 3 -25 5 0 9 4 9 8 0 5 14 9 31 10 39 1 40 2 61 65 17 50
17 53 -2 79 -11 15 -20 34 -20 42 0 7 -8 17 -17 20 -12 5 -14 9 -5 18 19 19
14 28 -13 28 -13 0 -28 -7 -33 -15 -7 -13 -14 -14 -35 -6 -26 10 -37 36 -18
43 5 2 34 54 64 117 48 98 54 117 44 135 -7 13 -13 84 -15 181 -4 157 -11 195
-30 159z"/>
<path d="M2292 1597 c-31 -37 -45 -94 -44 -181 1 -49 6 -94 11 -99 6 -6 18 7
32 34 18 35 23 64 25 139 3 101 -4 132 -24 107z"/>
<path d="M1101 1536 c-21 -23 -71 -115 -71 -131 0 -18 77 -85 97 -85 11 0 29
-11 41 -25 12 -14 29 -25 37 -25 24 0 18 -15 -22 -60 -52 -57 -65 -63 -115
-49 -64 17 -70 3 -67 -156 2 -71 6 -141 10 -155 4 -14 12 -44 18 -66 11 -42
11 -42 47 -34 20 5 37 10 38 12 26 40 36 62 36 83 0 14 7 40 16 56 8 17 13 37
10 45 -7 17 -56 19 -56 2 0 -6 -6 -4 -13 7 -11 15 -12 26 -2 59 14 47 29 53
80 32 48 -21 58 -20 47 1 -9 16 -3 33 40 102 11 19 11 23 -4 32 -27 15 -22 29
33 89 l50 55 -21 -44 c-16 -32 -19 -46 -10 -51 21 -13 24 -95 6 -151 -32 -98
-18 -189 30 -189 7 0 17 -12 22 -27 9 -25 10 -26 11 -5 1 12 7 22 16 22 22 0
18 -29 -7 -50 -21 -17 -23 -28 -25 -122 -1 -57 -6 -116 -12 -131 -14 -36 -14
-57 -1 -37 14 21 2 -78 -13 -109 -9 -19 -9 -25 1 -28 14 -5 17 -33 3 -33 -5 0
-12 -13 -16 -29 -3 -16 -13 -32 -21 -35 -12 -4 -12 -10 -4 -26 8 -16 7 -22
-10 -32 -11 -7 -20 -18 -20 -24 0 -10 -34 -31 -55 -32 -5 0 -9 6 -7 14 2 8 -2
14 -8 14 -6 0 -8 10 -4 25 4 16 2 25 -6 25 -12 0 -8 -76 7 -154 3 -18 1 -26
-5 -22 -6 3 -13 2 -17 -4 -3 -5 -1 -10 6 -10 10 0 10 -3 1 -12 -7 -7 -12 -24
-12 -38 0 -35 37 -38 52 -4 9 19 19 24 50 24 32 0 40 -5 50 -26 l12 -26 108 4
108 3 31 38 c17 20 39 37 51 37 13 0 18 5 15 14 -3 7 2 24 10 36 9 12 12 25 6
29 -19 13 -36 144 -38 304 -1 92 1 167 6 167 4 0 3 15 -1 33 -5 17 -11 93 -14
167 -6 152 -9 179 -24 206 -15 27 -62 157 -62 171 0 7 -16 24 -35 39 -22 16
-39 40 -45 63 -5 20 -20 45 -32 56 -26 22 -123 45 -162 38 -21 -4 -28 0 -38
23 -6 16 -23 38 -35 49 -13 11 -25 33 -26 49 -3 37 -37 43 -66 12z"/>
<path d="M6972 1498 c-19 -77 -20 -86 -7 -105 6 -10 15 -45 19 -78 4 -33 11
-77 17 -99 13 -48 27 -37 44 36 10 45 10 71 -5 162 -15 97 -27 125 -51 126 -4
0 -11 -19 -17 -42z"/>
<path d="M256 1518 c-8 -29 -26 -120 -26 -134 0 -9 5 -12 10 -9 6 3 10 1 10
-4 0 -6 -4 -11 -10 -11 -5 0 -10 -6 -10 -14 0 -7 -7 -19 -15 -26 -8 -6 -14
-24 -14 -38 -1 -15 -3 -62 -5 -106 -4 -59 -2 -76 7 -67 16 16 26 14 22 -6 -12
-61 -13 -83 -5 -83 6 0 10 8 10 18 1 16 2 15 15 -2 8 -10 12 -23 9 -28 -3 -5
-8 -25 -10 -45 l-5 -36 25 17 c14 9 37 16 52 16 14 0 37 9 51 20 14 11 29 18
33 15 11 -7 80 32 72 41 -4 5 1 2 11 -6 12 -9 16 -21 13 -36 -3 -12 -1 -35 5
-52 7 -20 7 -37 1 -48 -7 -13 -10 -10 -15 16 -4 18 -5 36 -2 40 3 5 -9 5 -27
-1 -18 -5 -34 -9 -36 -9 -2 0 -1 -4 3 -9 10 -18 -14 -22 -38 -6 -31 20 -37 12
-37 -46 0 -58 -7 -79 -29 -80 -9 0 2 -6 24 -14 l40 -13 -31 -7 c-27 -6 -67
-45 -45 -45 9 0 1 -48 -19 -113 -13 -43 -11 -47 19 -50 16 -1 20 -6 15 -22 -4
-11 -10 -22 -14 -25 -4 -3 -10 -15 -14 -27 -4 -13 -14 -23 -22 -23 -18 0 -18
8 1 27 9 8 15 22 13 31 -4 20 -28 28 -28 8 0 -24 -20 -29 -41 -10 -25 22 -36
11 -20 -20 11 -19 10 -27 0 -44 -12 -19 -11 -23 5 -35 11 -8 16 -19 12 -26 -4
-6 4 -25 18 -42 14 -17 27 -37 27 -45 8 -82 -5 -99 -45 -59 -14 14 -31 25 -38
25 -9 0 -9 3 -1 11 8 8 18 6 37 -6 26 -17 26 -17 26 9 0 18 -5 26 -18 26 -24
0 -42 19 -42 46 0 12 -7 24 -15 28 -8 3 -15 17 -15 30 0 14 -8 31 -18 38 -10
7 -27 31 -38 53 -12 23 -30 42 -45 46 -13 4 -17 7 -9 8 10 1 15 10 15 26 -2
32 -17 48 -38 39 -15 -6 -17 -36 -17 -315 l0 -309 280 0 c180 0 280 4 280 10
0 6 -13 10 -30 10 -23 0 -30 5 -30 19 0 11 -9 23 -21 26 -16 5 -18 9 -9 15 9
6 7 10 -9 15 -11 3 -25 3 -31 0 -5 -3 -10 -1 -10 4 0 6 7 11 15 11 8 0 15 5
15 10 0 6 -4 10 -10 10 -5 0 -10 25 -10 55 0 44 -3 55 -16 55 -10 0 -14 5 -10
15 5 14 -2 25 -54 80 -13 14 -20 40 -23 82 -5 61 -5 63 19 63 13 0 23 3 22 8
-1 4 5 18 14 32 24 38 32 85 15 101 -7 8 -12 20 -10 26 3 7 -7 18 -21 24 -14
7 -26 16 -26 20 0 23 15 39 36 39 22 0 24 4 24 43 0 51 33 102 50 77 5 -8 10
-38 10 -66 0 -38 5 -55 20 -69 19 -17 21 -17 53 19 32 35 35 43 41 129 5 59
12 97 22 108 10 11 12 19 5 24 -6 3 -11 3 -11 -1 0 -4 -6 1 -14 11 -12 16 -16
17 -30 6 -14 -11 -16 -11 -16 2 0 9 6 20 13 24 18 11 35 114 43 261 7 115 6
122 -12 123 -10 1 -23 1 -28 0 -5 -1 -12 2 -15 7 -9 15 -82 62 -96 62 -6 0
-16 -10 -22 -22 -16 -35 -31 -71 -37 -91 -3 -10 -10 -16 -15 -12 -5 3 -10 -7
-10 -22 0 -16 -7 -46 -15 -68 l-16 -40 6 48 c4 30 2 52 -5 61 -16 19 -4 133
15 140 8 3 14 12 14 21 0 18 -26 20 -33 3 -4 -10 -6 -10 -6 0 -1 6 -6 12 -12
12 -8 0 -10 -14 -6 -40 4 -32 2 -40 -10 -40 -12 0 -15 8 -10 40 5 37 -8 67
-17 38z"/>
<path d="M1991 1380 c-57 -42 -66 -64 -51 -134 9 -45 15 -56 31 -56 20 0 25
-25 10 -49 -12 -18 -3 -41 15 -41 8 0 14 -4 14 -10 0 -5 5 -10 10 -10 6 0 10
15 10 33 0 42 6 48 35 37 20 -8 23 -5 29 22 15 76 2 133 -29 122 -8 -4 -11 11
-10 56 3 70 -3 74 -64 30z"/>
<path d="M5343 1237 c-43 -24 -65 -64 -59 -106 10 -77 16 -89 47 -95 18 -3 28
-10 24 -16 -5 -8 -12 -7 -23 2 -10 7 -7 1 6 -13 12 -14 22 -32 22 -40 1 -10 3
-9 11 3 10 17 16 46 26 118 2 19 8 44 13 55 13 31 21 105 11 105 -5 0 -12 -10
-15 -22 l-7 -23 -11 23 c-13 25 -15 26 -45 9z"/>
<path d="M6120 1047 c0 -10 -8 -17 -20 -17 -20 0 -29 -35 -11 -42 5 -1 16 -26
24 -54 12 -39 12 -55 4 -63 -9 -9 -8 -14 2 -20 8 -5 15 -18 16 -28 2 -33 49
-85 69 -77 19 7 19 11 -6 146 -11 60 -14 67 -39 72 -26 5 -46 40 -29 51 9 6 7
31 -3 41 -4 4 -7 0 -7 -9z"/>
<path d="M629 1038 c0 -2 -2 -39 -5 -83 -3 -44 -6 -100 -8 -125 -1 -25 6 -79
16 -120 19 -73 25 -173 13 -211 -7 -20 10 -26 30 -11 12 8 14 62 3 62 -4 0 -5
7 -2 15 4 8 15 15 25 15 21 0 23 11 9 59 -7 25 -6 40 5 62 8 15 15 37 15 49 0
11 8 24 18 27 40 16 42 26 26 124 -10 56 -23 101 -33 110 -13 14 -110 37 -112
27z"/>
<path d="M2949 772 c-8 -12 -19 -22 -26 -22 -17 0 -17 -17 0 -24 6 -3 1 -3
-12 0 -15 4 -21 2 -17 -4 3 -6 1 -12 -6 -14 -7 -3 -13 -23 -14 -45 0 -22 -4
-44 -7 -50 -3 -5 -3 -19 0 -31 4 -18 8 -20 19 -11 19 15 30 4 15 -15 -10 -11
-6 -20 18 -45 17 -17 35 -31 41 -31 6 0 32 -11 58 -25 56 -30 68 -31 82 -6 14
27 13 31 -7 31 -15 0 -16 2 -3 10 13 9 11 13 -10 30 -14 11 -31 20 -39 20 -9
0 -12 8 -9 25 4 16 1 25 -8 25 -7 0 -14 8 -16 17 -3 16 -6 15 -26 -5 -12 -12
-22 -17 -22 -9 0 8 -3 7 -10 -3 -5 -8 -12 -12 -15 -8 -7 7 16 48 27 48 3 0 14
7 23 16 15 15 15 18 0 35 -12 12 -15 27 -10 48 3 17 2 38 -3 47 -9 16 -11 16
-23 -4z"/>
<path d="M4723 593 c-7 -3 -13 -11 -13 -19 0 -8 -4 -14 -10 -14 -15 0 -12
-128 6 -273 20 -154 45 -213 88 -210 39 3 50 15 72 78 14 44 16 60 7 74 -8 12
-9 31 -3 57 8 35 7 58 -4 124 -19 111 -89 201 -143 183z"/>
<path d="M995 510 c-5 -15 -12 -19 -27 -14 -19 6 -19 3 -13 -48 8 -60 1 -70
-50 -82 -16 -4 -38 -15 -48 -24 -14 -13 -22 -14 -36 -5 -13 8 -22 8 -29 1 -12
-12 -35 -1 -26 13 9 15 -16 69 -31 69 -8 0 -15 6 -17 12 -3 8 -14 2 -31 -16
-23 -25 -27 -26 -33 -11 -5 13 -10 8 -20 -22 -18 -50 -17 -78 2 -94 8 -7 24
-29 34 -48 10 -20 34 -54 54 -76 38 -42 66 -93 66 -118 0 -46 5 -47 159 -47
l147 0 2 73 c1 39 3 81 5 91 1 14 -6 22 -23 26 -23 5 -23 7 -7 16 17 10 16 12
-8 39 -21 22 -24 30 -13 36 10 7 10 11 1 17 -9 6 -13 37 -12 99 1 86 -10 133
-31 133 -5 0 -12 -9 -15 -20z"/>
<path d="M3535 433 c-11 -21 -30 -53 -43 -70 -14 -18 -20 -33 -16 -33 5 0 4
-4 -2 -8 -14 -9 -57 -92 -48 -92 4 0 1 -7 -6 -15 -7 -8 -11 -38 -10 -72 1 -32
1 -60 0 -63 -1 -3 -4 -22 -5 -42 l-4 -38 103 0 c122 0 116 -6 122 120 4 77 2
88 -17 109 -18 19 -20 27 -10 47 16 36 14 120 -4 138 -8 8 -15 24 -15 35 0 33
-24 24 -45 -16z"/>
<path d="M7663 372 c-24 -55 -24 -76 0 -127 13 -27 30 -71 37 -98 16 -59 25
-65 43 -29 12 25 12 42 -2 130 -13 83 -21 107 -41 127 l-25 25 -12 -28z"/>
<path d="M7163 308 c-26 -29 -34 -53 -38 -106 -4 -52 27 -94 82 -113 34 -11
38 -10 56 12 11 14 15 25 8 27 -6 2 -11 12 -11 22 0 10 -4 21 -8 24 -5 3 -9
23 -10 44 -2 48 -28 112 -45 112 -8 0 -23 -10 -34 -22z"/>
</g>
</svg>
