<?xml version="1.0" standalone="no"?>
<!DOCTYPE svg PUBLIC "-//W3C//DTD SVG 20010904//EN"
 "http://www.w3.org/TR/2001/REC-SVG-20010904/DTD/svg10.dtd">
<svg version="1.0" xmlns="http://www.w3.org/2000/svg"
 width="183.000000pt" height="275.000000pt" viewBox="0 0 183.000000 275.000000"
 preserveAspectRatio="xMidYMid meet">
<metadata>
Created by potrace 1.10, written by Peter Selinger 2001-2011
</metadata>
<g transform="translate(0.000000,275.000000) scale(0.100000,-0.100000)"
fill="#000000" stroke="none">
<path d="M1350 2661 c0 -6 4 -13 10 -16 6 -3 7 1 4 9 -7 18 -14 21 -14 7z"/>
<path d="M1395 2660 c-16 -7 -17 -9 -3 -9 9 -1 20 4 23 9 7 11 7 11 -20 0z"/>
<path d="M1295 2592 c-41 -26 -79 -78 -121 -167 -19 -41 -40 -75 -47 -75 -9 0
-8 -3 1 -9 7 -4 27 -7 44 -6 29 2 30 1 12 -13 -18 -14 -18 -14 2 -8 16 5 32
-6 72 -50 29 -31 52 -61 52 -66 0 -6 7 -7 16 -4 8 3 12 2 9 -3 -3 -5 -1 -12 5
-16 5 -3 9 -16 9 -28 -1 -17 -2 -18 -6 -4 -2 9 -9 17 -15 17 -6 0 -7 -7 -3
-17 5 -10 11 -40 15 -68 5 -27 10 -59 13 -70 10 -37 16 -121 7 -100 -6 16 -9
17 -13 5 -9 -27 -36 -135 -42 -165 -5 -28 -4 -29 10 -11 13 17 15 17 15 4 0
-9 -4 -20 -10 -23 -16 -10 -11 -36 6 -33 22 4 26 -38 8 -74 -8 -15 -11 -34 -8
-42 3 -9 -1 -28 -11 -42 -16 -25 -16 -25 4 -14 12 6 21 16 22 23 1 7 2 29 3
50 2 21 9 43 17 50 7 7 11 8 7 4 -3 -5 -2 -23 3 -40 5 -19 5 -33 -1 -37 -5 -3
-5 -11 0 -20 8 -13 10 -12 10 3 0 10 4 16 9 13 14 -9 20 -77 11 -121 -4 -22
-8 -35 -9 -29 0 6 -8 11 -17 11 -10 0 -14 -7 -11 -17 3 -13 0 -16 -13 -13 -11
3 -25 -6 -38 -22 -12 -15 -26 -24 -32 -20 -5 3 -10 -3 -10 -14 0 -15 4 -19 17
-14 15 6 16 5 3 -9 -12 -13 -17 -13 -28 -1 -17 16 -28 17 -14 1 14 -18 -2 -55
-27 -63 -12 -3 -21 -11 -21 -17 0 -21 -13 2 -16 28 -2 22 -1 24 14 13 9 -8 14
-9 10 -5 -4 5 -3 15 2 21 8 9 6 14 -4 18 -10 4 -13 1 -9 -9 4 -10 0 -12 -11
-8 -9 3 -16 1 -16 -6 0 -6 -4 -8 -10 -5 -15 10 -12 23 8 28 13 4 12 5 -5 6
-22 1 -49 36 -45 58 1 6 -3 15 -9 19 -7 4 -9 3 -6 -3 3 -5 0 -10 -7 -10 -8 0
-12 5 -10 11 2 6 -7 24 -21 40 -14 16 -25 33 -25 38 0 13 34 9 55 -6 20 -14
48 -11 79 10 10 7 24 10 31 8 7 -3 16 0 20 6 6 9 10 9 16 -1 6 -10 9 -8 9 8 0
12 5 25 10 28 10 6 14 -7 11 -34 -2 -7 2 -10 7 -7 15 9 8 66 -8 76 -13 8 -13
14 3 41 9 17 17 37 17 45 0 8 5 14 10 14 6 0 10 -7 10 -15 0 -8 4 -15 10 -15
5 0 6 8 3 18 -9 22 -33 47 -33 33 0 -6 -3 -10 -7 -9 -5 1 -18 -1 -30 -6 -25
-8 -47 -70 -34 -94 6 -10 10 0 15 32 5 29 12 46 21 46 7 0 16 6 18 13 4 8 6 7
6 -3 1 -9 -5 -24 -13 -35 -7 -11 -16 -37 -19 -58 -3 -21 -7 -39 -8 -41 -12 -8
-78 -35 -101 -41 -14 -4 -35 -2 -46 4 -11 6 -34 8 -51 5 -38 -8 -41 -35 -8
-68 21 -21 22 -25 8 -34 -14 -9 -13 -11 6 -11 12 -1 27 -10 33 -21 6 -11 17
-20 25 -20 17 0 20 -26 5 -33 -6 -3 -5 -4 2 -3 14 3 39 -18 37 -31 -1 -4 -1
-15 0 -23 1 -13 2 -13 12 0 9 13 10 13 6 0 -2 -8 3 -20 12 -27 15 -11 14 -12
-1 -13 -9 0 -18 5 -20 11 -2 6 -14 8 -32 3 -20 -5 -24 -9 -14 -15 23 -15 88
-11 94 6 4 10 13 13 26 9 13 -4 18 -2 14 4 -3 6 7 25 24 43 16 18 38 52 47 76
10 24 24 43 31 43 15 0 15 -1 2 -37 -9 -26 -9 -27 5 -9 8 11 15 25 15 30 0 6
4 5 9 -3 8 -13 -16 -62 -40 -81 -4 -3 -10 -16 -14 -30 -10 -33 -25 -51 -36
-44 -5 3 -9 -2 -9 -11 0 -9 -4 -13 -10 -10 -5 3 -20 0 -32 -7 -30 -16 -47 -18
-54 -7 -7 12 -24 12 -24 -1 0 -5 7 -10 16 -10 8 0 12 -4 9 -10 -10 -16 7 -12
44 11 18 11 35 18 38 15 4 -4 10 -28 12 -48 1 -4 8 -5 16 -2 10 4 14 14 10 28
-4 15 -1 13 10 -7 16 -28 12 -53 -7 -41 -7 5 -9 0 -6 -14 4 -12 3 -24 -2 -27
-4 -3 -11 6 -14 20 -4 16 -13 25 -26 25 -11 0 -20 5 -20 12 0 6 -2 9 -5 6 -11
-10 8 -38 24 -36 11 2 16 -4 15 -19 0 -12 3 -20 8 -17 4 3 8 -7 7 -23 0 -15
-3 -22 -6 -15 -7 17 -23 15 -23 -3 0 -9 -6 -12 -15 -9 -8 4 -15 1 -15 -6 0 -6
5 -8 12 -4 7 5 9 2 6 -7 -3 -8 -11 -32 -19 -54 -8 -21 -24 -50 -37 -64 -17
-19 -19 -26 -10 -33 9 -5 6 -8 -10 -8 -13 0 -20 -4 -17 -10 3 -5 15 -10 26
-10 15 0 19 -7 20 -37 1 -38 1 -38 9 -8 4 17 8 23 9 14 0 -9 7 -19 15 -22 23
-9 15 -45 -11 -52 -13 -3 -23 -10 -23 -15 0 -6 10 -6 26 1 32 11 64 3 64 -17
0 -8 4 -14 8 -14 13 0 32 -48 26 -65 -3 -8 -10 -13 -15 -10 -4 3 -6 12 -2 20
3 8 0 15 -7 15 -6 0 -9 4 -6 9 3 4 -3 19 -14 31 -15 18 -25 21 -47 15 -15 -5
-38 -7 -51 -6 -13 2 -30 -3 -39 -11 -14 -11 -16 -11 -10 4 3 9 2 18 -3 20 -5
2 -11 17 -14 33 -5 24 -4 26 3 10 8 -16 10 -17 10 -4 1 9 12 20 26 23 15 4 23
11 19 17 -4 8 -10 7 -17 0 -18 -18 -24 -13 -36 33 -14 56 -14 59 1 50 8 -5 9
-2 5 10 -4 10 -7 21 -7 24 0 4 -7 -4 -15 -16 -12 -17 -14 -30 -6 -56 5 -19 8
-36 6 -38 -2 -2 -8 -27 -13 -56 -9 -49 -8 -52 9 -47 21 7 22 2 19 -57 -1 -33
1 -36 22 -31 18 4 20 3 8 -6 -13 -9 -12 -11 5 -12 54 -3 111 -9 123 -14 10 -4
10 0 0 18 -7 12 -11 29 -10 37 2 13 1 13 -7 1 -5 -8 -20 -16 -33 -17 -13 -2
-18 -1 -12 2 6 3 10 20 8 39 -5 73 38 37 69 -57 9 -26 26 -22 33 7 3 14 10 25
16 25 5 0 6 -4 3 -10 -3 -5 -1 -10 4 -10 6 0 11 4 11 8 0 16 -30 70 -46 83
-24 20 -74 125 -74 156 l-1 28 -13 -24 c-8 -14 -16 -19 -20 -13 -3 6 -3 12 2
14 4 1 36 58 70 126 50 99 63 137 71 196 5 40 16 86 24 103 9 17 26 68 38 113
27 104 22 147 -32 277 l-41 98 21 60 c23 66 27 148 10 192 -14 33 -12 167 1
171 6 2 10 12 10 22 0 10 5 20 12 22 7 3 15 35 20 79 4 41 10 102 14 136 9 79
-1 129 -31 159 -29 29 -59 30 -100 6z m55 -12 c0 -5 -2 -10 -4 -10 -3 0 -8 5
-11 10 -3 6 -1 10 4 10 6 0 11 -4 11 -10z m18 -30 c-12 -16 -25 -30 -30 -30
-4 0 -8 -5 -8 -11 0 -6 7 -9 15 -5 12 4 14 0 9 -22 -4 -15 -14 -36 -23 -46
-15 -18 -15 -18 6 -7 12 6 24 8 26 4 10 -17 17 -83 10 -83 -4 0 -9 -12 -10
-27 -1 -19 1 -22 8 -12 5 8 9 10 9 4 0 -5 5 -3 10 5 9 13 10 13 10 0 -1 -18
-25 -52 -32 -45 -2 3 -5 -2 -5 -10 0 -9 6 -14 13 -11 18 7 25 -5 11 -19 -22
-22 -53 -27 -67 -10 -11 13 -9 19 6 37 19 21 19 21 -3 7 -21 -13 -26 -10 -72
35 -32 31 -55 47 -65 43 -11 -4 -13 -1 -9 10 5 12 3 14 -7 8 -9 -5 -11 -4 -6
4 4 6 11 9 15 6 10 -6 33 44 26 56 -4 5 -2 9 2 9 5 0 15 16 22 35 11 33 31 48
31 24 0 -5 4 -8 10 -4 5 3 7 12 4 20 -4 8 -11 12 -18 8 -6 -4 -5 1 3 10 17 21
41 22 41 2 0 -8 5 -15 10 -15 6 0 10 4 10 9 0 6 -4 13 -10 16 -21 13 -9 26 19
20 17 -3 32 -2 36 4 3 6 11 11 16 11 5 0 0 -13 -13 -30z m21 -12 c-9 -18 -8
-24 6 -34 14 -10 17 -22 12 -55 -8 -61 -29 -76 -26 -19 1 25 -3 57 -9 71 -8
21 -7 30 6 43 22 22 25 20 11 -6z m21 -18 c0 -5 -4 -10 -10 -10 -5 0 -10 5
-10 10 0 6 5 10 10 10 6 0 10 -4 10 -10z m-43 -62 c-3 -8 -6 -5 -6 6 -1 11 2
17 5 13 3 -3 4 -12 1 -19z m-31 -670 c-9 -12 -16 -19 -16 -15 0 11 24 47 28
42 2 -2 -3 -14 -12 -27z m64 -408 c0 -5 -2 -10 -4 -10 -3 0 -8 5 -11 10 -3 6
-1 10 4 10 6 0 11 -4 11 -10z m-132 -400 c-7 -10 -14 -17 -17 -15 -4 4 18 35
25 35 2 0 -1 -9 -8 -20z m-70 -372 c1 -29 -2 -48 -6 -42 -4 6 -17 16 -29 23
-31 16 -29 37 5 55 15 8 27 15 27 16 1 0 2 -24 3 -52z m22 22 c0 -5 -4 -10
-10 -10 -5 0 -10 5 -10 10 0 6 5 10 10 10 6 0 10 -4 10 -10z"/>
<path d="M1237 2463 c-4 -3 -7 -16 -7 -29 0 -12 -4 -24 -9 -26 -15 -5 -17 -40
-3 -45 7 -3 12 5 12 20 0 13 3 27 7 31 8 7 16 56 10 56 -2 0 -7 -3 -10 -7z"/>
<path d="M1310 2360 c10 -6 11 -10 3 -10 -7 0 -13 -5 -13 -11 0 -8 5 -8 15 1
16 13 11 30 -8 30 -7 0 -6 -4 3 -10z"/>
<path d="M1320 2240 c0 -5 5 -10 10 -10 6 0 10 5 10 10 0 6 -4 10 -10 10 -5 0
-10 -4 -10 -10z"/>
<path d="M1207 2573 c-4 -3 -7 -11 -7 -17 0 -6 5 -5 12 2 6 6 9 14 7 17 -3 3
-9 2 -12 -2z"/>
<path d="M495 2560 c4 -6 11 -8 16 -5 14 9 11 15 -7 15 -8 0 -12 -5 -9 -10z"/>
<path d="M477 2502 c-29 -32 -32 -95 -7 -166 13 -36 28 -62 33 -59 6 3 7 1 4
-4 -12 -19 27 -120 59 -155 17 -18 36 -55 42 -81 11 -41 10 -51 -8 -84 -11
-22 -20 -57 -20 -82 0 -34 -16 -75 -70 -186 -45 -93 -74 -166 -82 -210 -12
-63 -17 -71 -82 -138 -77 -80 -116 -154 -116 -220 0 -68 54 -143 135 -185 17
-9 21 -7 22 8 1 12 -9 24 -28 32 -16 7 -29 17 -29 21 0 5 -4 6 -8 3 -14 -8
-51 40 -42 54 5 8 11 3 18 -16 7 -20 11 -23 11 -11 1 11 -13 32 -30 48 -22 21
-30 36 -27 56 2 15 8 27 15 26 7 -2 10 3 7 11 -3 7 2 16 10 19 9 4 16 13 16
21 0 9 11 23 24 31 20 13 33 43 40 88 1 4 6 7 11 6 6 -1 9 -6 7 -12 -11 -38
-7 -86 9 -119 15 -29 17 -42 8 -67 -6 -16 -20 -33 -31 -37 -17 -5 -19 -11 -13
-42 4 -21 11 -39 16 -40 5 -2 7 -7 4 -12 -2 -4 4 -15 15 -25 24 -22 25 -38 5
-55 -17 -14 -22 -95 -5 -85 5 3 10 -1 10 -9 0 -9 7 -16 15 -16 12 0 14 11 9
58 -3 31 -8 118 -9 192 -2 74 -6 174 -9 221 -3 60 -1 92 7 104 11 13 12 5 11
-47 -2 -95 12 -37 19 78 7 104 9 116 34 172 18 41 26 37 13 -7 -7 -24 -6 -31
3 -28 7 2 11 15 10 28 -1 13 1 18 3 12 3 -7 10 -13 15 -13 5 0 3 13 -5 29 -14
26 -14 30 -1 41 8 7 15 20 15 29 1 9 9 32 20 51 21 39 26 36 10 -5 -8 -22 -8
-26 3 -22 9 3 13 -4 12 -22 0 -16 -6 -25 -14 -23 -7 1 -10 -2 -7 -7 4 -5 15
-8 26 -6 12 2 18 0 15 -5 -3 -4 7 -18 22 -30 l28 -22 -27 7 c-15 4 -29 2 -32
-4 -5 -7 5 -11 27 -11 22 0 43 -8 58 -23 13 -12 38 -31 54 -42 39 -24 85 -67
80 -75 -2 -3 4 -6 13 -6 9 -1 30 -5 46 -9 22 -6 28 -5 24 6 -2 7 -14 14 -25
14 -35 0 -233 170 -246 210 -3 11 -13 38 -21 60 -8 22 -15 54 -15 70 l1 30 10
-30 c5 -16 12 -37 15 -45 4 -8 5 -19 4 -23 -1 -5 3 -6 9 -2 5 3 10 0 10 -8 0
-8 9 -17 20 -20 11 -3 20 -10 20 -17 0 -6 -5 -8 -12 -4 -7 5 -1 -8 13 -27 15
-18 30 -34 35 -34 17 -1 54 -26 54 -36 0 -5 -10 -1 -22 11 -12 11 -24 18 -26
15 -3 -3 16 -25 42 -50 42 -42 46 -44 42 -20 -8 46 -16 60 -38 75 -12 8 -31
24 -42 35 -12 11 -25 19 -29 17 -5 -1 -6 2 -2 8 4 7 19 0 40 -18 18 -16 47
-35 64 -43 22 -10 31 -19 27 -31 -2 -10 -1 -18 4 -18 4 0 8 -6 7 -12 -1 -38 5
-57 20 -62 9 -4 19 -3 22 2 3 5 19 8 35 6 16 -2 34 3 40 10 13 16 56 28 56 15
0 -17 47 -9 74 12 20 15 35 20 57 15 31 -6 41 9 12 17 -14 4 -12 5 5 6 12 0
22 5 22 11 0 5 -7 7 -15 4 -8 -4 -15 -3 -15 1 0 3 7 13 15 21 19 20 19 30 -1
38 -21 8 -33 -2 -16 -13 21 -13 -42 -60 -89 -67 -22 -4 -42 -11 -45 -15 -3 -5
-10 -9 -15 -9 -6 0 -8 4 -5 8 3 5 -6 15 -19 22 -23 12 -30 27 -26 58 1 6 -3
12 -9 12 -5 0 -10 -11 -10 -25 0 -17 -4 -23 -14 -19 -8 3 -17 1 -21 -5 -3 -7
0 -8 9 -5 20 8 20 -3 1 -22 -8 -9 -15 -11 -15 -5 0 6 -4 11 -10 11 -14 0 -12
-27 3 -33 9 -3 8 -9 -5 -22 -15 -16 -17 -14 -25 35 -8 52 -10 54 -61 81 -30
15 -62 35 -73 45 -10 9 -19 13 -19 8 -1 -5 -12 13 -26 39 -14 26 -22 53 -18
59 4 6 3 8 -3 5 -23 -14 -36 41 -28 120 4 43 8 93 9 111 0 36 16 45 17 10 5
-132 12 -188 30 -225 12 -24 25 -43 30 -43 14 0 11 12 -11 48 -13 21 -20 49
-19 80 l1 47 10 -32 c6 -18 15 -33 19 -33 5 0 9 -11 9 -24 0 -29 15 -42 24
-21 3 8 -6 36 -19 62 -14 25 -25 53 -25 62 0 9 -9 27 -20 41 -11 14 -20 37
-20 53 0 16 -5 26 -12 25 -19 -4 -21 43 -4 82 8 19 15 28 16 20 0 -13 1 -13
10 0 17 26 12 42 -12 38 -18 -2 -22 -8 -20 -28 2 -14 1 -22 -3 -18 -4 4 -18 3
-31 -2 -17 -7 -22 -6 -18 4 3 7 -9 30 -26 51 -16 21 -30 40 -30 42 0 2 18 -11
40 -28 29 -23 37 -35 28 -41 -9 -5 -5 -8 11 -8 13 0 21 3 18 7 -4 3 1 15 10
26 17 19 17 20 -4 8 -28 -14 -38 -14 -25 2 7 9 1 19 -23 37 -19 14 -37 37 -40
52 -4 17 -11 25 -20 22 -15 -6 -28 15 -39 59 -4 19 -3 26 4 22 14 -9 13 8 -2
24 -10 11 -10 12 -1 7 9 -5 11 -2 7 8 -3 9 1 22 9 31 20 20 25 5 17 -57 -5
-36 -3 -48 7 -48 15 0 17 -16 3 -23 -6 -3 -5 -4 2 -3 16 3 48 -25 48 -42 0 -8
6 -12 14 -9 17 7 29 -30 12 -37 -6 -3 0 -3 13 0 16 4 21 3 17 -5 -9 -14 0 -14
25 -1 20 11 28 -3 9 -15 -15 -9 -12 -25 4 -25 8 0 28 23 46 50 31 48 56 68 43
34 -5 -14 -3 -14 15 -3 l21 13 -20 19 c-11 10 -28 20 -37 22 -9 1 -16 9 -14
17 3 22 -84 115 -129 138 -48 25 -91 25 -112 2z m87 -23 c-3 -5 2 -6 10 -3 10
4 16 1 16 -10 0 -10 5 -13 17 -9 11 4 14 3 9 -5 -7 -11 6 -17 27 -13 5 1 6 -3
3 -8 -4 -5 1 -14 10 -19 19 -11 28 -62 11 -62 -7 0 -5 -5 3 -10 8 -5 11 -10 6
-10 -5 0 -1 -9 9 -20 11 -12 13 -20 6 -20 -7 0 -10 -4 -7 -9 3 -5 -5 -11 -19
-13 -13 -3 -22 -2 -20 2 6 10 -30 50 -45 50 -7 0 -23 12 -36 26 -22 22 -23 27
-9 40 20 21 19 27 -5 19 -22 -7 -26 5 -9 22 6 6 9 19 6 29 -4 16 -5 15 -6 -3
0 -13 -6 -23 -12 -23 -7 0 -9 9 -5 23 3 12 6 27 6 34 0 6 9 9 20 6 11 -3 17
-9 14 -14z m171 -159 c-3 -5 -12 -10 -18 -10 -7 0 -6 4 3 10 19 12 23 12 15 0z
m-178 -162 c-3 -8 -6 -5 -6 6 -1 11 2 17 5 13 3 -3 4 -12 1 -19z m377 -604
c-6 -3 -9 -16 -6 -29 3 -20 0 -25 -17 -25 -11 0 -21 5 -21 12 0 15 30 48 44
47 8 0 8 -2 0 -5z m126 -28 c0 -2 -7 -6 -15 -10 -8 -3 -15 -1 -15 4 0 6 7 10
15 10 8 0 15 -2 15 -4z m-749 -287 c-12 -15 -21 -33 -21 -39 0 -6 -4 -9 -9 -5
-6 3 -1 27 11 56 18 41 23 48 31 34 7 -12 3 -25 -12 -46z m79 -171 c0 -19 -2
-20 -10 -8 -13 19 -13 30 0 30 6 0 10 -10 10 -22z m-20 -120 c0 -5 -11 -1 -25
8 -14 9 -25 18 -25 20 0 2 11 -2 25 -8 14 -6 25 -15 25 -20z m50 -88 c0 -13
-1 -13 -10 0 -5 8 -10 22 -10 30 0 13 1 13 10 0 5 -8 10 -22 10 -30z"/>
<path d="M565 2440 c3 -5 8 -10 11 -10 2 0 4 5 4 10 0 6 -5 10 -11 10 -5 0 -7
-4 -4 -10z"/>
<path d="M600 2410 c0 -5 5 -10 10 -10 6 0 10 5 10 10 0 6 -4 10 -10 10 -5 0
-10 -4 -10 -10z"/>
<path d="M646 2377 c3 -10 9 -15 12 -12 3 3 0 11 -7 18 -10 9 -11 8 -5 -6z"/>
<path d="M403 2425 c-3 -9 -3 -19 1 -22 3 -4 6 1 6 10 0 8 6 18 13 20 9 4 9 6
-1 6 -7 1 -15 -6 -19 -14z"/>
<path d="M777 2389 c4 -13 8 -18 11 -10 2 7 -1 18 -6 23 -8 8 -9 4 -5 -13z"/>
<path d="M422 2334 c-1 -13 0 -24 2 -24 7 0 14 40 7 44 -4 3 -8 -6 -9 -20z"/>
<path d="M1070 2330 c0 -5 10 -10 23 -10 25 0 82 -32 111 -62 10 -11 21 -16
24 -13 4 4 -1 11 -10 16 -11 6 -15 16 -11 26 5 12 2 15 -10 10 -10 -4 -32 4
-53 18 -38 26 -74 33 -74 15z"/>
<path d="M1024 2322 c4 -7 13 -12 20 -12 8 0 19 -7 26 -16 8 -8 30 -22 49 -30
20 -8 49 -29 64 -46 25 -29 26 -33 11 -38 -15 -6 -15 -7 -2 -12 9 -4 21 -1 27
5 8 8 11 7 11 -3 0 -7 20 -32 45 -54 44 -41 44 -42 30 -70 -8 -15 -15 -38 -15
-50 0 -49 -41 -125 -46 -86 -1 6 -2 15 -3 21 0 5 -5 7 -11 4 -5 -3 -10 1 -10
9 0 9 -4 16 -10 16 -5 0 -10 -2 -10 -5 0 -15 30 -62 51 -80 12 -11 19 -15 16
-8 -4 6 -3 14 3 18 10 6 14 -6 11 -36 -3 -26 26 -31 33 -6 9 36 7 107 -4 107
-5 0 -10 9 -10 19 0 11 5 23 10 26 6 3 10 0 10 -7 0 -8 6 -22 13 -32 11 -15
12 -13 10 16 -5 75 -17 114 -40 135 -15 13 -22 27 -17 34 4 7 3 9 -2 6 -6 -3
-16 -2 -24 4 -13 7 -13 9 0 9 8 0 -2 11 -23 25 -20 14 -36 29 -35 33 6 19 -78
84 -124 95 -14 4 -34 10 -44 14 -12 4 -15 3 -10 -5z m278 -424 c-6 -6 -7 0 -4
19 5 21 7 23 10 9 2 -10 0 -22 -6 -28z"/>
<path d="M803 2297 c-36 -27 -98 -99 -119 -138 -16 -33 -17 -39 -5 -39 5 0 12
14 16 30 4 18 11 27 17 24 6 -4 9 -3 5 2 -8 13 68 99 80 91 6 -4 -3 -21 -22
-42 -18 -19 -39 -48 -46 -64 -7 -16 -17 -27 -21 -25 -4 3 -8 -2 -8 -10 0 -9
-4 -16 -10 -16 -5 0 -10 -7 -10 -15 0 -8 -5 -15 -10 -15 -12 0 -3 -48 12 -67
5 -7 6 -18 2 -25 -5 -9 -2 -9 10 1 10 8 15 23 13 33 -3 11 0 18 9 18 8 0 14 5
14 10 0 14 -23 13 -38 -2 -7 -7 -12 -8 -12 -3 0 6 23 32 50 58 42 41 53 47 66
37 12 -11 13 -10 8 5 -6 15 -3 16 25 10 26 -5 40 -2 71 20 21 15 44 24 49 20
6 -3 18 -2 27 3 12 7 0 10 -41 10 -48 0 -58 -4 -62 -19 -3 -11 -13 -19 -22
-18 -10 0 -11 2 -3 6 6 2 12 9 12 15 0 6 -8 4 -18 -5 -10 -9 -33 -20 -50 -23
-18 -4 -32 -10 -32 -15 0 -5 -4 -9 -10 -9 -45 0 59 109 150 157 14 7 19 13 12
13 -7 0 -31 -9 -53 -21 -22 -11 -46 -18 -52 -16 -7 2 5 10 26 17 20 8 37 18
37 22 0 16 -37 8 -67 -15z"/>
<path d="M953 2313 c15 -2 27 -9 27 -14 0 -5 -11 -7 -25 -3 -28 7 -80 -20 -70
-37 4 -5 3 -9 -2 -7 -8 2 -83 -41 -83 -48 0 -10 30 -3 43 11 8 8 17 11 21 8 3
-4 6 -1 6 6 0 7 4 10 9 7 4 -3 19 4 32 15 13 11 31 18 41 16 10 -3 16 -1 12 4
-8 13 3 11 36 -6 18 -9 31 -11 35 -5 3 6 1 10 -6 10 -7 0 -10 2 -7 5 3 3 13 3
22 -1 15 -6 15 -8 2 -23 -14 -15 -11 -16 25 -17 21 -1 39 2 39 7 0 5 -6 9 -13
9 -8 0 -24 11 -37 25 -24 25 -79 46 -115 43 -12 0 -10 -3 8 -5z m57 -23 c0 -5
-2 -10 -4 -10 -3 0 -8 5 -11 10 -3 6 -1 10 4 10 6 0 11 -4 11 -10z"/>
<path d="M455 2289 c-4 -6 -5 -12 -2 -15 2 -3 7 2 10 11 7 17 1 20 -8 4z"/>
<path d="M940 2241 c0 -15 18 -23 25 -11 10 16 23 12 30 -9 3 -10 15 -21 27
-24 18 -5 19 -8 8 -22 -9 -11 -24 -15 -41 -13 -15 3 -28 2 -27 -1 2 -18 -4
-20 -24 -10 -17 9 -20 9 -15 -4 3 -8 0 -20 -6 -26 -15 -15 -9 -14 56 8 30 11
58 17 61 14 3 -4 6 0 6 9 0 18 46 42 54 27 2 -5 3 -4 2 3 -2 7 -12 12 -23 10
-12 -2 -35 10 -54 28 -32 28 -79 41 -79 21z"/>
<path d="M1110 2225 c-8 -10 -6 -16 9 -27 12 -8 18 -17 15 -21 -3 -3 4 -3 17
0 22 6 22 7 3 14 -10 4 -13 8 -6 8 18 1 15 14 -7 28 -15 10 -22 9 -31 -2z"/>
<path d="M1420 2211 c0 -6 4 -13 10 -16 6 -3 7 1 4 9 -7 18 -14 21 -14 7z"/>
<path d="M788 2183 c7 -3 16 -2 19 1 4 3 -2 6 -13 5 -11 0 -14 -3 -6 -6z"/>
<path d="M1110 2165 c-5 -49 -4 -60 5 -67 6 -4 -1 -8 -15 -9 -23 0 -23 -1 -5
-8 28 -12 36 8 26 60 -5 24 -10 35 -11 24z"/>
<path d="M1130 2150 c0 -5 5 -10 11 -10 5 0 7 -5 3 -12 -5 -8 -2 -9 9 -5 9 3
19 2 22 -3 4 -6 -3 -10 -14 -10 -24 0 -24 0 -11 -35 8 -22 14 -24 37 -19 19 4
25 3 18 -3 -18 -18 -65 -25 -71 -10 -3 8 -10 14 -17 14 -7 0 -26 3 -42 7 -35
8 -24 -2 40 -36 61 -32 89 -37 110 -22 28 21 41 17 19 -7 -11 -13 -27 -19 -40
-16 -16 3 -21 0 -17 -10 3 -7 9 -10 14 -7 6 3 17 0 26 -8 15 -11 16 -11 9 7
-6 16 -5 18 5 8 22 -21 27 -15 24 27 -2 22 0 40 5 40 17 0 -1 54 -23 69 -32
24 -60 33 -51 18 4 -6 -3 -2 -15 11 -22 23 -51 30 -51 12z m114 -56 c20 -20
20 -34 0 -34 -8 0 -13 4 -10 9 9 14 -23 22 -44 11 -25 -13 -30 -13 -30 4 0 26
61 33 84 10z m-14 -64 c-6 -11 -17 -20 -25 -20 -12 0 -12 4 2 20 10 11 21 20
26 20 4 0 3 -9 -3 -20z"/>
<path d="M485 2140 c-3 -5 -1 -10 4 -10 6 0 11 5 11 10 0 6 -2 10 -4 10 -3 0
-8 -4 -11 -10z"/>
<path d="M845 2129 c-5 -8 -1 -9 14 -4 16 5 20 3 15 -9 -4 -11 0 -16 12 -16
14 0 16 2 6 9 -8 4 -13 12 -12 17 2 14 -27 17 -35 3z"/>
<path d="M1052 2121 c-10 -6 -10 -10 2 -20 12 -10 15 -9 13 8 -1 12 -1 21 -2
21 0 0 -6 -4 -13 -9z"/>
<path d="M1420 2120 c-9 -6 -10 -10 -3 -10 6 0 15 5 18 10 8 12 4 12 -15 0z"/>
<path d="M752 2090 l-24 -20 29 -12 c15 -7 36 -22 46 -33 17 -20 17 -20 10 0
-3 11 -10 25 -14 31 -5 6 -6 13 -3 17 3 3 -5 3 -18 0 -22 -6 -22 -6 -5 11 31
32 15 36 -21 6z"/>
<path d="M800 2099 c0 -6 8 -13 19 -16 13 -3 17 -11 13 -26 -4 -17 -2 -20 8
-10 19 17 4 63 -20 63 -11 0 -20 -5 -20 -11z"/>
<path d="M901 2074 c-7 -8 -10 -18 -7 -21 7 -7 36 16 36 28 0 13 -13 10 -29
-7z"/>
<path d="M941 2073 c-6 -7 -8 -18 -5 -26 3 -9 -6 -19 -26 -27 -18 -7 -36 -24
-41 -38 -5 -13 -15 -22 -22 -19 -7 2 -18 -2 -25 -9 -7 -8 -8 -14 -2 -14 5 0 1
-9 -10 -20 -11 -11 -20 -30 -20 -42 1 -20 3 -18 14 8 8 18 19 35 25 38 6 4 8
12 5 18 -4 6 1 6 14 -1 28 -15 42 -14 36 3 -3 7 10 30 29 50 27 29 42 36 71
36 41 0 86 -25 86 -47 0 -7 6 -13 13 -12 30 4 40 -3 17 -12 -26 -10 -37 -9
-33 3 5 14 -51 48 -78 48 -33 0 -96 -50 -85 -68 4 -7 13 -12 19 -12 8 0 8 3
-1 9 -20 12 10 39 52 47 41 7 74 -9 81 -39 5 -19 13 -23 43 -22 26 0 36 4 34
14 -3 12 1 12 19 -1 13 -8 25 -21 27 -29 3 -9 -2 -8 -17 5 -11 11 -21 14 -21
9 0 -6 12 -18 26 -28 18 -11 24 -13 19 -4 -6 10 -5 11 3 4 6 -5 24 -37 41 -71
35 -71 61 -99 61 -66 0 12 -8 29 -18 39 -10 10 -33 48 -52 85 -18 37 -36 66
-39 65 -3 -1 -6 0 -6 3 0 11 -30 38 -37 33 -5 -2 -8 1 -8 8 0 7 -3 9 -6 6 -7
-6 -63 28 -75 46 -3 5 -9 8 -13 8 -30 -4 -86 1 -86 7 0 5 20 7 45 6 25 -1 45
1 45 6 0 13 -86 16 -99 3z m179 -133 c0 -5 -5 -10 -11 -10 -5 0 -7 5 -4 10 3
6 8 10 11 10 2 0 4 -4 4 -10z"/>
<path d="M860 2040 c-6 -11 -15 -18 -21 -15 -5 4 -9 -4 -9 -16 0 -22 0 -21 24
4 13 14 27 23 30 19 4 -3 4 1 0 11 -8 22 -11 21 -24 -3z"/>
<path d="M565 2039 c-4 -6 -5 -12 -2 -15 2 -3 7 2 10 11 7 17 1 20 -8 4z"/>
<path d="M734 2023 c-30 -22 -13 -83 23 -83 12 0 14 -6 8 -27 -4 -16 -10 -50
-15 -78 -4 -27 -13 -51 -19 -53 -14 -5 -15 -62 -1 -62 6 0 10 9 10 21 0 11 5
29 11 40 5 11 15 48 20 82 6 34 19 76 30 93 16 27 17 33 5 37 -8 3 -16 1 -19
-6 -2 -6 -6 -3 -10 7 -4 11 -3 15 4 10 7 -4 10 -1 7 7 -5 16 -38 23 -54 12z
m13 -15 c-2 -7 5 -20 15 -30 23 -20 8 -33 -17 -14 -12 9 -15 19 -11 34 4 12
10 22 13 22 2 0 3 -6 0 -12z"/>
<path d="M565 1980 c-3 -5 -1 -10 4 -10 6 0 11 5 11 10 0 6 -2 10 -4 10 -3 0
-8 -4 -11 -10z"/>
<path d="M945 1940 c-3 -5 -1 -10 4 -10 6 0 11 5 11 10 0 6 -2 10 -4 10 -3 0
-8 -4 -11 -10z"/>
<path d="M970 1927 c0 -10 -4 -15 -10 -12 -5 3 -10 1 -10 -4 0 -16 -26 -13
-40 4 -10 12 -15 12 -38 -3 -25 -16 -26 -16 -19 1 12 31 -1 18 -28 -26 -35
-60 -32 -79 5 -29 27 38 44 47 68 40 4 -2 6 -9 6 -15 -1 -7 2 -10 7 -7 15 9
10 -13 -6 -26 -8 -7 -15 -17 -15 -23 0 -6 11 0 25 13 14 13 25 19 25 13 0 -17
-41 -64 -51 -58 -5 4 -9 0 -9 -7 0 -12 -29 -36 -57 -48 -7 -3 -9 -10 -4 -18 7
-11 11 -10 24 2 18 18 37 21 37 5 0 -5 -4 -7 -10 -4 -13 8 -13 -8 0 -21 5 -5
6 -15 0 -24 -7 -12 -11 -10 -19 10 -5 14 -10 19 -10 13 -1 -21 -28 -15 -44 10
-10 15 -14 40 -11 73 l4 49 -15 -44 c-8 -24 -12 -48 -9 -52 3 -5 0 -9 -5 -9
-6 0 -11 -7 -11 -16 0 -9 -5 -12 -12 -8 -7 5 2 -10 21 -32 44 -50 52 -55 93
-50 18 2 39 -1 46 -6 8 -7 12 -7 12 1 0 10 -13 15 -32 13 -3 -1 -12 6 -19 14
-11 13 -9 14 16 8 20 -5 26 -4 21 5 -4 6 -12 9 -17 6 -5 -3 -6 1 -2 10 4 12 8
13 13 5 5 -8 10 -9 14 -2 4 6 -1 15 -10 20 -12 7 -13 11 -5 17 9 5 8 12 -5 26
-16 17 -16 19 -1 19 16 0 19 -5 21 -39 1 -8 7 -16 15 -19 10 -3 12 0 7 14 -5
11 -9 26 -10 33 -2 8 -8 17 -14 19 -7 2 -9 8 -6 13 3 6 11 5 20 -2 10 -8 14
-8 14 0 0 6 -4 11 -9 11 -6 0 3 15 20 32 27 30 28 33 10 40 -10 3 -22 11 -26
17 -9 15 18 14 34 -1 10 -11 11 -10 6 3 -4 10 -2 20 4 24 6 3 11 3 12 -2 0 -4
3 -21 5 -38 4 -20 0 -33 -12 -42 -17 -13 -12 -49 6 -38 6 4 7 -1 3 -12 -6 -15
-4 -16 9 -5 13 10 18 9 29 -5 13 -16 12 -17 -3 -4 -13 10 -18 10 -18 1 0 -6 9
-14 20 -17 11 -3 20 -10 20 -15 0 -5 -10 -6 -22 -2 -22 6 -22 6 -5 -13 24 -27
21 -43 -7 -43 -30 0 -42 -26 -15 -33 12 -3 19 0 19 9 0 8 5 14 10 14 6 0 10
-4 10 -10 0 -5 11 -10 25 -10 14 0 25 5 25 10 0 6 -5 10 -10 10 -14 0 -31 46
-24 64 5 13 10 12 27 -5 19 -17 20 -21 7 -29 -13 -8 -13 -10 2 -10 9 0 18 -8
20 -17 6 -28 -49 -57 -102 -54 l-45 2 29 -15 c16 -9 38 -13 52 -10 14 4 24 2
24 -5 0 -6 7 -8 15 -5 21 8 19 25 -2 18 -10 -3 -3 4 15 17 23 15 32 28 29 40
-3 10 0 20 6 22 11 3 -53 77 -67 77 -10 0 -55 53 -56 66 0 6 6 11 14 11 8 0
12 -6 9 -14 -3 -7 0 -13 6 -13 6 0 25 -16 43 -36 39 -43 77 -61 90 -42 7 10
11 9 21 -4 12 -15 14 -15 25 3 7 10 19 19 27 19 17 0 19 -12 5 -26 -7 -7 -5
-17 6 -30 8 -10 13 -13 9 -6 -3 7 0 12 8 12 8 0 17 7 21 15 3 9 0 15 -8 15 -7
0 -20 14 -28 31 -14 28 -16 29 -21 10 -6 -25 -48 -29 -67 -6 -16 19 -5 34 12
17 18 -18 48 -15 48 5 0 13 -3 14 -12 5 -8 -8 -19 -6 -42 11 -17 12 -33 22
-36 22 -3 1 -15 6 -27 13 -19 11 -22 10 -17 -3 5 -11 2 -13 -10 -9 -12 5 -15
2 -10 -12 4 -12 -5 -6 -25 14 -35 37 -64 99 -55 114 4 6 13 -4 21 -22 9 -22
17 -30 23 -24 17 17 20 52 5 58 -9 3 -12 0 -9 -8 3 -8 1 -17 -5 -21 -7 -3 -11
2 -11 14 0 14 -6 19 -20 18 -12 -1 -20 -8 -20 -20z m161 -128 c16 -8 18 -13 9
-24 -10 -12 -14 -12 -27 0 -8 8 -19 15 -25 15 -6 0 -1 -9 12 -20 13 -11 29
-20 37 -20 7 0 13 -4 13 -10 0 -5 -7 -10 -15 -10 -8 0 -15 5 -15 12 0 6 -3 8
-6 5 -4 -4 -15 3 -25 15 -14 16 -16 24 -8 35 14 16 24 16 50 2z m134 -89 c3
-5 1 -10 -4 -10 -6 0 -11 5 -11 10 0 6 2 10 4 10 3 0 8 -4 11 -10z m-470 -21
c-10 -15 -25 -10 -19 6 4 8 10 12 15 9 5 -3 7 -10 4 -15z m55 -20 c0 -5 -5 -9
-11 -9 -8 0 -7 -5 1 -15 11 -14 10 -14 -12 -6 -14 5 -28 7 -31 4 -3 -2 -4 3
-2 14 2 10 4 18 4 18 1 0 12 1 26 1 14 1 25 -2 25 -7z"/>
<path d="M720 1901 c12 -24 30 -36 30 -22 0 6 -4 11 -10 11 -5 0 -10 7 -10 15
0 8 -5 15 -10 15 -7 0 -7 -6 0 -19z"/>
<path d="M622 1880 c0 -19 2 -27 5 -17 2 9 2 25 0 35 -3 9 -5 1 -5 -18z"/>
<path d="M1080 1904 c0 -3 12 -9 27 -15 22 -8 24 -12 13 -19 -20 -13 -33 -12
-25 0 3 6 -1 7 -9 4 -9 -3 -16 -2 -16 4 0 6 -9 6 -24 -1 -18 -8 -22 -15 -14
-22 7 -7 12 -6 15 2 4 10 12 9 39 -2 19 -8 34 -12 34 -9 0 3 12 -3 28 -14 47
-32 52 -34 52 -18 0 9 -3 15 -7 14 -15 -3 -63 22 -63 32 0 6 11 3 25 -6 29
-19 44 -12 25 11 -7 9 -15 13 -18 10 -3 -3 -12 1 -21 9 -16 13 -61 28 -61 20z"/>
<path d="M872 1843 c-5 -16 -24 -43 -43 -60 -22 -23 -28 -33 -17 -33 19 0 63
56 72 93 3 15 4 27 2 27 -2 0 -8 -12 -14 -27z"/>
<path d="M832 1830 c-6 -11 -12 -22 -12 -25 0 -11 20 6 30 26 14 25 -2 25 -18
-1z"/>
<path d="M1050 1840 c0 -5 5 -10 10 -10 6 0 10 5 10 10 0 6 -4 10 -10 10 -5 0
-10 -4 -10 -10z"/>
<path d="M1422 1815 c0 -16 2 -22 5 -12 2 9 2 23 0 30 -3 6 -5 -1 -5 -18z"/>
<path d="M943 1783 c0 -10 4 -23 9 -30 6 -8 1 -27 -16 -56 -30 -51 -32 -59
-11 -51 8 4 13 9 10 14 -2 4 5 17 16 28 14 16 19 32 16 57 -4 38 -23 69 -24
38z"/>
<path d="M931 1734 c0 -11 3 -14 6 -6 3 7 2 16 -1 19 -3 4 -6 -2 -5 -13z"/>
<path d="M980 1728 c0 -19 2 -20 10 -8 13 19 13 30 0 30 -5 0 -10 -10 -10 -22z"/>
<path d="M689 1723 c11 -21 49 -63 57 -63 3 0 -9 18 -26 40 -33 42 -47 52 -31
23z"/>
<path d="M1152 1701 c-11 -7 -10 -10 3 -15 23 -9 25 -8 25 9 0 17 -9 19 -28 6z"/>
<path d="M1406 1701 c-4 -5 -2 -20 3 -33 9 -21 9 -20 8 9 -2 36 -3 38 -11 24z"/>
<path d="M985 1690 c3 -5 8 -10 11 -10 2 0 4 5 4 10 0 6 -5 10 -11 10 -5 0 -7
-4 -4 -10z"/>
<path d="M1200 1690 c-17 -10 -8 -23 19 -25 13 -1 17 4 13 17 -5 20 -11 22
-32 8z"/>
<path d="M1168 1653 c7 -3 16 -2 19 1 4 3 -2 6 -13 5 -11 0 -14 -3 -6 -6z"/>
<path d="M1196 1642 c-3 -5 -7 -25 -10 -45 -2 -20 -7 -40 -10 -45 -2 -4 -1
-14 5 -22 7 -12 9 -9 10 10 3 48 5 55 13 78 8 24 3 41 -8 24z"/>
<path d="M1423 1619 c-2 -23 3 -25 10 -4 4 8 3 16 -1 19 -4 3 -9 -4 -9 -15z"/>
<path d="M561 1598 c0 -16 2 -18 6 -8 3 8 11 18 17 22 7 5 4 8 -6 8 -12 0 -18
-7 -17 -22z"/>
<path d="M850 1593 c0 -8 5 -13 12 -11 18 6 21 25 3 25 -8 0 -15 -7 -15 -14z"/>
<path d="M417 1579 c4 -13 8 -18 11 -10 2 7 -1 18 -6 23 -8 8 -9 4 -5 -13z"/>
<path d="M1280 1571 c0 -6 5 -13 10 -16 6 -3 10 1 10 9 0 9 -4 16 -10 16 -5 0
-10 -4 -10 -9z"/>
<path d="M554 1557 c3 -10 6 -21 6 -23 0 -2 8 -4 18 -4 10 0 28 -9 39 -19 21
-20 21 -20 27 2 9 33 7 47 -5 47 -6 0 -8 -9 -4 -22 6 -19 5 -21 -6 -10 -7 6
-23 12 -36 12 -12 0 -27 8 -33 18 -11 16 -11 16 -6 -1z"/>
<path d="M588 1563 c6 -2 18 -2 25 0 6 3 1 5 -13 5 -14 0 -19 -2 -12 -5z"/>
<path d="M526 1552 c-3 -6 -1 -14 5 -17 15 -10 25 3 12 16 -7 7 -13 7 -17 1z"/>
<path d="M488 1533 c6 -2 12 -10 12 -16 0 -7 9 -18 19 -24 16 -10 20 -9 24 8
4 15 2 19 -9 15 -8 -3 -17 1 -20 9 -4 8 -14 15 -23 14 -10 0 -11 -2 -3 -6z"/>
<path d="M473 1472 c1 -30 5 -56 9 -58 4 -3 5 -11 2 -19 -4 -8 1 -18 10 -21
10 -4 23 -21 31 -38 8 -18 14 -24 14 -14 1 24 -14 60 -37 86 -28 32 -18 55 18
47 17 -4 31 -1 35 5 6 9 10 9 16 -1 6 -10 9 -10 9 -2 0 17 -21 28 -29 15 -4
-6 -17 -9 -30 -5 -17 4 -19 8 -9 14 9 6 7 9 -9 9 -12 0 -24 8 -26 18 -3 9 -4
-7 -4 -36z"/>
<path d="M1095 1510 c-8 -12 20 -24 35 -15 6 3 8 11 5 16 -8 12 -32 12 -40 -1z"/>
<path d="M1359 1498 c-1 -13 -1 -29 0 -35 1 -7 -3 -13 -9 -13 -6 0 -23 -13
-37 -30 -13 -16 -31 -30 -39 -30 -9 0 -12 -5 -9 -10 8 -13 65 19 65 37 0 7 7
13 15 13 8 0 15 1 16 3 5 21 9 87 5 87 -4 0 -7 -10 -7 -22z"/>
<path d="M590 1500 c0 -5 5 -10 10 -10 6 0 10 5 10 10 0 6 -4 10 -10 10 -5 0
-10 -4 -10 -10z"/>
<path d="M722 1505 c4 -4 4 -13 -2 -19 -6 -8 -3 -12 10 -13 11 -1 22 2 25 8 4
5 -2 6 -11 2 -11 -4 -15 -3 -10 5 3 6 1 14 -6 18 -7 4 -10 4 -6 -1z"/>
<path d="M1310 1469 c-24 -30 -43 -66 -24 -44 5 6 22 25 38 43 17 17 26 32 20
32 -5 0 -20 -14 -34 -31z"/>
<path d="M970 1481 c0 -5 7 -11 15 -15 9 -3 15 0 15 9 0 8 -7 15 -15 15 -8 0
-15 -4 -15 -9z"/>
<path d="M615 1471 c-4 -7 0 -8 11 -4 12 4 15 3 10 -5 -4 -7 -2 -12 4 -12 14
0 8 22 -7 27 -6 2 -14 -1 -18 -6z"/>
<path d="M895 1441 c3 -11 1 -23 -6 -26 -17 -11 9 -24 40 -19 20 3 23 2 11 -6
-8 -5 -23 -10 -32 -10 -20 0 -25 -20 -5 -20 8 0 7 -3 -3 -10 -9 -6 -17 -5 -22
3 -4 7 -5 -2 -2 -19 6 -30 5 -31 -22 -26 l-29 5 28 -23 c22 -18 30 -20 42 -10
8 7 15 18 15 24 0 6 -5 4 -11 -4 -9 -12 -10 -12 -5 3 3 10 6 21 6 23 0 3 5 2
10 -1 6 -3 10 1 10 9 0 8 7 22 16 30 9 9 18 31 20 49 4 29 3 30 -9 15 -21 -27
-30 -21 -11 7 16 25 16 25 -16 25 -26 0 -30 -3 -25 -19z"/>
<path d="M591 1434 c0 -13 9 -28 24 -38 21 -14 24 -14 19 -1 -4 8 -12 15 -19
15 -8 0 -16 10 -18 23 -4 21 -4 21 -6 1z"/>
<path d="M535 1430 c-19 -8 -19 -9 2 -9 12 -1 25 4 28 9 7 12 -2 12 -30 0z"/>
<path d="M683 1423 c9 -2 23 -2 30 0 6 3 -1 5 -18 5 -16 0 -22 -2 -12 -5z"/>
<path d="M551 1401 c-9 -6 -10 -10 -2 -16 7 -4 9 -16 5 -28 -6 -20 -6 -20 12
-3 17 18 18 18 25 0 5 -12 8 -14 8 -5 1 8 4 12 7 8 3 -3 3 -15 -1 -28 -6 -17
-9 -19 -16 -8 -6 10 -9 10 -9 2 0 -7 -7 -10 -17 -7 -15 5 -15 4 -3 -4 8 -6 18
-8 22 -6 4 3 8 -3 9 -13 0 -14 2 -14 9 5 9 21 21 31 19 15 -3 -19 2 -33 12
-33 5 0 7 5 3 11 -4 7 -1 10 7 7 8 -3 15 -14 17 -26 2 -12 10 -22 18 -22 8 0
14 -4 14 -10 0 -5 6 -10 14 -10 8 0 21 -7 29 -15 13 -13 16 -13 21 0 4 10 -1
15 -15 15 -11 0 -24 11 -31 25 -6 14 -17 25 -25 25 -7 0 -13 7 -13 15 0 14
-12 20 -33 16 -5 -1 -5 8 -2 20 5 13 3 19 -3 15 -5 -3 -13 5 -16 19 -5 21 -10
24 -26 15 -20 -11 -36 2 -25 20 8 12 4 12 -14 1z"/>
<path d="M678 1393 c7 -3 16 -2 19 1 4 3 -2 6 -13 5 -11 0 -14 -3 -6 -6z"/>
<path d="M336 1382 c-3 -5 1 -9 9 -9 8 0 12 4 9 9 -3 4 -7 8 -9 8 -2 0 -6 -4
-9 -8z"/>
<path d="M672 1338 c3 -7 14 -14 26 -16 12 -2 20 -8 17 -13 -3 -5 1 -6 10 -3
13 5 10 10 -15 25 -36 22 -43 23 -38 7z"/>
<path d="M461 1316 c-7 -8 -11 -23 -8 -33 4 -14 5 -13 6 5 1 22 21 32 21 10 0
-6 3 -9 6 -5 3 3 2 13 -3 22 -8 14 -11 15 -22 1z"/>
<path d="M940 1305 c-7 -9 -10 -18 -7 -21 3 -3 10 4 17 15 13 25 8 27 -10 6z"/>
<path d="M981 1311 c-10 -7 -11 -12 -1 -27 8 -14 10 -14 7 -3 -3 9 0 22 6 28
13 13 7 14 -12 2z"/>
<path d="M245 1299 c-4 -6 -5 -12 -2 -15 2 -3 7 2 10 11 7 17 1 20 -8 4z"/>
<path d="M750 1300 c0 -5 5 -10 10 -10 6 0 10 5 10 10 0 6 -4 10 -10 10 -5 0
-10 -4 -10 -10z"/>
<path d="M502 1285 c1 -36 -2 -46 -11 -41 -5 3 -11 -1 -15 -9 -7 -18 13 -19
37 -1 18 14 23 36 8 36 -5 0 -12 8 -15 18 -4 14 -5 14 -4 -3z"/>
<path d="M1406 1265 c-8 -22 3 -40 16 -27 7 7 7 16 1 27 -9 16 -10 16 -17 0z"/>
<path d="M572 1234 c0 -33 2 -36 9 -16 5 14 5 30 0 40 -7 12 -9 5 -9 -24z"/>
<path d="M1006 1262 c-11 -17 20 -32 53 -26 38 8 41 24 4 20 -16 -1 -33 1 -40
6 -6 5 -14 5 -17 0z"/>
<path d="M1110 1260 c-13 -8 -12 -10 3 -10 9 0 17 5 17 10 0 12 -1 12 -20 0z"/>
<path d="M532 1240 c-12 -10 -22 -26 -21 -37 0 -15 2 -14 9 5 9 22 30 31 30
12 0 -5 -5 -10 -11 -10 -5 0 -7 -5 -4 -10 8 -14 21 -5 28 19 8 31 -6 41 -31
21z"/>
<path d="M810 1245 c0 -8 2 -15 4 -15 2 0 6 7 10 15 3 8 1 15 -4 15 -6 0 -10
-7 -10 -15z"/>
<path d="M876 1243 c-4 -8 3 -13 19 -13 15 0 25 6 25 14 0 18 -38 17 -44 -1z"/>
<path d="M1290 1240 c-6 -11 -8 -20 -6 -20 3 0 10 9 16 20 6 11 8 20 6 20 -3
0 -10 -9 -16 -20z"/>
<path d="M840 1236 c0 -15 -21 -26 -51 -26 -26 0 -24 -16 4 -24 33 -9 87 -7
87 3 0 4 -11 6 -25 3 -15 -2 -25 0 -25 7 0 6 6 11 13 11 7 0 13 9 14 20 1 11
-2 20 -8 20 -5 0 -9 -6 -9 -14z"/>
<path d="M956 1242 c-3 -5 1 -9 9 -9 8 0 12 4 9 9 -3 4 -7 8 -9 8 -2 0 -6 -4
-9 -8z"/>
<path d="M320 1210 c-9 -16 -8 -18 5 -14 8 4 15 12 15 20 0 20 -7 17 -20 -6z"/>
<path d="M590 1224 c0 -12 31 -35 40 -29 5 3 10 -3 10 -13 0 -16 5 -19 23 -14
20 5 21 4 8 -11 -7 -9 -12 -17 -10 -17 2 -1 29 -3 60 -6 37 -4 59 -2 63 5 12
19 -21 41 -61 41 -23 0 -54 10 -78 25 -40 25 -55 30 -55 19z m133 -68 c4 -10
1 -13 -8 -9 -8 3 -12 9 -9 14 7 12 11 11 17 -5z"/>
<path d="M352 1186 c3 -33 18 -53 18 -23 0 8 3 7 10 -3 5 -8 12 -12 15 -9 9 9
-6 40 -16 33 -5 -3 -9 2 -9 10 0 8 -5 18 -10 21 -6 4 -9 -8 -8 -29z"/>
<path d="M890 1200 c6 -12 18 -15 39 -12 30 4 43 21 19 23 -59 6 -66 5 -58
-11z"/>
<path d="M182 1190 c0 -14 2 -19 5 -12 2 6 2 18 0 25 -3 6 -5 1 -5 -13z"/>
<path d="M480 1201 c0 -6 5 -13 10 -16 6 -3 10 1 10 9 0 9 -4 16 -10 16 -5 0
-10 -4 -10 -9z"/>
<path d="M1055 1180 c-4 -6 8 -9 29 -8 20 2 36 6 36 11 0 11 -58 9 -65 -3z"/>
<path d="M161 1164 c0 -11 3 -14 6 -6 3 7 2 16 -1 19 -3 4 -6 -2 -5 -13z"/>
<path d="M297 1166 c-4 -10 -3 -15 3 -11 6 3 10 1 10 -6 0 -7 3 -10 6 -6 3 3
2 13 -4 22 -8 16 -9 16 -15 1z"/>
<path d="M535 1171 c-3 -5 3 -12 12 -14 16 -4 16 -5 -1 -6 -15 -1 -16 -4 -7
-15 7 -8 9 -25 5 -40 -6 -27 -24 -36 -24 -13 0 8 -4 7 -11 -3 -8 -12 -9 -9 -5
13 3 15 9 39 12 55 l5 27 -14 -24 c-11 -18 -16 -21 -21 -10 -3 8 -4 -5 -2 -28
2 -23 1 -42 -2 -41 -22 2 -31 -4 -25 -19 6 -15 7 -15 14 3 7 18 8 18 9 -1 1
-20 1 -20 10 0 7 16 9 13 9 -16 1 -25 -4 -39 -15 -43 -13 -5 -15 -2 -11 14 3
11 1 20 -4 20 -5 0 -9 -10 -9 -23 0 -19 5 -24 29 -24 29 0 29 1 24 45 -5 41
-4 43 15 33 14 -8 19 -20 19 -48 0 -21 3 -40 8 -43 11 -7 15 89 4 96 -16 10
-9 32 11 37 11 3 20 12 20 20 0 8 7 17 15 21 21 8 19 36 -2 36 -15 0 -16 -2
-3 -10 26 -17 2 -22 -29 -6 -17 9 -32 12 -36 7z m39 -45 c-5 -14 -9 -15 -15
-5 -5 8 -3 17 4 21 15 9 19 4 11 -16z"/>
<path d="M1000 1161 c-14 -27 -13 -31 5 -24 9 3 13 8 11 11 -3 3 -1 11 5 19 8
9 8 13 1 13 -6 0 -16 -9 -22 -19z"/>
<path d="M862 1162 c-19 -3 -21 -6 -11 -18 6 -8 9 -18 5 -22 -4 -4 -13 1 -20
11 -14 19 -36 23 -36 7 0 -5 7 -10 16 -10 8 0 12 -5 9 -10 -4 -6 -11 -8 -16
-5 -5 4 -9 2 -9 -4 0 -20 83 -1 107 25 13 14 23 27 23 28 0 4 -31 3 -68 -2z"/>
<path d="M455 1150 c-3 -5 -1 -10 4 -10 6 0 11 5 11 10 0 6 -2 10 -4 10 -3 0
-8 -4 -11 -10z"/>
<path d="M1066 1153 c-31 -8 -52 -33 -37 -43 9 -5 10 -10 2 -14 -19 -12 -12
-22 18 -24 21 -2 30 3 34 18 4 15 0 20 -15 20 -10 0 -16 5 -13 10 9 14 52 12
58 -2 4 -9 6 -8 6 3 1 15 -18 40 -28 38 -4 -1 -15 -4 -25 -6z"/>
<path d="M1254 1149 c-3 -6 -1 -16 4 -21 8 -8 11 -5 9 11 -1 24 -3 25 -13 10z"/>
<path d="M1141 1141 c-7 -5 -12 -14 -10 -20 3 -7 11 -3 21 9 18 21 13 26 -11
11z"/>
<path d="M265 1130 c3 -5 8 -10 11 -10 2 0 4 5 4 10 0 6 -5 10 -11 10 -5 0 -7
-4 -4 -10z"/>
<path d="M350 1125 c0 -8 5 -15 10 -15 6 0 10 7 10 15 0 8 -4 15 -10 15 -5 0
-10 -7 -10 -15z"/>
<path d="M300 1120 c0 -5 5 -10 10 -10 6 0 10 5 10 10 0 6 -4 10 -10 10 -5 0
-10 -4 -10 -10z"/>
<path d="M610 1120 c0 -5 5 -10 10 -10 6 0 10 5 10 10 0 6 -4 10 -10 10 -5 0
-10 -4 -10 -10z"/>
<path d="M1182 1119 c-13 -5 -20 -13 -17 -19 7 -12 45 5 45 20 0 6 -1 10 -2 9
-2 0 -13 -4 -26 -10z"/>
<path d="M640 1111 c0 -14 56 -71 70 -71 7 0 10 7 7 14 -4 10 -1 13 9 9 7 -3
14 -9 14 -14 0 -5 8 -9 18 -9 10 0 23 -5 30 -12 8 -8 12 -8 12 -1 0 6 -14 16
-30 23 -40 17 -46 28 -24 45 12 9 14 14 6 15 -7 0 -22 -9 -34 -20 -26 -24 -50
-27 -42 -5 4 8 11 15 17 15 6 0 7 3 3 7 -11 11 -56 15 -56 4z"/>
<path d="M982 1094 c-5 -11 -7 -25 -4 -33 3 -8 0 -11 -7 -7 -6 4 -11 3 -11 -2
0 -6 7 -12 15 -16 10 -3 15 1 15 12 0 10 5 23 12 30 9 9 9 15 1 23 -8 8 -14 6
-21 -7z"/>
<path d="M940 1085 c0 -18 -11 -19 -29 -2 -11 10 -12 9 -6 -2 6 -11 4 -13 -7
-8 -11 4 -18 -1 -21 -14 -6 -21 8 -26 17 -6 3 6 3 1 0 -12 -5 -20 -3 -23 11
-18 9 4 23 7 31 7 8 0 14 9 14 19 0 11 5 23 10 26 12 7 4 25 -11 25 -5 0 -9
-7 -9 -15z"/>
<path d="M1110 1090 c-12 -8 -9 -10 13 -10 16 0 26 4 22 10 -8 12 -16 12 -35
0z"/>
<path d="M1194 1078 c-11 -13 -31 -47 -44 -75 -13 -29 -26 -53 -30 -53 -3 0
-6 -9 -7 -19 -3 -34 21 -13 41 35 10 25 29 58 42 73 13 16 20 31 17 35 -4 4 0
4 10 0 13 -5 16 -2 11 10 -8 22 -17 20 -40 -6z"/>
<path d="M300 1081 c0 -6 4 -12 8 -15 5 -3 9 1 9 9 0 8 -4 15 -9 15 -4 0 -8
-4 -8 -9z"/>
<path d="M767 1083 c-3 -5 6 -9 19 -9 13 -1 24 2 24 7 0 11 -37 12 -43 2z"/>
<path d="M614 1074 c-6 -3 -9 -15 -7 -27 3 -14 -2 -29 -11 -36 -17 -14 -22
-41 -7 -41 5 0 13 12 19 28 11 29 24 82 20 81 -2 0 -8 -3 -14 -5z"/>
<path d="M816 1058 c-8 -32 -8 -38 4 -38 6 0 10 12 11 28 0 23 1 24 8 7 5 -11
6 -27 3 -35 -4 -11 -2 -12 7 -4 7 7 11 22 9 35 -4 32 -34 37 -42 7z"/>
<path d="M640 1050 c0 -8 -3 -26 -6 -40 -5 -23 -5 -23 10 4 11 20 13 33 6 40
-7 7 -10 5 -10 -4z"/>
<path d="M1140 1050 c0 -6 -11 -15 -25 -20 -14 -5 -25 -15 -25 -23 0 -7 -14
-21 -30 -31 -17 -9 -28 -22 -24 -27 3 -5 10 -6 16 -3 5 4 2 -5 -7 -20 -11 -16
-26 -26 -41 -26 -12 0 -26 -5 -30 -11 -4 -7 7 -10 34 -8 23 2 44 0 48 -4 4 -4
15 -7 24 -7 13 0 16 9 12 53 -3 49 -1 54 22 65 15 6 25 15 24 19 -1 5 3 18 10
31 8 14 9 22 2 22 -5 0 -10 -5 -10 -10z m-63 -130 c-1 -20 -9 -25 -20 -13 -4
3 -2 12 4 20 15 18 18 17 16 -7z"/>
<path d="M1241 1044 c0 -11 3 -14 6 -6 3 7 2 16 -1 19 -3 4 -6 -2 -5 -13z"/>
<path d="M716 1014 c-3 -8 -2 -13 3 -9 5 3 15 -1 23 -8 13 -13 62 -16 75 -4 3
4 -7 7 -23 7 -16 0 -39 7 -51 15 -19 13 -22 13 -27 -1z"/>
<path d="M1013 1011 c1 -14 9 -26 17 -28 10 -3 11 -2 4 4 -7 4 -14 17 -17 28
-5 16 -5 15 -4 -4z"/>
<path d="M660 1010 c0 -5 5 -10 11 -10 5 0 8 -4 5 -8 -2 -4 0 -14 6 -22 8 -12
9 -12 4 3 -3 9 -1 17 4 17 5 0 12 -9 15 -20 3 -11 14 -20 23 -20 15 0 15 -2 2
-10 -12 -8 -10 -10 8 -10 13 0 20 4 17 10 -3 6 4 10 17 11 22 1 21 1 -4 9 -34
10 -88 42 -88 52 0 4 -4 8 -10 8 -5 0 -10 -4 -10 -10z"/>
<path d="M1203 990 c1 -14 -3 -24 -9 -23 -5 1 -15 -7 -22 -18 -7 -11 -8 -19
-2 -19 5 0 10 6 10 13 0 7 8 3 17 -8 11 -14 14 -15 10 -4 -3 9 -1 21 4 26 6 6
6 18 -1 34 l-10 24 3 -25z"/>
<path d="M908 985 c-17 -10 -29 -11 -33 -5 -8 14 -42 13 -51 -2 -5 -8 -2 -9 9
-5 10 3 17 3 17 -2 0 -4 16 -8 36 -9 20 -1 45 -4 54 -7 23 -7 35 12 20 30 -15
18 -18 18 -52 0z m47 -5 c3 -6 -1 -7 -9 -4 -18 7 -21 14 -7 14 6 0 13 -4 16
-10z"/>
<path d="M260 971 c0 -5 7 -12 16 -15 14 -5 15 -4 4 9 -14 17 -20 19 -20 6z"/>
<path d="M626 973 c-3 -3 -1 -12 5 -19 8 -10 6 -23 -10 -49 -24 -41 -25 -45
-12 -45 5 0 14 14 20 30 5 17 13 30 16 30 3 0 3 -4 0 -10 -3 -5 1 -10 10 -10
9 0 14 4 11 8 -2 4 5 9 16 9 19 2 20 0 6 -13 -13 -14 -12 -18 14 -45 32 -31
61 -39 52 -14 -4 8 -11 15 -18 15 -6 0 -17 9 -24 20 -8 13 -8 20 -2 20 7 0 7
7 0 21 -7 12 -18 18 -26 15 -8 -3 -14 0 -14 7 0 14 -35 38 -44 30z"/>
<path d="M985 971 c-6 -11 9 -23 19 -14 9 9 7 23 -3 23 -6 0 -12 -4 -16 -9z"/>
<path d="M475 960 c3 -5 8 -10 11 -10 2 0 4 5 4 10 0 6 -5 10 -11 10 -5 0 -7
-4 -4 -10z"/>
<path d="M500 950 c0 -5 7 -10 15 -10 8 0 15 5 15 10 0 6 -7 10 -15 10 -8 0
-15 -4 -15 -10z"/>
<path d="M578 955 c-8 -9 3 -45 13 -45 5 0 9 6 9 13 0 17 -15 39 -22 32z"/>
<path d="M827 926 c14 -18 27 -23 55 -22 20 0 33 5 28 9 -4 5 -16 7 -26 5 -10
-2 -27 5 -36 14 -26 26 -42 22 -21 -6z"/>
<path d="M270 925 c-8 -9 -8 -15 -2 -15 12 0 26 19 19 26 -2 2 -10 -2 -17 -11z"/>
<path d="M898 933 c7 -3 16 -2 19 1 4 3 -2 6 -13 5 -11 0 -14 -3 -6 -6z"/>
<path d="M997 933 c-4 -3 -21 -6 -38 -5 -48 1 -27 -9 25 -13 34 -2 46 1 46 11
0 14 -22 19 -33 7z"/>
<path d="M760 919 c-20 -8 -22 -12 -10 -19 8 -5 23 -10 33 -10 9 0 17 -4 17
-10 0 -5 -5 -10 -12 -10 -6 0 -4 -8 7 -20 13 -14 25 -18 49 -13 17 3 33 10 34
15 2 4 8 6 12 3 5 -3 11 -1 15 5 3 5 -1 10 -9 10 -8 0 -18 -4 -21 -10 -11 -18
-25 -11 -25 13 -1 20 -2 21 -14 5 -14 -19 -42 -25 -31 -8 4 6 1 18 -7 27 -11
14 -10 15 12 9 24 -7 24 -6 6 8 -23 18 -22 18 -56 5z"/>
<path d="M460 916 c0 -2 8 -10 18 -17 15 -13 16 -12 3 4 -13 16 -21 21 -21 13z"/>
<path d="M506 905 c4 -8 8 -15 10 -15 2 0 4 7 4 15 0 8 -4 15 -10 15 -5 0 -7
-7 -4 -15z"/>
<path d="M1278 913 c7 -3 16 -2 19 1 4 3 -2 6 -13 5 -11 0 -14 -3 -6 -6z"/>
<path d="M540 897 c0 -9 -8 -17 -17 -18 -15 0 -15 -2 2 -9 15 -6 16 -9 4 -9
-11 -1 -16 -12 -17 -42 -1 -22 -5 -46 -9 -51 -3 -7 -1 -8 5 -4 7 4 12 2 12 -3
0 -6 -5 -11 -10 -11 -6 0 -10 -17 -8 -40 1 -22 6 -40 11 -40 5 0 7 9 4 21 -7
25 9 72 22 65 13 -8 18 -85 6 -89 -5 -2 -2 -3 7 -2 9 2 26 -4 37 -12 25 -17
25 -20 5 47 -10 34 -14 70 -10 99 5 38 4 42 -5 21 -8 -20 -12 -22 -19 -10 -13
20 -13 -2 0 -34 6 -17 6 -26 -1 -26 -11 0 -15 11 -23 63 -4 28 -1 37 10 37 10
0 14 8 11 25 -4 29 -17 46 -17 22z m-13 -109 c-3 -7 -5 -2 -5 12 0 14 2 19 5
13 2 -7 2 -19 0 -25z m53 -111 c0 -5 -4 -5 -10 -2 -5 3 -10 14 -10 23 0 15 2
15 10 2 5 -8 10 -19 10 -23z"/>
<path d="M640 880 c0 -5 5 -10 10 -10 6 0 10 5 10 10 0 6 -4 10 -10 10 -5 0
-10 -4 -10 -10z"/>
<path d="M945 880 c3 -5 8 -10 11 -10 2 0 4 5 4 10 0 6 -5 10 -11 10 -5 0 -7
-4 -4 -10z"/>
<path d="M205 870 c3 -5 13 -10 21 -10 8 0 14 5 14 10 0 6 -9 10 -21 10 -11 0
-17 -4 -14 -10z"/>
<path d="M970 842 c-17 -19 -21 -102 -5 -96 14 6 18 54 5 54 -19 0 -10 21 15
32 14 6 25 15 25 20 0 14 -24 8 -40 -10z"/>
<path d="M240 838 c0 -4 14 -8 30 -8 17 0 30 2 30 4 0 2 -13 6 -30 8 -16 3
-30 1 -30 -4z"/>
<path d="M320 840 c0 -8 8 -20 19 -27 16 -10 19 -9 19 14 0 18 -3 21 -9 12 -8
-12 -11 -11 -19 1 -9 13 -10 13 -10 0z"/>
<path d="M450 837 c0 -10 8 -17 18 -17 9 0 13 4 7 8 -5 4 -13 11 -17 16 -5 5
-8 2 -8 -7z"/>
<path d="M640 830 c0 -6 7 -10 15 -10 8 0 15 2 15 4 0 2 -7 6 -15 10 -8 3 -15
1 -15 -4z"/>
<path d="M400 770 c0 -6 7 -10 15 -10 8 0 15 2 15 4 0 2 -7 6 -15 10 -8 3 -15
1 -15 -4z"/>
<path d="M460 760 c0 -11 4 -20 8 -20 4 0 8 9 8 20 0 11 -4 20 -8 20 -4 0 -8
-9 -8 -20z"/>
<path d="M610 746 c0 -8 4 -17 9 -20 5 -4 7 3 4 14 -6 23 -13 26 -13 6z"/>
<path d="M758 753 c7 -3 16 -2 19 1 4 3 -2 6 -13 5 -11 0 -14 -3 -6 -6z"/>
<path d="M1046 743 c-6 -14 -5 -15 5 -6 7 7 10 15 7 18 -3 3 -9 -2 -12 -12z"/>
<path d="M1065 730 c-10 -11 -16 -22 -14 -24 2 -2 12 7 22 20 22 29 17 32 -8
4z"/>
<path d="M1225 740 c3 -5 8 -10 11 -10 2 0 4 5 4 10 0 6 -5 10 -11 10 -5 0 -7
-4 -4 -10z"/>
<path d="M1293 737 c-3 -6 -1 -7 5 -3 5 3 12 1 14 -6 3 -8 6 -7 10 3 7 17 -19
22 -29 6z"/>
<path d="M961 721 l-21 -19 24 -4 c16 -3 27 0 30 9 15 37 1 43 -33 14z"/>
<path d="M446 723 c-11 -11 -6 -23 9 -23 8 0 15 4 15 9 0 13 -16 22 -24 14z"/>
<path d="M1346 717 c3 -10 9 -15 12 -12 3 3 0 11 -7 18 -10 9 -11 8 -5 -6z"/>
<path d="M1140 710 c0 -5 9 -10 20 -10 11 0 20 5 20 10 0 6 -9 10 -20 10 -11
0 -20 -4 -20 -10z"/>
<path d="M880 690 c0 -5 -10 -10 -22 -10 -12 0 -19 -3 -15 -6 9 -9 57 5 57 16
0 6 -4 10 -10 10 -5 0 -10 -4 -10 -10z"/>
<path d="M471 683 c0 -7 -7 -10 -15 -7 -19 7 -56 -13 -56 -31 0 -8 4 -14 9
-12 5 1 9 -2 9 -8 1 -5 -5 -9 -12 -7 -7 1 -18 -15 -24 -37 -16 -53 -14 -71 4
-41 15 25 15 24 9 -15 -4 -33 -3 -37 7 -25 7 9 21 14 31 12 9 -2 17 1 17 7 0
6 -7 11 -15 11 -12 0 -14 7 -9 28 12 54 10 53 69 47 63 -6 111 -40 94 -66 -7
-12 -9 -12 -9 0 0 11 -3 12 -11 4 -15 -15 -3 -33 22 -33 11 0 17 5 14 10 -3 6
-1 10 4 10 6 0 11 -4 11 -9 0 -4 11 -6 25 -3 14 2 25 9 25 14 0 6 -12 8 -26 5
-18 -3 -27 0 -31 12 -3 9 -11 30 -19 48 -8 17 -14 35 -14 40 0 5 -7 10 -15 10
-8 0 -12 -4 -9 -9 3 -4 0 -8 -6 -8 -6 0 -8 -4 -5 -10 3 -5 -1 -10 -10 -10 -9
0 -13 5 -9 11 4 8 -5 10 -32 8 -27 -3 -44 1 -56 13 -20 20 -12 31 13 15 22
-13 33 -5 26 20 -3 10 -5 13 -6 6z"/>
<path d="M623 642 c-1 -22 0 -24 9 -8 6 10 6 22 2 26 -5 5 -10 -3 -11 -18z"/>
<path d="M720 639 c0 -5 5 -7 10 -4 6 3 10 8 10 11 0 2 -4 4 -10 4 -5 0 -10
-5 -10 -11z"/>
<path d="M763 643 c9 -2 23 -2 30 0 6 3 -1 5 -18 5 -16 0 -22 -2 -12 -5z"/>
<path d="M980 636 c0 -2 9 -6 20 -9 11 -3 20 -1 20 4 0 5 -9 9 -20 9 -11 0
-20 -2 -20 -4z"/>
<path d="M1033 626 c4 -13 36 -16 43 -5 3 5 9 7 14 4 5 -3 11 -1 15 4 3 6 -11
9 -35 8 -22 -1 -39 -6 -37 -11z"/>
<path d="M1075 600 c-3 -6 1 -7 9 -4 18 7 21 14 7 14 -6 0 -13 -4 -16 -10z"/>
<path d="M475 592 c-13 -9 -17 -64 -4 -57 5 4 9 -7 9 -23 0 -19 5 -29 15 -29
8 0 15 6 15 14 0 7 3 12 8 12 25 -4 37 4 38 27 2 23 1 24 -12 7 -12 -16 -13
-15 -14 15 0 17 -4 32 -8 32 -4 0 -6 -17 -4 -37 2 -29 1 -34 -7 -23 -9 12 -11
10 -12 -10 -1 -14 -5 -2 -8 27 -4 32 -10 50 -16 45z"/>
<path d="M784 575 c-12 -9 -14 -14 -6 -15 7 0 20 7 28 15 20 19 4 20 -22 0z"/>
<path d="M1085 577 c-11 -7 -23 -17 -28 -24 -4 -7 -15 -10 -25 -7 -15 5 -15 5
1 -6 14 -9 23 -7 47 10 17 12 30 26 30 31 0 11 0 11 -25 -4z"/>
<path d="M700 550 c-13 -9 -13 -10 0 -9 8 0 24 4 35 9 20 9 20 9 0 9 -11 0
-27 -4 -35 -9z"/>
<path d="M1124 526 c11 -9 24 -16 30 -16 12 0 7 5 -24 19 -24 11 -24 11 -6 -3z"/>
<path d="M1218 523 c7 -3 16 -2 19 1 4 3 -2 6 -13 5 -11 0 -14 -3 -6 -6z"/>
<path d="M1305 520 c-3 -6 1 -7 9 -4 18 7 21 14 7 14 -6 0 -13 -4 -16 -10z"/>
<path d="M954 505 c-3 -8 -4 -20 -2 -27 3 -7 7 -1 10 15 6 29 1 36 -8 12z"/>
<path d="M988 513 c7 -3 16 -2 19 1 4 3 -2 6 -13 5 -11 0 -14 -3 -6 -6z"/>
<path d="M331 490 c-1 -17 17 -40 31 -40 4 0 8 5 8 10 0 6 -6 10 -14 10 -8 0
-17 8 -19 18 -4 13 -5 13 -6 2z"/>
<path d="M488 433 c7 -3 16 -2 19 1 4 3 -2 6 -13 5 -11 0 -14 -3 -6 -6z"/>
</g>
</svg>
