<?xml version="1.0" standalone="no"?>
<!DOCTYPE svg PUBLIC "-//W3C//DTD SVG 20010904//EN"
 "http://www.w3.org/TR/2001/REC-SVG-20010904/DTD/svg10.dtd">
<svg version="1.0" xmlns="http://www.w3.org/2000/svg"
 width="300.000000pt" height="200.000000pt" viewBox="0 0 300.000000 200.000000"
 preserveAspectRatio="xMidYMid meet">
<metadata>
Created by potrace 1.10, written by Peter Selinger 2001-2011
</metadata>
<g transform="translate(0.000000,200.000000) scale(0.100000,-0.100000)"
fill="#000000" stroke="none">
<path d="M48 1993 c7 -3 16 -2 19 1 4 3 -2 6 -13 5 -11 0 -14 -3 -6 -6z"/>
<path d="M88 1993 c7 -3 16 -2 19 1 4 3 -2 6 -13 5 -11 0 -14 -3 -6 -6z"/>
<path d="M438 1993 c7 -3 16 -2 19 1 4 3 -2 6 -13 5 -11 0 -14 -3 -6 -6z"/>
<path d="M1243 1993 c20 -2 54 -2 75 0 20 2 3 4 -38 4 -41 0 -58 -2 -37 -4z"/>
<path d="M1373 1993 c9 -2 23 -2 30 0 6 3 -1 5 -18 5 -16 0 -22 -2 -12 -5z"/>
<path d="M1447 1993 c18 -2 50 -2 70 0 21 2 7 4 -32 4 -38 0 -55 -2 -38 -4z"/>
<path d="M1653 1993 c42 -2 112 -2 155 0 42 1 7 3 -78 3 -85 0 -120 -2 -77 -3z"/>
<path d="M1913 1993 c15 -2 37 -2 50 0 12 2 0 4 -28 4 -27 0 -38 -2 -22 -4z"/>
<path d="M2003 1993 c9 -2 23 -2 30 0 6 3 -1 5 -18 5 -16 0 -22 -2 -12 -5z"/>
<path d="M2051 1996 c2 -3 146 -6 319 -7 173 -1 331 -5 350 -9 19 -4 41 -5 48
-3 47 17 -33 22 -355 23 -202 0 -365 -1 -362 -4z"/>
<path d="M2801 1989 c8 -5 7 -8 -2 -12 -8 -4 0 -3 16 1 35 8 74 7 131 -3 23
-4 44 -3 47 2 7 11 -3 12 -116 16 -48 2 -82 0 -76 -4z"/>
<path d="M1307 1852 c-25 -28 -36 -66 -30 -110 3 -22 1 -55 -6 -72 -8 -24 -8
-31 2 -27 6 2 15 23 18 48 5 42 6 43 16 19 l12 -25 0 24 c1 16 5 21 15 18 11
-4 13 1 10 20 -7 35 5 66 22 59 10 -4 11 -1 5 12 -5 9 -12 25 -15 35 -7 22
-28 22 -49 -1z m43 4 c0 -3 -8 -12 -17 -21 -9 -10 -17 -31 -17 -48 -1 -17 -7
-32 -15 -35 -10 -3 -11 2 -6 18 4 12 8 29 9 37 3 22 46 67 46 49z"/>
<path d="M1376 1855 c-3 -8 3 -20 13 -27 18 -13 36 -49 23 -47 -22 4 -32 -2
-25 -13 13 -21 12 -72 -1 -83 -6 -5 -24 -26 -39 -47 -27 -35 -29 -36 -55 -22
-37 19 -40 0 -11 -58 18 -35 22 -58 20 -124 -1 -68 2 -86 19 -105 12 -16 19
-19 20 -10 0 8 -8 23 -17 34 -10 11 -13 17 -6 14 13 -8 18 5 27 68 l6 40 -15
-34 c-8 -19 -18 -31 -21 -28 -3 3 -2 14 3 24 11 24 9 51 -6 87 -12 29 -10 32
63 104 42 41 73 79 70 84 -3 5 -7 28 -9 51 -5 69 -44 130 -59 92z m-81 -255
c3 -5 1 -10 -4 -10 -6 0 -11 5 -11 10 0 6 2 10 4 10 3 0 8 -4 11 -10z"/>
<path d="M1636 1788 c-28 -68 -30 -98 -7 -114 12 -9 21 -20 21 -25 0 -6 20
-35 45 -63 46 -54 55 -72 32 -63 -10 4 -13 -6 -12 -37 1 -22 -5 -53 -11 -67
-7 -14 -11 -37 -8 -50 5 -22 4 -22 -6 -6 -7 11 -9 32 -6 48 3 17 1 29 -4 29
-17 0 -32 -52 -25 -87 5 -29 3 -33 -15 -33 -12 0 -32 12 -47 26 -14 14 -27 23
-29 21 -3 -2 11 -18 31 -36 23 -20 43 -29 58 -27 12 3 25 5 29 5 3 1 0 15 -9
31 -8 17 -12 36 -10 43 4 7 6 6 6 -4 1 -9 7 -22 15 -28 23 -19 46 25 45 86 -1
39 5 63 23 95 23 39 25 54 26 153 0 60 -2 113 -5 117 -2 5 -13 4 -23 -2 -13
-7 -21 -7 -25 0 -5 8 -11 8 -19 1 -7 -6 -15 -8 -18 -5 -3 3 -15 -7 -27 -22
-11 -15 -21 -22 -21 -17 0 5 5 14 12 21 7 7 8 12 3 12 -6 1 1 7 15 15 l25 14
-23 1 c-17 0 -27 -9 -36 -32z m78 -33 c4 -14 4 -30 1 -35 -4 -6 -1 -10 4 -10
6 0 11 -11 11 -25 0 -30 -37 -55 -52 -34 -24 37 -28 48 -18 54 6 4 8 11 4 16
-7 11 22 59 35 59 5 0 12 -11 15 -25z m43 -12 c1 -19 -1 -22 -8 -12 -7 12 -9
12 -9 0 0 -8 -2 -12 -5 -10 -6 7 6 49 14 49 3 0 7 -12 8 -27z m0 -87 c-4 -22
-1 -36 6 -39 8 -2 7 -8 -3 -18 -20 -20 -39 -18 -55 5 -16 22 -11 38 9 30 9 -3
18 6 24 25 15 42 26 39 19 -3z m-16 -103 c13 -16 12 -17 -3 -4 -10 7 -18 15
-18 17 0 8 8 3 21 -13z"/>
<path d="M1452 1670 c-20 -12 -30 -25 -26 -32 5 -8 10 -7 18 4 6 8 14 16 19
16 4 1 8 2 10 3 17 6 45 3 40 -4 -3 -5 14 -7 38 -5 31 2 43 -1 42 -9 -2 -7 0
-12 5 -12 18 3 32 -2 32 -12 0 -6 -9 -9 -20 -6 -11 3 -18 1 -14 -4 7 -11 1
-11 -30 1 -17 6 -26 6 -26 0 0 -5 12 -12 28 -15 52 -12 57 -13 75 -20 10 -4
17 -3 17 4 0 6 -6 11 -14 11 -9 0 -12 7 -9 19 3 12 -5 28 -24 45 -24 23 -35
27 -76 24 -26 -2 -48 0 -50 4 -1 5 -17 -1 -35 -12z m105 -6 c-3 -3 -12 -4 -19
-1 -8 3 -5 6 6 6 11 1 17 -2 13 -5z"/>
<path d="M1313 1663 c-3 -10 -9 -22 -11 -28 -3 -5 2 -4 11 4 9 7 15 17 12 21
-3 5 1 11 7 13 10 4 10 6 0 6 -7 1 -15 -7 -19 -16z"/>
<path d="M1483 1636 c5 -11 -3 -14 -36 -13 -26 1 -42 -2 -42 -10 0 -6 -3 -14
-7 -18 -4 -4 -5 -12 -2 -19 3 -7 -8 -17 -23 -24 -20 -8 -21 -10 -5 -6 13 3 29
0 37 -6 12 -10 15 -9 16 6 1 11 1 22 0 27 -3 18 31 5 39 -15 6 -16 9 -18 9 -7
1 25 -25 42 -51 34 -16 -5 -20 -4 -13 3 16 16 71 18 89 3 14 -12 16 -12 10 3
-3 9 -2 16 4 16 5 0 13 7 16 16 5 14 4 15 -9 4 -14 -11 -19 -7 -16 13 0 4 -4
7 -10 7 -6 0 -9 -6 -6 -14z"/>
<path d="M1520 1590 c0 -6 7 -10 15 -10 8 0 15 2 15 4 0 2 -7 6 -15 10 -8 3
-15 1 -15 -4z"/>
<path d="M1555 1570 c-3 -5 1 -10 9 -10 9 0 16 5 16 10 0 6 -4 10 -9 10 -6 0
-13 -4 -16 -10z"/>
<path d="M1435 1551 c-3 -5 -1 -12 5 -16 5 -3 10 1 10 9 0 18 -6 21 -15 7z"/>
<path d="M1611 1543 c-9 -16 -12 -16 -22 -3 -9 13 -10 13 -6 0 4 -18 29 -24
63 -16 23 6 25 26 3 26 -6 0 -8 -4 -5 -8 3 -5 -1 -9 -8 -9 -8 0 -12 6 -9 14 7
19 -4 16 -16 -4z"/>
<path d="M1321 1524 c0 -11 3 -14 6 -6 3 7 2 16 -1 19 -3 4 -6 -2 -5 -13z"/>
<path d="M1511 1533 c-38 -15 -161 -174 -161 -209 0 -16 28 19 44 54 10 21 23
39 29 40 41 4 53 9 59 25 5 11 18 17 41 17 34 0 64 -20 50 -33 -3 -4 2 -8 13
-8 10 -1 29 -3 42 -4 12 -1 22 1 22 4 0 11 -108 121 -117 120 -4 0 -14 -3 -22
-6z m78 -69 c17 -14 31 -31 31 -37 -1 -7 -8 -3 -18 9 -22 26 -71 43 -97 34
-11 -4 -23 -6 -27 -3 -5 2 -8 -3 -8 -11 0 -9 -2 -16 -4 -16 -2 0 -13 -3 -23
-7 -13 -4 -9 3 11 25 39 42 90 44 135 6z"/>
<path d="M1355 1519 c-11 -17 3 -23 20 -9 20 16 41 -1 31 -25 -4 -11 -12 -14
-27 -10 -15 5 -19 4 -15 -4 10 -16 28 -13 54 8 21 19 31 38 13 27 -5 -3 -14 1
-21 9 -14 17 -46 20 -55 4z"/>
<path d="M1455 1520 c-3 -6 1 -7 9 -4 18 7 21 14 7 14 -6 0 -13 -4 -16 -10z"/>
<path d="M1647 1509 c-9 -6 -27 -7 -40 -4 -21 6 -20 6 3 -11 14 -10 30 -24 36
-32 7 -10 18 -12 33 -7 17 5 21 13 19 33 -3 29 -23 37 -51 21z m39 -20 c11
-18 -13 -34 -31 -19 -8 7 -15 16 -15 21 0 13 38 11 46 -2z"/>
<path d="M1655 1480 c4 -6 11 -8 16 -5 14 9 11 15 -7 15 -8 0 -12 -5 -9 -10z"/>
<path d="M1380 1490 c0 -5 5 -10 10 -10 6 0 10 5 10 10 0 6 -4 10 -10 10 -5 0
-10 -4 -10 -10z"/>
<path d="M1500 1440 c0 -20 2 -25 11 -22 10 2 12 -38 3 -62 -3 -9 -12 -16 -18
-16 -7 0 -23 -11 -36 -25 -24 -25 -73 -34 -85 -15 -12 20 -26 10 -15 -10 6
-11 16 -20 22 -20 6 0 17 -8 24 -17 12 -15 13 -15 8 -2 -3 11 2 18 16 22 17 4
20 2 15 -16 -3 -12 5 -2 17 23 31 60 65 66 108 19 16 -18 27 -35 24 -38 -3 -3
-9 1 -14 9 -8 12 -10 10 -10 -9 0 -17 4 -21 15 -17 8 3 22 9 32 13 11 4 14 3
9 -6 -6 -9 -3 -9 13 1 11 7 23 19 26 28 5 12 4 13 -6 3 -21 -20 -36 -15 -70
22 -18 19 -39 35 -46 35 -20 0 -13 62 7 68 13 5 13 3 1 -11 -12 -15 -11 -17 8
-17 25 0 27 12 6 30 -8 7 -15 20 -16 29 -1 9 -4 5 -9 -9 l-8 -25 -7 23 c-7 22
-25 31 -25 12z"/>
<path d="M1374 1422 c-6 -4 -14 -18 -17 -32 l-6 -25 20 24 c25 30 27 49 3 33z"/>
<path d="M1473 1399 c-6 -6 -9 -17 -7 -24 7 -17 -13 -29 -22 -14 -5 8 -3 9 6
4 9 -5 11 -4 6 3 -5 9 -12 8 -26 -1 -18 -11 -19 -12 -2 -18 18 -7 18 -7 -28
-22 -10 -4 -7 -6 7 -6 12 -1 25 4 28 9 4 6 10 8 14 5 5 -2 20 9 34 25 20 22
23 31 13 39 -9 7 -16 7 -23 0z"/>
<path d="M1419 1383 c-13 -17 -13 -17 6 -3 11 8 22 16 24 17 2 2 0 3 -6 3 -6
0 -17 -8 -24 -17z"/>
<path d="M1591 1397 c2 -1 15 -11 28 -22 l24 -20 -12 23 c-6 12 -19 22 -28 22
-9 0 -14 -1 -12 -3z"/>
<path d="M1600 1361 c0 -11 29 -35 35 -29 2 2 -4 12 -15 21 -11 9 -20 13 -20
8z"/>
<path d="M1730 1336 c0 -6 -20 -33 -45 -60 -25 -27 -45 -55 -45 -61 0 -15 -21
-35 -37 -35 -7 0 -13 7 -13 15 0 8 5 15 11 15 5 0 7 5 4 10 -4 7 -11 7 -18 2
-7 -5 -29 -7 -49 -5 -38 5 -49 17 -25 26 7 3 7 6 1 6 -6 1 -19 -8 -29 -19 -18
-20 -17 -20 20 -20 30 0 45 -7 77 -40 22 -22 48 -40 58 -40 38 0 50 -10 37
-31 -6 -10 -17 -19 -24 -19 -16 0 -16 -12 0 -29 10 -11 10 -13 0 -7 -8 4 -13
1 -13 -7 0 -17 41 -31 50 -17 3 5 17 13 30 19 19 7 20 10 7 10 -10 1 -16 5
-13 10 3 5 -1 12 -9 15 -13 4 -14 2 -5 -14 9 -16 8 -20 -5 -20 -8 0 -15 8 -15
19 0 21 23 44 34 34 4 -4 4 0 1 9 -4 10 1 24 13 36 18 18 21 18 26 5 4 -9 9
-14 12 -11 9 10 -19 58 -33 58 -9 0 -13 8 -12 23 2 12 0 27 -4 33 -4 7 -2 26
4 44 15 41 27 23 22 -31 -2 -21 0 -39 4 -39 5 0 8 12 7 28 0 15 2 36 5 47 4
17 6 15 11 -10 3 -16 3 -32 -2 -35 -4 -3 -3 -12 3 -20 7 -12 10 -11 15 8 6 19
26 33 22 15 0 -5 2 -15 5 -23 3 -8 13 -40 20 -70 8 -30 18 -62 22 -72 4 -11 1
-16 -11 -15 -9 1 -19 -4 -21 -10 -3 -7 2 -13 10 -13 8 0 18 -7 21 -16 8 -21 8
-26 -2 -20 -5 3 -6 -8 -4 -25 4 -28 3 -29 -22 -19 -17 6 -26 6 -26 0 0 -9 14
-14 32 -11 9 1 3 -21 -23 -87 -12 -31 -11 -35 6 -28 17 6 21 -9 5 -19 -5 -3
-10 -13 -10 -21 0 -9 -6 -22 -14 -29 -7 -8 -16 -31 -19 -53 -4 -21 -17 -47
-29 -58 -21 -19 -21 -19 -14 1 13 33 15 56 6 50 -5 -3 -11 -1 -15 5 -6 9 7 14
28 11 4 0 7 4 7 10 0 6 -7 8 -17 5 -10 -4 -14 -4 -10 0 4 4 2 13 -4 21 -9 10
-8 13 2 13 8 0 5 5 -6 14 -17 12 -21 12 -32 -3 -25 -32 -14 13 12 52 14 20 21
37 16 37 -5 0 -12 -6 -14 -12 -3 -8 -6 -6 -6 5 -1 21 -17 23 -25 2 -3 -8 0
-14 6 -12 6 1 13 -4 16 -12 3 -9 0 -11 -7 -7 -6 4 -10 3 -9 -3 2 -5 -12 -26
-30 -45 -29 -31 -31 -37 -17 -42 13 -5 14 -8 3 -15 -11 -7 -10 -10 1 -21 9 -8
11 -9 7 -1 -3 6 -2 14 4 18 6 3 13 0 16 -9 3 -8 12 -17 19 -20 9 -3 12 0 8 10
-5 14 -3 14 15 3 19 -12 20 -16 8 -33 -7 -11 -19 -22 -27 -25 -12 -4 -12 -2 0
12 12 15 11 17 -10 18 -13 1 -30 1 -37 0 -7 -1 -15 5 -18 14 -4 9 -12 14 -19
12 -9 -4 -9 8 -2 51 5 31 14 60 19 66 37 45 88 122 88 135 0 14 1 14 10 1 8
-12 10 -12 10 -1 0 14 28 40 44 41 5 0 3 -6 -3 -13 -8 -10 -7 -14 4 -14 8 0
15 7 15 14 0 10 7 12 23 8 18 -5 17 -3 -7 13 -27 19 -30 19 -62 4 -19 -10 -36
-25 -40 -35 -5 -15 -7 -15 -20 -2 -20 20 -55 20 -48 0 4 -10 0 -15 -11 -15
-12 0 -15 -5 -10 -20 3 -11 2 -20 -4 -20 -13 0 -25 -38 -24 -78 1 -18 -2 -30
-6 -28 -4 3 -13 0 -21 -6 -13 -8 -13 -9 1 -5 8 3 21 -3 27 -14 10 -15 9 -19
-2 -19 -8 0 -17 -7 -20 -16 -5 -12 -2 -15 11 -10 14 6 15 5 6 -5 -10 -10 -16
-9 -29 2 -12 9 -15 10 -10 2 4 -7 2 -13 -3 -13 -6 0 -12 7 -12 15 -3 29 -4 33
-13 42 -5 5 -6 3 -2 -4 4 -7 3 -13 -2 -13 -6 0 -13 11 -16 25 -4 14 -11 23
-16 20 -7 -4 -6 -14 1 -27 12 -22 4 -68 -12 -68 -6 0 -17 -7 -25 -15 -9 -8
-29 -16 -45 -16 -16 -1 -42 -2 -58 -3 -16 0 -27 2 -25 6 2 4 0 9 -6 13 -6 4
-10 -4 -10 -18 0 -21 4 -24 23 -21 22 4 22 4 -1 -8 -20 -10 -23 -17 -18 -47 6
-38 22 -53 48 -47 9 2 19 -3 22 -11 7 -16 26 -8 25 10 0 7 -3 6 -6 -2 -4 -10
-10 -5 -19 15 -9 21 -13 24 -13 10 -1 -15 -4 -16 -16 -6 -8 7 -15 18 -15 25 0
17 40 7 47 -12 3 -8 13 -11 23 -8 15 5 17 2 13 -15 -4 -16 -1 -20 17 -20 17 0
20 4 15 19 -3 11 -2 28 3 38 5 10 16 38 23 63 14 43 16 45 49 42 53 -5 88 -24
101 -54 13 -31 19 -34 38 -15 10 10 11 9 6 -5 -5 -13 -2 -15 15 -11 12 3 24
12 27 20 5 12 7 12 14 1 9 -14 2 -49 -11 -58 -10 -6 -1 -62 9 -56 3 2 6 -13 5
-35 0 -32 2 -37 14 -27 9 8 10 14 3 16 -6 2 -11 8 -11 13 0 6 5 7 10 4 6 -4
10 10 10 34 0 26 -5 41 -12 41 -10 0 -10 2 -1 8 7 4 14 18 16 30 2 12 7 25 12
29 4 5 4 2 0 -6 -6 -11 -4 -13 10 -8 9 4 23 3 30 -3 9 -8 15 -8 20 0 3 5 1 10
-5 10 -6 0 -8 5 -4 11 4 8 9 7 15 -2 9 -15 -9 -42 -22 -33 -5 3 -9 0 -9 -7 0
-9 -3 -9 -14 0 -9 7 -17 8 -20 2 -3 -5 -2 -11 4 -13 6 -2 7 -22 1 -56 -4 -29
-4 -55 1 -58 4 -3 6 -9 3 -14 -3 -5 0 -12 6 -16 7 -4 9 -3 5 4 -3 5 0 13 6 16
10 5 10 7 1 12 -8 4 -9 13 -2 33 6 16 9 32 7 37 -2 6 10 22 25 38 19 19 26 34
21 48 -7 24 -6 209 2 258 3 19 9 44 14 55 22 52 19 112 -10 201 -16 49 -36 93
-44 100 -9 6 -16 15 -16 20 0 5 -13 21 -30 36 -16 14 -30 21 -30 14z m-15
-146 c9 -40 -3 -56 -22 -33 -8 10 -12 12 -8 6 7 -15 -13 -17 -33 -4 -12 7 -12
12 0 32 31 55 51 55 63 -1z m-59 -277 c-21 -19 -39 -42 -40 -51 -2 -9 -9 -18
-16 -20 -7 -3 -10 0 -6 7 4 6 9 21 11 32 3 12 14 28 25 36 11 8 18 18 15 23
-8 14 28 31 40 19 7 -7 -3 -22 -29 -46z m16 -158 c-3 -6 0 -5 9 1 8 6 22 8 32
5 18 -7 18 -8 1 -21 -16 -13 -17 -13 -9 0 8 13 7 13 -9 1 -15 -12 -19 -12 -33
2 -10 9 -13 22 -9 33 6 15 9 16 16 4 5 -8 6 -19 2 -25z m149 -22 c-12 -20 -14
-14 -5 12 4 9 9 14 11 11 3 -2 0 -13 -6 -23z m-4 -48 c-7 -17 -37 -21 -37 -4
0 5 5 7 10 4 6 -3 13 1 16 10 4 9 9 14 11 11 3 -3 3 -12 0 -21z m-383 -10 c-4
-8 -11 -15 -17 -15 -6 0 -2 -7 9 -16 10 -8 14 -13 8 -10 -7 3 -17 -1 -24 -9
-10 -12 -16 -13 -26 -4 -8 6 -12 14 -10 18 3 4 -7 6 -21 5 -13 0 -29 -7 -34
-15 -5 -8 -9 -9 -9 -3 0 15 25 36 33 27 4 -3 7 1 7 10 0 30 29 18 39 -15 5
-19 10 -25 10 -14 1 11 8 28 18 38 20 22 24 23 17 3z"/>
<path d="M1665 1180 c-3 -6 1 -7 9 -4 18 7 21 14 7 14 -6 0 -13 -4 -16 -10z"/>
<path d="M1310 1303 c0 -7 4 -13 8 -13 5 0 7 -14 4 -30 -2 -17 1 -36 7 -44 9
-11 9 -16 0 -22 -7 -4 -9 -3 -5 4 3 6 2 13 -4 17 -15 9 -12 -21 3 -34 8 -6 16
-10 18 -8 2 1 -3 -4 -11 -12 -13 -12 -13 -13 2 -8 9 3 27 -3 41 -13 23 -19 24
-19 22 3 -1 16 -7 21 -21 19 -15 -2 -20 4 -22 28 -1 16 3 30 8 30 6 0 9 -4 6
-9 -7 -10 59 -63 67 -54 4 3 12 -7 19 -23 13 -31 46 -63 65 -64 16 0 -2 54
-32 95 -12 17 -25 38 -28 48 -7 18 -37 24 -37 7 0 -5 7 -10 15 -10 8 0 15 -7
15 -15 0 -18 -1 -18 -33 -6 -14 6 -28 19 -32 31 -8 26 -75 99 -75 83z m183
-197 c4 -10 1 -13 -8 -9 -8 3 -12 9 -9 14 7 12 11 11 17 -5z"/>
<path d="M1542 1284 c0 -11 -1 -25 -3 -33 -2 -7 1 -15 8 -18 7 -2 10 7 9 26
-2 33 -16 56 -14 25z"/>
<path d="M1477 1274 c-4 -4 -7 -14 -7 -23 0 -11 3 -12 11 -4 6 6 10 16 7 23
-2 6 -7 8 -11 4z"/>
<path d="M1277 1216 c-9 -27 -17 -71 -17 -97 0 -41 3 -47 17 -42 11 4 14 3 9
-5 -4 -7 -13 -12 -21 -12 -7 0 -16 -15 -20 -32 -4 -18 -9 -42 -11 -53 -4 -16
-1 -14 10 5 9 14 15 34 16 45 0 11 9 26 21 33 19 12 20 15 5 37 -19 28 -20 39
-5 29 8 -4 8 -1 1 12 -7 13 -6 32 5 62 8 24 12 49 10 55 -2 6 -11 -10 -20 -37z"/>
<path d="M1765 1200 c3 -5 8 -10 11 -10 2 0 4 5 4 10 0 6 -5 10 -11 10 -5 0
-7 -4 -4 -10z"/>
<path d="M1301 1164 c0 -11 3 -14 6 -6 3 7 2 16 -1 19 -3 4 -6 -2 -5 -13z"/>
<path d="M1776 1162 c-2 -4 -1 -14 4 -22 7 -11 9 -9 7 8 -1 24 -3 26 -11 14z"/>
<path d="M1300 1129 c0 -5 5 -7 11 -3 7 4 9 0 5 -13 -4 -12 -1 -25 9 -33 8 -7
15 -9 15 -5 0 4 7 2 15 -5 8 -7 13 -16 10 -20 -3 -5 0 -12 6 -16 8 -4 9 -3 5
4 -4 7 -2 12 3 12 16 0 13 29 -4 46 -18 18 -19 11 -4 -19 10 -21 10 -21 -5 -3
-9 11 -16 24 -16 29 0 4 -5 5 -12 1 -8 -5 -9 0 -6 14 5 17 2 22 -13 22 -10 0
-19 -5 -19 -11z"/>
<path d="M1413 1116 c5 -14 34 -16 34 -2 0 6 -9 12 -19 12 -10 0 -17 -5 -15
-10z"/>
<path d="M1800 1118 c0 -10 -4 -18 -9 -18 -5 0 -17 -12 -27 -27 -14 -22 -14
-25 -2 -15 11 9 18 10 23 2 3 -5 12 -10 18 -9 9 0 9 2 0 6 -10 3 -9 10 2 26 9
15 11 27 5 37 -8 13 -10 12 -10 -2z"/>
<path d="M1403 1058 c-20 -25 -20 -55 -2 -79 10 -13 19 -19 19 -12 0 6 -5 15
-10 18 -7 4 -7 12 -2 18 8 12 15 67 8 67 -2 0 -8 -6 -13 -12z"/>
<path d="M1470 1060 l-25 -6 22 -12 c28 -15 30 -15 36 3 8 19 -2 23 -33 15z"/>
<path d="M1433 1026 c22 -17 22 -43 -2 -82 -15 -24 -17 -35 -8 -44 9 -10 9
-11 0 -6 -7 4 -13 2 -13 -4 0 -6 -4 -8 -10 -5 -6 3 -7 -1 -4 -9 4 -12 0 -16
-17 -17 -20 -1 -21 -2 -5 -6 12 -3 25 2 33 13 12 16 14 15 24 -14 12 -36 23
-39 47 -16 15 15 14 16 -7 9 -16 -5 -21 -4 -17 4 4 6 2 11 -3 11 -14 0 -14 47
0 56 8 4 9 -1 5 -17 -6 -20 -5 -21 4 -7 8 13 8 24 0 37 -5 11 -7 22 -2 25 4 2
9 19 10 37 3 33 -10 49 -38 49 -12 -1 -12 -3 3 -14z"/>
<path d="M1285 1014 c-16 -16 -16 -18 9 -31 28 -15 36 -29 10 -19 -8 3 -12 2
-9 -4 3 -6 14 -10 23 -10 12 0 13 -3 5 -8 -13 -8 -6 -52 8 -52 5 0 6 6 4 13
-3 6 -1 18 4 26 7 11 13 10 34 -3 21 -14 25 -15 30 -2 4 9 -4 16 -24 20 -17 3
-29 12 -29 21 0 9 -4 14 -8 11 -4 -2 -8 4 -9 13 -1 10 4 18 10 17 7 0 12 3 12
9 0 17 -52 17 -70 -1z"/>
<path d="M1517 959 c-5 -18 -9 -20 -20 -11 -25 21 -26 1 -1 -25 14 -15 21 -29
17 -32 -10 -7 -12 -52 -2 -46 6 4 12 28 25 94 2 8 -1 21 -5 29 -6 11 -9 9 -14
-9z"/>
<path d="M1744 961 c3 -5 -4 -11 -15 -14 -12 -3 -18 -10 -14 -16 3 -6 1 -11
-5 -11 -22 0 -4 -24 23 -31 29 -8 38 5 11 15 -8 3 -12 11 -9 17 4 6 13 8 20 5
8 -3 12 4 11 20 0 13 -7 24 -14 24 -7 0 -11 -4 -8 -9z"/>
<path d="M1265 950 c-3 -5 -1 -10 4 -10 6 0 11 5 11 10 0 6 -2 10 -4 10 -3 0
-8 -4 -11 -10z"/>
<path d="M1239 940 c-7 -20 10 -113 23 -121 5 -3 9 -10 8 -15 -1 -5 4 -10 11
-13 9 -3 10 2 4 15 -5 11 -10 40 -13 67 -2 26 -8 47 -12 47 -5 0 -10 8 -12 18
-3 13 -5 14 -9 2z"/>
<path d="M1285 910 c-3 -5 -1 -10 4 -10 6 0 11 5 11 10 0 6 -2 10 -4 10 -3 0
-8 -4 -11 -10z"/>
<path d="M1786 905 c4 -8 7 -15 9 -15 2 0 5 7 9 15 3 9 0 15 -9 15 -9 0 -12
-6 -9 -15z"/>
<path d="M1330 881 l-25 -24 25 7 c14 4 31 8 38 8 6 1 12 11 12 22 0 16 -2 18
-9 7 -5 -7 -10 -9 -12 -5 -2 5 -15 -2 -29 -15z"/>
<path d="M1539 900 c-7 -25 -4 -47 7 -47 8 0 14 4 14 9 0 5 5 6 11 2 7 -4 10
-2 8 5 -3 7 -8 12 -13 11 -5 -1 -13 4 -17 12 -5 7 -9 11 -10 8z"/>
<path d="M282 859 c2 -7 12 -13 21 -15 23 -3 21 3 -4 17 -17 8 -20 8 -17 -2z"/>
<path d="M1739 841 c-7 -14 -15 -29 -17 -33 -2 -5 6 -8 18 -8 17 0 21 -4 17
-20 -7 -26 9 -26 24 1 8 15 8 24 0 32 -14 14 -14 30 -1 22 16 -10 11 -1 -9 17
-18 15 -20 14 -32 -11z m31 -26 c11 -13 10 -14 -4 -9 -9 3 -16 10 -16 15 0 13
6 11 20 -6z"/>
<path d="M1291 844 c0 -11 3 -14 6 -6 3 7 2 16 -1 19 -3 4 -6 -2 -5 -13z"/>
<path d="M1419 827 c11 -14 11 -20 1 -32 -16 -19 -33 -9 -25 16 5 15 1 19 -15
19 -14 0 -19 -4 -13 -12 4 -7 6 -20 5 -29 -2 -12 7 -15 40 -15 52 1 60 22 20
51 -21 15 -24 15 -13 2z"/>
<path d="M1323 807 l-21 -23 26 -1 c15 -1 21 1 15 4 -9 3 -10 10 -3 24 14 25
10 24 -17 -4z"/>
<path d="M1290 765 c0 -2 11 -16 25 -30 30 -30 68 -35 58 -7 -6 15 -5 15 10 3
21 -17 58 -8 75 19 7 12 8 20 2 20 -5 0 -10 -5 -10 -11 0 -8 -4 -8 -13 0 -10
8 -19 7 -33 -3 -16 -12 -21 -12 -38 0 -19 13 -76 20 -76 9z m56 -32 c-10 -10
-19 5 -10 18 6 11 8 11 12 0 2 -7 1 -15 -2 -18z m69 7 c3 -5 -1 -10 -10 -10
-9 0 -13 5 -10 10 3 6 8 10 10 10 2 0 7 -4 10 -10z"/>
<path d="M300 740 c0 -5 5 -10 11 -10 5 0 7 5 4 10 -3 6 -8 10 -11 10 -2 0 -4
-4 -4 -10z"/>
<path d="M1852 730 c0 -14 2 -19 5 -12 2 6 2 18 0 25 -3 6 -5 1 -5 -13z"/>
<path d="M336 728 c3 -4 16 -5 29 -2 16 4 30 -1 43 -14 19 -19 22 -19 34 -4
10 12 10 14 0 8 -7 -4 -15 -1 -18 8 -4 12 -18 16 -50 14 -24 0 -41 -5 -38 -10z"/>
<path d="M1084 708 c-19 -21 -19 -21 6 -8 33 17 33 17 22 24 -5 3 -18 -4 -28
-16z"/>
<path d="M750 709 c0 -5 5 -7 10 -4 6 3 10 -4 10 -16 0 -17 3 -20 11 -12 7 7
9 19 6 27 -7 18 -37 22 -37 5z"/>
<path d="M1170 690 c0 -5 5 -10 11 -10 5 0 7 5 4 10 -3 6 -8 10 -11 10 -2 0
-4 -4 -4 -10z"/>
<path d="M1850 678 c0 -19 2 -20 10 -8 13 19 13 30 0 30 -5 0 -10 -10 -10 -22z"/>
<path d="M47 670 c3 -11 9 -20 15 -20 5 0 4 9 -2 20 -6 11 -12 20 -14 20 -2 0
-2 -9 1 -20z"/>
<path d="M1230 658 c-18 -44 -20 -72 -7 -80 14 -8 27 -1 27 15 0 7 -4 6 -10
-3 -9 -13 -10 -13 -10 0 0 8 5 33 10 55 11 50 6 56 -10 13z"/>
<path d="M81 664 c0 -11 3 -14 6 -6 3 7 2 16 -1 19 -3 4 -6 -2 -5 -13z"/>
<path d="M255 669 c-4 -6 -5 -12 -2 -15 2 -3 7 2 10 11 7 17 1 20 -8 4z"/>
<path d="M400 665 c-7 -9 -11 -17 -9 -20 3 -2 10 5 17 15 14 24 10 26 -8 5z"/>
<path d="M858 673 c7 -3 16 -2 19 1 4 3 -2 6 -13 5 -11 0 -14 -3 -6 -6z"/>
<path d="M0 650 c0 -6 4 -10 9 -10 6 0 12 -15 14 -32 l4 -33 1 36 c1 25 -3 39
-13 43 -8 3 -15 1 -15 -4z"/>
<path d="M182 641 c9 -13 14 -29 12 -36 -3 -7 1 -15 9 -18 21 -8 9 38 -16 60
-20 18 -20 18 -5 -6z"/>
<path d="M600 651 c0 -5 5 -13 10 -16 6 -3 10 -2 10 4 0 5 -4 13 -10 16 -5 3
-10 2 -10 -4z"/>
<path d="M1165 651 c-3 -5 2 -16 11 -25 8 -9 12 -20 9 -26 -6 -10 8 -14 17 -4
6 5 -20 64 -27 64 -2 0 -6 -4 -10 -9z"/>
<path d="M875 641 c-3 -6 -3 -21 1 -34 3 -14 1 -28 -5 -31 -6 -4 -11 -2 -11 4
0 6 -4 9 -9 6 -5 -4 -12 0 -14 6 -4 9 -6 10 -6 1 -1 -16 37 -42 57 -39 9 2 18
9 20 16 3 7 0 10 -7 6 -6 -4 -11 -1 -11 8 0 8 -3 22 -7 32 -4 12 -3 15 5 10 7
-4 12 -3 12 3 0 14 -18 23 -25 12z"/>
<path d="M925 615 c2 -22 4 -42 5 -45 2 -3 2 -9 1 -13 -3 -14 22 -2 27 13 3 7
0 10 -7 6 -7 -5 -11 1 -12 16 0 13 -4 32 -9 43 -7 15 -8 9 -5 -20z"/>
<path d="M946 642 c-2 -4 -1 -14 5 -22 7 -12 9 -10 9 8 0 23 -5 28 -14 14z"/>
<path d="M81 621 c-6 -10 -7 -21 -4 -25 13 -13 21 -5 19 19 -1 30 -2 30 -15 6z"/>
<path d="M797 620 c3 -11 7 -20 9 -20 2 0 4 9 4 20 0 11 -4 20 -9 20 -5 0 -7
-9 -4 -20z"/>
<path d="M1876 632 c-3 -6 -1 -14 5 -17 15 -10 25 3 12 16 -7 7 -13 7 -17 1z"/>
<path d="M51 607 c16 -31 18 -32 16 -8 -1 11 -7 23 -14 26 -11 4 -11 0 -2 -18z"/>
<path d="M295 611 c-3 -7 -3 -16 0 -19 3 -3 5 0 5 8 0 10 3 10 15 0 11 -9 15
-9 15 -1 0 7 4 9 10 6 5 -3 7 0 5 7 -7 18 -43 17 -50 -1z"/>
<path d="M1130 621 c0 -7 -4 -9 -10 -6 -5 3 -10 2 -10 -4 0 -5 5 -13 10 -16 6
-3 10 0 10 7 0 10 3 9 10 -2 5 -8 11 -12 14 -10 2 3 -2 14 -10 24 -8 11 -14
14 -14 7z"/>
<path d="M110 611 c0 -12 39 -35 46 -28 3 2 -7 12 -21 21 -14 9 -25 12 -25 7z"/>
<path d="M171 604 c0 -11 3 -14 6 -6 3 7 2 16 -1 19 -3 4 -6 -2 -5 -13z"/>
<path d="M253 612 c-8 -5 -9 -13 -3 -22 11 -17 23 -8 18 14 -2 9 -8 12 -15 8z"/>
<path d="M740 611 c0 -5 5 -13 10 -16 6 -3 10 -2 10 4 0 5 -4 13 -10 16 -5 3
-10 2 -10 -4z"/>
<path d="M1017 613 c-23 -22 11 -51 35 -30 7 7 11 11 9 9 -2 -1 -12 5 -21 13
-9 8 -20 12 -23 8z"/>
<path d="M1281 604 c0 -11 3 -14 6 -6 3 7 2 16 -1 19 -3 4 -6 -2 -5 -13z"/>
<path d="M1490 611 c0 -5 7 -11 15 -15 9 -3 15 0 15 9 0 8 -7 15 -15 15 -8 0
-15 -4 -15 -9z"/>
<path d="M2057 609 c7 -7 15 -10 18 -7 3 3 -2 9 -12 12 -14 6 -15 5 -6 -5z"/>
<path d="M2676 599 c-23 -27 -15 -35 9 -9 10 11 16 22 14 25 -3 2 -13 -5 -23
-16z"/>
<path d="M371 599 c-1 -25 26 -31 32 -8 4 16 3 18 -8 9 -10 -8 -14 -7 -18 2
-4 9 -6 8 -6 -3z"/>
<path d="M478 588 c-13 -13 -17 -23 -10 -26 18 -6 27 -3 28 8 1 6 2 16 3 23 1
8 4 7 11 -3 6 -9 10 -10 10 -3 0 23 -19 24 -42 1z"/>
<path d="M531 594 c0 -11 3 -14 6 -6 3 7 2 16 -1 19 -3 4 -6 -2 -5 -13z"/>
<path d="M1093 587 c11 -17 12 -29 5 -43 -9 -18 -8 -18 5 -1 13 15 15 15 20 2
4 -8 13 -12 22 -9 13 5 14 2 6 -20 -7 -17 -7 -27 0 -32 8 -4 8 -9 -1 -14 -6
-4 2 -7 19 -8 17 0 31 4 31 9 0 6 -4 8 -9 4 -16 -9 -32 32 -26 67 3 18 2 28
-2 22 -12 -17 -54 2 -60 26 -3 11 -10 20 -15 20 -6 0 -3 -10 5 -23z"/>
<path d="M1640 595 c-9 -11 -16 -13 -24 -5 -17 17 -27 11 -16 -9 15 -29 12
-44 -6 -37 -12 4 -15 2 -10 -9 3 -8 1 -15 -4 -15 -6 0 -10 5 -10 11 0 5 -5 7
-11 3 -16 -9 3 -25 35 -28 15 -2 29 1 33 7 4 6 1 7 -7 2 -23 -14 -1 48 23 67
12 9 19 19 16 23 -3 3 -12 -2 -19 -10z"/>
<path d="M2766 593 c-6 -14 -5 -15 5 -6 7 7 10 15 7 18 -3 3 -9 -2 -12 -12z"/>
<path d="M416 591 c-4 -7 -5 -15 -2 -18 9 -9 19 4 14 18 -4 11 -6 11 -12 0z"/>
<path d="M717 593 c-4 -3 0 -18 9 -34 10 -21 11 -29 3 -29 -7 0 -10 -3 -6 -6
3 -3 13 -2 22 3 15 9 15 12 3 24 -8 8 -13 19 -11 26 5 13 -11 26 -20 16z"/>
<path d="M1527 579 c-11 -15 -16 -17 -21 -7 -3 7 -3 2 0 -10 5 -22 4 -23 -16
-12 -19 10 -21 9 -18 -6 3 -19 68 -32 68 -13 0 5 -4 7 -10 4 -15 -9 -12 8 5
31 8 11 15 14 15 7 0 -15 26 -17 35 -3 3 6 -1 7 -9 4 -11 -4 -16 0 -16 10 0
22 -16 20 -33 -5z"/>
<path d="M2830 591 c0 -7 -4 -9 -10 -6 -5 3 -10 -1 -10 -9 0 -9 4 -16 9 -16
11 0 24 31 16 38 -3 3 -5 0 -5 -7z"/>
<path d="M2883 585 c-5 -15 -2 -41 13 -101 7 -28 7 -28 -17 -13 -13 9 -27 27
-31 40 -6 18 -6 15 -3 -10 4 -29 3 -32 -10 -21 -10 9 -15 9 -15 1 0 -6 5 -11
11 -11 6 0 9 -6 6 -12 -2 -7 -10 -12 -16 -10 -7 1 -10 -2 -7 -7 9 -15 47 -9
42 6 -4 8 2 12 16 9 12 -1 24 -8 26 -14 2 -8 -3 -10 -15 -6 -14 6 -15 4 -6 -6
14 -15 36 -3 29 16 -3 7 -1 16 5 20 6 4 6 11 -2 21 -7 8 -13 37 -13 64 -1 52
-3 58 -13 34z"/>
<path d="M2923 588 c-13 -6 -23 -15 -23 -20 0 -11 17 -10 25 2 3 6 17 10 31
10 13 0 24 5 24 10 0 13 -29 12 -57 -2z"/>
<path d="M590 561 c0 -36 2 -37 21 -14 12 14 12 16 0 8 -11 -6 -13 -4 -8 8 3
9 2 19 -3 22 -6 4 -10 -7 -10 -24z"/>
<path d="M663 576 c-24 -11 -27 -33 -12 -76 7 -21 8 -18 6 17 -1 23 0 40 3 38
3 -2 13 3 23 10 23 17 9 24 -20 11z"/>
<path d="M800 574 c0 -8 5 -12 10 -9 6 3 10 10 10 16 0 5 -4 9 -10 9 -5 0 -10
-7 -10 -16z"/>
<path d="M970 586 c0 -2 7 -6 15 -10 8 -3 15 -1 15 4 0 6 -7 10 -15 10 -8 0
-15 -2 -15 -4z"/>
<path d="M2620 581 c0 -5 5 -13 10 -16 6 -3 10 -2 10 4 0 5 -4 13 -10 16 -5 3
-10 2 -10 -4z"/>
<path d="M563 574 c-8 -4 -9 -14 -3 -35 5 -17 5 -29 0 -29 -5 0 -7 -7 -4 -15
4 -8 1 -15 -6 -15 -10 0 -10 -3 0 -15 21 -25 25 -17 25 50 0 36 0 65 0 64 0 0
-5 -3 -12 -5z"/>
<path d="M760 570 c0 -5 7 -7 15 -4 8 4 15 8 15 10 0 2 -7 4 -15 4 -8 0 -15
-4 -15 -10z"/>
<path d="M1256 571 c-8 -12 43 -37 52 -25 4 5 5 8 3 6 -2 -1 -15 5 -27 13 -13
8 -25 11 -28 6z"/>
<path d="M2206 566 c3 -8 0 -25 -7 -38 -11 -21 -11 -22 4 -9 18 14 23 61 7 61
-5 0 -7 -6 -4 -14z"/>
<path d="M10 560 c-8 -5 -12 -11 -10 -13 12 -10 90 -24 90 -16 0 5 -6 9 -14 9
-8 0 -16 7 -20 15 -6 17 -24 19 -46 5z"/>
<path d="M1190 562 c0 -4 9 -13 20 -20 11 -7 20 -9 20 -4 0 4 -9 13 -20 20
-11 7 -20 9 -20 4z"/>
<path d="M1636 553 c-6 -14 -5 -15 5 -6 7 7 10 15 7 18 -3 3 -9 -2 -12 -12z"/>
<path d="M1666 539 c-3 -17 -10 -28 -16 -24 -6 3 -7 0 -4 -9 8 -21 51 -21 51
-1 0 9 -6 14 -13 11 -10 -4 -12 3 -7 24 3 17 3 30 1 30 -3 0 -8 -14 -12 -31z"/>
<path d="M1808 540 c-3 -21 -1 -38 6 -42 16 -10 18 5 8 44 l-9 33 -5 -35z"/>
<path d="M1930 555 c-2 -11 -3 -26 -3 -33 1 -8 -5 -11 -14 -8 -11 5 -13 2 -9
-9 3 -9 -1 -27 -10 -40 -11 -16 -12 -25 -4 -30 6 -4 14 -4 17 -1 4 3 1 6 -6 6
-9 0 -9 5 -1 20 6 11 15 18 21 15 14 -9 21 18 16 61 -2 22 -5 30 -7 19z"/>
<path d="M2410 559 c0 -5 5 -7 10 -4 6 3 10 8 10 11 0 2 -4 4 -10 4 -5 0 -10
-5 -10 -11z"/>
<path d="M2535 559 c-10 -15 3 -25 16 -12 7 7 7 13 1 17 -6 3 -14 1 -17 -5z"/>
<path d="M1007 546 c-4 -10 -7 -25 -6 -34 0 -11 4 -9 10 7 5 13 8 29 6 35 -2
5 -6 2 -10 -8z"/>
<path d="M1056 547 c3 -10 9 -15 12 -12 3 3 0 11 -7 18 -10 9 -11 8 -5 -6z"/>
<path d="M355 540 c-3 -5 1 -10 10 -10 9 0 13 5 10 10 -3 6 -8 10 -10 10 -2 0
-7 -4 -10 -10z"/>
<path d="M783 535 c-18 -20 -16 -23 12 -17 14 2 24 9 22 15 -5 17 -21 18 -34
2z"/>
<path d="M2133 506 l1 -49 14 33 c7 18 11 40 9 49 -3 10 -5 7 -7 -9 l-2 -25
-8 25 c-6 19 -8 13 -7 -24z"/>
<path d="M1390 530 c0 -5 5 -10 11 -10 5 0 7 5 4 10 -3 6 -8 10 -11 10 -2 0
-4 -4 -4 -10z"/>
<path d="M1971 532 c-1 -7 -5 -10 -11 -7 -6 3 -10 -4 -10 -17 0 -20 1 -21 16
-6 9 9 14 22 11 30 -4 10 -6 10 -6 0z"/>
<path d="M685 519 c-4 -6 -4 -13 -1 -16 3 -4 6 -1 6 6 0 7 5 9 12 5 7 -4 8 -3
4 4 -9 15 -13 15 -21 1z"/>
<path d="M964 515 c-3 -8 -4 -20 -2 -27 3 -7 7 -1 10 15 6 29 1 36 -8 12z"/>
<path d="M1846 514 c-8 -22 -8 -26 4 -19 6 4 18 1 26 -6 12 -10 13 -9 8 5 -3
9 -10 16 -16 16 -5 0 -6 5 -3 10 3 6 2 10 -3 10 -6 0 -13 -7 -16 -16z"/>
<path d="M2000 515 c-7 -9 -10 -18 -7 -21 3 -3 10 4 17 15 13 25 8 27 -10 6z"/>
<path d="M2043 518 c1 -7 -4 -12 -11 -10 -8 1 -12 -3 -10 -10 3 -7 12 -14 21
-16 12 -3 17 4 17 22 0 14 -4 26 -10 26 -5 0 -9 -6 -7 -12z"/>
<path d="M2072 505 c0 -16 2 -22 5 -12 2 9 2 23 0 30 -3 6 -5 -1 -5 -18z"/>
<path d="M2381 513 c-9 -10 -10 -18 -3 -25 7 -7 12 -3 17 12 9 27 4 32 -14 13z"/>
<path d="M2981 525 c1 -19 18 -51 18 -35 0 8 -4 22 -9 30 -5 8 -9 11 -9 5z"/>
<path d="M150 510 c0 -5 5 -10 11 -10 5 0 7 5 4 10 -3 6 -8 10 -11 10 -2 0 -4
-4 -4 -10z"/>
<path d="M457 506 c-4 -10 -3 -15 3 -11 6 3 10 1 10 -6 0 -7 3 -10 6 -6 3 3 2
13 -4 22 -8 16 -9 16 -15 1z"/>
<path d="M600 504 c0 -8 5 -12 10 -9 6 3 10 10 10 16 0 5 -4 9 -10 9 -5 0 -10
-7 -10 -16z"/>
<path d="M1087 500 c3 -11 9 -20 15 -20 5 0 4 9 -2 20 -6 11 -12 20 -14 20 -2
0 -2 -9 1 -20z"/>
<path d="M2460 508 c0 -9 -5 -18 -12 -20 -6 -2 -8 -10 -4 -16 11 -18 26 -14
20 6 -5 14 -3 14 10 -2 20 -25 20 -17 1 20 -9 18 -15 23 -15 12z"/>
<path d="M50 503 c0 -6 8 -17 18 -24 16 -13 16 -13 2 6 -8 11 -16 22 -17 24
-2 2 -3 0 -3 -6z"/>
<path d="M2097 503 c-3 -5 -2 -15 2 -22 5 -7 11 -9 14 -4 3 5 2 15 -2 22 -5 7
-11 9 -14 4z"/>
<path d="M2239 491 c-26 -29 -28 -46 -8 -72 10 -13 19 -19 19 -12 0 6 -4 14
-9 18 -6 3 -9 14 -8 24 1 13 8 18 24 17 24 -1 30 -11 13 -21 -5 -3 -10 -17
-10 -31 0 -18 5 -24 22 -24 21 0 21 0 2 15 -10 8 -14 15 -9 15 6 0 11 12 10
28 0 20 -5 26 -19 24 -14 -3 -16 1 -11 17 8 25 5 25 -16 2z"/>
<path d="M2290 495 c0 -8 4 -15 10 -15 5 0 7 7 4 15 -4 8 -8 15 -10 15 -2 0
-4 -7 -4 -15z"/>
<path d="M2320 500 c0 -5 5 -10 11 -10 5 0 7 5 4 10 -3 6 -8 10 -11 10 -2 0
-4 -4 -4 -10z"/>
<path d="M101 484 c0 -11 3 -14 6 -6 3 7 2 16 -1 19 -3 4 -6 -2 -5 -13z"/>
<path d="M790 490 c0 -5 5 -10 11 -10 5 0 7 5 4 10 -3 6 -8 10 -11 10 -2 0 -4
-4 -4 -10z"/>
<path d="M1300 485 c0 -8 7 -15 15 -15 9 0 12 6 9 15 -4 8 -10 15 -15 15 -5 0
-9 -7 -9 -15z"/>
<path d="M1451 478 c-1 -31 23 -49 61 -46 13 1 33 -2 46 -6 14 -5 22 -3 22 4
0 6 -5 8 -12 4 -8 -5 -9 -2 -4 12 4 10 4 15 0 11 -5 -4 -14 3 -21 15 l-13 23
5 -25 c6 -27 2 -28 -62 -21 -6 0 -14 13 -16 29 l-4 27 -2 -27z"/>
<path d="M1475 490 c-3 -5 -1 -10 4 -10 6 0 11 5 11 10 0 6 -2 10 -4 10 -3 0
-8 -4 -11 -10z"/>
<path d="M2185 490 c3 -5 10 -10 16 -10 5 0 9 5 9 10 0 6 -7 10 -16 10 -8 0
-12 -4 -9 -10z"/>
<path d="M2354 485 c13 -64 18 -75 31 -75 8 0 15 5 15 11 0 5 -5 7 -12 3 -7
-5 -8 -3 -3 6 4 7 3 15 -1 19 -5 3 -15 17 -22 31 -9 18 -11 19 -8 5z"/>
<path d="M2416 487 c3 -10 9 -15 12 -12 3 3 0 11 -7 18 -10 9 -11 8 -5 -6z"/>
<path d="M2785 490 c-3 -5 -1 -10 4 -10 6 0 11 5 11 10 0 6 -2 10 -4 10 -3 0
-8 -4 -11 -10z"/>
<path d="M2936 475 c-21 -31 -21 -45 0 -19 15 18 15 17 10 -13 -5 -32 -5 -32
14 -13 11 11 25 20 31 20 5 0 7 5 4 10 -4 6 -14 9 -22 8 -9 -2 -18 3 -21 11
-3 8 0 11 7 7 6 -4 11 -2 11 3 0 19 -17 12 -34 -14z"/>
<path d="M151 474 c0 -11 3 -14 6 -6 3 7 2 16 -1 19 -3 4 -6 -2 -5 -13z"/>
<path d="M1041 474 c0 -11 3 -14 6 -6 3 7 2 16 -1 19 -3 4 -6 -2 -5 -13z"/>
<path d="M1380 481 c0 -8 -7 -11 -15 -7 -8 3 -15 1 -15 -4 0 -6 6 -10 14 -10
17 0 31 18 22 27 -3 4 -6 1 -6 -6z"/>
<path d="M1597 484 c-4 -4 -7 -14 -7 -23 0 -14 2 -14 10 -1 8 13 10 13 10 -2
0 -9 -5 -18 -12 -20 -7 -3 -8 -7 -3 -10 19 -12 33 17 21 41 -7 12 -15 18 -19
15z"/>
<path d="M2521 482 c-2 -24 19 -51 34 -46 8 4 15 10 15 15 0 4 -6 6 -13 3 -8
-3 -18 5 -25 18 -6 13 -11 17 -11 10z"/>
<path d="M2581 474 c0 -11 3 -14 6 -6 3 7 2 16 -1 19 -3 4 -6 -2 -5 -13z"/>
<path d="M1060 464 c0 -8 5 -12 10 -9 6 4 8 11 5 16 -9 14 -15 11 -15 -7z"/>
<path d="M1690 470 c0 -5 5 -10 11 -10 5 0 7 5 4 10 -3 6 -8 10 -11 10 -2 0
-4 -4 -4 -10z"/>
<path d="M1971 473 c-1 -7 -13 -13 -28 -14 -28 0 -28 0 -5 -11 26 -13 48 1 39
24 -4 9 -6 10 -6 1z"/>
<path d="M188 463 c7 -3 16 -2 19 1 4 3 -2 6 -13 5 -11 0 -14 -3 -6 -6z"/>
<path d="M280 460 c0 -5 5 -10 10 -10 6 0 10 5 10 10 0 6 -4 10 -10 10 -5 0
-10 -4 -10 -10z"/>
<path d="M355 461 c-25 -5 -27 -8 -12 -14 22 -8 67 1 67 14 0 10 -10 10 -55 0z"/>
<path d="M777 464 c-10 -16 4 -54 20 -54 10 0 11 5 5 18 -5 9 -11 24 -14 32
-3 8 -7 10 -11 4z"/>
<path d="M1850 450 c0 -11 5 -20 12 -20 6 0 8 3 5 7 -4 3 -2 12 4 20 9 10 8
13 -5 13 -9 0 -16 -8 -16 -20z"/>
<path d="M2026 455 c-9 -26 -7 -32 5 -12 6 10 9 21 6 23 -2 3 -7 -2 -11 -11z"/>
<path d="M2152 460 c3 -8 -2 -20 -9 -25 -12 -9 -11 -11 5 -11 14 0 19 6 16 19
-2 11 -6 22 -10 26 -4 3 -5 -1 -2 -9z"/>
<path d="M2624 456 c-3 -9 -10 -13 -15 -10 -5 3 -9 1 -9 -4 0 -5 9 -12 21 -15
15 -4 19 -2 15 8 -3 8 0 15 7 18 8 2 8 5 -1 11 -7 4 -15 1 -18 -8z"/>
<path d="M2749 463 c0 -4 -2 -15 -4 -24 -1 -9 3 -16 11 -16 19 0 24 20 8 35
-8 7 -14 9 -15 5z"/>
<path d="M2791 454 c0 -11 3 -14 6 -6 3 7 2 16 -1 19 -3 4 -6 -2 -5 -13z"/>
<path d="M64 435 c-1 -16 2 -22 12 -18 17 6 18 17 2 31 -10 8 -13 4 -14 -13z"/>
<path d="M505 450 c3 -5 8 -10 11 -10 2 0 4 5 4 10 0 6 -5 10 -11 10 -5 0 -7
-4 -4 -10z"/>
<path d="M695 450 c3 -5 11 -10 16 -10 6 0 7 5 4 10 -3 6 -11 10 -16 10 -6 0
-7 -4 -4 -10z"/>
<path d="M1991 444 c0 -11 3 -14 6 -6 3 7 2 16 -1 19 -3 4 -6 -2 -5 -13z"/>
<path d="M2311 438 c-13 -21 -13 -22 2 -10 9 8 21 10 28 6 7 -4 10 -2 7 6 -7
23 -22 21 -37 -2z"/>
<path d="M2660 455 c0 -5 5 -17 10 -25 5 -8 10 -10 10 -5 0 6 -5 17 -10 25 -5
8 -10 11 -10 5z"/>
<path d="M2691 444 c0 -11 3 -14 6 -6 3 7 2 16 -1 19 -3 4 -6 -2 -5 -13z"/>
<path d="M2717 447 c-3 -8 -2 -20 3 -26 5 -9 8 -4 8 13 0 29 -3 32 -11 13z"/>
<path d="M420 441 c0 -5 5 -13 10 -16 6 -3 10 -2 10 4 0 5 -4 13 -10 16 -5 3
-10 2 -10 -4z"/>
<path d="M827 431 c-3 -13 1 -21 14 -24 15 -4 19 0 19 19 0 29 -25 33 -33 5z"/>
<path d="M1066 435 c-11 -8 -16 -18 -12 -22 3 -4 16 3 29 15 24 25 12 29 -17
7z"/>
<path d="M1220 441 c0 -5 7 -12 16 -15 14 -5 15 -4 4 9 -14 17 -20 19 -20 6z"/>
<path d="M1736 441 c5 -11 3 -13 -9 -8 -27 10 -19 -7 8 -20 29 -13 32 -5 9 23
-8 10 -12 13 -8 5z"/>
<path d="M2093 437 c0 -8 16 -24 34 -37 28 -19 36 -21 46 -10 10 10 9 12 -4 7
-17 -6 -59 25 -59 43 0 6 -4 10 -8 10 -5 0 -9 -6 -9 -13z"/>
<path d="M2422 438 c3 -7 13 -15 24 -17 10 -2 22 -8 25 -13 3 -5 9 -2 13 8 4
10 4 15 0 12 -3 -4 -20 0 -36 8 -24 12 -29 13 -26 2z"/>
<path d="M2502 420 c0 -19 2 -27 5 -17 2 9 2 25 0 35 -3 9 -5 1 -5 -18z"/>
<path d="M310 435 c0 -5 5 -17 10 -25 5 -8 10 -10 10 -5 0 6 -5 17 -10 25 -5
8 -10 11 -10 5z"/>
<path d="M640 429 c0 -5 5 -7 10 -4 6 3 10 8 10 11 0 2 -4 4 -10 4 -5 0 -10
-5 -10 -11z"/>
<path d="M1160 423 c0 -13 5 -23 10 -23 13 0 13 11 0 30 -8 12 -10 11 -10 -7z"/>
<path d="M1415 429 c-11 -16 -1 -19 13 -3 7 8 8 14 3 14 -5 0 -13 -5 -16 -11z"/>
<path d="M475 421 c-3 -5 -1 -12 5 -16 5 -3 10 1 10 9 0 18 -6 21 -15 7z"/>
<path d="M895 419 c-10 -15 3 -25 16 -12 7 7 7 13 1 17 -6 3 -14 1 -17 -5z"/>
<path d="M2187 413 c3 -7 8 -13 12 -13 4 0 8 6 8 13 0 8 -6 14 -13 14 -7 0
-10 -6 -7 -14z"/>
<path d="M390 410 c0 -6 7 -10 15 -10 8 0 15 2 15 4 0 2 -7 6 -15 10 -8 3 -15
1 -15 -4z"/>
<path d="M1275 410 c3 -5 8 -10 11 -10 2 0 4 5 4 10 0 6 -5 10 -11 10 -5 0 -7
-4 -4 -10z"/>
<path d="M1685 410 c3 -5 8 -10 11 -10 2 0 4 5 4 10 0 6 -5 10 -11 10 -5 0 -7
-4 -4 -10z"/>
<path d="M1985 410 c-3 -5 -1 -10 4 -10 6 0 11 5 11 10 0 6 -2 10 -4 10 -3 0
-8 -4 -11 -10z"/>
<path d="M2520 414 c1 -13 29 -48 34 -43 2 2 -4 15 -15 28 -10 13 -19 19 -19
15z"/>
<path d="M2952 405 c-11 -12 -10 -15 3 -15 8 0 15 7 15 15 0 18 -2 18 -18 0z"/>
<path d="M435 400 c-3 -5 1 -10 9 -10 9 0 16 5 16 10 0 6 -4 10 -9 10 -6 0
-13 -4 -16 -10z"/>
<path d="M1240 400 c0 -7 -7 -10 -15 -6 -8 3 -15 2 -15 -3 0 -12 35 -20 49
-11 9 5 8 10 -4 20 -11 10 -15 10 -15 0z"/>
<path d="M1777 396 c-4 -10 -1 -13 9 -9 15 6 19 23 5 23 -5 0 -11 -7 -14 -14z"/>
<path d="M1845 400 c-4 -6 -5 -10 -3 -11 25 -6 38 -6 38 1 0 12 -29 20 -35 10z"/>
<path d="M2065 400 c3 -5 10 -10 16 -10 5 0 9 5 9 10 0 6 -7 10 -16 10 -8 0
-12 -4 -9 -10z"/>
<path d="M2622 398 c6 -18 50 -16 55 2 4 13 3 13 -6 0 -7 -9 -14 -11 -18 -5
-12 15 -35 17 -31 3z"/>
<path d="M2766 385 c18 -28 24 -31 24 -12 0 7 -9 18 -20 25 -20 12 -21 12 -4
-13z"/>
<path d="M2891 398 c-1 -10 -6 -18 -13 -18 -6 0 -9 -2 -7 -5 11 -10 49 8 49
24 0 13 -2 13 -9 2 -7 -11 -9 -11 -14 0 -4 10 -6 9 -6 -3z"/>
<path d="M510 390 c0 -5 5 -10 11 -10 5 0 7 5 4 10 -3 6 -8 10 -11 10 -2 0 -4
-4 -4 -10z"/>
<path d="M1100 390 c0 -5 5 -10 11 -10 5 0 7 5 4 10 -3 6 -8 10 -11 10 -2 0
-4 -4 -4 -10z"/>
<path d="M1345 390 c-3 -5 3 -10 15 -10 12 0 18 5 15 10 -3 6 -10 10 -15 10
-5 0 -12 -4 -15 -10z"/>
<path d="M2452 380 c0 -14 2 -19 5 -12 2 6 2 18 0 25 -3 6 -5 1 -5 -13z"/>
<path d="M980 386 c0 -3 9 -10 20 -16 11 -6 20 -8 20 -6 0 3 -9 10 -20 16 -11
6 -20 8 -20 6z"/>
<path d="M1438 383 c7 -3 16 -2 19 1 4 3 -2 6 -13 5 -11 0 -14 -3 -6 -6z"/>
<path d="M1605 381 c-3 -6 -11 -9 -16 -6 -5 4 -9 1 -9 -4 0 -6 6 -11 14 -11
16 0 31 18 23 26 -3 3 -8 0 -12 -5z"/>
<path d="M1731 383 c0 -5 4 -17 9 -28 8 -18 9 -17 9 8 1 15 -3 27 -9 27 -5 0
-10 -3 -9 -7z"/>
<path d="M2310 378 c0 -4 4 -8 9 -8 6 0 12 4 15 8 3 5 -1 9 -9 9 -8 0 -15 -4
-15 -9z"/>
<path d="M2425 380 c3 -5 8 -10 11 -10 2 0 4 5 4 10 0 6 -5 10 -11 10 -5 0 -7
-4 -4 -10z"/>
<path d="M2570 379 c0 -5 5 -7 10 -4 6 3 10 8 10 11 0 2 -4 4 -10 4 -5 0 -10
-5 -10 -11z"/>
<path d="M2690 385 c0 -1 6 -8 14 -14 10 -8 16 -8 24 1 8 10 4 13 -14 14 -13
1 -24 1 -24 -1z"/>
<path d="M320 371 c0 -6 5 -13 10 -16 6 -3 10 1 10 9 0 9 -4 16 -10 16 -5 0
-10 -4 -10 -9z"/>
<path d="M855 370 c-3 -5 -2 -10 4 -10 5 0 13 5 16 10 3 6 2 10 -4 10 -5 0
-13 -4 -16 -10z"/>
<path d="M1995 367 c-14 -11 -15 -16 -5 -22 9 -5 11 -4 6 3 -4 7 -1 12 8 12 9
0 16 5 16 10 0 13 -3 13 -25 -3z"/>
<path d="M2070 376 c0 -2 7 -7 16 -10 8 -3 12 -2 9 4 -6 10 -25 14 -25 6z"/>
<path d="M2960 369 c0 -5 5 -7 10 -4 6 3 10 8 10 11 0 2 -4 4 -10 4 -5 0 -10
-5 -10 -11z"/>
<path d="M1460 351 c0 -6 4 -13 10 -16 6 -3 7 1 4 9 -7 18 -14 21 -14 7z"/>
<path d="M1680 349 c0 -5 5 -7 10 -4 6 3 10 8 10 11 0 2 -4 4 -10 4 -5 0 -10
-5 -10 -11z"/>
<path d="M2192 325 c0 -16 2 -22 5 -12 2 9 2 23 0 30 -3 6 -5 -1 -5 -18z"/>
<path d="M2730 326 c0 -9 5 -16 10 -16 6 0 10 4 10 9 0 6 -4 13 -10 16 -5 3
-10 -1 -10 -9z"/>
<path d="M1902 323 c-6 -2 -10 -9 -6 -14 8 -14 21 -11 28 6 6 15 1 17 -22 8z"/>
<path d="M2780 314 c0 -17 17 -36 24 -26 3 5 -1 15 -9 22 -8 7 -15 9 -15 4z"/>
<path d="M1570 300 c8 -5 20 -10 25 -10 6 0 3 5 -5 10 -8 5 -19 10 -25 10 -5
0 -3 -5 5 -10z"/>
<path d="M2835 300 c-3 -5 -1 -10 4 -10 6 0 11 5 11 10 0 6 -2 10 -4 10 -3 0
-8 -4 -11 -10z"/>
<path d="M1475 280 c3 -5 8 -10 11 -10 2 0 4 5 4 10 0 6 -5 10 -11 10 -5 0 -7
-4 -4 -10z"/>
<path d="M2870 270 c-12 -7 -12 -12 -3 -21 10 -10 14 -9 19 5 8 22 2 27 -16
16z"/>
<path d="M2940 255 c0 -8 5 -15 10 -15 6 0 10 7 10 15 0 8 -4 15 -10 15 -5 0
-10 -7 -10 -15z"/>
<path d="M2700 250 c0 -5 5 -10 10 -10 6 0 10 5 10 10 0 6 -4 10 -10 10 -5 0
-10 -4 -10 -10z"/>
<path d="M968 197 l-26 -12 26 -13 c29 -13 82 -16 82 -4 -1 15 -28 42 -41 41
-8 0 -26 -6 -41 -12z"/>
<path d="M1308 173 c6 -2 18 -2 25 0 6 3 1 5 -13 5 -14 0 -19 -2 -12 -5z"/>
<path d="M1685 110 c3 -5 8 -10 11 -10 2 0 4 5 4 10 0 6 -5 10 -11 10 -5 0 -7
-4 -4 -10z"/>
</g>
</svg>
