<?xml version="1.0" standalone="no"?>
<!DOCTYPE svg PUBLIC "-//W3C//DTD SVG 20010904//EN"
 "http://www.w3.org/TR/2001/REC-SVG-20010904/DTD/svg10.dtd">
<svg version="1.0" xmlns="http://www.w3.org/2000/svg"
 width="300.000000pt" height="203.000000pt" viewBox="0 0 300.000000 203.000000"
 preserveAspectRatio="xMidYMid meet">
<metadata>
Created by potrace 1.10, written by Peter Selinger 2001-2011
</metadata>
<g transform="translate(0.000000,203.000000) scale(0.100000,-0.100000)"
fill="#000000" stroke="none">
<path d="M1100 1784 c0 -187 3 -245 12 -242 8 3 12 27 10 74 0 38 -1 103 -1
144 -1 187 -5 270 -13 270 -4 0 -8 -111 -8 -246z"/>
<path d="M1967 2006 c-14 -13 -29 -21 -33 -17 -4 3 -3 0 1 -8 6 -11 4 -13 -9
-8 -9 4 -15 3 -11 -3 3 -5 -7 -24 -23 -42 -16 -18 -45 -58 -65 -89 -20 -31
-46 -64 -57 -74 -21 -19 -27 -45 -11 -45 5 0 19 12 30 28 11 15 27 34 34 42 8
8 28 39 44 67 16 29 32 51 35 48 3 -3 11 8 18 25 7 16 16 27 21 24 5 -3 9 -1
9 5 0 5 19 23 42 40 33 24 37 31 21 31 -11 0 -32 -11 -46 -24z"/>
<path d="M1979 1949 c-75 -76 -169 -210 -169 -239 0 -6 -5 -8 -11 -4 -7 4 -10
1 -7 -6 2 -8 10 -16 18 -18 7 -3 10 0 6 6 -3 6 -1 14 5 17 17 11 21 -1 8 -28
-9 -21 -9 -30 0 -41 7 -8 9 -21 5 -27 -5 -9 -2 -10 11 -6 15 6 17 3 11 -24 -3
-17 -6 -38 -6 -45 0 -30 -18 -12 -30 30 -7 25 -21 53 -31 62 -20 18 -26 40 -9
29 15 -9 12 11 -4 24 -16 13 -28 1 -23 -21 2 -7 2 -9 -1 -5 -2 4 -10 3 -17 -3
-15 -12 -24 -3 -30 31 -3 17 0 20 15 16 16 -4 19 0 18 18 -2 19 -6 22 -20 14
-10 -5 -22 -18 -28 -29 -9 -17 -18 -20 -58 -15 -26 3 -59 6 -74 8 -15 1 -30 5
-34 9 -3 4 -16 2 -28 -4 -11 -6 -34 -13 -51 -15 -94 -10 -183 -38 -222 -69
l-28 -23 60 21 c75 26 115 36 185 45 61 8 184 8 215 1 46 -12 85 -33 85 -46 0
-12 3 -12 15 -2 9 8 15 8 15 2 0 -6 6 -12 13 -15 6 -2 4 -3 -5 -2 -10 2 -18 1
-18 -2 0 -9 29 -33 40 -33 6 0 8 -4 5 -10 -3 -5 12 -29 34 -51 22 -23 38 -46
35 -50 -2 -4 5 -10 15 -14 13 -4 18 -12 15 -23 -5 -14 -4 -14 4 -3 9 12 13 12
26 -2 11 -10 12 -17 4 -19 -6 -2 6 -14 27 -26 35 -22 38 -22 51 -5 7 10 14 23
14 30 0 6 5 13 12 15 6 2 8 10 4 16 -5 9 -12 9 -28 1 -14 -7 -17 -14 -10 -21
16 -16 3 -36 -19 -31 -13 4 -19 14 -19 34 0 22 -5 29 -20 29 -10 0 -24 8 -29
18 -6 10 -11 12 -11 4 0 -7 -5 -10 -11 -7 -6 4 -8 13 -5 21 3 8 -1 14 -10 14
-8 0 -12 5 -8 11 3 6 19 9 34 7 18 -3 26 0 24 7 -3 6 -19 10 -37 8 l-32 -4 28
21 c32 25 37 55 8 47 -12 -3 -22 1 -25 9 -7 18 36 36 61 27 15 -5 15 -3 -2 10
-17 13 -22 13 -42 0 -13 -9 -27 -13 -30 -9 -10 9 -13 117 -3 111 4 -3 6 4 3
15 -3 12 1 22 11 26 9 3 16 12 16 20 0 8 5 14 11 14 5 0 7 5 4 10 -4 6 -11 7
-17 4 -7 -4 -8 -2 -4 5 4 6 11 9 16 6 4 -3 16 8 26 23 10 15 24 33 31 40 7 8
18 22 24 33 5 11 14 17 20 14 5 -4 8 -3 7 2 -3 10 42 63 54 63 4 0 8 -6 8 -14
0 -17 27 -29 35 -16 4 6 0 10 -7 10 -8 0 -19 12 -25 28 l-10 27 -84 -86z"/>
<path d="M2080 2019 c0 -5 5 -9 11 -9 5 0 7 -6 4 -12 -4 -7 1 -4 9 6 9 11 16
14 16 7 0 -7 5 -9 11 -6 6 4 8 9 6 12 -9 9 -57 10 -57 2z"/>
<path d="M2150 2019 c0 -5 5 -9 10 -9 6 0 12 0 15 0 14 0 8 13 -7 16 -10 1
-18 -2 -18 -7z"/>
<path d="M2268 2011 c12 -10 22 -24 22 -30 0 -7 4 -10 9 -6 6 3 10 -3 10 -12
0 -10 5 -38 11 -63 7 -25 12 -63 11 -84 -1 -38 -56 -240 -86 -319 -18 -46 -18
-47 -2 -47 8 0 14 6 14 13 1 14 35 123 57 184 27 74 47 207 35 239 -4 11 -13
39 -20 64 -16 54 -37 80 -63 80 -18 0 -18 -1 2 -19z"/>
<path d="M2725 1961 c0 -38 3 -72 7 -76 3 -3 6 28 6 69 -1 42 -4 76 -7 76 -3
0 -6 -31 -6 -69z"/>
<path d="M2196 1991 c-18 -20 -31 -21 -54 -7 -7 4 -16 5 -19 2 -4 -3 -1 -6 6
-6 7 0 9 -5 5 -12 -4 -7 -3 -8 4 -4 7 4 12 1 12 -8 0 -13 4 -14 27 -3 33 14
64 43 56 51 -10 10 -19 7 -37 -13z"/>
<path d="M2220 1955 c-9 -10 -9 -15 -1 -15 18 0 13 -29 -9 -52 -11 -12 -20
-26 -20 -31 0 -11 30 11 48 36 7 9 17 15 22 12 5 -3 14 3 19 14 14 25 14 31 1
31 -5 0 -10 -6 -10 -14 0 -8 -7 -17 -16 -20 -12 -5 -14 0 -10 24 5 33 -4 39
-24 15z"/>
<path d="M2179 1933 c-13 -16 -12 -17 4 -4 9 7 17 15 17 17 0 8 -8 3 -21 -13z"/>
<path d="M2019 1904 c-9 -19 -15 -34 -13 -34 8 0 43 59 37 63 -5 3 -15 -11
-24 -29z"/>
<path d="M2070 1925 c-19 -23 -8 -25 14 -4 11 11 15 19 9 19 -6 0 -16 -7 -23
-15z"/>
<path d="M2115 1920 c-3 -5 -1 -10 4 -10 6 0 11 5 11 10 0 6 -2 10 -4 10 -3 0
-8 -4 -11 -10z"/>
<path d="M2182 1904 c-24 -27 -7 -36 17 -10 17 18 20 26 10 26 -8 -1 -20 -7
-27 -16z"/>
<path d="M2086 1901 c-4 -6 -2 -11 4 -11 6 0 8 -6 4 -12 -6 -10 -4 -10 7 0 9
9 10 15 2 23 -8 8 -13 8 -17 0z"/>
<path d="M2284 1892 c-6 -4 -19 -25 -30 -47 -10 -22 -24 -45 -32 -50 -7 -6
-14 -18 -16 -27 -1 -10 -11 -27 -21 -40 -11 -13 -13 -17 -5 -10 8 6 21 12 29
12 11 0 10 -4 -5 -15 -23 -17 -12 -20 19 -4 20 11 20 9 -3 -13 -19 -19 -27
-22 -36 -12 -6 7 -16 9 -23 5 -10 -6 -9 -10 5 -15 16 -6 16 -8 -1 -26 -23 -26
-11 -25 31 1 19 11 34 27 34 35 0 8 7 17 15 20 8 4 15 10 15 16 0 5 -5 6 -10
3 -16 -10 -24 23 -10 40 11 13 10 14 -6 9 -14 -4 -13 -1 6 15 14 11 29 21 34
21 5 0 3 7 -4 15 -16 20 -6 19 14 -1 15 -14 17 -14 22 1 9 23 -8 76 -22 67z
m16 -42 c0 -5 -7 -10 -15 -10 -8 0 -15 5 -15 10 0 6 7 10 15 10 8 0 15 -4 15
-10z"/>
<path d="M2126 1878 c3 -5 10 -6 15 -3 13 9 11 12 -6 12 -8 0 -12 -4 -9 -9z"/>
<path d="M2039 1878 c-5 -18 -6 -38 -1 -34 7 8 12 36 6 36 -2 0 -4 -1 -5 -2z"/>
<path d="M2218 1847 c-7 -7 -21 -13 -30 -13 -41 -3 -43 -4 -29 -13 8 -5 24 -6
37 -1 12 5 25 6 30 2 4 -4 4 -2 0 5 -3 6 2 16 11 22 10 6 13 11 6 11 -6 0 -18
-6 -25 -13z"/>
<path d="M2070 1830 c-8 -11 -21 -21 -29 -24 -9 -2 -4 -3 11 -3 15 1 25 3 23
6 -3 2 0 10 7 18 6 7 9 15 6 18 -2 2 -10 -4 -18 -15z"/>
<path d="M2128 1843 c7 -3 16 -2 19 1 4 3 -2 6 -13 5 -11 0 -14 -3 -6 -6z"/>
<path d="M2720 1830 c0 -5 5 -10 10 -10 6 0 10 5 10 10 0 6 -4 10 -10 10 -5 0
-10 -4 -10 -10z"/>
<path d="M1963 1792 c-24 -12 -39 -31 -63 -85 -17 -38 -28 -72 -25 -75 3 -3 8
4 12 16 4 17 11 21 27 17 11 -2 15 -2 8 1 -8 4 -10 10 -3 17 5 7 9 16 8 21 -1
5 7 14 18 20 11 6 24 17 28 24 4 6 15 12 22 12 8 0 15 7 15 16 0 13 -7 11 -34
-10 -41 -31 -50 -33 -36 -6 6 11 17 20 24 20 8 0 19 7 26 15 7 8 11 14 9 14
-2 -1 -18 -8 -36 -17z"/>
<path d="M2725 1795 c-3 -8 -7 -22 -10 -31 -3 -8 -1 -13 4 -9 5 3 12 -1 14 -7
3 -7 6 4 6 25 1 38 -6 49 -14 22z"/>
<path d="M2278 1793 c-24 -6 -23 -19 3 -26 15 -4 19 -2 15 8 -3 8 0 16 7 19
15 6 -2 5 -25 -1z"/>
<path d="M2145 1771 c-3 -5 -1 -12 5 -16 5 -3 10 1 10 9 0 18 -6 21 -15 7z"/>
<path d="M2065 1739 c-4 -6 -5 -12 -2 -15 2 -3 7 2 10 11 7 17 1 20 -8 4z"/>
<path d="M2275 1731 c3 -10 -1 -23 -9 -30 -8 -7 -12 -20 -9 -28 4 -10 2 -14
-4 -10 -6 4 -19 -3 -29 -16 -16 -19 -17 -20 -1 -8 24 19 29 10 13 -21 -8 -15
-17 -42 -21 -60 -4 -18 -18 -46 -31 -61 -26 -31 -24 -40 20 -91 29 -32 31 -42
15 -51 -6 -4 -8 -13 -5 -20 5 -14 -21 -40 -67 -69 -15 -9 -32 -28 -38 -42 -5
-14 -18 -28 -29 -31 -11 -3 -21 -14 -21 -24 -2 -32 -4 -37 -11 -45 -12 -11
-10 -82 2 -89 6 -4 7 -11 4 -17 -4 -6 -6 -39 -5 -74 1 -34 -5 -86 -13 -114
-18 -61 -10 -85 31 -93 l28 -5 -33 29 c-40 36 -25 39 18 3 38 -33 60 -74 59
-111 -1 -20 -3 -22 -6 -8 -9 42 -26 75 -38 75 -8 0 -21 3 -30 6 -14 6 -14 3
-4 -20 7 -14 16 -26 21 -26 5 0 7 -4 4 -9 -3 -4 4 -28 16 -52 12 -24 23 -46
23 -49 1 -3 7 -17 13 -32 7 -16 16 -39 22 -53 5 -14 15 -25 22 -25 9 0 9 -3
-2 -10 -12 -8 -12 -25 6 -130 20 -118 19 -170 -2 -283 -5 -30 -4 -37 10 -37 9
0 15 3 15 7 -1 5 0 10 1 13 15 38 23 280 8 280 -5 0 -9 15 -8 33 1 17 1 34 0
37 -1 3 -3 26 -5 51 -2 26 -8 56 -14 67 -6 12 -11 30 -11 42 0 11 -9 33 -20
49 -17 22 -19 32 -11 54 6 14 8 35 6 45 -6 35 -35 81 -56 93 -11 6 -18 13 -15
16 3 3 -2 11 -11 18 -13 10 -14 18 -6 41 5 16 8 65 7 109 -1 46 2 86 9 93 8
10 7 12 -3 10 -9 -2 -15 6 -16 19 -1 26 3 34 36 57 l25 18 -35 -6 -35 -7 28
16 c15 9 27 20 27 26 0 6 25 35 56 65 56 55 84 110 84 165 0 16 -4 29 -10 29
-5 0 -7 -7 -4 -15 4 -8 1 -15 -4 -15 -18 0 -22 16 -12 49 5 19 5 29 -1 26 -5
-4 -9 -12 -9 -20 0 -20 -17 -27 -24 -10 -3 8 5 27 18 42 24 30 35 53 42 93 3
13 12 39 21 57 8 17 12 37 8 42 -3 6 -1 11 6 11 6 0 9 8 6 20 -3 10 0 21 7 24
6 2 3 5 -7 5 -13 1 -17 -4 -12 -18z m-110 -1182 c11 -17 -1 -21 -15 -4 -8 9
-8 15 -2 15 6 0 14 -5 17 -11z"/>
<path d="M534 1720 c-29 -12 -59 -55 -79 -116 -31 -97 13 -188 165 -339 55
-54 100 -102 100 -105 0 -4 11 -20 25 -36 14 -16 25 -36 25 -46 0 -21 57 -54
109 -63 24 -4 45 -13 47 -20 3 -7 15 -10 28 -8 29 6 56 -28 56 -70 0 -41 27
-140 53 -197 19 -40 25 -47 40 -39 15 9 15 13 -6 47 -13 20 -29 56 -36 80 -11
40 -11 45 9 62 17 15 18 19 5 23 -8 4 -21 -3 -30 -16 l-15 -21 0 22 c0 13 4
21 9 17 5 -3 13 -1 16 5 6 9 -8 30 -65 98 -19 22 -25 46 -21 82 2 13 1 13 -9
0 -10 -13 -11 -13 -9 0 3 32 -2 36 -54 36 -38 -1 -59 -6 -71 -19 -10 -10 -23
-16 -30 -14 -14 5 -21 57 -7 57 6 0 11 -5 11 -12 0 -6 2 -9 5 -6 11 11 -22 59
-44 65 -22 6 -86 59 -194 161 -24 24 -36 43 -33 54 2 10 0 16 -4 13 -11 -7
-32 30 -23 39 3 3 -1 6 -11 6 -16 0 -16 1 -1 16 8 9 22 13 30 10 9 -3 12 0 8
9 -3 8 -9 12 -14 9 -15 -9 -39 16 -39 41 0 13 -6 26 -12 28 -8 3 -6 6 5 6 10
1 17 9 17 20 0 10 7 22 15 25 9 3 15 11 13 18 -2 7 7 23 20 36 18 18 26 20 42
12 16 -8 18 -8 14 4 -4 10 0 13 13 11 10 -2 29 -4 43 -4 18 -1 21 -4 11 -10
-15 -10 -3 -20 32 -26 12 -3 40 -14 62 -25 21 -11 45 -20 53 -20 7 0 10 -5 6
-12 -4 -6 -3 -8 3 -5 11 7 37 -16 28 -25 -3 -2 3 -5 13 -5 9 0 21 5 25 11 6 7
7 5 4 -5 -3 -10 7 -31 26 -52 26 -28 36 -33 54 -27 15 6 23 5 27 -6 5 -14 37
-20 35 -6 -3 19 2 25 11 12 9 -13 10 -13 10 1 0 8 -19 25 -42 37 -24 12 -61
33 -83 47 -120 75 -283 145 -333 144 -21 0 -47 -4 -58 -9z m414 -165 c20 -14
42 -25 49 -25 7 0 13 -5 13 -11 0 -6 -9 -8 -21 -4 -12 4 -27 8 -35 9 -13 2
-61 56 -49 56 3 0 23 -11 43 -25z m-454 -66 c-8 -14 -24 -10 -24 6 0 9 6 12
15 9 8 -4 12 -10 9 -15z m274 -338 c3 -8 -1 -12 -9 -9 -7 2 -15 10 -17 17 -3
8 1 12 9 9 7 -2 15 -10 17 -17z m152 -57 c0 -18 25 -46 34 -37 9 9 7 -10 -2
-24 -4 -7 -14 -11 -22 -9 -70 13 -90 19 -90 27 0 5 5 9 10 9 6 0 10 9 10 19 0
18 6 21 53 30 4 0 7 -6 7 -15z"/>
<path d="M876 1061 c-3 -4 5 -13 17 -18 19 -9 23 -8 24 8 2 19 -31 28 -41 10z"/>
<path d="M626 1681 c-3 -5 1 -14 9 -21 10 -9 15 -9 15 -1 0 6 -5 11 -11 11 -5
0 -7 5 -4 10 3 6 4 10 1 10 -3 0 -7 -4 -10 -9z"/>
<path d="M2950 1686 c-3 -2 -29 -7 -59 -10 -85 -8 -73 -16 18 -12 81 4 101 9
88 22 -4 4 -13 2 -21 -5 -10 -8 -15 -9 -18 -1 -2 6 -6 9 -8 6z"/>
<path d="M550 1670 c0 -5 5 -10 11 -10 5 0 7 5 4 10 -3 6 -8 10 -11 10 -2 0
-4 -4 -4 -10z"/>
<path d="M2100 1653 c0 -6 -3 -20 -6 -30 -7 -17 -6 -17 12 -1 14 14 16 21 6
30 -8 8 -12 9 -12 1z"/>
<path d="M1510 1634 c0 -8 4 -13 9 -9 5 3 16 -3 23 -13 7 -10 22 -17 33 -17
11 0 26 -6 33 -13 16 -14 32 -7 32 14 0 8 -8 15 -17 15 -41 3 -46 5 -50 17 -3
6 0 12 7 12 6 0 8 -5 4 -12 -4 -7 -3 -8 5 -4 20 13 1 26 -40 26 -29 0 -39 -4
-39 -16z"/>
<path d="M1650 1621 c0 -5 5 -11 11 -13 8 -3 7 -8 -2 -18 -8 -9 -20 -23 -28
-33 -12 -15 -12 -17 4 -11 12 5 22 1 31 -10 13 -19 60 -14 48 5 -3 5 -10 7
-15 4 -5 -4 -9 -1 -9 4 0 6 -7 11 -15 11 -13 0 -14 4 -5 21 7 11 9 27 6 35 -6
15 -26 19 -26 5z"/>
<path d="M2170 1620 c-9 -6 -10 -10 -3 -10 6 0 15 5 18 10 8 12 4 12 -15 0z"/>
<path d="M1693 1596 c0 -18 3 -24 9 -18 7 7 7 16 0 28 -8 14 -9 13 -9 -10z"/>
<path d="M586 1602 c-3 -5 1 -9 9 -9 8 0 15 4 15 9 0 4 -4 8 -9 8 -6 0 -12 -4
-15 -8z"/>
<path d="M710 1596 c0 -8 7 -17 15 -20 12 -4 13 -10 6 -25 -9 -16 -8 -18 9
-14 11 3 20 9 20 14 0 18 18 9 23 -12 4 -15 2 -19 -8 -15 -8 3 -17 1 -20 -4
-5 -9 24 -15 49 -11 4 1 14 -6 22 -16 8 -10 13 -13 14 -6 0 7 -11 20 -25 29
-30 20 -33 34 -5 27 11 -3 20 -9 20 -14 0 -5 7 -9 15 -9 14 0 20 -12 16 -33
-1 -5 7 -11 18 -14 11 -3 22 -12 24 -22 4 -15 4 -15 11 1 14 32 -73 107 -134
115 -38 5 -52 12 -46 22 3 5 -1 11 -9 15 -9 3 -15 0 -15 -8z"/>
<path d="M1986 1602 c-3 -5 1 -9 9 -9 8 0 12 4 9 9 -3 4 -7 8 -9 8 -2 0 -6 -4
-9 -8z"/>
<path d="M1201 1573 c-30 -15 -56 -35 -59 -45 -2 -10 -8 -15 -13 -12 -13 7
-71 -25 -64 -36 7 -12 36 -13 34 -2 -3 20 3 21 28 5 26 -17 27 -17 20 0 -8 23
1 47 20 47 8 0 12 4 9 9 -3 5 3 11 14 14 16 4 17 2 7 -14 -6 -10 -17 -19 -23
-19 -15 0 -26 -28 -14 -35 5 -3 12 0 16 6 5 8 3 9 -7 4 -11 -6 -11 -5 -2 5 6
7 17 9 23 5 8 -5 3 -14 -17 -26 -15 -10 -24 -19 -19 -19 5 0 3 -7 -4 -15 -10
-12 -10 -18 1 -32 12 -14 12 -16 0 -8 -11 6 -13 4 -8 -9 5 -14 3 -16 -12 -11
-11 3 -22 1 -26 -4 -4 -7 1 -8 12 -4 16 6 16 5 4 -10 -7 -9 -9 -17 -3 -17 5 0
12 -7 16 -15 3 -9 0 -15 -10 -15 -8 0 -12 5 -9 10 3 6 2 10 -2 10 -5 0 -14 -9
-20 -20 -14 -22 1 -40 19 -22 6 6 17 8 26 5 16 -7 15 6 -4 51 -5 13 -4 17 3
13 6 -4 13 -4 16 0 2 5 3 3 1 -3 -1 -6 3 -17 9 -23 6 -6 8 -11 4 -11 -4 0 -3
-9 3 -20 8 -15 8 -20 -1 -20 -7 0 -5 -8 6 -20 10 -11 13 -20 7 -20 -16 0 -7
-31 13 -43 16 -8 17 -7 10 9 -4 10 -7 26 -8 34 0 8 -4 21 -10 28 -6 8 -6 12 1
12 6 0 16 -8 21 -17 6 -10 11 -13 11 -8 0 6 -11 23 -26 38 -20 22 -22 28 -10
33 12 5 11 9 -6 26 -11 11 -17 26 -14 35 3 8 6 23 6 34 0 10 6 18 13 17 6 -2
11 3 10 10 -2 6 2 12 7 12 6 0 9 3 8 8 -4 13 13 52 23 52 6 0 5 9 -2 21 -8 15
-8 19 0 15 6 -4 11 -2 11 4 0 6 5 8 10 5 6 -3 10 1 10 9 0 20 5 21 -59 -11z
m-91 -263 c0 -5 -5 -10 -11 -10 -5 0 -7 5 -4 10 3 6 8 10 11 10 2 0 4 -4 4
-10z"/>
<path d="M1956 1585 c4 -8 8 -15 10 -15 2 0 4 7 4 15 0 8 -4 15 -10 15 -5 0
-7 -7 -4 -15z"/>
<path d="M2135 1580 c-4 -13 -12 -19 -21 -16 -8 3 -12 2 -9 -4 7 -11 -29 -32
-41 -22 -5 4 -3 0 4 -9 6 -9 8 -20 4 -24 -4 -5 10 4 30 20 35 29 55 61 45 72
-3 2 -8 -5 -12 -17z"/>
<path d="M658 1573 c7 -3 16 -2 19 1 4 3 -2 6 -13 5 -11 0 -14 -3 -6 -6z"/>
<path d="M517 1559 c7 -7 15 -10 18 -7 3 3 -2 9 -12 12 -14 6 -15 5 -6 -5z"/>
<path d="M565 1560 c3 -5 13 -10 21 -10 9 0 12 -5 8 -12 -4 -7 -3 -8 5 -4 9 6
9 11 0 22 -13 16 -44 19 -34 4z"/>
<path d="M1736 1563 c-3 -4 -6 -11 -6 -17 0 -6 5 -4 10 4 6 10 10 11 10 3 0
-7 5 -13 10 -13 6 0 10 4 10 9 0 11 -26 22 -34 14z"/>
<path d="M2010 1559 c0 -5 5 -7 10 -4 6 3 10 8 10 11 0 2 -4 4 -10 4 -5 0 -10
-5 -10 -11z"/>
<path d="M636 1552 c-9 -15 21 -23 49 -12 14 5 25 11 25 14 0 6 -23 2 -39 -8
-8 -5 -16 -4 -21 4 -5 8 -10 8 -14 2z"/>
<path d="M500 1542 c0 -5 7 -13 16 -16 22 -8 24 -8 24 6 0 6 -3 8 -7 5 -3 -4
-12 -2 -20 4 -8 7 -13 8 -13 1z"/>
<path d="M2029 1538 c-6 -21 -5 -38 1 -38 5 0 8 9 7 20 -1 17 -5 26 -8 18z"/>
<path d="M2150 1530 c0 -5 5 -10 11 -10 5 0 7 5 4 10 -3 6 -8 10 -11 10 -2 0
-4 -4 -4 -10z"/>
<path d="M1722 1523 c-7 -2 -17 -14 -23 -26 -9 -18 -9 -20 2 -9 16 15 46 16
55 1 3 -6 0 -15 -7 -20 -12 -7 -11 -9 1 -10 8 -1 18 -1 22 0 4 0 3 -10 -2 -23
-6 -17 -4 -28 8 -41 9 -10 11 -15 5 -11 -7 4 -13 3 -13 -2 0 -10 44 -32 65
-32 12 0 12 4 -2 18 -10 11 -21 17 -24 16 -3 -2 -5 14 -4 34 0 27 -7 48 -28
75 -29 38 -32 39 -55 30z"/>
<path d="M1946 1518 c4 -6 7 -26 6 -45 -1 -18 3 -33 7 -33 5 0 17 -3 27 -7 14
-5 16 -3 11 11 -4 9 -3 15 2 12 5 -3 11 1 15 9 6 17 1 19 -23 6 -13 -7 -17 -5
-19 10 -4 44 -6 49 -19 49 -8 0 -11 -5 -7 -12z"/>
<path d="M2110 1520 c-11 -7 -12 -12 -4 -20 8 -8 13 -6 17 9 3 12 4 21 4 21
-1 0 -9 -5 -17 -10z"/>
<path d="M563 1493 c9 -2 23 -2 30 0 6 3 -1 5 -18 5 -16 0 -22 -2 -12 -5z"/>
<path d="M600 1480 c-9 -6 -10 -10 -3 -10 6 0 15 5 18 10 8 12 4 12 -15 0z"/>
<path d="M963 1474 c-8 -22 13 -42 30 -25 10 10 9 11 -5 6 -21 -8 -26 20 -5
28 9 4 9 6 -1 6 -7 1 -15 -6 -19 -15z"/>
<path d="M1720 1480 c-8 -5 -10 -10 -5 -10 6 0 17 5 25 10 8 5 11 10 5 10 -5
0 -17 -5 -25 -10z"/>
<path d="M1107 1473 c-12 -12 -7 -19 14 -20 17 -2 18 1 9 13 -14 16 -14 16
-23 7z"/>
<path d="M520 1461 c0 -5 9 -12 19 -16 11 -3 18 -12 15 -20 -7 -18 7 -24 31
-14 17 6 17 8 3 8 -18 1 -24 16 -10 24 4 2 2 2 -5 1 -6 -2 -14 4 -17 12 -6 15
-36 20 -36 5z"/>
<path d="M628 1463 c7 -3 16 -2 19 1 4 3 -2 6 -13 5 -11 0 -14 -3 -6 -6z"/>
<path d="M1830 1450 c6 -11 15 -20 20 -20 6 0 2 9 -7 20 -10 11 -19 20 -21 20
-1 0 2 -9 8 -20z"/>
<path d="M2100 1455 c-8 -9 -8 -15 -2 -15 12 0 26 19 19 26 -2 2 -10 -2 -17
-11z"/>
<path d="M1065 1450 c-3 -5 -19 -10 -34 -10 -24 0 -80 -29 -57 -30 5 0 3 -6
-3 -14 -10 -12 -8 -17 7 -25 17 -9 20 -8 18 7 -2 9 2 20 8 24 8 5 7 8 -2 8 -7
0 -10 5 -7 10 10 16 55 12 55 -6 0 -8 -4 -13 -8 -10 -5 3 -9 -2 -9 -10 0 -12
3 -13 13 -2 7 7 14 20 16 28 2 8 10 20 18 27 10 8 11 12 3 13 -6 0 -15 -4 -18
-10z"/>
<path d="M920 1441 c0 -13 29 -35 37 -27 3 3 1 6 -5 6 -7 0 -12 7 -12 15 0 8
-4 15 -10 15 -5 0 -10 -4 -10 -9z"/>
<path d="M2058 1443 c7 -3 16 -2 19 1 4 3 -2 6 -13 5 -11 0 -14 -3 -6 -6z"/>
<path d="M1817 1423 c-9 -14 0 -19 34 -21 16 -1 26 4 26 12 0 11 -6 12 -23 6
-15 -6 -24 -5 -27 3 -2 8 -5 8 -10 0z"/>
<path d="M2070 1422 c0 -4 9 -13 19 -19 16 -10 20 -9 25 4 4 11 2 14 -9 9 -8
-3 -15 -1 -15 4 0 6 -4 10 -10 10 -5 0 -10 -3 -10 -8z"/>
<path d="M630 1411 c0 -6 -11 -11 -24 -11 -14 0 -27 -4 -30 -9 -4 -5 9 -5 30
-1 41 10 50 15 35 25 -6 3 -11 1 -11 -4z"/>
<path d="M2171 1404 c0 -11 3 -14 6 -6 3 7 2 16 -1 19 -3 4 -6 -2 -5 -13z"/>
<path d="M806 1398 c3 -5 10 -6 15 -3 13 9 11 12 -6 12 -8 0 -12 -4 -9 -9z"/>
<path d="M643 1386 c-13 -7 -20 -17 -15 -22 4 -4 -1 -2 -11 5 -13 11 -21 11
-29 3 -8 -8 -5 -14 13 -20 54 -20 54 -20 41 -21 -8 -1 8 -17 33 -37 30 -22 55
-34 66 -31 12 3 19 0 19 -8 0 -8 8 -11 20 -8 11 3 20 9 20 13 0 11 -40 25 -64
21 -10 -1 -16 1 -13 6 3 5 1 15 -4 23 -7 13 -10 13 -18 1 -6 -9 -11 -10 -15
-2 -4 6 -13 8 -19 4 -7 -4 -5 2 3 12 13 17 13 18 0 11 -8 -4 -6 0 4 8 11 9 24
16 30 16 5 0 7 2 4 5 -3 3 -17 1 -31 -4 -34 -13 -44 3 -15 23 26 19 13 20 -19
2z"/>
<path d="M1180 1390 c0 -5 5 -10 11 -10 5 0 7 5 4 10 -3 6 -8 10 -11 10 -2 0
-4 -4 -4 -10z"/>
<path d="M2063 1385 c0 -8 4 -15 9 -15 4 0 8 4 8 9 0 6 -4 12 -8 15 -5 3 -9
-1 -9 -9z"/>
<path d="M1850 1382 c0 -13 23 -42 34 -42 16 0 29 27 21 41 -6 8 -55 9 -55 1z"/>
<path d="M720 1370 c0 -5 5 -10 11 -10 5 0 7 5 4 10 -3 6 -8 10 -11 10 -2 0
-4 -4 -4 -10z"/>
<path d="M2100 1366 c-14 -8 -28 -12 -32 -10 -5 3 -8 0 -8 -5 0 -6 -3 -10 -7
-9 -5 0 -16 -2 -25 -6 -15 -7 -16 -12 -6 -29 7 -12 11 -31 10 -42 -3 -22 32
-50 49 -39 6 3 14 17 19 30 5 13 20 26 32 29 13 3 33 21 46 40 24 38 29 56 10
37 -14 -14 -42 -16 -33 -2 11 17 -7 11 -22 -7 -13 -17 -14 -16 -8 5 7 26 8 26
-25 8z m26 -41 c10 -8 17 -15 14 -15 -3 -1 -23 -2 -46 -4 -35 -2 -40 0 -36 16
5 22 41 24 68 3z m-46 -46 c0 -18 -2 -20 -15 -9 -13 11 -13 15 -3 21 18 12 18
12 18 -12z m-16 -24 c3 -8 1 -15 -3 -15 -5 0 -11 7 -15 15 -3 8 -1 15 3 15 5
0 11 -7 15 -15z"/>
<path d="M1233 1355 c0 -8 4 -12 9 -9 5 3 6 10 3 15 -9 13 -12 11 -12 -6z"/>
<path d="M950 1350 c-13 -9 -13 -10 0 -10 12 -1 11 -4 -4 -15 -17 -13 -15 -14
20 -9 25 4 34 2 26 -4 -10 -7 -10 -11 3 -22 13 -11 19 -11 32 3 15 15 14 15
-7 10 -17 -4 -21 -3 -16 6 5 8 1 14 -12 18 -13 3 -18 11 -15 19 6 16 -5 18
-27 4z"/>
<path d="M1910 1340 c0 -11 5 -20 10 -20 6 0 10 5 10 11 0 5 5 7 10 4 6 -3 10
-2 10 3 0 8 -22 22 -36 22 -2 0 -4 -9 -4 -20z"/>
<path d="M1005 1340 c3 -5 8 -10 11 -10 2 0 4 5 4 10 0 6 -5 10 -11 10 -5 0
-7 -4 -4 -10z"/>
<path d="M1801 1331 c-8 -5 -20 -7 -28 -4 -7 3 -13 -2 -13 -11 0 -18 17 -20
55 -6 14 5 24 6 21 1 -4 -5 -3 -11 1 -14 5 -2 3 -2 -4 -1 -7 2 -24 -3 -39 -11
-15 -7 -32 -11 -39 -8 -8 3 -15 -5 -17 -19 -2 -15 -9 -23 -21 -22 -9 1 -17 -3
-17 -8 0 -5 -10 -18 -22 -29 -13 -10 -18 -18 -11 -19 6 0 14 6 17 13 3 8 9 6
20 -7 16 -19 16 -19 16 5 0 43 67 92 123 89 61 -4 63 -1 28 30 -36 32 -47 35
-70 21z"/>
<path d="M1250 1327 c0 -2 6 -10 14 -16 11 -9 16 -9 22 1 4 7 4 10 -1 6 -4 -4
-14 -3 -22 3 -7 6 -13 9 -13 6z"/>
<path d="M1938 1317 c-15 -10 -14 -13 10 -30 25 -17 25 -18 4 -14 -12 3 -20 1
-16 -4 3 -5 15 -9 27 -10 12 0 16 -3 10 -6 -20 -7 -15 -20 7 -18 27 2 36 13
16 21 -9 3 -16 13 -16 21 0 8 5 11 10 8 6 -4 5 5 -2 19 -12 28 -24 31 -50 13z
m37 -17 c3 -6 -1 -7 -9 -4 -18 7 -21 14 -7 14 6 0 13 -4 16 -10z"/>
<path d="M1666 1294 c-3 -8 1 -23 10 -32 15 -15 16 -14 9 7 -6 18 -4 22 6 15
12 -6 12 -5 0 9 -17 21 -17 21 -25 1z"/>
<path d="M921 1284 c0 -11 3 -14 6 -6 3 7 2 16 -1 19 -3 4 -6 -2 -5 -13z"/>
<path d="M970 1256 c-13 -25 -8 -56 9 -56 5 0 9 18 9 40 0 22 -1 40 -2 40 -2
0 -8 -11 -16 -24z"/>
<path d="M1066 1271 c-8 -12 20 -22 40 -14 13 5 13 7 2 14 -17 11 -35 11 -42
0z"/>
<path d="M1716 1267 c3 -10 9 -15 12 -12 3 3 0 11 -7 18 -10 9 -11 8 -5 -6z"/>
<path d="M1005 1260 c3 -5 8 -10 11 -10 2 0 4 5 4 10 0 6 -5 10 -11 10 -5 0
-7 -4 -4 -10z"/>
<path d="M1142 1246 c13 -10 15 -15 6 -24 -9 -9 -9 -12 0 -12 7 0 11 -5 10
-11 -2 -6 3 -14 11 -17 10 -3 12 0 7 14 -5 11 -9 24 -10 29 -3 18 -17 35 -29
35 -7 0 -4 -6 5 -14z"/>
<path d="M1764 1225 c-19 -17 -34 -38 -34 -46 1 -8 9 -2 21 14 11 15 25 25 29
22 5 -3 11 -1 15 5 11 18 49 11 89 -16 l38 -26 -7 23 c-21 68 -91 79 -151 24z"/>
<path d="M1912 1240 c7 -10 14 -18 15 -16 6 6 -9 36 -18 36 -5 0 -4 -9 3 -20z"/>
<path d="M809 1234 c-8 -9 -5 -11 12 -7 16 5 20 3 14 -7 -6 -10 -4 -10 11 -2
14 8 21 6 30 -6 7 -10 15 -14 19 -10 11 10 -29 43 -53 44 -12 0 -27 -5 -33
-12z"/>
<path d="M1053 1230 c-1 -11 2 -20 8 -20 5 0 9 4 9 9 0 4 12 6 28 4 l27 -5
-29 16 c-37 21 -41 20 -43 -4z"/>
<path d="M1205 1240 c3 -5 8 -10 11 -10 2 0 4 5 4 10 0 6 -5 10 -11 10 -5 0
-7 -4 -4 -10z"/>
<path d="M1576 1212 c-3 -5 1 -9 9 -9 8 0 12 4 9 9 -3 4 -7 8 -9 8 -2 0 -6 -4
-9 -8z"/>
<path d="M1945 1214 c-6 -2 -10 -28 -9 -56 2 -57 -10 -93 -28 -82 -7 4 -8 3
-4 -5 4 -6 12 -9 17 -6 10 7 1 -24 -14 -42 -5 -7 -13 -11 -17 -8 -15 9 -22
-15 -9 -31 8 -10 15 -12 23 -4 5 5 15 10 21 10 6 0 6 -3 -1 -8 -8 -5 -3 -14
15 -26 l26 -20 -20 24 c-20 23 -20 23 0 17 20 -7 20 -7 0 8 -13 10 -16 18 -9
23 5 4 10 18 10 32 0 15 5 25 14 25 11 0 15 -12 15 -40 0 -22 3 -45 7 -50 4
-6 3 -17 -3 -25 -13 -22 -11 -40 4 -34 13 4 16 42 5 60 -8 12 17 46 27 36 4
-4 6 0 3 8 -3 8 -10 15 -15 15 -23 0 -25 15 -2 16 13 0 18 3 11 6 -10 4 -10 8
-1 19 7 8 9 17 5 21 -3 3 -6 1 -6 -5 0 -6 -7 -9 -16 -5 -13 5 -13 7 -2 14 10
7 10 9 1 9 -7 0 -13 4 -13 9 0 5 10 7 22 3 18 -4 20 -2 15 17 -4 17 -2 21 9
17 8 -3 14 -1 14 5 0 6 -10 9 -22 7 -14 -2 -22 -9 -21 -18 2 -10 -5 -16 -18
-17 -18 -2 -19 0 -7 14 9 12 10 15 1 9 -17 -10 -18 35 -1 52 9 9 9 12 -2 11
-8 0 -20 -3 -25 -5z m36 -141 c13 -17 13 -17 -6 -3 -11 8 -22 16 -24 17 -2 2
0 3 6 3 6 0 17 -8 24 -17z"/>
<path d="M918 1203 c7 -3 16 -2 19 1 4 3 -2 6 -13 5 -11 0 -14 -3 -6 -6z"/>
<path d="M1101 1191 c13 -11 26 -18 28 -15 7 7 -21 34 -36 34 -10 0 -8 -6 8
-19z"/>
<path d="M1767 1192 c-13 -35 10 -92 36 -92 18 0 19 -2 7 -10 -11 -7 -7 -10
18 -10 17 0 32 4 32 10 0 5 6 7 14 4 15 -6 46 32 46 56 -1 8 -7 0 -15 -17 -8
-18 -18 -33 -24 -33 -5 0 -3 12 5 28 7 15 14 34 13 42 0 10 -3 8 -9 -5 -6 -15
-9 -16 -9 -4 -2 36 -69 66 -86 38 -4 -6 3 -9 21 -7 16 2 29 -2 32 -11 3 -10
-1 -13 -16 -9 -32 9 -44 -5 -26 -30 15 -22 41 -32 28 -10 -4 7 -3 8 5 4 6 -4
18 -2 26 4 22 19 18 -4 -4 -24 -17 -16 -23 -16 -48 -4 -23 11 -29 21 -33 58
-5 38 -7 41 -13 22z"/>
<path d="M2020 1202 c0 -5 7 -9 15 -9 8 0 15 4 15 9 0 4 -7 8 -15 8 -8 0 -15
-4 -15 -8z"/>
<path d="M1020 1185 c-11 -13 -10 -14 4 -9 9 3 16 10 16 15 0 13 -6 11 -20 -6z"/>
<path d="M1381 1184 c0 -11 3 -14 6 -6 3 7 2 16 -1 19 -3 4 -6 -2 -5 -13z"/>
<path d="M1981 1183 c0 -11 3 -13 6 -5 2 6 10 9 15 6 7 -4 8 -2 4 4 -11 18
-26 14 -25 -5z"/>
<path d="M951 1176 c-8 -9 -8 -16 -2 -20 6 -4 8 -13 4 -21 -3 -8 0 -15 5 -15
13 0 17 7 26 43 7 30 -12 38 -33 13z"/>
<path d="M1046 1175 c-25 -19 -6 -25 29 -11 27 11 28 13 9 18 -11 3 -28 0 -38
-7z"/>
<path d="M1192 1179 c2 -6 8 -10 13 -10 5 0 11 4 13 10 2 6 -4 11 -13 11 -9 0
-15 -5 -13 -11z"/>
<path d="M1147 1166 c-4 -10 1 -13 16 -10 20 4 20 4 -1 -6 -13 -5 -28 -8 -33
-4 -5 3 -18 7 -28 9 -14 3 -18 -1 -14 -11 3 -8 14 -14 24 -14 10 0 28 -9 39
-20 11 -11 20 -18 20 -15 0 3 9 1 20 -5 12 -6 20 -7 20 -1 0 5 3 18 6 28 5 17
5 17 -6 1 -12 -20 -30 -24 -30 -7 0 5 5 7 10 4 6 -3 10 -2 10 4 0 5 -5 13 -10
16 -6 4 -8 10 -5 15 3 5 -3 14 -14 19 -14 8 -20 7 -24 -3z"/>
<path d="M2128 1173 c7 -3 16 -2 19 1 4 3 -2 6 -13 5 -11 0 -14 -3 -6 -6z"/>
<path d="M1430 1150 c-6 -11 -8 -20 -6 -20 3 0 10 9 16 20 6 11 8 20 6 20 -3
0 -10 -9 -16 -20z"/>
<path d="M1660 1153 c0 -7 4 -13 10 -13 5 0 37 -27 71 -60 62 -61 73 -68 84
-50 8 13 -14 42 -26 34 -5 -3 -19 2 -31 11 l-23 17 25 -6 c20 -5 18 -3 -7 11
-23 11 -33 24 -33 40 0 13 -3 23 -7 24 -47 6 -63 4 -63 -8z m155 -103 c3 -5 1
-10 -4 -10 -6 0 -11 5 -11 10 0 6 2 10 4 10 3 0 8 -4 11 -10z"/>
<path d="M1000 1135 c-7 -13 -17 -22 -21 -19 -4 2 -10 0 -14 -6 -3 -5 0 -10 8
-10 18 0 61 46 49 54 -5 3 -15 -6 -22 -19z"/>
<path d="M2135 1150 c-3 -6 1 -7 9 -4 18 7 21 14 7 14 -6 0 -13 -4 -16 -10z"/>
<path d="M1039 1133 c-30 -18 -52 -50 -44 -63 3 -5 16 2 30 16 13 13 34 24 47
24 13 0 18 3 12 8 -6 4 -13 12 -15 19 -3 9 -11 8 -30 -4z"/>
<path d="M1232 1108 c-7 -7 -12 -17 -12 -22 0 -6 5 -4 10 4 8 13 10 13 10 -2
0 -17 -28 -38 -49 -38 -6 0 -11 7 -11 15 0 8 -5 15 -11 15 -5 0 -7 -4 -4 -10
9 -15 -13 -12 -39 5 -22 15 -36 15 -84 0 -16 -5 -20 -10 -12 -15 9 -6 6 -14
-10 -30 -18 -18 -20 -24 -9 -31 21 -13 29 -11 29 9 0 33 35 55 74 48 19 -4 40
-13 47 -22 10 -12 14 -12 21 -2 5 8 6 1 1 -17 -4 -16 -7 -37 -7 -46 0 -10 -6
-15 -13 -12 -7 3 -10 9 -7 15 7 12 -4 58 -14 58 -4 0 -6 -16 -4 -35 4 -37 5
-36 -53 -39 -11 -1 -26 6 -33 14 -11 13 -12 12 -10 -5 3 -18 11 -20 64 -19
l62 1 -9 -30 c-8 -29 -18 -44 -52 -82 -19 -20 -19 -20 -17 0 1 11 2 24 1 29
-1 12 -31 -14 -31 -28 0 -6 5 -4 10 4 8 13 10 12 11 -5 1 -11 1 -24 0 -29 -2
-9 16 3 53 37 11 9 26 17 33 17 7 0 14 10 15 23 1 12 2 29 3 37 0 8 4 21 8 28
5 6 4 12 -2 12 -16 0 19 60 55 93 31 30 32 33 15 49 -13 14 -20 15 -29 6z"/>
<path d="M2130 1086 c0 -2 8 -10 18 -17 15 -13 16 -12 3 4 -13 16 -21 21 -21
13z"/>
<path d="M1860 1050 c6 -11 15 -20 20 -20 6 0 5 9 -2 20 -7 11 -16 20 -21 20
-4 0 -3 -9 3 -20z"/>
<path d="M2136 1047 c3 -8 11 -14 19 -14 20 0 19 4 -5 17 -15 8 -18 8 -14 -3z"/>
<path d="M1088 1034 c-16 -8 -28 -23 -28 -34 0 -11 2 -20 4 -20 2 0 12 -3 22
-7 13 -5 16 -3 11 9 -4 11 -1 14 12 11 15 -4 17 1 13 26 -2 17 -5 31 -6 31 0
-1 -13 -8 -28 -16z"/>
<path d="M1810 1010 c-25 -16 56 -84 105 -88 l38 -2 -45 34 c-25 19 -48 42
-51 50 -7 18 -25 20 -47 6z m33 -17 c-4 -10 -2 -14 4 -10 6 4 16 0 23 -8 11
-14 10 -14 -15 -5 -40 15 -46 20 -40 31 11 17 35 10 28 -8z"/>
<path d="M1520 991 c0 -5 9 -13 20 -16 11 -3 20 -11 20 -16 0 -6 6 -7 13 -3 6
4 9 4 5 -1 -4 -4 -3 -14 3 -21 14 -17 3 -35 -18 -27 -11 4 -14 3 -9 -5 13 -21
33 -13 49 20 16 33 13 54 -3 28 -7 -11 -10 -11 -10 -2 0 7 7 15 15 18 8 4 15
12 15 20 0 17 -5 17 -31 2 -17 -10 -23 -10 -26 0 -5 14 -43 17 -43 3z"/>
<path d="M1996 993 c-3 -4 -1 -12 5 -20 6 -7 8 -13 3 -13 -5 0 -2 -5 6 -10 9
-6 11 -10 3 -10 -7 0 -10 -7 -7 -15 4 -8 1 -15 -7 -15 -7 0 -9 -3 -6 -7 4 -3
2 -12 -4 -19 -7 -8 -7 -14 1 -19 20 -12 33 12 38 68 3 42 1 55 -11 60 -8 3
-18 3 -21 0z"/>
<path d="M2251 983 c7 -12 15 -20 18 -17 3 2 -3 12 -13 22 -17 16 -18 16 -5
-5z"/>
<path d="M1229 988 c-5 -18 -6 -38 -1 -34 7 8 12 36 6 36 -2 0 -4 -1 -5 -2z"/>
<path d="M1286 971 c-10 -11 -16 -25 -14 -32 2 -7 12 0 22 16 21 32 16 43 -8
16z"/>
<path d="M1393 975 c-6 -7 -9 -16 -6 -19 4 -3 1 -6 -5 -6 -12 0 -42 -55 -42
-77 0 -7 -5 -13 -11 -13 -5 0 -7 -5 -4 -10 4 -6 1 -18 -6 -26 -6 -8 -9 -17 -5
-21 3 -3 6 -1 6 6 0 8 7 10 20 6 16 -5 19 -3 13 11 -5 15 -2 16 29 11 21 -3
41 -1 48 6 10 9 12 8 7 -5 -9 -25 0 -44 29 -62 19 -13 22 -13 18 -2 -3 8 -11
17 -19 19 -7 3 -13 23 -13 49 -1 23 -6 44 -13 47 -8 2 -7 6 2 13 15 11 5 8
-33 -7 -13 -5 -18 -2 -18 9 0 9 4 16 10 16 5 0 7 7 4 15 -5 11 1 15 24 15 33
0 39 -11 48 -90 3 -25 9 -52 14 -60 4 -8 11 -41 15 -74 6 -45 4 -60 -6 -68
-10 -6 -6 -7 11 -2 33 9 33 9 21 32 -14 26 -14 45 -1 37 6 -3 10 -1 10 4 0 6
-4 11 -10 11 -5 0 -7 7 -4 15 4 8 1 15 -5 15 -6 0 -10 13 -9 29 1 16 -4 36
-11 45 -7 9 -11 27 -9 41 3 15 1 22 -5 18 -6 -4 -8 0 -4 10 4 10 1 17 -5 17
-23 0 2 13 33 16 42 5 47 12 15 20 -14 3 -26 11 -26 16 0 6 -11 8 -27 4 -16
-4 -35 -8 -43 -10 -8 -2 -17 0 -20 4 -3 4 -10 2 -17 -5z m27 -111 c0 -18 -21
-18 -45 -1 -16 13 -15 14 14 15 21 0 31 -4 31 -14z"/>
<path d="M2235 960 c3 -5 8 -10 11 -10 2 0 4 5 4 10 0 6 -5 10 -11 10 -5 0 -7
-4 -4 -10z"/>
<path d="M178 943 c-107 -2 -178 -7 -178 -13 0 -12 1 -12 188 -11 113 1 158
-2 170 -11 12 -10 14 -10 8 0 -7 12 9 17 48 13 16 -1 17 1 6 14 -7 8 -24 14
-39 13 -14 -1 -106 -4 -203 -5z"/>
<path d="M1209 913 c-13 -17 -13 -17 6 -3 11 8 22 16 24 17 2 2 0 3 -6 3 -6 0
-17 -8 -24 -17z"/>
<path d="M1515 910 c-8 -24 2 -60 16 -60 6 0 7 5 4 10 -3 6 -1 10 4 10 6 0 11
-7 11 -15 0 -8 5 -15 10 -15 6 0 9 -15 7 -35 -3 -20 0 -38 6 -42 6 -3 7 -1 3
5 -4 7 -3 12 2 12 6 0 12 -7 16 -15 3 -8 1 -15 -4 -15 -5 0 -11 -8 -13 -17 -4
-15 -6 -15 -12 4 -4 13 -11 20 -16 17 -5 -3 -7 -10 -3 -15 3 -5 0 -17 -8 -26
-11 -15 -11 -16 5 -10 10 4 16 3 13 -2 -7 -11 22 -36 31 -28 3 4 1 13 -6 20
-16 20 13 45 33 28 11 -9 15 -8 20 5 7 18 -2 37 -14 29 -12 -7 -19 7 -22 45
-1 18 -8 35 -15 37 -7 3 -13 13 -13 24 0 10 -9 23 -21 29 -16 9 -18 14 -8 26
9 11 8 14 -4 14 -9 0 -19 -9 -22 -20z"/>
<path d="M1266 909 c4 -7 44 0 44 7 0 2 -11 3 -24 2 -14 -1 -23 -5 -20 -9z"/>
<path d="M1634 909 c-3 -5 0 -9 6 -9 6 0 8 -10 4 -25 -7 -29 2 -31 42 -11 15
8 32 12 38 9 6 -4 5 1 -3 11 -8 9 -20 15 -27 12 -7 -3 -14 0 -16 6 -5 14 -36
19 -44 7z m36 -39 c0 -5 -4 -10 -10 -10 -5 0 -10 5 -10 10 0 6 5 10 10 10 6 0
10 -4 10 -10z"/>
<path d="M1894 911 c4 -5 1 -12 -4 -14 -6 -3 -5 -4 2 -3 15 3 23 26 8 26 -6 0
-9 -4 -6 -9z"/>
<path d="M1918 893 c-4 -14 1 -18 23 -18 16 0 31 5 33 12 3 7 -1 10 -8 7 -8
-3 -17 -1 -21 5 -9 16 -22 13 -27 -6z"/>
<path d="M1592 883 c-6 -2 -10 -9 -6 -14 8 -14 21 -11 28 6 6 15 1 17 -22 8z"/>
<path d="M354 855 c-1 -14 2 -22 7 -19 11 6 12 44 2 44 -5 0 -9 -11 -9 -25z"/>
<path d="M1230 865 c0 -8 4 -15 8 -15 5 0 9 7 9 15 0 8 -4 15 -9 15 -4 0 -8
-7 -8 -15z"/>
<path d="M1937 850 c4 -15 11 -19 24 -15 11 4 19 2 19 -4 0 -6 5 -11 11 -11 6
0 9 8 7 18 -2 9 -8 17 -15 17 -6 0 -15 3 -19 8 -15 15 -32 7 -27 -13z"/>
<path d="M1136 826 c-30 -27 -37 -58 -9 -35 15 13 15 12 4 -9 -7 -13 -17 -20
-24 -15 -8 4 -7 1 1 -10 8 -9 11 -21 7 -27 -3 -5 -1 -10 5 -10 6 0 8 -4 5 -10
-3 -5 -1 -10 4 -10 6 0 11 5 11 11 0 5 5 7 10 4 6 -4 8 -10 5 -15 -3 -5 -1
-11 5 -15 15 -9 12 17 -4 38 -11 14 -15 15 -19 5 -4 -10 -6 -10 -6 0 -1 7 6
15 14 18 8 4 12 10 9 15 -2 5 0 18 7 30 6 12 7 19 2 16 -5 -4 -10 0 -10 8 0 8
5 13 10 12 5 -1 12 4 14 11 7 20 -14 14 -41 -12z"/>
<path d="M1193 835 c0 -8 4 -15 9 -15 4 0 8 4 8 9 0 6 -4 12 -8 15 -5 3 -9 -1
-9 -9z"/>
<path d="M1374 819 c-3 -5 2 -12 10 -15 9 -3 16 -12 16 -19 0 -7 6 -18 14 -24
8 -7 14 -26 14 -43 -1 -21 6 -37 22 -50 l22 -18 -21 0 c-19 0 -21 -4 -16 -33
5 -24 1 -39 -13 -57 -11 -14 -22 -35 -26 -47 -5 -17 -22 -27 -62 -39 -62 -18
-68 -35 -20 -58 39 -19 76 -21 76 -5 0 6 -10 9 -23 7 -25 -5 -52 16 -42 33 5
7 11 6 21 -2 11 -9 14 -8 14 6 0 15 2 16 17 4 11 -10 14 -10 9 -1 -4 7 -2 12
7 12 8 0 17 -8 20 -19 3 -12 12 -18 28 -17 13 1 28 0 34 -3 23 -12 69 -9 92 6
21 14 26 14 34 2 5 -9 9 -10 9 -2 0 6 13 11 29 11 15 -1 34 3 41 7 10 6 12 2
7 -16 l-6 -24 17 22 c21 28 62 43 113 43 21 0 39 3 39 8 0 12 -20 38 -20 27 0
-6 -9 -11 -21 -12 -15 -1 -19 2 -15 15 3 10 -1 8 -10 -6 -9 -12 -25 -22 -36
-22 -15 0 -18 5 -12 23 6 21 5 21 -22 -4 -27 -25 -90 -47 -78 -28 11 19 -39 8
-69 -15 -40 -30 -56 -34 -85 -18 -12 7 -26 11 -31 8 -5 -3 -15 1 -22 10 -7 8
-8 14 -3 13 20 -3 34 2 34 12 0 8 -5 8 -15 -1 -12 -10 -15 -10 -15 4 0 9 -5
16 -10 16 -6 0 -5 8 2 19 7 11 15 18 19 15 4 -2 10 7 13 21 6 23 7 24 26 8 10
-9 17 -20 14 -25 -3 -4 0 -8 5 -8 6 0 11 10 11 23 0 19 3 18 21 -12 11 -18 23
-31 26 -28 9 9 -37 77 -53 77 -8 0 -11 -7 -8 -17 5 -15 3 -15 -10 1 -9 11 -22
23 -28 28 -7 4 1 6 20 3 18 -2 30 0 27 5 -6 9 9 14 68 23 22 3 32 -2 48 -24
11 -16 16 -29 10 -29 -6 0 -11 -4 -11 -10 0 -5 7 -10 16 -10 12 0 14 7 9 30
l-7 30 59 -4 c32 -2 58 -5 58 -6 0 -1 13 -4 30 -6 16 -3 35 -10 43 -16 10 -9
12 -8 10 3 -2 10 8 14 37 14 22 0 44 6 48 13 4 6 14 12 20 12 7 0 20 13 30 29
20 34 21 41 6 41 -5 0 -7 -5 -3 -12 5 -8 2 -9 -11 -4 -14 5 -15 4 -7 -7 16
-18 -107 -62 -146 -51 -15 4 -47 8 -72 9 -25 1 -75 5 -112 10 -66 7 -138 -6
-138 -26 0 -5 -4 -9 -9 -9 -5 0 -8 8 -7 18 3 16 0 25 -25 73 -7 15 -7 19 0 14
15 -9 14 8 -1 24 -10 11 -10 13 0 7 22 -13 12 0 -28 37 -22 19 -42 31 -46 26z
m41 -319 c3 -5 1 -10 -4 -10 -6 0 -11 5 -11 10 0 6 2 10 4 10 3 0 8 -4 11 -10z"/>
<path d="M1530 815 c-7 -8 -10 -22 -6 -30 6 -17 26 -21 26 -5 0 6 -5 10 -10
10 -7 0 -7 6 0 20 13 24 8 26 -10 5z"/>
<path d="M358 796 c-3 -14 -1 -31 3 -38 6 -8 9 1 9 25 0 42 -6 48 -12 13z"/>
<path d="M1258 813 c7 -3 16 -2 19 1 4 3 -2 6 -13 5 -11 0 -14 -3 -6 -6z"/>
<path d="M1936 787 c3 -10 9 -15 12 -12 3 3 0 11 -7 18 -10 9 -11 8 -5 -6z"/>
<path d="M1335 780 c-3 -5 -1 -10 4 -10 6 0 11 5 11 10 0 6 -2 10 -4 10 -3 0
-8 -4 -11 -10z"/>
<path d="M1217 773 c-12 -12 -7 -22 8 -17 8 4 15 1 15 -7 0 -7 2 -10 5 -7 7 7
-5 38 -14 38 -4 0 -11 -3 -14 -7z"/>
<path d="M1845 770 c-16 -7 -17 -9 -3 -9 9 -1 20 4 23 9 7 11 7 11 -20 0z"/>
<path d="M1981 750 c0 -33 1 -34 11 -12 8 17 8 26 0 34 -9 9 -12 4 -11 -22z"/>
<path d="M1785 750 c-3 -5 -2 -10 4 -10 5 0 13 5 16 10 3 6 2 10 -4 10 -5 0
-13 -4 -16 -10z"/>
<path d="M1171 734 c0 -11 3 -14 6 -6 3 7 2 16 -1 19 -3 4 -6 -2 -5 -13z"/>
<path d="M1208 720 c-9 -10 -19 -29 -23 -42 -5 -21 -5 -22 8 -5 8 9 23 17 33
18 10 0 14 3 8 5 -7 3 -10 14 -7 24 6 24 3 24 -19 0z"/>
<path d="M1273 716 c0 -11 4 -13 13 -5 8 7 14 6 17 -1 3 -6 4 -5 3 2 -4 19
-33 22 -33 4z"/>
<path d="M1795 690 c-15 -17 -16 -20 -3 -20 9 0 18 9 21 20 3 11 4 20 3 20 -2
0 -11 -9 -21 -20z"/>
<path d="M860 690 c-91 -3 -215 -5 -277 -5 -61 0 -109 -3 -106 -7 2 -5 -2 -9
-9 -10 -7 -1 23 -4 67 -7 44 -3 84 -4 89 -2 5 2 75 6 155 8 80 1 169 5 196 7
28 2 53 2 57 -1 4 -2 -4 -34 -17 -71 -13 -36 -22 -69 -19 -72 9 -8 35 32 41
62 3 15 11 29 19 32 8 3 14 10 14 16 0 6 -6 8 -12 4 -10 -6 -10 -4 0 8 16 19
5 49 -17 46 -9 -1 -90 -4 -181 -8z"/>
<path d="M1250 691 c0 -5 5 -13 10 -16 6 -3 10 -2 10 4 0 5 -4 13 -10 16 -5 3
-10 2 -10 -4z"/>
<path d="M1700 696 c0 -2 7 -7 16 -10 8 -3 12 -2 9 4 -6 10 -25 14 -25 6z"/>
<path d="M1740 692 c0 -12 19 -26 26 -19 2 2 -2 10 -11 17 -9 8 -15 8 -15 2z"/>
<path d="M1830 692 c0 -5 7 -9 15 -9 8 0 12 4 9 9 -3 4 -9 8 -15 8 -5 0 -9 -4
-9 -8z"/>
<path d="M1115 677 c-10 -8 -15 -19 -11 -26 6 -9 13 -8 27 5 33 30 20 47 -16
21z"/>
<path d="M1186 645 c-14 -13 -26 -27 -26 -31 0 -4 10 2 23 14 13 12 28 22 35
22 6 0 14 5 17 10 12 20 -23 9 -49 -15z"/>
<path d="M1133 648 c-12 -15 -13 -48 -2 -48 8 0 22 50 16 56 -2 3 -9 -1 -14
-8z"/>
<path d="M1285 650 c3 -5 8 -10 11 -10 2 0 4 5 4 10 0 6 -5 10 -11 10 -5 0 -7
-4 -4 -10z"/>
<path d="M1325 650 c3 -5 10 -10 16 -10 5 0 9 5 9 10 0 6 -7 10 -16 10 -8 0
-12 -4 -9 -10z"/>
<path d="M1184 608 c-10 -12 -13 -18 -5 -13 8 5 5 -6 -8 -23 -25 -35 -46 -42
-38 -13 8 31 -28 33 -55 2 l-23 -26 29 25 c29 25 29 25 23 3 -3 -16 -1 -23 9
-23 18 0 18 -7 -1 -60 -21 -59 -18 -64 6 -10 16 35 22 41 30 30 8 -11 9 -9 4
8 -5 18 1 30 30 58 20 19 40 32 45 29 5 -3 11 -1 15 5 6 10 -7 14 -34 11 -7
-2 -10 2 -6 8 11 18 -1 12 -21 -11z"/>
<path d="M1265 619 c-4 -6 -5 -12 -2 -15 2 -3 7 2 10 11 7 17 1 20 -8 4z"/>
<path d="M1290 619 c0 -5 5 -7 10 -4 6 3 10 8 10 11 0 2 -4 4 -10 4 -5 0 -10
-5 -10 -11z"/>
<path d="M1530 625 c0 -9 40 -75 46 -75 12 0 1 29 -21 54 -14 16 -25 26 -25
21z"/>
<path d="M1582 621 c-10 -6 -8 -13 7 -32 l20 -24 -3 28 c-4 34 -8 38 -24 28z"/>
<path d="M1350 600 c0 -5 5 -10 10 -10 6 0 10 5 10 10 0 6 -4 10 -10 10 -5 0
-10 -4 -10 -10z"/>
<path d="M1320 570 c0 -4 14 -13 30 -19 17 -5 30 -8 30 -6 0 2 -13 10 -30 19
-16 8 -30 11 -30 6z"/>
<path d="M1226 563 c-4 -5 -12 -8 -18 -8 -6 0 -16 -7 -21 -17 -12 -18 2 -41
35 -59 17 -9 18 -8 6 10 -6 11 -16 17 -20 15 -14 -9 -21 27 -8 39 10 10 12 8
7 -6 -5 -12 -3 -16 4 -11 6 4 15 0 20 -7 6 -10 8 -4 7 19 -1 17 -3 32 -3 32
-1 0 -5 -3 -9 -7z"/>
<path d="M1259 558 c-7 -23 -6 -118 1 -118 5 0 9 10 8 23 -1 12 2 32 6 44 4
12 2 24 -4 28 -6 3 -8 11 -5 16 4 5 4 9 1 9 -3 0 -6 -1 -7 -2z"/>
<path d="M1746 545 c4 -8 11 -15 16 -15 6 0 5 6 -2 15 -7 8 -14 15 -16 15 -2
0 -1 -7 2 -15z"/>
<path d="M1280 542 c0 -5 7 -13 16 -16 10 -4 14 -1 12 6 -5 15 -28 23 -28 10z"/>
<path d="M1465 540 c3 -5 8 -10 11 -10 2 0 4 5 4 10 0 6 -5 10 -11 10 -5 0 -7
-4 -4 -10z"/>
<path d="M1912 530 c-7 -11 -8 -20 -3 -20 9 0 24 30 18 36 -1 2 -8 -6 -15 -16z"/>
<path d="M1580 529 c0 -5 5 -7 10 -4 6 3 10 8 10 11 0 2 -4 4 -10 4 -5 0 -10
-5 -10 -11z"/>
<path d="M1650 529 c0 -5 5 -7 10 -4 6 3 10 8 10 11 0 2 -4 4 -10 4 -5 0 -10
-5 -10 -11z"/>
<path d="M1086 514 c-5 -14 -4 -15 9 -4 17 14 19 20 6 20 -5 0 -12 -7 -15 -16z"/>
<path d="M1332 506 c0 -11 2 -16 6 -10 4 6 14 13 22 16 11 3 9 6 -6 10 -15 4
-20 0 -22 -16z"/>
<path d="M1867 523 c-14 -14 -7 -32 10 -26 11 4 13 8 5 11 -7 2 -10 8 -6 13 6
10 0 12 -9 2z"/>
<path d="M979 518 c-6 -16 -4 -56 3 -52 5 3 7 9 4 12 -3 3 1 14 11 24 15 17
15 18 0 18 -10 0 -17 -1 -18 -2z"/>
<path d="M298 503 c7 -3 16 -2 19 1 4 3 -2 6 -13 5 -11 0 -14 -3 -6 -6z"/>
<path d="M1290 510 c-8 -26 -7 -41 2 -32 6 6 8 16 5 24 -3 7 -6 11 -7 8z"/>
<path d="M1165 480 c-3 -6 -3 -20 1 -32 6 -20 7 -21 19 -4 15 20 23 12 40 -38
6 -16 15 -31 22 -33 17 -6 -5 62 -30 87 -18 20 -19 20 -33 3 -14 -17 -15 -17
-9 5 7 23 1 30 -10 12z"/>
<path d="M1135 468 c-3 -7 -12 -33 -20 -58 l-16 -45 22 21 c11 12 23 38 26 58
4 35 -3 49 -12 24z"/>
<path d="M1035 439 c-4 -6 -5 -12 -2 -15 2 -3 7 2 10 11 7 17 1 20 -8 4z"/>
<path d="M1083 405 c-3 -9 -3 -18 -1 -21 3 -3 8 4 11 16 6 23 -1 27 -10 5z"/>
<path d="M1150 390 c-7 -17 -10 -33 -8 -36 3 -3 11 9 17 27 14 42 7 49 -9 9z"/>
<path d="M1402 382 c-36 -34 -43 -63 -13 -55 12 3 17 11 14 23 -5 17 10 33 35
36 6 1 12 -2 12 -7 0 -6 5 -7 12 -3 8 5 9 2 5 -10 -6 -16 -5 -16 23 0 16 10
26 22 23 27 -3 5 -9 4 -13 -3 -5 -8 -9 -8 -11 -2 -2 6 -16 13 -30 17 -20 5
-33 0 -57 -23z"/>
<path d="M1655 400 c-3 -5 -1 -10 4 -10 6 0 11 5 11 10 0 6 -2 10 -4 10 -3 0
-8 -4 -11 -10z"/>
<path d="M1270 366 c0 -8 -6 -17 -12 -19 -8 -3 -6 -6 5 -6 9 -1 17 4 17 10 0
5 4 8 9 4 5 -3 23 -7 40 -9 26 -3 41 8 41 30 0 7 -35 -10 -42 -20 -5 -7 -8 -3
-8 9 0 17 -2 17 -10 5 -6 -10 -10 -11 -10 -2 0 6 -7 12 -15 12 -8 0 -15 -6
-15 -14z"/>
<path d="M1398 313 c7 -3 16 -2 19 1 4 3 -2 6 -13 5 -11 0 -14 -3 -6 -6z"/>
<path d="M1452 287 c-12 -7 -19 -17 -15 -22 4 -4 0 -5 -9 -2 -10 3 -20 2 -23
-3 -14 -23 44 -8 59 15 19 29 19 29 -12 12z"/>
<path d="M1581 284 c0 -11 3 -14 6 -6 3 7 2 16 -1 19 -3 4 -6 -2 -5 -13z"/>
<path d="M1569 253 c0 -5 -2 -18 -3 -30 -1 -12 1 -20 5 -18 10 7 17 55 8 55
-5 0 -9 -3 -10 -7z"/>
<path d="M1455 230 c-3 -5 -1 -10 4 -10 6 0 11 5 11 10 0 6 -2 10 -4 10 -3 0
-8 -4 -11 -10z"/>
<path d="M1410 206 c0 -8 6 -18 13 -22 6 -4 9 -4 5 1 -4 4 -3 14 3 22 9 10 8
13 -5 13 -9 0 -16 -6 -16 -14z"/>
<path d="M1479 193 c-13 -16 -12 -17 4 -4 16 13 21 21 13 21 -2 0 -10 -8 -17
-17z"/>
<path d="M1413 165 c-18 -8 -33 -16 -33 -19 0 -8 59 15 66 25 7 11 6 11 -33
-6z"/>
<path d="M1190 160 c-9 -6 -10 -10 -3 -10 6 0 15 5 18 10 8 12 4 12 -15 0z"/>
<path d="M1554 126 c-8 -35 -7 -43 2 -35 16 13 22 40 15 62 -4 12 -10 4 -17
-27z"/>
<path d="M1430 129 c0 -5 5 -7 10 -4 6 3 10 8 10 11 0 2 -4 4 -10 4 -5 0 -10
-5 -10 -11z"/>
<path d="M1440 110 c-9 -6 -10 -10 -3 -10 6 0 15 5 18 10 8 12 4 12 -15 0z"/>
<path d="M1305 40 c3 -5 11 -10 16 -10 6 0 7 5 4 10 -3 6 -11 10 -16 10 -6 0
-7 -4 -4 -10z"/>
</g>
</svg>
