<?xml version="1.0" standalone="no"?>
<!DOCTYPE svg PUBLIC "-//W3C//DTD SVG 20010904//EN"
 "http://www.w3.org/TR/2001/REC-SVG-20010904/DTD/svg10.dtd">
<svg version="1.0" xmlns="http://www.w3.org/2000/svg"
 width="300.000000pt" height="225.000000pt" viewBox="0 0 300.000000 225.000000"
 preserveAspectRatio="xMidYMid meet">
<metadata>
Created by potrace 1.10, written by Peter Selinger 2001-2011
</metadata>
<g transform="translate(0.000000,225.000000) scale(0.100000,-0.100000)"
fill="#000000" stroke="none">
<path d="M762 2145 c-35 -39 -48 -100 -37 -172 12 -80 14 -136 3 -176 -14 -59
4 -98 68 -147 29 -24 54 -45 55 -49 0 -3 2 -52 2 -108 2 -94 0 -103 -18 -108
-11 -3 -42 -33 -70 -66 -52 -64 -65 -108 -38 -134 19 -19 34 -19 27 -1 -4 10
1 14 15 13 23 -1 27 -17 10 -34 -8 -8 -8 -16 1 -30 10 -16 11 -16 7 5 -7 33 2
27 18 -12 8 -19 13 -47 11 -63 -2 -15 -1 -20 1 -10 5 18 15 22 26 10 4 -3 2
-12 -4 -19 -6 -7 -9 -23 -6 -36 4 -20 4 -20 6 5 1 34 17 35 25 2 4 -14 11 -25
17 -25 6 0 6 7 -1 20 -6 11 -8 26 -4 32 5 7 3 8 -6 3 -9 -6 -10 -1 -5 16 4 17
3 20 -3 10 -6 -8 -12 -9 -16 -3 -3 5 3 17 14 27 18 16 20 16 20 2 0 -9 5 -19
12 -23 6 -4 8 -3 4 4 -3 6 1 18 10 26 14 14 14 17 1 22 -13 5 -12 9 4 25 10
10 23 19 29 19 5 0 9 3 9 8 -1 4 -1 18 0 31 1 23 2 24 21 6 11 -10 17 -22 14
-26 -3 -5 -1 -9 5 -9 25 0 15 19 -39 71 -33 31 -62 54 -65 51 -3 -3 -5 4 -5
15 0 27 -10 35 -27 22 -10 -9 -13 -8 -13 4 0 8 7 20 15 27 8 7 15 8 15 3 0 -5
16 -29 36 -52 27 -30 42 -41 56 -38 14 4 18 1 14 -9 -3 -8 -1 -14 4 -14 6 0
10 5 10 11 0 5 4 8 9 4 6 -3 15 3 20 14 15 27 14 31 -10 31 -13 0 -18 -4 -13
-12 5 -7 2 -8 -7 -3 -39 22 -66 60 -36 51 43 -14 67 -15 67 -5 0 7 -3 10 -6 6
-4 -3 -19 0 -33 8 -15 7 -33 10 -40 6 -16 -10 -4 -61 15 -61 8 0 14 -4 14 -10
0 -23 -28 -7 -52 30 -14 24 -14 28 0 55 20 38 26 91 11 101 -8 5 -10 -1 -7
-20 9 -46 -10 -38 -26 11 l-16 48 5 -40 c3 -25 13 -47 26 -57 12 -10 17 -18
12 -18 -6 0 -15 -10 -21 -22 -10 -21 -11 -22 -11 -3 -1 11 -8 39 -16 61 -12
37 -12 48 3 100 10 33 17 81 15 109 -1 35 4 59 18 81 10 17 19 37 19 43 0 6
15 28 33 48 48 54 56 61 68 65 8 3 9 10 2 23 -5 11 -26 54 -47 97 -24 50 -54
92 -86 122 -62 58 -95 61 -138 11z m75 -13 l-4 27 35 -24 c35 -24 92 -97 92
-118 0 -6 7 -19 16 -28 14 -16 15 -23 3 -51 -7 -18 -19 -37 -26 -41 -7 -5 -10
-13 -7 -19 5 -7 -2 -9 -19 -4 -19 4 -33 0 -54 -19 -15 -13 -23 -25 -17 -25 6
0 19 9 29 20 22 25 43 27 24 3 -7 -10 -9 -15 -5 -11 5 4 15 3 23 -3 11 -9 6
-17 -22 -42 -19 -16 -35 -35 -35 -43 0 -7 -11 -21 -25 -32 -14 -11 -25 -26
-25 -32 0 -9 -7 -7 -20 5 -10 9 -25 15 -33 12 -7 -3 -14 1 -14 8 0 9 10 12 36
8 20 -3 33 -2 28 2 -4 5 -17 9 -30 10 -12 2 -21 8 -19 15 2 8 -3 10 -13 7 -12
-5 -15 1 -15 31 l1 37 19 -24 c24 -27 27 -15 5 16 -17 25 -17 93 -1 87 6 -2
11 7 11 20 0 13 -3 22 -7 20 -4 -2 -9 0 -13 6 -3 5 -2 10 4 10 5 0 7 10 4 23
-10 39 -12 108 -3 102 4 -3 6 4 3 15 -3 12 0 20 6 20 7 0 10 4 6 9 -3 5 -1 13
5 16 6 4 9 1 8 -6 -2 -6 3 -14 11 -17 10 -3 12 0 8 11 -11 28 8 29 21 0 l13
-28 -4 27z m169 -240 c-12 -12 -18 8 -10 35 l8 28 4 -28 c2 -16 1 -31 -2 -35z
m-40 -37 c-3 -8 -13 -15 -21 -15 -15 0 -15 1 -1 16 9 8 16 21 17 27 0 8 2 8 6
-1 3 -7 2 -19 -1 -27z m-101 -156 c-5 -13 -2 -25 6 -31 11 -8 10 -9 -3 -5 -10
4 -18 -2 -23 -16 -3 -12 -9 -17 -11 -10 -3 6 2 27 10 47 16 39 32 50 21 15z
m-43 -351 c-17 -17 -15 -28 3 -22 9 4 15 0 15 -9 0 -8 -6 -18 -12 -20 -10 -4
-10 -6 0 -6 8 -1 16 8 19 19 6 22 23 27 23 7 0 -7 7 -22 16 -33 8 -10 12 -13
8 -5 -5 9 -3 12 4 7 7 -4 12 -17 12 -28 l0 -21 -23 21 c-18 17 -24 19 -24 8 0
-8 4 -13 8 -10 5 3 14 -4 21 -15 11 -18 13 -18 25 -3 11 15 12 15 13 2 0 -9
-6 -22 -12 -29 -10 -11 -10 -13 0 -7 18 10 15 -2 -9 -36 l-21 -29 -27 23 -26
23 24 -28 c23 -26 24 -28 8 -44 -16 -16 -18 -16 -34 1 -10 10 -12 16 -6 12 9
-5 11 -2 7 8 -3 9 -10 13 -15 10 -5 -3 -9 -1 -9 5 0 5 5 13 10 16 6 3 9 14 9
23 -1 15 -2 15 -6 0 -2 -10 -9 -18 -15 -18 -5 0 -8 6 -5 14 3 7 0 19 -6 25
-14 14 -30 14 -21 -1 4 -7 3 -8 -5 -4 -6 4 -18 3 -26 -4 -9 -7 -15 -8 -20 0
-3 5 0 10 8 10 8 0 21 8 28 17 12 15 12 16 -6 10 -15 -6 -13 -2 7 15 15 13 29
34 31 48 3 27 28 72 36 64 3 -2 -1 -10 -7 -16z"/>
<path d="M786 2102 c-3 -5 1 -9 9 -9 8 0 12 4 9 9 -3 4 -7 8 -9 8 -2 0 -6 -4
-9 -8z"/>
<path d="M814 2078 l-19 -23 23 19 c21 18 27 26 19 26 -2 0 -12 -10 -23 -22z"/>
<path d="M795 1990 c3 -5 13 -10 21 -10 8 0 12 5 9 10 -3 6 -13 10 -21 10 -8
0 -12 -4 -9 -10z"/>
<path d="M933 1979 c26 -15 21 -32 -5 -19 l-23 11 23 -20 c14 -12 18 -21 10
-23 -8 -3 -6 -7 5 -11 13 -5 16 -1 15 21 -2 31 -15 52 -32 52 -6 0 -3 -5 7
-11z"/>
<path d="M797 1948 c4 -13 12 -32 19 -42 12 -18 13 -17 10 5 -4 32 -16 59 -26
59 -5 0 -6 -10 -3 -22z"/>
<path d="M802 1834 c10 -10 20 -15 24 -12 3 4 -5 12 -18 18 -22 12 -22 12 -6
-6z"/>
<path d="M811 1791 c-12 -22 -7 -41 11 -41 5 0 8 6 5 14 -3 8 -2 16 3 18 5 2
6 9 1 17 -7 11 -11 9 -20 -8z"/>
<path d="M810 1265 c-11 -13 -10 -14 4 -9 9 3 16 10 16 15 0 13 -6 11 -20 -6z"/>
<path d="M813 1235 c-7 -8 -13 -17 -13 -20 0 -8 24 -1 32 10 19 25 1 34 -19
10z"/>
<path d="M847 1233 c-10 -9 -9 -23 1 -23 5 0 9 7 9 15 0 17 -1 18 -10 8z"/>
<path d="M873 1215 c0 -8 4 -15 9 -15 4 0 8 4 8 9 0 6 -4 12 -8 15 -5 3 -9 -1
-9 -9z"/>
<path d="M1405 2139 c-56 -52 -73 -82 -96 -174 -19 -76 -17 -85 11 -85 12 0
17 -5 14 -14 -3 -7 2 -16 10 -19 9 -4 16 -2 16 3 0 6 -4 10 -10 10 -5 0 -7 7
-3 16 5 15 7 14 16 -1 13 -25 29 2 16 28 -7 11 -7 23 -1 30 5 7 8 22 6 35 -5
29 12 62 31 62 7 0 17 4 20 10 4 6 -3 6 -21 0 -33 -13 -44 -6 -15 10 12 6 21
18 21 26 0 14 2 14 16 0 23 -24 27 -19 8 10 -9 14 -20 21 -24 17 -34 -41 -48
-67 -43 -81 6 -15 5 -16 -13 -2 -17 14 -18 14 -6 -2 8 -10 9 -19 3 -22 -5 -3
-11 -3 -14 1 -2 5 -2 1 0 -7 3 -8 5 -19 6 -25 1 -5 9 -13 17 -17 10 -5 6 -7
-10 -5 -23 2 -25 6 -24 47 1 24 6 46 13 48 6 2 11 9 11 16 0 6 13 27 29 46 25
30 32 33 48 24 28 -17 59 1 41 23 -10 13 -9 15 7 12 10 -2 27 -18 37 -36 19
-31 19 -31 -1 -26 -12 3 -18 10 -14 16 3 6 1 7 -5 3 -17 -10 -15 -15 13 -26
16 -6 23 -14 19 -25 -3 -8 -2 -15 3 -15 5 0 10 -7 10 -15 0 -8 -6 -15 -13 -15
-8 0 -11 6 -8 15 4 8 1 15 -6 15 -7 0 -10 -8 -7 -20 3 -10 -1 -24 -9 -31 -9
-7 -11 -17 -4 -28 5 -9 5 -23 0 -30 -4 -8 -6 -26 -3 -42 3 -21 -3 -35 -24 -56
-15 -15 -29 -35 -31 -43 -5 -23 47 29 69 70 l20 35 -6 -45 c-3 -24 -13 -52
-21 -61 -14 -15 -14 -20 1 -48 15 -29 14 -32 -1 -38 -16 -6 -16 -7 2 -14 18
-7 18 -8 -1 -8 -15 -1 -29 14 -50 54 -18 32 -33 51 -39 45 -5 -5 4 -29 23 -58
17 -27 31 -61 31 -75 0 -36 9 -34 43 7 23 30 27 44 27 98 0 35 5 120 12 189
11 125 11 127 -13 175 -20 42 -29 49 -56 52 -26 3 -41 -5 -78 -39z m65 -3 c0
-3 -4 -8 -10 -11 -5 -3 -10 -1 -10 4 0 6 5 11 10 11 6 0 10 -2 10 -4z m-130
-228 c0 -26 -23 -18 -25 9 -1 14 3 19 12 16 7 -3 13 -14 13 -25z m190 -145 c0
-20 -3 -24 -11 -16 -7 7 -9 19 -6 27 10 24 17 19 17 -11z"/>
<path d="M1432 2015 c4 -4 3 -14 -3 -21 -6 -8 -12 -36 -13 -63 -2 -39 -7 -54
-27 -70 -29 -23 -24 -30 16 -20 17 4 22 7 12 8 -10 0 -16 5 -12 11 3 5 11 7
18 4 9 -3 12 10 12 43 0 27 3 60 7 75 4 17 2 30 -5 34 -7 4 -9 4 -5 -1z"/>
<path d="M1130 1902 c-8 -3 -17 -8 -20 -12 -3 -4 -16 -11 -30 -15 -24 -7 -24
-7 -5 9 14 10 16 15 6 16 -8 0 -30 -12 -48 -26 -25 -19 -32 -29 -24 -37 8 -8
15 -7 24 2 10 10 8 11 -8 6 -20 -7 -20 -6 -1 9 21 17 41 22 32 7 -7 -11 74 8
91 21 23 18 166 -34 169 -62 3 -20 5 -25 18 -43 13 -17 51 -14 40 4 -3 5 -9 7
-14 4 -4 -3 -10 2 -13 9 -3 8 -1 17 6 19 7 2 -5 12 -25 22 -21 10 -40 27 -44
37 -3 10 -8 18 -12 19 -4 0 -16 2 -27 4 -53 9 -101 12 -115 7z"/>
<path d="M1170 1870 c0 -5 5 -10 11 -10 5 0 7 5 4 10 -3 6 -8 10 -11 10 -2 0
-4 -4 -4 -10z"/>
<path d="M1148 1864 c-8 -8 33 -55 42 -49 5 3 10 -2 14 -10 3 -8 12 -12 20 -9
8 3 20 -4 29 -16 14 -20 16 -20 31 -4 11 11 14 20 8 26 -13 13 -34 0 -26 -15
3 -7 -3 -3 -13 9 -10 11 -33 27 -51 34 -18 7 -36 19 -40 27 -5 7 -11 11 -14 7z"/>
<path d="M1208 1853 c6 -2 18 -2 25 0 6 3 1 5 -13 5 -14 0 -19 -2 -12 -5z"/>
<path d="M1053 1830 c-18 -9 -40 -24 -50 -31 -15 -12 -16 -12 -10 3 3 10 2 20
-2 22 -5 3 -7 -5 -7 -17 1 -12 -7 -33 -18 -46 l-21 -24 28 18 c15 9 27 13 27
8 0 -6 11 -8 25 -5 18 3 31 -2 41 -14 9 -11 12 -13 8 -5 -5 9 -3 12 5 7 6 -4
9 -12 5 -17 -3 -6 2 -19 12 -30 16 -18 16 -19 0 -19 -9 0 -14 -4 -11 -10 3 -5
1 -10 -4 -10 -6 0 -11 -7 -11 -15 0 -14 3 -14 24 0 33 22 39 41 22 74 -20 38
-37 50 -73 53 -40 3 -35 13 8 16 18 2 39 -4 50 -14 9 -8 26 -14 36 -12 15 3
14 7 -10 23 -16 10 -42 18 -57 18 -16 0 -27 4 -24 9 10 15 87 -3 112 -26 l24
-21 -13 28 c-11 25 -21 32 -43 28 -5 -1 -16 5 -25 13 -14 12 -20 12 -48 -4z"/>
<path d="M1250 1841 c0 -10 19 -25 25 -20 1 2 -3 10 -11 17 -8 7 -14 8 -14 3z"/>
<path d="M1388 1823 c-16 -4 -16 -6 -4 -19 20 -19 25 -18 23 6 -1 11 -1 19 -2
19 0 -1 -8 -3 -17 -6z"/>
<path d="M1366 1752 c-2 -4 4 -9 15 -9 11 -1 17 2 14 8 -7 11 -22 12 -29 1z"/>
<path d="M1020 1740 c-8 -5 -25 -10 -36 -10 -12 0 -32 -9 -45 -20 -20 -17 -20
-19 -3 -9 29 17 94 4 94 -19 0 -14 2 -14 9 -3 5 7 14 10 20 7 7 -5 11 1 11 15
0 17 -3 19 -14 10 -10 -9 -15 -8 -20 4 -3 8 -1 15 4 15 6 0 10 5 10 10 0 13
-11 13 -30 0z"/>
<path d="M1260 1735 c-7 -8 -9 -15 -5 -15 5 0 1 -8 -7 -17 -9 -10 -14 -25 -13
-34 2 -11 -3 -16 -14 -14 -11 1 -16 12 -15 36 l2 34 -12 -28 c-7 -16 -14 -27
-17 -26 -2 1 -23 -10 -46 -24 -24 -15 -45 -27 -48 -27 -16 0 -83 -86 -74 -95
3 -2 13 9 24 25 11 16 36 39 57 52 21 13 38 27 38 31 0 5 4 6 9 2 6 -3 14 3
20 12 9 17 10 17 16 1 4 -10 12 -18 17 -18 6 0 7 8 4 18 -5 15 -5 15 6 1 7 -9
19 -14 26 -12 6 3 12 0 12 -6 0 -6 6 -11 13 -11 8 0 24 -11 37 -25 13 -14 28
-25 34 -25 5 0 0 9 -13 21 -12 12 -20 24 -16 27 3 3 11 0 17 -6 7 -7 25 -12
40 -12 15 0 28 -4 28 -9 0 -4 10 -8 23 -7 19 1 22 7 22 39 0 20 4 37 9 37 9 0
2 -101 -10 -136 -5 -15 -4 -16 5 -4 17 24 23 4 16 -49 -6 -47 -9 -51 -31 -47
-23 5 -23 4 -9 -24 8 -16 14 -44 14 -62 l-1 -33 -7 30 -7 30 -7 -40 c-4 -22
-8 -51 -10 -64 -2 -23 -27 -44 -27 -23 0 6 5 12 10 14 7 2 5 11 -3 22 -13 18
-14 17 -14 -15 1 -29 -6 -42 -39 -70 -21 -20 -50 -43 -64 -52 -13 -9 -19 -17
-12 -17 6 0 12 -7 12 -16 0 -8 5 -12 11 -9 6 4 8 13 5 21 -4 10 2 12 24 7 19
-3 30 -1 30 5 0 6 -7 9 -15 6 -8 -4 -15 -2 -15 4 0 15 26 33 35 24 5 -4 5 -1
1 6 -6 11 5 17 27 13 4 0 6 4 5 10 -2 6 3 14 11 17 10 3 11 0 5 -9 -6 -11 -5
-12 7 -2 12 10 15 8 16 -9 1 -12 8 -25 15 -29 9 -6 9 -9 1 -9 -7 0 -11 -14
-10 -34 1 -19 5 -32 10 -29 4 2 7 -3 7 -11 0 -8 -5 -18 -10 -21 -6 -4 -4 -12
5 -21 8 -9 13 -19 11 -22 -2 -4 -7 -34 -11 -67 -3 -33 -10 -62 -13 -65 -4 -3
-8 -14 -10 -24 -3 -18 -2 -18 13 -2 9 9 18 16 20 16 1 0 2 -30 2 -67 0 -38 2
-83 5 -100 3 -18 3 -33 -1 -33 -3 0 -6 -16 -5 -35 1 -19 -1 -35 -6 -35 -4 0
-6 -16 -3 -35 3 -28 0 -35 -14 -35 -14 0 -15 -2 -4 -9 8 -6 10 -14 5 -22 -12
-20 -15 -36 -18 -109 -2 -36 -5 -67 -6 -70 -1 -3 -1 -18 0 -34 1 -18 -2 -26
-9 -22 -6 4 -11 13 -11 19 -1 14 -35 57 -45 57 -3 0 3 -12 14 -26 23 -29 28
-49 9 -38 -7 4 -8 3 -4 -5 4 -6 11 -9 16 -6 4 3 20 -12 35 -33 16 -20 38 -45
49 -55 12 -10 15 -16 8 -12 -11 6 -12 3 -2 -15 6 -12 9 -24 6 -27 -3 -3 -1
-14 5 -24 11 -22 0 -25 -26 -6 -12 9 -14 16 -7 21 13 8 -3 54 -27 73 -20 18
-58 16 -65 -2 -3 -9 0 -15 10 -15 8 0 12 5 9 10 -3 6 3 10 15 10 17 0 20 -4
15 -20 -4 -12 -1 -28 6 -36 10 -13 10 -17 0 -23 -10 -6 -9 -10 3 -14 9 -4 16
-16 16 -28 0 -15 4 -19 16 -15 9 3 27 6 40 6 15 0 24 6 24 16 0 12 7 15 25 12
14 -3 25 -3 25 -1 0 8 -25 28 -40 31 -8 2 -19 8 -25 14 -7 8 -5 9 8 5 24 -9
21 6 -8 33 -60 57 -76 171 -41 305 32 126 34 160 23 495 -5 128 -10 179 -27
229 l-20 64 20 22 c13 14 25 45 30 81 5 33 14 75 19 94 6 19 9 42 6 51 -3 9
-7 44 -9 76 -5 84 -29 131 -72 139 -24 4 -38 2 -49 -10 -24 -23 -41 -20 -20 4
10 11 14 20 8 20 -13 0 -38 -29 -47 -54 -4 -13 -10 -16 -17 -9 -6 6 -6 19 1
38 12 33 8 42 -10 20z m147 -36 c25 -16 31 -24 22 -30 -16 -9 -32 -1 -24 12 9
14 -31 11 -42 -3 -6 -7 -13 -26 -17 -42 -5 -22 -10 -26 -16 -17 -4 8 -17 12
-28 9 -11 -3 -26 -1 -33 4 -11 8 -10 8 4 4 11 -3 16 -2 12 4 -3 6 -13 10 -22
10 -19 0 -9 13 11 16 7 1 24 5 36 9 15 5 20 3 16 -3 -3 -6 -2 -13 4 -17 5 -3
10 3 10 15 0 11 7 23 15 26 8 4 12 10 9 15 -9 15 7 10 43 -12z m-3 -45 c18 -7
23 -64 5 -64 -5 0 -7 5 -4 11 4 6 1 10 -6 8 -26 -3 -39 1 -39 12 0 6 9 8 20 4
14 -5 20 -2 20 10 0 9 -4 13 -10 10 -5 -3 -10 -1 -10 4 0 13 3 13 24 5z m26
-255 c0 -6 -4 -7 -10 -4 -5 3 -10 11 -10 16 0 6 5 7 10 4 6 -3 10 -11 10 -16z
m-30 -1238 c0 -5 3 -18 6 -28 5 -16 4 -16 -10 1 -18 23 -20 36 -6 36 6 0 10
-4 10 -9z"/>
<path d="M1480 1730 c0 -5 5 -10 11 -10 5 0 7 5 4 10 -3 6 -8 10 -11 10 -2 0
-4 -4 -4 -10z"/>
<path d="M935 1683 c-24 -6 -35 -21 -34 -48 0 -16 3 -13 15 10 11 24 13 25 10
7 -4 -22 -3 -23 13 -8 20 19 41 21 41 5 0 -6 -6 -9 -14 -6 -16 6 -30 -19 -20
-35 4 -6 22 -8 41 -5 28 5 34 3 29 -9 -3 -9 -6 -18 -6 -20 0 -3 -4 -3 -9 1 -5
3 -12 1 -15 -4 -15 -23 24 -2 48 26 28 33 32 48 16 58 -5 3 -7 0 -4 -8 12 -33
-16 -25 -30 8 -15 36 -29 41 -81 28z m62 -9 c-3 -3 -12 -4 -19 -1 -8 3 -5 6 6
6 11 1 17 -2 13 -5z m23 -49 c14 -18 14 -19 -2 -7 -11 9 -18 10 -23 2 -8 -13
-45 -13 -45 0 0 6 11 10 25 10 14 0 25 5 25 12 0 6 1 9 3 7 1 -2 9 -13 17 -24z"/>
<path d="M1130 1601 c0 -5 9 -7 20 -4 11 3 20 7 20 9 0 2 -9 4 -20 4 -11 0
-20 -4 -20 -9z"/>
<path d="M1188 1603 c7 -3 16 -2 19 1 4 3 -2 6 -13 5 -11 0 -14 -3 -6 -6z"/>
<path d="M918 1593 c-12 -3 -17 -12 -14 -32 3 -30 25 -75 26 -52 0 7 6 11 15
8 8 -4 17 -1 21 5 4 7 3 8 -4 4 -16 -10 -15 17 0 32 9 9 7 12 -11 12 -16 0
-21 4 -17 15 3 8 4 14 3 14 -1 -1 -10 -3 -19 -6z m26 -48 c-4 -8 -10 -15 -14
-15 -4 0 -10 7 -14 15 -4 10 1 15 14 15 13 0 18 -5 14 -15z"/>
<path d="M958 1583 c7 -3 16 -2 19 1 4 3 -2 6 -13 5 -11 0 -14 -3 -6 -6z"/>
<path d="M1147 1583 c-5 -4 -24 -8 -44 -9 -39 -1 -73 -31 -73 -65 0 -28 -37
-46 -52 -25 -8 11 -31 -41 -23 -53 7 -12 75 -12 75 0 0 6 -4 7 -10 4 -5 -3
-10 -1 -10 5 0 6 7 13 15 16 8 4 12 10 9 15 -3 5 -1 9 5 9 5 0 13 -5 16 -10 3
-6 17 -7 30 -4 12 3 26 1 29 -5 4 -6 -5 -13 -20 -17 -17 -4 -22 -9 -14 -14 8
-5 9 -10 2 -14 -13 -8 -4 -36 10 -36 7 0 6 5 -1 13 -8 11 -5 19 15 36 14 12
29 19 34 16 4 -3 16 2 25 11 22 23 30 10 15 -25 -6 -16 -25 -35 -41 -41 -16
-7 -27 -15 -24 -19 7 -12 -54 -63 -66 -55 -8 4 -9 3 -5 -4 4 -7 3 -12 -3 -12
-5 0 -9 -9 -8 -20 1 -10 3 -17 5 -15 3 2 13 -6 24 -18 l19 -22 -10 22 c-15 29
-14 56 1 47 6 -4 8 -3 4 4 -3 6 -1 14 4 17 8 5 9 -5 5 -32 -6 -35 -5 -36 9
-19 17 21 38 13 29 -11 -4 -10 -2 -14 5 -9 6 3 13 2 16 -2 3 -5 -22 -14 -56
-19 -57 -9 -63 -9 -80 11 -9 12 -17 16 -18 10 0 -16 37 -47 49 -40 5 4 12 2
16 -4 3 -5 -2 -10 -11 -10 -16 0 -16 -1 -1 -18 15 -16 15 -20 -7 -45 -13 -15
-38 -32 -54 -37 -29 -8 -30 -7 -23 13 5 12 6 28 4 35 -5 14 -33 16 -33 2 0 -5
4 -10 9 -10 5 0 7 -13 5 -30 -3 -18 -1 -30 6 -30 6 0 8 -5 4 -12 -5 -8 -12 -3
-19 15 -11 26 -12 24 -13 -27 -1 -31 2 -56 6 -56 11 0 12 -39 1 -45 -5 -4 -9
-1 -9 4 0 6 -5 11 -12 11 -6 0 -4 -7 5 -18 10 -10 14 -22 10 -25 -3 -4 -1 -7
5 -7 7 0 12 7 12 16 0 10 6 14 15 10 8 -3 15 -1 15 4 0 6 -5 10 -10 10 -14 0
-8 23 10 37 13 11 13 12 -1 13 -28 0 -30 27 -4 44 13 9 28 16 32 16 14 0 96
112 99 134 1 12 3 22 3 24 1 2 11 -4 23 -12 12 -9 32 -16 43 -15 11 0 14 3 8
6 -21 8 -15 22 6 16 11 -3 28 0 38 6 16 9 14 10 -12 11 -23 0 -27 3 -15 10 12
8 9 10 -11 10 -42 0 -78 55 -59 89 11 22 47 34 56 19 4 -6 9 -6 14 2 4 7 15
10 25 7 9 -4 13 -11 10 -17 -3 -6 1 -7 9 -4 9 3 16 2 16 -4 0 -14 -42 -23 -56
-11 -8 7 -15 6 -20 -2 -4 -8 -3 -9 4 -5 7 4 12 2 12 -3 0 -6 15 -10 34 -8 19
1 32 5 30 9 -2 4 0 9 6 13 13 8 13 -28 0 -41 -11 -11 -3 -44 10 -44 4 0 11 12
14 26 5 20 10 24 19 15 8 -8 8 -14 0 -22 -12 -12 -6 -49 8 -49 5 0 9 15 9 33
0 25 3 29 11 17 9 -13 10 -13 7 1 -3 18 -103 109 -119 109 -6 0 -7 5 -3 11 4
7 -1 7 -16 -1 -12 -6 -24 -9 -28 -6 -3 3 0 6 7 6 7 0 9 5 5 12 -4 7 -3 8 4 4
9 -5 12 10 11 56 -1 35 -4 53 -6 41 -2 -13 -10 -24 -16 -25 -7 0 -16 -2 -22
-2 -5 -1 -16 -5 -23 -9 -7 -5 -14 -2 -18 7 -4 10 -15 14 -30 12 -13 -3 -24 0
-24 5 0 6 -4 8 -8 5 -15 -9 -10 28 6 47 19 21 32 22 32 2 0 -8 -6 -15 -14 -15
-24 0 -28 -17 -6 -23 11 -3 18 -1 14 4 -7 12 -2 11 41 -7 25 -10 41 -12 48 -5
12 12 2 41 -14 41 -6 0 -9 -7 -5 -15 9 -24 -32 -18 -45 6 -8 16 -8 24 1 33 6
6 11 7 10 1 -5 -22 1 -26 16 -11 23 23 52 20 57 -6 l4 -23 2 23 c1 23 10 26
49 16 14 -4 22 -14 22 -28 0 -17 -2 -18 -10 -6 -8 13 -10 12 -10 -2 0 -10 -4
-18 -10 -18 -5 0 -7 7 -4 15 4 9 0 15 -10 15 -13 0 -15 -10 -14 -50 3 -48 10
-61 23 -40 3 6 2 10 -4 10 -6 0 -8 7 -5 15 8 20 70 49 88 42 10 -4 13 -1 10 7
-3 8 -14 12 -25 9 -10 -3 -19 0 -19 6 0 6 8 11 18 12 9 0 2 6 -16 13 -18 6
-31 14 -28 17 3 3 -18 7 -47 8 -29 1 -56 -2 -60 -6z m-147 -120 c0 -9 -31 -35
-36 -31 -9 9 7 35 21 35 8 0 15 -2 15 -4z"/>
<path d="M1340 1583 c0 -7 5 -15 10 -18 6 -3 10 -11 10 -17 0 -7 -6 -6 -15 2
-12 10 -15 9 -15 -4 0 -9 7 -19 15 -22 8 -4 15 -10 15 -16 0 -5 -4 -7 -9 -4
-5 3 -14 -1 -20 -8 -12 -14 -9 -18 20 -29 14 -4 16 3 14 49 -1 30 -7 60 -13
66 -9 9 -12 9 -12 1z"/>
<path d="M1495 1580 c-3 -6 1 -7 9 -4 18 7 21 14 7 14 -6 0 -13 -4 -16 -10z"/>
<path d="M980 1521 c-6 -12 -7 -21 -1 -21 10 0 24 30 17 37 -2 3 -9 -5 -16
-16z"/>
<path d="M1389 1475 c-4 -24 -1 -31 12 -31 12 0 15 5 10 16 -5 8 -10 22 -13
30 -3 8 -7 2 -9 -15z"/>
<path d="M1300 1483 c0 -5 3 -13 8 -17 4 -4 7 -13 7 -19 0 -6 12 -14 28 -18
15 -4 27 -3 27 2 0 5 -6 9 -14 9 -8 0 -24 12 -35 26 -12 15 -21 22 -21 17z"/>
<path d="M1245 1470 c-3 -5 -1 -10 5 -10 7 0 5 -7 -4 -16 -20 -19 -20 -21 -1
-21 8 0 17 7 19 14 4 8 11 11 18 7 7 -4 4 2 -6 14 -22 25 -23 25 -31 12z"/>
<path d="M1040 1439 c0 -11 5 -17 10 -14 6 3 10 13 10 21 0 8 -4 14 -10 14 -5
0 -10 -9 -10 -21z"/>
<path d="M1270 1421 c0 -6 -8 -11 -17 -12 -10 0 -13 -3 -6 -5 18 -8 49 11 34
20 -6 4 -11 2 -11 -3z"/>
<path d="M1323 1405 c0 -8 4 -15 9 -15 4 0 8 4 8 9 0 6 -4 12 -8 15 -5 3 -9
-1 -9 -9z"/>
<path d="M940 1395 c-8 -9 -8 -15 -2 -15 12 0 26 19 19 26 -2 2 -10 -2 -17
-11z"/>
<path d="M970 1399 c0 -5 14 -9 30 -9 39 0 39 15 0 16 -17 1 -30 -3 -30 -7z"/>
<path d="M1370 1386 c28 -17 50 -21 35 -7 -6 5 -21 12 -35 15 l-25 7 25 -15z"/>
<path d="M1056 1377 c3 -10 9 -15 12 -12 3 3 0 11 -7 18 -10 9 -11 8 -5 -6z"/>
<path d="M1270 1386 c0 -2 7 -7 16 -10 8 -3 12 -2 9 4 -6 10 -25 14 -25 6z"/>
<path d="M1030 1360 c0 -5 5 -10 10 -10 6 0 10 5 10 10 0 6 -4 10 -10 10 -5 0
-10 -4 -10 -10z"/>
<path d="M1306 1354 c-3 -8 -2 -12 4 -9 6 3 13 -1 16 -10 5 -12 9 -13 20 -4
11 9 14 8 14 -6 0 -14 3 -15 15 -5 17 14 21 35 5 25 -6 -4 -17 -1 -25 5 -11
10 -15 10 -15 1 0 -7 -5 -9 -10 -6 -6 4 -8 11 -5 16 4 5 2 9 -3 9 -6 0 -13 -7
-16 -16z"/>
<path d="M1137 1343 c-4 -3 -7 -13 -7 -21 0 -12 3 -12 15 -2 8 7 15 16 15 21
0 11 -14 12 -23 2z"/>
<path d="M1208 1282 c-3 -11 -2 -25 2 -32 5 -8 9 -4 13 11 4 13 3 27 -2 32 -5
5 -11 0 -13 -11z"/>
<path d="M1147 1273 c3 -7 9 -10 14 -7 14 8 11 21 -5 21 -8 0 -12 -6 -9 -14z"/>
<path d="M1025 1240 c3 -5 8 -10 11 -10 2 0 4 5 4 10 0 6 -5 10 -11 10 -5 0
-7 -4 -4 -10z"/>
<path d="M672 1192 c-16 -26 -33 -59 -37 -73 -4 -13 -28 -71 -52 -129 -25 -58
-49 -118 -54 -135 -16 -56 -39 -260 -39 -346 0 -47 -3 -89 -7 -93 -5 -4 -8
-33 -8 -64 0 -47 -8 -72 -43 -141 -41 -81 -42 -85 -25 -102 21 -19 93 -35 93
-20 0 13 -35 32 -44 24 -3 -3 -6 -1 -6 6 0 7 6 11 14 8 10 -4 12 0 9 14 -3 10
-10 19 -15 19 -5 0 -6 5 -3 10 4 6 11 8 16 5 11 -7 -1 28 -13 36 -5 3 -5 14
-2 24 7 18 8 18 14 0 6 -16 10 -14 30 16 13 19 20 31 16 27 -5 -4 -14 -1 -21
5 -10 10 -10 19 1 49 7 22 9 40 4 43 -5 3 -4 16 2 31 11 23 13 24 24 9 8 -10
14 -12 19 -6 3 6 1 11 -5 11 -7 0 -10 6 -7 14 3 8 -1 22 -8 33 -19 24 -18 31
3 36 14 4 14 5 1 6 -13 1 -16 12 -15 54 1 51 2 52 31 51 17 0 22 1 12 3 -9 3
-15 9 -11 14 3 5 10 7 15 4 5 -4 9 -1 9 4 0 15 -6 14 -35 -5 -25 -16 -25 -16
-16 7 4 13 10 22 13 19 3 -3 13 2 22 9 17 14 17 15 -3 23 -25 9 -27 26 -6 34
8 4 15 10 15 16 0 5 -6 6 -12 2 -10 -6 -10 -4 0 8 9 11 10 18 2 23 -16 10 -12
45 6 45 10 0 12 4 7 13 -13 20 -11 30 14 78 13 25 26 54 28 65 2 10 4 21 5 24
0 3 7 -3 14 -13 8 -10 17 -14 20 -9 3 6 -1 12 -9 16 -22 8 -18 37 6 43 15 4
17 8 8 14 -10 6 -7 11 11 18 18 7 20 10 8 10 -10 1 -18 8 -18 17 0 10 6 14 14
11 8 -3 17 1 20 9 3 8 1 14 -4 14 -4 0 -3 12 5 28 14 30 28 82 21 82 -2 0 -18
-22 -34 -48z m-148 -737 c3 -8 1 -15 -4 -15 -6 0 -10 7 -10 15 0 8 2 15 4 15
2 0 6 -7 10 -15z m-84 -314 c0 -5 -7 -14 -15 -21 -16 -14 -18 -10 -9 14 6 17
24 22 24 7z"/>
<path d="M1235 1212 c-16 -12 -17 -42 -1 -42 15 0 29 16 32 38 2 13 -15 16
-31 4z"/>
<path d="M1186 1182 c-3 -5 -6 -34 -7 -65 -1 -31 -6 -57 -10 -57 -4 0 -13 -16
-20 -34 -7 -19 -17 -32 -22 -29 -6 4 -8 -3 -5 -15 4 -12 3 -20 -2 -17 -11 7
-21 -22 -14 -40 4 -9 0 -15 -8 -15 -7 0 -14 -8 -14 -17 -1 -10 -4 -26 -9 -35
-6 -14 -2 -18 16 -18 13 0 31 -5 39 -10 13 -8 12 -10 -2 -10 -10 0 -18 -4 -18
-9 0 -12 29 -23 41 -15 19 11 8 -17 -28 -73 -22 -35 -32 -58 -25 -61 7 -2 12
-14 12 -27 0 -13 4 -26 10 -30 6 -3 5 -16 -3 -33 -15 -35 -33 -53 -42 -44 -5
4 -6 0 -2 -9 3 -11 -3 -20 -18 -27 -18 -8 -25 -8 -28 1 -6 17 -41 -5 -45 -29
-3 -15 -1 -17 9 -6 15 14 33 16 25 3 -11 -17 59 14 76 34 10 11 25 28 34 37
11 12 17 36 18 77 0 32 -1 59 -4 59 -17 -1 -15 8 15 58 26 43 32 61 25 75 -13
23 -13 30 1 26 6 -1 14 4 17 12 3 11 -2 12 -22 7 -14 -3 -36 -2 -47 5 -20 10
-20 11 -3 30 14 15 20 17 32 6 13 -10 14 -9 4 10 -7 12 -17 25 -22 28 -6 3
-10 11 -10 16 0 6 4 8 9 5 5 -3 14 0 20 8 7 8 8 15 2 18 -6 2 -4 17 5 37 9 21
19 31 28 28 11 -4 13 10 12 74 -1 72 -7 92 -20 71z"/>
<path d="M966 1167 c3 -10 9 -15 12 -12 3 3 0 11 -7 18 -10 9 -11 8 -5 -6z"/>
<path d="M1116 1153 c-6 -14 -5 -15 5 -6 7 7 10 15 7 18 -3 3 -9 -2 -12 -12z"/>
<path d="M705 1111 c3 -5 1 -12 -5 -16 -5 -3 -10 -11 -10 -16 0 -6 6 -7 13 -2
29 18 44 10 38 -21 -1 -5 5 -4 13 4 10 7 16 8 16 2 0 -6 -11 -19 -24 -30 -20
-15 -22 -22 -13 -32 10 -10 9 -11 -3 -5 -12 7 -13 6 -2 -6 7 -8 17 -15 23 -15
5 -1 14 -2 19 -3 7 -1 7 -8 0 -23 -9 -19 -9 -21 2 -8 7 9 24 16 37 16 14 0 26
5 29 12 3 9 -3 10 -20 3 -25 -9 -64 9 -50 24 4 5 1 5 -6 0 -10 -5 -13 -1 -10
16 1 12 9 25 17 27 10 3 12 0 8 -12 -4 -10 -1 -16 8 -16 20 0 19 19 -5 55 -11
17 -20 26 -20 21 0 -5 -6 -3 -13 3 -8 6 -17 8 -20 4 -4 -3 -7 1 -7 10 0 10 -5
17 -11 17 -5 0 -8 -4 -4 -9z"/>
<path d="M1305 1090 c3 -5 1 -10 -4 -10 -6 0 -11 -5 -11 -11 0 -8 5 -8 15 1
17 14 20 30 4 30 -5 0 -7 -4 -4 -10z"/>
<path d="M713 1053 c-15 -5 -17 -23 -4 -23 5 0 11 7 15 15 3 8 4 15 3 14 -1 0
-8 -3 -14 -6z"/>
<path d="M1063 1035 c0 -8 4 -12 9 -9 5 3 6 10 3 15 -9 13 -12 11 -12 -6z"/>
<path d="M1276 1034 c-8 -22 -4 -25 11 -9 7 8 9 16 4 19 -5 3 -12 -1 -15 -10z"/>
<path d="M1350 1036 c0 -8 4 -17 9 -20 5 -4 7 3 4 14 -6 23 -13 26 -13 6z"/>
<path d="M660 976 c0 -8 -5 -16 -12 -18 -7 -3 -8 -7 -3 -10 6 -3 26 1 45 8 31
13 31 13 6 8 -26 -5 -28 -3 -17 10 11 13 11 16 -3 16 -9 0 -16 -6 -16 -14z"/>
<path d="M1221 974 c0 -11 3 -14 6 -6 3 7 2 16 -1 19 -3 4 -6 -2 -5 -13z"/>
<path d="M970 964 c0 -8 4 -13 8 -10 4 2 8 -4 8 -14 0 -10 -4 -17 -7 -14 -4 2
-10 0 -14 -6 -3 -5 -1 -10 6 -10 7 0 9 -3 6 -7 -4 -3 -2 -12 4 -20 9 -10 5
-13 -23 -13 -48 0 -79 -33 -40 -43 16 -4 16 -5 0 -6 -22 -1 -22 -2 2 -45 14
-22 17 -37 10 -41 -5 -3 -10 -4 -10 -1 0 2 -13 1 -30 -4 -18 -5 -30 -5 -30 1
0 5 -5 9 -11 9 -5 0 -7 -4 -4 -10 6 -10 -2 -23 -47 -71 -27 -30 -48 -37 -48
-18 0 6 20 34 45 61 25 28 45 55 44 62 0 7 -2 7 -6 -2 -2 -6 -9 -10 -14 -6 -5
3 -9 0 -9 -6 0 -6 -4 -8 -10 -5 -5 3 -10 0 -10 -7 0 -9 -3 -9 -10 2 -8 12 -10
11 -10 -7 0 -12 -12 -47 -26 -78 -15 -31 -24 -59 -20 -62 3 -3 6 1 6 10 0 20
1 20 33 8 20 -8 27 -6 31 6 4 9 9 13 13 9 3 -3 14 12 24 34 18 39 69 73 96 63
15 -6 5 -33 -10 -30 -7 1 -11 -3 -10 -9 1 -7 -8 -9 -22 -6 -20 3 -23 1 -18
-17 3 -11 9 -18 14 -15 5 3 5 -5 0 -18 -9 -25 -5 -31 42 -61 17 -11 26 -24 23
-33 -3 -8 -1 -14 5 -14 6 0 8 -4 4 -9 -5 -9 13 -27 20 -20 2 2 7 22 11 43 6
35 5 38 -11 33 -12 -5 -18 -1 -22 13 -3 11 -13 20 -23 20 -18 0 -30 19 -30 46
0 8 9 14 19 14 26 0 61 71 48 97 -5 10 -16 23 -23 29 -20 16 -8 41 22 48 14 4
22 11 19 15 -3 5 1 11 7 14 10 3 10 7 -1 20 -12 15 -11 17 3 17 17 0 19 11 10
47 -7 26 -34 39 -34 17z m-33 -120 c-3 -3 -12 -4 -19 -1 -8 3 -5 6 6 6 11 1
17 -2 13 -5z"/>
<path d="M876 957 c3 -10 9 -15 12 -12 3 3 0 11 -7 18 -10 9 -11 8 -5 -6z"/>
<path d="M723 944 c-9 -9 -8 -14 5 -19 9 -3 13 -3 9 1 -4 4 1 12 9 19 13 9 14
12 2 12 -7 0 -19 -6 -25 -13z"/>
<path d="M615 939 c-4 -6 -4 -13 -1 -16 3 -4 6 -1 6 6 0 7 5 9 12 5 7 -4 8 -3
4 4 -9 15 -13 15 -21 1z"/>
<path d="M854 936 c1 -8 5 -18 8 -22 4 -3 5 1 4 10 -1 8 -5 18 -8 22 -4 3 -5
-1 -4 -10z"/>
<path d="M656 925 c-4 -13 -2 -14 14 -5 23 13 26 20 6 20 -8 0 -16 -7 -20 -15z"/>
<path d="M880 925 c0 -5 5 -17 10 -25 5 -8 10 -10 10 -5 0 6 -5 17 -10 25 -5
8 -10 11 -10 5z"/>
<path d="M1270 921 c0 -6 4 -13 10 -16 6 -3 7 1 4 9 -7 18 -14 21 -14 7z"/>
<path d="M780 911 c0 -6 4 -13 10 -16 6 -3 7 1 4 9 -7 18 -14 21 -14 7z"/>
<path d="M695 900 c3 -5 -1 -11 -7 -13 -7 -3 -1 -5 14 -4 34 2 44 21 12 23
-13 1 -22 -2 -19 -6z"/>
<path d="M754 893 c-4 -12 -13 -24 -23 -26 -14 -4 -14 -5 1 -6 18 -1 44 36 33
47 -3 3 -8 -4 -11 -15z"/>
<path d="M1178 903 c7 -3 16 -2 19 1 4 3 -2 6 -13 5 -11 0 -14 -3 -6 -6z"/>
<path d="M841 884 c0 -11 3 -14 6 -6 3 7 2 16 -1 19 -3 4 -6 -2 -5 -13z"/>
<path d="M585 880 c-3 -5 -1 -10 4 -10 6 0 11 5 11 10 0 6 -2 10 -4 10 -3 0
-8 -4 -11 -10z"/>
<path d="M877 875 c3 -8 9 -12 14 -9 12 7 11 11 -5 17 -10 4 -13 1 -9 -8z"/>
<path d="M778 868 c-9 -5 -6 -8 9 -8 12 0 24 4 27 8 7 11 -19 11 -36 0z"/>
<path d="M860 861 c0 -6 -12 -11 -26 -11 -14 0 -23 -4 -20 -9 4 -5 0 -12 -6
-14 -9 -4 -10 -6 -1 -6 6 -1 15 4 18 9 5 8 12 7 23 -2 10 -8 13 -9 9 -1 -5 7
1 13 15 15 19 3 20 4 5 17 -11 9 -17 10 -17 2z"/>
<path d="M653 841 c-9 -14 -6 -17 13 -19 30 -2 38 11 15 25 -14 9 -20 7 -28
-6z"/>
<path d="M600 839 c8 -8 21 -21 29 -29 12 -12 11 -10 0 9 -9 14 -22 27 -30 29
-11 3 -11 2 1 -9z"/>
<path d="M740 840 c8 -5 20 -10 25 -10 6 0 3 5 -5 10 -8 5 -19 10 -25 10 -5 0
-3 -5 5 -10z"/>
<path d="M1030 821 c-14 -4 -20 -10 -15 -13 10 -6 55 7 55 17 0 6 -7 5 -40 -4z"/>
<path d="M730 800 c0 -5 4 -10 9 -10 6 0 13 5 16 10 3 6 -1 10 -9 10 -9 0 -16
-4 -16 -10z"/>
<path d="M850 799 c0 -5 5 -7 10 -4 6 3 10 8 10 11 0 2 -4 4 -10 4 -5 0 -10
-5 -10 -11z"/>
<path d="M675 787 c-10 -8 -15 -19 -12 -25 5 -6 -1 -9 -15 -6 -22 4 -21 4 1
-6 18 -8 26 -7 32 1 5 8 8 7 13 -2 3 -8 4 -4 2 9 -4 19 -2 21 10 11 7 -6 11
-16 7 -22 -3 -6 -1 -7 5 -3 8 5 8 13 0 31 -13 29 -17 30 -43 12z"/>
<path d="M771 784 c0 -11 3 -14 6 -6 3 7 2 16 -1 19 -3 4 -6 -2 -5 -13z"/>
<path d="M870 779 c0 -5 5 -7 10 -4 6 3 10 8 10 11 0 2 -4 4 -10 4 -5 0 -10
-5 -10 -11z"/>
<path d="M1267 753 c-4 -3 -7 -11 -7 -17 0 -6 5 -5 12 2 6 6 9 14 7 17 -3 3
-9 2 -12 -2z"/>
<path d="M607 724 c-3 -3 -3 -13 0 -21 3 -8 0 -19 -8 -25 -12 -8 -11 -9 1 -5
8 2 15 16 16 30 1 29 1 30 -9 21z"/>
<path d="M737 713 c-3 -5 -7 -24 -10 -43 l-6 -35 11 35 c7 19 17 38 22 42 8 5
7 8 -1 8 -6 0 -14 -3 -16 -7z"/>
<path d="M1240 705 c-11 -13 -10 -22 6 -51 18 -34 18 -36 2 -48 -10 -7 -18
-23 -18 -36 0 -19 2 -20 15 -10 8 7 12 16 9 22 -3 5 -1 15 6 23 15 18 3 88
-14 78 -6 -4 -5 1 3 10 8 10 12 20 9 22 -3 3 -11 -1 -18 -10z"/>
<path d="M633 684 c-9 -20 -9 -23 1 -15 9 7 16 7 23 0 8 -8 14 -5 22 9 6 12 7
23 2 26 -5 3 -12 -2 -16 -12 -7 -16 -8 -16 -14 0 -5 15 -8 13 -18 -8z"/>
<path d="M1186 685 c18 -28 24 -31 24 -12 0 7 -9 18 -20 25 -20 12 -21 12 -4
-13z"/>
<path d="M696 674 c-4 -14 -5 -28 -3 -31 3 -2 8 8 11 23 4 14 5 28 3 31 -3 2
-8 -8 -11 -23z"/>
<path d="M1289 698 c-1 -2 -3 -28 -5 -58 -6 -98 -9 -115 -18 -121 -4 -4 -3 -9
3 -13 6 -4 13 5 16 21 3 15 10 43 14 61 6 19 5 32 0 32 -5 0 -6 18 -3 40 4 22
4 40 0 40 -3 0 -7 -1 -7 -2z"/>
<path d="M1036 623 c9 -52 14 -54 14 -5 0 23 -5 42 -10 42 -7 0 -8 -14 -4 -37z"/>
<path d="M980 640 c0 -5 7 -10 16 -10 8 0 12 5 9 10 -3 6 -10 10 -16 10 -5 0
-9 -4 -9 -10z"/>
<path d="M1156 637 c3 -10 9 -15 12 -12 3 3 0 11 -7 18 -10 9 -11 8 -5 -6z"/>
<path d="M1210 634 c0 -8 5 -12 10 -9 6 4 8 11 5 16 -9 14 -15 11 -15 -7z"/>
<path d="M1395 641 c-3 -5 -2 -12 3 -15 5 -3 9 1 9 9 0 17 -3 19 -12 6z"/>
<path d="M600 616 c0 -2 7 -7 16 -10 8 -3 12 -2 9 4 -6 10 -25 14 -25 6z"/>
<path d="M1339 617 c-1 -4 -2 -10 -3 -14 -1 -5 -5 -14 -9 -20 -5 -7 -3 -21 3
-30 8 -13 10 -14 8 -3 -1 8 2 25 6 38 4 13 5 26 2 29 -3 4 -7 3 -7 0z"/>
<path d="M570 581 c0 -11 8 -25 18 -30 14 -8 19 -6 19 5 0 9 -6 13 -15 9 -10
-3 -12 0 -9 10 4 8 2 17 -3 20 -6 4 -10 -3 -10 -14z"/>
<path d="M645 589 c-4 -6 -5 -12 -2 -15 2 -3 7 2 10 11 7 17 1 20 -8 4z"/>
<path d="M530 570 c-9 -6 -10 -10 -3 -10 6 0 15 5 18 10 8 12 4 12 -15 0z"/>
<path d="M653 533 c0 -21 5 -33 14 -33 10 0 11 5 5 18 -5 9 -12 24 -15 32 -2
8 -5 0 -4 -17z"/>
<path d="M527 536 c-4 -10 -1 -13 8 -9 8 3 12 9 9 14 -7 12 -11 11 -17 -5z"/>
<path d="M563 520 c-9 -14 -10 -21 -1 -26 7 -4 8 -3 4 4 -4 7 -1 12 8 12 10 0
13 -6 10 -17 -5 -15 -4 -15 4 -4 7 10 7 21 1 33 -12 22 -12 22 -26 -2z"/>
<path d="M1320 490 c-9 -6 -10 -10 -3 -10 6 0 15 5 18 10 8 12 4 12 -15 0z"/>
<path d="M599 473 c-13 -16 -12 -17 4 -4 9 7 17 15 17 17 0 8 -8 3 -21 -13z"/>
<path d="M1185 467 c-17 -7 -61 -27 -98 -46 -60 -31 -72 -33 -98 -24 -16 6
-29 7 -29 2 0 -5 7 -9 15 -9 8 0 15 -9 15 -20 0 -19 12 -14 113 40 63 33 117
60 120 60 17 0 4 -22 -18 -30 -14 -5 -49 -25 -78 -45 -50 -34 -52 -37 -53 -81
-1 -29 2 -41 7 -33 5 8 9 25 9 39 0 19 14 34 52 60 29 19 57 34 63 32 15 -3
39 43 31 57 -9 13 -13 13 -51 -2z"/>
<path d="M657 441 c-4 -19 -5 -36 -2 -39 3 -3 5 2 5 10 0 11 6 14 20 11 11 -3
20 -14 20 -25 0 -10 4 -17 9 -14 5 4 11 3 13 -2 1 -4 18 -18 36 -31 35 -24 34
-41 -1 -42 -12 0 -16 -3 -9 -6 15 -6 16 -43 0 -43 -6 0 -9 -3 -6 -6 4 -3 15
-1 26 5 14 7 18 17 15 31 -6 22 12 28 20 6 3 -7 15 -16 27 -19 17 -4 20 -2 14
15 -4 13 -2 18 4 14 5 -3 12 -21 14 -40 l4 -35 -67 3 c-36 2 -71 6 -77 10 -16
9 -15 38 1 56 10 12 9 12 -5 1 -9 -7 -22 -10 -28 -6 -6 4 -9 1 -8 -6 2 -6 -3
-14 -9 -16 -8 -3 -13 3 -14 14 0 16 -1 16 -8 -2 -5 -12 -4 -26 2 -34 18 -22
16 -41 -3 -41 -10 0 -20 -6 -23 -12 -3 -9 -9 -8 -19 5 -13 18 -15 17 -41 -3
-15 -12 -27 -26 -27 -32 0 -6 9 0 19 13 19 23 20 23 40 5 13 -12 20 -30 19
-51 -1 -33 -1 -33 -21 -14 -12 10 -24 19 -29 19 -12 0 -10 -18 3 -22 9 -3 9
-10 -1 -27 -12 -23 -11 -23 16 -17 16 3 47 9 69 12 27 4 48 15 66 36 16 18 53
39 95 54 l69 25 -80 -5 c-44 -3 -90 -8 -102 -12 -18 -5 -23 -2 -23 12 0 17 9
19 114 19 63 0 113 -2 111 -5 -7 -11 42 -3 90 15 67 25 80 38 30 30 l-40 -6
23 20 c13 11 22 26 20 33 -3 8 -14 3 -30 -15 -16 -17 -29 -24 -33 -17 -3 5
-12 10 -18 10 -7 0 -4 -7 6 -14 29 -22 20 -36 -23 -34 -43 1 -50 13 -22 35 15
13 15 13 -6 3 -20 -10 -24 -9 -29 9 -3 12 -35 43 -72 71 -98 73 -101 76 -101
95 0 17 1 17 18 2 10 -10 24 -17 31 -17 7 0 27 -15 44 -33 40 -41 87 -71 95
-61 4 4 1 9 -6 11 -6 3 -10 9 -7 13 3 5 -14 21 -37 36 -24 15 -45 30 -48 34
-9 13 -45 28 -77 33 -29 5 -33 2 -34 -16 -1 -20 -2 -20 -8 3 -7 24 -7 24 -14
-9z m43 -191 c0 -11 -4 -20 -10 -20 -5 0 -10 9 -10 20 0 11 5 20 10 20 6 0 10
-9 10 -20z m-36 -97 c-10 -7 -13 -13 -8 -13 5 0 10 -9 11 -20 1 -12 -4 -20
-13 -20 -8 0 -12 5 -9 10 3 6 3 10 -2 10 -9 0 -14 48 -7 69 3 11 9 10 25 -5
19 -17 19 -19 3 -31z m56 7 c0 -3 -6 -14 -13 -25 -15 -20 -31 -7 -22 17 6 14
35 21 35 8z"/>
<path d="M945 432 c-5 -4 -16 -15 -24 -24 -12 -16 -11 -18 3 -18 9 0 16 5 16
11 0 7 8 18 18 25 9 7 13 13 7 14 -5 0 -14 -4 -20 -8z"/>
<path d="M554 398 c-4 -7 -4 -10 1 -6 4 4 14 0 21 -10 7 -9 14 -12 14 -6 0 6
-6 17 -14 23 -11 9 -16 9 -22 -1z"/>
<path d="M1190 345 c0 -47 -3 -55 -19 -55 -21 0 -36 -26 -21 -35 6 -4 10 1 10
9 0 9 5 16 11 16 6 0 9 -9 6 -20 -3 -11 0 -20 6 -20 8 0 8 -3 0 -11 -17 -17
-53 -1 -54 24 l0 22 -9 -22 c-5 -13 -14 -23 -21 -23 -6 0 -9 7 -5 15 3 9 0 15
-9 15 -18 0 -20 -24 -2 -37 6 -6 36 -13 65 -16 60 -7 54 -18 56 115 1 43 -2
78 -6 78 -5 0 -8 -25 -8 -55z"/>
<path d="M880 375 c7 -8 16 -12 21 -9 13 8 1 24 -18 24 -13 0 -13 -3 -3 -15z"/>
<path d="M606 368 c3 -5 10 -6 15 -3 13 9 11 12 -6 12 -8 0 -12 -4 -9 -9z"/>
<path d="M692 345 c0 -16 2 -22 5 -12 2 9 2 23 0 30 -3 6 -5 -1 -5 -18z"/>
<path d="M560 353 c0 -5 5 -15 10 -23 8 -12 10 -11 10 8 0 12 -4 22 -10 22 -5
0 -10 -3 -10 -7z"/>
<path d="M1257 343 c3 -7 8 -13 12 -13 4 0 8 6 8 13 0 8 -6 14 -13 14 -7 0
-10 -6 -7 -14z"/>
<path d="M1039 333 c-13 -16 -12 -17 4 -4 16 13 21 21 13 21 -2 0 -10 -8 -17
-17z"/>
<path d="M940 329 c0 -5 5 -7 10 -4 6 3 10 8 10 11 0 2 -4 4 -10 4 -5 0 -10
-5 -10 -11z"/>
<path d="M530 310 c0 -5 4 -10 9 -10 6 0 13 5 16 10 3 6 -1 10 -9 10 -9 0 -16
-4 -16 -10z"/>
<path d="M896 304 c-4 -11 -2 -13 11 -5 9 5 26 5 38 1 15 -6 22 -4 22 3 0 18
-64 18 -71 1z"/>
<path d="M1247 283 c-10 -9 -9 -23 2 -23 5 0 11 7 15 15 5 15 -5 20 -17 8z"/>
<path d="M1233 238 c-17 -27 -20 -133 -4 -152 17 -20 31 -21 31 -1 0 8 -5 15
-12 15 -16 0 -1 13 18 16 13 2 15 -4 11 -24 -5 -27 -5 -27 55 -30 52 -2 59 0
49 12 -7 8 -19 12 -28 9 -13 -5 -13 -3 -4 15 11 21 0 25 -26 9 -13 -8 -17 -2
-14 17 4 17 -9 56 -18 56 -4 0 -6 -11 -4 -23 4 -21 1 -24 -26 -25 -28 -1 -30
1 -20 19 16 30 20 61 7 53 -7 -5 -9 2 -4 20 7 28 2 34 -11 14z"/>
<path d="M1525 190 c-4 -6 -11 -7 -17 -4 -7 4 -8 2 -4 -5 6 -8 12 -9 20 -2 7
6 17 7 21 3 5 -4 5 -1 1 6 -9 15 -13 15 -21 2z"/>
<path d="M522 132 c0 -9 -4 -28 -8 -41 -6 -19 -4 -22 12 -19 24 4 33 63 10 71
-9 4 -15 0 -14 -11z"/>
<path d="M490 130 c0 -5 7 -10 16 -10 8 0 12 5 9 10 -3 6 -10 10 -16 10 -5 0
-9 -4 -9 -10z"/>
</g>
</svg>
